<?xml version="1.0" encoding="UTF-8"?>
<svg width="33px" height="37px" viewBox="0 0 33 37" version="1.1" xmlns="http://www.w3.org/2000/svg" xmlns:xlink="http://www.w3.org/1999/xlink">
    <!-- Generator: Sketch 56.2 (81672) - https://sketch.com -->
    <title>Group 31</title>
    <desc>Created with Sketch.</desc>
    <g id="MODELO-DE-LANDING-Bootcamp" stroke="none" stroke-width="1" fill="none" fill-rule="evenodd">
        <g id="Modelo-de-landing" transform="translate(-331.000000, -2650.000000)" fill="#FFFFFF">
            <g id="Group-32" transform="translate(330.000000, 2644.000000)">
                <g id="Group-31" transform="translate(1.000000, 0.000000)">
                    <text id="?" font-family="EncodeSans-ExtraBold, Encode Sans" font-size="21" font-weight="600">
                        <tspan x="22" y="22">?</tspan>
                    </text>
                    <path d="M12.7111111,26.7903824 C17.0916778,26.7903824 20.6555556,23.2485997 20.6555556,18.8951912 C20.6555556,14.5417828 17.0916778,11 12.7111111,11 C8.33054444,11 4.76666667,14.5417828 4.76666667,18.8951912 C4.76666667,23.2485997 8.33054444,26.7903824 12.7111111,26.7903824 Z M12.7111111,14.1580765 C15.3391333,14.1580765 17.4777778,16.283462 17.4777778,18.8951912 C17.4777778,21.5069205 15.3391333,23.632306 12.7111111,23.632306 C10.0830889,23.632306 7.94444444,21.5069205 7.94444444,18.8951912 C7.94444444,16.283462 10.0830889,14.1580765 12.7111111,14.1580765 Z" id="Shape" fill-rule="nonzero"></path>
                    <path d="M12.7111111,29.9484589 C5.22585556,29.9484589 0,33.8439463 0,39.4226884 L0,42.5807649 L25.4222222,42.5807649 L25.4222222,39.4226884 C25.4222222,33.8439463 20.1963667,29.9484589 12.7111111,29.9484589 Z M12.1740667,33.1223258 L10.0608444,39.4226884 L3.17777778,39.4226884 C3.17777778,35.8256393 6.85287778,33.2833877 12.1740667,33.1223258 Z M15.3582,39.4226884 L13.2449778,33.1223258 C18.5693444,33.2818087 22.2444444,35.8240602 22.2444444,39.4226884 L15.3582,39.4226884 Z" id="Shape" fill-rule="nonzero"></path>
                </g>
            </g>
        </g>
    </g>
</svg>