<?xml version="1.0" encoding="UTF-8"?>
<svg width="766px" height="596px" viewBox="0 0 766 596" version="1.1" xmlns="http://www.w3.org/2000/svg" xmlns:xlink="http://www.w3.org/1999/xlink">
    <!-- Generator: Sketch 61.1 (89650) - https://sketch.com -->
    <title>Modelo de landing</title>
    <desc>Created with Sketch.</desc>
    <defs>
        <polygon id="path-1" points="0.334965858 0.2196 69.152444 0.2196 69.152444 52.110348 0.334965858 52.110348"></polygon>
    </defs>
    <g id="MODELO-DE-LANDING-Bootcamp" stroke="none" stroke-width="1" fill="none" fill-rule="evenodd">
        <g id="Modelo-de-landing" transform="translate(-632.000000, -1942.000000)">
            <rect fill="#FFFFFF" x="0" y="0" width="1920" height="5401"></rect>
            <g id="Group-11" transform="translate(632.000000, 1942.000000)">
                <g id="blob-shape" transform="translate(569.000000, 114.500000)" fill="#EDEDED" fill-rule="nonzero">
                    <path d="M119.302521,12.1046857 C136.348178,22.8715461 149.358104,40.1621693 155.571007,59.0439541 C161.837013,77.8727002 161.359097,98.2926079 164.067285,123.167768 C166.828576,148.095967 172.77597,177.532458 160.774978,191.481641 C148.773985,205.483864 118.771503,203.945741 96.3094683,195.936894 C73.7943316,187.981086 58.7665399,173.554554 42.7298151,166.924713 C26.6930904,160.294873 9.59433085,161.408686 3.1690206,153.558956 C-3.25628965,145.709225 1.04495109,128.842911 7.57646482,117.015277 C14.1610803,105.134603 23.0290705,98.2926079 24.8345295,85.6163535 C26.6399886,72.8870604 21.3298149,54.4295853 26.0027678,37.9875817 C30.6757207,21.5455781 45.2786985,7.17208457 63.1739841,2.13340604 C81.0692696,-2.95831121 102.256863,1.33782522 119.302521,12.1046857 Z" id="Path"></path>
                </g>
                <g id="Cloud" opacity="0.379464286" transform="translate(92.000000, 297.500000)">
                    <path d="M585.712543,150.759515 C572.555185,146.894517 557.491933,144.010656 548.263392,137.868628 C533.027384,127.72549 539.647858,113.402598 538.354971,100.653493 C535.992108,77.4294799 503.747944,56.6980071 462.910537,46.2627972 C422.067557,35.8275873 374.052396,34.5827348 328.96295,38.3711697 C271.301289,43.2116326 215.021681,56.5392105 177.076552,79.1563937 C139.136996,101.770741 122.100976,134.290031 141.059608,162.419728 C157.711106,187.13246 200.292796,207.892289 186.522431,233.061562 C149.095572,246.227507 124.268791,268.249203 120.819234,291.334269 C117.369677,314.4165 135.380935,338.097054 168.461018,353.988063 C194.324337,366.408232 230.965433,376.103336 237.351851,393.905577 C242.36179,407.871177 226.022368,422.301825 232.458941,436.1143 C239.084989,450.346451 266.787329,458.771182 287.88034,468.707317 C308.973351,478.643451 324.270661,496.71508 303.829666,507 C303.829666,507 340.660237,497.066701 322.108418,468.800893 C311.469961,452.595126 292.43331,435.722979 303.829666,419.653323 C308.95106,412.433746 319.444624,406.527077 325.825469,399.56838 C342.437957,381.440038 322.024826,358.156476 287.807894,349.462358 C310.232802,352.351891 333.025514,354.382219 355.868381,353.10901 C387.18189,351.362247 418.991377,341.902502 428.342519,326.595637 C435.230487,315.312567 424.463857,301.760972 405.750427,295.79759 C453.436793,301.117278 504.316368,299.600203 548.603332,289.32379 C599.973313,277.405532 640.977904,253.052928 650.440502,224.730408 C659.897527,196.407887 634.608204,165.122107 585.712543,150.759515" id="Shape" fill="#E5E5E5"></path>
                    <path d="M89.6,205.881215 C89.6,192.731382 69.5416228,182.071823 44.7972272,182.071823 C20.0583772,182.071823 0,192.731382 0,205.881215 C0,219.031049 20.0583772,229.690608 44.7972272,229.690608 C69.5416228,229.690608 89.6,219.031049 89.6,205.881215" id="Shape" fill="#B9B9B9"></path>
                    <path d="M672,93.8370166 C672,83.780185 655.705729,75.6298343 635.6,75.6298343 C615.500064,75.6298343 599.2,83.780185 599.2,93.8370166 C599.2,103.893848 615.500064,112.044199 635.6,112.044199 C655.705729,112.044199 672,103.893848 672,93.8370166" id="Shape" fill="#B9B9B9"></path>
                    <path d="M226.8,14.0055249 C226.8,6.26953201 214.267111,0 198.802745,0 C183.338379,0 170.8,6.26953201 170.8,14.0055249 C170.8,21.7415177 183.338379,28.0110497 198.802745,28.0110497 C214.267111,28.0110497 226.8,21.7415177 226.8,14.0055249" id="Shape" fill="#B3E0D0"></path>
                </g>
                <g id="Coding" transform="translate(275.000000, 0.500000)">
                    <g>
                        <g id="Chair" transform="translate(0.653629, 257.861066)">
                            <path d="M17.7616988,-5.20117283e-15 C7.99320463,-5.20117283e-15 0,7.975872 0,17.723184 L0,63.723528 C0,74.4444 8.79135135,83.215956 19.5355212,83.215956 L56.8166023,83.215956 C61.6583012,83.215956 65.6196911,79.263156 65.6196911,74.431956 L65.6196911,8.784 C65.6196911,3.9528 61.6583012,-5.20117283e-15 56.8166023,-5.20117283e-15 L17.7616988,-5.20117283e-15 Z" id="Shape" fill="#523B5D"></path>
                            <path d="M94.195251,162.356868 L99.8265042,254.135812 C111.734392,254.479351 121.122768,256.39551 122.640305,258.805641 C125.092003,258.84766 127.573524,259.19495 130.020888,259.54158 C133.473166,260.031288 136.849884,261.479184 139.160695,263.760828 C139.160695,263.760828 140.454749,265.21458 140.897104,265.981716 C142.957761,269.557536 142.165483,274.478772 138.516602,276.850452 C134.866255,279.222864 128.701892,277.916976 127.293398,274.099596 C126.267838,271.320192 127.883205,268.16088 130.494788,266.379924 C131.822587,265.473708 133.354324,264.876396 134.969691,264.483312 C132.163434,261.679736 127.278396,261.014183 121.685227,261.076724 C118.32336,263.293338 108.087993,264.905676 95.9830116,264.905676 C94.774916,264.905676 93.5854345,264.889615 92.4195424,264.858496 L90.0702703,266.328684 C93.3193436,265.755528 97.0335135,266.723232 98.8432819,269.25156 C101.866409,273.478128 98.7009653,279.906552 93.2379151,281.139972 C87.75139,282.377784 81.587027,278.24784 81.4190347,273.221196 C81.2842929,269.20758 85.0050059,265.562288 89.3404944,264.738333 C79.1143828,264.21522 71.2289383,262.510071 69.4761731,260.387708 C67.4164897,260.408926 63.6344821,260.539403 61.7074517,261.1776 C58.9748263,262.08162 57.2978378,264.09096 58.2082239,266.551944 C58.7510811,268.018872 60.2373359,269.069292 60.9115058,270.4923 C62.5232046,273.8961 57.9749421,277.838652 53.9372587,276.958788 C49.9003089,276.078924 47.6782625,271.732308 48.6979537,268.152828 C49.7183784,264.573348 53.2308108,261.88764 57.096834,260.531976 C60.9628571,259.176312 65.1920077,258.938412 69.3411969,258.715884 L69.3411969,258.715884 L69.365916,258.744605 C71.0180393,256.340342 80.5128477,254.440246 92.4805757,254.126426 L86.878417,162.803388 L94.195251,162.356868 Z" id="Combined-Shape" fill="#3A3B39"></path>
                            <path d="M95.1298456,169.490208 C134.966757,169.490208 140.634479,151.922208 140.634479,151.922208 L39.5214672,153.020208 C47.8425869,167.442072 55.293668,169.490208 95.1298456,169.490208 Z" id="Shape" fill="#523B5D"></path>
                        </g>
                        <g id="Man" transform="translate(12.856453, 112.671898)">
                            <polygon id="Shape" fill="#F9B6A8" points="150.897872 215.753236 128.432389 222.737248 114.249879 149.247376 137.254551 138.391816"></polygon>
                            <polygon id="Shape" fill="#3A3B39" points="269.770381 342.495376 287.376559 338.835376 264.635246 357.867376 246.662273 333.162376 255.832157 323.829376"></polygon>
                            <path d="M145.295439,164.582044 C145.295439,162.607108 146.899069,161.006224 148.877563,161.006224 L199.308991,156.856516 C201.286752,156.856516 202.891115,158.4574 202.891115,160.431604 L202.891115,214.731364 L145.295439,214.731364 L145.295439,164.582044 Z" id="Shape" fill="#838383"></path>
                            <path d="M174.092544,181.044724 C170.315285,181.044724 167.253277,184.100092 167.253277,187.86916 C167.253277,191.638228 170.315285,194.693596 174.092544,194.693596 C177.869802,194.693596 180.93181,191.638228 180.93181,187.86916 C180.93181,184.100092 177.869802,181.044724 174.092544,181.044724 Z" id="Shape" fill="#FFFFFE"></path>
                            <polygon id="Shape" fill="#3A3B39" points="202.280034 426.185668 216.585053 436.067668 192.743354 436.067668 192.743354 405.689668 202.280034 405.689668"></polygon>
                            <path d="M183.940266,254.289376 L244.461501,338.835376 L260.233702,326.025376 C260.233702,326.025376 219.152621,208.173376 192.743354,206.709376 C185.090536,223.5688 181.068258,239.659624 183.940266,254.289376 Z" id="Shape" fill="#373737"></path>
                            <path d="M40.2679875,61.8678043 C43.744474,67.3263283 48.7644354,71.7161323 54.8282964,73.8521083 C68.0343968,77.8056403 85.9875628,71.6714803 89.4442424,57.5958523 C81.8596478,55.0645963 76.0884895,54.0881083 76.0884895,54.0881083 L74.0498408,44.2061083 C74.0498408,44.2061083 78.1198022,41.8271083 80.1371767,38.3501083 C82.1545513,34.8731083 70.8968679,9.07010832 70.8968679,9.07010832 L52.0773312,10.7171083 L56.9931227,30.6941203 C56.9931227,30.6941203 49.5845899,22.6421203 48.1174084,27.0341203 C46.6502269,31.4261203 56.6263273,35.8181203 56.6263273,35.8181203 L58.5952848,51.8672203 C58.9518099,54.1415443 57.5513852,56.3258323 55.3300725,56.9473003 C51.869725,57.9142723 46.4184123,59.5605403 40.2679875,61.8678043 Z" id="Shape" fill="#F9B6A8"></path>
                            <path d="M96.7779489,60.3635443 C94.239725,59.2860403 91.757254,58.3673803 89.4442424,57.5951203 C85.9875628,71.6707483 68.0343968,77.8049083 54.8282964,73.8513763 C48.7644354,71.7154003 43.744474,67.3255963 40.2679875,61.8670723 C37.6586053,62.8457563 34.9245126,63.9444883 32.1610764,65.1596083 C40.1396092,76.5839323 52.758837,83.8702603 68.0329296,81.9033763 C80.8619644,80.6231083 92.5671381,72.6274723 96.7779489,60.3635443 Z" id="Shape" fill="#FFFFFE"></path>
                            <path d="M96.7779489,60.3635443 C92.5671381,72.6274723 80.8619644,80.6231083 68.0329296,81.9033763 C52.758837,83.8702603 40.1396092,76.5839323 32.1610764,65.1596083 C27.6663659,67.1374723 23.09903,69.4249723 18.8823505,72.0213763 C1.64296824,82.6353763 19.6159412,263.073376 19.6159412,263.073376 L139.191231,225.009376 L126.778142,144.99958 L137.253818,138.391816 C137.253818,138.391816 127.162544,96.6795283 124.152621,85.9293763 C120.591771,73.2130723 108.12293,65.1808363 96.7779489,60.3635443 Z" id="Shape" fill="#273156"></path>
                            <polygon id="Shape" fill="#F9B6A8" points="134.401617 204.45994 144.198721 200.205556 142.370613 211.7836 130.260497 216.556972"></polygon>
                            <path d="M116.915015,220.500988 C112.283123,222.126028 109.573972,226.924288 110.581926,231.71962 L159.976791,215.61562 L149.70652,209.271376 L116.915015,220.500988 Z" id="Shape" fill="#838383"></path>
                            <polygon id="Shape" fill="#273156" points="34.2488756 127.653376 38.6900339 241.845376 34.2488756 241.845376"></polygon>
                            <path d="M77.2028138,32.1273763 C77.2028138,32.1273763 74.2684509,22.9773763 71.7008833,22.9773763 C69.1333157,22.9773763 73.5348601,33.2253763 73.5348601,33.2253763 L77.2028138,32.1273763 Z" id="Shape" fill="#CC395D"></path>
                            <path d="M59.7440879,30.6933883 C59.7440879,30.6933883 58.4962501,16.7553763 55.7452848,13.4613763 C55.7452848,13.4613763 71.0809991,14.1933763 74.0498408,8.52037632 C77.0194161,2.84737632 72.0324663,-2.64262368 64.8975628,1.38337632 C57.7626594,5.40937632 50.6101497,2.84737632 52.0773312,10.7163763 C52.0773312,10.7163763 42.8832385,14.3097643 49.3263659,22.0623763 C55.5618872,29.5653763 56.9931227,30.6933883 56.9931227,30.6933883 L59.7440879,30.6933883 Z" id="Shape" fill="#333333"></path>
                            <path d="M64.6400725,22.9773763 C63.8800725,22.9773763 63.2645899,23.5915243 63.2645899,24.3498763 C63.2645899,25.1082283 63.8800725,25.7223763 64.6400725,25.7223763 C65.4000725,25.7223763 66.0155551,25.1082283 66.0155551,24.3498763 C66.0155551,23.5915243 65.4000725,22.9773763 64.6400725,22.9773763 Z" id="Shape" fill="#3F2C48"></path>
                            <path d="M74.0498408,20.2323763 C73.2898408,20.2323763 72.6743582,20.8465243 72.6743582,21.6048763 C72.6743582,22.3632283 73.2898408,22.9773763 74.0498408,22.9773763 C74.8105744,22.9773763 75.4253235,22.3632283 75.4253235,21.6048763 C75.4253235,20.8465243 74.8105744,20.2323763 74.0498408,20.2323763 Z" id="Shape" fill="#3F2C48"></path>
                            <path d="M60.6662115,21.1525003 C61.0814238,20.2792243 61.8861729,19.5896803 62.8765204,19.2602803 C63.8668679,18.9316123 64.9247057,19.0011523 65.7815397,19.4506003 L65.0978331,20.7462403 C64.5931227,20.4812563 63.9519644,20.4453883 63.3401497,20.6496163 C62.7276014,20.8531123 62.2368292,21.2652283 61.9925435,21.7790923 L60.6662115,21.1525003 Z" id="Shape" fill="#333333"></path>
                            <path d="M70.154474,18.1696003 C71.0714625,16.7846563 72.8915011,16.1419603 74.4789914,16.6419163 L74.0373698,18.0378403 C73.0925049,17.7406483 71.9246285,18.1534963 71.3781034,18.9777283 L70.154474,18.1696003 Z" id="Shape" fill="#333333"></path>
                            <path d="M69.3167134,42.3753763 C69.3167134,42.3753763 75.368837,40.1793763 76.2858254,36.1533763 C76.2858254,36.1533763 80.2156709,39.6303763 82.9270223,37.8003763 C82.9270223,37.8003763 78.6699953,31.0293763 73.5348601,33.2253763 C73.5348601,33.2253763 68.5831227,36.7023763 69.3167134,42.3753763 Z" id="Shape" fill="#333333"></path>
                            <polygon id="Shape" fill="#CC395D" points="77.2028138 60.3093763 79.0646671 54.6956683 76.0884895 54.0873763"></polygon>
                            <path d="M56.0739335,32.8432723 L50.3908061,29.5448803 C50.2162115,29.4431323 50.1567906,29.2191403 50.2587597,29.0441923 C50.3607289,28.8699763 50.5859412,28.8099523 50.7598022,28.9124323 L56.4429296,32.2108243 C56.6182578,32.3125723 56.6769451,32.5365643 56.5757096,32.7107803 C56.5074856,32.8279003 56.3842424,32.8930483 56.2587984,32.8930483 C56.1957096,32.8930483 56.1326208,32.8769443 56.0739335,32.8432723 Z" id="Shape" fill="#CC395D"></path>
                            <path d="M2.37655898,114.477376 C1.33486014,126.837196 0.731114962,143.789584 0.393663224,161.205328 C12.7642038,164.303884 24.0504972,163.566028 34.248142,158.97346 L34.2877559,143.14762 L18.8823505,72.0213763 C18.8823505,72.0213763 5.67771728,75.3153763 2.37655898,114.477376 Z" id="Shape" fill="#273156"></path>
                            <path d="M0.238141989,170.474644 C11.3138949,172.24096 22.674281,171.204448 34.2254007,168.280108 L34.2488756,158.97346 L0.393663224,161.205328 C0.333508784,164.28778 0.282157433,167.385604 0.238141989,170.474644 Z" id="Shape" fill="#FFFFFE"></path>
                            <path d="M211.816713,274.785376 C211.475594,292.75378 204.480806,412.035376 204.480806,412.035376 L188.708605,412.035376 L177.704744,301.137376 L82.9270223,301.137376 L183.940266,254.289376 C183.940266,254.289376 212.158567,256.816972 211.816713,274.785376 Z" id="Shape" fill="#222222"></path>
                            <path d="M27.3186439,298.209376 C40.2679875,308.823376 73.5348601,315.045376 116.449918,291.987376 C159.364976,268.929376 183.940266,254.289376 183.940266,254.289376 L192.743354,206.709376 C166.334088,205.245376 14.8476014,263.073376 14.8476014,263.073376 C14.8476014,263.073376 14.3700339,287.595376 27.3186439,298.209376 Z" id="Shape" fill="#373737"></path>
                            <polygon id="Shape" fill="#008B44" points="199.345671 245.505376 191.642968 255.711652 183.940266 254.289376"></polygon>
                            <path d="M34.0434702,241.23562 L34.2254007,168.280108 L0.238141989,170.474644 C-0.258498938,205.227808 0.175786776,238.917376 0.175786776,238.917376 C0.175786776,238.917376 -0.557803957,272.589376 26.2182578,268.929376 C52.9943196,265.269376 111.681578,219.719944 111.681578,219.719944 L119.384281,222.769456 L128.432389,218.621944 L113.271269,209.3497 L34.0434702,241.23562 Z" id="Shape" fill="#F9B6A8"></path>
                            <polygon id="Shape" fill="#FFFFFE" points="137.254551 138.391816 138.646906 146.286436 127.850652 151.908196 126.778876 144.99958"></polygon>
                            <polygon id="Shape" fill="#273156" points="118.89571 100.935376 130.260497 142.80358 126.778876 144.99958"></polygon>
                            <polygon id="Shape" fill="#CC395D" points="143.049184 201.104452 136.048528 204.143716 135.755825 203.47174 142.755748 200.432476"></polygon>
                            <polygon id="Shape" fill="#CC395D" points="121.560845 221.534572 121.202852 222.173608 114.07015 218.19226 114.428876 217.553224"></polygon>
                            <path d="M114.768528,215.028556 L115.197679,214.434904 C115.736134,214.822864 123.725671,220.137916 123.806366,220.191352 L123.399223,220.800376 C123.069107,220.580776 115.317254,215.423836 114.768528,215.028556 Z" id="Shape" fill="#CC395D"></path>
                            <polygon id="Shape" fill="#CC395D" points="126.409146 219.344428 125.990999 219.946132 117.606057 214.14796 118.024204 213.546256"></polygon>
                            <polygon id="Shape" fill="#CC395D" points="135.525478 207.745888 132.920497 215.258404 132.222119 215.017576 134.827833 207.50506"></polygon>
                            <polygon id="Shape" fill="#CC395D" points="137.581733 207.733444 135.524744 214.35658 134.821964 214.139176 136.879686 207.51604"></polygon>
                            <polygon id="Shape" fill="#CC395D" points="140.464011 207.718804 139.008567 213.15244 138.298451 212.962852 139.751694 207.529216"></polygon>
                            <polygon id="Shape" fill="#FFFFFE" points="101.353354 195.287248 100.831771 196.656088 84.7815397 190.567312 85.3031227 189.198472"></polygon>
                            <polygon id="Shape" fill="#FFFFFE" points="109.656868 181.695472 108.571887 182.680012 101.23598 174.628012 102.321694 173.643472"></polygon>
                            <polygon id="Shape" fill="#FFFFFE" points="123.050767 181.407064 121.587254 181.50442 120.853663 170.52442 122.317177 170.427064"></polygon>
                        </g>
                        <g id="Boards" transform="translate(68.957529, 0.000000)">
                            <g id="Board" transform="translate(170.876757, 97.554366)">
                                <path d="M7.74598456,144.951012 C5.96996139,144.951012 4.23942085,144.341988 2.83752896,143.194212 C1.03436293,141.7185 -2.08499027e-14,139.53714 -2.08499027e-14,137.210112 L-2.08499027e-14,26.530248 C-2.08499027e-14,22.672608 2.77444015,19.454736 6.59718147,18.87792 L131.201236,0.0874800044 C133.437954,-0.250703996 135.703282,0.401508004 137.417683,1.872828 C139.132819,3.34488 140.11583,5.483052 140.11583,7.739808 L140.11583,112.411416 C140.11583,116.089716 137.491776,119.281968 133.876641,120.001524 L9.27332046,144.80022 C8.76494208,144.901236 8.25362934,144.951012 7.74598456,144.951012" id="Fill-89" fill="#6B4F7C"></path>
                                <path d="M84.7296564,32.7191616 C84.7296564,35.8579139 87.2741178,38.4023753 90.4128701,38.4023753 C90.7448835,38.4023753 91.0762582,38.3732811 91.403192,38.3154265 L117.205196,33.749472 C121.122105,33.0563309 123.976761,29.6521599 123.976761,25.6743936 C123.976761,22.5053988 121.407783,19.9364209 118.238788,19.9364209 C117.894157,19.9364209 117.550226,19.9674694 117.211167,20.0291898 L91.3973074,24.7281983 C87.536016,25.4310858 84.7296564,28.7944168 84.7296564,32.7191616 Z" id="Fill" fill="#FFFFFE"></path>
                                <path d="M96.7697143,58.9903488 C96.710737,57.9586065 97.4335745,57.0461377 98.4514341,56.8674416 L122.891817,52.576672 C123.768912,52.4226887 124.604765,53.0088862 124.758749,53.8859809 C124.769597,53.9477705 124.776829,54.0101405 124.780409,54.0727728 C124.839387,55.1045151 124.116549,56.0169839 123.098689,56.19568 L98.6583067,60.4864496 C97.781212,60.6404329 96.9453581,60.0542354 96.7913748,59.1771407 C96.780527,59.1153511 96.7732945,59.0529811 96.7697143,58.9903488 Z" id="Fill" fill="#FFFFFE"></path>
                                <path d="M96.9483436,71.0018832 C96.8893664,69.9701409 97.6122038,69.0576721 98.6300634,68.878976 L123.070446,64.5882064 C123.947541,64.4342231 124.783395,65.0204206 124.937378,65.8975153 C124.948226,65.9593049 124.955458,66.0216749 124.959039,66.0843072 C125.018016,67.1160495 124.295178,68.0285183 123.277319,68.2072144 L98.836936,72.497984 C97.9598413,72.6519673 97.1239875,72.0657698 96.9700042,71.1886751 C96.9591563,71.1268855 96.9519239,71.0645155 96.9483436,71.0018832 Z" id="Fill" fill="#FFFFFE"></path>
                                <path d="M97.1271197,83.0134176 C97.0681424,81.9816753 97.7909799,81.0692065 98.8088395,80.8905104 L123.249222,76.5997408 C124.126317,76.4457575 124.962171,77.031955 125.116154,77.9090497 C125.127002,77.9708393 125.134234,78.0332093 125.137815,78.0958416 C125.196792,79.1275839 124.473954,80.0400527 123.456095,80.2187488 L99.0157121,84.5095184 C98.1386174,84.6635017 97.3027635,84.0773042 97.1487802,83.2002095 C97.1379324,83.1384199 97.1306999,83.0760499 97.1271197,83.0134176 Z" id="Fill" fill="#FFFFFE"></path>
                                <path d="M97.305749,95.0248788 C97.2467718,93.9931365 97.9696092,93.0806677 98.9874688,92.9019716 L123.427852,88.611202 C124.304946,88.4572187 125.1408,89.0434162 125.294783,89.9205109 C125.305631,89.9823005 125.312864,90.0446705 125.316444,90.1073028 C125.375421,91.1390451 124.652584,92.0515139 123.634724,92.23021 L99.1943414,96.5209796 C98.3172467,96.6749629 97.4813929,96.0887654 97.3274096,95.2116707 C97.3165617,95.1498811 97.3093293,95.0875111 97.305749,95.0248788 Z" id="Fill" fill="#FFFFFE"></path>
                                <path d="M97.484305,107.036413 C97.4253278,106.004671 98.1481652,105.092202 99.1660248,104.913506 L123.606408,100.622736 C124.483502,100.468753 125.319356,101.054951 125.473339,101.932045 C125.484187,101.993835 125.49142,102.056205 125.495,102.118837 C125.553977,103.150579 124.83114,104.063048 123.81328,104.241744 L99.3728974,108.532514 C98.4958027,108.686497 97.6599489,108.1003 97.5059655,107.223205 C97.4951177,107.161416 97.4878853,107.099046 97.484305,107.036413 Z" id="Fill" fill="#FFFFFE"></path>
                            </g>
                            <g id="Board" transform="translate(43.281853, 8.052000)">
                                <path d="M10.0918552,207.233094 C7.83459649,205.310862 6.47818722,202.51023 6.37034939,199.550754 L0.00718336312,24.2909215 C-0.200422814,18.5732695 4.11602506,13.7589055 9.83436483,13.3314175 L187.678766,0.0295135378 C190.61533,-0.190818462 193.541624,0.830321538 195.702048,2.83087754 C197.862473,4.83070154 199.101508,7.66427354 199.101508,10.6054495 L199.101508,178.28835 C199.101508,183.641466 195.085832,188.167422 189.760697,188.815974 L18.2794614,209.694078 C17.8532451,209.74605 17.4255617,209.77167 17.0000791,209.77167 C14.4845965,209.77167 12.022666,208.877898 10.0918552,207.233094 Z" id="Fill" fill="#3F2C48"></path>
                                <path d="M157.277226,127.366257 C158.915334,127.028805 160.637071,127.031001 162.273712,127.372845 L162.273712,127.372845 L161.776338,129.745257 C163.11294,130.015365 164.366647,130.546797 165.491975,131.292705 L165.491975,131.292705 L166.840315,129.335337 C168.176183,130.251801 169.346261,131.409825 170.316801,132.776469 L170.316801,132.776469 L168.430006,134.110173 C169.226685,135.194265 169.859041,136.429149 170.287457,137.770173 L170.287457,137.770173 L172.443481,137.108445 C172.912245,138.629541 173.150662,140.223105 173.150662,141.843753 L173.150662,141.843753 L170.918346,141.873765 C170.914678,143.308485 170.686531,144.686109 170.272052,145.966377 L170.272052,145.966377 L172.425874,146.635425 C171.937303,148.200441 171.216183,149.656389 170.281589,150.960081 L170.281589,150.960081 L168.400662,149.618325 C167.575373,150.731697 166.576222,151.682565 165.45016,152.421153 L165.45016,152.421153 L166.789697,154.385841 C165.380469,155.342565 163.840662,155.996241 162.213558,156.327837 L162.213558,156.327837 L161.727921,153.951765 C161.08823,154.077669 160.431666,154.147209 159.76043,154.147209 C159.063519,154.147209 158.382013,154.072545 157.719581,153.937125 L157.719581,153.937125 L157.215604,156.308805 C155.592902,155.965497 154.05823,155.300841 152.655604,154.334601 L152.655604,154.334601 L154.007612,152.381625 C152.886685,151.634253 151.894871,150.675333 151.076183,149.556837 L151.076183,149.556837 L149.187187,150.886881 C148.260662,149.576601 147.547612,148.117725 147.067844,146.550513 L147.067844,146.550513 L149.226068,145.893177 C148.823326,144.623889 148.601782,143.262369 148.601782,141.843753 C148.601782,141.834969 148.602515,141.826917 148.602515,141.818133 L148.602515,141.818133 L146.370199,141.814473 C146.373133,140.194557 146.613751,138.600993 147.08545,137.079897 L147.08545,137.079897 L149.240739,137.745285 C149.671357,136.405725 150.306647,135.171573 151.105527,134.089677 L151.105527,134.089677 L149.221666,132.751581 C150.195141,131.387133 151.367419,130.232037 152.705488,129.319233 L152.705488,129.319233 L154.049427,131.279529 C155.176222,130.535817 156.431396,130.008045 157.768732,129.740865 L157.768732,129.740865 Z M159.76043,132.324093 C155.146145,132.324093 151.391627,136.594581 151.391627,141.843753 C151.391627,147.092925 155.146145,151.363413 159.76043,151.363413 C164.374716,151.363413 168.129234,147.092925 168.129234,141.843753 C168.129234,136.594581 164.374716,132.324093 159.76043,132.324093 Z M159.76043,135.163302 C163.138616,135.163302 165.88738,138.16011 165.88738,141.843534 C165.88738,145.526958 163.138616,148.524498 159.76043,148.524498 C156.381512,148.524498 153.633481,145.526958 153.633481,141.843534 C153.633481,138.16011 156.381512,135.163302 159.76043,135.163302 Z M159.76043,137.947098 C157.920585,137.947098 156.423326,139.695114 156.423326,141.843534 C156.423326,143.992686 157.920585,145.740702 159.76043,145.740702 C161.600276,145.740702 163.097535,143.992686 163.097535,141.843534 C163.097535,139.695114 161.600276,137.947098 159.76043,137.947098 Z" id="Combined-Shape" fill="#FFFFFE"></path>
                                <path d="M26.2995888,68.0309227 C26.1987398,67.0256302 26.9319362,66.1289254 27.9372287,66.0280764 C27.9374309,66.0280561 27.9376332,66.0280358 27.9378355,66.0280156 L73.7884463,61.4438098 C74.7942058,61.3432527 75.6911288,62.0768769 75.7920212,63.0826027 C75.8928702,64.0878953 75.1596738,64.9846001 74.1543813,65.0854491 C74.154179,65.0854694 74.1539768,65.0854896 74.1537745,65.0855098 L28.3031637,69.6697156 C27.2974042,69.7702728 26.4004812,69.0366486 26.2995888,68.0309227 Z" id="Fill" fill="#9DE7AC"></path>
                                <path d="M26.6155463,80.1173407 C26.5146973,79.1120482 27.2478937,78.2153434 28.2531862,78.1144944 C28.2533885,78.1144741 28.2535907,78.1144538 28.253793,78.1144336 L74.1044038,73.5302278 C75.1101633,73.4296707 76.0070863,74.1632949 76.1079787,75.1690207 C76.2088277,76.1743133 75.4756313,77.0710181 74.4703388,77.1718671 C74.4701366,77.1718874 74.4699343,77.1719076 74.469732,77.1719278 L28.6191212,81.7561336 C27.6133617,81.8566908 26.7164387,81.1230666 26.6155463,80.1173407 Z" id="Fill" fill="#465BA7"></path>
                                <path d="M26.931137,92.2037587 C26.8302881,91.1984662 27.5634844,90.3017614 28.5687769,90.2009124 C28.5689792,90.2008921 28.5691815,90.2008718 28.5693837,90.2008516 L74.4199946,85.6166458 C75.425754,85.5160887 76.322677,86.2497129 76.4235695,87.2554387 C76.5244184,88.2607313 75.7912221,89.1574361 74.7859295,89.2582851 C74.7857273,89.2583054 74.785525,89.2583256 74.7853228,89.2583458 L28.9347119,93.8425516 C27.9289525,93.9431088 27.0320295,93.2094846 26.931137,92.2037587 Z" id="Fill" fill="#465BA7"></path>
                                <path d="M27.2467278,104.290104 C27.1458788,103.284811 27.8790752,102.388106 28.8843677,102.287257 C28.8845699,102.287237 28.8847722,102.287217 28.8849745,102.287196 L74.7355853,97.7029906 C75.7413447,97.6024335 76.6382678,98.3360577 76.7391602,99.3417835 C76.8400092,100.347076 76.1068128,101.243781 75.1015203,101.34463 C75.101318,101.34465 75.1011158,101.34467 75.1009135,101.344691 L29.2503026,105.928896 C28.2445432,106.029454 27.3476202,105.295829 27.2467278,104.290104 Z" id="Fill" fill="#9DE7AC"></path>
                                <path d="M27.5622451,116.376522 C27.4613962,115.371229 28.1945925,114.474524 29.1998851,114.373675 C29.2000873,114.373655 29.2002896,114.373635 29.2004918,114.373614 L75.0511027,109.789409 C76.0568621,109.688851 76.9537851,110.422476 77.0546776,111.428202 C77.1555265,112.433494 76.4223302,113.330199 75.4170377,113.431048 C75.4168354,113.431068 75.4166331,113.431088 75.4164309,113.431109 L29.56582,118.015314 C28.5600606,118.115872 27.6631376,117.382247 27.5622451,116.376522 Z" id="Fill" fill="#FFFFFE"></path>
                                <path d="M114.234523,27.0285283 C114.133674,26.0232358 114.866871,25.126531 115.872163,25.025682 C115.872365,25.0256617 115.872568,25.0256414 115.87277,25.0256212 L161.723381,20.4414154 C162.72914,20.3408583 163.626063,21.0744825 163.726956,22.0802083 C163.827805,23.0855009 163.094608,23.9822057 162.089316,24.0830547 C162.089113,24.083075 162.088911,24.0830952 162.088709,24.0831154 L116.238098,28.6673212 C115.232339,28.7678784 114.335416,28.0342542 114.234523,27.0285283 Z" id="Fill" fill="#9DE7AC"></path>
                                <path d="M114.550114,39.1149463 C114.449265,38.1096538 115.182461,37.212949 116.187754,37.1121 C116.187956,37.1120797 116.188158,37.1120594 116.188361,37.1120392 L162.038971,32.5278334 C163.044731,32.4272763 163.941654,33.1609005 164.042546,34.1666263 C164.143395,35.1719189 163.410199,36.0686237 162.404906,36.1694727 C162.404704,36.169493 162.404502,36.1695132 162.4043,36.1695334 L116.553689,40.7537392 C115.547929,40.8542964 114.651006,40.1206722 114.550114,39.1149463 Z" id="Fill" fill="#9DE7AC"></path>
                                <path d="M114.865998,51.2013643 C114.765149,50.1960718 115.498345,49.299367 116.503638,49.198518 C116.50384,49.1984977 116.504042,49.1984774 116.504245,49.1984572 L162.354856,44.6142514 C163.360615,44.5136943 164.257538,45.2473185 164.35843,46.2530443 C164.459279,47.2583369 163.726083,48.1550417 162.720791,48.2558907 C162.720588,48.255911 162.720386,48.2559312 162.720184,48.2559514 L116.869573,52.8401572 C115.863813,52.9407144 114.96689,52.2070902 114.865998,51.2013643 Z" id="Fill" fill="#465BA7"></path>
                                <path d="M115.181589,63.2877823 C115.08074,62.2824898 115.813936,61.385785 116.819229,61.284936 C116.819431,61.2849157 116.819633,61.2848954 116.819835,61.2848752 L162.670446,56.7006694 C163.676206,56.6001123 164.573129,57.3337365 164.674021,58.3394623 C164.77487,59.3447549 164.041674,60.2414597 163.036381,60.3423087 C163.036179,60.342329 163.035977,60.3423492 163.035775,60.3423694 L117.185164,64.9265752 C116.179404,65.0271324 115.282481,64.2935082 115.181589,63.2877823 Z" id="Fill" fill="#465BA7"></path>
                                <path d="M115.49718,75.3741271 C115.396331,74.3688346 116.129527,73.4721298 117.134819,73.3712808 C117.135022,73.3712605 117.135224,73.3712402 117.135426,73.37122 L162.986037,68.7870142 C163.991796,68.6864571 164.888719,69.4200813 164.989612,70.4258071 C165.090461,71.4310997 164.357265,72.3278045 163.351972,72.4286535 C163.35177,72.4286738 163.351568,72.428694 163.351365,72.4287142 L117.500754,77.01292 C116.494995,77.1134772 115.598072,76.379853 115.49718,75.3741271 Z" id="Fill" fill="#FFFFFE"></path>
                                <polygon id="Fill" fill="#FFFFFE" points="56.6981216 174.354216 42.8970791 164.016912 54.3374266 150.563484 57.1338745 152.930772 48.2134112 163.421796 58.900361 171.426948"></polygon>
                                <polygon id="Fill" fill="#FFFFFE" points="89.208222 171.731679 86.4110405 169.363659 95.3322374 158.872635 84.6452876 150.867483 86.847527 147.940947 100.647836 158.278251"></polygon>
                                <polygon id="Fill" fill="#FFFFFE" points="67.6296505 178.91582 64.2910791 177.40058 78.9724305 145.196972 82.3110019 146.712212"></polygon>
                            </g>
                            <g id="Board">
                                <g id="Group">
                                    <mask id="mask-2" fill="white">
                                        <use xlink:href="#path-1"></use>
                                    </mask>
                                    <g id="Path"></g>
                                    <path d="M9.75286873,52.110348 C8.03773359,52.110348 6.39742471,51.513036 5.06742471,50.390148 C3.53568726,49.096704 2.62456757,47.284272 2.50132432,45.286644 L0.348969112,10.360728 C0.228660232,8.3997 0.88669112,6.515532 2.2027529,5.05446 C3.51954826,3.59412 5.32711583,2.74134 7.29387259,2.652768 L61.5414402,0.22692 C63.5470772,0.137616 65.4507452,0.850584 66.9017876,2.235528 C68.3528301,3.61974 69.152444,5.485608 69.152444,7.489092 L69.152444,39.361104 C69.152444,43.091376 66.3486602,46.198716 62.631556,46.589604 L10.53561,52.069356 C10.2737181,52.09644 10.0125598,52.110348 9.75286873,52.110348" id="Fill" fill="#3C3C3C" mask="url(#mask-2)"></path>
                                </g>
                                <path d="M10.2214131,14.7426264 C10.1205642,13.7373339 10.8537605,12.840629 11.859053,12.7397801 C11.8592553,12.7397598 11.8594576,12.7397395 11.8596598,12.7397193 L57.7102707,8.15551351 C58.7160301,8.05495633 59.6129531,8.78858054 59.7138456,9.7943064 C59.8146945,10.7995989 59.0814982,11.6963038 58.0762056,11.7971527 C58.0760034,11.797173 58.0758011,11.7971933 58.0755989,11.7972135 L12.224988,16.3814193 C11.2192286,16.4819765 10.3223056,15.7483523 10.2214131,14.7426264 Z" id="Fill" fill="#FFFFFE"></path>
                                <path d="M10.5369305,26.8290444 C10.4360815,25.8237519 11.1692779,24.927047 12.1745704,24.8261981 C12.1747727,24.8261778 12.1749749,24.8261575 12.1751772,24.8261373 L58.0257881,20.2419315 C59.0315475,20.1413743 59.9284705,20.8749985 60.0293629,21.8807244 C60.1302119,22.8860169 59.3970155,23.7827218 58.391723,23.8835707 C58.3915208,23.883591 58.3913185,23.8836113 58.3911162,23.8836315 L12.5405054,28.4678373 C11.534746,28.5683945 10.6378229,27.8347703 10.5369305,26.8290444 Z" id="Fill" fill="#FFFFFE"></path>
                                <path d="M10.8525212,38.9154624 C10.7516723,37.9101699 11.4848686,37.013465 12.4901612,36.9126161 C12.4903634,36.9125958 12.4905657,36.9125755 12.4907679,36.9125553 L58.3413788,32.3283495 C59.3471382,32.2277923 60.2440612,32.9614165 60.3449537,33.9671424 C60.4458026,34.9724349 59.7126063,35.8691398 58.7073138,35.9699887 C58.7071115,35.970009 58.7069092,35.9700293 58.706707,35.9700495 L12.8560961,40.5542553 C11.8503367,40.6548125 10.9534137,39.9211883 10.8525212,38.9154624 Z" id="Fill" fill="#FFFFFE"></path>
                            </g>
                            <g id="Icon" transform="translate(253.772510, 37.333962)" fill="#523B5D">
                                <path d="M14.3409653,0.3305124 C16.4947876,-0.1130796 18.7586486,-0.1101516 20.9110039,0.3392964 L20.9110039,0.3392964 L20.2566409,3.4590804 C22.0143243,3.8141004 23.6634363,4.5131604 25.1430888,5.4933084 L25.1430888,5.4933084 L26.9147104,2.9203284 C28.6723938,4.1252004 30.21,5.6470284 31.4864479,7.4440884 L31.4864479,7.4440884 L29.0061776,9.1979604 C30.0537452,10.6231644 30.8849035,12.2474724 31.4475676,14.0108604 L31.4475676,14.0108604 L34.2828958,13.1405124 C34.8998456,15.1410684 35.2123552,17.2360524 35.2123552,19.3669044 L35.2123552,19.3669044 L32.2772587,19.4064324 C32.2728571,21.2927964 31.9728185,23.1037644 31.4277606,24.7873644 L31.4277606,24.7873644 L34.2601544,25.6672284 C33.617529,27.7256124 32.6689961,29.6390604 31.4394981,31.3541364 L31.4394981,31.3541364 L28.9672973,29.5900164 C27.881583,31.0540164 26.5684556,32.3035404 25.0873359,33.2749044 L25.0873359,33.2749044 L26.8494208,35.8581324 C24.9963707,37.1164404 22.9716602,37.9758084 20.8317761,38.4113484 L20.8317761,38.4113484 L20.1928185,35.2871724 C19.3528571,35.4533364 18.4894208,35.5441044 17.6061776,35.5441044 C16.6891892,35.5441044 15.7934749,35.4467484 14.9227027,35.2681404 L14.9227027,35.2681404 L14.2602703,38.3864604 C12.1262548,37.9348164 10.1088803,37.0615404 8.2646332,35.7907884 L8.2646332,35.7907884 L10.04139,33.2229324 C8.56760618,32.2405884 7.26401544,30.9793524 6.18710425,29.5080324 L6.18710425,29.5080324 L3.70389961,31.2575124 C2.48540541,29.5351164 1.54787645,27.6165444 0.916988417,25.5559644 L0.916988417,25.5559644 L3.75451737,24.6914724 C3.22559846,23.0225124 2.93436293,21.2320404 2.93436293,19.3669044 C2.93436293,19.3551924 2.93509653,19.3449444 2.93509653,19.3332324 L2.93509653,19.3332324 L0,19.3281084 C0.00366795367,17.1979884 0.31984556,15.1037364 0.94046332,13.1031804 L0.94046332,13.1031804 L3.77432432,13.9786524 C4.34065637,12.2159964 5.17548263,10.5938844 6.22598456,9.1708764 L6.22598456,9.1708764 L3.74938224,7.4118804 C5.02876448,5.6177484 6.57003861,4.0995804 8.32918919,2.8983684 L8.32918919,2.8983684 L10.0964093,5.4764724 C11.5782625,4.4985204 13.2288417,3.8038524 14.9872587,3.4532244 L14.9872587,3.4532244 Z M17.6061776,6.8497044 C11.5386486,6.8497044 6.6023166,12.4648764 6.6023166,19.3669044 C6.6023166,26.2689324 11.5386486,31.8841044 17.6061776,31.8841044 C23.6737066,31.8841044 28.6100386,26.2689324 28.6100386,19.3669044 C28.6100386,12.4648764 23.6737066,6.8497044 17.6061776,6.8497044 Z M17.6061776,10.5829044 C22.0488031,10.5829044 25.662471,14.5232604 25.662471,19.3669044 C25.662471,24.2105484 22.0488031,28.1509044 17.6061776,28.1509044 C13.1635521,28.1509044 9.54988417,24.2105484 9.54988417,19.3669044 C9.54988417,14.5232604 13.1635521,10.5829044 17.6061776,10.5829044 Z M17.6061776,14.2429044 C15.1867954,14.2429044 13.2178378,16.5413844 13.2178378,19.3669044 C13.2178378,22.1924244 15.1867954,24.4909044 17.6061776,24.4909044 C20.0255598,24.4909044 21.9945174,22.1924244 21.9945174,19.3669044 C21.9945174,16.5413844 20.0255598,14.2429044 17.6061776,14.2429044 Z" id="Combined-Shape"></path>
                            </g>
                        </g>
                    </g>
                </g>
                <path d="M146.668772,596.646915 C161.301908,596.853315 190.465352,582.829344 208.793315,585.73002 C227.121278,588.630697 234.567528,608.358111 222.988345,618.235152 C211.362966,628.063222 180.712119,627.991979 167.429044,643.446707 C154.145933,658.852497 158.230596,689.784258 149.473102,707.738115 C140.715608,725.691972 119.115957,730.667925 106.275189,719.598603 C93.4344214,708.529281 89.3063402,681.365712 75.5374765,663.591214 C61.7685771,645.767779 38.3589308,637.382354 28.9308617,621.911099 C19.5027571,606.390906 24.0562297,583.784884 41.1306916,576.848119 C58.2051534,569.911354 87.8006045,578.643847 105.019389,579.733012 C122.238174,580.822177 127.034132,574.267981 129.529667,578.184833 C131.979042,582.101652 132.081833,596.489486 146.668772,596.646915 Z" id="Path" fill="#EDEDED" fill-rule="nonzero" transform="translate(126.317160, 649.826714) rotate(45.000000) translate(-126.317160, -649.826714) "></path>
            </g>
        </g>
    </g>
</svg>