<?xml version="1.0" encoding="UTF-8"?>
<svg width="28px" height="29px" viewBox="0 0 28 29" version="1.1" xmlns="http://www.w3.org/2000/svg" xmlns:xlink="http://www.w3.org/1999/xlink">
    <!-- Generator: Sketch 56.2 (81672) - https://sketch.com -->
    <title>Combined Shape</title>
    <desc>Created with Sketch.</desc>
    <g id="MODELO-DE-LANDING-Bootcamp" stroke="none" stroke-width="1" fill="none" fill-rule="evenodd">
        <g id="Modelo-de-landing" transform="translate(-336.000000, -87.000000)" fill="#FFFFFF">
            <g id="Group-4" transform="translate(336.000000, 83.000000)">
                <path d="M14,32.2 C6.2680135,32.2 0,25.9319865 0,18.2 C0,10.4680135 6.2680135,4.2 14,4.2 C21.7319865,4.2 28,10.4680135 28,18.2 C28,25.9319865 21.7319865,32.2 14,32.2 Z M5.0554203,19.1172414 L16.6880901,19.1200128 C16.7166514,19.1181749 16.7454654,19.1172414 16.7745024,19.1172414 C17.4903648,19.1172414 18.070686,19.6846047 18.070686,20.3844828 C18.070686,21.0843608 17.4903648,21.6517241 16.7745024,21.6517241 C16.7454654,21.6517241 16.7166514,21.6507907 16.6880901,21.6744175 L11.8490048,21.6517241 L10.12076,21.6696908 C10.0360925,21.6578505 9.94953967,21.6517241 9.86152327,21.6517241 C8.85931588,21.6517241 8.04686626,22.4460327 8.04686626,23.4258621 C8.04686626,24.4056914 8.85931588,25.2 9.86152327,25.2 C9.94953967,25.2 10.0360925,25.1938737 10.12076,25.2 L17.3793881,25.1824353 C19.8017391,24.9845408 21.7,23.1389292 21.7,20.8913793 C21.7,19.5572866 21.03118,18.36481 19.9809295,17.5744875 C20.6224509,16.8261021 21.0087021,15.8614611 21.0087021,14.8086207 C21.0087021,12.4572603 19.0821397,10.5458254 16.6880901,10.5 L10.4664089,10.5092811 C10.4096648,10.5031484 10.3520007,10.5 10.2935845,10.5 C9.43454956,10.5 8.73816417,11.1808359 8.73816417,12.0206897 C8.73816417,12.8605434 9.43454956,13.5413793 10.2935845,13.5413793 C10.3520007,13.5413793 10.4096648,13.5382309 10.4664089,13.5413793 L16.6880901,13.5441507 C17.3636638,13.5876244 17.8978615,14.1371312 17.8978615,14.8086207 C17.8978615,15.4801102 17.3636638,16.029617 16.6880901,16.0758621 L5.0554203,16.0758621 C4.19638539,16.0758621 3.5,16.756698 3.5,17.5965517 C3.5,18.4364054 4.19638539,19.1172414 5.0554203,19.1172414 Z" id="Combined-Shape"></path>
            </g>
        </g>
    </g>
</svg>