<?xml version="1.0" encoding="UTF-8"?>
<svg width="32px" height="32px" viewBox="0 0 32 32" version="1.1" xmlns="http://www.w3.org/2000/svg" xmlns:xlink="http://www.w3.org/1999/xlink">
    <!-- Generator: Sketch 54.1 (76490) - https://sketchapp.com -->
    <title>Artboard Copy 4</title>
    <desc>Created with Sketch.</desc>
    <g id="Artboard-Copy-4" stroke="none" stroke-width="1" fill="none" fill-rule="evenodd">
        <g id="Group-26">
            <g id="Group-17">
                <rect id="Rectangle-path-Copy-2" x="0" y="0" width="32" height="32"></rect>
                <g id="Line_Icons" transform="translate(5.705882, 4.117647)" fill="#FFFFFF" fill-rule="nonzero">
                    <path d="M21.8823529,6.91764706 L17.9037433,6.91764706 L17.9037433,8.89411765 L18.8983957,8.89411765 L18.8983957,10.8705882 L17.9037433,10.8705882 C17.9037433,10.4446588 17.6302139,10.0671529 17.2234011,9.93275294 C17.2025134,9.92583529 17.0881283,9.88927059 16.9090909,9.83491765 L16.9090909,2.96470588 C16.9090909,0 13.0269626,0 10.9411765,0 C8.85539037,0 4.97326203,0 4.97326203,2.96470588 L4.97326203,9.83491765 C4.7942246,9.88927059 4.67983957,9.92583529 4.65895187,9.93275294 C4.25213904,10.0681412 3.97860963,10.4446588 3.97860963,10.8705882 L2.98395722,10.8705882 L2.98395722,8.89411765 L3.97860963,8.89411765 L3.97860963,6.91764706 L0,6.91764706 L0,8.89411765 L0.994652406,8.89411765 L0.994652406,11.8588235 C0.994652406,12.4043294 1.43926203,12.8470588 1.98930481,12.8470588 L3.97860963,12.8470588 L3.97860963,13.8352941 C3.97860963,14.3808 4.42321925,14.8235294 4.97326203,14.8235294 L9.94652406,14.8235294 L9.94652406,17.7882353 L6.96256684,17.7882353 L6.96256684,19.7647059 L14.9197861,19.7647059 L14.9197861,17.7882353 L11.9358289,17.7882353 L11.9358289,14.8235294 L16.9090909,14.8235294 C17.4591337,14.8235294 17.9037433,14.3808 17.9037433,13.8352941 L17.9037433,12.8470588 L19.8930481,12.8470588 C20.4430909,12.8470588 20.8877005,12.4043294 20.8877005,11.8588235 L20.8877005,8.89411765 L21.8823529,8.89411765 L21.8823529,6.91764706 Z M10.9411765,1.97647059 C12.3317005,1.97647059 14.9197861,1.97647059 14.9197861,2.96470588 L14.9197861,3.95294118 L6.96256684,3.95294118 L6.96256684,2.96470588 C6.96256684,1.97647059 9.55065241,1.97647059 10.9411765,1.97647059 Z M6.96256684,5.92941176 L14.9197861,5.92941176 L14.9197861,9.33981176 C13.7928449,9.10658824 12.3754652,8.89411765 10.9411765,8.89411765 C9.5068877,8.89411765 8.08950802,9.10658824 6.96256684,9.33981176 L6.96256684,5.92941176 Z M15.9144385,12.8470588 L5.96791444,12.8470588 L5.96791444,11.6097882 C6.98146524,11.3340706 8.97773262,10.8705882 10.9411765,10.8705882 C12.9046203,10.8705882 14.9008877,11.3340706 15.9144385,11.6097882 L15.9144385,12.8470588 Z" id="Shape"></path>
                </g>
            </g>
        </g>
    </g>
</svg>