<?xml version="1.0" encoding="UTF-8"?>
<svg width="32px" height="32px" viewBox="0 0 32 32" version="1.1" xmlns="http://www.w3.org/2000/svg" xmlns:xlink="http://www.w3.org/1999/xlink">
    <!-- Generator: Sketch 54.1 (76490) - https://sketchapp.com -->
    <title>Artboard Copy 2</title>
    <desc>Created with Sketch.</desc>
    <g id="Artboard-Copy-2" stroke="none" stroke-width="1" fill="none" fill-rule="evenodd">
        <g id="Group-24">
            <rect id="Rectangle-path-Copy-4" x="0" y="0" width="32" height="32"></rect>
            <g id="Group-8" transform="translate(1.000000, 7.000000)" fill="#FFFFFF" fill-rule="nonzero">
                <path d="M26.3513514,0 C27.9121622,0 29.1891892,1.27688889 29.1891892,2.83333333 C29.1891892,4.38977778 27.9121622,5.66666667 26.3513514,5.66666667 C24.7905405,5.66666667 23.5135135,4.38977778 23.5135135,2.83333333 C23.5135135,1.27688889 24.7905405,0 26.3513514,0" id="Path"></path>
                <path d="M15,0 C16.5608108,0 17.8378378,1.27688889 17.8378378,2.83333333 C17.8378378,4.38977778 16.5608108,5.66666667 15,5.66666667 C13.4391892,5.66666667 12.1621622,4.38977778 12.1621622,2.83333333 C12.1621622,1.27688889 13.4391892,0 15,0" id="Path"></path>
                <path d="M3.64864865,0 C5.20945946,0 6.48648649,1.27688889 6.48648649,2.83333333 C6.48648649,4.38977778 5.20945946,5.66666667 3.64864865,5.66666667 C2.08783784,5.66666667 0.810810811,4.38977778 0.810810811,2.83333333 C0.810810811,1.27688889 2.08783784,0 3.64864865,0" id="Path"></path>
                <path d="M7.2972973,17 L0,17 L0,11.1714286 C0,9.02651429 1.63641892,7.28571429 3.64864865,7.28571429 C5.66087838,7.28571429 7.2972973,9.02651429 7.2972973,11.1714286 L7.2972973,17 Z" id="Path"></path>
                <path d="M18.6486486,17 L11.3513514,17 L11.3513514,11.1714286 C11.3513514,9.02651429 12.9877703,7.28571429 15,7.28571429 C17.0122297,7.28571429 18.6486486,9.02651429 18.6486486,11.1714286 L18.6486486,17 Z" id="Path"></path>
                <path d="M30,17 L22.7027027,17 L22.7027027,11.1714286 C22.7027027,9.02651429 24.3391216,7.28571429 26.3513514,7.28571429 C28.3635811,7.28571429 30,9.02651429 30,11.1714286 L30,17 Z" id="Path"></path>
            </g>
        </g>
    </g>
</svg>