<?xml version="1.0" encoding="utf-8"?>
<!-- Generator: Adobe Illustrator 21.0.0, SVG Export Plug-In . SVG Version: 6.00 Build 0)  -->
<svg version="1.1" id="Capa_1" xmlns="http://www.w3.org/2000/svg" xmlns:xlink="http://www.w3.org/1999/xlink" x="0px" y="0px"
	 width="57px" height="35px" viewBox="0 0 57 35" enable-background="new 0 0 57 35" xml:space="preserve">
<title>Group 11</title>
<desc>Created with Sketch.</desc>
<g id="MODELO-DE-LANDING-Bootcamp">
	<g id="Modelo-de-landing" transform="translate(-331.000000, -600.000000)">
		<g id="Group-13" transform="translate(331.000000, 602.000000)">
			<g id="Group-11" transform="translate(3.000000, 0.000000)">
				<g id="Group-20-Copy">
					<polyline id="Path-3" fill="none" stroke="#5DB250" stroke-width="4.5" points="36.32,23.76 41.71,29.22 52.19,18.61 					"/>
					
						<linearGradient id="Shape_1_" gradientUnits="userSpaceOnUse" x1="-223.9645" y1="262.9406" x2="-223.4645" y2="262.4812" gradientTransform="matrix(40.819 0 0 -27.1653 9161.3682 7151.71)">
						<stop  offset="0" style="stop-color:#4E34B8"/>
						<stop  offset="1" style="stop-color:#A85CCE"/>
					</linearGradient>
					<path id="Shape" fill="none" stroke="url(#Shape_1_)" stroke-width="4.5" d="M0.01,25.63V3.02c0-1.26,1.01-2.28,2.25-2.28h36.3
						c1.24,0,2.25,1.02,2.25,2.28v11.55 M26.5,27.9H2.26H26.5z M0.01,25.63c-0.13,1.52,0.62,2.28,2.25,2.28L0.01,25.63z"/>
				</g>
				<g>
					<linearGradient id="SVGID_1_" gradientUnits="userSpaceOnUse" x1="21.0343" y1="19.2676" x2="31.8587" y2="24.3791">
						<stop  offset="0" style="stop-color:#4E34B8"/>
						<stop  offset="1" style="stop-color:#A85CCE"/>
					</linearGradient>
					<polygon fill="url(#SVGID_1_)" points="6.15,10.93 6.15,12.15 8.28,10.64 8.28,18 9.55,18 9.55,9.09 8.74,9.09 					"/>
					<linearGradient id="SVGID_2_" gradientUnits="userSpaceOnUse" x1="22.019" y1="17.1822" x2="32.8434" y2="22.2937">
						<stop  offset="0" style="stop-color:#4E34B8"/>
						<stop  offset="1" style="stop-color:#A85CCE"/>
					</linearGradient>
					<path fill="url(#SVGID_2_)" d="M14.35,9.01c-1.02,0-1.81,0.36-2.35,1.09c-0.55,0.73-0.82,1.88-0.82,3.46
						c0,3.04,1.06,4.55,3.17,4.55c2.12,0,3.18-1.52,3.18-4.55c0-1.58-0.27-2.73-0.82-3.46C16.16,9.37,15.38,9.01,14.35,9.01z
						 M16.04,15.63c-0.15,0.51-0.37,0.87-0.65,1.09c-0.28,0.22-0.63,0.32-1.04,0.32c-0.42,0-0.76-0.11-1.04-0.32
						c-0.28-0.22-0.5-0.58-0.65-1.09c-0.15-0.51-0.23-1.21-0.23-2.08c0-0.86,0.08-1.55,0.23-2.06c0.15-0.51,0.37-0.87,0.65-1.09
						c0.28-0.22,0.63-0.32,1.04-0.32c0.41,0,0.76,0.11,1.04,0.32c0.28,0.22,0.5,0.58,0.65,1.09s0.23,1.21,0.23,2.08
						C16.27,14.44,16.2,15.12,16.04,15.63z"/>
					<linearGradient id="SVGID_3_" gradientUnits="userSpaceOnUse" x1="23.4084" y1="14.2401" x2="34.2328" y2="19.3516">
						<stop  offset="0" style="stop-color:#4E34B8"/>
						<stop  offset="1" style="stop-color:#A85CCE"/>
					</linearGradient>
					<path fill="url(#SVGID_3_)" d="M21.97,9.01c-1.02,0-1.81,0.36-2.35,1.09c-0.55,0.73-0.82,1.88-0.82,3.46
						c0,3.04,1.06,4.55,3.17,4.55c2.12,0,3.18-1.52,3.18-4.55c0-1.58-0.27-2.73-0.82-3.46C23.78,9.37,23,9.01,21.97,9.01z
						 M23.66,15.63c-0.15,0.51-0.37,0.87-0.65,1.09c-0.28,0.22-0.63,0.32-1.04,0.32c-0.42,0-0.76-0.11-1.04-0.32
						c-0.28-0.22-0.5-0.58-0.65-1.09c-0.15-0.51-0.23-1.21-0.23-2.08c0-0.86,0.08-1.55,0.23-2.06c0.15-0.51,0.37-0.87,0.65-1.09
						c0.28-0.22,0.63-0.32,1.04-0.32c0.41,0,0.76,0.11,1.04,0.32c0.28,0.22,0.5,0.58,0.65,1.09s0.23,1.21,0.23,2.08
						C23.89,14.44,23.82,15.12,23.66,15.63z"/>
					<linearGradient id="SVGID_4_" gradientUnits="userSpaceOnUse" x1="25.2855" y1="10.265" x2="36.1099" y2="15.3765">
						<stop  offset="0" style="stop-color:#4E34B8"/>
						<stop  offset="1" style="stop-color:#A85CCE"/>
					</linearGradient>
					<path fill="url(#SVGID_4_)" d="M30.65,11.78c0-0.94-0.19-1.64-0.58-2.09c-0.38-0.46-0.91-0.68-1.58-0.68s-1.19,0.23-1.58,0.68
						s-0.57,1.15-0.57,2.09c0,0.94,0.19,1.64,0.58,2.09c0.38,0.46,0.91,0.68,1.57,0.68c0.67,0,1.19-0.23,1.58-0.68
						C30.46,13.42,30.65,12.72,30.65,11.78z M29.34,13.28c-0.2,0.3-0.48,0.45-0.84,0.45c-0.36,0-0.63-0.15-0.83-0.45
						c-0.2-0.3-0.3-0.8-0.3-1.49c0-0.69,0.1-1.19,0.3-1.49c0.2-0.3,0.48-0.45,0.83-0.45c0.36,0,0.64,0.15,0.84,0.45
						s0.3,0.8,0.3,1.49C29.63,12.48,29.54,12.98,29.34,13.28z"/>
					<linearGradient id="SVGID_5_" gradientUnits="userSpaceOnUse" x1="25.0174" y1="10.8326" x2="35.8418" y2="15.9441">
						<stop  offset="0" style="stop-color:#4E34B8"/>
						<stop  offset="1" style="stop-color:#A85CCE"/>
					</linearGradient>
					<path fill="url(#SVGID_5_)" d="M36.12,13.24c-0.38-0.46-0.91-0.68-1.58-0.68s-1.19,0.23-1.58,0.68s-0.58,1.15-0.58,2.09
						s0.19,1.64,0.58,2.09s0.91,0.68,1.58,0.68s1.2-0.23,1.58-0.68c0.38-0.46,0.58-1.15,0.58-2.09S36.5,13.69,36.12,13.24z
						 M35.38,16.82c-0.2,0.3-0.47,0.45-0.83,0.45c-0.36,0-0.63-0.15-0.83-0.45c-0.2-0.3-0.3-0.8-0.3-1.49c0-0.69,0.1-1.18,0.3-1.48
						c0.2-0.3,0.48-0.45,0.83-0.45c0.36,0,0.63,0.15,0.83,0.45c0.2,0.3,0.3,0.8,0.3,1.49C35.67,16.03,35.57,16.52,35.38,16.82z"/>
					<linearGradient id="SVGID_6_" gradientUnits="userSpaceOnUse" x1="25.1506" y1="10.5507" x2="35.975" y2="15.6622">
						<stop  offset="0" style="stop-color:#4E34B8"/>
						<stop  offset="1" style="stop-color:#A85CCE"/>
					</linearGradient>
					<polygon fill="url(#SVGID_6_)" points="32.96,9.12 29.02,18 30.08,18 34.03,9.12 					"/>
				</g>
			</g>
		</g>
	</g>
</g>
</svg>
