<?xml version="1.0" encoding="UTF-8"?>
<svg width="40px" height="40px" viewBox="0 0 40 40" version="1.1" xmlns="http://www.w3.org/2000/svg" xmlns:xlink="http://www.w3.org/1999/xlink">
    <!-- Generator: Sketch 56.2 (81672) - https://sketch.com -->
    <title>Combined Shape</title>
    <desc>Created with Sketch.</desc>
    <g id="MODELO-DE-LANDING-Bootcamp" stroke="none" stroke-width="1" fill="none" fill-rule="evenodd">
        <g id="Modelo-de-landing" transform="translate(-1649.000000, -5296.000000)" fill="#105580">
            <g id="Group-2" transform="translate(1649.000000, 5290.000000)">
                <path d="M20,46 C8.954305,46 0,37.045695 0,26 C0,14.954305 8.954305,6 20,6 C31.045695,6 40,14.954305 40,26 C40,37.045695 31.045695,46 20,46 Z M7.222029,27.3103448 L23.8401288,27.314304 C23.8809306,27.3116784 23.9220934,27.3103448 23.9635748,27.3103448 C24.9862354,27.3103448 25.8152657,28.1208638 25.8152657,29.1206897 C25.8152657,30.1205155 24.9862354,30.9310345 23.9635748,30.9310345 C23.9220934,30.9310345 23.8809306,30.9297009 23.8401288,30.9634536 L16.9271497,30.9310345 L14.4582286,30.9567011 C14.337275,30.9397864 14.2136281,30.9310345 14.0878904,30.9310345 C12.6561655,30.9310345 11.4955232,32.0657611 11.4955232,33.4655172 C11.4955232,34.8652734 12.6561655,36 14.0878904,36 C14.2136281,36 14.337275,35.9912481 14.4582286,36 L24.8276972,35.9749076 C28.2881988,35.6922012 31,33.0556132 31,29.8448276 C31,27.9389809 30.0445429,26.2354429 28.5441849,25.1064107 C29.4606442,24.0372887 30.0124316,22.6592302 30.0124316,21.1551724 C30.0124316,17.7960862 27.2601995,15.0654648 23.8401288,15 L14.9520128,15.0132587 C14.8709497,15.0044977 14.7885724,15 14.7051207,15 C13.4779279,15 12.4830917,15.9726228 12.4830917,17.1724138 C12.4830917,18.3722048 13.4779279,19.3448276 14.7051207,19.3448276 C14.7885724,19.3448276 14.8709497,19.3403299 14.9520128,19.3448276 L23.8401288,19.3487868 C24.805234,19.410892 25.5683736,20.1959017 25.5683736,21.1551724 C25.5683736,22.1144431 24.805234,22.8994529 23.8401288,22.9655172 L7.222029,22.9655172 C5.99483627,22.9655172 5,23.93814 5,25.137931 C5,26.337722 5.99483627,27.3103448 7.222029,27.3103448 Z" id="Combined-Shape"></path>
            </g>
        </g>
    </g>
</svg>