<?xml version="1.0" encoding="UTF-8"?>
<svg width="193px" height="83px" viewBox="0 0 193 83" version="1.1" xmlns="http://www.w3.org/2000/svg" xmlns:xlink="http://www.w3.org/1999/xlink">
    <!-- Generator: Sketch 61.1 (89650) - https://sketch.com -->
    <title>Group 21</title>
    <desc>Created with Sketch.</desc>
    <defs>
        <polygon id="path-1" points="0 0 135 0 135 42 0 42"></polygon>
    </defs>
    <g id="MODELO-DE-LANDING-Bootcamp" stroke="none" stroke-width="1" fill="none" fill-rule="evenodd">
        <g id="Modelo-de-landing" transform="translate(-756.000000, -3353.000000)">
            <g id="Group-21" transform="translate(756.000000, 3353.000000)">
                <rect id="Rectangle-Copy-2" fill="#FFFFFF" x="0" y="0" width="193" height="83"></rect>
                <g id="Group" transform="translate(24.000000, 23.000000)">
                    <mask id="mask-2" fill="white">
                        <use xlink:href="#path-1"></use>
                    </mask>
                    <g id="Clip-2"></g>
                    <path d="M40.226952,22.8211819 L44.1321731,22.8211819 L44.1321731,24.5214889 C44.1321731,24.5214889 32.7975071,24.5488872 32.7022578,24.5214889 L32.7022578,22.8211819 L38.2251294,22.8211819 L38.2251294,7.45072909 L32.9562559,7.45072909 C32.8594191,7.45072909 32.7975071,7.42010744 32.7022578,7.42010744 L32.7022578,5.80844206 C32.7657573,5.77943208 32.8594191,5.77943208 32.9562559,5.77943208 L40.1952023,5.77943208 L40.1952023,22.8211819 L40.226952,22.8211819 Z M120.806268,24.5214889 C120.871355,24.5214889 120.934854,24.4924789 120.966604,24.4924789 L120.966604,22.8501919 C120.903104,22.8501919 120.871355,22.8211819 120.806268,22.8211819 L116.840722,22.8211819 L116.840722,5.72141213 L109.570026,5.72141213 L109.536689,5.72141213 L109.536689,7.39109747 L109.570026,7.39109747 L114.872237,7.39109747 L114.872237,22.7905602 L109.570026,22.7905602 L109.536689,22.7905602 L109.536689,24.4618573 L109.570026,24.4618573 L120.806268,24.4618573 L120.806268,24.5214889 Z M80.2634055,14.637145 L74.1357008,13.0222563 C73.375294,12.7869532 72.8339605,12.4662318 72.4831256,11.9972371 C72.1037159,11.5282425 71.9449671,11.0592479 71.9449671,10.5596316 C71.9449671,9.85533384 72.0719661,9.29769762 72.357714,8.88833461 C72.6434619,8.47735994 73.0244591,8.15502686 73.4673683,7.91972371 C73.9436148,7.68442057 74.4531985,7.53775902 74.9929445,7.45072909 C75.5660278,7.36208749 76.1041863,7.33307751 76.675682,7.33307751 C78.2631703,7.33307751 79.5331609,7.62640061 80.4840663,8.18242517 C81.406397,8.71266309 81.881056,9.6200307 81.9143932,10.8529547 L81.9143932,10.9109747 L83.8209666,10.9109747 L83.8209666,10.8529547 C83.7558796,9.06400614 83.090722,7.68442057 81.7889817,6.80606293 C80.5174036,5.95510361 78.8029163,5.51511896 76.740769,5.51511896 C75.8501881,5.51511896 75.0246943,5.60214889 74.1674506,5.77943208 C73.375294,5.95510361 72.6434619,6.24842671 72.0100541,6.65940138 C71.3734713,7.07037606 70.8654751,7.59739064 70.5162277,8.21304682 C70.1352305,8.85771297 69.9447319,9.65065234 69.9447319,10.5596316 C69.9447319,11.5862625 70.2622295,12.4662318 70.8654751,13.1705295 C71.4988829,13.9022256 72.3259643,14.4034536 73.4673683,14.695165 L79.6284102,16.366462 C80.4221543,16.5743668 80.99365,16.9531082 81.406397,17.5123561 C81.7889817,18.066769 81.9778928,18.6840368 81.9778928,19.299693 C81.9778928,20.0926324 81.8191439,20.7389102 81.5016463,21.1772832 C81.1841486,21.6462778 80.7714017,21.9976209 80.2951552,22.232924 C79.7236595,22.4972371 79.1855009,22.6455104 78.6124177,22.7035303 C76.9630174,22.8792018 75.7549389,22.8501919 74.6119473,22.6148887 C73.976952,22.4972371 73.4673683,22.290944 72.9927093,21.9976209 C72.5466251,21.7349194 72.1989652,21.3529547 71.9449671,20.94198 C71.690969,20.532617 71.5639699,19.9733691 71.5639699,19.299693 C71.5639699,19.270683 71.5639699,19.2416731 71.5322201,19.2110514 L69.5621472,19.2110514 C69.5621472,19.2416731 69.5319849,19.270683 69.5319849,19.299693 C69.5621472,21.1176516 70.2622295,22.4682272 71.5639699,23.3465848 C72.8657103,24.2249424 74.5801976,24.6681504 76.675682,24.6681504 C77.6599247,24.6681504 78.5806679,24.5811205 79.4394991,24.4038373 C80.326905,24.2249424 81.0888993,23.9316193 81.7556444,23.523868 C82.4223895,23.0838833 82.9287982,22.5278588 83.3415452,21.8203377 C83.7241298,21.0886416 83.9146284,20.2392939 83.9146284,19.2416731 C83.9146284,18.0990023 83.5971308,17.1013814 82.9287982,16.2778204 C82.3922272,15.5155027 81.4381468,14.9594781 80.2634055,14.637145 L80.2634055,14.637145 Z M19.6864417,5.51511896 L19.6864417,5.51511896 L19.5896049,5.51511896 C17.3671214,5.51511896 15.6208843,6.10015349 14.3508937,7.21542594 C13.9698965,7.53775902 13.6539864,7.94873369 13.3999882,8.39033001 C13.1428151,7.94873369 12.8253175,7.53775902 12.4459078,7.21542594 C11.2092545,6.10015349 9.49476717,5.51511896 7.27069614,5.51511896 L7.08019755,5.51511896 C4.85771402,5.51511896 3.11147695,6.10015349 1.84148636,7.21542594 C0.634995296,8.33069839 -2.84217094e-14,9.94236378 -2.84217094e-14,12.0262471 L-2.84217094e-14,24.5811205 L1.96848542,24.5811205 L1.96848542,12.0262471 C1.96848542,11.4396009 2.03039746,10.9109747 2.19073377,10.3839601 C2.3494826,9.82793553 2.6050682,9.35732924 2.98447789,8.88833461 C3.36547507,8.44834996 3.87347131,8.09539524 4.54021637,7.80368381 C5.20696143,7.50874904 6.06420508,7.36208749 7.08019755,7.36208749 C7.11353481,7.36208749 7.14528457,7.39109747 7.27069614,7.36208749 C8.35018815,7.36208749 9.2074318,7.50874904 9.87417686,7.80368381 C10.5409219,8.09539524 11.0822554,8.44834996 11.4299153,8.88833461 C11.8125,9.29769762 12.0649106,9.79731389 12.2236595,10.3533384 C12.3824083,10.9399847 12.4459078,11.4976209 12.4459078,11.9972371 L12.4459078,24.5488872 L14.5096425,24.5488872 L14.5096425,12.0262471 C14.5096425,11.4976209 14.5731421,10.9706063 14.7318909,10.3839601 C14.8906397,9.82793553 15.1446378,9.3267076 15.525635,8.88833461 C15.9066322,8.44834996 16.4479657,8.09539524 17.0813735,7.80368381 C17.7481185,7.50874904 18.6069497,7.36208749 19.6531044,7.36208749 L19.8118532,7.36208749 C20.8595955,7.36208749 21.7485889,7.50874904 22.415334,7.80368381 C23.0503293,8.09539524 23.5916627,8.44834996 23.9726599,8.88833461 C24.3520696,9.3267076 24.6060677,9.82793553 24.7648166,10.3839601 C24.9235654,10.9399847 24.9854774,11.4976209 24.9854774,12.0262471 L24.9854774,24.5811205 L26.9238006,24.5811205 L26.9238006,12.0262471 C26.9238006,9.97298542 26.2888053,8.35970837 25.0505644,7.21542594 C23.6853246,6.10015349 21.9073377,5.51511896 19.6864417,5.51511896 L19.6864417,5.51511896 Z M102.966075,9.29769762 C103.312147,10.090637 103.474071,10.9706063 103.474071,11.9376055 L103.474071,24.5214889 L102.23583,24.5214889 L101.59766,23.0548734 L101.59766,23.0838833 L101.59766,22.9952417 C101.567498,22.9952417 101.567498,23.0258634 101.567498,23.0258634 C100.297507,24.1363008 98.55127,24.6971604 96.3605362,24.7261704 C94.1698024,24.7261704 92.4235654,24.1363008 91.1519873,23.0258634 C89.8835842,21.9089793 89.2485889,20.2957022 89.2485889,18.2456639 L89.2485889,11.9376055 C89.2485889,10.9706063 89.4057502,10.090637 89.7565851,9.29769762 C90.1058325,8.50636992 90.5836665,7.80368381 91.1853246,7.24443592 C91.7885701,6.71742134 92.5188147,6.27743668 93.4411453,5.95510361 C95.2191322,5.33783576 97.5035278,5.36845741 99.2815146,5.95510361 C100.202258,6.27743668 100.964252,6.71742134 101.535748,7.24443592 C102.107244,7.80368381 102.61524,8.50636992 102.966075,9.29769762 L102.966075,9.29769762 Z M101.440499,11.9376055 C101.440499,10.47099 100.996002,9.3267076 100.107008,8.53537989 C99.2164276,7.74566385 97.946437,7.33307751 96.3287865,7.33307751 C94.7095484,7.33307751 93.4411453,7.74566385 92.5505644,8.53537989 C91.661571,9.3267076 91.2170743,10.47099 91.2170743,11.9376055 L91.2170743,18.2714505 C91.2170743,18.7726784 91.2805738,19.299693 91.4393227,19.9153492 C91.5663217,20.4149655 91.8203198,20.9129701 92.201317,21.3819647 C92.5823142,21.8203377 93.0903104,22.1749041 93.7237183,22.4408289 C94.360301,22.7309286 95.2508819,22.8501919 96.3287865,22.8501919 C97.4416157,22.8501919 98.2655221,22.7035303 98.9322672,22.4408289 C99.5990122,22.1442824 100.107008,21.7929394 100.454668,21.3529547 C100.837253,20.8839601 101.091251,20.4149655 101.21825,19.8847276 C101.378587,19.299693 101.440499,18.7726784 101.440499,18.2456639 L101.440499,11.9376055 Z M131.001117,24.7261704 C132.712429,24.7261704 134.047507,24.3168074 135,23.523868 L134.268168,21.8509593 C133.571261,22.4682272 132.523518,22.9372218 131.001117,22.9372218 C129.823201,22.9372218 128.967545,22.6148887 128.394461,21.9976209 C127.826141,21.3529547 127.538805,20.2957022 127.538805,18.7420568 L127.538805,7.45072909 L133.761759,7.45072909 L133.791921,7.45072909 L133.791921,5.74881044 L133.761759,5.74881044 L127.538805,5.74881044 L127.538805,2.48689958e-14 L125.600482,2.48689958e-14 L125.600482,18.8306984 C125.600482,20.7969302 126.078316,22.290944 126.96731,23.2289332 C127.918215,24.2249424 129.253293,24.7261704 131.001117,24.7261704 L131.001117,24.7261704 Z M57.2765757,5.51511896 C56.7368297,5.51511896 56.1986712,5.57475058 55.625588,5.72141213 C55.085842,5.83745203 54.546096,6.01312356 53.9730127,6.27743668 C53.4348542,6.51273983 52.9601952,6.83507291 52.5458608,7.18641596 C52.3871119,7.3056792 52.2601129,7.45072909 52.1331138,7.56838066 L52.1331138,7.53775902 L51.1155339,5.69079048 L50.1963782,5.69079048 L50.1963782,24.5214889 L52.1331138,24.5214889 L52.1331138,11.8795856 C52.1331138,11.1752878 52.2601129,10.5902533 52.514111,10.061627 C52.7998589,9.47336915 53.1491063,9.00437452 53.593603,8.62402149 C54.0380997,8.21304682 54.5778457,7.91972371 55.212841,7.71504221 C55.8478363,7.47973906 56.5463311,7.39109747 57.3083255,7.39109747 C58.324318,7.39109747 59.2133114,7.53775902 59.8800564,7.80368381 C60.5468015,8.09539524 61.0547977,8.44834996 61.4342074,8.88833461 C61.7850423,9.3267076 62.0707902,9.79731389 62.1977893,10.3533384 C62.3247883,10.9706063 62.4184501,11.4976209 62.4184501,11.9972371 L62.4184501,24.6085188 L64.3567733,24.6085188 L64.3567733,11.9972371 C64.3567733,9.94236378 63.7233655,8.35970837 62.5152869,7.24443592 C61.2151341,6.07275518 59.4673095,5.51511896 57.2765757,5.51511896 L57.2765757,5.51511896 Z M92.8363123,32.732924 C91.6314087,32.732924 90.8043274,33.2309286 90.3915804,33.5242517 L90.3915804,30.2976976 C90.3915804,30.180046 90.3296684,30.1494244 90.2328316,30.1494244 L89.8534219,30.1494244 C89.7248354,30.1494244 89.6914981,30.2122794 89.6914981,30.2976976 L89.6914981,39.1264006 C89.6914981,39.2424405 89.7248354,39.2714505 89.8534219,39.2714505 L90.2010818,39.2714505 C90.3296684,39.2714505 90.3598307,39.2150422 90.3598307,39.1264006 L90.3598307,38.5977744 C90.7725776,38.8910975 91.596484,39.3907137 92.8363123,39.3907137 C94.1698024,39.3907137 94.7714605,38.7460476 94.7714605,37.7790483 L94.7714605,34.3445894 C94.7714605,33.4066002 94.2015522,32.732924 92.8363123,32.732924 L92.8363123,32.732924 Z M94.0745532,37.6887951 C94.0745532,38.277053 93.693556,38.7734459 92.6775635,38.7734459 C91.5028222,38.7734459 90.7090781,38.2174213 90.4217427,38.0127398 L90.4217427,34.1399079 C90.7408278,33.9078281 91.534572,33.3469685 92.6775635,33.3469685 C93.6618062,33.3469685 94.0745532,33.8159632 94.0745532,34.433231 L94.0745532,37.6887951 Z M101.408749,32.9972371 L98.138523,41.8565618 C98.1067733,41.9435917 98.0432738,42 97.946437,42 L97.6289393,42 C97.5035278,42 97.4733655,41.9435917 97.5035278,41.8565618 L98.4258584,39.3036838 L96.0747883,32.9972371 C96.0414511,32.9102072 96.0747883,32.8505756 96.2017874,32.8505756 L96.6161218,32.8505756 C96.7431209,32.8505756 96.7716957,32.9102072 96.8050329,32.9972371 L98.55127,37.7161934 C98.6766816,38.0433615 98.7401811,38.3366846 98.7401811,38.3930929 C98.7401811,38.3656946 98.8370179,38.0127398 98.9322672,37.7484267 L100.678504,32.9972371 C100.710254,32.9102072 100.775341,32.8505756 100.867415,32.8505756 L101.25,32.8505756 C101.408749,32.8505756 101.440499,32.9102072 101.408749,32.9972371 L101.408749,32.9972371 Z M107.314205,30.5926324 L107.314205,39.0990023 C107.314205,39.3600921 107.125294,39.4197237 106.96337,39.4197237 L106.361712,39.4197237 C106.141051,39.4197237 106.012465,39.3036838 106.012465,39.0990023 L106.012465,30.5926324 C106.012465,30.3847276 106.141051,30.2686876 106.361712,30.2686876 L106.96337,30.2686876 C107.125294,30.2686876 107.314205,30.3283193 107.314205,30.5926324 L107.314205,30.5926324 Z M115.061148,34.3445894 L115.061148,39.0990023 C115.061148,39.3036838 114.935736,39.4197237 114.7119,39.4197237 L114.140405,39.4197237 C113.918156,39.4197237 113.791157,39.3036838 113.791157,39.0990023 L113.791157,34.5218726 C113.791157,33.9352264 113.44191,33.6402916 112.679915,33.6402916 C111.979833,33.6402916 111.314675,33.8788181 110.67968,34.3139678 L110.67968,39.066769 C110.67968,39.2714505 110.551094,39.3907137 110.330433,39.3907137 L109.758937,39.3907137 C109.536689,39.3907137 109.408102,39.2714505 109.408102,39.066769 L109.408102,33.0262471 C109.408102,32.8215656 109.536689,32.7055257 109.758937,32.7055257 L110.266933,32.7055257 C110.584431,32.7055257 110.616181,32.9376055 110.616181,33.0262471 L110.616181,33.2905602 C111.060677,32.9972371 111.822672,32.6168841 112.902164,32.6168841 C114.268991,32.6168841 115.061148,33.2599386 115.061148,34.3445894 L115.061148,34.3445894 Z M122.014346,30.0333845 L121.44285,30.0333845 C121.284102,30.0333845 121.092016,30.0930161 121.092016,30.3573292 L121.092016,33.2599386 C120.584019,32.9376055 119.853775,32.6168841 118.840957,32.6168841 C117.50588,32.6168841 116.743885,33.2599386 116.743885,34.404221 L116.743885,37.7161934 C116.743885,38.8620875 117.50588,39.5083653 118.840957,39.5083653 C119.664864,39.5083653 120.426858,39.2714505 121.125353,38.8346892 L121.125353,39.0990023 C121.125353,39.1860322 121.155515,39.4197237 121.476188,39.4197237 L121.982596,39.4197237 C122.206432,39.4197237 122.331844,39.3036838 122.331844,39.0990023 L122.331844,30.3573292 C122.395343,30.1494244 122.268344,30.0333845 122.014346,30.0333845 L122.014346,30.0333845 Z M121.125353,34.3768227 L121.125353,37.804835 C120.806268,38.0127398 120.077611,38.4817345 119.12353,38.4817345 C118.204374,38.4817345 118.013876,38.0127398 118.013876,37.6307751 L118.013876,34.5815042 C118.013876,34.2011512 118.204374,33.7289332 119.12353,33.7289332 C119.823612,33.6709133 120.490357,33.9078281 121.125353,34.3768227 L121.125353,34.3768227 Z M128.108714,32.9376055 L128.108714,33.3792018 C128.108714,33.5838833 127.951552,33.7031466 127.761054,33.7031466 C126.711724,33.7289332 125.85448,34.3139678 125.600482,34.5218726 L125.600482,39.1264006 C125.600482,39.3310821 125.473483,39.447122 125.25441,39.447122 L124.681326,39.447122 C124.459078,39.447122 124.330492,39.3310821 124.330492,39.1264006 L124.330492,33.0262471 C124.330492,32.8215656 124.459078,32.7055257 124.681326,32.7055257 L125.189323,32.7055257 C125.50682,32.7055257 125.53857,32.9376055 125.53857,33.0262471 L125.57032,33.4066002 C126.014817,33.0858787 126.808561,32.6168841 127.761054,32.6168841 C127.983302,32.6168841 128.108714,32.732924 128.108714,32.9376055 L128.108714,32.9376055 Z M131.793274,32.6168841 C130.016874,32.6168841 129.092956,33.2309286 129.092956,34.404221 L129.092956,34.6379125 C129.092956,34.9344589 129.316792,34.9908672 129.443791,34.9908672 L129.953375,34.9908672 C130.108949,34.9908672 130.301035,34.9344589 130.301035,34.6379125 L130.301035,34.4928626 C130.301035,34.0834996 130.489946,33.6402916 131.761524,33.6402916 C133.061677,33.6402916 133.222013,34.0834996 133.222013,34.5218726 L133.222013,35.5759018 L130.93603,35.5759018 C129.729539,35.5759018 128.967545,36.2237913 128.967545,37.2504221 L128.967545,37.8934766 C128.967545,38.9217191 129.791451,39.5647736 131.063029,39.5647736 C131.856773,39.5647736 132.618768,39.3310821 133.285513,38.9217191 L133.285513,39.1554106 C133.285513,39.2424405 133.317262,39.4793553 133.63476,39.4793553 L134.142756,39.4793553 C134.366592,39.4793553 134.492004,39.3600921 134.492004,39.1554106 L134.492004,34.4654643 C134.492004,33.2019186 133.60301,32.6168841 131.793274,32.6168841 L131.793274,32.6168841 Z M133.253763,36.5171144 L133.253763,37.8676899 C132.618768,38.3044513 131.950435,38.5413661 131.28369,38.5413661 C130.301035,38.5413661 130.205786,38.0997698 130.205786,37.7790483 L130.205786,37.366462 C130.205786,36.8104375 130.489946,36.5461243 131.158278,36.5461243 L133.253763,36.5461243 L133.253763,36.5171144 Z" id="Fill-1" fill="#000000" mask="url(#mask-2)"></path>
                </g>
            </g>
        </g>
    </g>
</svg>