<?xml version="1.0" encoding="UTF-8"?>
<svg width="193px" height="83px" viewBox="0 0 193 83" version="1.1" xmlns="http://www.w3.org/2000/svg" xmlns:xlink="http://www.w3.org/1999/xlink">
    <!-- Generator: Sketch 61.1 (89650) - https://sketch.com -->
    <title>Group 38</title>
    <desc>Created with Sketch.</desc>
    <g id="MODELO-DE-LANDING-Bootcamp" stroke="none" stroke-width="1" fill="none" fill-rule="evenodd">
        <g id="Modelo-de-landing" transform="translate(-969.000000, -3353.000000)">
            <g id="Group-38" transform="translate(969.000000, 3353.000000)">
                <g id="Group-25" fill="#FFFFFF">
                    <rect id="Rectangle-Copy-3" x="0" y="0" width="193" height="83"></rect>
                </g>
                <g id="Group-2" transform="translate(13.000000, 26.000000)" fill="#373737">
                    <path d="M113.3622,16.1784 C115.476151,16.1784 117.390447,17.0332261 118.778275,18.416066 L116.943058,20.0837886 C116.010805,19.1975594 114.750016,18.6536903 113.3622,18.6536903 C110.491363,18.6536903 108.16409,20.9809633 108.16409,23.8518 C108.16409,26.7226367 110.491363,29.0499097 113.3622,29.0499097 C115.665494,29.0499097 117.618898,27.5518496 118.301226,25.4769145 L113.6268,25.4772 L113.6268,22.9824 L121.0356,22.9824 L121.0108,23.2474 L121.019737,23.3543881 C121.030258,23.5188368 121.0356,23.6846946 121.0356,23.8518 C121.0356,28.0897018 117.600102,31.5252 113.3622,31.5252 C109.124298,31.5252 105.6888,28.0897018 105.6888,23.8518 C105.6888,19.6138982 109.124298,16.1784 113.3622,16.1784 Z" id="Combined-Shape" fill-rule="nonzero"></path>
                    <rect id="Rectangle" x="38.3292" y="16.5564" width="2.7216" height="14.364"></rect>
                    <path d="M70.7238,16.6698 L70.7238,19.1646 L66.1494,19.1638 L66.15,30.9204 L63.4284,30.9204 L63.4274,19.1638 L59.0814,19.1646 L59.0814,16.6698 L70.7238,16.6698 Z" id="Combined-Shape"></path>
                    <path d="M46.494,30.9204 L43.7724,30.9204 L43.7724,16.5564 L46.494,19.0329517 L54.2804,25.3904 L54.2808,16.5564 L57.0024,16.5564 L57.0024,30.9204 L54.3764,28.5304 L46.494,22.0534654 L46.494,30.9204 Z" id="Combined-Shape"></path>
                    <path d="M139.104,30.9204 L136.3824,30.9204 L136.3824,16.5564 L139.104,19.0329517 L146.8904,25.3904 L146.8908,16.5564 L149.6124,16.5564 L149.6124,30.9204 L146.9864,28.5304 L139.104,22.0534654 L139.104,30.9204 Z" id="Combined-Shape"></path>
                    <path d="M81.9504,16.5564 L81.9504,19.0512 L75.297,19.0504 L75.297,22.4154 L80.325,22.4154 L80.325,24.9102 L75.297,24.9094 L75.297,28.4254 L82.1016,28.4256 L82.1016,30.9204 L72.576,30.9204 L72.576,16.5564 L81.9504,16.5564 Z" id="Combined-Shape"></path>
                    <path d="M95.2747899,16.5564 L99.1513666,21.8343921 L103.136882,16.5564 L106.218,16.5564 L100.547,24.1904 L100.548,30.9204 L97.8264,30.9204 L97.826,24.1974 L92.232,16.5564 L95.2747899,16.5564 Z" id="Combined-Shape"></path>
                    <path d="M132.7536,16.5564 L132.7536,19.0512 L126.1002,19.0504 L126.1002,22.5664 L130.977,22.5666 L130.977,25.0614 L126.1002,25.0614 L126.1002,28.4254 L132.7536,28.4256 L132.7536,30.9204 L123.3792,30.9204 L123.3792,16.5564 L132.7536,16.5564 Z" id="Combined-Shape"></path>
                    <path d="M87.5448,16.5564 L87.5442,28.4254 L94.1976,28.4256 L94.1976,30.9204 L84.8232,30.9204 L84.8232,16.5564 L87.5448,16.5564 Z" id="Combined-Shape"></path>
                    <path d="M162.9936,16.7076 L161.601811,19.2024 L155.7674,28.3116 L162.9558,28.3122 L162.9558,30.807 L151.3134,30.807 L152.754285,28.3122 L152.7734,28.3116 L158.6684,19.2016 L151.7292,19.2024 L151.7292,16.7076 L162.9936,16.7076 Z" id="Combined-Shape"></path>
                    <g id="Group">
                        <polygon id="Triangle" points="15.7626 22.9824 20.034 31.5252 11.4912 31.5252"></polygon>
                        <path d="M15.7626,0 L31.5252,31.5252 L24.325,31.5252 L15.8599,14.595 L7.3948,31.5252 L0,31.5252 L15.7626,0 Z" id="Combined-Shape"></path>
                    </g>
                </g>
            </g>
        </g>
    </g>
</svg>