<?xml version="1.0" encoding="UTF-8"?>
<svg width="193px" height="83px" viewBox="0 0 193 83" version="1.1" xmlns="http://www.w3.org/2000/svg" xmlns:xlink="http://www.w3.org/1999/xlink">
    <!-- Generator: Sketch 61.1 (89650) - https://sketch.com -->
    <title>Group 24</title>
    <desc>Created with Sketch.</desc>
    <defs>
        <polygon id="path-1" points="0.0614165106 0.159133333 47.9744837 0.159133333 47.9744837 2.92793926 0.0614165106 2.92793926"></polygon>
        <polygon id="path-3" points="0.0622741132 0.22176 51.5515488 0.22176 51.5515488 2.97014667 0.0622741132 2.97014667"></polygon>
        <polygon id="path-5" points="0.0612772904 0.26796 77.4167075 0.26796 77.4167075 3.01737592 0.0612772904 3.01737592"></polygon>
        <polygon id="path-7" points="0.061579398 0.318266667 66.6986986 0.318266667 66.6986986 3.07978524 0.061579398 3.07978524"></polygon>
    </defs>
    <g id="MODELO-DE-LANDING-Bootcamp" stroke="none" stroke-width="1" fill="none" fill-rule="evenodd">
        <g id="Modelo-de-landing" transform="translate(-536.000000, -3353.000000)">
            <g id="Group-24" transform="translate(536.000000, 3353.000000)">
                <rect id="Rectangle-Copy" fill="#FFFFFF" x="0" y="0" width="193" height="83"></rect>
                <g id="Group" transform="translate(46.000000, 21.000000)">
                    <polyline id="Fill-1" fill="#4C78AF" points="96.8 2.75 80.3 2.75 81.3173044 0.55 96.8 0.55 96.8 2.75"></polyline>
                    <path d="M53.9010223,0.551630976 L68.3532739,0.55 L69.3,2.74937105 C69.3069808,2.7461091 53.9060103,2.75181751 53.9060103,2.74937105 C53.9060103,2.7461091 53.8970319,0.551630976 53.9010223,0.551630976" id="Fill-2" fill="#4C78AF"></path>
                    <g id="Group-6" transform="translate(0.000000, 0.550000)">
                        <mask id="mask-2" fill="white">
                            <use xlink:href="#path-1"></use>
                        </mask>
                        <g id="Clip-4"></g>
                        <path d="M41.596379,0.16016 C44.0397326,0.396293333 46.1647438,1.26896 47.9744837,2.92702667 C47.9744837,2.92702667 21.0955478,2.92908 21.0955478,2.92702667 C21.0955478,2.92292 21.0955478,0.159133333 21.0955478,0.159133333 L41.596379,0.16016" id="Fill-3" fill="#4C78AF" mask="url(#mask-2)"></path>
                        <polygon id="Fill-5" fill="#4C78AF" mask="url(#mask-2)" points="0.0614165106 2.92189333 18.6757373 2.92189333 18.6757373 0.16016 0.0614165106 0.16016"></polygon>
                    </g>
                    <path d="M96.8,8.25 L78.1,8.25 C78.1,8.25 79.1193548,6.05082182 79.1139785,6.05 L96.8,6.05 L96.8,8.25" id="Fill-7" fill="#4C78AF"></path>
                    <polyline id="Fill-8" fill="#4C78AF" points="71.5 8.25 53.9 8.25 53.9 6.05 70.5366939 6.05 71.5 8.25"></polyline>
                    <g id="Group-12" transform="translate(0.000000, 6.050000)">
                        <mask id="mask-4" fill="white">
                            <use xlink:href="#path-3"></use>
                        </mask>
                        <g id="Clip-10"></g>
                        <path d="M50.766895,0.22176 C51.126009,1.12933333 51.5515488,1.90446667 51.5515488,2.97014667 L21.3953095,2.97014667 L21.3953095,0.22176 L50.766895,0.22176" id="Fill-9" fill="#4C78AF" mask="url(#mask-4)"></path>
                        <polygon id="Fill-11" fill="#4C78AF" mask="url(#mask-4)" points="0.0622741132 2.97014667 18.9365199 2.97014667 18.9365199 0.22176 0.0622741132 0.22176"></polygon>
                    </g>
                    <polyline id="Fill-13" fill="#4C78AF" points="77 13.75 77.9745593 11.55 91.3 11.5532726 91.3 13.7450911 77 13.75"></polyline>
                    <polyline id="Fill-14" fill="#4C78AF" points="72.7202939 11.55 73.7 13.75 59.4 13.75 59.4 11.55 72.7202939 11.55"></polyline>
                    <path d="M51.7,11.55 C51.7,12.3045894 51.5775872,13.0902453 51.2947716,13.75 L42.9,13.75 L42.9,11.55 L51.7,11.55" id="Fill-15" fill="#4C78AF"></path>
                    <polygon id="Fill-16" fill="#4C78AF" points="5.5 13.75 13.2 13.75 13.2 11.55 5.5 11.55"></polygon>
                    <polygon id="Fill-17" fill="#4C78AF" points="27.5 13.75 35.2 13.75 35.2 11.55 27.5 11.55"></polygon>
                    <path d="M67.1831837,17.5735032 C67.1831837,17.5735032 67.1862511,19.2467128 67.1842062,19.25 L59.3,19.25 L59.3,17.05 L74.3250823,17.05 L75.2575678,19.101252 C75.2616577,19.1020738 76.1573346,17.045078 76.1593795,17.05 L91.3,17.05 L91.3,19.25 L83.4546474,19.25 C83.4546474,19.2467128 83.4505576,17.5735032 83.4505576,17.5735032 L82.7256318,19.25 L67.9081094,19.2467128 L67.1831837,17.5735032" id="Fill-18" fill="#4C78AF"></path>
                    <path d="M27.501028,17.0516413 L50.6,17.0516413 L50.6,17.05 C50.0962617,17.7861296 49.1792523,18.6806462 48.3095327,19.2485411 C48.3095327,19.2485411 27.5,19.2518237 27.5,19.2485411 C27.5,19.2452584 27.501028,17.0549239 27.501028,17.0516413" id="Fill-19" fill="#4C78AF"></path>
                    <polygon id="Fill-20" fill="#4C78AF" points="5.5 19.25 13.2 19.25 13.2 17.05 5.5 17.05"></polygon>
                    <polygon id="Fill-21" fill="#4C78AF" points="83.6 23.65 91.3 23.65 91.3 21.45 83.6 21.45"></polygon>
                    <path d="M67.0942026,21.45 L59.4,21.45 L59.4,23.6494212 C59.3960097,23.6485993 67.0971964,23.651065 67.0971964,23.6494212 C67.0971964,23.6485993 67.10518,21.45 67.0942026,21.45" id="Fill-22" fill="#4C78AF"></path>
                    <path d="M82.5,21.45 C82.4629531,21.4459085 81.5748577,23.6450765 81.5378109,23.6458971 L70.2899743,23.65 C70.2817416,23.6467177 69.3010291,21.4459085 69.3,21.45 L82.5,21.45" id="Fill-23" fill="#4C78AF"></path>
                    <path d="M27.5,21.45 L48.1399882,21.45 C49.0818844,22.0818099 49.9338815,22.8598645 50.6,23.6494214 C50.6387712,23.6485998 27.5010216,23.6510646 27.5010216,23.6494214 C27.5010216,23.6485998 27.5,21.4516432 27.5,21.45" id="Fill-24" fill="#4C78AF"></path>
                    <path d="M13.2,23.65 L13.2,21.45 L5.5,21.45 C5.5,21.45 5.50196793,23.6491782 5.5,23.6491782 C5.49803283,23.6491782 13.1960649,23.65 13.2,23.65" id="Fill-25" fill="#4C78AF"></path>
                    <polygon id="Fill-26" fill="#4C78AF" points="83.6 29.15 91.3 29.15 91.3 26.95 83.6 26.95"></polygon>
                    <polygon id="Fill-27" fill="#4C78AF" points="59.4 29.15 67.1 29.15 67.1 26.95 59.4 26.95"></polygon>
                    <path d="M78.2898075,29.1476439 C78.2917017,29.1370272 79.185793,26.9475541 79.2,26.95 L70.4002094,26.95 C70.3841082,26.9483708 71.3018778,29.1370272 71.3018778,29.1370272 C71.3018778,29.1370272 78.2879132,29.1566271 78.2898075,29.1476439" id="Fill-28" fill="#4C78AF"></path>
                    <path d="M27.5004306,29.1491788 C27.5004306,29.158212 27.4994617,26.9508212 27.5004306,26.95 L35.1969858,26.95 C35.1969858,26.95 35.2037678,29.15 35.1969858,29.15 C35.1902038,29.15 27.5004306,29.1467152 27.5004306,29.1491788" id="Fill-29" fill="#4C78AF"></path>
                    <path d="M51.1772484,26.95 C51.5787216,27.6097547 51.6205418,28.3954106 51.7,29.15 L42.9,29.15 L42.9,26.95 L51.1772484,26.95" id="Fill-30" fill="#4C78AF"></path>
                    <polygon id="Fill-31" fill="#4C78AF" points="5.5 29.15 13.2 29.15 13.2 26.95 5.5 26.95"></polygon>
                    <polygon id="Fill-32" fill="#4C78AF" points="83.6 34.65 96.8 34.65 96.8 32.45 83.6 32.45"></polygon>
                    <polygon id="Fill-33" fill="#4C78AF" points="53.9 34.65 67.1 34.65 67.1 32.45 53.9 32.45"></polygon>
                    <g id="Group-37" transform="translate(0.000000, 32.450000)">
                        <mask id="mask-6" fill="white">
                            <use xlink:href="#path-5"></use>
                        </mask>
                        <g id="Clip-35"></g>
                        <polyline id="Fill-34" fill="#4C78AF" mask="url(#mask-6)" points="76.4903991 3.01737333 72.488992 3.01737333 71.5279599 0.26796 77.4167075 0.26796 76.4903991 3.01737333"></polyline>
                        <path d="M0.000984348409,0.26796 L0.000984348409,3.01737592 L18.6191047,3.01737592 C18.627275,3.02045333 18.6109344,0.270013333 18.6191047,0.270013333 C18.627275,0.270013333 -0.0204257635,0.26796 0.000984348409,0.26796" id="Fill-36" fill="#4C78AF" mask="url(#mask-6)"></path>
                    </g>
                    <path d="M51.7,32.45 C51.4972712,33.1753921 51.3124923,34.0601568 50.6303942,34.65 L50.3759273,34.65 L20.9,34.65 L20.9,32.45 L51.7,32.45" id="Fill-38" fill="#4C78AF"></path>
                    <polyline id="Fill-39" fill="#4C78AF" points="74.9662156 40.15 74.6089761 40.15 73.7 37.95 75.9 37.95 74.9662156 40.15"></polyline>
                    <polygon id="Fill-40" fill="#4C78AF" points="83.6 40.15 96.8 40.15 96.8 37.95 83.6 37.95"></polygon>
                    <path d="M20.9,40.1450856 L20.9,37.95 C20.9,37.95 48.3208723,37.9524572 48.4,37.9524572 C46.5592398,39.3383098 44.0334002,40.1196947 41.3128649,40.15 L20.9041646,40.1450856" id="Fill-41" fill="#4C78AF"></path>
                    <g id="Group-45" transform="translate(0.000000, 37.950000)">
                        <mask id="mask-8" fill="white">
                            <use xlink:href="#path-7"></use>
                        </mask>
                        <g id="Clip-43"></g>
                        <polygon id="Fill-42" fill="#4C78AF" mask="url(#mask-8)" points="53.5135232 3.07897333 66.6986986 3.07897333 66.6986986 0.318266667 53.5135232 0.318266667"></polygon>
                        <path d="M18.7109028,0.32956 C18.7109028,0.32956 18.7026895,3.07281333 18.7109028,3.07281333 C18.7191107,3.07281333 0.0061579398,3.08410667 0.0010263233,3.07794667 C-0.0030789699,3.07281333 0.0061579398,0.321346667 0.0010263233,0.321346667 C-0.0030789699,0.321346667 18.7026895,0.337773333 18.7109028,0.32956" id="Fill-44" fill="#4C78AF" mask="url(#mask-8)"></path>
                    </g>
                </g>
            </g>
        </g>
    </g>
</svg>