<?xml version="1.0" encoding="UTF-8"?>
<svg width="193px" height="83px" viewBox="0 0 193 83" version="1.1" xmlns="http://www.w3.org/2000/svg" xmlns:xlink="http://www.w3.org/1999/xlink">
    <!-- Generator: Sketch 61.1 (89650) - https://sketch.com -->
    <title>Group 39</title>
    <desc>Created with Sketch.</desc>
    <g id="MODELO-DE-LANDING-Bootcamp" stroke="none" stroke-width="1" fill="none" fill-rule="evenodd">
        <g id="Modelo-de-landing" transform="translate(-539.000000, -3506.000000)">
            <g id="Group-39" transform="translate(539.000000, 3506.000000)">
                <g id="Group-27" fill="#FFFFFF">
                    <rect id="Rectangle-Copy-5" x="0" y="0" width="193" height="83"></rect>
                </g>
                <g id="deloitte-copy" transform="translate(32.000000, 29.000000)" fill-rule="nonzero">
                    <path d="M122.9396,20.7417 C122.9396,18.8135063 124.510721,17.3138 126.3675,17.3138 C128.295694,17.3138 129.7954,18.8849208 129.7954,20.7417 C129.7954,22.5984792 128.224279,24.1696 126.3675,24.1696 C124.510721,24.1696 122.9396,22.6698938 122.9396,20.7417" id="Path" fill="#86BC25"></path>
                    <path d="M19.6959,11.5036255 C19.6959,15.5095595 18.6968326,18.5140099 16.5559739,20.6600459 C14.4151152,22.806082 11.417913,23.8791 7.56436739,23.8791 L0,23.8791 L0,0.0581 L7.99253913,0.0581 C11.7747228,0.0581 14.6292011,0.988048949 16.6273359,2.99101592 C18.6968326,4.92244835 19.6959,7.78382973 19.6959,11.5036255 M13.1306,11.7182291 C13.1306,9.50065856 12.7024283,7.9268988 11.8460848,6.85388078 C11.0611033,5.8523973 9.70522609,5.28012102 7.99253913,5.28012102 L6.27985217,5.28012102 L6.27985217,18.5855444 L7.7070913,18.5855444 C9.63386413,18.5855444 10.9897413,18.0132682 11.9174467,16.8687156 C12.7024283,15.7241631 13.1306,14.0073342 13.1306,11.7182291" id="Shape" fill="#0F0B0B"></path>
                    <rect id="Rectangle" fill="#0F0B0B" x="40.5538" y="0" width="5.9262" height="23.8791"></rect>
                    <path d="M66.1178,14.9249179 C66.1178,17.791486 65.402907,20.0847405 63.8301424,21.7330171 C62.2573778,23.3812938 60.1126988,24.1696 57.3961053,24.1696 C54.7510012,24.1696 52.6778115,23.3812938 51.1050469,21.6613529 C49.5322823,19.9414121 48.7459,17.7198218 48.7459,14.9249179 C48.7459,12.0583498 49.460793,9.76509533 51.0335576,8.18848288 C52.6063222,6.54020623 54.7510012,5.7519 57.4675947,5.7519 C59.1833379,5.7519 60.6846132,6.11022101 61.9714206,6.82686304 C63.3297173,7.54350506 64.2590782,8.61846809 64.9739712,9.98008794 C65.8318428,11.4850362 66.1178,13.0616486 66.1178,14.9249179 M54.8939798,14.9249179 C54.8939798,16.5015304 55.1084477,17.5764934 55.4658942,18.3647996 C55.8233407,19.1531058 56.4667444,19.5114268 57.4675947,19.5114268 C58.4684449,19.5114268 59.0403593,19.1531058 59.4692951,18.3647996 C59.8267416,17.5764934 60.0412095,16.3582019 60.0412095,14.9249179 C60.0412095,13.3483054 59.8267416,12.2733424 59.4692951,11.4850362 C59.1118486,10.7683942 58.4684449,10.3384089 57.4675947,10.3384089 C56.609723,10.3384089 55.89483,10.69673 55.4658942,11.4850362 C55.1084477,12.2733424 54.8939798,13.3483054 54.8939798,14.9249179" id="Shape" fill="#0F0B0B"></path>
                    <rect id="Rectangle" fill="#0F0B0B" x="68.558" y="6.0424" width="5.9262" height="17.7786"></rect>
                    <rect id="Rectangle" fill="#0F0B0B" x="68.558" y="0" width="5.9262" height="4.0089"></rect>
                    <path d="M86.5535723,19.2941447 C87.3407124,19.2941447 88.3425271,19.0790511 89.4159,18.7205617 L89.4159,23.2375277 C88.6287599,23.596017 87.8416198,23.8111106 87.1260379,23.9545064 C86.4104559,24.0979021 85.5517576,24.1696 84.5499429,24.1696 C82.5463136,24.1696 81.1151497,23.6677149 80.1848932,22.5922468 C79.3261949,21.5884766 78.8252876,20.0111234 78.8252876,17.9318851 L78.8252876,10.6187021 L76.7501,10.6187021 L76.7501,6.0300383 L78.8252876,6.0300383 L78.8252876,1.58477021 L84.8361757,0.581 L84.8361757,6.17343404 L88.7003181,6.17343404 L88.7003181,10.6904 L84.8361757,10.6904 L84.8361757,17.5733957 C84.9792921,18.7922596 85.4801994,19.2941447 86.5535723,19.2941447" id="Path" fill="#0F0B0B"></path>
                    <path d="M100.439472,19.2941447 C101.226612,19.2941447 102.228427,19.0790511 103.3018,18.7205617 L103.3018,23.2375277 C102.51466,23.596017 101.72752,23.8111106 101.011938,23.9545064 C100.296356,24.0979021 99.4376576,24.1696 98.4358429,24.1696 C96.4322136,24.1696 95.0010497,23.6677149 94.0707932,22.5922468 C93.2120949,21.5884766 92.7111876,20.0111234 92.7111876,17.9318851 L92.7111876,10.6187021 L90.636,10.6187021 L90.636,6.0300383 L92.7111876,6.0300383 L92.7111876,1.51307234 L98.7220757,0.581 L98.7220757,6.17343404 L102.586218,6.17343404 L102.586218,10.6904 L98.7220757,10.6904 L98.7220757,17.5733957 C98.7936339,18.7922596 99.3660994,19.2941447 100.439472,19.2941447" id="Path" fill="#0F0B0B"></path>
                    <path d="M119.33023,7.82863721 C117.901217,6.39640465 115.9006,5.7519 113.328377,5.7519 C110.613252,5.7519 108.469733,6.53962791 106.96927,8.18669535 C105.468806,9.83376279 104.7543,12.1253349 104.7543,15.1330233 C104.7543,17.9974884 105.540257,20.2890605 107.112171,21.8645163 C108.755536,23.4399721 110.970506,24.2277 113.828531,24.2277 C115.257544,24.2277 116.400754,24.1560884 117.401063,23.9412535 C118.329921,23.7264186 119.401681,23.4399721 120.259089,22.9386907 L119.401681,18.9284395 C118.758625,19.214886 118.044119,19.4297209 117.472514,19.5729442 C116.615106,19.7877791 115.614797,19.8593907 114.614488,19.8593907 C113.471278,19.8593907 112.54242,19.5729442 111.899364,19.0716628 C111.256308,18.4987698 110.899055,17.7110419 110.899055,16.7084791 L121.5452,16.7084791 L121.5452,13.9156256 C121.473749,11.2659953 120.687792,9.26086977 119.33023,7.82863721 L119.33023,7.82863721 Z M110.899055,12.7698395 C110.970506,11.8388884 111.256308,11.0511605 111.685012,10.6214907 C112.113716,10.1918209 112.685321,9.97698605 113.471278,9.97698605 C114.185784,9.97698605 114.900291,10.1918209 115.328994,10.6931023 C115.757698,11.1943837 115.97205,11.8388884 116.043501,12.7698395 L110.899055,12.7698395 Z" id="Shape" fill="#0F0B0B"></path>
                    <path d="M36.1310302,7.82863721 C34.6305668,6.39640465 32.7013996,5.7519 30.1291766,5.7519 C27.4140523,5.7519 25.2705332,6.53962791 23.7700698,8.18669535 C22.2696064,9.83376279 21.5551,12.1253349 21.5551,15.1330233 C21.5551,17.9974884 22.341057,20.2890605 23.9129711,21.8645163 C25.5563357,23.4399721 27.7713055,24.2277 30.6293311,24.2277 C32.0583438,24.2277 33.201554,24.1560884 34.201863,23.9412535 C35.1307213,23.7264186 36.2024809,23.4399721 37.0598885,22.9386907 L36.2024809,18.8568279 C35.5594251,19.1432744 34.8449187,19.3581093 34.2733136,19.5013326 C33.415906,19.7161674 32.415597,19.7877791 31.4152881,19.7877791 C30.2720779,19.7877791 29.3432196,19.5013326 28.7001638,19.0000512 C28.0571081,18.4271581 27.6998549,17.6394302 27.6998549,16.6368674 L38.346,16.6368674 L38.346,13.9156256 C38.2745494,11.2659953 37.4885923,9.26086977 36.1310302,7.82863721 L36.1310302,7.82863721 Z M27.6284043,12.7698395 C27.6998549,11.8388884 27.9856574,11.0511605 28.4143613,10.6214907 C28.8430651,10.1918209 29.4146702,9.97698605 30.2006272,9.97698605 C30.9865843,9.97698605 31.62964,10.1918209 32.0583438,10.6931023 C32.4870477,11.1943837 32.7013996,11.8388884 32.7728502,12.7698395 L27.6284043,12.7698395 Z" id="Shape" fill="#0F0B0B"></path>
                </g>
            </g>
        </g>
    </g>
</svg>