<?xml version="1.0" encoding="utf-8"?>
<!-- Generator: Adobe Illustrator 21.0.0, SVG Export Plug-In . SVG Version: 6.00 Build 0)  -->
<svg version="1.1" id="Capa_1" xmlns="http://www.w3.org/2000/svg" xmlns:xlink="http://www.w3.org/1999/xlink" x="0px" y="0px"
	 width="278px" height="141px" viewBox="0 0 278 141" style="enable-background:new 0 0 278 141;" xml:space="preserve">
<style type="text/css">
	.st0{opacity:0.433;fill:#FFFFFF;stroke:#FFFFFF;enable-background:new    ;}
	.st1{fill:url(#SVGID_1_);stroke:#FFFFFF;stroke-width:2;}
	.st2{fill:#FFFFFF;}
	.st3{opacity:0.363;fill:#68B75C;enable-background:new    ;}
	.st4{fill:#68B75C;stroke:#FFFFFF;stroke-width:2;}
	.st5{font-family:'EncodeSans-Medium';}
	.st6{font-size:20px;}
	.st7{font-size:12px;}
</style>
<g>
	<path class="st0" d="M277.5,1.2H0.5v62.4c0,6.6,4.5,12.4,10.9,14l127.6,33l127.6-33c6.4-1.7,10.9-7.4,10.9-14V1.2z"/>
	
		<linearGradient id="SVGID_1_" gradientUnits="userSpaceOnUse" x1="-229.9346" y1="4.5612" x2="-230.581" y2="4.1178" gradientTransform="matrix(263 0 0 98.5871 60791 -368.2952)">
		<stop  offset="0" style="stop-color:#D4A9DE"/>
		<stop  offset="1" style="stop-color:#A656BE"/>
	</linearGradient>
	<path class="st1" d="M270,1.7H7v56.1c0,6.5,4.4,12.1,10.7,13.6l120.8,28.9l120.8-28.8c6.3-1.5,10.7-7.1,10.7-13.6V1.7z"/>
	<polygon class="st2" points="165,0.7 138.5,7 112,0.7 	"/>
	<circle class="st3" cx="139" cy="108" r="33"/>
	<g>
		<circle id="grant-shield-slider-c_2_" cx="139" cy="108" r="23"/>
	</g>
	<g>
		<circle id="grant-shield-slider-c_1_" class="st4" cx="139" cy="108" r="23"/>
	</g>
	<polygon class="st2" points="135.5,115.7 142.9,108 135.5,100.3 137.8,98 147.5,108 137.8,118 	"/>
	<text transform="matrix(1 0 0 1 38.49 39.5)" class="st2 st5 st6">Becas Bootcamp 2020</text>
	<text transform="matrix(1 0 0 1 79.817 64.8333)" class="st2 st5 st7">MÁS INFORMACIÓN</text>
</g>
</svg>
