<?xml version="1.0" encoding="UTF-8"?>
<svg width="174px" height="57px" viewBox="0 0 174 57" version="1.1" xmlns="http://www.w3.org/2000/svg" xmlns:xlink="http://www.w3.org/1999/xlink">
    <!-- Generator: Sketch 50.2 (55047) - http://www.bohemiancoding.com/sketch -->
    <title>adeslas</title>
    <desc>Created with Sketch.</desc>
    <defs></defs>
    <g id="06-Empresas" stroke="none" stroke-width="1" fill="none" fill-rule="evenodd">
        <g id="06-E-Empresas" transform="translate(-92.000000, -2103.000000)">
            <g id="adeslas" transform="translate(92.000000, 2103.000000)">
                <polygon id="Fill-1" fill="#1A1919" points="55 33.99 174 33.99 174 33 55 33"></polygon>
                <path d="M169.625493,25.8626805 C169.625493,27.491079 168.226902,28.4576253 166.677882,28.4576253 C164.777181,28.4576253 163.132617,27.0370646 162.707754,25.0252761 L161.152635,25.0252761 L161.402674,28.9136576 C162.677262,29.7086873 164.817837,30.1263806 166.293676,30.1263806 C169.922287,30.1263806 173,28.4939465 173,24.5167799 C173,18.7901444 164.606422,20.2934367 164.606422,16.279949 C164.606422,14.5587298 165.832222,13.6406117 167.517443,13.6406117 C169.792186,13.6406117 170.97123,14.6858539 171.434717,16.8146771 L172.788585,16.8146771 L172.955278,13.0614911 C171.180612,12.5126381 169.405947,11.9678207 167.596723,11.9678207 C164.147002,11.9678207 160.945286,13.6406117 160.945286,17.4946899 C160.945286,23.431181 169.625493,22.8016143 169.625493,25.8626805 Z M151.238496,20.5436491 C151.996744,20.5436491 152.805813,20.6647196 153.267266,20.7535047 L153.393302,26.9079227 C152.726532,27.325616 151.880872,27.6161852 150.575792,27.6161852 C148.797061,27.6161852 147.2765,26.1512319 147.2765,24.2282285 C147.2765,21.5505523 149.30527,20.5436491 151.238496,20.5436491 Z M148.884473,30.1263806 C150.738419,30.1263806 152.092287,29.125531 153.517305,28.0742353 C154.025514,29.125531 155.29197,29.9225786 156.891812,30.1263806 L160.052871,27.6161852 L159.420659,26.9946899 C159.127931,27.0713679 158.749823,27.1561172 158.540441,27.1561172 C157.613468,27.1561172 157.273985,26.6112999 157.273985,24.6862787 L157.273985,23.2233432 C157.312609,20.8422897 157.440677,18.6610025 157.440677,17.1556924 C157.440677,12.9686703 154.236929,11.9678207 150.484314,11.9678207 C148.506366,11.9678207 146.819112,12.2180331 145.036315,12.7245115 L145.036315,16.6915888 L146.052733,16.6915888 C147.113873,15.1459218 148.168915,14.4780161 150.234276,14.4780161 C153.100574,14.4780161 153.267266,16.9882116 153.267266,19.2401232 C152.675711,19.2401232 151.960153,19.1210705 151.285252,19.1210705 C147.447258,19.1210705 143.194566,20.8422897 143.194566,25.2714528 C143.194566,28.3688403 146.024273,30.1263806 148.884473,30.1263806 Z M136.274795,6.23109601 C136.40083,7.8171198 136.612245,10.9588997 136.612245,13.3924172 L136.612245,26.942226 C136.612245,27.8663976 136.274795,28.6190527 134.922959,28.8309261 L134.922959,29.6663127 C136.150792,29.6663127 137.333902,29.5391886 138.555636,29.5391886 C139.82006,29.5391886 141.086516,29.6663127 142.348907,29.6663127 L142.348907,28.8309261 C141.041794,28.6190527 140.704343,27.8663976 140.704343,26.4397833 L140.704343,10.2102804 C140.704343,6.35418437 140.82428,2.25796517 140.875101,0 L140.029442,0 C138.929678,1.17236619 135.605992,2.34271453 134.126087,2.55458794 L134.126087,3.51306287 C135.479956,3.51306287 136.191448,4.51391249 136.274795,6.23109601 Z M129.448533,25.8626805 C129.448533,27.491079 128.051975,28.4576253 126.494823,28.4576253 C124.600221,28.4576253 122.953624,27.0370646 122.528761,25.0252761 L120.975675,25.0252761 L121.225714,28.9136576 C122.49217,29.7086873 124.640877,30.1263806 126.116716,30.1263806 C129.743294,30.1263806 132.818974,28.4939465 132.818974,24.5167799 C132.818974,18.7901444 124.433528,20.2934367 124.433528,16.279949 C124.433528,14.5587298 125.657295,13.6406117 127.340483,13.6406117 C129.619291,13.6406117 130.790204,14.6858539 131.255724,16.8146771 L132.613658,16.8146771 L132.772219,13.0614911 C131.001619,12.5126381 129.239151,11.9678207 127.427895,11.9678207 C123.970042,11.9678207 120.762227,13.6406117 120.762227,17.4946899 C120.762227,23.431181 129.448533,22.8016143 129.448533,25.8626805 Z M110.518769,13.3924172 C113.256999,13.3924172 114.440109,14.9744053 114.440109,17.4482795 L106.849501,17.4482795 C106.770221,15.3154206 108.239961,13.3924172 110.518769,13.3924172 Z M112.327993,30.1263806 C114.094527,30.1263806 115.489052,29.7954545 116.338777,29.4947961 L118.61352,26.1936066 L118.192723,25.6851105 C116.922201,26.6112999 115.322359,27.0370646 113.757076,27.0370646 C109.421038,27.0370646 106.428704,23.2677358 106.725498,19.1210705 L118.991627,19.1210705 C118.950971,14.6858539 115.576464,11.9678207 111.232295,11.9678207 C105.50783,11.9678207 102.633401,17.1153356 102.633401,21.0440739 C102.633401,24.9748301 105.50783,30.1263806 112.327993,30.1263806 Z M90.9120713,13.6406117 C94.2438886,13.6406117 95.4310645,15.3154206 95.4310645,19.2824979 L95.4310645,26.1512319 C94.3272348,27.1984919 93.2356022,27.6161852 92.0077696,27.6161852 C88.3446001,27.6161852 86.2345169,23.5139125 86.2345169,20.0452421 C86.2345169,17.1980671 87.5802539,13.6406117 90.9120713,13.6406117 Z M90.2026117,30.1263806 C91.6357607,30.1263806 92.4326322,29.9225786 93.1522559,29.4947961 L95.597757,27.3700085 C96.2685927,28.6190527 97.4435716,29.6663127 98.79744,30.1263806 C99.5922787,29.125531 101.167726,27.989486 102.633401,27.0370646 L101.997123,26.4014444 C101.70846,26.5709431 101.405568,26.7404418 100.822144,26.7404418 C99.8545144,26.7404418 99.5170638,25.9050552 99.5170638,24.3896559 L99.5170638,13.9775913 C99.5170638,7.95029737 99.6837563,3.26285047 99.6837563,0 L98.8380967,0 C97.7891536,1.17236619 95.2562406,2.34271453 93.1868141,2.8895497 L93.1868141,3.72493628 C94.2865781,3.88838148 95.3395869,4.47759133 95.3395869,6.81627018 L95.3395869,13.0150807 C93.9105036,12.3431393 92.4773546,11.9678207 91.0401399,11.9678207 C85.6449946,11.9678207 81.6870639,15.3154206 81.6870639,21.1308411 C81.6870639,26.1936066 85.0554723,30.1263806 90.2026117,30.1263806 Z M67.0567471,8.20252761 L71.3053732,19.203802 L62.956518,19.203802 L67.0567471,8.20252761 Z M62.2429927,29.7086873 L62.2429927,28.7905692 C61.238772,28.7905692 60.7285303,27.989486 60.7285303,26.9946899 C60.7285303,26.5265506 60.8200079,25.6064146 61.02939,24.8941164 L62.1576137,21.2155905 L72.0595552,21.2155905 L73.5475907,25.1059898 C73.8342205,25.9454121 74.0497011,26.6536746 74.0497011,27.2449023 C74.0497011,28.1993415 73.5475907,28.7905692 72.6592416,28.7905692 L72.6592416,29.7086873 C74.088325,29.7086873 75.4869158,29.5391886 76.9139663,29.5391886 C78.3511809,29.5391886 79.7375747,29.7086873 81.1707237,29.7086873 L81.1707237,28.7905692 C79.660327,28.6190527 79.2761211,27.2449023 77.8043482,23.5139125 L68.5691767,0 L68.0650335,0 L59.0778679,22.5130629 C58.2830293,24.5167799 56.6831878,28.4576253 55,28.7905692 L55,29.7086873 C56.2136028,29.7086873 57.3926473,29.5391886 58.62048,29.5391886 C59.8361156,29.5391886 61.02939,29.7086873 62.2429927,29.7086873 Z M151.092132,51.2451147 L148.817389,48.1033347 L150.602219,45.8453696 C151.067738,45.2662489 151.512929,44.7617884 152.334195,44.5680756 L152.334195,44.154418 C151.783296,44.1745964 151.214102,44.2149533 150.66727,44.2149533 C150.102141,44.2149533 149.555309,44.1745964 148.984082,44.154418 L148.984082,44.5680756 C149.317467,44.6992353 149.573604,44.84452 149.573604,45.2420348 C149.573604,45.3853016 149.467897,45.6415675 149.252416,45.9321368 L148.223801,47.2921623 L147.06102,45.7202634 C146.873999,45.4720688 146.806915,45.2036958 146.806915,45.0523577 C146.806915,44.7375743 146.998002,44.6992353 147.256172,44.5680756 L147.256172,44.154418 C146.613796,44.1745964 145.993781,44.2149533 145.357503,44.2149533 C144.727324,44.2149533 144.06462,44.1745964 143.44054,44.154418 L143.44054,44.5680756 C144.052423,44.84452 144.194722,44.9877867 144.599256,45.5144435 L147.01833,48.7752761 L144.977363,51.3722387 C144.70293,51.7273789 144.257739,52.2459643 143.590969,52.3569456 L143.590969,52.7746389 C144.052423,52.7504248 144.48745,52.710068 144.957035,52.710068 C145.499802,52.710068 146.073061,52.7504248 146.613796,52.7746389 L146.613796,52.3569456 C146.35156,52.3044817 146.176736,52.2076253 146.176736,51.8686279 C146.176736,51.6870221 146.35156,51.2854715 146.47353,51.1038658 L147.613951,49.5743415 L148.748273,51.1865973 C148.914965,51.4388275 149.085724,51.7697536 149.085724,51.8988955 C149.085724,52.1047154 148.894637,52.3327315 148.668992,52.3569456 L148.668992,52.7746389 C149.297139,52.7504248 149.904956,52.710068 150.539201,52.710068 C151.171413,52.710068 151.783296,52.7504248 152.417541,52.7746389 L152.417541,52.3569456 C151.893069,52.1874469 151.409255,51.6668437 151.092132,51.2451147 Z M111.636829,45.6415675 L111.535187,43.8840272 L111.110324,43.8840272 C110.589919,44.3057562 109.628387,44.84452 108.581477,45.0523577 L108.581477,45.4922472 C109.27874,45.6597281 109.549107,45.9139762 109.549107,46.6222387 C109.549107,47.3123407 109.656847,48.1941376 109.656847,49.1526126 L109.656847,51.3722387 C109.656847,51.9977698 109.449498,52.2459643 109.02057,52.3569456 L109.02057,52.7746389 C109.595862,52.7504248 110.156925,52.710068 110.732217,52.710068 C111.319706,52.710068 111.911262,52.7504248 112.502817,52.7746389 L112.502817,52.3569456 C111.911262,52.2459643 111.70188,51.9977698 111.70188,51.3722387 L111.70188,49.5279312 C111.70188,48.6118309 111.852309,47.8632116 111.852309,47.3950722 C111.852309,46.7332201 112.395076,45.6213891 113.281393,45.6213891 C114.015246,45.6213891 114.334401,45.9523152 114.610867,46.3296517 L115.031664,46.3296517 L115.031664,44.3642736 C114.62713,44.0837935 114.102658,43.9223662 113.70219,43.9223662 C112.85653,43.9223662 112.065757,44.9877867 111.636829,45.6415675 Z M80.784485,46.6666313 C80.7417954,45.597175 81.4776819,44.6326466 82.6160697,44.6326466 C83.9862008,44.6326466 84.5736903,45.4276763 84.5736903,46.6666313 L80.784485,46.6666313 Z M82.9799473,43.9223662 C80.1075508,43.9223662 78.6764346,46.4951147 78.6764346,48.4625106 C78.6764346,50.4339422 80.1075508,53.0026551 83.5227144,53.0026551 C84.4069978,53.0026551 85.1022275,52.8412277 85.5270901,52.6878717 L86.6614123,51.0352591 L86.4560959,50.7911003 C85.8238841,51.2451147 85.0127827,51.4509346 84.2403053,51.4509346 C82.069237,51.4509346 80.5710373,49.5743415 80.7214671,47.4979822 L86.8565645,47.4979822 C86.8281048,45.290463 85.1469499,43.9223662 82.9799473,43.9223662 Z M107.361776,51.8686279 C106.936913,51.8686279 106.725498,51.6083263 106.725498,50.7648683 L106.725498,45.546729 C106.725498,44.9474299 106.936913,44.7153781 107.361776,44.5680756 L107.361776,44.154418 C106.853567,44.2149533 106.329095,44.2149533 105.816821,44.2149533 C105.190708,44.2149533 104.578824,44.2371495 103.942547,44.154418 L103.942547,44.5680756 C104.558496,44.7617884 104.686564,45.0523577 104.686564,45.546729 L104.686564,51.2854715 C104.237308,51.6083263 103.62949,51.7455395 103.100953,51.7455395 C101.696263,51.7455395 100.866867,51.0170986 100.866867,49.4270391 L100.866867,47.7724087 C100.866867,46.9329864 100.79775,46.0552251 100.79775,45.546729 C100.79775,44.971644 101.021362,44.7153781 101.696263,44.5680756 L101.696263,44.154418 C101.104708,44.2149533 100.531449,44.2149533 99.9398935,44.2149533 C99.3300429,44.2149533 98.7425534,44.2149533 98.1225386,44.154418 L98.1225386,44.5680756 C98.6348132,44.5963254 98.760849,44.8687341 98.760849,45.546729 C98.760849,46.0552251 98.8258997,46.8542906 98.8258997,47.6937128 L98.8258997,49.632859 C98.8258997,51.5377018 99.8545144,53.0026551 101.964598,53.0026551 C102.767568,53.0026551 104.113305,52.415463 104.70486,51.9150382 C104.867487,52.2076253 105.883904,53.0026551 106.06686,53.0026551 C106.241683,53.0026551 107.845591,52.2459643 108.057006,52.122876 L107.886247,51.7273789 C107.695161,51.816164 107.571158,51.8686279 107.361776,51.8686279 Z M124.766913,52.1672685 C123.012576,52.1672685 118.713129,51.1664189 118.713129,45.2662489 C118.713129,41.7471325 120.237756,38.8232795 123.902958,38.8232795 C125.716247,38.8232795 127.781608,39.6001487 128.42805,41.5614911 L129.318432,41.5614911 L129.151739,38.7748513 C127.661671,38.4015506 126.602563,37.9394647 123.858236,37.9394647 C119.142057,37.9394647 115.785846,41.1195837 115.785846,45.4276763 C115.785846,49.1970051 118.550502,53.0450297 124.831964,53.0450297 C126.200062,53.0450297 127.253071,52.8775489 128.936259,52.5607477 L129.598963,50.2361937 L128.936259,49.963785 C128.007253,51.4388275 126.470429,52.1672685 124.766913,52.1672685 Z M133.772374,51.7455395 C132.884025,51.7455395 132.123745,51.0170986 132.123745,50.0545879 C132.123745,48.7147409 133.129998,48.2102804 134.097628,48.2102804 C134.487932,48.2102804 134.880269,48.2809048 135.114046,48.317226 L135.172998,51.3903993 C134.843678,51.6083263 134.422881,51.7455395 133.772374,51.7455395 Z M137.750633,51.5255947 C137.283081,51.5255947 137.116388,51.2451147 137.116388,50.2785684 L137.116388,49.5460918 C137.13875,48.355565 137.199735,47.2760195 137.199735,46.5193288 C137.199735,44.422791 135.59786,43.9223662 133.721553,43.9223662 C132.727497,43.9223662 131.894034,44.0494902 131.001619,44.3057562 L131.001619,46.287277 L131.509828,46.287277 C132.038365,45.5144435 132.556739,45.1714104 133.593485,45.1714104 C135.026634,45.1714104 135.114046,46.4325616 135.114046,47.5645709 C134.813186,47.5645709 134.463538,47.4979822 134.126087,47.4979822 C132.213189,47.4979822 130.076679,48.355565 130.076679,50.5792268 C130.076679,52.122876 131.485434,53.0026551 132.922649,53.0026551 C133.847589,53.0026551 134.52249,52.5022302 135.242114,51.981627 C135.496219,52.5022302 136.126398,52.8916737 136.921236,53.0026551 L138.508881,51.7455395 L138.195824,51.4388275 C138.045394,51.4771665 137.850242,51.5255947 137.750633,51.5255947 Z M156.355143,51.7455395 C155.47086,51.7455395 154.720744,51.0170986 154.720744,50.0545879 C154.720744,48.7147409 155.720899,48.2102804 156.690561,48.2102804 C157.078833,48.2102804 157.475236,48.2809048 157.698847,48.317226 L157.765931,51.3903993 C157.432546,51.6083263 157.011749,51.7455395 156.355143,51.7455395 Z M160.337468,51.5255947 C159.873981,51.5255947 159.707289,51.2451147 159.707289,50.2785684 L159.707289,49.5460918 C159.727617,48.355565 159.790635,47.2760195 159.790635,46.5193288 C159.790635,44.422791 158.190794,43.9223662 156.312454,43.9223662 C155.332627,43.9223662 154.486967,44.0494902 153.59252,44.3057562 L153.59252,46.287277 L154.100729,46.287277 C154.629266,45.5144435 155.153737,45.1714104 156.184385,45.1714104 C157.619567,45.1714104 157.698847,46.4325616 157.698847,47.5645709 C157.408152,47.5645709 157.050373,47.4979822 156.716988,47.4979822 C154.800024,47.4979822 152.671645,48.355565 152.671645,50.5792268 C152.671645,52.122876 154.076335,53.0026551 155.509484,53.0026551 C156.442555,53.0026551 157.113391,52.5022302 157.83708,51.981627 C158.083053,52.5022302 158.7112,52.8916737 159.516202,53.0026551 L161.097748,51.7455395 L160.782659,51.4388275 C160.636295,51.4771665 160.441143,51.5255947 160.337468,51.5255947 Z M142.281823,41.4545455 C142.281823,40.8249788 141.728892,40.3830714 141.112943,40.3830714 C140.503092,40.3830714 139.958292,40.8249788 139.958292,41.4545455 C139.958292,42.08613 140.503092,42.5280374 141.112943,42.5280374 C141.728892,42.5280374 142.281823,42.08613 142.281823,41.4545455 Z M142.233035,51.4105777 L142.233035,48.355565 C142.233035,46.6464528 142.149689,44.7981096 142.149689,43.9223662 L141.728892,43.9223662 C141.102779,44.3440952 139.982686,44.7375743 139.013024,44.971644 L139.013024,45.3853016 C139.521233,45.4720688 139.736713,45.6213891 139.89934,46.0431181 C140.061967,46.4769541 140.192068,47.3123407 140.192068,48.8216865 L140.192068,51.4105777 C140.192068,52.122876 139.958292,52.2257859 139.458215,52.3569456 L139.458215,52.7746389 C140.025376,52.7504248 140.592537,52.710068 141.161731,52.710068 C141.79191,52.710068 142.432253,52.7746389 143.058366,52.7746389 L143.058366,52.3569456 C142.578617,52.2257859 142.233035,52.122876 142.233035,51.4105777 Z M70.1608869,41.4363849 C70.1608869,39.9734494 71.4720657,38.8232795 72.9052147,38.8232795 C74.4826951,38.8232795 75.7857426,39.4447749 76.3590022,41.03887 L77.1579065,41.03887 L77.1579065,38.7566907 C75.8934829,38.1089635 74.4562682,37.9394647 73.0515789,37.9394647 C70.3723018,37.9394647 68.1178872,39.7171835 68.1178872,42.4997876 C68.1178872,47.9661215 75.3019277,45.8251912 75.3019277,49.5077528 C75.3019277,51.1220263 74.0375041,52.1672685 72.4559581,52.1672685 C71.0878598,52.1672685 69.6120213,51.2249363 69.2786363,49.8467502 L68.5183558,49.8467502 L68.7318035,52.084537 C69.4189019,52.5446049 71.1122539,53.0450297 72.4803521,53.0450297 C74.9685427,53.0450297 77.3469602,51.4973449 77.3469602,48.7974724 C77.3469602,43.1313721 70.1608869,45.8453696 70.1608869,41.4363849 Z M91.952883,49.8265718 C90.7331817,49.8265718 90.0359192,48.8600255 90.0359192,47.2255735 C90.0359192,45.597175 90.7331817,44.6326466 91.952883,44.6326466 C93.1949455,44.6326466 93.8983065,45.597175 93.8983065,47.2255735 C93.8983065,48.8600255 93.1949455,49.8265718 91.952883,49.8265718 Z M92.3533516,53.3961342 C94.040605,53.3961342 94.8984616,53.6725786 94.8984616,54.5281436 C94.8984616,55.9123832 92.9814978,56.2897196 91.9081606,56.2897196 C91.0401399,56.2897196 89.5480387,55.9749363 89.5480387,54.8429269 C89.5480387,53.7169711 90.5237997,53.3961342 92.3533516,53.3961342 Z M91.7028442,43.9223662 C89.6598446,43.9223662 87.9929195,45.1128929 87.9929195,47.2477698 C87.9929195,48.5694562 88.9361552,49.6530374 90.0542147,50.2361937 C89.0052716,50.8940102 87.777439,51.4973449 87.777439,52.8170136 C87.777439,53.3577952 87.925836,53.6140612 89.3386566,53.4485981 C88.728806,53.7553101 88.1148897,54.2375743 88.1148897,54.970051 C88.1148897,56.7074129 90.2656296,57 91.5747756,57 C93.5567902,57 96.4149568,56.1625956 96.4149568,53.7371495 C96.4149568,52.2742141 95.3721123,51.8565208 93.2356022,51.8565208 C91.8878323,51.8565208 91.1153548,51.9150382 90.3083191,51.9150382 C90.0542147,51.9150382 89.8224714,51.8565208 89.8224714,51.559898 C89.8224714,51.0352591 90.7331817,50.5307986 91.7821248,50.5307986 C94.0995573,50.5307986 95.9352077,49.7196262 95.9352077,47.2094308 C95.9352077,46.8078802 95.8559271,46.3538658 95.5327063,45.6597281 L96.9719538,45.6597281 L96.9719538,44.6568607 L94.6484228,44.6568607 C93.8068289,44.154418 92.7985426,43.9223662 91.7028442,43.9223662 Z" id="Fill-2" fill="#1A1919"></path>
                <path d="M12.1578237,19.5782135 C12.5265098,19.8758863 12.5021803,20.4605244 12.8353078,20.7560557 L13,22.0516822 L12.1727958,23.4351115 C11.1303687,24.0668633 9.5770214,24.3388378 8.60196845,23.3344595 C8.05548964,22.7669537 7.90389791,21.9467472 8.05548964,21.1308237 L8.43914771,19.9379907 C8.65624203,19.7709513 8.95193947,19.7238376 9.09604519,19.4304478 C9.61257996,19.0535383 10.2713489,19.1434826 10.8515148,19 C11.2969325,19.1606149 11.9575729,18.8907819 12.1578237,19.5782135" id="Fill-3" fill="#F5BC45"></path>
                <path d="M10.2133788,27.0405497 C10.5530064,27.0405497 10.8005315,27.290354 11.1209711,27.234842 C11.5680514,27.4112911 11.5104874,27.9723596 11.9825122,28.1091572 C12.3432465,28.8466749 12.5658273,29.6397046 12.7557885,30.4366995 C12.6214725,30.9026045 12.9975572,31.1761997 12.8709164,31.6004706 L12.9975572,31.677791 C13.0129076,32.1238702 12.9572624,32.6274441 12.7922457,33.0576627 C12.8709164,33.8705182 12.4679685,34.5485586 12.1321786,35.2484074 C11.888491,35.4030482 11.7772006,35.8530925 11.4337355,35.7797373 C10.8369887,35.9680819 10.7794248,36.8979092 10.0464433,36.7829199 C9.57825613,37.1496962 8.93929582,36.9375607 8.3809251,36.9514387 C8.05281035,36.7829199 7.60764882,36.8166237 7.38506805,36.531133 C6.81902213,36.2952066 6.30862141,35.8689531 5.82700268,35.4426997 C5.63512271,35.0164462 5.19955517,34.8221539 5.14390998,34.3384058 C5.31660195,33.7535463 4.95970521,33.2321293 5.11320918,32.651235 L5,31.677791 L5.35305915,30.0084634 C5.95364346,29.6833212 5.78670788,28.9259779 6.3853734,28.6860864 C6.76145814,27.7998756 7.66329401,27.6095485 8.35214311,27.155539 C8.62269387,27.0960618 8.93929582,27.2526851 9.15036379,27.0068459 C9.52261094,26.9434035 9.87758888,27.3498313 10.2133788,27.0405497" id="Fill-4" fill="#DF4E48"></path>
                <path d="M41.9116633,0.37804878 C41.7521805,3.18902439 39.4689528,5.07317073 38.2556726,7.44105691 C37.744924,8.85569106 36.5175125,9.69308943 35.6433855,10.9634146 C34.8560656,11.7804878 34.0869146,12.6788618 33.436871,13.5914634 C33.5499221,14.25 34.2443786,14.4268293 34.6420761,14.902439 C35.5303345,15.4410569 35.6252166,16.4512195 36.4004239,17.0731707 C36.8546469,17.0731707 36.8546469,17.75 37.3472266,17.6686992 C38.3909301,18.800813 39.2468882,19.9756098 40.1109213,21.2113821 C40.2522351,21.6463415 40.4682434,22.0853659 40.8396969,22.4004065 C41.538191,23.4146341 42.1095026,24.4939024 42.8180906,25.5264228 C42.9170102,26.6808943 43.8840006,27.4613821 44.1767221,28.5304878 C44.6208513,29.1036585 44.7985029,29.7825203 45.1901441,30.3597561 C45.7998124,31.7134146 46.2176976,33.1260163 46.9484919,34.4186992 C47.0898058,34.7215447 46.9121541,35.0101626 46.7546901,35.2337398 C46.4761,35.449187 46.2580729,35.054878 45.943145,35.1158537 C44.3220735,34.5203252 42.7797339,33.6565041 41.2797886,32.7479675 C39.7374491,31.4979675 38.0376456,30.6056911 36.5175125,29.2906504 C35.9260132,29.1300813 35.6898172,28.4288618 35.1346557,28.1544715 C33.6750857,27.2357724 32.5082373,25.9268293 31.024442,25.0691057 C30.352192,24.550813 29.6859982,24.0569106 29.0076918,23.5162602 C28.4969432,23.4552846 28.3192916,22.8597561 27.8226744,22.6849593 C26.7224453,22.0060976 25.7090233,21.0731707 24.5805314,20.4329268 C24.4816117,20.5934959 24.5805314,20.8333333 24.4816117,20.9918699 C23.7326484,21.7296748 23.9325065,22.8597561 23.395514,23.6808943 C23.3733075,24.8495935 22.5678187,25.7113821 22.2347218,26.7398374 C21.3020505,28.4085366 20.4925241,30.1199187 19.5255338,31.7723577 C18.2375592,33.4857724 17.5511777,35.550813 15.7322668,36.9247967 C15.3386069,37.4207317 14.8803463,37.6788618 14.3857479,38 C14.1697396,37.9410569 13.8548117,37.9776423 13.7942486,37.699187 C13.5782403,37.2865854 13.8548117,36.6463415 13.5600714,36.2703252 C13.8164551,35.6910569 13.6549535,35.0345528 13.7720421,34.3963415 L13.67716,34.1219512 C13.6973477,33.2439024 14.131383,32.5101626 13.9557501,31.6097561 C14.1919461,31.0609756 14.288847,30.4410569 14.3473913,29.8231707 C14.6280002,29.0670732 14.8641962,28.245935 14.9368719,27.4349593 C15.1972931,26.9613821 15.294194,26.3373984 15.2376684,25.7865854 C15.4355078,25.2682927 15.4758832,24.6463415 16.010857,24.2703252 C16.089589,23.9349593 16.010857,23.5934959 16.063345,23.2357724 C16.5983187,21.6097561 17.2564374,20.0345528 17.6682663,18.3658537 C17.6682663,18.2418699 17.5511777,18.2052846 17.470427,18.1829268 C16.307616,18.1321138 15.215462,18.3658537 14.131383,18.0630081 C12.3568851,18.0447154 10.5561431,17.8069106 8.85835838,17.4552846 C8.16592062,17.3089431 7.33620656,17.3943089 6.70635063,16.9918699 C6.28442791,17.0101626 5.81203596,17.0955285 5.418376,16.8760163 C4.60683086,16.4776423 3.61965282,16.5386179 2.81618276,16.0995935 C2.19642068,16.1788618 1.76238534,15.7845528 1.20520509,15.7174797 C0.672250078,15.7560976 0.381547342,15.3028455 0,15.0020325 L0,14.8231707 C0.993234349,13.4695122 2.56989294,13.0955285 3.99110632,12.5731707 C5.39011324,12.1402439 6.95869675,12.097561 8.42230428,11.804878 C9.35093802,11.6402439 10.3542662,11.898374 11.2829,11.7357724 C12.9645345,11.7804878 14.5835873,12.0609756 16.2430154,12.097561 C16.8001956,12.1727642 17.312963,12.4390244 17.8661057,12.4186992 L17.8479368,12.1727642 L16.2854095,10.0325203 C15.6918915,8.63821138 14.6057937,7.46544715 14.2282839,5.99186992 C13.8749994,5.55487805 14.2121338,4.9004065 13.9416187,4.42073171 C13.9093184,4.20121951 14.0849513,4.04268293 14.1919461,3.86585366 C14.5310993,3.72764228 14.9025528,3.96138211 15.2376684,3.74186992 C16.2430154,3.98170732 17.1756867,4.33943089 18.1810336,4.54268293 C19.2287748,4.95325203 20.2987223,5.37398374 21.2253373,6.07317073 C22.390167,6.90853659 23.7911927,7.44105691 24.7036763,8.73373984 C24.9378535,8.95934959 25.3153633,8.99796748 25.63231,8.91463415 C25.9068626,8.87398374 25.9633881,8.53861789 26.2238093,8.43902439 C27.4512209,7.66260163 28.8300401,7.22154472 30.037264,6.36788618 C30.5358999,5.87398374 31.3232198,5.81300813 31.6159414,5.13414634 C31.9974887,4.95325203 32.3285668,4.7195122 32.7242455,4.61788618 C33.4187021,4.1199187 34.1091211,3.58333333 34.8560656,3.18902439 C35.2537631,3.14634146 35.5686911,2.92682927 35.883619,2.70731707 C37.1049743,2.03658537 38.3909301,1.47357724 39.5577786,0.701219512 C39.8181998,0 40.5873508,0.160569106 41.136456,0 C41.4130273,0.0691056911 41.7925559,0.0243902439 41.9116633,0.37804878" id="Fill-5" fill="#0099CB"></path>
            </g>
        </g>
    </g>
</svg>