<?xml version="1.0" encoding="UTF-8"?>
<svg width="185px" height="45px" viewBox="0 0 185 45" version="1.1" xmlns="http://www.w3.org/2000/svg" xmlns:xlink="http://www.w3.org/1999/xlink">
    <!-- Generator: Sketch 50.2 (55047) - http://www.bohemiancoding.com/sketch -->
    <title>ayuntamiento-madrid</title>
    <desc>Created with Sketch.</desc>
    <defs></defs>
    <g id="06-Empresas" stroke="none" stroke-width="1" fill="none" fill-rule="evenodd">
        <g id="06-E-Empresas" transform="translate(-492.000000, -1940.000000)">
            <g id="ayuntamiento-madrid" transform="translate(492.000000, 1940.000000)">
                <g id="Group-10">
                    <g id="Group-8" fill="#323232">
                        <path d="M16.3247126,33.2423285 L16.3247126,28.4351685 L17.4885057,29.9098977 L17.6752874,29.9327617 C17.8132184,32.1077016 18.4885057,32.2234507 18.4885057,32.2234507 C18.3261494,32.8479242 18.5818966,33.0122593 18.5818966,33.0122593 L19.2327586,33.843938 L18.7442529,34.0740072 C18.5991379,34.1225933 18.5531609,34.2540614 18.5445402,34.3669525 L17.3031609,34.3740975 C17.3031609,34.3740975 16.4181034,34.2597774 16.3247126,33.2423285 M24.5114943,34.3283694 L22.1408046,34.3455174 C22.1106322,34.0654332 21.9295977,33.7038959 21.9295977,33.7038959 L21.4181034,32.7564681 C22.4181034,31.6218412 21.4640805,30.4186221 21.4640805,30.4186221 L20.8132184,29.3097172 L19.6982759,26.0944645 L20.091954,25.4228339 C20.4425287,24.6383123 19.6767241,24.291065 19.6767241,24.291065 L19.1882184,24.313929 L18.7183908,24.0595668 L18.466954,24.1038658 C18.2327586,24.1510229 17.7658046,23.5022563 17.7658046,23.5022563 L17.4425287,23.5022563 L17.0704023,24.2210439 C16.9525862,25.0555806 17.5344828,25.492855 17.5344828,25.492855 C17.3721264,26.1173285 17.4425287,27.1119134 17.4425287,27.1119134 C17.1393678,27.1819344 16.8606322,26.8575511 16.7686782,26.2345066 C16.7097701,25.8515343 16.4899425,25.7986613 16.3247126,25.8158093 L16.3247126,23.2864771 C19.1135057,23.0249699 21.2557471,21.5016546 21.2557471,19.6653881 C21.2557471,17.6404934 18.6609195,16 15.4655172,16 C12.2686782,16 9.67672414,17.6404934 9.67672414,19.6653881 C9.67672414,21.4873646 11.7801724,22.9992479 14.5344828,23.2807611 L14.5344828,33.2423285 C14.441092,34.2597774 13.5574713,34.3740975 13.5574713,34.3740975 L6.34913793,34.3283694 L6,34.3283694 L6.11637931,35 L24.8146552,35 L25,34.3283694 L24.5114943,34.3283694" id="Fill-7"></path>
                        <path d="M29.0752317,13.7122217 L28.1901199,13.6161366 L27.8316862,14.4284929 L27.4717895,13.6161366 L26.5852146,13.7122217 L27.1133557,12.9959506 L26.5852146,12.284047 L27.4717895,12.3772205 L27.8316862,11.5663201 L28.1901199,12.3772205 L29.0752317,12.2811353 L28.5500166,12.9959506 L29.0752317,13.7122217 Z M29.0649908,35.487155 L28.1813419,35.3925257 L27.8214452,36.2034261 L27.4630115,35.3925257 L26.5778996,35.4886108 L27.1016518,34.7723397 L26.5749737,34.0560686 L27.4630115,34.1550654 L27.8214452,33.3412533 L28.1813419,34.1550654 L29.0649908,34.0560686 L28.5397756,34.7723397 L29.0649908,35.487155 Z M26.5749737,23.044128 L27.4615485,23.1387573 L27.8214452,22.3293127 L28.1813419,23.1387573 L29.0649908,23.044128 L28.5397756,23.7589433 L29.0649908,24.4752144 L28.1813419,24.3776734 L27.8214452,25.1914855 L27.4615485,24.3776734 L26.5749737,24.4766703 L27.1016518,23.7589433 L26.5749737,23.044128 Z M16.4993286,38.7424034 C6.06232383,38.807916 7.18005185,32.5056037 7.18005185,32.5056037 L7.24442362,15.0588697 L25.7556966,15.0588697 L25.8200683,32.5056037 C25.8200683,32.5056037 26.9392594,38.807916 16.4993286,38.7424034 Z M6.40173862,24.4854053 L5.51662678,24.390776 L5.15673007,25.2016764 L4.79829634,24.390776 L3.91172151,24.4854053 L4.43986262,23.77059 L3.91172151,23.0557747 L4.79829634,23.150404 L5.15673007,22.3409594 L5.51662678,23.150404 L6.40173862,23.0557747 L5.8765235,23.77059 L6.40173862,24.4854053 Z M6.40173862,35.49589 L5.51662678,35.3998049 L5.15673007,36.2107053 L4.79829634,35.3998049 L3.91172151,35.49589 L4.43839963,34.7810747 L3.91172151,34.0677153 L4.79829634,34.1623446 L5.15673007,33.3514441 L5.51662678,34.1623446 L6.40173862,34.0662594 L5.8765235,34.7810747 L6.40173862,35.49589 Z M4.79829634,12.3684855 L5.15673007,11.557585 L5.51662678,12.3684855 L6.40173862,12.2724003 L5.8750605,12.9886714 L6.40173862,13.7034867 L5.51662678,13.6088574 L5.15673007,14.4197579 L4.79829634,13.6088574 L3.91172151,13.7034867 L4.43693663,12.9886714 L3.91025851,12.2724003 L4.79829634,12.3684855 Z M15.264561,12.2942379 L16.1496728,12.3917788 L16.5095696,11.5794226 L16.8694663,12.3917788 L17.7560411,12.2942379 L17.2279,13.010509 L17.7560411,13.7253243 L16.8694663,13.630695 L16.5095696,14.4415954 L16.1496728,13.630695 L15.264561,13.7253243 L15.7897761,13.0119648 L15.264561,12.2942379 Z M29.9501026,33.9978352 L29.855008,11 L3.14364925,11 L3.05001758,33.9978352 C3.05001758,33.9978352 1.43926033,43.0938961 16.4993286,42.9992667 C31.5593969,43.0938961 29.9501026,33.9978352 29.9501026,33.9978352 Z" id="Fill-8"></path>
                        <path d="M29.397711,10.9823333 C29.7296137,10.9823333 30,10.7606667 30,10.4911667 C30,10.2181667 29.7296137,10 29.397711,10 L3.60228898,10 C3.26895565,10 3,10.2181667 3,10.4911667 C3,10.7606667 3.26895565,10.9823333 3.60228898,10.9823333 L29.397711,10.9823333" id="Fill-9"></path>
                        <path d="M29.397711,7.98 C29.7296137,7.98 30,7.76183333 30,7.49 C30,7.21816667 29.7296137,7 29.397711,7 L3.60228898,7 C3.26895565,7 3,7.21816667 3,7.49 C3,7.76183333 3.26895565,7.98 3.60228898,7.98 L29.397711,7.98" id="Fill-10"></path>
                        <path d="M5.31779899,9.94266667 C5.6951151,9.94266667 6,9.73266667 6,9.47133333 C6,9.21 5.6951151,9 5.31779899,9 L3.68220101,9 C3.30656934,9 3,9.21 3,9.47133333 C3,9.73266667 3.30656934,9.94266667 3.68220101,9.94266667 L5.31779899,9.94266667" id="Fill-11"></path>
                        <path d="M18.4041927,9.94266667 C18.7322545,9.94266667 19,9.73266667 19,9.47133333 C19,9.21 18.7322545,9 18.4041927,9 L15.5958073,9 C15.2648032,9 15,9.21 15,9.47133333 C15,9.73266667 15.2648032,9.94266667 15.5958073,9.94266667 L18.4041927,9.94266667" id="Fill-12"></path>
                        <path d="M30.3161145,9.94266667 C30.6934307,9.94266667 31,9.73266667 31,9.47133333 C31,9.21 30.6934307,9 30.3161145,9 L28.682201,9 C28.3048849,9 28,9.21 28,9.47133333 C28,9.73266667 28.3048849,9.94266667 28.682201,9.94266667 L30.3161145,9.94266667" id="Fill-13"></path>
                        <path d="M6.4989083,10 C6.77620087,10 7,9.77595628 7,9.50054645 C7,9.22404372 6.77620087,9 6.4989083,9 C6.22270742,9 6,9.22404372 6,9.50054645 C6,9.77595628 6.22270742,10 6.4989083,10" id="Fill-14"></path>
                        <path d="M12.4994547,10 C12.7742639,10 13,9.77595628 13,9.50054645 C13,9.22404372 12.7742639,9 12.4994547,9 C12.2235551,9 12,9.22404372 12,9.50054645 C12,9.77595628 12.2235551,10 12.4994547,10" id="Fill-15"></path>
                        <path d="M19.4989083,10 C19.7751092,10 20,9.77595628 20,9.50054645 C20,9.22404372 19.7751092,9 19.4989083,9 C19.2237991,9 19,9.22404372 19,9.50054645 C19,9.77595628 19.2237991,10 19.4989083,10" id="Fill-16"></path>
                        <path d="M25.4994547,10 C25.7764449,10 26,9.77595628 26,9.50054645 C26,9.22404372 25.7764449,9 25.4994547,9 C25.2235551,9 25,9.22404372 25,9.50054645 C25,9.77595628 25.2235551,10 25.4994547,10" id="Fill-17"></path>
                        <polyline id="Fill-18" points="22.0087209 9 20 9.50105263 22.0087209 10 24 9.50105263 22.0087209 9"></polyline>
                        <polyline id="Fill-19" points="9.00799128 9 7 9.50105263 9.00799128 10 11 9.50105263 9.00799128 9"></polyline>
                        <path d="M5.58636573,5.11487563 L5.56867803,5.07988139 C5.58046983,5.09053181 5.59226163,5.09966074 5.60405343,5.11183265 L5.58636573,5.11487563 Z M28.8044219,1.19399951 C28.5405804,1.14074741 27.9067711,1.04641512 27.6001842,1.26703097 C27.6001842,1.26703097 28.2443114,1.53937743 28.264947,2.29099279 C28.264947,2.29099279 27.5854445,2.3031647 27.2626439,1.61393037 C27.2626439,1.61393037 27.0371257,1.94561488 27.1565177,2.62267731 C27.1565177,2.62267731 26.4770152,2.70940216 26.0952556,3.21301488 C26.4770152,3.7181491 27.1565177,3.80487395 27.1565177,3.80487395 C27.0371257,4.48193637 27.2626439,4.81514238 27.2626439,4.81514238 C27.2626439,4.81514238 27.7063105,4.14568739 28.6010134,3.99658151 L28.6010134,4.00266746 C28.6010134,4.00266746 28.7498848,5.23355174 27.9333026,5.56523625 C27.1373561,5.89083481 26.6258867,5.16964922 26.5138646,4.99011356 C26.6170428,4.85622257 26.6789498,4.68429436 26.6789498,4.49715126 C26.6789498,4.05591957 26.3310917,3.69836975 25.9006909,3.69836975 C25.4717642,3.69836975 25.12538,4.05591957 25.12538,4.49715126 C25.12538,4.69038031 25.1917089,4.8653515 25.300783,5.00532845 L25.2639337,5.0114144 C25.2639337,5.0114144 24.9293413,5.67174046 24.2793183,5.68999832 C23.6278213,5.70825618 22.9409489,5.16964922 23.172363,4.06961296 L23.1738369,4.02548979 L23.2003685,4.02548979 C23.2003685,4.02548979 24.3589129,4.28566434 24.5239982,4.91403913 C24.5239982,4.91403913 24.6787655,4.83948619 24.6684477,3.84291116 C24.6684477,3.84291116 25.5498848,3.70597719 25.6825426,3.27539592 L25.6928604,3.22670828 C25.597052,2.85546506 24.6198065,2.63484922 24.6198065,2.63484922 C24.7156149,2.17840264 24.5239982,1.63827419 24.5239982,1.63827419 C24.120129,2.33968043 23.4877936,2.33968043 23.4877936,2.33968043 C23.5364348,1.61393037 24.1658222,1.26703097 24.1658222,1.26703097 C24.0479042,1.08445234 23.1532013,1.13313997 23.1532013,1.13313997 C23.0706587,0.381524604 22.5916168,0.0361466929 22.5916168,0.0361466929 C22.5916168,0.0361466929 22.1155228,0.381524604 22.0315062,1.13313997 C22.0315062,1.13313997 21.1368033,1.08445234 21.0174113,1.26703097 C21.0174113,1.26703097 21.6526946,1.61393037 21.6969139,2.33968043 C21.6969139,2.33968043 21.0645785,2.33968043 20.6592354,1.63827419 C20.6592354,1.63827419 20.4690926,2.17840264 20.561953,2.63484922 C20.561953,2.63484922 19.5876555,2.85546506 19.4903731,3.22670828 L19.4844772,3.25865954 C19.615661,3.68924081 20.4985721,3.8246533 20.4985721,3.8246533 C20.4882543,4.82122833 20.6415477,4.89425978 20.6415477,4.89425978 C20.8095808,4.26740648 21.9666513,4.00875342 21.9666513,4.00875342 L22.0138185,4.01027491 L22.0138185,4.02244682 C22.0860433,4.66299352 21.9607554,5.51654862 21.0645785,5.6519611 C20.3909719,5.75390084 20.0460617,5.25789556 19.9163519,5.00837143 C20.0180562,4.87143745 20.0829111,4.69950924 20.0829111,4.51388763 C20.0829111,4.07265594 19.735053,3.71206314 19.3061262,3.71206314 C18.8771994,3.71206314 18.5293413,4.07265594 18.5293413,4.51388763 C18.5293413,4.70711668 18.5956702,4.88360936 18.7047444,5.02054334 C18.664947,5.09661777 18.3318287,5.67174046 17.7260249,5.68999832 C17.0745279,5.70825618 16.3847075,5.16964922 16.6161216,4.06961296 L16.6190696,4.02701128 C16.6750806,4.03918319 17.777614,4.30087923 17.9412252,4.91403913 C17.9412252,4.91403913 18.0959926,4.83948619 18.0827269,3.84291116 C18.0827269,3.84291116 18.9671119,3.70597719 19.0953478,3.27539592 L19.1086135,3.22670828 C19.0142791,2.85546506 18.0370336,2.63484922 18.0370336,2.63484922 C18.1298941,2.17840264 17.9412252,1.63827419 17.9412252,1.63827419 C17.5358821,2.33968043 16.9020728,2.33968043 16.9020728,2.33968043 C16.950714,1.61393037 17.5815753,1.26703097 17.5815753,1.26703097 C17.4621833,1.08445234 16.5689544,1.13313997 16.5689544,1.13313997 C16.4834638,0.381524604 16.0088439,0.0361466929 16.0088439,0.0361466929 C16.0088439,0.0361466929 15.5312759,0.381524604 15.4472593,1.13313997 C15.4472593,1.13313997 14.5525564,1.08445234 14.4331644,1.26703097 C14.4331644,1.26703097 15.0640258,1.61393037 15.112667,2.33968043 C15.112667,2.33968043 14.4803316,2.33968043 14.0749885,1.63827419 C14.0749885,1.63827419 13.8848457,2.17840264 13.9791801,2.63484922 C13.9791801,2.63484922 13.0004606,2.85546506 12.9061262,3.22670828 L12.8987563,3.25865954 C13.0314141,3.68924081 13.9143252,3.8246533 13.9143252,3.8246533 C13.9010594,4.82122833 14.0573008,4.89425978 14.0573008,4.89425978 C14.22386,4.26740648 15.3809304,4.00875342 15.3809304,4.00875342 L15.4590511,4.01027491 L15.4590511,4.02244682 C15.5312759,4.66299352 15.405988,5.51654862 14.5098111,5.6519611 C13.8037771,5.75694382 13.4573929,5.20920792 13.3438968,4.97489868 C13.4367573,4.84252917 13.4912943,4.68125138 13.4912943,4.50628019 C13.4912943,4.06352701 13.1419622,3.70597719 12.7159834,3.70597719 C12.2855827,3.70597719 11.9377246,4.06352701 11.9377246,4.50628019 C11.9377246,4.69646626 12.0040534,4.87143745 12.1116536,5.00837143 L12.0939659,5.0114144 C12.0939659,5.0114144 11.7608475,5.67174046 11.1108245,5.68999832 C10.4608015,5.70825618 9.76950714,5.16964922 10.0023952,4.06961296 L10.0038692,4.02548979 L10.0259788,4.02548979 C10.0259788,4.02548979 11.1815753,4.28566434 11.3496085,4.91403913 C11.3496085,4.91403913 11.5058498,4.83948619 11.4911101,3.84291116 C11.4911101,3.84291116 12.3740212,3.70597719 12.5066789,3.27539592 L12.5184708,3.22670828 C12.4226624,2.85546506 11.4439429,2.63484922 11.4439429,2.63484922 C11.5412252,2.17840264 11.3496085,1.63827419 11.3496085,1.63827419 C10.9442653,2.33968043 10.310456,2.33968043 10.310456,2.33968043 C10.3605712,1.61393037 10.9914325,1.26703097 10.9914325,1.26703097 C10.8720405,1.08445234 9.97733763,1.13313997 9.97733763,1.13313997 C9.89479503,0.381524604 9.41722708,0.0361466929 9.41722708,0.0361466929 C9.41722708,0.0361466929 8.93965914,0.381524604 8.85564256,1.13313997 C8.85564256,1.13313997 7.96093966,1.08445234 7.84154767,1.26703097 C7.84154767,1.26703097 8.473883,1.61393037 8.52252418,2.33968043 C8.52252418,2.33968043 7.88871488,2.33968043 7.48484569,1.63827419 C7.48484569,1.63827419 7.29322893,2.17840264 7.38903731,2.63484922 C7.38903731,2.63484922 6.41031783,2.85546506 6.31598342,3.22670828 L6.31008752,3.25865954 C6.43979733,3.68924081 7.32270843,3.8246533 7.32270843,3.8246533 C7.31091663,4.82122833 7.46568402,4.89425978 7.46568402,4.89425978 C7.63224321,4.26740648 8.79078766,4.00875342 8.79078766,4.00875342 L8.84385076,4.01027491 L8.84385076,4.02244682 C8.91607554,4.66299352 8.79078766,5.51654862 7.89461078,5.6519611 C7.19889452,5.75694382 6.85251036,5.22442281 6.73311838,4.98402761 C6.83040074,4.8516581 6.88935974,4.68581584 6.88935974,4.50780168 C6.88935974,4.0650485 6.54150161,3.70597719 6.11110088,3.70597719 C5.68512206,3.70597719 5.33578996,4.0650485 5.33578996,4.50780168 C5.33578996,4.68581584 5.39327499,4.8516581 5.48908337,4.98402761 C5.38590511,5.15291284 4.87296177,5.89387779 4.06669737,5.56523625 C3.25011515,5.23355174 3.39751267,4.00266746 3.39751267,4.00266746 L3.40046062,3.99658151 C4.29074159,4.14568739 4.73588208,4.81514238 4.73588208,4.81514238 C4.73588208,4.81514238 4.9599263,4.48193637 4.84200829,3.80487395 C4.84200829,3.80487395 5.52151082,3.7181491 5.90474436,3.21301488 C5.52151082,2.70940216 4.84200829,2.62267731 4.84200829,2.62267731 C4.9599263,1.94561488 4.73588208,1.61393037 4.73588208,1.61393037 C4.41160755,2.3031647 3.73210502,2.29099279 3.73210502,2.29099279 C3.7571626,1.53937743 4.40128973,1.26703097 4.40128973,1.26703097 C4.09322893,1.04641512 3.45794565,1.14074741 3.1941041,1.19399951 C1.93090742,-0.934563032 0,0.431733728 0,0.431733728 C0,0.431733728 2.46890834,-0.024712851 2.08714878,4.48193637 C2.08714878,4.48193637 2.073883,6.14492341 3.39751267,6.69874526 C4.58406264,7.19627203 5.84578535,6.50551621 6.09488715,6.35793181 C6.35135882,6.53898896 7.04560111,6.98174214 7.75163519,6.98174214 C8.64191617,6.98174214 9.42901889,6.31076567 9.42901889,6.31076567 C9.42901889,6.31076567 10.071672,7 11.0680792,7 C11.9421465,7 12.564164,6.4796509 12.7012437,6.35336735 C12.9532934,6.52833854 13.6519576,6.98174214 14.3668356,6.98174214 C15.2556426,6.98174214 16.0412713,6.31076567 16.0412713,6.31076567 C16.0412713,6.31076567 16.6868724,7 17.6832796,7 C18.5146016,7 19.1130355,6.53138151 19.2928604,6.37618968 C19.5655458,6.56789724 20.2391525,6.98174214 20.9245509,6.98174214 C21.8118839,6.98174214 22.5975127,6.31076567 22.5975127,6.31076567 C22.5975127,6.31076567 23.2416398,7 24.238047,7 C25.1312759,7 25.7621373,6.45530708 25.8815292,6.34271693 C26.0672501,6.45835006 27.37614,7.21148691 28.6010134,6.69874526 C29.924643,6.14492341 29.9113772,4.48193637 29.9113772,4.48193637 C29.5310917,-0.024712851 32,0.431733728 32,0.431733728 C32,0.431733728 30.0690926,-0.934563032 28.8044219,1.19399951 Z" id="Fill-20"></path>
                    </g>
                    <path d="M42.5,0.5 L42.5,43.7190303" id="Line-3" stroke="#979797" stroke-linecap="square"></path>
                </g>
                <text id="MADRID" font-family="GillSans-SemiBold, Gill Sans" font-size="32" font-weight="500" letter-spacing="0.800000012" fill="#323232">
                    <tspan x="53" y="32">MADRI</tspan>
                    <tspan x="161.546875" y="32">D</tspan>
                </text>
            </g>
        </g>
    </g>
</svg>