<?xml version="1.0" encoding="UTF-8"?>
<svg width="123px" height="38px" viewBox="0 0 123 38" version="1.1" xmlns="http://www.w3.org/2000/svg" xmlns:xlink="http://www.w3.org/1999/xlink">
    <!-- Generator: Sketch 50.2 (55047) - http://www.bohemiancoding.com/sketch -->
    <title>bbva</title>
    <desc>Created with Sketch.</desc>
    <defs></defs>
    <g id="06-Empresas" stroke="none" stroke-width="1" fill="none" fill-rule="evenodd">
        <g id="06-E-Empresas" transform="translate(-303.000000, -1943.000000)" fill="#243B66">
            <g id="bbva" transform="translate(303.000000, 1943.000000)">
                <path d="M47.0459706,16.7186754 L50.2105915,11.9890122 C51.0100141,10.8040768 51.1811135,10.0597128 51.1811135,9.22752245 C51.1811135,6.90660402 49.1408605,4.95570795 46.7943538,4.95570795 L41.9273653,4.95570795 L41.9273653,32.8959952 L44.6218221,32.8959952 C49.1351092,32.8959952 52.558536,30.4584549 52.558536,24.7468647 C52.558536,20.0330391 50.3486213,17.5206305 47.0459706,16.7186754 M48.9410048,38 L33,38 L33,0 L49.5204424,0 C57.2659275,0 59.9632599,6.31629599 56.0423508,12.1459478 L54.1890131,14.9002387 C67.1810686,21.6556663 62.9582192,38 48.9410048,38" id="Fill-1"></path>
                <path d="M14.0455338,16.7186754 L17.2100563,11.9890122 C18.0108918,10.8040768 18.1805482,10.0597128 18.1805482,9.22752245 C18.1805482,6.90660402 16.1417963,4.95570795 13.7953626,4.95570795 L8.92708766,4.95570795 L8.92708766,32.8959952 L11.6228985,32.8959952 C16.1346075,32.8959952 19.55649,30.4584549 19.55649,24.7468647 C19.55649,20.0330391 17.3480818,17.5206305 14.0455338,16.7186754 M15.9405091,38 L0,38 L0,0 L16.5213665,0 C24.2651729,0 26.9667348,6.31629599 23.043072,12.1459478 L21.1897919,14.9002387 C34.1814434,21.6556663 29.9572876,38 15.9405091,38" id="Fill-2"></path>
                <path d="M86.0259486,0 L92,0 L80.4621202,38 L71.3769722,37.9971194 L59,0.0072016071 L65.685487,0 C68.2701786,0 68.94719,0.671189781 70.2997783,4.97487018 L77.4657713,28.8654816 L86.0259486,0" id="Fill-3"></path>
                <path d="M98.0795511,24.2314457 L103.262498,6.89796073 L108.520268,24.2314457 L98.0795511,24.2314457 Z M111.480102,3.87605185 C110.409554,0.705784247 109.688661,0.00576150406 106.882791,0.00576150406 L99.6249383,0 L88,38 L93.9239845,38 L96.4147344,29.7970586 L110.23113,29.7970586 L112.73483,37.9971192 L123,37.9971192 L111.480102,3.87605185 L111.480102,3.87605185 Z" id="Fill-4"></path>
            </g>
        </g>
    </g>
</svg>