<?xml version="1.0" encoding="UTF-8"?>
<svg width="137px" height="44px" viewBox="0 0 137 44" version="1.1" xmlns="http://www.w3.org/2000/svg" xmlns:xlink="http://www.w3.org/1999/xlink">
    <!-- Generator: Sketch 51.3 (57544) - http://www.bohemiancoding.com/sketch -->
    <title>Group 3</title>
    <desc>Created with Sketch.</desc>
    <defs></defs>
    <g id="00-Home" stroke="none" stroke-width="1" fill="none" fill-rule="evenodd">
        <g id="00-E-Home-1920" transform="translate(-1182.000000, -4171.000000)">
            <g id="Group-28" transform="translate(-1703.000000, -249.000000)">
                <g id="Módulo-5" transform="translate(2031.000000, 4101.000000)">
                    <g id="Group-10" transform="translate(0.000000, 155.000000)">
                        <g id="Group-8">
                            <g id="Group-3" transform="translate(854.000000, 164.000000)">
                                <g id="Group-2" transform="translate(0.000000, 9.000000)" fill="#404644">
                                    <path d="M3.03121058,25.4698925 C3.03121058,30.0166555 5.63615718,32.1221143 9.28308241,32.1221143 C13.6404476,32.1221143 15.9612182,29.3458506 15.9612182,23.3644337 C15.9612182,17.4787194 13.593085,14.6554906 9.28308241,14.6554906 C4.83099187,14.6554906 3.03121058,18.8664081 3.03121058,18.8664081 L3.03121058,25.4698925 Z M18.9924288,23.3644337 C18.9924288,31.2120527 15.3928662,34.8974917 9.28308241,34.8974917 C3.88373856,34.8974917 0,31.7871549 0,25.4698925 L0,1.73562997 C0,0.874305932 0.663077315,0.204387233 1.51560529,0.204387233 C2.36813327,0.204387233 3.03121058,0.874305932 3.03121058,1.73562997 L3.03121058,14.99045 C4.12055189,13.4592072 6.44132249,11.8801131 9.47253307,11.8801131 C15.5823169,11.8801131 18.9924288,15.5177008 18.9924288,23.3644337 Z" id="Fill-1"></path>
                                    <path d="M38.298416,23.3645223 C38.298416,17.335254 35.7881947,14.6555792 31.4299524,14.6555792 C27.0734643,14.6555792 24.562366,17.335254 24.562366,23.3645223 C24.562366,29.4894933 27.0734643,32.1222029 31.4299524,32.1222029 C35.7881947,32.1222029 38.298416,29.4894933 38.298416,23.3645223 M41.3769893,23.3645223 C41.3769893,31.2121414 37.587976,34.8975803 31.4299524,34.8975803 C25.3210457,34.8975803 21.4846698,31.2121414 21.4846698,23.3645223 C21.4846698,15.5177894 25.3210457,11.8802017 31.4299524,11.8802017 C37.587976,11.8802017 41.3769893,15.5177894 41.3769893,23.3645223" id="Fill-4"></path>
                                    <path d="M48.9544895,15.8037454 C49.9017428,13.6034701 52.269876,11.9765247 55.5378999,11.9765247 C56.3430653,11.9765247 57.0061426,12.6464434 57.0061426,13.45903 C57.0061426,14.2725027 56.3430653,14.9424214 55.5378999,14.9424214 C51.1805347,14.9424214 48.9544895,18.0049069 48.9544895,22.4072298 L48.9544895,33.1268151 C48.9544895,33.9881391 48.2914121,34.6571717 47.4388842,34.6571717 C46.5863562,34.6571717 45.9232789,33.9881391 45.9232789,33.1268151 L45.9232789,13.6982867 C45.9232789,12.8369626 46.5863562,12.1670439 47.4388842,12.1670439 C48.2914121,12.1670439 48.9544895,12.8369626 48.9544895,13.6982867 L48.9544895,15.8037454 Z" id="Fill-7"></path>
                                    <path d="M68.2478466,14.655402 C64.1272947,14.655402 61.8538868,17.3350768 61.5697108,21.5938457 L74.3102678,21.5938457 C74.3102678,18.1485495 73.1262011,14.655402 68.2478466,14.655402 M68.2478466,11.8800245 C75.8258731,11.8800245 77.2941157,17.9580303 77.2941157,21.211035 C77.2941157,22.5996098 77.2941157,24.2735205 75.3996091,24.2735205 L61.5697108,24.2735205 C61.5697108,29.0108027 64.2693827,32.0732882 68.7214733,32.0732882 C71.4685079,32.0732882 73.0788385,31.0214449 74.4049931,30.0165669 C74.6891691,29.8242754 74.8786198,29.7294589 75.2575211,29.7294589 C76.0153237,29.7294589 76.6310384,30.3515262 76.6310384,31.1162615 C76.6310384,31.6435123 76.3942251,31.9297342 76.1100491,32.2168422 C75.3996091,32.9354983 72.9367505,34.8974031 68.7214733,34.8974031 C62.4222388,34.8974031 58.4911375,31.4033695 58.4911375,23.3643451 C58.4911375,15.9961255 62.0907001,11.8800245 68.2478466,11.8800245" id="Fill-9"></path>
                                    <path d="M96.3578516,25.9969661 L96.3578516,23.9863238 L89.6805929,23.9863238 C86.6011426,23.9863238 84.4698226,25.2783099 84.4698226,28.0536874 C84.4698226,30.5428429 86.1748786,32.121937 89.8691665,32.121937 C93.1854301,32.121937 96.3578516,30.0643296 96.3578516,25.9969661 M85.2749879,17.1914342 C84.8013613,17.7177989 84.4698226,17.8613529 84.0435586,17.8613529 C83.285756,17.8613529 82.6700413,17.2392855 82.6700413,16.4745503 C82.6700413,16.1387048 82.7647667,15.8994481 82.9068547,15.6610776 C84.2330093,13.5547327 86.7905932,11.8799359 90.7699342,11.8799359 C96.2640034,11.8799359 99.295214,15.1338267 99.295214,20.0155491 L99.295214,33.1746664 C99.295214,33.9881391 98.6312596,34.6571717 97.8260943,34.6571717 C97.0209289,34.6571717 96.3578516,33.9881391 96.3578516,33.1746664 L96.3578516,31.4511322 C95.173785,33.700145 92.4276275,34.8973145 89.5849905,34.8973145 C84.564548,34.8973145 81.3912494,32.4568964 81.3912494,28.0536874 C81.3912494,23.8427698 84.564548,21.3075352 89.6805929,21.3075352 L96.3578516,21.3075352 L96.3578516,20.0155491 C96.3578516,16.7607721 94.2265317,14.7519022 90.7699342,14.7519022 C88.2588359,14.7519022 86.7432306,15.5175236 85.2749879,17.1914342" id="Fill-12"></path>
                                    <path d="M136.979231,20.3504198 L136.979231,33.1267265 C136.979231,33.9880505 136.316154,34.6579692 135.462749,34.6579692 C134.611098,34.6579692 133.94802,33.9880505 133.94802,33.1267265 L133.94802,20.9716011 C133.94802,17.1922317 132.620989,14.6082596 128.027687,14.6082596 C123.954498,14.6082596 122.107354,16.809421 122.107354,20.3504198 L122.107354,33.1267265 C122.107354,33.9880505 121.4434,34.6579692 120.591749,34.6579692 C119.739221,34.6579692 119.076143,33.9880505 119.076143,33.1267265 L119.076143,20.9716011 C119.076143,17.1922317 117.892077,14.6082596 113.249659,14.6082596 C108.845808,14.6082596 107.424928,17.2879344 107.424928,21.3074466 L107.424928,33.1267265 C107.424928,33.9880505 106.760973,34.6579692 105.909322,34.6579692 C105.056794,34.6579692 104.393717,33.9880505 104.393717,33.1267265 L104.393717,13.698198 C104.393717,12.836874 105.056794,12.1678414 105.909322,12.1678414 C106.760973,12.1678414 107.424928,12.836874 107.424928,13.698198 L107.424928,15.2303269 C108.230093,13.4598275 110.502624,11.8798473 113.582074,11.8798473 C117.465813,11.8798473 119.975157,13.3162735 121.112738,15.2303269 C122.296805,13.3632387 124.380762,11.8798473 128.027687,11.8798473 C135.320661,11.8798473 136.979231,16.2821702 136.979231,20.3504198" id="Fill-15"></path>
                                </g>
                                <path d="M30,10.2773774 C55.8215933,15.3758533 99.6532055,16.5691136 126.55974,5.17890147 C134.570075,1.78830652 133.095424,-1.98326392 126.290674,1.20512766 C106.596827,10.4301147 77.3034231,15.0504187 30,10.2773774" id="Fill-18-Copy" fill="#5DB250"></path>
                            </g>
                        </g>
                    </g>
                </g>
            </g>
        </g>
    </g>
</svg>