<?xml version="1.0" encoding="UTF-8"?>
<svg width="155px" height="56px" viewBox="0 0 155 56" version="1.1" xmlns="http://www.w3.org/2000/svg" xmlns:xlink="http://www.w3.org/1999/xlink">
    <!-- Generator: Sketch 51.3 (57544) - http://www.bohemiancoding.com/sketch -->
    <title>Group 18</title>
    <desc>Created with Sketch.</desc>
    <defs>
        <linearGradient x1="23.4542288%" y1="95.1043019%" x2="48.2048307%" y2="18.3509185%" id="linearGradient-1">
            <stop stop-color="#FFFFFF" offset="0%"></stop>
            <stop stop-color="#5DB250" offset="100%"></stop>
        </linearGradient>
        <linearGradient x1="45.6594002%" y1="96.8755714%" x2="62.2820875%" y2="0%" id="linearGradient-2">
            <stop stop-color="#FFFFFF" offset="0%"></stop>
            <stop stop-color="#8C40A3" offset="100%"></stop>
        </linearGradient>
        <linearGradient x1="11.3746151%" y1="70.2945735%" x2="129.120657%" y2="-35.1285884%" id="linearGradient-3">
            <stop stop-color="#FFFFFF" offset="0%"></stop>
            <stop stop-color="#05FFBA" offset="100%"></stop>
        </linearGradient>
        <radialGradient cx="40.7120854%" cy="52.3425035%" fx="40.7120854%" fy="52.3425035%" r="38.7697337%" gradientTransform="translate(0.407121,0.523425),scale(1.000000,0.997579),rotate(-90.000000),translate(-0.407121,-0.523425)" id="radialGradient-4">
            <stop stop-color="#131313" offset="0%"></stop>
            <stop stop-color="#000000" offset="55.9790462%"></stop>
            <stop stop-color="#FFFFFF" offset="100%"></stop>
        </radialGradient>
    </defs>
    <g id="00-Home" stroke="none" stroke-width="1" fill="none" fill-rule="evenodd">
        <g id="00-E-Home-1280-Scroll-1" transform="translate(-32.000000, -21.000000)">
            <g id="Group-25" transform="translate(0.000000, -1.000000)">
                <g id="Group-24">
                    <g id="Group-3" transform="translate(28.000000, 21.000000)">
                        <g id="Group-18">
                            <g id="Group">
                                <ellipse id="Combined-Shape-Copy" fill="url(#linearGradient-1)" transform="translate(28.220727, 29.026556) rotate(-89.000000) translate(-28.220727, -29.026556) " cx="28.2207268" cy="29.026556" rx="30.879705" ry="18.2314786"></ellipse>
                                <ellipse id="Combined-Shape-Copy-2" fill="url(#linearGradient-2)" style="mix-blend-mode: multiply;" transform="translate(31.486957, 32.202016) rotate(-50.000000) translate(-31.486957, -32.202016) " cx="31.4869571" cy="32.202016" rx="24.8887651" ry="18.2314786"></ellipse>
                                <ellipse id="Combined-Shape-Copy-2" fill="url(#linearGradient-3)" style="mix-blend-mode: multiply;" transform="translate(27.994552, 36.033390) rotate(183.000000) translate(-27.994552, -36.033390) " cx="27.9945519" cy="36.0333896" rx="24.8887651" ry="18.2314786"></ellipse>
                                <ellipse id="Oval-9" fill="url(#radialGradient-4)" opacity="0.343973214" style="mix-blend-mode: multiply;" cx="33.7548638" cy="33.9034401" rx="23.0233463" ry="23.0792109"></ellipse>
                                <ellipse id="Oval-9" fill="#FFFFFF" cx="31.5" cy="31.405175" rx="19.8190661" ry="19.8671557"></ellipse>
                            </g>
                            <path d="M27,32.6024096 C27,29.0098576 28.6595791,27.3450164 31.4399129,27.3450164 C33.3581277,27.3450164 34.4142235,28.3745893 34.7590711,28.856517 C34.866836,29.0098576 34.9099419,29.1193866 34.9099419,29.2727273 C34.9099419,29.645126 34.6297533,29.9079956 34.2849057,29.9079956 C34.0693759,29.9079956 33.9185051,29.8203724 33.7676343,29.645126 C33.4443396,29.2727273 32.8624093,28.6155531 31.4399129,28.6155531 C29.4570392,28.6155531 28.4009434,29.9079956 28.4009434,32.6024096 C28.4009434,35.3406353 29.4570392,36.611172 31.4399129,36.611172 C32.6899855,36.611172 33.4443396,36.041621 33.9400581,35.6692223 C34.0909289,35.5596933 34.1986938,35.5158817 34.3495646,35.5158817 C34.6944122,35.5158817 34.9746009,35.8006572 34.9746009,36.1511501 C34.9746009,36.3483023 34.9099419,36.5016429 34.6944122,36.6987952 C34.2202467,37.0930997 33.1857039,37.8817087 31.4399129,37.8817087 C28.6595791,37.8817087 27,36.1949617 27,32.6024096 Z M40.7507983,28.6593647 C39.6084906,28.6593647 38.9187954,29.0098576 38.2506531,29.7765608 C38.0351234,30.0175246 37.8842525,30.0832421 37.6902758,30.0832421 C37.3454282,30.0832421 37.0652395,29.7984666 37.0652395,29.4479737 C37.0652395,29.2946331 37.1083454,29.1851041 37.1730044,29.075575 C37.7764877,28.1117196 38.9403483,27.3450164 40.7507983,27.3450164 C43.2509434,27.3450164 44.6303338,28.8346112 44.6303338,31.0690033 L44.6303338,37.0930997 C44.6303338,37.4654984 44.3285922,37.7721796 43.9621916,37.7721796 C43.595791,37.7721796 43.2940493,37.4654984 43.2940493,37.0930997 L43.2940493,36.3044907 C42.755225,37.3340635 41.5051524,37.8817087 40.2119739,37.8817087 C37.9273585,37.8817087 36.4833091,36.7645126 36.4833091,34.7491785 C36.4833091,32.8214677 37.9273585,31.66046 40.2550798,31.66046 L43.2940493,31.66046 L43.2940493,31.0690033 C43.2940493,29.5794085 42.3241655,28.6593647 40.7507983,28.6593647 Z M40.3412917,36.611172 C41.85,36.611172 43.2940493,35.6692223 43.2940493,33.8072289 L43.2940493,32.8871851 L40.2550798,32.8871851 C38.8541364,32.8871851 37.8842525,33.4786418 37.8842525,34.7491785 C37.8842525,35.8882804 38.6601597,36.611172 40.3412917,36.611172 Z M57.9716255,27.3450164 C61.2907837,27.3450164 62.0451379,29.3603505 62.0451379,31.2223439 L62.0451379,37.0711939 C62.0451379,37.4654984 61.7433962,37.7721796 61.3554427,37.7721796 C60.9674891,37.7721796 60.6657475,37.4654984 60.6657475,37.0711939 L60.6657475,31.5071194 C60.6657475,29.7765608 60.0622642,28.5936473 57.9716255,28.5936473 C56.1180697,28.5936473 55.2775036,29.6013143 55.2775036,31.2223439 L55.2775036,37.0711939 C55.2775036,37.4654984 54.975762,37.7721796 54.5878084,37.7721796 C54.1998549,37.7721796 53.8981132,37.4654984 53.8981132,37.0711939 L53.8981132,31.5071194 C53.8981132,29.7765608 53.3592888,28.5936473 51.2470972,28.5936473 C49.2426705,28.5936473 48.5960813,29.8203724 48.5960813,31.66046 L48.5960813,37.0711939 C48.5960813,37.4654984 48.2943396,37.7721796 47.9063861,37.7721796 C47.5184325,37.7721796 47.2166909,37.4654984 47.2166909,37.0711939 L47.2166909,28.177437 C47.2166909,27.7831325 47.5184325,27.4764513 47.9063861,27.4764513 C48.2943396,27.4764513 48.5960813,27.7831325 48.5960813,28.177437 L48.5960813,28.8784228 C48.9624819,28.067908 49.9970247,27.3450164 51.3979681,27.3450164 C53.165312,27.3450164 54.3076197,28.0021906 54.8248911,28.8784228 C55.3637155,28.0240964 56.3120464,27.3450164 57.9716255,27.3450164 Z M65.3211901,27.4764513 C65.6875907,27.4764513 66.0108853,27.7831325 66.0108853,28.177437 L66.0108853,28.8784228 C66.4203919,28.1336254 67.4980406,27.3450164 68.94209,27.3450164 C71.7439768,27.3450164 73.4466618,29.0098576 73.4466618,32.6024096 C73.4466618,36.1949617 71.7439768,37.8817087 68.94209,37.8817087 C67.4980406,37.8817087 66.4634978,37.0930997 66.0108853,36.3483023 L66.0108853,41.2990142 C66.0108853,41.6714129 65.6875907,42 65.3211901,42 C64.9547896,42 64.6314949,41.6714129 64.6314949,41.2990142 L64.6314949,28.177437 C64.6314949,27.7831325 64.9547896,27.4764513 65.3211901,27.4764513 Z M65.9677794,32.6024096 C65.9677794,35.4282585 67.2609579,36.611172 68.94209,36.611172 C70.9249637,36.611172 72.0457184,35.3406353 72.0457184,32.6024096 C72.0457184,29.864184 70.8818578,28.6155531 68.898984,28.6155531 C67.3040639,28.6155531 65.9677794,29.754655 65.9677794,32.6024096 Z M76.0761248,27.4764513 C76.4425254,27.4764513 76.76582,27.7831325 76.76582,28.177437 L76.76582,33.8948521 C76.76582,35.3187295 77.2184325,36.5454545 79.395283,36.5454545 C81.5721335,36.5454545 82.024746,35.3187295 82.024746,33.8948521 L82.024746,28.177437 C82.024746,27.7831325 82.3480406,27.4764513 82.7359942,27.4764513 C83.1023948,27.4764513 83.4041364,27.7831325 83.4041364,28.177437 L83.4041364,33.8948521 C83.4041364,35.9759036 82.7359942,37.8817087 79.395283,37.8817087 C76.0761248,37.8817087 75.3864296,35.9759036 75.3864296,33.8948521 L75.3864296,28.177437 C75.3864296,27.7831325 75.6881713,27.4764513 76.0761248,27.4764513 Z M89.051016,28.7031763 C88.0811321,28.7031763 87.1328012,29.0098576 87.1328012,30.0175246 C87.1328012,32.3176342 92.8012337,31.4633078 92.8012337,34.9682366 C92.8012337,36.9616648 91.1847605,37.8598028 89.1372279,37.8598028 C87.3698839,37.8598028 86.0120464,37.0054765 85.4516691,36.2825849 C85.3439042,36.1292442 85.3007983,36.0197152 85.3007983,35.8663746 C85.3007983,35.5158817 85.5809869,35.2311062 85.9258345,35.2311062 C86.0551524,35.2311062 86.2275762,35.2749179 86.4,35.4501643 C87.0681422,36.1292442 87.9302612,36.5235487 89.1372279,36.5235487 C90.3657475,36.5235487 91.4218433,36.1073384 91.4218433,34.9682366 C91.4218433,32.7119387 85.7534107,33.6100767 85.7534107,30.0175246 C85.7534107,28.1993428 87.2190131,27.3669222 89.051016,27.3669222 C90.5166183,27.3669222 91.658926,27.8707558 92.3270682,28.7688938 C92.3917271,28.856517 92.477939,28.9879518 92.477939,29.1851041 C92.477939,29.5355969 92.1977504,29.8203724 91.8529028,29.8203724 C91.7451379,29.8203724 91.5727141,29.7984666 91.4002903,29.6232202 C90.8183599,29.0536692 90.1717707,28.7031763 89.051016,28.7031763 Z M97.1333817,30.4775465 L97.1333817,33.5005476 C97.1333817,35.0120482 98.0170537,35.8663746 99.2671263,35.8663746 C100.754282,35.8663746 101.573295,34.7710843 101.573295,32.6243154 C101.573295,30.4556407 100.732729,29.3603505 99.2671263,29.3603505 C97.9739478,29.3603505 97.1333817,30.4775465 97.1333817,30.4775465 Z M99.504209,27.3450164 C102.219884,27.3450164 103.879463,29.0536692 103.879463,32.6243154 C103.879463,36.1949617 102.176778,37.8817087 99.2671263,37.8817087 C96.6592163,37.8817087 94.8056604,36.4140197 94.8056604,33.5005476 L94.8056604,23.1829135 C94.8056604,22.5257393 95.3229318,22 95.969521,22 C96.6161103,22 97.1333817,22.5257393 97.1333817,23.1829135 L97.1333817,28.2212486 C97.5644412,27.7831325 98.4696662,27.3450164 99.504209,27.3450164 Z M114.902612,32.6243154 C114.902612,36.1949617 113.092163,37.8817087 110.182511,37.8817087 C107.272859,37.8817087 105.462409,36.1949617 105.462409,32.6243154 C105.462409,29.0317634 107.272859,27.3450164 110.182511,27.3450164 C113.092163,27.3450164 114.902612,29.0317634 114.902612,32.6243154 Z M112.553338,32.6243154 C112.553338,30.4556407 111.734325,29.3603505 110.182511,29.3603505 C108.630697,29.3603505 107.811684,30.4556407 107.811684,32.6243154 C107.811684,34.7710843 108.630697,35.8663746 110.182511,35.8663746 C111.734325,35.8663746 112.553338,34.7710843 112.553338,32.6243154 Z M118.933019,28.6593647 L118.933019,28.7688938 C119.342525,27.9145674 120.355515,27.3669222 121.26074,27.3669222 C121.864224,27.3669222 122.359942,27.8707558 122.359942,28.4841183 C122.359942,29.0974808 121.864224,29.6013143 121.26074,29.6013143 C119.773585,29.6013143 118.933019,30.5651698 118.933019,32.0328587 L118.933019,36.5892662 C118.933019,37.2464403 118.415747,37.7721796 117.769158,37.7721796 C117.122569,37.7721796 116.605298,37.2464403 116.605298,36.5892662 L116.605298,28.6593647 C116.605298,28.0021906 117.122569,27.4764513 117.769158,27.4764513 C118.415747,27.4764513 118.933019,28.0021906 118.933019,28.6593647 Z M123.157402,32.5805038 C123.157402,29.2289157 124.88164,27.3450164 127.812845,27.3450164 C131.455298,27.3450164 132.12344,30.1927711 132.12344,31.7042716 C132.12344,32.5147864 132.12344,33.456736 130.808708,33.456736 L125.485123,33.456736 C125.485123,35.033954 126.584325,35.7568456 128.006821,35.7568456 C128.955152,35.7568456 129.623295,35.4282585 130.140566,35.0777656 C130.377649,34.924425 130.550073,34.8368018 130.830261,34.8368018 C131.390639,34.8368018 131.843251,35.2968237 131.843251,35.8663746 C131.843251,36.2168675 131.670827,36.5016429 131.476851,36.6768894 C131.11045,37.0273823 129.968142,37.8817087 128.006821,37.8817087 C125.010958,37.8817087 123.157402,36.2387733 123.157402,32.5805038 Z M127.812845,29.3603505 C126.562772,29.3603505 125.657547,30.0832421 125.549782,31.4852136 L129.817271,31.4852136 C129.817271,30.4118291 129.213788,29.3603505 127.812845,29.3603505 Z M137.597896,29.4479737 C136.649565,29.4479737 135.981422,29.8860898 135.442598,30.2803943 C135.227068,30.4337349 135.054644,30.4994524 134.796009,30.4994524 C134.235631,30.4994524 133.783019,30.0394304 133.783019,29.4698795 C133.783019,29.2289157 133.869231,28.966046 134.063208,28.746988 C134.666691,28.067908 135.74434,27.3450164 137.597896,27.3450164 C140.270464,27.3450164 141.865385,28.6812705 141.865385,31.0032859 L141.865385,36.611172 C141.865385,37.2464403 141.348113,37.7721796 140.723077,37.7721796 C140.098041,37.7721796 139.580769,37.2464403 139.580769,36.611172 C138.998839,37.5531216 138.050508,37.8817087 136.757329,37.8817087 C134.645138,37.8817087 133.244194,36.5454545 133.244194,34.5739321 C133.244194,32.5366922 134.860668,31.4852136 136.735776,31.4852136 L139.559216,31.4852136 L139.559216,31.0909091 C139.559216,30.1051479 138.847968,29.4479737 137.597896,29.4479737 Z M137.360813,35.9101862 C138.50312,35.9101862 139.559216,35.1653888 139.559216,33.9386637 L139.559216,33.3253012 L137.037518,33.3253012 C136.089187,33.3253012 135.571916,33.7853231 135.571916,34.5739321 C135.571916,35.4063527 136.153846,35.9101862 137.360813,35.9101862 Z M155.271335,27.3450164 C158.20254,27.3450164 159,29.2508215 159,31.1566265 L159,36.6330778 C159,37.2902519 158.482729,37.7721796 157.836139,37.7721796 C157.146444,37.7721796 156.672279,37.2902519 156.672279,36.6330778 L156.672279,31.5947426 C156.672279,30.3461117 156.17656,29.4917853 154.775617,29.4917853 C153.223803,29.4917853 152.620319,30.3461117 152.620319,31.5728368 L152.620319,36.6330778 C152.620319,37.2902519 152.103048,37.7721796 151.456459,37.7721796 C150.766763,37.7721796 150.292598,37.2902519 150.292598,36.6330778 L150.292598,31.5947426 C150.292598,30.3461117 149.79688,29.4917853 148.395936,29.4917853 C146.779463,29.4917853 146.240639,30.4556407 146.240639,31.7480832 L146.240639,36.6330778 C146.240639,37.2902519 145.74492,37.7721796 145.076778,37.7721796 C144.408636,37.7721796 143.912917,37.2902519 143.912917,36.6330778 L143.912917,28.6593647 C143.912917,28.0021906 144.430189,27.4764513 145.076778,27.4764513 C145.723367,27.4764513 146.240639,28.0021906 146.240639,28.6593647 C146.650145,28.0240964 147.55537,27.3450164 148.999419,27.3450164 C150.766763,27.3450164 151.650435,27.9145674 152.18926,28.7688938 C152.878955,27.8269441 153.805733,27.3450164 155.271335,27.3450164 Z" id="campusboream-copy" fill="#404644"></path>
                        </g>
                    </g>
                </g>
            </g>
        </g>
    </g>
</svg>