<svg width="256px" height="94px" viewBox="0 0 256 94" version="1.1" xmlns="http://www.w3.org/2000/svg" xmlns:xlink="http://www.w3.org/1999/xlink">
    <title>Group 4</title>
    <desc>Created with Sketch.</desc>
    <defs>
        <radialGradient cx="78.1634824%" cy="92.2446476%" fx="78.1634824%" fy="92.2446476%" r="106.750145%" gradientTransform="translate(0.781635,0.922446),scale(1.000000,0.708464),rotate(-146.042362),translate(-0.781635,-0.922446)" id="radialGradient-1">
            <stop stop-color="#FFFFFF" stop-opacity="0" offset="0%"></stop>
            <stop stop-color="#FFFFFF" stop-opacity="0.0605685833" offset="35.2009506%"></stop>
            <stop stop-color="#FFFFFF" stop-opacity="0.633293705" offset="100%"></stop>
        </radialGradient>
        <linearGradient x1="131.798685%" y1="-31.9751731%" x2="8.69658752%" y2="67.1411582%" id="linearGradient-2">
            <stop stop-color="#FFFFFF" stop-opacity="0" offset="0%"></stop>
            <stop stop-color="#FFFFFF" offset="100%"></stop>
        </linearGradient>
        <linearGradient x1="91.2670017%" y1="86.2982962%" x2="6.4554091%" y2="64.6489901%" id="linearGradient-3">
            <stop stop-color="#FFFFFF" stop-opacity="0" offset="0%"></stop>
            <stop stop-color="#FFFFFF" offset="100%"></stop>
        </linearGradient>
    </defs>
    <g id="00-Home" stroke="none" stroke-width="1" fill="none" fill-rule="evenodd">
        <g id="E-00-Prehome-1280" transform="translate(-592.000000, -322.000000)">
            <g id="Group-4" transform="translate(592.000000, 322.000000)">
                <path d="M71.038693,71.0882861 C64.7207263,85.5082157 52.5918949,94.7356331 39.9401845,93.1821984 C27.4897206,91.6534736 18.0564028,80.116778 15.2417205,64.9589919 C20.4653629,76.256056 31.8182339,84.0843882 44.9821429,84.0843882 C55.6021668,84.0843882 65.0434757,78.9893142 71.038693,71.0882861 Z M22.3368147,27.0054044 C29.0921189,16.4058925 39.3519987,10.1018583 49.9809253,11.4069264 C60.9670991,12.7558589 69.6040826,21.8971316 73.4175041,34.4426941 C67.7506368,24.5240728 57.1386129,17.8481013 44.9821429,17.8481013 C36.2003923,17.8481013 28.2246138,21.3319694 22.3368147,27.0054044 Z" id="Combined-Shape" fill="url(#radialGradient-1)"></path>
                <path d="M62.4321603,79.0149209 C59.8916899,81.2050424 57.0663215,83.2210338 53.982987,85.0011979 C34.2798682,96.3767988 11.5039649,93.8147634 3.11158307,79.2787316 C-3.83417356,67.2483282 1.24912158,50.7865432 14.3775591,39.0200671 C12.9573863,42.7259633 12.1785714,46.7542808 12.1785714,50.9662447 C12.1785714,69.2568903 26.8652306,84.0843882 44.9821429,84.0843882 C51.3950259,84.0843882 57.3781108,82.2265574 62.4321603,79.0149209 Z" id="Combined-Shape" fill="url(#linearGradient-2)" opacity="0.387779018"></path>
                <g id="Group-3" transform="translate(2.000000, 0.000000)">
                    <path d="M74.4549162,60.3343088 C76.2681371,73.7089564 73.0268315,85.1040597 64.6389447,90.3453931 C53.436683,97.3453431 36.3932639,91.2830971 22.3496382,76.7146499 C27.985439,81.3234326 35.1644256,84.0843882 42.9821429,84.0843882 C57.8763699,84.0843882 70.4521683,74.0628254 74.4549152,60.3343018 Z M13.972499,66.4411842 C13.2236003,65.3567509 12.4924468,64.2447471 11.7809902,63.1061784 C-3.17736513,39.1678059 -3.76433855,12.5514474 10.4699483,3.65687783 C22.4347457,-3.81955738 41.0629785,3.60500924 55.5826084,20.3794385 C51.7030802,18.748573 47.4467709,17.8481013 42.9821429,17.8481013 C24.8652306,17.8481013 10.1785714,32.6755992 10.1785714,50.9662447 C10.1785714,56.5561496 11.5503177,61.8225936 13.972499,66.4411842 Z" id="Combined-Shape" fill="url(#linearGradient-3)"></path>
                    <path d="M36,51.4939759 C36,45.5662651 38.74082,42.8192771 43.3325835,42.8192771 C46.5005443,42.8192771 48.2447025,44.5180723 48.8142235,45.313253 C48.9921988,45.5662651 49.063389,45.746988 49.063389,46 C49.063389,46.6144578 48.6006531,47.0481928 48.0311321,47.0481928 C47.6751814,47.0481928 47.426016,46.9036145 47.1768505,46.6144578 C46.6429245,46 45.6818578,44.9156627 43.3325835,44.9156627 C40.0578374,44.9156627 38.3136792,47.0481928 38.3136792,51.4939759 C38.3136792,56.0120482 40.0578374,58.1084337 43.3325835,58.1084337 C45.3970972,58.1084337 46.6429245,57.1686747 47.461611,56.5542169 C47.7107765,56.373494 47.8887518,56.3012048 48.1379173,56.3012048 C48.7074383,56.3012048 49.1701742,56.7710843 49.1701742,57.3493976 C49.1701742,57.6746988 49.063389,57.9277108 48.7074383,58.253012 C47.9243469,58.9036145 46.2157837,60.2048193 43.3325835,60.2048193 C38.74082,60.2048193 36,57.4216867 36,51.4939759 Z M58.7096517,44.9879518 C56.8231132,44.9879518 55.6840711,45.5662651 54.5806241,46.8313253 C54.2246734,47.2289157 53.975508,47.3373494 53.6551524,47.3373494 C53.0856313,47.3373494 52.6228955,46.8674699 52.6228955,46.2891566 C52.6228955,46.0361446 52.6940856,45.8554217 52.8008708,45.6746988 C53.7975327,44.0843373 55.7196662,42.8192771 58.7096517,42.8192771 C62.8386792,42.8192771 65.1167634,45.2771084 65.1167634,48.9638554 L65.1167634,58.9036145 C65.1167634,59.5180723 64.6184325,60.0240964 64.0133164,60.0240964 C63.4082003,60.0240964 62.9098694,59.5180723 62.9098694,58.9036145 L62.9098694,57.6024096 C62.0199927,59.3012048 59.955479,60.2048193 57.819775,60.2048193 C54.0466981,60.2048193 51.6618287,58.3614458 51.6618287,55.0361446 C51.6618287,51.8554217 54.0466981,49.939759 57.8909652,49.939759 L62.9098694,49.939759 L62.9098694,48.9638554 C62.9098694,46.5060241 61.3080914,44.9879518 58.7096517,44.9879518 Z M58.0333454,58.1084337 C60.525,58.1084337 62.9098694,56.5542169 62.9098694,53.4819277 L62.9098694,51.9638554 L57.8909652,51.9638554 C55.5772859,51.9638554 53.975508,52.939759 53.975508,55.0361446 C53.975508,56.9156627 55.2569303,58.1084337 58.0333454,58.1084337 Z M87.1501089,42.8192771 C92.6317489,42.8192771 93.8775762,46.1445783 93.8775762,49.2168675 L93.8775762,58.8674699 C93.8775762,59.5180723 93.3792453,60.0240964 92.7385341,60.0240964 C92.0978229,60.0240964 91.599492,59.5180723 91.599492,58.8674699 L91.599492,49.686747 C91.599492,46.8313253 90.6028302,44.8795181 87.1501089,44.8795181 C84.0889332,44.8795181 82.7007257,46.5421687 82.7007257,49.2168675 L82.7007257,58.8674699 C82.7007257,59.5180723 82.2023948,60.0240964 81.5616836,60.0240964 C80.9209724,60.0240964 80.4226415,59.5180723 80.4226415,58.8674699 L80.4226415,49.686747 C80.4226415,46.8313253 79.5327649,44.8795181 76.0444485,44.8795181 C72.7341074,44.8795181 71.6662554,46.9036145 71.6662554,49.939759 L71.6662554,58.8674699 C71.6662554,59.5180723 71.1679245,60.0240964 70.5272134,60.0240964 C69.8865022,60.0240964 69.3881713,59.5180723 69.3881713,58.8674699 L69.3881713,44.1927711 C69.3881713,43.5421687 69.8865022,43.0361446 70.5272134,43.0361446 C71.1679245,43.0361446 71.6662554,43.5421687 71.6662554,44.1927711 L71.6662554,45.3493976 C72.2713716,44.0120482 73.9799347,42.8192771 76.2936139,42.8192771 C79.2124093,42.8192771 81.0989478,43.9036145 81.9532293,45.3493976 C82.843106,43.939759 84.4092888,42.8192771 87.1501089,42.8192771 Z M99.2880261,43.0361446 C99.8931422,43.0361446 100.427068,43.5421687 100.427068,44.1927711 L100.427068,45.3493976 C101.103374,44.1204819 102.883128,42.8192771 105.267997,42.8192771 C109.895356,42.8192771 112.707366,45.5662651 112.707366,51.4939759 C112.707366,57.4216867 109.895356,60.2048193 105.267997,60.2048193 C102.883128,60.2048193 101.174565,58.9036145 100.427068,57.6746988 L100.427068,65.8433735 C100.427068,66.4578313 99.8931422,67 99.2880261,67 C98.68291,67 98.148984,66.4578313 98.148984,65.8433735 L98.148984,44.1927711 C98.148984,43.5421687 98.68291,43.0361446 99.2880261,43.0361446 Z M100.355878,51.4939759 C100.355878,56.1566265 102.491582,58.1084337 105.267997,58.1084337 C108.542743,58.1084337 110.393687,56.0120482 110.393687,51.4939759 C110.393687,46.9759036 108.471553,44.9156627 105.196807,44.9156627 C102.562772,44.9156627 100.355878,46.7951807 100.355878,51.4939759 Z M117.049964,43.0361446 C117.65508,43.0361446 118.189006,43.5421687 118.189006,44.1927711 L118.189006,53.626506 C118.189006,55.9759036 118.936502,58 122.531604,58 C126.126705,58 126.874202,55.9759036 126.874202,53.626506 L126.874202,44.1927711 C126.874202,43.5421687 127.408128,43.0361446 128.048839,43.0361446 C128.653955,43.0361446 129.152286,43.5421687 129.152286,44.1927711 L129.152286,53.626506 C129.152286,57.060241 128.048839,60.2048193 122.531604,60.2048193 C117.049964,60.2048193 115.910922,57.060241 115.910922,53.626506 L115.910922,44.1927711 C115.910922,43.5421687 116.409253,43.0361446 117.049964,43.0361446 Z M138.478193,45.060241 C136.876415,45.060241 135.310232,45.5662651 135.310232,47.2289157 C135.310232,51.0240964 144.671734,49.6144578 144.671734,55.3975904 C144.671734,58.686747 142.002104,60.1686747 138.620573,60.1686747 C135.701778,60.1686747 133.459289,58.7590361 132.533817,57.5662651 C132.355842,57.313253 132.284652,57.1325301 132.284652,56.8795181 C132.284652,56.3012048 132.747388,55.8313253 133.316909,55.8313253 C133.530479,55.8313253 133.815239,55.9036145 134.1,56.1927711 C135.203447,57.313253 136.62725,57.9638554 138.620573,57.9638554 C140.649492,57.9638554 142.39365,57.2771084 142.39365,55.3975904 C142.39365,51.6746988 133.032148,53.1566265 133.032148,47.2289157 C133.032148,44.2289157 135.452612,42.8554217 138.478193,42.8554217 C140.898657,42.8554217 142.785196,43.686747 143.888643,45.1686747 C143.995428,45.313253 144.137808,45.5301205 144.137808,45.8554217 C144.137808,46.4337349 143.675073,46.9036145 143.105552,46.9036145 C142.927576,46.9036145 142.642816,46.8674699 142.358055,46.5783133 C141.396988,45.6385542 140.329136,45.060241 138.478193,45.060241 Z M151.826343,47.9879518 L151.826343,52.9759036 C151.826343,55.4698795 153.28574,56.8795181 155.350254,56.8795181 C157.806313,56.8795181 159.158926,55.0722892 159.158926,51.5301205 C159.158926,47.9518072 157.770718,46.1445783 155.350254,46.1445783 C153.21455,46.1445783 151.826343,47.9879518 151.826343,47.9879518 Z M155.7418,42.8192771 C160.226778,42.8192771 162.967598,45.6385542 162.967598,51.5301205 C162.967598,57.4216867 160.155588,60.2048193 155.350254,60.2048193 C151.043251,60.2048193 147.982075,57.7831325 147.982075,52.9759036 L147.982075,35.9518072 C147.982075,34.8674699 148.836357,34 149.904209,34 C150.972061,34 151.826343,34.8674699 151.826343,35.9518072 L151.826343,44.2650602 C152.538244,43.5421687 154.033237,42.8192771 155.7418,42.8192771 Z M181.172496,51.5301205 C181.172496,57.4216867 178.182511,60.2048193 173.377177,60.2048193 C168.571843,60.2048193 165.581858,57.4216867 165.581858,51.5301205 C165.581858,45.6024096 168.571843,42.8192771 173.377177,42.8192771 C178.182511,42.8192771 181.172496,45.6024096 181.172496,51.5301205 Z M177.292634,51.5301205 C177.292634,47.9518072 175.940022,46.1445783 173.377177,46.1445783 C170.814332,46.1445783 169.46172,47.9518072 169.46172,51.5301205 C169.46172,55.0722892 170.814332,56.8795181 173.377177,56.8795181 C175.940022,56.8795181 177.292634,55.0722892 177.292634,51.5301205 Z M187.828774,44.9879518 L187.828774,45.1686747 C188.50508,43.7590361 190.178048,42.8554217 191.673041,42.8554217 C192.669702,42.8554217 193.488389,43.686747 193.488389,44.6987952 C193.488389,45.7108434 192.669702,46.5421687 191.673041,46.5421687 C189.216981,46.5421687 187.828774,48.1325301 187.828774,50.5542169 L187.828774,58.0722892 C187.828774,59.1566265 186.974492,60.0240964 185.90664,60.0240964 C184.838788,60.0240964 183.984507,59.1566265 183.984507,58.0722892 L183.984507,44.9879518 C183.984507,43.9036145 184.838788,43.0361446 185.90664,43.0361446 C186.974492,43.0361446 187.828774,43.9036145 187.828774,44.9879518 Z M194.805406,51.4578313 C194.805406,45.9277108 197.653012,42.8192771 202.49394,42.8192771 C208.509507,42.8192771 209.612954,47.5180723 209.612954,50.0120482 C209.612954,51.3493976 209.612954,52.9036145 207.441655,52.9036145 L198.649673,52.9036145 C198.649673,55.5060241 200.465022,56.6987952 202.814296,56.6987952 C204.380479,56.6987952 205.483926,56.1566265 206.338208,55.5783133 C206.729753,55.3253012 207.014514,55.1807229 207.47725,55.1807229 C208.402721,55.1807229 209.150218,55.939759 209.150218,56.8795181 C209.150218,57.4578313 208.865457,57.9277108 208.545102,58.2168675 C207.939985,58.7951807 206.053447,60.2048193 202.814296,60.2048193 C197.866582,60.2048193 194.805406,57.4939759 194.805406,51.4578313 Z M202.49394,46.1445783 C200.429427,46.1445783 198.934434,47.3373494 198.756459,49.6506024 L205.804282,49.6506024 C205.804282,47.8795181 204.80762,46.1445783 202.49394,46.1445783 Z M218.6541,46.2891566 C217.087917,46.2891566 215.98447,47.0120482 215.094594,47.6626506 C214.738643,47.9156627 214.453882,48.0240964 214.026742,48.0240964 C213.10127,48.0240964 212.353774,47.2650602 212.353774,46.3253012 C212.353774,45.9277108 212.496154,45.4939759 212.816509,45.1325301 C213.813171,44.0120482 215.592925,42.8192771 218.6541,42.8192771 C223.067888,42.8192771 225.701923,45.0240964 225.701923,48.8554217 L225.701923,58.1084337 C225.701923,59.1566265 224.847642,60.0240964 223.815385,60.0240964 C222.783128,60.0240964 221.928846,59.1566265 221.928846,58.1084337 C220.967779,59.6626506 219.401597,60.2048193 217.265893,60.2048193 C213.777576,60.2048193 211.463897,58 211.463897,54.746988 C211.463897,51.3855422 214.133527,49.6506024 217.230298,49.6506024 L221.893251,49.6506024 L221.893251,49 C221.893251,47.373494 220.718614,46.2891566 218.6541,46.2891566 Z M218.262554,56.9518072 C220.149093,56.9518072 221.893251,55.7228916 221.893251,53.6987952 L221.893251,52.686747 L217.728628,52.686747 C216.162446,52.686747 215.308164,53.4457831 215.308164,54.746988 C215.308164,56.1204819 216.269231,56.9518072 218.262554,56.9518072 Z M247.842054,42.8192771 C252.682983,42.8192771 254,45.9638554 254,49.1084337 L254,58.1445783 C254,59.2289157 253.145718,60.0240964 252.077866,60.0240964 C250.938824,60.0240964 250.155733,59.2289157 250.155733,58.1445783 L250.155733,49.8313253 C250.155733,47.7710843 249.337046,46.3614458 247.023367,46.3614458 C244.460522,46.3614458 243.463861,47.7710843 243.463861,49.7951807 L243.463861,58.1445783 C243.463861,59.2289157 242.609579,60.0240964 241.541727,60.0240964 C240.402685,60.0240964 239.619594,59.2289157 239.619594,58.1445783 L239.619594,49.8313253 C239.619594,47.7710843 238.800907,46.3614458 236.487228,46.3614458 C233.817598,46.3614458 232.927721,47.9518072 232.927721,50.0843373 L232.927721,58.1445783 C232.927721,59.2289157 232.109035,60.0240964 231.005588,60.0240964 C229.902141,60.0240964 229.083454,59.2289157 229.083454,58.1445783 L229.083454,44.9879518 C229.083454,43.9036145 229.937736,43.0361446 231.005588,43.0361446 C232.07344,43.0361446 232.927721,43.9036145 232.927721,44.9879518 C233.604028,43.939759 235.09902,42.8192771 237.48389,42.8192771 C240.402685,42.8192771 241.862083,43.7590361 242.751959,45.1686747 C243.891001,43.6144578 245.421589,42.8192771 247.842054,42.8192771 Z" id="campusboream-copy" fill="#FFFFFF"></path>
                </g>
            </g>
        </g>
    </g>
</svg>