<?xml version="1.0" encoding="UTF-8"?>
<svg width="78px" height="95px" viewBox="0 0 78 95" version="1.1" xmlns="http://www.w3.org/2000/svg" xmlns:xlink="http://www.w3.org/1999/xlink">
    <!-- Generator: Sketch 51.3 (57544) - http://www.bohemiancoding.com/sketch -->
    <title>Logo</title>
    <desc>Created with Sketch.</desc>
    <defs>
        <linearGradient x1="91.2670017%" y1="86.2982962%" x2="6.4554091%" y2="64.6489901%" id="linearGradient-1">
            <stop stop-color="#FFFFFF" stop-opacity="0" offset="0%"></stop>
            <stop stop-color="#FFFFFF" offset="100%"></stop>
        </linearGradient>
        <radialGradient cx="78.1634824%" cy="92.2446476%" fx="78.1634824%" fy="92.2446476%" r="107.446835%" gradientTransform="translate(0.781635,0.922446),scale(1.000000,0.694049),rotate(-145.494579),translate(-0.781635,-0.922446)" id="radialGradient-2">
            <stop stop-color="#FFFFFF" stop-opacity="0" offset="0%"></stop>
            <stop stop-color="#FFFFFF" stop-opacity="0.0605685833" offset="35.2009506%"></stop>
            <stop stop-color="#FFFFFF" stop-opacity="0.633293705" offset="100%"></stop>
        </radialGradient>
        <linearGradient x1="131.798685%" y1="-31.9751731%" x2="8.69658752%" y2="67.1411582%" id="linearGradient-3">
            <stop stop-color="#FFFFFF" stop-opacity="0" offset="0%"></stop>
            <stop stop-color="#FFFFFF" offset="100%"></stop>
        </linearGradient>
    </defs>
    <g id="00-Home" stroke="none" stroke-width="1" fill="none" fill-rule="evenodd">
        <g id="00-E-Home-1920" transform="translate(-917.000000, -110.000000)">
            <g id="Group-28" transform="translate(-1703.000000, -249.000000)">
                <g id="Módulo-1" transform="translate(1268.000000, 0.000000)">
                    <g id="Contenido" transform="translate(1182.000000, 359.000000)">
                        <g id="Logo" transform="translate(170.000000, 0.000000)">
                            <g id="Group-2-Copy">
                                <path d="M78.1842094,61.8029843 C79.9908911,75.2951392 76.758907,86.7291507 68.3698264,91.97123 C57.1207787,99.0004152 39.929972,92.8147435 25.630266,78.0399815 C31.3101298,82.3912061 38.4264539,84.978903 46.1505102,84.978903 C61.1263879,84.978903 73.8176876,75.2512717 78.1842089,61.8029807 Z M15.4056751,65.1450009 C15.1121898,64.6934048 14.8216552,64.2375569 14.5341927,63.7775207 C-0.81269132,39.2173723 -1.59187238,12.0202577 12.7938431,3.03106503 C24.8908503,-4.52798401 43.8591651,3.19520026 58.7140959,20.4479372 C54.8321936,18.8935219 50.5918165,18.0379747 46.1505102,18.0379747 C27.5630288,18.0379747 12.494898,33.0232119 12.494898,51.5084388 C12.494898,56.3649706 13.5349672,60.9799175 15.4056751,65.1450009 Z" id="Combined-Shape" fill="url(#linearGradient-1)"></path>
                                <path d="M72.1566809,72.7554704 C65.6660047,87.1705998 53.5683615,96.3464922 40.9775919,94.80054 C28.665753,93.2888363 19.2916232,81.9436814 16.2544675,66.8957819 C21.8565359,77.6387504 33.1415891,84.978903 46.1505102,84.978903 C56.626237,84.978903 65.9840979,80.2190793 72.1566809,72.7554704 Z M23.3402328,26.8977971 C30.1889452,16.0458958 40.5551695,9.58449809 51.2791312,10.901235 C62.1857473,12.2403991 70.7869808,21.2964152 74.7197088,33.807299 C68.7750153,24.3380312 58.2025611,18.0379747 46.1505102,18.0379747 C37.3493794,18.0379747 29.3372875,21.3976668 23.3402328,26.8977971 Z" id="Combined-Shape" fill="url(#radialGradient-2)"></path>
                                <path d="M62.9347075,80.526195 C60.5599094,82.4770781 57.9592016,84.2847877 55.1521046,85.9054659 C34.9372165,97.576537 11.6740659,95.1286681 3.19240341,80.4379977 C-3.75901924,68.3977805 1.3759521,51.8706756 14.5839297,39.8738018 C13.2329747,43.4975689 12.494898,47.4172845 12.494898,51.5084388 C12.494898,69.9936657 27.5630288,84.978903 46.1505102,84.978903 C52.2626713,84.978903 57.9942829,83.3585407 62.9347075,80.526195 Z" id="Combined-Shape" fill="url(#linearGradient-3)" opacity="0.387779018"></path>
                            </g>
                            <path d="M28,53.36 C28,46.84 31.1925676,43.76 36.5529279,43.76 C40.1790541,43.76 42.268018,45.6 42.9774775,46.52 C43.2927928,46.96 43.411036,47.28 43.411036,47.76 C43.411036,48.84 42.5833333,49.68 41.5191441,49.68 C40.8885135,49.68 40.4155405,49.4 40.0608108,49 C39.5484234,48.44 38.5236486,47.44 36.5529279,47.44 C33.7939189,47.44 32.2961712,49.6 32.2961712,53.36 C32.2961712,57.2 33.7939189,59.32 36.5529279,59.32 C38.365991,59.32 39.5484234,58.4 40.454955,57.72 C40.8885135,57.4 41.2432432,57.32 41.6373874,57.32 C42.7015766,57.32 43.5292793,58.16 43.5292793,59.24 C43.5292793,59.8 43.3322072,60.28 42.8592342,60.72 C41.9527027,61.56 39.7849099,63 36.5529279,63 C31.1925676,63 28,59.88 28,53.36 Z M49.7173423,49.6 L49.7173423,55.12 C49.7173423,58.92 51.8851351,60.68 54.920045,60.68 C58.5461712,60.68 60.4774775,58.36 60.4774775,53.36 C60.4774775,48.44 58.5067568,46.08 54.920045,46.08 C51.2150901,46.08 49.7173423,49.6 49.7173423,49.6 Z M55.0777027,43.76 C60.1621622,43.76 63,46.8 63,53.36 C63,59.92 60.0045045,63 54.920045,63 C50.4268018,63 47.1948198,60.4 47.1948198,55.12 L47.1948198,35.28 C47.1948198,34.56 47.7466216,34 48.4560811,34 C49.1655405,34 49.7173423,34.56 49.7173423,35.28 L49.7173423,46.36 C50.6238739,45.08 52.5551802,43.76 55.0777027,43.76 Z" id="cb" fill="#FFFFFF"></path>
                        </g>
                    </g>
                </g>
            </g>
        </g>
    </g>
</svg>