<?xml version="1.0" encoding="UTF-8"?>
<svg width="173px" height="75px" viewBox="0 0 173 75" version="1.1" xmlns="http://www.w3.org/2000/svg" xmlns:xlink="http://www.w3.org/1999/xlink">
    <!-- Generator: Sketch 50.2 (55047) - http://www.bohemiancoding.com/sketch -->
    <title>comunidad-madrid</title>
    <desc>Created with Sketch.</desc>
    <defs>
        <polygon id="path-1" points="0 0.783039781 10.4971598 0.783039781 10.4971598 12.1804609 0 12.1804609"></polygon>
        <polygon id="path-3" points="0 73.0864198 172.879089 73.0864198 172.879089 0.176625514 0 0.176625514"></polygon>
    </defs>
    <g id="06-Empresas" stroke="none" stroke-width="1" fill="none" fill-rule="evenodd">
        <g id="06-E-Empresas" transform="translate(-944.000000, -2073.000000)">
            <g id="comunidad-madrid" transform="translate(944.000000, 2074.000000)">
                <polygon id="Fill-1" fill="#E4483B" points="62 48 110 48 110 0 62 0"></polygon>
                <polygon id="Stroke-2" stroke="#E4483B" stroke-width="0.5" points="62 48 110 48 110 0 62 0"></polygon>
                <polygon id="Fill-4" fill="#FEFEFE" points="72.0168275 16 71.0784459 19.0788382 68 19.1182573 70.4964118 20.9875519 69.5936649 24 72.0168275 22.1514523 74.4776046 23.9605809 73.5412027 20.9502075 76 19.0414938 72.9750062 19.0788382"></polygon>
                <polygon id="Stroke-5" stroke="#FEFEFE" stroke-width="0.5" points="72.0168275 16 71.0784459 19.0788382 68 19.1182573 70.4964118 20.9875519 69.5936649 24 72.0168275 22.1514523 74.4776046 23.9605809 73.5412027 20.9502075 76 19.0414938 72.9750062 19.0788382"></polygon>
                <polygon id="Fill-6" fill="#FEFEFE" points="81.017813 16 80.0776843 19.0788382 77 19.1182573 79.4957942 20.9875519 78.5952499 24 81.017813 22.1514523 83.476002 23.9605809 82.5398318 20.9502075 85 19.0414938 81.9757546 19.0788382"></polygon>
                <polygon id="Stroke-7" stroke="#FEFEFE" stroke-width="0.5" points="81.017813 16 80.0776843 19.0788382 77 19.1182573 79.4957942 20.9875519 78.5952499 24 81.017813 22.1514523 83.476002 23.9605809 82.5398318 20.9502075 85 19.0414938 81.9757546 19.0788382"></polygon>
                <polygon id="Fill-8" fill="#FEFEFE" points="91.017813 16 90.0776843 19.0788382 87 19.1182573 89.4957942 20.9875519 88.5952499 24 91.017813 22.1514523 93.4779812 23.9605809 92.541811 20.9502075 95 19.0414938 91.9757546 19.0788382"></polygon>
                <polygon id="Stroke-9" stroke="#FEFEFE" stroke-width="0.5" points="91.017813 16 90.0776843 19.0788382 87 19.1182573 89.4957942 20.9875519 88.5952499 24 91.017813 22.1514523 93.4779812 23.9605809 92.541811 20.9502075 95 19.0414938 91.9757546 19.0788382"></polygon>
                <polygon id="Fill-10" fill="#FEFEFE" points="86.0188072 23 85.0784459 26.0796368 82 26.1190661 84.4964118 27.9888457 83.5936649 31 86.0188072 29.1509728 88.4776046 30.9626459 87.5412027 27.9514916 90 26.0422827 86.9750062 26.0796368"></polygon>
                <polygon id="Stroke-11" stroke="#FEFEFE" stroke-width="0.5" points="86.0188072 23 85.0784459 26.0796368 82 26.1190661 84.4964118 27.9888457 83.5936649 31 86.0188072 29.1509728 88.4776046 30.9626459 87.5412027 27.9514916 90 26.0422827 86.9750062 26.0796368"></polygon>
                <polygon id="Fill-12" fill="#FEFEFE" points="76.017813 23 75.0796635 26.0796368 72 26.1190661 74.4957942 27.9888457 73.5952499 31 76.017813 29.1509728 78.4779812 30.9626459 77.5398318 27.9514916 80 26.0422827 76.9757546 26.0796368"></polygon>
                <polygon id="Stroke-13" stroke="#FEFEFE" stroke-width="0.5" points="76.017813 23 75.0796635 26.0796368 72 26.1190661 74.4957942 27.9888457 73.5952499 31 76.017813 29.1509728 78.4779812 30.9626459 77.5398318 27.9514916 80 26.0422827 76.9757546 26.0796368"></polygon>
                <polygon id="Fill-14" fill="#FEFEFE" points="96.0188072 23 95.0784459 26.0796368 92 26.1190661 94.4964118 27.9888457 93.5956446 31 96.0188072 29.1509728 98.4795843 30.9626459 97.5412027 27.9514916 100 26.0422827 96.9769859 26.0796368"></polygon>
                <polygon id="Stroke-15" stroke="#FEFEFE" stroke-width="0.5" points="96.0188072 23 95.0784459 26.0796368 92 26.1190661 94.4964118 27.9888457 93.5956446 31 96.0188072 29.1509728 98.4795843 30.9626459 97.5412027 27.9514916 100 26.0422827 96.9769859 26.0796368"></polygon>
                <polygon id="Fill-16" fill="#FEFEFE" points="101.017813 16 100.077684 19.0788382 97 19.1182573 99.4977734 20.9875519 98.5952499 24 101.017813 22.1514523 103.477981 23.9605809 102.539832 20.9502075 105 19.0414938 101.975755 19.0788382"></polygon>
                <polygon id="Stroke-17" stroke="#FEFEFE" stroke-width="0.5" points="101.017813 16 100.077684 19.0788382 97 19.1182573 99.4977734 20.9875519 98.5952499 24 101.017813 22.1514523 103.477981 23.9605809 102.539832 20.9502075 105 19.0414938 101.975755 19.0788382"></polygon>
                <g id="Group-42">
                    <g id="Group-20" transform="translate(0.000000, 60.905350)">
                        <mask id="mask-2" fill="white">
                            <use xlink:href="#path-1"></use>
                        </mask>
                        <g id="Clip-19"></g>
                        <path d="M10.4524356,5.09716872 C10.1596959,2.37063923 8.51506766,0.801311385 5.52464974,0.783039781 C2.16830711,0.783039781 -0.00081316599,3.05480933 -0.00081316599,6.4858107 C-0.00081316599,9.70161317 2.00160808,12.1804609 5.52464974,12.1804609 C8.71226042,12.1804609 10.4971598,9.85184636 10.4971598,7.65925377 L7.19977167,7.65925377 C7.00461184,8.67840329 6.55737054,9.46814266 5.43316856,9.46814266 C3.86579112,9.46814266 3.35959529,7.94550892 3.35959529,6.4858107 C3.35959529,5.01799177 3.86579112,3.49535802 5.43316856,3.49535802 C6.82164949,3.49535802 7.12455382,4.70128395 7.18757418,5.09716872 L10.4524356,5.09716872" id="Fill-18" fill="#2B2523" mask="url(#mask-2)"></path>
                    </g>
                    <path d="M20.1484236,68.8673032 C20.1484236,66.6747106 18.8066997,64.721679 15.8325451,64.721679 C12.8563576,64.721679 11.5126008,66.6747106 11.5126008,68.8673032 C11.5126008,71.0619259 12.8563576,73.0251084 15.8325451,73.0251084 C18.8066997,73.0251084 20.1484236,71.0619259 20.1484236,68.8673032 M17.127512,68.8673032 C17.127512,69.7057668 16.9750433,70.8365761 15.8325451,70.8365761 C14.6859811,70.8365761 14.5355454,69.7057668 14.5355454,68.8673032 C14.5355454,68.0288395 14.6859811,66.9142716 15.8325451,66.9142716 C16.9750433,66.9142716 17.127512,68.0288395 17.127512,68.8673032" id="Fill-21" fill="#2B2523"></path>
                    <path d="M21.4407477,72.8304143 L24.4636922,72.8304143 L24.4636922,68.546738 C24.4636922,67.7224856 24.7198395,67.1296735 25.4842155,67.1296735 C26.3990273,67.1296735 26.476278,67.7996324 26.476278,68.546738 L26.476278,72.8304143 L29.4971897,72.8304143 L29.4971897,68.546738 C29.4971897,67.7224856 29.7574028,67.1296735 30.517713,67.1296735 C31.4345577,67.1296735 31.5138414,67.7996324 31.5138414,68.546738 L31.5138414,72.8304143 L34.5306872,72.8304143 L34.5306872,67.4037476 C34.5306872,66.1227051 33.8455948,64.721882 31.8167457,64.721882 C29.8509169,64.721882 29.2390095,65.8648724 29.1150017,65.9562305 C28.7511099,65.1624307 27.8322323,64.721882 26.978408,64.721882 C25.878601,64.721882 24.994283,65.0548313 24.3844085,65.9684115 L24.3539148,65.9684115 L24.3539148,64.9167791 L21.4407477,64.9167791 L21.4407477,72.8304143" id="Fill-23" fill="#2B2523"></path>
                    <path d="M44.3864623,64.9159671 L41.3655506,64.9159671 L41.3655506,69.0940741 C41.3655506,70.3588752 40.6743595,70.6207682 40.160032,70.6207682 C39.2736811,70.6207682 39.1679695,69.9792318 39.1679695,69.0656516 L39.1679695,64.9159671 L36.1470579,64.9159671 L36.1470579,70.3466941 C36.1470579,72.1596433 37.4440576,73.0244993 38.8609994,73.0244993 C40.0685509,73.0244993 40.8756181,72.6123731 41.4428014,71.8226337 L41.4692293,71.8226337 L41.4692293,72.8296022 L44.3864623,72.8296022 L44.3864623,64.9159671" id="Fill-25" fill="#2B2523"></path>
                    <path d="M46.0284477,72.8304143 L49.0473264,72.8304143 L49.0473264,68.6543374 C49.0473264,67.3895364 49.7364846,67.1296735 50.2508121,67.1296735 C51.1391959,67.1296735 51.2449075,67.7671495 51.2449075,68.6847901 L51.2449075,72.8304143 L54.2719179,72.8304143 L54.2719179,67.4037476 C54.2719179,65.5907984 52.9688194,64.721882 51.5518777,64.721882 C50.3463591,64.721882 49.5372589,65.1340082 48.9721086,65.9237476 L48.9436478,65.9237476 L48.9436478,64.9167791 L46.0284477,64.9167791 L46.0284477,72.8304143" id="Fill-27" fill="#2B2523"></path>
                    <mask id="mask-4" fill="white">
                        <use xlink:href="#path-3"></use>
                    </mask>
                    <g id="Clip-30"></g>
                    <path d="M55.9681822,72.8306173 L58.9911267,72.8306173 L58.9911267,64.9169822 L55.9681822,64.9169822 L55.9681822,72.8306173 Z M55.9681822,64.0663374 L58.9911267,64.0663374 L58.9911267,61.9508916 L55.9681822,61.9508916 L55.9681822,64.0663374 Z" id="Fill-29" fill="#2B2523" mask="url(#mask-4)"></path>
                    <path d="M68.9522068,61.9500796 L65.9312952,61.9500796 L65.9312952,65.7891468 L65.8987685,65.7891468 C65.4372968,65.1171578 64.6342954,64.721273 63.7316812,64.721273 C61.0787271,64.721273 60.3611081,66.9788313 60.3611081,68.8405048 C60.3611081,70.8138381 61.4446518,73.0247023 63.68899,73.0247023 C65.1669191,73.0247023 65.6283908,72.4623429 66.0085459,71.9608889 L66.0370067,71.9608889 L66.0370067,72.8298052 L68.9522068,72.8298052 L68.9522068,61.9500796 Z M66.0370067,68.8668971 C66.0370067,69.81093 65.7950899,70.8361701 64.7095133,70.8361701 C63.6280025,70.8361701 63.3840527,69.81093 63.3840527,68.8668971 C63.3840527,67.9350453 63.6280025,66.9138656 64.7095133,66.9138656 C65.7950899,66.9138656 66.0370067,67.9350453 66.0370067,68.8668971 Z" id="Fill-31" fill="#2B2523" mask="url(#mask-4)"></path>
                    <path d="M75.4162666,70.0113086 C75.3715424,70.835561 74.8389187,71.2415967 74.1517935,71.2415967 C73.5988406,71.2415967 73.2003892,70.8781948 73.2003892,70.5107325 C73.2003892,69.9788258 73.5561494,69.810321 74.2270113,69.6600878 C74.6376601,69.5666996 75.048309,69.4611303 75.4162666,69.2784143 L75.4162666,70.0113086 Z M78.3131704,67.8146557 C78.3131704,66.2920219 78.345697,64.7226941 74.5604094,64.7226941 C72.6840288,64.7226941 70.5779289,65.086096 70.4823819,67.3111715 L73.2939033,67.3111715 C73.3101667,66.9782222 73.4910961,66.5051907 74.426237,66.5051907 C74.9121037,66.5051907 75.4162666,66.7000878 75.4162666,67.2340247 C75.4162666,67.7395391 75.0076507,67.8593196 74.5949689,67.9364664 C73.0519865,68.2288121 70.1205231,68.137454 70.1205231,70.6345734 C70.1205231,72.2932291 71.3870291,73.0240933 72.9137482,73.0240933 C73.8895474,73.0240933 74.8206225,72.8129547 75.4609907,72.0841207 L75.4914844,72.0841207 C75.4792869,72.2932291 75.5240111,72.6119671 75.5992289,72.8312263 L78.6790951,72.8312263 C78.345697,72.3277421 78.3131704,71.6577833 78.3131704,71.062941 L78.3131704,67.8146557 Z" id="Fill-32" fill="#2B2523" mask="url(#mask-4)"></path>
                    <path d="M88.1498361,61.9500796 L85.1289244,61.9500796 L85.1289244,65.7891468 L85.0963978,65.7891468 C84.6389919,65.1171578 83.8298918,64.721273 82.9333763,64.721273 C80.2763564,64.721273 79.5587374,66.9788313 79.5587374,68.8405048 C79.5587374,70.8138381 80.6402482,73.0247023 82.8825534,73.0247023 C84.3645484,73.0247023 84.8239872,72.4623429 85.2041423,71.9608889 L85.2326031,71.9608889 L85.2326031,72.8298052 L88.1498361,72.8298052 L88.1498361,61.9500796 Z M85.2326031,68.8668971 C85.2326031,69.81093 84.9866204,70.8361701 83.9091755,70.8361701 C82.8256318,70.8361701 82.5796491,69.81093 82.5796491,68.8668971 C82.5796491,67.9350453 82.8256318,66.9138656 83.9091755,66.9138656 C84.9866204,66.9138656 85.2326031,67.9350453 85.2326031,68.8668971 Z" id="Fill-33" fill="#2B2523" mask="url(#mask-4)"></path>
                    <path d="M103.124694,61.9500796 L100.105816,61.9500796 L100.105816,65.7891468 L100.075322,65.7891468 C99.6179161,65.1171578 98.806783,64.721273 97.9082346,64.721273 C95.2512147,64.721273 94.5356286,66.9788313 94.5356286,68.8405048 C94.5356286,70.8138381 95.6171394,73.0247023 97.8574117,73.0247023 C99.3394067,73.0247023 99.8008784,72.4623429 100.183066,71.9608889 L100.209494,71.9608889 L100.209494,72.8298052 L103.124694,72.8298052 L103.124694,61.9500796 Z M100.209494,68.8668971 C100.209494,69.81093 99.9655445,70.8361701 98.8820008,70.8361701 C97.802523,70.8361701 97.5565403,69.81093 97.5565403,68.8668971 C97.5565403,67.9350453 97.802523,66.9138656 98.8820008,66.9138656 C99.9655445,66.9138656 100.209494,67.9350453 100.209494,68.8668971 Z" id="Fill-34" fill="#2B2523" mask="url(#mask-4)"></path>
                    <path d="M107.333438,67.9791001 C107.467611,67.1304856 107.983971,66.6533937 108.888618,66.6533937 C109.663159,66.6533937 110.214079,67.2543265 110.214079,67.9791001 L107.333438,67.9791001 Z M113.119114,69.5504582 C113.119114,66.4767682 111.757061,64.7226941 108.612142,64.7226941 C106.107591,64.7226941 104.430436,66.5945185 104.430436,68.8967407 C104.430436,71.5319122 106.33731,73.0240933 108.868289,73.0240933 C110.673518,73.0240933 112.338475,72.2363841 112.948349,70.5290041 L110.120565,70.5290041 C109.880681,70.9086475 109.341958,71.0933937 108.854059,71.0933937 C107.90672,71.0933937 107.39036,70.4538875 107.313109,69.5504582 L113.119114,69.5504582 Z" id="Fill-35" fill="#2B2523" mask="url(#mask-4)"></path>
                    <polygon id="Fill-36" fill="#2B2523" mask="url(#mask-4)" points="119.499215 72.8304143 122.674628 72.8304143 122.674628 65.8506612 122.701056 65.8506612 124.595732 72.8304143 127.098251 72.8304143 128.990895 65.8506612 129.019355 65.8506612 129.019355 72.8304143 132.196802 72.8304143 132.196802 61.9506886 127.419451 61.9506886 125.864271 68.3518409 125.831745 68.3518409 124.278598 61.9506886 119.499215 61.9506886"></polygon>
                    <path d="M138.690745,70.0113086 C138.646021,70.835561 138.113397,71.2415967 137.422206,71.2415967 C136.873319,71.2415967 136.480967,70.8781948 136.480967,70.5107325 C136.480967,69.9788258 136.830628,69.810321 137.497424,69.6600878 C137.914172,69.5666996 138.322788,69.4611303 138.690745,69.2784143 L138.690745,70.0113086 Z M141.587649,67.8146557 C141.587649,66.2920219 141.620176,64.7226941 137.836921,64.7226941 C135.958507,64.7226941 133.850375,65.086096 133.760926,67.3111715 L136.570415,67.3111715 C136.586678,66.9782222 136.767608,66.5051907 137.700716,66.5051907 C138.188615,66.5051907 138.690745,66.7000878 138.690745,67.2340247 C138.690745,67.7395391 138.278063,67.8593196 137.863349,67.9364664 C136.326465,68.2288121 133.392969,68.137454 133.392969,70.6345734 C133.392969,72.2932291 134.661508,73.0240933 136.186194,73.0240933 C137.164026,73.0240933 138.097134,72.8129547 138.735469,72.0841207 L138.765963,72.0841207 C138.751733,72.2932291 138.796457,72.6119671 138.873708,72.8312263 L141.95764,72.8312263 C141.620176,72.3277421 141.587649,71.6577833 141.587649,71.062941 L141.587649,67.8146557 Z" id="Fill-37" fill="#2B2523" mask="url(#mask-4)"></path>
                    <path d="M151.424315,61.9500796 L148.405436,61.9500796 L148.405436,65.7891468 L148.370876,65.7891468 C147.913471,65.1171578 147.10437,64.721273 146.205822,64.721273 C143.550835,64.721273 142.831183,66.9788313 142.831183,68.8405048 C142.831183,70.8138381 143.914727,73.0247023 146.159065,73.0247023 C147.64106,73.0247023 148.0944,72.4623429 148.480654,71.9608889 L148.507082,71.9608889 L148.507082,72.8298052 L151.424315,72.8298052 L151.424315,61.9500796 Z M148.507082,68.8668971 C148.507082,69.81093 148.263132,70.8361701 147.179588,70.8361701 C146.096045,70.8361701 145.850062,69.81093 145.850062,68.8668971 C145.850062,67.9350453 146.096045,66.9138656 147.179588,66.9138656 C148.263132,66.9138656 148.507082,67.9350453 148.507082,68.8668971 Z" id="Fill-38" fill="#2B2523" mask="url(#mask-4)"></path>
                    <path d="M153.064064,72.8304143 L156.087008,72.8304143 L156.087008,69.7059698 C156.087008,68.0148313 156.727377,67.3103594 157.916632,67.3103594 C158.526506,67.3103594 158.802983,67.4037476 159.103854,67.5072867 L159.103854,64.8436927 C158.819246,64.7645158 158.526506,64.721882 158.223602,64.721882 C157.123795,64.721882 156.481394,65.2416077 155.995527,66.1876708 L155.965034,66.1876708 L155.965034,64.9167791 L153.064064,64.9167791 L153.064064,72.8304143" id="Fill-39" fill="#2B2523" mask="url(#mask-4)"></path>
                    <path d="M159.898927,72.8306173 L162.917806,72.8306173 L162.917806,64.9169822 L159.898927,64.9169822 L159.898927,72.8306173 Z M159.898927,64.0663374 L162.917806,64.0663374 L162.917806,61.9508916 L159.898927,61.9508916 L159.898927,64.0663374 Z" id="Fill-40" fill="#2B2523" mask="url(#mask-4)"></path>
                    <path d="M172.879089,61.9500796 L169.858178,61.9500796 L169.858178,65.7891468 L169.827684,65.7891468 C169.370278,65.1171578 168.559145,64.721273 167.660597,64.721273 C165.00561,64.721273 164.287991,66.9788313 164.287991,68.8405048 C164.287991,70.8138381 165.371534,73.0247023 167.611807,73.0247023 C169.093802,73.0247023 169.553241,72.4623429 169.931363,71.9608889 L169.963889,71.9608889 L169.963889,72.8298052 L172.879089,72.8298052 L172.879089,61.9500796 Z M169.963889,68.8668971 C169.963889,69.81093 169.71994,70.8361701 168.634363,70.8361701 C167.552852,70.8361701 167.308902,69.81093 167.308902,68.8668971 C167.308902,67.9350453 167.552852,66.9138656 168.634363,66.9138656 C169.71994,66.9138656 169.963889,67.9350453 169.963889,68.8668971 Z" id="Fill-41" fill="#2B2523" mask="url(#mask-4)"></path>
                </g>
            </g>
        </g>
    </g>
</svg>