<?xml version="1.0" encoding="UTF-8"?>
<svg width="222px" height="158px" viewBox="0 0 222 158" version="1.1" xmlns="http://www.w3.org/2000/svg" xmlns:xlink="http://www.w3.org/1999/xlink">
    <!-- Generator: Sketch 50.2 (55047) - http://www.bohemiancoding.com/sketch -->
    <title>Group 2</title>
    <desc>Created with Sketch.</desc>
    <defs>
        <polygon id="path-1" points="0.000137603306 0.160019571 221.924913 0.160019571 221.924913 99.1367887 0.000137603306 99.1367887"></polygon>
        <polygon id="path-3" points="0.229964112 0.132190706 20.3093762 0.132190706 20.3093762 24.3009664 0.229964112 24.3009664"></polygon>
    </defs>
    <g id="06-Empresas" stroke="none" stroke-width="1" fill="none" fill-rule="evenodd">
        <g id="06-E-Empresas" transform="translate(-627.000000, -3441.000000)">
            <g id="Group-21" transform="translate(-447.000000, 3007.000000)">
                <g id="Group-63">
                    <g id="Group-2" transform="translate(1074.000000, 434.000000)">
                        <path d="M163.00003,154.027851 C162.99306,152.247201 164.21785,151.002327 165.978834,151.000003 C167.735172,150.99768 169.011537,152.272759 168.999921,154.017628 C168.987841,155.781084 167.73192,157.01016 165.950956,156.999937 C164.185325,156.989714 163.007464,155.802924 163.00003,154.027851" id="Fill-21" fill="#383F7B"></path>
                        <g id="Group">
                            <path d="M88.4143438,152.405895 C92.559414,152.390764 95.7284182,149.123889 95.6843851,144.912027 C95.6394347,140.62497 92.5149223,137.544708 88.2239926,137.557088 C84.025257,137.569467 81.2034719,140.633223 81.2149388,145.168334 C81.2250298,149.373776 84.2568893,152.421026 88.4143438,152.405895 M96.0063769,136.889957 L96.0063769,136.058222 C96.0063769,132.287905 96.027476,128.517128 95.9871124,124.747727 C95.9802322,124.063632 96.1857198,123.930206 96.8099802,123.958634 C97.9172281,124.00907 99.0295215,124.00586 100.136769,123.959092 C100.696815,123.935708 100.84084,124.103522 100.83717,124.656484 C100.81286,128.179666 100.824786,131.703764 100.824786,135.227404 C100.824786,142.028924 100.813778,148.829985 100.841298,155.631046 C100.84405,156.304595 100.649112,156.465991 100.012468,156.434812 C98.954757,156.382083 97.8924595,156.39859 96.8333727,156.430227 C96.3806579,156.444441 96.2306702,156.28167 96.208195,155.849755 C96.1600339,154.918982 96.0724264,153.99096 95.9921579,152.947853 C95.6096207,153.409571 95.3146909,153.820395 94.9656372,154.178032 C92.8708562,156.323853 90.2325421,156.998778 87.3474595,156.852972 C83.3941165,156.653979 80.1457612,155.12256 78.0762074,151.596169 C75.3314802,146.919837 75.9089554,140.119693 79.3650917,136.386056 C81.5777529,133.995391 84.4302694,133.062326 87.5978975,133.005012 C90.4641744,132.953201 93.0359802,133.785394 95.1197529,135.845474 C95.4078025,136.130208 95.6476909,136.464003 96.0063769,136.889957" id="Fill-1" fill="#383F7B"></path>
                            <g id="Group-5" transform="translate(0.000000, 0.298489)">
                                <mask id="mask-2" fill="white">
                                    <use xlink:href="#path-1"></use>
                                </mask>
                                <g id="Clip-4"></g>
                                <path d="M32.5208442,52.8877063 L32.4185591,52.8877063 L32.4185591,50.1536183 C32.4185591,50.1045579 32.4185591,50.0550389 32.4167244,50.0059785 C32.3570963,48.3833158 31.4915715,47.7776257 29.9733483,48.3191246 C28.4922781,48.8468682 27.2171541,49.7340828 26.0057864,50.7070384 C20.6190756,55.034903 16.4010756,60.3655263 12.8554971,66.2426921 C10.420836,70.2794036 8.33431116,74.4834708 7.47704256,79.18502 C7.22110041,80.588974 6.93213347,81.9961375 7.25274917,83.428519 C7.48254669,84.4560372 8.19212107,84.9090439 9.22093512,84.7146362 C9.93601364,84.5793761 10.5648607,84.2464987 11.1602244,83.843928 C12.849993,82.7017825 14.2806087,81.2634404 15.5630715,79.7063445 C20.9479475,73.167092 26.3644723,66.6571841 32.2470136,60.5530564 C32.5557037,60.2325588 32.5190095,59.8932623 32.5194682,59.5319573 C32.5222202,57.3173598 32.5208442,55.1027623 32.5208442,52.8877063 Z M80.0022409,30.1158667 C78.5418112,30.1048625 76.9593731,30.5794191 75.411336,31.1507211 C71.2992905,32.6674682 67.6518855,35.0058631 64.2778525,37.7504968 C57.183026,43.521747 50.4294558,49.6763107 43.9492574,56.1302805 C43.5566293,56.5213885 43.6300178,56.9138721 43.6864351,57.3467044 C44.1290591,60.738294 44.6886459,64.1115432 45.2752946,67.4806659 C45.5532533,69.0785691 45.7403938,70.7062753 46.6329806,72.1221505 C47.5095136,73.5123492 48.6892326,74.4362444 50.4129434,74.4632964 C52.7801789,74.5004356 54.8997285,73.6728272 56.9238731,72.5522317 C60.4437657,70.6031108 63.4907616,68.0235403 66.3955674,65.2798236 C74.400869,57.718555 82.4029599,50.1559109 91.1366417,43.4199581 C91.5260591,43.1196348 91.509088,42.9009261 91.2682822,42.5281585 C89.1436872,39.2401919 87.0223029,35.9499327 84.9256872,32.6440843 C83.823026,30.9049604 82.2415054,30.106238 80.0022409,30.1158667 Z M147.194394,60.8295372 C148.576848,60.8639254 150.269369,60.688775 151.953633,60.4631887 C158.359526,59.6080698 164.426914,57.666285 170.147084,54.668096 C177.564361,50.7808584 184.100518,45.7757763 189.312472,39.1727911 C192.529638,35.0975648 194.58222,30.5266906 194.69001,25.2332065 C194.768443,21.3863177 193.447452,18.1497041 190.444489,15.6682544 C187.311262,13.0795137 183.649638,11.6264994 179.71877,10.8236504 C173.999059,9.65537002 168.296778,10.1161714 162.6211,11.1922915 C155.13915,12.6104592 148.341088,15.7581222 141.892538,19.6692022 C132.726324,25.2295384 123.926592,31.3437533 115.28327,37.6826375 C114.819547,38.0223925 114.738361,38.2035035 115.1686,38.6574272 C118.049555,41.6964235 120.907576,44.7569697 123.756881,47.8257691 C125.650303,49.8652163 127.436852,52.010579 129.410543,53.967953 C134.228493,58.7451562 140.1436,60.8501701 147.194394,60.8295372 Z M0.000137603306,91.5642991 C0.217092149,90.2621341 0.40515,88.954467 0.656505372,87.6591797 C1.83622438,81.5876061 4.19015826,75.9580351 7.07478223,70.5169112 C10.810712,63.4705479 15.2970384,56.9666006 20.7979599,51.1760929 C24.4527037,47.3292041 28.2230343,43.6120733 32.7267905,40.7390571 C34.5133401,39.5996628 36.3485095,38.5340883 38.4345756,38.0214755 C40.7600715,37.4501735 41.9893277,38.3639815 42.1599558,40.7496028 C42.3622326,43.5735585 42.5677202,46.3965972 42.7722905,49.2200944 C42.7828401,49.3640662 42.7511913,49.5195006 42.9589723,49.7171179 C43.6735921,49.0509047 44.3983029,48.3801063 45.1175095,47.7038058 C51.5995426,41.6060973 58.2572492,35.7096741 65.424088,30.4216921 C70.6507202,26.5651746 76.1699888,23.1887158 82.3112244,20.9576119 C85.277493,19.8801163 88.3006376,18.9860241 91.4999145,18.9342126 C94.9257781,18.8791916 97.7305921,20.1121217 100.039117,22.70774 C102.37929,25.338205 104.918071,27.7907686 107.333927,30.3542913 C107.777927,30.8256383 108.028824,30.5665809 108.366869,30.3199031 C117.1877,23.877396 126.369968,17.9947281 135.882026,12.6274241 C144.90651,7.53476682 154.460307,3.84331247 164.649832,1.85200875 C168.788939,1.04319922 172.9652,0.547092701 177.175402,0.307751107 C181.464497,0.063824425 185.745336,0.0908764442 190.011956,0.624580688 C198.097526,1.6360511 205.781295,3.82726466 212.591282,8.48571407 C217.238605,11.6650141 220.349357,15.9250194 221.431377,21.5215778 C222.407443,26.5683841 221.880881,31.5216547 220.335138,36.3868916 C218.489419,42.1980321 215.39472,47.3241605 211.542286,51.9954482 C203.463138,61.7910302 193.684129,69.5407459 182.619906,75.7017287 C175.225563,79.8186792 167.44272,82.9571719 159.165423,84.8191762 C152.893005,86.2304663 146.555914,87.0461534 140.11608,86.765546 C133.435439,86.4743929 127.051563,85.0332998 121.212596,81.6224528 C116.598299,78.9264211 112.853654,75.2986994 109.894266,70.8740895 C105.814786,64.7731714 101.788055,58.6374067 97.753526,52.506227 C97.4278649,52.010579 97.2609062,51.8170882 96.6838897,52.301732 C89.9440798,57.9588136 83.3822368,63.8098444 77.0217533,69.8901296 C73.6004764,73.1606729 70.3667988,76.6219558 66.9019475,79.8420631 C62.4780012,83.9539701 57.8985632,87.8916436 52.5650591,90.8242659 C49.8391376,92.3235897 46.9586417,93.3795355 43.8043153,93.4198842 C40.0174723,93.4684862 37.4066789,91.6784678 35.8801996,88.2291061 C34.8701913,85.9471078 34.4427037,83.5371856 34.1730012,81.0814124 C33.7134062,76.8970611 33.2409682,72.7145438 32.9547533,68.5132277 C32.9419103,68.3243221 32.8813649,68.1390845 32.81715,67.8263815 C32.1846335,68.5407382 31.6140384,69.1743974 31.055369,69.8181437 C25.4017079,76.3317198 19.9168401,82.9823899 14.625993,89.7949137 C12.4793814,92.5588047 10.2057161,95.2250334 7.4187905,97.3905705 C6.48033595,98.1195994 5.47170372,98.7289576 4.29473678,99.0100235 C2.44305496,99.452943 1.07481942,98.7284991 0.448265702,96.9416903 C0.272133471,96.4400817 0.147831818,95.9205912 0.000137603306,95.4088954 L0.000137603306,91.5642991 Z" id="Fill-3" fill="#E5AF27" mask="url(#mask-2)"></path>
                            </g>
                            <path d="M118.064233,152.511994 C122.232237,152.530334 125.417295,149.380837 125.444815,145.213451 C125.474171,140.700807 122.507902,137.432098 118.361914,137.409173 C113.807245,137.383496 110.667596,140.440374 110.653377,144.914962 C110.639158,149.310227 113.743948,152.493195 118.064233,152.511994 M125.438394,136.943328 C125.492059,135.868583 125.554439,134.970823 125.573704,134.071687 C125.582419,133.681496 125.673695,133.515516 126.109898,133.52652 C127.316679,133.556782 128.524836,133.553572 129.731617,133.528354 C130.160481,133.518726 130.271022,133.665448 130.270105,134.078106 C130.260014,141.345012 130.260014,148.611918 130.270105,155.878824 C130.270563,156.296984 130.141216,156.436371 129.721526,156.428118 C128.539055,156.405192 127.356125,156.409777 126.173195,156.426284 C125.796621,156.431786 125.659018,156.311198 125.645257,155.921924 C125.61315,154.965016 125.531964,154.009484 125.47096,153.055327 C125.396195,153.055327 125.329687,153.037445 125.315927,153.057161 C122.920712,156.513859 119.465952,157.410244 115.574071,156.827937 C109.625939,155.938889 106.162005,151.878335 105.884047,145.811805 C105.763873,143.174462 106.125311,140.652205 107.504096,138.361495 C109.697034,134.717726 113.096753,133.178512 117.20146,133.005196 C119.970956,132.887817 122.455613,133.660863 124.448567,135.692974 C124.620571,135.868125 124.777439,136.059323 124.931096,136.251438 C125.069158,136.423837 125.19346,136.607241 125.438394,136.943328" id="Fill-6" fill="#383F7B"></path>
                            <path d="M185.5315,142.705545 C187.649215,142.705545 189.766471,142.706462 191.884645,142.703711 C192.164438,142.703253 192.490558,142.802291 192.411666,142.279591 C192.102976,140.229598 191.089298,138.717436 189.161476,137.862317 C187.721686,137.223614 186.205298,137.142 184.674232,137.273592 C181.771719,137.52302 179.544381,139.381815 178.782517,142.08289 C178.640327,142.587709 178.716009,142.72251 179.252203,142.715633 C181.345149,142.689956 183.438554,142.705087 185.5315,142.705545 M187.784525,146.751427 C184.925587,146.751427 182.065732,146.768392 179.206794,146.737672 C178.605467,146.730794 178.524281,146.871556 178.662343,147.437356 C179.280182,149.9697 180.931422,151.479111 183.36379,152.139822 C185.96541,152.846843 188.488595,152.464447 190.900781,151.300751 C191.208095,151.152653 191.496604,150.954577 191.770434,150.748707 C192.696046,150.051315 192.691,150.04673 193.515244,150.858749 C194.094554,151.429592 194.643591,152.037117 195.267393,152.553856 C195.78891,152.987147 195.638922,153.242995 195.21648,153.614845 C193.553773,155.076571 191.647509,156.054571 189.493558,156.533254 C186.549306,157.187546 183.623401,157.163245 180.773637,156.083457 C176.565269,154.487846 174.338848,151.308088 173.68569,146.959132 C173.317831,144.508861 173.524695,142.092519 174.529657,139.792639 C176.362075,135.5982 179.684736,133.45834 184.138496,132.992495 C186.005773,132.797629 187.877637,132.931055 189.702715,133.462466 C193.824852,134.663301 196.562699,138.013625 197.04431,142.430899 C197.177786,143.659244 197.201178,144.883921 197.143385,146.116851 C197.119533,146.628547 196.939273,146.766558 196.436104,146.76289 C193.552397,146.739506 190.668232,146.751427 187.784525,146.751427" id="Fill-8" fill="#383F7B"></path>
                            <path d="M140.452061,142.624985 C140.511231,142.654788 140.53233,142.674963 140.553888,142.674963 C144.956276,142.685967 149.359123,142.691928 153.762429,142.711185 C154.160102,142.713019 154.205512,142.536035 154.159185,142.214162 C153.955074,140.801037 153.406495,139.572234 152.262094,138.667596 C149.70726,136.648782 145.196623,136.716182 142.618396,138.822572 C141.409321,139.8102 140.727726,141.10778 140.452061,142.624985 M149.576078,146.751565 C146.71714,146.751565 143.858202,146.770363 140.999722,146.736892 C140.373169,146.729098 140.30666,146.947348 140.434631,147.464087 C140.9589,149.581939 142.243656,151.089516 144.257251,151.840554 C147.373966,153.003332 150.391607,152.58884 153.267974,150.961134 C153.704177,150.714456 154.010115,150.041824 154.46604,150.156909 C154.900408,150.265576 155.221483,150.821289 155.595305,151.178009 C156.075999,151.637434 156.540181,152.116118 157.04702,152.545282 C157.444693,152.882744 157.514871,153.110165 157.082338,153.512277 C155.414127,155.06112 153.455574,156.032241 151.258049,156.53385 C148.467454,157.170719 145.68695,157.141833 142.953689,156.2294 C139.558098,155.095508 137.217925,152.840103 136.065726,149.450347 C134.993338,146.293973 134.962607,143.101835 136.233602,139.990394 C137.998136,135.668948 141.374462,133.469482 145.921334,132.994467 C147.686326,132.810146 149.46095,132.912852 151.196586,133.392452 C155.53476,134.591453 157.922636,137.518573 158.721193,141.850564 C158.980805,143.26002 158.9964,144.684607 158.90971,146.11653 C158.879437,146.619973 158.740917,146.768988 158.225821,146.763944 C155.342574,146.737809 152.459326,146.751565 149.576078,146.751565" id="Fill-10" fill="#383F7B"></path>
                            <path d="M38.4379698,153.127221 C37.05735,154.650387 35.5868293,155.765481 33.7443211,156.333115 C27.3948459,158.289572 21.4178169,154.204717 21.0215194,147.545794 C20.7541103,143.044154 20.9742756,138.530594 20.9160236,134.022994 C20.9109781,133.62134 21.0623417,133.524594 21.4352467,133.530097 C22.642945,133.548895 23.8520194,133.566319 25.0588004,133.523677 C25.6009574,133.504879 25.7592012,133.636929 25.7555318,134.204104 C25.7275525,138.073002 25.7440649,141.94144 25.7381021,145.810796 C25.736726,146.655369 25.8431393,147.484353 26.1128417,148.280783 C26.9196558,150.663653 28.5653913,152.01442 31.0940814,152.242758 C33.8034905,152.487143 35.906069,151.508685 37.2954037,149.132234 C37.9430566,148.024477 38.2329409,146.815848 38.2320236,145.53294 C38.2278955,141.762164 38.2421145,137.991846 38.2178045,134.221986 C38.2141351,133.669483 38.3540318,133.502128 38.914536,133.523219 C40.0960897,133.568153 41.2808541,133.553022 42.4633252,133.528721 C42.8839326,133.520009 43.0614409,133.589244 43.0605236,134.078932 C43.0435525,141.348589 43.0449285,148.617787 43.0573128,155.887903 C43.0582302,156.326696 42.9646599,156.490842 42.4903872,156.475252 C41.4069905,156.438572 40.3208417,156.444074 39.2369864,156.47296 C38.8122508,156.483964 38.6815277,156.323028 38.6581351,155.929168 C38.6067632,155.04929 38.5223665,154.171704 38.4379698,153.127221" id="Fill-12" fill="#383F7B"></path>
                            <path d="M54.1718529,136.722097 C55.1268198,135.751434 56.0634397,134.937123 57.1592207,134.323638 C61.8258074,131.710138 69.8343198,133.02239 71.4401504,141.227405 C71.644262,142.270054 71.7167331,143.326917 71.7204025,144.384696 C71.7332455,148.154556 71.712605,151.923957 71.7387496,155.693357 C71.7428777,156.27062 71.6002289,156.459067 71.0076174,156.433849 C69.8756008,156.386623 68.7385388,156.38433 67.606981,156.434766 C66.9987744,156.462277 66.818514,156.29813 66.8235595,155.672724 C66.8524562,151.829504 66.8377785,147.985824 66.8386959,144.142604 C66.8386959,143.325082 66.7341174,142.520858 66.5029438,141.738184 C65.7759397,139.274616 63.916919,137.814265 61.3130058,137.645075 C58.4467289,137.458921 56.1648074,138.768422 55.0217826,141.249872 C54.5507207,142.271429 54.3181711,143.343423 54.3177124,144.467228 C54.316795,148.211869 54.3039521,151.956969 54.3314727,155.701611 C54.3356008,156.290336 54.1718529,156.455399 53.5934603,156.433391 C52.4366752,156.389374 51.2766793,156.403588 50.1189769,156.428806 C49.6864438,156.438434 49.5190264,156.339855 49.5199438,155.862547 C49.5346215,148.594724 49.5341628,141.326443 49.5208612,134.058161 C49.5199438,133.609281 49.6355306,133.456598 50.0983364,133.469894 C51.1817331,133.50199 52.2678818,133.502907 53.3508198,133.469436 C53.8122496,133.455222 53.9484769,133.635416 53.9704934,134.057244 C54.0154438,134.907319 54.0966298,135.755561 54.1718529,136.722097" id="Fill-14" fill="#383F7B"></path>
                            <g id="Group-18" transform="translate(199.983471, 132.807533)">
                                <mask id="mask-4" fill="white">
                                    <use xlink:href="#path-3"></use>
                                </mask>
                                <g id="Clip-17"></g>
                                <path d="M10.590776,0.1354435 C13.6093339,0.10472341 16.3852512,0.812202489 18.7758793,2.75903086 C19.1542884,3.06760728 19.2579496,3.24321615 18.8795405,3.64578688 C18.1722595,4.39865833 17.5241479,5.20746785 16.8668628,6.00481465 C16.6398174,6.27900292 16.4847843,6.32301976 16.1756355,6.07038141 C13.6391479,3.99379505 10.7205818,3.87045619 7.71945372,4.60498729 C6.08013967,5.00618249 5.38799504,6.22948397 5.76365207,7.55090633 C5.97693719,8.3046948 6.50441653,8.74486324 7.18692893,9.04151844 C8.5400281,9.62978523 9.9871562,9.76321129 11.4306149,9.92827446 C12.9199413,10.0983812 14.4111025,10.2716975 15.832086,10.8012752 C18.3341727,11.7338821 20.0152264,13.3501256 20.2707099,16.1387762 C20.5505033,19.1878597 19.3088628,21.4450985 16.6425694,22.9109511 C14.4111025,24.1379207 11.978276,24.4199036 9.48673884,24.2603425 C6.32690826,24.0585987 3.35742893,23.3126048 0.995697521,21.0072226 C0.942949587,20.9554111 0.886990909,20.9072677 0.833784298,20.8559147 C0.0494454545,20.1062528 0.0512801653,20.1076283 0.711317355,19.2249989 C1.22687107,18.5344846 1.76627603,17.8591012 2.23871405,17.1406179 C2.5501562,16.6665198 2.72582975,16.754095 3.09965207,17.095684 C5.82190413,19.5840113 9.02485041,20.4602216 12.6461107,19.829772 C13.2813793,19.7192714 13.8675694,19.4547118 14.390462,19.072774 C16.0664702,17.8485555 15.8421769,15.6522983 13.9524248,14.7958039 C12.6777595,14.2171658 11.3076893,14.0608143 9.93624298,13.9186765 C8.1432719,13.731605 6.37644545,13.4239456 4.72841653,12.6541093 C2.55932975,11.6412633 1.06954463,10.1084684 0.905338017,7.57704133 C0.723242975,4.77738659 1.99836694,2.80671577 4.3899124,1.49629762 C6.31773471,0.439893343 8.41480909,0.0941777076 10.590776,0.1354435" id="Fill-16" fill="#383F7B" mask="url(#mask-4)"></path>
                            </g>
                            <path d="M10.5038566,147.242307 C10.5038566,150.075432 10.4868855,152.9081 10.5180756,155.740309 C10.5240384,156.298772 10.3790963,156.454665 9.82455496,156.433574 C8.66822851,156.389557 7.50731529,156.384055 6.35144752,156.43495 C5.74324091,156.461085 5.62857149,156.244668 5.6304062,155.684371 C5.65012934,150.093314 5.6304062,144.501341 5.65838554,138.910285 C5.66205496,138.227565 5.54325744,137.951543 4.79194339,138.008398 C3.81220785,138.082676 2.82146405,138.007481 1.83668306,138.03545 C1.41974504,138.046913 1.28397645,137.924032 1.29544339,137.499912 C1.3238814,136.441215 1.32112934,135.381142 1.29636074,134.322446 C1.28718719,133.929504 1.41515826,133.816252 1.79998884,133.824964 C2.80999711,133.848348 3.82413347,133.78003 4.82955496,133.85064 C5.5501376,133.901535 5.69095165,133.626888 5.6528814,132.985434 C5.56940207,131.577812 5.65563347,130.172482 6.10467893,128.824467 C7.15275744,125.675428 9.39385661,123.944099 12.6445054,123.532358 C14.9135839,123.244873 17.0450591,123.724015 19.0127864,124.919806 C19.4113773,125.162815 19.5732905,125.328795 19.2856996,125.808396 C18.7806955,126.649759 18.3499971,127.537432 17.9298483,128.425564 C17.7454599,128.815755 17.5849227,128.856104 17.223026,128.6296 C16.1134847,127.933584 14.9145012,127.51038 13.5815839,127.721753 C12.0142822,127.970265 10.9891376,128.992281 10.6543029,130.54846 C10.449274,131.499407 10.5341293,132.4609 10.4969764,133.418725 C10.477712,133.904744 10.7845674,133.833217 11.0762864,133.833217 C12.9490674,133.832758 14.8227657,133.860269 16.6941707,133.817627 C17.3276045,133.802497 17.4817202,134.005158 17.4482368,134.604887 C17.3968649,135.537952 17.4110839,136.476978 17.4445674,137.411419 C17.4615384,137.885976 17.3331087,138.045996 16.8340674,138.038659 C14.9374351,138.009315 13.0389682,138.045996 11.142336,138.0139 C10.618526,138.005188 10.4873442,138.157872 10.491931,138.670943 C10.5166996,141.527911 10.5038566,144.385338 10.5038566,147.242307" id="Fill-19" fill="#383F7B"></path>
                            <path d="M88.4143438,152.405895 C84.2568893,152.421026 81.2250298,149.373776 81.2149388,145.168334 C81.2034719,140.633223 84.025257,137.569467 88.2239926,137.557088 C92.5149223,137.544708 95.6394347,140.62497 95.6843851,144.912027 C95.7284182,149.123889 92.559414,152.390764 88.4143438,152.405895" id="Fill-23" fill="#FEFEFE"></path>
                        </g>
                    </g>
                </g>
            </g>
        </g>
    </g>
</svg>