<?xml version="1.0" encoding="UTF-8"?>
<svg width="171px" height="86px" viewBox="0 0 171 86" version="1.1" xmlns="http://www.w3.org/2000/svg" xmlns:xlink="http://www.w3.org/1999/xlink">
    <!-- Generator: Sketch 50.2 (55047) - http://www.bohemiancoding.com/sketch -->
    <title>Group</title>
    <desc>Created with Sketch.</desc>
    <defs>
        <polygon id="path-1" points="2.54820142e-05 0.209655864 69.9478756 0.209655864 69.9478756 85.2110092 2.54820142e-05 85.2110092"></polygon>
        <polygon id="path-3" points="0.0879492733 0.259783667 3.756 0.259783667 3.756 5.81059215 0.0879492733 5.81059215"></polygon>
        <polygon id="path-5" points="0 0.209714972 69.9479642 0.209714972 69.9479642 85.2109702 0 85.2109702"></polygon>
    </defs>
    <g id="00-Home" stroke="none" stroke-width="1" fill="none" fill-rule="evenodd">
        <g id="00-E-Home-2560" transform="translate(-1123.000000, -4137.000000)">
            <g id="Group-49" transform="translate(-1360.000000, -250.000000)">
                <g id="Group-28">
                    <g id="Módulo-5" transform="translate(2031.000000, 4101.000000)">
                        <g id="Group-10" transform="translate(0.000000, 174.000000)">
                            <g id="Group-8">
                                <g id="Group" transform="translate(452.000000, 112.000000)">
                                    <g id="Group-3">
                                        <mask id="mask-2" fill="white">
                                            <use xlink:href="#path-1"></use>
                                        </mask>
                                        <g id="Clip-2"></g>
                                        <path d="M23.9553144,59.2073372 C23.0119956,59.2073372 22.053393,59.2153065 21.0947904,59.2058046 C19.1118646,59.1858811 17.1387205,59.2977589 15.1826943,59.6370704 C11.9825633,60.192168 8.93160262,61.1742402 6.15391703,62.8993034 C3.97688646,64.251645 2.12662445,65.9439111 1.03046725,68.3132676 C-0.345078603,71.287377 -0.457262009,74.2418695 1.39116594,77.0939862 C2.79819651,79.2650279 4.75086026,80.8359143 6.98596943,82.0610524 C11.3167991,84.4356196 15.9878472,85.3358525 20.8884585,85.197308 C24.123131,85.1056602 27.2557074,84.4794512 30.3268428,83.4743904 C33.4817336,82.4420498 36.1573231,80.7372166 38.0943974,77.9945256 C40.0629563,75.20739 40.8714716,72.1336633 40.152214,68.746679 C39.5665371,65.9886622 38.0152271,63.8130228 35.9152271,62.0042812 C34.4492009,60.7414418 32.8285022,59.6818215 31.2842227,58.5213579 C29.7475852,57.3670246 28.2283712,56.1918483 26.9879345,54.7031077 C26.2185459,53.7795798 25.6145284,52.7729864 25.4265371,51.5561242 C25.3770175,51.2355101 25.4152271,51.0706053 25.7979345,50.9817161 C28.9947031,50.2396447 31.7176725,48.6715169 33.8794192,46.1789417 C35.5511659,44.251579 36.7035677,42.0489664 36.9847904,39.4904905 C37.3369301,36.2861887 36.5467555,33.3252594 34.8193755,30.6119937 C34.3810349,29.9232558 33.853131,29.3056293 33.2500306,28.6662402 L33.672476,28.6662402 C36.4480218,28.6662402 39.2235677,28.6748226 41.9988079,28.6564317 C42.3711223,28.6539796 42.451821,28.7474665 42.4515153,29.1137513 C42.4408166,40.9936372 42.4438734,52.8735231 42.4359258,64.7537156 C42.4359258,65.0620691 42.4869738,65.1653645 42.8271921,65.1632189 C45.3578908,65.1460541 47.8888952,65.1457476 50.4195939,65.1629124 C50.7796812,65.165058 50.8771921,65.090575 50.8768865,64.7126427 C50.8649651,52.8327567 50.8686332,40.9525643 50.8591572,29.0726783 C50.8588515,28.7348994 50.9465808,28.6567382 51.2761004,28.6582708 C54.0024323,28.6723705 56.7290699,28.6662402 59.4557074,28.6662402 C59.9316463,28.6662402 59.931952,28.6662402 59.931952,29.1591154 C59.931952,41.0147867 59.933786,52.8701515 59.923393,64.7255163 C59.9230873,65.0813795 60.0089825,65.165058 60.3611223,65.1629124 C62.8795939,65.1460541 65.3986769,65.1451345 67.9168428,65.1635254 C68.2802926,65.166284 68.3466245,65.0654408 68.3463188,64.7209186 C68.3368428,51.9092288 68.3383712,39.097539 68.3383712,26.2858492 C68.3383712,25.7969587 68.3380655,25.7969587 67.8630437,25.7969587 C62.3122576,25.7969587 56.7614716,25.7969587 51.2106856,25.7963457 C51.0388952,25.7960392 50.8567118,25.8607137 50.8606856,25.5453104 C50.9126507,21.3169439 50.7564498,17.0867384 50.9511659,12.860211 C51.0327817,11.0928489 51.3797249,9.36288147 52.0491572,7.71291434 C53.4396812,4.28393751 56.4723013,2.33450579 60.0692009,2.55182451 C61.3389825,2.62845312 62.1361878,3.35642487 62.2743537,4.62140989 C62.3822576,5.60654724 62.1328253,6.52271884 61.5716026,7.33620812 C60.9559694,8.22816508 60.6362314,9.20134837 60.6007729,10.2876355 C60.5536987,11.7337705 61.182476,12.8231228 62.4990262,13.4364581 C63.9412096,14.1083377 65.4047904,14.0691039 66.8790699,13.5348493 C68.233524,13.0441197 69.1257948,12.1071051 69.5983712,10.7520048 C69.9966681,9.61023861 70.0648341,8.4516141 69.7496812,7.28348764 C68.813393,3.81129227 66.4630437,1.68254961 63.1427817,0.669519451 C60.5096812,-0.133548333 57.8417336,0.188904838 55.253262,1.06614911 C52.3759258,2.041478 49.9864498,3.76868677 47.9310786,5.97896226 C46.6108603,7.39873706 45.4067991,8.90924013 44.5738297,10.6796674 C43.3266681,13.3319367 42.814048,16.1632104 42.5783712,19.0579326 C42.4074978,21.1609281 42.4365371,23.2694408 42.4490699,25.3764209 C42.4509039,25.6887591 42.4023013,25.8076867 42.0449651,25.8064606 C37.7413406,25.7914414 33.4377162,25.7960392 29.133786,25.7991043 C28.9225633,25.7991043 28.7290699,25.7610965 28.5312969,25.6832418 C24.83169,24.230057 21.0244847,23.6611662 17.0766681,24.3229308 C13.212607,24.9709023 9.93941921,26.6990306 7.42400437,29.7494622 C5.47867686,32.1080906 4.34431004,34.8198237 4.15784716,37.8865005 C4.00103493,40.4658194 4.79824017,42.7916508 6.23828384,44.899857 C8.22854585,47.8141961 11.002869,49.6591064 14.3191572,50.7316004 C16.5123886,51.4408747 18.7722576,51.7050902 21.0697249,51.6925231 C21.2424323,51.691297 21.4212533,51.6281551 21.4227817,51.9438649 C21.4292009,53.2532945 21.6945284,54.5204251 22.1276725,55.7520001 C22.5715153,57.0136134 23.1712533,58.195533 23.9553144,59.2073372" id="Fill-1" fill="#FEFEFE" mask="url(#mask-2)"></path>
                                    </g>
                                    <path d="M102.085614,51.5769189 C101.959894,51.1045852 101.853445,50.6921377 101.739349,50.28184 C101.624335,49.8687783 101.511769,49.4547953 101.380543,49.0472616 C98.8903102,41.2992071 94.7042358,34.6165139 88.8174253,29.0228295 C83.4194234,23.8931868 77.1227233,20.4652354 69.7832517,19.0589831 C69.2087944,18.9487309 69.2094062,18.9419745 69.1078514,19.4993775 C69.0815451,19.6440258 69.0781803,19.7963519 69.0295441,19.9327083 C68.9472603,20.1645757 69.0414738,20.2296828 69.2546776,20.2680714 C75.6091905,21.4123598 81.1953133,24.186476 86.1289775,28.325999 C89.5894861,31.2294081 92.5128557,34.6143641 94.9553697,38.4151459 C97.7465958,42.7585894 99.815009,47.4162054 100.946488,52.4755201 C100.998489,52.7076945 100.959029,52.8655486 100.812815,53.0415221 C100.043507,53.967763 99.3561773,54.953276 98.8003792,56.0232439 C97.8765981,57.8020196 97.2382102,59.6535802 97.5404274,61.7044545 C97.7086657,62.8502784 98.108461,63.8941421 99.0765959,64.6158484 C99.8587509,65.1984343 100.78192,65.1087584 101.468332,64.4122351 C101.957753,63.9156397 102.207969,63.2922083 102.376513,62.6325381 C103.058337,59.9609963 103.024384,57.2615077 102.629177,54.5586408 C102.417502,53.1106216 102.374678,53.1072434 103.412249,52.0861058 C106.31543,49.2293773 109.66276,47.0274053 113.349014,45.3303206 C114.116487,44.9768381 114.120769,44.9860514 113.79561,44.221964 C113.781234,44.188182 113.765022,44.1547071 113.756151,44.1190825 C113.688244,43.8494407 113.555183,43.8239507 113.304661,43.9360455 C110.682284,45.1070523 108.205817,46.5283531 105.899423,48.245707 C104.562082,49.2416616 103.310695,50.3374268 102.085614,51.5769189" id="Fill-4" fill="#FEFEFE"></path>
                                    <path d="M125,40.5233844 C125.000577,37.9793422 123.048499,36.0014446 120.535797,36.0000011 C117.992206,35.9982689 116.000289,37.974723 116,40.500577 C116,42.9984269 118.009815,45.0023076 120.513279,44.999998 C123.008372,44.9979771 124.999423,43.0111298 125,40.5233844" id="Fill-6" fill="#FEFEFE"></path>
                                    <path d="M142.030974,70.4818312 C142.149882,70.5348831 142.140593,70.6526019 142.171249,70.7395569 C142.518683,71.7161521 142.877884,72.6886665 143.194662,73.675621 C143.301493,74.007745 143.504318,73.9788646 143.755758,73.9976996 C144.02454,74.0184181 144.117127,73.8985019 144.193612,73.6655756 C144.754709,71.9559846 145.327572,70.2507884 145.896101,68.5437087 C146.073534,68.0116197 146.071056,68.0376748 145.507483,68.0022022 C145.162835,67.980228 145.044856,68.1227462 144.953818,68.4278734 C144.557148,69.7538581 144.138493,71.0729366 143.726651,72.3973516 C143.626941,72.3464971 143.629109,72.2350567 143.598143,72.1443347 C143.191255,70.9630657 142.788083,69.7811688 142.380266,68.6002137 C142.173416,68.0009465 142.1697,68.0182119 141.543576,68.0047135 C141.239803,67.9984352 141.227107,68.0888432 141.319385,68.3428019 C141.424049,68.6309776 141.6662,68.9235481 141.570825,69.2242804 C141.230514,70.2969342 140.840347,71.3529504 140.452348,72.4642159 C140.404042,72.3684713 140.376173,72.3273482 140.361619,72.2821442 C139.975168,71.0810984 139.589337,69.8800526 139.205053,68.6780651 C138.989533,68.0031439 138.990772,68.0157006 138.28104,68.0053413 C137.999563,68.0015743 137.94816,68.0618464 138.044772,68.334954 C138.674613,70.1132928 139.295783,71.8947708 139.905186,73.6800158 C139.989103,73.9270683 140.103056,74.011512 140.356045,73.99613 C140.596957,73.9816899 140.779345,73.996444 140.883389,73.6853524 C141.24228,72.6123847 141.642975,71.5538571 142.030974,70.4818312" id="Fill-8" fill="#FEFEFE"></path>
                                    <path d="M66.6763935,72.4574551 C66.2155619,71.1088625 65.7914119,69.8551173 65.3580145,68.6048268 C65.1034012,67.8714864 65.310236,68.040453 64.5312919,68.0033934 C64.2338321,67.9895746 64.1768061,68.0957284 64.313052,68.3391283 C64.619451,68.8849723 64.5445466,69.4094599 64.3179839,69.9716352 C63.9989467,70.7621354 63.7443334,71.579331 63.4576623,72.398411 C63.3229577,72.3198949 63.3303556,72.2068317 63.3026133,72.1207781 C62.9324068,70.9794679 62.571756,69.8347031 62.2027825,68.693393 C61.9749868,67.9880043 61.9703631,68.0002528 61.2561512,68.0024512 C60.9839678,68.0037075 60.9559171,68.0687188 61.046234,68.3249954 C61.673828,70.1029141 62.2912498,71.8846016 62.8938757,73.6713142 C62.983576,73.9376408 63.1151981,73.9951146 63.3679619,73.9979412 C63.6355217,74.0010818 63.7813232,73.9429799 63.8774968,73.6584375 C64.2387641,72.5903044 64.6308562,71.5331635 65.0272638,70.4267145 C65.0710351,70.5269011 65.0990857,70.5809202 65.1191219,70.6380799 C65.4732995,71.6521939 65.8444307,72.6603408 66.1696329,73.6832486 C66.2793694,74.0287195 66.4969928,73.967791 66.7377349,73.9954286 C67.0145421,74.0280913 67.0965362,73.8826795 67.1643509,73.6565531 C67.2935071,73.2259708 67.4411581,72.8013557 67.5829524,72.3748562 C68.036386,71.0111884 68.4910526,69.6478348 68.9423285,68.2832248 C68.9697626,68.1993696 69.0594629,68.0473624 68.938013,68.0297748 C68.6729193,67.991459 68.3948791,67.9892605 68.1300936,68.0282045 C67.9654889,68.0527015 67.9812095,68.2675216 67.938363,68.4041396 C67.5246935,69.7216399 67.1165724,71.0407105 66.6763935,72.4574551" id="Fill-10" fill="#FEFEFE"></path>
                                    <path d="M55.066642,72.3226727 C54.1104368,71.004927 53.1840377,69.7615141 52.2982833,68.4867865 C52.0396623,68.1148064 51.767192,67.974365 51.3426803,68.0037818 C51.0858657,68.0214951 50.9973505,68.0638806 51.0000601,68.3593137 C51.0154148,70.0155106 51.0075869,71.6723402 51.0075869,73.3291697 C51.0075869,74.0054396 51.0075869,73.9899404 51.6539889,73.9943688 C51.9159217,73.9965829 51.9403085,73.8808136 51.9385021,73.6578154 C51.9303731,72.6209526 51.9348892,71.5837735 51.9348892,70.5469107 L51.9348892,69.6137975 C52.004738,69.6783246 52.0330388,69.6969869 52.0520063,69.7235569 C52.9769,71.0004987 53.9150409,72.2676348 54.8158489,73.5632388 C55.0524916,73.9035879 55.3020805,74.0161941 55.6826357,73.9981645 C55.9325256,73.9861447 56.0017722,73.9260459 55.9999658,73.6600295 C55.9879229,71.9908639 55.9939443,70.3216983 55.9939443,68.6522164 C55.9939443,67.9993534 55.9939443,68.0116895 55.3589831,68.0094753 C55.1175232,68.0085264 55.0573088,68.089818 55.0612227,68.3349579 C55.074771,69.2070234 55.066642,70.0797215 55.066642,70.9524196 L55.066642,72.3226727 Z" id="Fill-12" fill="#FEFEFE"></path>
                                    <path d="M105.065259,72.3271915 C104.113435,71.0193565 103.189012,69.7917995 102.315779,68.5247356 C102.031226,68.111968 101.730412,67.9552048 101.2679,68.0108304 C101.075487,68.0335864 100.987562,68.0645598 101.001413,68.2883266 C101.018878,68.5778328 101.00593,68.8692354 101.00593,69.1600059 C101.00593,70.6637948 101.010145,72.1678998 101.001112,73.6720048 C100.999606,73.909362 101.047182,74.0288307 101.293795,73.9880597 C101.376,73.9744693 101.463925,73.9735211 101.545829,73.9880597 C101.857181,74.0427371 101.921319,73.8986161 101.916802,73.5910948 C101.899638,72.4033607 101.908371,71.2149945 101.912586,70.0272604 C101.913189,69.9036829 101.863806,69.7589298 101.974315,69.6524193 C102.935473,70.9713162 103.895126,72.2674571 104.82798,73.5844576 C105.045686,73.8913469 105.271823,74.0060748 105.631957,73.9997537 C105.938492,73.9940647 106.002629,73.9052533 105.999919,73.5970998 C105.984562,71.9412885 105.992692,70.2857932 105.992692,68.6299819 C105.992692,68.0127268 105.991789,68.0329543 105.405819,68.0108304 C105.098381,67.9991364 105.057731,68.1280868 105.059839,68.4040027 C105.071582,69.6890817 105.065259,70.9744767 105.065259,72.3271915" id="Fill-14" fill="#FEFEFE"></path>
                                    <path d="M127.934265,69.5815067 C128.920591,70.9350674 129.881317,72.2273752 130.808914,73.5449419 C131.051656,73.88941 131.303131,74.0397004 131.705491,73.9910771 C131.903359,73.9670811 132.000034,73.9557146 131.998528,73.7037572 C131.987686,71.8980625 131.993408,70.0926835 131.990999,68.2869888 C131.990999,68.2052131 132.033162,68.0751298 131.934981,68.0511339 C131.676278,67.9895654 131.399806,67.9763044 131.151342,68.0520811 C131.001059,68.0978628 131.081471,68.3226669 131.080869,68.4647482 C131.075448,69.7434794 131.077857,71.0222105 131.077857,72.3290422 C130.137611,71.0373659 129.195858,69.7794733 128.298076,68.4877969 C128.037265,68.1123867 127.761094,67.9854608 127.340362,68.0094567 C127.074431,68.0242963 126.997934,68.0883908 127.000042,68.3738162 C127.013595,70.0402713 127.006668,71.7067264 127.006668,73.3734972 C127.006668,73.9847623 127.00727,73.9702385 127.599065,73.9885512 C127.860479,73.9961288 127.94571,73.9374019 127.941795,73.6418729 C127.924628,72.3072565 127.934265,70.9716928 127.934265,69.5815067" id="Fill-16" fill="#FEFEFE"></path>
                                    <path d="M151.002302,70.9989976 C151.002302,71.899736 151.002943,72.8004744 151.001981,73.7012129 C151.001661,73.8545098 150.973142,74.0093936 151.220839,73.9995547 C151.999499,73.9687684 152.782325,74.0570014 153.558101,73.9144955 C155.043964,73.6412271 155.987328,72.5332363 155.999825,71.0367664 C156.013604,69.4139772 155.212834,68.411993 153.640453,68.0996862 C152.82975,67.938772 152.006869,68.0260529 151.189437,68.0060577 C150.959043,68.0006621 151.003584,68.1644327 151.003263,68.2967822 C151.001661,69.1975207 151.002302,70.0982591 151.002302,70.9989976" id="Fill-18" fill="#FEFEFE"></path>
                                    <path d="M77.0070631,70.9860569 L77.0070631,73.3414034 C77.0070631,74.0007864 77.0070631,73.9855845 77.6802138,73.9944522 C77.9520445,73.9982527 77.9922087,73.8959565 77.9877103,73.6657109 C77.9751791,72.9949264 77.991566,72.3235086 77.9783922,71.6524075 C77.9742151,71.4348301 78.04394,71.3711721 78.2621116,71.3740224 C79.0711776,71.3851071 79.8808863,71.3904912 80.689631,71.3718055 C80.9736717,71.3651546 81.0286162,71.4677676 81.02219,71.719866 C81.0061243,72.3649972 81.0302228,73.0117119 81.0106227,73.6568431 C81.0025899,73.9257269 81.0877378,74.0273897 81.3553915,73.9887515 C81.4437526,73.9764 81.5372546,73.9748164 81.6246518,73.9890682 C81.936004,74.0410081 82.0021945,73.9064078 81.9999453,73.6163046 C81.9861289,71.9573958 81.9931977,70.2988038 81.9931977,68.6402117 C81.9935191,67.9963473 81.9931977,68.0118659 81.3447882,68.0007812 C81.058177,67.9963473 81.0054817,68.1027607 81.0119079,68.3532755 C81.027331,68.9737036 81.0080522,69.5944484 81.0209047,70.2145598 C81.0257244,70.4422718 80.9588913,70.5246155 80.7182279,70.5204983 C79.9091618,70.5081468 79.0994531,70.504663 78.2903871,70.5227153 C78.0143793,70.5290494 77.9738938,70.4153518 77.9793561,70.1863729 C77.9918873,69.6672909 77.9835332,69.1478922 77.9835332,68.6291269 C77.9835332,68.0010979 77.9828906,68.0178833 77.3617926,68.0004645 C77.066506,67.9925468 76.9945319,68.0847084 77.0003155,68.3653104 C77.0186304,69.2381536 77.0070631,70.1122636 77.0070631,70.9860569" id="Fill-20" fill="#FEFEFE"></path>
                                    <path d="M112.791812,69.2362559 C112.791812,69.0043832 112.772907,68.8292388 112.796386,68.6596742 C112.834196,68.383473 112.714057,68.2737365 112.464632,68.1993388 C111.736174,67.9835857 111.004668,67.9352272 110.262489,68.0923922 C109.080918,68.3428643 108.170118,69.3469223 108.030769,70.5444143 C107.859708,72.0091177 108.406737,73.19514 109.551412,73.7053838 C110.660106,74.1998181 111.763312,74.0181638 112.843954,73.5572085 C113.005867,73.4883907 113.000683,73.3619147 112.999769,73.2221091 C112.997634,72.7019457 112.998854,72.1814722 112.998854,71.6609988 C112.998854,70.9284921 112.999464,70.9350019 112.257895,70.9830503 C112.093237,70.99359 112.053293,71.0481483 112.056952,71.2022134 C112.065489,71.5487823 112.059696,71.8959713 112.059696,72.2428503 C112.059696,73.130662 112.011518,73.1790205 111.123282,73.1821204 C111.086996,73.1821204 111.050406,73.1833604 111.013815,73.1818104 C109.778883,73.1294221 108.972366,72.2320006 108.990052,70.931592 C109.008042,69.6606324 109.813035,68.8469082 111.051016,68.8134293 C111.651711,68.7973098 112.201179,68.9616046 112.791812,69.2362559" id="Fill-22" fill="#FEFEFE"></path>
                                    <path d="M89,73.9457892 C88.9707456,73.8663722 88.9521941,73.8064943 88.9265073,73.7491375 C88.1170175,71.9392494 87.301106,70.1315673 86.5044595,68.3175823 C86.3992151,68.0780707 86.268284,68.0049567 85.9818052,68.0002295 C85.6821263,67.9945568 85.5569033,68.0938281 85.4591509,68.3242004 C85.0210489,69.3588274 84.5668926,70.388412 84.1180878,71.4192572 C83.7524081,72.2600689 83.3853015,73.1005654 83,73.9854977 C83.2511595,73.9854977 83.4516589,73.9637525 83.6439529,73.9902249 C83.9953621,74.0384423 84.1591152,73.9073412 84.2490189,73.6177213 C84.3424902,73.3158107 84.4944702,73.0287119 84.6014984,72.7296376 C84.6732073,72.5304648 84.7948626,72.4573508 85.0363896,72.4677506 C85.4773457,72.4860291 85.9197289,72.472793 86.3617553,72.472793 C87.1858723,72.472793 87.1858723,72.472793 87.4880485,73.1585524 C87.8751338,74.0371817 87.8751338,74.0371817 88.925437,73.9766735 C88.9386372,73.9757281 88.9511238,73.9659586 89,73.9457892" id="Fill-24" fill="#FEFEFE"></path>
                                    <path d="M161,73.9850564 C161.210431,73.9850564 161.379432,73.9629749 161.540982,73.9901036 C161.835467,74.0389983 161.964229,73.9055631 162.039341,73.6153494 C162.120711,73.3021078 162.261993,73.006216 162.354988,72.695498 C162.408043,72.5175844 162.496567,72.4630116 162.664674,72.4674279 C163.045298,72.4784686 163.426519,72.4708978 163.807144,72.4708978 C164.495666,72.4708978 164.495666,72.4708978 164.744547,73.1541619 C165.061387,74.0232258 165.061387,74.0232258 165.943351,73.9781165 C165.962427,73.9771702 165.980608,73.956035 165.999088,73.9431016 C165.998492,73.9191274 166.003261,73.8919987 165.995512,73.8708636 C165.293875,71.9895216 164.585382,70.1113341 163.896562,68.2246294 C163.802673,67.9684843 163.645296,68.0183253 163.474209,68.0031837 C163.2757,67.9855186 163.157668,68.0372523 163.078085,68.2624834 C162.612215,69.5794859 162.127865,70.8895485 161.649774,72.2021347 C161.437852,72.7838239 161.225633,73.3661441 161,73.9850564" id="Fill-26" fill="#FEFEFE"></path>
                                    <path d="M97.0048554,70.9760386 C97.0048554,71.8885058 97.0098514,72.8009731 97.001035,73.7134403 C96.9989778,73.9233268 97.0509944,73.9997356 97.256122,73.9968822 C98.0783958,73.9854684 98.9012572,73.9778593 99.7232371,73.9997356 C100.029165,74.0079789 100.009769,73.8221882 99.9877282,73.6176915 C99.9674506,73.4277791 100.117917,73.1348258 99.7297024,73.1509953 C99.2139446,73.1731887 98.6961296,73.1484589 98.1794902,73.1608238 C97.9773013,73.1655795 97.8803212,73.1243631 97.8923703,72.8729432 C97.9117663,72.4683886 97.9085336,72.0616146 97.8932519,71.6567429 C97.8847294,71.4256142 97.9529094,71.3438155 98.1709677,71.3520588 C98.5932719,71.3669601 99.0176333,71.3377916 99.439056,71.3625214 C99.7417514,71.3799591 99.7276452,71.1871933 99.7061921,70.9792091 C99.686796,70.7867603 99.8305029,70.494124 99.4464029,70.5131469 C99.0126374,70.5343892 98.5771086,70.5118787 98.1424614,70.520439 C97.9658401,70.5242436 97.8879621,70.4690771 97.8941336,70.2629952 C97.9061826,69.8708055 97.9044193,69.4770305 97.8947213,69.0845238 C97.890607,68.9006353 97.9573176,68.8397619 98.121596,68.8429324 C98.4854183,68.8508586 98.8542366,68.8074229 99.2130629,68.8552973 C99.6274325,68.9101468 99.7873027,68.7215026 99.888691,68.3182161 C99.9598097,68.0373107 99.9033849,67.9992648 99.6662245,68.0027523 C98.8792163,68.013849 98.0916203,68.0186048 97.304906,68.0002159 C97.0430597,67.994509 96.9969207,68.1016716 97.0001533,68.3527745 C97.0119085,69.2265618 97.0048554,70.1013002 97.0048554,70.9760386" id="Fill-28" fill="#FEFEFE"></path>
                                    <path d="M58.0048692,71.0132998 C58.0048692,71.9134493 58.0098649,72.8139158 58.001049,73.7140653 C57.998992,73.9245969 58.0527688,73.9997415 58.2572968,73.9968879 C59.0798168,73.9854736 59.9026306,73.977864 60.7248567,73.9997415 C61.0334119,74.0079852 61.0072582,73.8177458 60.9881572,73.615775 C60.9696438,73.4245843 61.1148117,73.1341522 60.7280892,73.1506396 C60.200019,73.1734683 59.6704796,73.1506396 59.1418217,73.1598345 C58.9672676,73.162371 58.887631,73.1173477 58.8940959,72.9077673 C58.9070259,72.476875 58.9055565,72.0453486 58.8946836,71.6144563 C58.8893941,71.4128025 58.9596272,71.3493894 59.1397646,71.3531942 C59.5743867,71.3627062 60.0101841,71.3373409 60.4439246,71.362072 C60.7918573,71.3817301 60.7054618,71.1318823 60.7063434,70.9353016 C60.7075189,70.7368185 60.7862739,70.4914096 60.4412798,70.5113848 C60.0075394,70.53675 59.5717419,70.5107507 59.1371199,70.5205797 C58.9537499,70.5247015 58.8891003,70.45463 58.8946836,70.2561469 C58.9058504,69.8763022 58.908789,69.4951892 58.8938021,69.1156616 C58.8846923,68.8867402 58.9763773,68.8366438 59.1641552,68.8420339 C59.5164958,68.8531312 59.8720689,68.8144492 60.2208832,68.8531312 C60.6005531,68.8949839 60.7912696,68.760231 60.8835423,68.3515333 C60.9417269,68.0937589 60.9634727,67.9945173 60.6687291,68.0008586 C59.8817664,68.0179802 59.0939221,68.0182973 58.3069595,68.0002245 C58.0471854,67.9945173 57.9966411,68.0972466 58.0001675,68.3508992 C58.0125097,69.238049 58.0048692,70.1255158 58.0048692,71.0132998" id="Fill-30" fill="#FEFEFE"></path>
                                    <path d="M114.004854,70.9776033 C114.004854,71.8900606 114.010733,72.8025178 114.000738,73.7149751 C113.99868,73.9286638 114.054537,73.999365 114.257387,73.9965116 C115.079956,73.985732 115.903113,73.9762207 116.725094,73.999682 C117.072878,74.0098275 116.993502,73.7752137 116.989386,73.5783284 C116.985858,73.3881011 117.084343,73.1335134 116.730386,73.1503169 C116.202683,73.1750464 115.673217,73.1534873 115.144338,73.15856 C114.998816,73.1601453 114.900625,73.150951 114.906505,72.942652 C114.91944,72.4870575 114.918558,72.0298777 114.906799,71.5742832 C114.902095,71.3710569 114.995876,71.3517171 115.144044,71.3542535 C115.484479,71.3605944 115.825501,71.3561558 116.166523,71.3561558 C116.703339,71.3561558 116.693638,71.3561558 116.689816,70.7953021 C116.688346,70.5819304 116.634547,70.5071077 116.431697,70.5134486 C115.997188,70.5280327 115.562091,70.5112292 115.127287,70.5213747 C114.958834,70.5248622 114.901213,70.467477 114.906799,70.2826394 C114.918558,69.9025017 114.92238,69.5217299 114.905917,69.1422263 C114.895921,68.9139535 114.952954,68.827083 115.176677,68.8400819 C115.516523,68.8597387 115.863131,68.8045728 116.197391,68.8553001 C116.632783,68.9215626 116.796238,68.7072398 116.897075,68.2963487 C116.956754,68.0519065 116.933823,67.9980087 116.697459,68.0018133 C115.898409,68.0154462 115.099359,68.0189337 114.300602,68.0002281 C114.035428,67.9942042 113.99721,68.1073895 114.00015,68.354685 C114.012203,69.2284627 114.005148,70.1031916 114.004854,70.9776033" id="Fill-32" fill="#FEFEFE"></path>
                                    <path d="M134.005206,70.9869621 C134.005206,71.8739306 134.012887,72.761216 134.000184,73.6481845 C133.996934,73.8957622 134.034452,74.0041765 134.300325,73.9975195 C135.103262,73.9778654 135.90679,73.9696234 136.709136,73.9994215 C137.0787,74.0133695 136.985644,73.7724488 136.993916,73.5641793 C137.003369,73.3324516 137.042364,73.118793 136.689048,73.1451041 C136.183593,73.1831442 135.673708,73.1470061 135.166481,73.1587351 C134.974461,73.1628561 134.890564,73.113087 134.89854,72.8870654 C134.913606,72.4695752 134.907698,72.0508171 134.901198,71.6326929 C134.898244,71.4558064 134.926309,71.3448561 135.128668,71.3515131 C135.482575,71.3635591 135.837072,71.3546831 136.191274,71.3546831 C136.725975,71.3543661 136.710318,71.3543661 136.717408,70.7954936 C136.720362,70.5387228 136.62317,70.5073398 136.425538,70.5130458 C136.001027,70.5250918 135.575335,70.5098758 135.150528,70.5193858 C134.971803,70.5231898 134.894699,70.4654956 134.900017,70.2619811 C134.910947,69.869534 134.908879,69.4761359 134.900903,69.0833718 C134.897358,68.9020473 134.964417,68.8386471 135.129554,68.8421341 C135.483756,68.8500591 135.842094,68.808215 136.191274,68.8535462 C136.611058,68.9074363 136.809577,68.7410108 136.903224,68.3086216 C136.95433,68.069603 136.941627,67.9982778 136.699978,68.0017648 C135.897041,68.0131768 135.094104,68.0157128 134.291167,68.0001798 C134.050109,67.9954248 133.99723,68.084502 134.000184,68.3257397 C134.012591,69.2127082 134.005206,70.0996766 134.005206,70.9869621" id="Fill-34" fill="#FEFEFE"></path>
                                    <path d="M157.00547,70.9815816 C157.00547,71.881812 157.013148,72.7817253 157.000449,73.6813214 C156.996906,73.9268388 157.058037,74.0045542 157.292815,73.9997961 C158.035838,73.9836186 158.779452,73.9937692 159.52277,73.9937692 C160.002664,73.9937692 159.987898,73.9931348 159.99971,73.4630837 C160.005617,73.2029748 159.921746,73.1458777 159.69819,73.1528563 C159.179314,73.1683994 158.659848,73.1503186 158.140972,73.1611036 C157.955511,73.1652273 157.894085,73.098614 157.899401,72.9009947 C157.910918,72.4956055 157.918301,72.0889475 157.897629,71.68451 C157.884044,71.4063203 157.98652,71.3381211 158.224252,71.3517609 C158.542015,71.3704761 158.861255,71.3562018 159.179904,71.356519 C159.733923,71.356519 159.724768,71.3568362 159.715023,70.7715913 C159.711479,70.5720687 159.658026,70.5086275 159.473452,70.5133856 C159.037265,70.5257566 158.599898,70.5089447 158.164007,70.5213158 C157.964962,70.5263911 157.892608,70.4553369 157.899696,70.2390025 C157.912395,69.859307 157.911214,69.4783426 157.900287,69.0983299 C157.89438,68.8937321 157.97264,68.836635 158.150717,68.8417103 C158.516322,68.8515437 158.886062,68.8084037 159.246942,68.8537641 C159.634696,68.9022966 159.776744,68.7265645 159.881583,68.3551164 C159.970769,68.0407653 159.903436,67.9954048 159.632333,68.0004801 C158.853577,68.0144372 158.074525,68.0144372 157.295769,68.0001629 C157.063352,67.9960393 156.996315,68.0693138 157.000154,68.3199065 C157.014034,69.2071315 157.00547,70.0943566 157.00547,70.9815816" id="Fill-36" fill="#FEFEFE"></path>
                                    <path d="M76.8935094,69.2459006 C76.8935094,69.0025959 76.8628612,68.8260991 76.9004299,68.6642067 C76.9663399,68.3792638 76.8308949,68.2614956 76.5682438,68.1831907 C76.0851238,68.0393209 75.5940947,67.9833888 75.0895541,68.004208 C73.6916041,68.0620045 72.5991467,68.8201951 72.1766639,70.0295714 C71.7459424,71.2625634 72.1222882,72.6419111 73.0934713,73.390469 C74.032029,74.1138575 75.7074598,74.2070777 76.821338,73.5964856 C76.9070209,73.5495648 77.0394999,73.5237739 76.9887492,73.3876724 C76.9192142,73.2009214 76.8806569,72.9765715 76.7445529,72.8473062 C76.6236081,72.7329561 76.4552082,72.9383512 76.2960357,72.9675602 C76.2192506,72.9815432 76.1470792,73.0166562 76.0716123,73.0384075 C74.790982,73.4078701 73.6685356,72.9380405 73.2579166,71.8610369 C72.7471145,70.5220846 73.4342257,69.1287539 74.7600043,68.8636979 C75.4787523,68.7201388 76.1731136,68.833246 76.8935094,69.2459006" id="Fill-38" fill="#FEFEFE"></path>
                                    <path d="M121.674963,69.1993093 C121.674963,68.9899094 121.645658,68.8360393 121.681026,68.6961292 C121.759509,68.3809436 121.599848,68.2518912 121.299389,68.165029 C120.788743,68.0173633 120.268666,67.9584211 119.744547,68.0310131 C119.016641,68.1318353 118.448733,68.4522946 118.23181,69.1450205 C118.018928,69.8262681 118.269535,70.456329 118.938832,70.903359 C119.241985,71.1062442 119.577475,71.2688006 119.901513,71.444076 C120.145383,71.5762306 120.395991,71.6993888 120.59944,71.8833504 C121.114465,72.3508551 120.950088,72.9576494 120.257214,73.1481257 C119.75162,73.2877256 119.270953,73.1943488 118.806454,72.9998396 C118.328482,72.8000566 118.347008,72.8053304 118.07417,73.2328163 C117.928656,73.4598989 118.007139,73.5535859 118.223389,73.655649 C118.908516,73.9792106 119.639454,74.0701056 120.38218,73.9478781 C121.139054,73.8231689 121.752098,73.4785122 121.946117,72.7287055 C122.133062,72.0037166 121.832266,71.3978529 121.063939,70.9278665 C120.739565,70.7299449 120.388243,70.5695601 120.054437,70.3840473 C119.813599,70.2500314 119.567034,70.1184972 119.395246,69.901652 C119.068514,69.4875056 119.223796,69.0240339 119.75061,68.8664411 C119.956081,68.8050171 120.170309,68.79509 120.388917,68.8087398 C120.827143,68.8366598 121.216527,69.0013877 121.674963,69.1993093" id="Fill-40" fill="#FEFEFE"></path>
                                    <path d="M93.0059109,71.002851 C93.0059109,71.9023571 93.0131394,72.8015459 93.0010919,73.7007348 C92.9980801,73.9338578 93.0631362,74.0039533 93.2845078,73.9998301 C94.0178952,73.9865087 94.7518851,73.9950724 95.4852725,73.9950724 C96.0117453,73.9950724 95.9993967,73.9950724 95.9999991,73.4488985 C96.0003003,73.2119693 95.9274133,73.1472658 95.7099571,73.1539265 C95.2172171,73.169468 94.7232724,73.1431425 94.2308336,73.1650276 C93.972115,73.176763 93.9130826,73.0873199 93.9151909,72.8256512 C93.9275395,71.4326221 93.9209134,70.0392758 93.9209134,68.6462467 C93.9209134,67.9973083 93.9206122,68.0115812 93.3185418,68.0001629 C93.0613291,67.9957225 92.9959718,68.0813595 93.0001884,68.3433454 C93.0149465,69.2295301 93.0059109,70.1163492 93.0059109,71.002851" id="Fill-42" fill="#FEFEFE"></path>
                                    <path d="M89.0063492,70.9744144 C89.0063492,71.8616523 89.0163291,72.7492072 89.0003008,73.6358111 C88.995462,73.9077833 89.0465711,74.0089011 89.3317535,73.9993916 C90.0566552,73.9756178 90.7824641,73.991784 91.5079707,73.991784 C92.002428,73.991784 91.9876094,73.99115 91.9997062,73.4643228 C92.0054522,73.2091508 91.9277302,73.1422672 91.6939592,73.1508258 C91.2109938,73.1682599 90.726214,73.1419502 90.243551,73.1616032 C89.9907276,73.1723807 89.916937,73.0931347 89.9193563,72.8252833 C89.9317556,71.4308712 89.9251023,70.0370931 89.9251023,68.642998 C89.9251023,67.9957169 89.9247999,68.0112491 89.312701,68.0001547 C89.0432445,67.9953999 88.997579,68.1000046 89.001208,68.3510558 C89.0142121,69.2252974 89.0063492,70.0998559 89.0063492,70.9744144" id="Fill-44" fill="#FEFEFE"></path>
                                    <path d="M149.007755,71.0165608 L149.007755,73.4090073 C149.007755,73.995786 149.008074,73.9805697 149.615721,73.9992731 C149.910754,74.0084662 150.002812,73.9330187 149.999935,73.6264737 C149.983633,71.9558505 149.991944,70.2845933 149.991944,68.6136531 C149.991944,68.0024649 149.991624,68.0189493 149.358086,68.0005629 C149.069127,67.9923207 148.99369,68.0728403 149.000403,68.358146 C149.020541,69.2438616 149.007755,70.1302112 149.007755,71.0165608" id="Fill-46" fill="#FEFEFE"></path>
                                    <path d="M123.999862,73.3104447 C124.000925,72.9581013 124.000925,72.9581013 123.541752,73.0557139 C123.500299,73.0645078 123.459908,73.0903033 123.418987,73.0903033 C123.21677,73.0903033 123.187275,73.192606 123.212784,73.4019016 C123.260615,73.8002666 123.208533,74.1933552 123.062915,74.5679766 C123.017476,74.6846427 122.918892,74.8180173 123.130675,74.8910069 C123.292767,74.9467018 123.430147,75.1214079 123.587988,74.8605213 C123.841755,74.4407577 124.005442,73.9972506 123.999862,73.3104447" id="Fill-48" fill="#FEFEFE"></path>
                                    <g id="Group-52" transform="translate(167.000000, 68.000000)">
                                        <mask id="mask-4" fill="white">
                                            <use xlink:href="#path-3"></use>
                                        </mask>
                                        <g id="Clip-51"></g>
                                        <path d="M3.75627692,4.66357143 C3.05135385,5.82757143 1.45566154,6.16014286 0.206430769,5.40871429 C0.0913538462,5.33957143 0.0458153846,5.28528571 0.134738462,5.17242857 C0.1852,5.10871429 0.232584615,5.03842857 0.260584615,4.96442857 C0.355969231,4.70957143 0.479046154,4.653 0.755969231,4.80957143 C1.18735385,5.05271429 1.6692,5.13728571 2.17196923,5.00128571 C2.80396923,4.83014286 2.95504615,4.27357143 2.48827692,3.83985714 C2.25873846,3.62671429 1.97012308,3.49614286 1.69258462,3.35014286 C1.41535385,3.20442857 1.13412308,3.065 0.887046154,2.87328571 C0.353815385,2.45985714 0.1492,1.93928571 0.329815385,1.31614286 C0.516276923,0.673285714 1.04581538,0.383285714 1.70643077,0.288142857 C2.15750769,0.223 2.60766154,0.275571429 3.05443077,0.389857143 C3.38058462,0.473285714 3.53966154,0.615571429 3.47443077,0.940428571 C3.45012308,1.06242857 3.45935385,1.19014286 3.45196923,1.343 C3.08089231,1.21328571 2.74150769,1.02214286 2.34396923,1.01385714 C2.27073846,1.01214286 2.19750769,0.996428571 2.12427692,0.997857143 C1.66889231,1.005 1.33966154,1.179 1.25566154,1.45271429 C1.16735385,1.741 1.32058462,2.033 1.70396923,2.28071429 C1.87473846,2.39128571 2.05166154,2.497 2.2372,2.58357143 C2.86643077,2.87614286 3.42735385,3.23671429 3.75627692,3.84071429 L3.75627692,4.66357143 Z" id="Fill-50" fill="#4D5961" mask="url(#mask-4)"></path>
                                    </g>
                                    <g id="Group-55">
                                        <mask id="mask-6" fill="white">
                                            <use xlink:href="#path-5"></use>
                                        </mask>
                                        <g id="Clip-54"></g>
                                        <path d="M29.0162838,38.7400206 C29.0260655,35.94277 28.8674192,33.8970927 28.2634017,31.9081206 C27.4961528,29.3812157 25.9154978,27.6509418 23.3371135,26.9367632 C21.5758035,26.4490988 19.7860655,26.4368382 18.0009127,26.784119 C16.4006943,27.0955377 15.0957598,27.9169963 14.1463275,29.2533992 C13.3075502,30.4334797 12.8854105,31.7901126 12.6530961,33.2000789 C12.2648865,35.5547227 12.1872445,37.9283704 12.3700393,40.3060027 C12.4837511,41.7846283 12.7334891,43.2408783 13.2262402,44.6502316 C14.0158035,46.9083234 15.4744934,48.4289414 17.860607,48.941127 C19.3339694,49.2571434 20.8177249,49.2439633 22.3066769,49.0533113 C25.440476,48.6523904 27.4478559,46.9227296 28.3419607,43.8989648 C28.9099083,41.9780389 29.0040568,39.9964232 29.0162838,38.7400206 M7.81117467,72.3609744 C7.83410044,73.0929309 7.88148035,73.9104048 8.01934061,74.7211355 C8.59676419,78.121913 10.4152358,80.5626873 13.6691659,81.7587066 C17.0921354,83.0160288 20.6214803,83.0822359 24.1645808,82.3174824 C26.0426594,81.9122703 27.7468079,81.1079765 29.1682052,79.7823016 C30.7329651,78.3235995 31.5668515,76.4842064 31.9043188,74.391326 C32.2845808,72.0326975 32.0192533,69.7834947 30.8228341,67.6826448 C29.5322664,65.4168902 27.65969,63.7218655 25.5489913,62.2588721 C25.4077686,62.161094 25.2485109,62.161094 25.09231,62.1518986 C23.3129651,62.0479902 21.5348428,61.9446948 19.7499956,62.0476837 C17.8661092,62.1561898 16.0100393,62.4017078 14.2172445,63.0193344 C12.2025284,63.7138961 10.4791223,64.8124438 9.29248472,66.6380437 C8.17920961,68.3505397 7.84204803,70.2717721 7.81117467,72.3609744 M23.9551921,59.2072145 C23.171131,58.195717 22.571393,57.0137973 22.1275502,55.7518775 C21.6944061,54.520609 21.4290786,53.2531719 21.4229651,51.9440488 C21.4214367,51.628339 21.2426157,51.6914809 21.0696026,51.6924005 C18.7721354,51.7049676 16.5122664,51.4410586 14.3190349,50.7314778 C11.0027467,49.6589838 8.22872926,47.8140735 6.23816157,44.9000409 C4.7981179,42.7915282 4.00121834,40.4660033 4.15772489,37.8866844 C4.34418777,34.8197011 5.47886026,32.1082745 7.4238821,29.7493396 C9.93929694,26.698908 13.2127904,24.9707797 17.0765459,24.3231148 C21.0243624,23.6613501 24.8315677,24.2302409 28.5311747,25.6831192 C28.7292533,25.7609739 28.922441,25.7992882 29.1336638,25.7989817 C33.4375939,25.7962231 37.7412183,25.7916253 42.0451485,25.806338 C42.4024847,25.8075641 42.4510873,25.6886365 42.4489476,25.3766048 C42.4367205,23.2693182 42.4073755,21.1608055 42.5785546,19.05781 C42.8142314,16.1633943 43.3265459,13.3318141 44.5740131,10.6798513 C45.4066769,8.90911752 46.6110437,7.39892097 47.9309563,5.97883965 C49.9866332,3.76856416 52.3758035,2.0413554 55.2534454,1.06633302 C57.8416114,0.189088747 60.5098646,-0.133364425 63.1426594,0.66970336 C66.4629214,1.68242701 68.8132707,3.81147618 69.7498646,7.28336503 C70.0650175,8.45149149 69.9965459,9.61042252 69.5985546,10.7518822 C69.1259782,12.107289 68.2334017,13.0439971 66.8789476,13.5347267 C65.4046681,14.0689813 63.9410873,14.1082151 62.4992096,13.4363355 C61.1823537,12.8230002 60.5538821,11.7339544 60.6009563,10.2878194 C60.6361092,9.20122577 60.9558472,8.22834899 61.5714803,7.33608551 C62.1327031,6.52259624 62.382441,5.60642463 62.2745371,4.62128728 C62.1360655,3.35660878 61.3391659,2.62863703 60.0690786,2.55170191 C56.472179,2.33438318 53.439559,4.2838149 52.0490349,7.71279174 C51.3799083,9.36275887 51.0326594,11.0930328 50.9513493,12.8603949 C50.7566332,17.0866158 50.9128341,21.3171278 50.8605633,25.5454943 C50.8568952,25.8605911 51.0387729,25.7962231 51.2105633,25.7962231 C56.7613493,25.7968361 62.3121354,25.7968361 67.8629214,25.7968361 C68.3382489,25.7968361 68.3382489,25.7968361 68.3382489,26.2857266 C68.3382489,39.0977229 68.3367205,51.9091062 68.3465022,64.7211025 C68.3468079,65.0656247 68.2801703,65.1661614 67.9170262,65.1637093 C65.3985546,65.1450119 62.8797773,65.1459315 60.361,65.1627898 C60.0088603,65.1652419 59.9229651,65.0812569 59.9232707,64.7257002 C59.9336638,52.8703354 59.9318297,41.0146641 59.9318297,29.1592993 C59.9318297,28.6664241 59.931524,28.6664241 59.4555852,28.6664241 C56.7292533,28.6664241 54.0026157,28.6722479 51.2759782,28.6584547 C50.9464585,28.6569222 50.8590349,28.7347768 50.8593406,29.0725557 C50.8688166,40.9527482 50.8651485,52.8326341 50.8770699,64.7125201 C50.8773755,65.0907589 50.779559,65.1652419 50.4197773,65.1627898 C47.8887729,65.1456249 45.3577686,65.1459315 42.8270699,65.1634028 C42.4871572,65.1655484 42.4358035,65.0619465 42.4361092,64.753593 C42.4437511,52.8737071 42.4406943,40.9938211 42.451393,29.1136286 C42.4520044,28.7473439 42.371,28.6541635 41.9986856,28.6566156 C39.2234454,28.6747 36.4478996,28.6664241 33.6723537,28.6664241 L33.250214,28.6664241 C33.8530087,29.3055067 34.3809127,29.9231332 34.8192533,30.6118711 C36.5466332,33.3251368 37.3371135,36.2863726 36.9846681,39.4906744 C36.7034454,42.0488437 35.5510437,44.2514564 33.8796026,46.1791256 C31.7175502,48.6717009 28.9948865,50.2398286 25.7981179,50.9815935 C25.4154105,51.0704827 25.3772009,51.2353875 25.4264148,51.5560016 C25.6144061,52.7728638 26.2184236,53.7797637 26.9878122,54.7029851 C28.2282489,56.1920322 29.7477686,57.3672085 31.2841004,58.5215418 C32.8283799,59.6816989 34.4490786,60.7416257 35.9151048,62.0044652 C38.0151048,63.8132068 39.5667205,65.9885396 40.1523974,68.7465564 C40.8713493,72.1335407 40.0628341,75.2075739 38.0945808,77.994403 C36.1572009,80.7374005 33.4816114,82.4419272 30.3270262,83.4742678 C27.2555852,84.4796351 24.1230087,85.1058441 20.8886419,85.1971854 C15.9877249,85.3360364 11.3169825,84.435497 6.98584716,82.0609298 C4.75073799,80.8357917 2.79807424,79.2652118 1.39104367,77.0941701 C-0.457384279,74.2417469 -0.345200873,71.2875609 1.03065066,68.313145 C2.12650218,65.9437885 3.97676419,64.2515224 6.15410044,62.8991808 C8.93148035,61.1741176 11.982441,60.1920454 15.1828777,59.6369478 C17.1389039,59.2979428 19.1117424,59.1857585 21.0946681,59.205682 C22.0532707,59.2151839 23.0118734,59.2072145 23.9551921,59.2072145" id="Fill-53" fill="#4D5961" mask="url(#mask-6)"></path>
                                    </g>
                                    <path d="M101.327451,54.5764061 C101.171754,54.6000536 101.138718,54.7201338 101.078764,54.8027465 C100.660921,55.3776572 100.270609,55.9716088 99.942391,56.6030279 C99.1580947,58.1106331 98.5753784,59.67014 98.7803233,61.4179055 C98.8626071,62.1224169 99.0647989,62.7882324 99.536172,63.3373458 C99.9959214,63.8732536 100.431506,63.827187 100.783888,63.2206439 C100.938362,62.9543791 101.053375,62.6709162 101.129847,62.3727119 C101.565738,60.6728556 101.687481,58.9462807 101.592044,57.1966724 C101.544325,56.319565 101.462042,55.4489069 101.327451,54.5764061 M102.085747,51.5768583 C103.310522,50.3373606 104.561908,49.2418976 105.89925,48.2459384 C108.205644,46.5282697 110.682112,45.1072696 113.304488,43.9359504 C113.555316,43.8241622 113.688071,43.8496523 113.756284,44.1192953 C113.764849,44.154613 113.781367,44.188088 113.795743,44.2218702 C114.120596,44.985961 114.11662,44.9767477 113.349147,45.3302318 C109.662893,47.0273241 106.315563,49.2293061 103.412076,52.0863546 C102.374811,53.1071897 102.417329,53.110875 102.629309,54.5589008 C103.024516,57.2614727 103.058164,59.9612807 102.376646,62.6325274 C102.208102,63.2922006 101.957886,63.9156348 101.468465,64.4122324 C100.782053,65.1087589 99.8585777,65.1984352 99.0767285,64.6158466 C98.1085937,63.8944442 97.7087983,62.8502687 97.5402541,61.7044396 C97.2383429,59.653556 97.8767307,57.8019871 98.800206,56.0232034 C99.35631,54.9532306 100.04364,53.9680203 100.812642,53.0414681 C100.959162,52.8658009 100.998622,52.7079461 100.946621,52.4757706 C99.8151417,47.4164331 97.7467284,42.758796 94.9555023,38.4150258 C92.5129882,34.6142269 89.5896186,31.2295626 86.1291099,28.3258334 C81.1954457,24.1862916 75.6090169,21.41247 69.2545038,20.2681765 C69.0416059,20.2297877 68.9470866,20.1646803 69.0296763,19.9328119 C69.0780066,19.7961477 69.0816772,19.643821 69.1076777,19.4994791 C69.2095383,18.9420736 69.2086206,18.94883 69.7833838,19.0587756 C77.1228556,20.4653414 83.41925,23.8933082 88.8175578,29.022667 C94.7043684,34.6163767 98.890137,41.2991 101.380675,49.0471896 C101.511901,49.4550322 101.624468,49.8690171 101.739482,50.2817736 C101.853578,50.6920731 101.959721,51.1045225 102.085747,51.5768583" id="Fill-56" fill="#F6B42B"></path>
                                    <path d="M125,40.5233844 C124.999423,43.0111298 123.008372,44.9979771 120.513279,44.999998 C118.009815,45.0023076 116,42.9984269 116,40.500577 C116.000289,37.974723 117.992206,35.9982689 120.535797,36.0000011 C123.048499,36.0014446 125.000577,37.9793422 125,40.5233844" id="Fill-58" fill="#F6B42B"></path>
                                    <path d="M142.030974,70.4818312 C141.642975,71.5538571 141.24228,72.6123847 140.883389,73.6853524 C140.779345,73.996444 140.596957,73.9816899 140.356045,73.99613 C140.103056,74.011512 139.989103,73.9270683 139.905186,73.6800158 C139.295783,71.8947708 138.674613,70.1132928 138.044772,68.334954 C137.94816,68.0618464 137.999563,68.0015743 138.28104,68.0053413 C138.990772,68.0157006 138.989533,68.0031439 139.205053,68.6780651 C139.589337,69.8800526 139.975168,71.0810984 140.361619,72.2821442 C140.376173,72.3273482 140.404042,72.3684713 140.452348,72.4642159 C140.840347,71.3529504 141.230514,70.2969342 141.570825,69.2242804 C141.6662,68.9235481 141.424049,68.6309776 141.319385,68.3428019 C141.227107,68.0888432 141.239803,67.9984352 141.543576,68.0047135 C142.1697,68.0182119 142.173416,68.0009465 142.380266,68.6002137 C142.788083,69.7811688 143.191255,70.9630657 143.598143,72.1443347 C143.629109,72.2350567 143.626941,72.3464971 143.726651,72.3973516 C144.138493,71.0729366 144.557148,69.7538581 144.953818,68.4278734 C145.044856,68.1227462 145.162835,67.980228 145.507483,68.0022022 C146.071056,68.0376748 146.073534,68.0116197 145.896101,68.5437087 C145.327572,70.2507884 144.754709,71.9559846 144.193612,73.6655756 C144.117127,73.8985019 144.02454,74.0184181 143.755758,73.9976996 C143.504318,73.9788646 143.301493,74.007745 143.194662,73.675621 C142.877884,72.6886665 142.518683,71.7161521 142.171249,70.7395569 C142.140593,70.6526019 142.149882,70.5348831 142.030974,70.4818312" id="Fill-60" fill="#4D5961"></path>
                                    <path d="M66.6763935,72.4574551 C67.1165724,71.0407105 67.5246935,69.7216399 67.938363,68.4041396 C67.9812095,68.2675216 67.9654889,68.0527015 68.1300936,68.0282045 C68.3948791,67.9892605 68.6729193,67.991459 68.938013,68.0297748 C69.0594629,68.0473624 68.9697626,68.1993696 68.9423285,68.2832248 C68.4910526,69.6478348 68.036386,71.0111884 67.5829524,72.3748562 C67.4411581,72.8013557 67.2935071,73.2259708 67.1643509,73.6565531 C67.0965362,73.8826795 67.0145421,74.0280913 66.7377349,73.9954286 C66.4969928,73.967791 66.2793694,74.0287195 66.1696329,73.6832486 C65.8444307,72.6603408 65.4732995,71.6521939 65.1191219,70.6380799 C65.0990857,70.5809202 65.0710351,70.5269011 65.0272638,70.4267145 C64.6308562,71.5331635 64.2387641,72.5903044 63.8774968,73.6584375 C63.7813232,73.9429799 63.6355217,74.0010818 63.3679619,73.9979412 C63.1151981,73.9951146 62.983576,73.9376408 62.8938757,73.6713142 C62.2912498,71.8846016 61.673828,70.1029141 61.046234,68.3249954 C60.9559171,68.0687188 60.9839678,68.0037075 61.2561512,68.0024512 C61.9703631,68.0002528 61.9749868,67.9880043 62.2027825,68.693393 C62.571756,69.8347031 62.9324068,70.9794679 63.3026133,72.1207781 C63.3303556,72.2068317 63.3229577,72.3198949 63.4576623,72.398411 C63.7443334,71.579331 63.9989467,70.7621354 64.3179839,69.9716352 C64.5445466,69.4094599 64.619451,68.8849723 64.313052,68.3391283 C64.1768061,68.0957284 64.2338321,67.9895746 64.5312919,68.0033934 C65.310236,68.040453 65.1034012,67.8714864 65.3580145,68.6048268 C65.7914119,69.8551173 66.2155619,71.1088625 66.6763935,72.4574551" id="Fill-62" fill="#4D5961"></path>
                                    <path d="M55.066642,72.3226727 L55.066642,70.9524196 C55.066642,70.0797215 55.074771,69.2070234 55.0612227,68.3349579 C55.0573088,68.089818 55.1175232,68.0085264 55.3589831,68.0094753 C55.9939443,68.0116895 55.9939443,67.9993534 55.9939443,68.6522164 C55.9939443,70.3216983 55.9879229,71.9908639 55.9999658,73.6600295 C56.0017722,73.9260459 55.9325256,73.9861447 55.6826357,73.9981645 C55.3020805,74.0161941 55.0524916,73.9035879 54.8158489,73.5632388 C53.9150409,72.2676348 52.9769,71.0004987 52.0520063,69.7235569 C52.0330388,69.6969869 52.004738,69.6783246 51.9348892,69.6137975 L51.9348892,70.5469107 C51.9348892,71.5837735 51.9303731,72.6209526 51.9385021,73.6578154 C51.9403085,73.8808136 51.9159217,73.9965829 51.6539889,73.9943688 C51.0075869,73.9899404 51.0075869,74.0054396 51.0075869,73.3291697 C51.0075869,71.6723402 51.0154148,70.0155106 51.0000601,68.3593137 C50.9973505,68.0638806 51.0858657,68.0214951 51.3426803,68.0037818 C51.767192,67.974365 52.0396623,68.1148064 52.2982833,68.4867865 C53.1840377,69.7615141 54.1104368,71.004927 55.066642,72.3226727" id="Fill-64" fill="#4D5961"></path>
                                    <path d="M105.065259,72.3271915 C105.065259,70.9744767 105.071582,69.6890817 105.059839,68.4040027 C105.057731,68.1280868 105.098381,67.9991364 105.405819,68.0108304 C105.991789,68.0329543 105.992692,68.0127268 105.992692,68.6299819 C105.992692,70.2857932 105.984562,71.9412885 105.999919,73.5970998 C106.002629,73.9052533 105.938492,73.9940647 105.631957,73.9997537 C105.271823,74.0060748 105.045686,73.8913469 104.82798,73.5844576 C103.895126,72.2674571 102.935473,70.9713162 101.974315,69.6524193 C101.863806,69.7589298 101.913189,69.9036829 101.912586,70.0272604 C101.908371,71.2149945 101.899638,72.4033607 101.916802,73.5910948 C101.921319,73.8986161 101.857181,74.0427371 101.545829,73.9880597 C101.463925,73.9735211 101.376,73.9744693 101.293795,73.9880597 C101.047182,74.0288307 100.999606,73.909362 101.001112,73.6720048 C101.010145,72.1678998 101.00593,70.6637948 101.00593,69.1600059 C101.00593,68.8692354 101.018878,68.5778328 101.001413,68.2883266 C100.987562,68.0645598 101.075487,68.0335864 101.2679,68.0108304 C101.730412,67.9552048 102.031226,68.111968 102.315779,68.5247356 C103.189012,69.7917995 104.113435,71.0193565 105.065259,72.3271915" id="Fill-66" fill="#4D5961"></path>
                                    <path d="M127.934265,69.5815067 C127.934265,70.9716928 127.924628,72.3072565 127.941795,73.6418729 C127.94571,73.9374019 127.860479,73.9961288 127.599065,73.9885512 C127.00727,73.9702385 127.006668,73.9847623 127.006668,73.3734972 C127.006668,71.7067264 127.013595,70.0402713 127.000042,68.3738162 C126.997934,68.0883908 127.074431,68.0242963 127.340362,68.0094567 C127.761094,67.9854608 128.037265,68.1123867 128.298076,68.4877969 C129.195858,69.7794733 130.137611,71.0373659 131.077857,72.3290422 C131.077857,71.0222105 131.075448,69.7434794 131.080869,68.4647482 C131.081471,68.3226669 131.001059,68.0978628 131.151342,68.0520811 C131.399806,67.9763044 131.676278,67.9895654 131.934981,68.0511339 C132.033162,68.0751298 131.990999,68.2052131 131.990999,68.2869888 C131.993408,70.0926835 131.987686,71.8980625 131.998528,73.7037572 C132.000034,73.9557146 131.903359,73.9670811 131.705491,73.9910771 C131.303131,74.0397004 131.051656,73.88941 130.808914,73.5449419 C129.881317,72.2273752 128.920591,70.9350674 127.934265,69.5815067" id="Fill-68" fill="#4D5961"></path>
                                    <path d="M151.989566,70.9806505 L151.989566,72.197797 C151.989566,73.2391159 151.989566,73.2391159 153.062386,73.1458066 C154.184874,73.0486888 154.910662,72.2876151 154.976352,71.1406093 C155.043643,69.9577396 154.417511,69.1090696 153.298868,68.9094385 C152.961769,68.8491366 152.610251,68.8713531 152.266743,68.8424716 C152.050449,68.8240637 151.979953,68.8983302 151.984759,69.117004 C151.998218,69.7377963 151.989566,70.3592234 151.989566,70.9806505 M151.002302,70.9990585 C151.002302,70.0983383 151.001661,69.1976182 151.003263,68.296898 C151.003584,68.1645512 150.959043,68.0004665 151.189437,68.0061793 C152.006869,68.0258568 152.82975,67.9388951 153.640453,68.099806 C155.212834,68.411789 156.013604,69.4137529 155.999825,71.0368265 C155.987328,72.5332661 155.043964,73.6412344 153.558101,73.9141799 C152.782325,74.0566829 151.999499,73.968769 151.220839,73.9995547 C150.973142,74.0093935 151.001661,73.8545128 151.001981,73.7009016 C151.002943,72.8001814 151.002302,71.8997786 151.002302,70.9990585" id="Fill-70" fill="#4D5961"></path>
                                    <path d="M77.0070631,70.9860569 C77.0070631,70.1122636 77.0186304,69.2381536 77.0003155,68.3653104 C76.9945319,68.0847084 77.066506,67.9925468 77.3617926,68.0004645 C77.9828906,68.0178833 77.9835332,68.0010979 77.9835332,68.6291269 C77.9835332,69.1478922 77.9918873,69.6672909 77.9793561,70.1863729 C77.9738938,70.4153518 78.0143793,70.5290494 78.2903871,70.5227153 C79.0994531,70.504663 79.9091618,70.5081468 80.7182279,70.5204983 C80.9588913,70.5246155 81.0257244,70.4422718 81.0209047,70.2145598 C81.0080522,69.5944484 81.027331,68.9737036 81.0119079,68.3532755 C81.0054817,68.1027607 81.058177,67.9963473 81.3447882,68.0007812 C81.9931977,68.0118659 81.9935191,67.9963473 81.9931977,68.6402117 C81.9931977,70.2988038 81.9861289,71.9573958 81.9999453,73.6163046 C82.0021945,73.9064078 81.936004,74.0410081 81.6246518,73.9890682 C81.5372546,73.9748164 81.4437526,73.9764 81.3553915,73.9887515 C81.0877378,74.0273897 81.0025899,73.9257269 81.0106227,73.6568431 C81.0302228,73.0117119 81.0061243,72.3649972 81.02219,71.719866 C81.0286162,71.4677676 80.9736717,71.3651546 80.689631,71.3718055 C79.8808863,71.3904912 79.0711776,71.3851071 78.2621116,71.3740224 C78.04394,71.3711721 77.9742151,71.4348301 77.9783922,71.6524075 C77.991566,72.3235086 77.9751791,72.9949264 77.9877103,73.6657109 C77.9922087,73.8959565 77.9520445,73.9982527 77.6802138,73.9944522 C77.0070631,73.9855845 77.0070631,74.0007864 77.0070631,73.3414034 L77.0070631,70.9860569 Z" id="Fill-72" fill="#4D5961"></path>
                                    <path d="M112.791812,69.2362559 C112.201179,68.9616046 111.651711,68.7973098 111.051016,68.8134293 C109.813035,68.8469082 109.008042,69.6606324 108.990052,70.931592 C108.972366,72.2320006 109.778883,73.1294221 111.013815,73.1818104 C111.050406,73.1833604 111.086996,73.1821204 111.123282,73.1821204 C112.011518,73.1790205 112.059696,73.130662 112.059696,72.2428503 C112.059696,71.8959713 112.065489,71.5487823 112.056952,71.2022134 C112.053293,71.0481483 112.093237,70.99359 112.257895,70.9830503 C112.999464,70.9350019 112.998854,70.9284921 112.998854,71.6609988 C112.998854,72.1814722 112.997634,72.7019457 112.999769,73.2221091 C113.000683,73.3619147 113.005867,73.4883907 112.843954,73.5572085 C111.763312,74.0181638 110.660106,74.1998181 109.551412,73.7053838 C108.406737,73.19514 107.859708,72.0091177 108.030769,70.5444143 C108.170118,69.3469223 109.080918,68.3428643 110.262489,68.0923922 C111.004668,67.9352272 111.736174,67.9835857 112.464632,68.1993388 C112.714057,68.2737365 112.834196,68.383473 112.796386,68.6596742 C112.772907,68.8292388 112.791812,69.0043832 112.791812,69.2362559" id="Fill-74" fill="#4D5961"></path>
                                    <path d="M85.973243,69.4640413 C85.6803425,70.1686992 85.4149126,70.8115892 85.1448448,71.4532187 C85.0899037,71.5836876 85.0820549,71.6725577 85.2836247,71.6719274 C85.7859436,71.6700365 86.2879058,71.6712971 86.8251873,71.6712971 C86.5337139,70.9165316 86.2654299,70.2206977 85.973243,69.4640413 M89,73.9459933 C88.9514806,73.9661624 88.9389939,73.9756167 88.925437,73.9765621 C87.8751338,74.0373846 87.8751338,74.0373846 87.4880485,73.1587682 C87.1858723,72.4730188 87.1858723,72.4730188 86.3617553,72.4730188 C85.9200856,72.4730188 85.4773457,72.4862548 85.0367463,72.4676614 C84.7952194,72.4575768 84.6732073,72.5303747 84.6018552,72.7295445 C84.4944702,73.0289296 84.3428469,73.3160241 84.2490189,73.6179303 C84.1591152,73.907546 83.9953621,74.0386451 83.6443097,73.9901132 C83.4520157,73.9636413 83.2511595,73.9857012 83,73.9857012 C83.3856582,73.100782 83.7524081,72.2602978 84.1184445,71.4194985 C84.5672494,70.3886684 85.0214056,69.359099 85.4591509,68.3244872 C85.5569033,68.0938031 85.6824831,67.9948485 85.9818052,68.0002059 C86.268284,68.0052482 86.3992151,68.0783612 86.5044595,68.3175541 C87.3014627,70.1318276 88.1173742,71.9391679 88.9265073,73.7493446 C88.9525508,73.8063853 88.9707456,73.8665775 89,73.9459933" id="Fill-76" fill="#4D5961"></path>
                                    <path d="M163.481115,69.4587269 C163.243555,70.1498993 163.020898,70.8126803 162.786021,71.470414 C162.729686,71.6287749 162.762772,71.6719929 162.9127,71.6701001 C163.270381,71.6653682 163.627764,71.6647373 163.985445,71.6704156 C164.162199,71.6735702 164.181872,71.6016453 164.127325,71.4388681 C163.910034,70.7915445 163.702579,70.14012 163.481115,69.4587269 M161,73.9852596 C161.225637,73.3663275 161.437861,72.7839887 161.649489,72.2019653 C162.127888,70.8896525 162.612248,69.579548 163.077829,68.2625033 C163.157711,68.0369495 163.275746,67.9855296 163.474259,68.0031953 C163.64535,68.0183374 163.80273,67.9681793 163.896621,68.2246481 C164.585455,70.1110977 165.293962,71.9893454 165.995613,73.8707477 C166.003363,73.892199 165.998295,73.9193285 165.99919,73.9439344 C165.980709,73.9562373 165.962527,73.9770576 165.943451,73.978004 C165.061469,74.0234302 165.061469,74.0234302 164.744623,73.1543385 C164.495439,72.4710525 164.495439,72.4710525 163.807201,72.4710525 C163.42627,72.4710525 163.04534,72.4783081 162.664708,72.4675825 C162.496299,72.4628506 162.407773,72.5174251 162.355015,72.6956599 C162.262018,73.0063878 162.120734,73.3022891 162.039362,73.6155407 C161.964249,73.9057637 161.835483,74.0392032 161.540993,73.9899915 C161.37944,73.962862 161.210436,73.9852596 161,73.9852596" id="Fill-78" fill="#4D5961"></path>
                                    <path d="M97.0048554,70.9760386 C97.0048554,70.1013002 97.0119085,69.2265618 97.0001533,68.3527745 C96.9969207,68.1016716 97.0430597,67.994509 97.304906,68.0002159 C98.0916203,68.0186048 98.8792163,68.013849 99.6662245,68.0027523 C99.9033849,67.9992648 99.9598097,68.0373107 99.888691,68.3182161 C99.7873027,68.7215026 99.6274325,68.9101468 99.2130629,68.8552973 C98.8542366,68.8074229 98.4854183,68.8508586 98.121596,68.8429324 C97.9573176,68.8397619 97.890607,68.9006353 97.8947213,69.0845238 C97.9044193,69.4770305 97.9061826,69.8708055 97.8941336,70.2629952 C97.8879621,70.4690771 97.9658401,70.5242436 98.1424614,70.520439 C98.5771086,70.5118787 99.0126374,70.5343892 99.4464029,70.5131469 C99.8305029,70.494124 99.686796,70.7867603 99.7061921,70.9792091 C99.7276452,71.1871933 99.7417514,71.3799591 99.439056,71.3625214 C99.0176333,71.3377916 98.5932719,71.3669601 98.1709677,71.3520588 C97.9529094,71.3438155 97.8847294,71.4256142 97.8932519,71.6567429 C97.9085336,72.0616146 97.9117663,72.4683886 97.8923703,72.8729432 C97.8803212,73.1243631 97.9773013,73.1655795 98.1794902,73.1608238 C98.6961296,73.1484589 99.2139446,73.1731887 99.7297024,73.1509953 C100.117917,73.1348258 99.9674506,73.4277791 99.9877282,73.6176915 C100.009769,73.8221882 100.029165,74.0079789 99.7232371,73.9997356 C98.9012572,73.9778593 98.0783958,73.9854684 97.256122,73.9968822 C97.0509944,73.9997356 96.9989778,73.9233268 97.001035,73.7134403 C97.0098514,72.8009731 97.0048554,71.8885058 97.0048554,70.9760386" id="Fill-80" fill="#4D5961"></path>
                                    <path d="M58.0048692,71.0132998 C58.0048692,70.1255158 58.0125097,69.238049 58.0001675,68.3508992 C57.9966411,68.0972466 58.0471854,67.9945173 58.3069595,68.0002245 C59.0939221,68.0182973 59.8817664,68.0179802 60.6687291,68.0008586 C60.9634727,67.9945173 60.9417269,68.0937589 60.8835423,68.3515333 C60.7912696,68.760231 60.6005531,68.8949839 60.2208832,68.8531312 C59.8720689,68.8144492 59.5164958,68.8531312 59.1641552,68.8420339 C58.9763773,68.8366438 58.8846923,68.8867402 58.8938021,69.1156616 C58.908789,69.4951892 58.9058504,69.8763022 58.8946836,70.2561469 C58.8891003,70.45463 58.9537499,70.5247015 59.1371199,70.5205797 C59.5717419,70.5107507 60.0075394,70.53675 60.4412798,70.5113848 C60.7862739,70.4914096 60.7075189,70.7368185 60.7063434,70.9353016 C60.7054618,71.1318823 60.7918573,71.3817301 60.4439246,71.362072 C60.0101841,71.3373409 59.5743867,71.3627062 59.1397646,71.3531942 C58.9596272,71.3493894 58.8893941,71.4128025 58.8946836,71.6144563 C58.9055565,72.0453486 58.9070259,72.476875 58.8940959,72.9077673 C58.887631,73.1173477 58.9672676,73.162371 59.1418217,73.1598345 C59.6704796,73.1506396 60.200019,73.1734683 60.7280892,73.1506396 C61.1148117,73.1341522 60.9696438,73.4245843 60.9881572,73.615775 C61.0072582,73.8177458 61.0334119,74.0079852 60.7248567,73.9997415 C59.9026306,73.977864 59.0798168,73.9854736 58.2572968,73.9968879 C58.0527688,73.9997415 57.998992,73.9245969 58.001049,73.7140653 C58.0098649,72.8139158 58.0048692,71.9134493 58.0048692,71.0132998" id="Fill-82" fill="#4D5961"></path>
                                    <path d="M114.004854,70.9776033 C114.005148,70.1031916 114.012203,69.2284627 114.00015,68.354685 C113.99721,68.1073895 114.035428,67.9942042 114.300602,68.0002281 C115.099359,68.0189337 115.898409,68.0154462 116.697459,68.0018133 C116.933823,67.9980087 116.956754,68.0519065 116.897075,68.2963487 C116.796238,68.7072398 116.632783,68.9215626 116.197391,68.8553001 C115.863131,68.8045728 115.516523,68.8597387 115.176677,68.8400819 C114.952954,68.827083 114.895921,68.9139535 114.905917,69.1422263 C114.92238,69.5217299 114.918558,69.9025017 114.906799,70.2826394 C114.901213,70.467477 114.958834,70.5248622 115.127287,70.5213747 C115.562091,70.5112292 115.997188,70.5280327 116.431697,70.5134486 C116.634547,70.5071077 116.688346,70.5819304 116.689816,70.7953021 C116.693638,71.3561558 116.703339,71.3561558 116.166523,71.3561558 C115.825501,71.3561558 115.484479,71.3605944 115.144044,71.3542535 C114.995876,71.3517171 114.902095,71.3710569 114.906799,71.5742832 C114.918558,72.0298777 114.91944,72.4870575 114.906505,72.942652 C114.900625,73.150951 114.998816,73.1601453 115.144338,73.15856 C115.673217,73.1534873 116.202683,73.1750464 116.730386,73.1503169 C117.084343,73.1335134 116.985858,73.3881011 116.989386,73.5783284 C116.993502,73.7752137 117.072878,74.0098275 116.725094,73.999682 C115.903113,73.9762207 115.079956,73.985732 114.257387,73.9965116 C114.054537,73.999365 113.99868,73.9286638 114.000738,73.7149751 C114.010733,72.8025178 114.004854,71.8900606 114.004854,70.9776033" id="Fill-84" fill="#4D5961"></path>
                                    <path d="M134.005206,70.9869621 C134.005206,70.0996766 134.012591,69.2127082 134.000184,68.3257397 C133.99723,68.084502 134.050109,67.9954248 134.291167,68.0001798 C135.094104,68.0157128 135.897041,68.0131768 136.699978,68.0017648 C136.941627,67.9982778 136.95433,68.069603 136.903224,68.3086216 C136.809577,68.7410108 136.611058,68.9074363 136.191274,68.8535462 C135.842094,68.808215 135.483756,68.8500591 135.129554,68.8421341 C134.964417,68.8386471 134.897358,68.9020473 134.900903,69.0833718 C134.908879,69.4761359 134.910947,69.869534 134.900017,70.2619811 C134.894699,70.4654956 134.971803,70.5231898 135.150528,70.5193858 C135.575335,70.5098758 136.001027,70.5250918 136.425538,70.5130458 C136.62317,70.5073398 136.720362,70.5387228 136.717408,70.7954936 C136.710318,71.3543661 136.725975,71.3543661 136.191274,71.3546831 C135.837072,71.3546831 135.482575,71.3635591 135.128668,71.3515131 C134.926309,71.3448561 134.898244,71.4558064 134.901198,71.6326929 C134.907698,72.0508171 134.913606,72.4695752 134.89854,72.8870654 C134.890564,73.113087 134.974461,73.1628561 135.166481,73.1587351 C135.673708,73.1470061 136.183593,73.1831442 136.689048,73.1451041 C137.042364,73.118793 137.003369,73.3324516 136.993916,73.5641793 C136.985644,73.7724488 137.0787,74.0133695 136.709136,73.9994215 C135.90679,73.9696234 135.103262,73.9778654 134.300325,73.9975195 C134.034452,74.0041765 133.996934,73.8957622 134.000184,73.6481845 C134.012887,72.761216 134.005206,71.8739306 134.005206,70.9869621" id="Fill-86" fill="#4D5961"></path>
                                    <path d="M157.00547,70.9815816 C157.00547,70.0943566 157.014034,69.2071315 157.000154,68.3199065 C156.996315,68.0693138 157.063352,67.9960393 157.295769,68.0001629 C158.074525,68.0144372 158.853577,68.0144372 159.632333,68.0004801 C159.903436,67.9954048 159.970769,68.0407653 159.881583,68.3551164 C159.776744,68.7265645 159.634696,68.9022966 159.246942,68.8537641 C158.886062,68.8084037 158.516322,68.8515437 158.150717,68.8417103 C157.97264,68.836635 157.89438,68.8937321 157.900287,69.0983299 C157.911214,69.4783426 157.912395,69.859307 157.899696,70.2390025 C157.892608,70.4553369 157.964962,70.5263911 158.164007,70.5213158 C158.599898,70.5089447 159.037265,70.5257566 159.473452,70.5133856 C159.658026,70.5086275 159.711479,70.5720687 159.715023,70.7715913 C159.724768,71.3568362 159.733923,71.356519 159.179904,71.356519 C158.861255,71.3562018 158.542015,71.3704761 158.224252,71.3517609 C157.98652,71.3381211 157.884044,71.4063203 157.897629,71.68451 C157.918301,72.0889475 157.910918,72.4956055 157.899401,72.9009947 C157.894085,73.098614 157.955511,73.1652273 158.140972,73.1611036 C158.659848,73.1503186 159.179314,73.1683994 159.69819,73.1528563 C159.921746,73.1458777 160.005617,73.2029748 159.99971,73.4630837 C159.987898,73.9931348 160.002664,73.9937692 159.52277,73.9937692 C158.779452,73.9937692 158.035838,73.9836186 157.292815,73.9997961 C157.058037,74.0045542 156.996906,73.9268388 157.000449,73.6813214 C157.013148,72.7817253 157.00547,71.881812 157.00547,70.9815816" id="Fill-88" fill="#4D5961"></path>
                                    <path d="M76.8935094,69.2459006 C76.1731136,68.833246 75.4787523,68.7201388 74.7600043,68.8636979 C73.4342257,69.1287539 72.7471145,70.5220846 73.2579166,71.8610369 C73.6685356,72.9380405 74.790982,73.4078701 76.0716123,73.0384075 C76.1470792,73.0166562 76.2192506,72.9815432 76.2960357,72.9675602 C76.4552082,72.9383512 76.6236081,72.7329561 76.7445529,72.8473062 C76.8806569,72.9765715 76.9192142,73.2009214 76.9887492,73.3876724 C77.0394999,73.5237739 76.9070209,73.5495648 76.821338,73.5964856 C75.7074598,74.2070777 74.032029,74.1138575 73.0934713,73.390469 C72.1222882,72.6419111 71.7459424,71.2625634 72.1766639,70.0295714 C72.5991467,68.8201951 73.6916041,68.0620045 75.0895541,68.004208 C75.5940947,67.9833888 76.0851238,68.0393209 76.5682438,68.1831907 C76.8308949,68.2614956 76.9663399,68.3792638 76.9004299,68.6642067 C76.8628612,68.8260991 76.8935094,69.0025959 76.8935094,69.2459006" id="Fill-90" fill="#4D5961"></path>
                                    <path d="M121.674963,69.1993093 C121.216527,69.0013877 120.827143,68.8366598 120.388917,68.8087398 C120.170309,68.79509 119.956081,68.8050171 119.75061,68.8664411 C119.223796,69.0240339 119.068514,69.4875056 119.395246,69.901652 C119.567034,70.1184972 119.813599,70.2500314 120.054437,70.3840473 C120.388243,70.5695601 120.739565,70.7299449 121.063939,70.9278665 C121.832266,71.3978529 122.133062,72.0037166 121.946117,72.7287055 C121.752098,73.4785122 121.139054,73.8231689 120.38218,73.9478781 C119.639454,74.0701056 118.908516,73.9792106 118.223389,73.655649 C118.007139,73.5535859 117.928656,73.4598989 118.07417,73.2328163 C118.347008,72.8053304 118.328482,72.8000566 118.806454,72.9998396 C119.270953,73.1943488 119.75162,73.2877256 120.257214,73.1481257 C120.950088,72.9576494 121.114465,72.3508551 120.59944,71.8833504 C120.395991,71.6993888 120.145383,71.5762306 119.901513,71.444076 C119.577475,71.2688006 119.241985,71.1062442 118.938832,70.903359 C118.269535,70.456329 118.018928,69.8262681 118.23181,69.1450205 C118.448733,68.4522946 119.016641,68.1318353 119.744547,68.0310131 C120.268666,67.9584211 120.788743,68.0173633 121.299389,68.165029 C121.599848,68.2518912 121.759509,68.3809436 121.681026,68.6961292 C121.645658,68.8360393 121.674963,68.9899094 121.674963,69.1993093" id="Fill-92" fill="#4D5961"></path>
                                    <path d="M93.0059109,71.002851 C93.0059109,70.1163492 93.0149465,69.2295301 93.0001884,68.3433454 C92.9959718,68.0813595 93.0613291,67.9957225 93.3185418,68.0001629 C93.9206122,68.0115812 93.9209134,67.9973083 93.9209134,68.6462467 C93.9209134,70.0392758 93.9275395,71.4326221 93.9151909,72.8256512 C93.9130826,73.0873199 93.972115,73.176763 94.2308336,73.1650276 C94.7232724,73.1431425 95.2172171,73.169468 95.7099571,73.1539265 C95.9274133,73.1472658 96.0003003,73.2119693 95.9999991,73.4488985 C95.9993967,73.9950724 96.0117453,73.9950724 95.4852725,73.9950724 C94.7518851,73.9950724 94.0178952,73.9865087 93.2845078,73.9998301 C93.0631362,74.0039533 92.9980801,73.9338578 93.0010919,73.7007348 C93.0131394,72.8015459 93.0059109,71.9023571 93.0059109,71.002851" id="Fill-94" fill="#4D5961"></path>
                                    <path d="M89.0063492,70.9744144 C89.0063492,70.0998559 89.0142121,69.2252974 89.001208,68.3510558 C88.997579,68.1000046 89.0432445,67.9953999 89.312701,68.0001547 C89.9247999,68.0112491 89.9251023,67.9957169 89.9251023,68.642998 C89.9251023,70.0370931 89.9317556,71.4308712 89.9193563,72.8252833 C89.916937,73.0931347 89.9907276,73.1723807 90.243551,73.1616032 C90.726214,73.1419502 91.2109938,73.1682599 91.6939592,73.1508258 C91.9277302,73.1422672 92.0054522,73.2091508 91.9997062,73.4643228 C91.9876094,73.99115 92.002428,73.991784 91.5079707,73.991784 C90.7824641,73.991784 90.0566552,73.9756178 89.3317535,73.9993916 C89.0465711,74.0089011 88.995462,73.9077833 89.0003008,73.6358111 C89.0163291,72.7492072 89.0063492,71.8616523 89.0063492,70.9744144" id="Fill-96" fill="#4D5961"></path>
                                    <path d="M149.007755,71.0165608 C149.007755,70.1302112 149.020541,69.2438616 149.000403,68.358146 C148.99369,68.0728403 149.069127,67.9923207 149.358086,68.0005629 C149.991624,68.0189493 149.991944,68.0024649 149.991944,68.6136531 C149.991944,70.2845933 149.983633,71.9558505 149.999935,73.6264737 C150.002812,73.9330187 149.910754,74.0084662 149.615721,73.9992731 C149.008074,73.9805697 149.007755,73.995786 149.007755,73.4090073 L149.007755,71.0165608 Z" id="Fill-98" fill="#4D5961"></path>
                                    <path d="M123.999862,73.3104447 C124.005442,73.9972506 123.841755,74.4407577 123.587988,74.8605213 C123.430147,75.1214079 123.292767,74.9467018 123.130675,74.8910069 C122.918892,74.8180173 123.017476,74.6846427 123.062915,74.5679766 C123.208533,74.1933552 123.260615,73.8002666 123.212784,73.4019016 C123.187275,73.192606 123.21677,73.0903033 123.418987,73.0903033 C123.459908,73.0903033 123.500299,73.0645078 123.541752,73.0557139 C124.000925,72.9581013 124.000925,72.9581013 123.999862,73.3104447" id="Fill-100" fill="#4D5961"></path>
                                    <path d="M8,72.4507419 C8.03182235,70.3424209 8.37903259,68.403607 9.52684285,66.6751302 C10.7499555,64.8331333 12.526021,63.7242233 14.6029809,63.0236149 C16.4505679,62.4003363 18.3640051,62.1522622 20.3057989,62.0427631 C22.145509,61.9391411 23.9782876,62.0433817 25.8123264,62.148241 C25.9730135,62.1575206 26.1371665,62.1575206 26.2827301,62.2561935 C28.458623,63.7325749 30.388759,65.4431111 31.7186814,67.7292907 C32.9521914,69.8496751 33.2256746,72.1194608 32.833724,74.4993642 C32.4858837,76.6113969 31.626365,78.4676226 30.0131922,79.9399829 C28.5481036,81.2774799 26.7918878,82.089134 24.8560804,82.4980542 C21.2037564,83.2701154 17.5662407,83.2033024 14.0380554,81.934165 C10.6841053,80.72751 8.80973713,78.2643997 8.21456459,74.8321918 C8.07246675,74.0143514 8.02331539,73.1893966 8,72.4507419" id="Fill-102" fill="#FEFEFE"></path>
                                    <path d="M29.999574,39.3870602 C29.9871576,40.6631714 29.8915516,42.6758717 29.3148112,44.6269302 C28.4068642,47.6981273 26.3684068,49.4549206 23.1860914,49.8621305 C21.6740881,50.0557731 20.1673617,50.06916 18.6711892,49.7481864 C16.2481348,49.2279664 14.7668619,47.6834952 13.9650749,45.3899819 C13.4646952,43.9585207 13.2110909,42.4794272 13.0956187,40.9776072 C12.9099939,38.562678 12.9888379,36.1517961 13.3830576,33.7602162 C13.6189686,32.3281324 14.0476438,30.9502187 14.8994067,29.7516268 C15.8635377,28.3942605 17.1886747,27.559916 18.813667,27.2436123 C20.6264569,26.8908838 22.443903,26.9033367 24.2324809,27.3986509 C26.8507828,28.1240325 28.4559089,29.8814483 29.2350361,32.4479916 C29.8484047,34.4681637 30.0095071,36.5459305 29.999574,39.3870602" id="Fill-104" fill="#FEFEFE"></path>
                                    <path d="M100.693002,54 C100.833025,54.8597779 100.91863,55.71774 100.968275,56.5820574 C101.067564,58.3061526 100.940907,60.0075505 100.487422,61.6826193 C100.407863,61.9764751 100.288207,62.2558046 100.127498,62.5181867 C99.7608914,63.1158851 99.3077248,63.1612799 98.8294177,62.6331869 C98.3390177,62.0920806 98.1286644,61.4359741 98.0430592,60.741736 C97.8298418,59.0194566 98.4360793,57.4826906 99.2520337,55.9970694 C99.5934998,55.3748578 99.9995676,54.7895672 100.434277,54.2230399 C100.496651,54.1416318 100.53102,54.0233027 100.693002,54" id="Fill-106" fill="#FEFEFE"></path>
                                    <path d="M152.00504,70.9713059 C152.00504,70.3990986 152.013701,69.8268913 152.000228,69.2552685 C151.995416,69.0539146 152.065989,68.9855303 152.282519,69.0024803 C152.6264,69.0290742 152.978301,69.0086173 153.315766,69.064143 C154.435625,69.2479625 155.062439,70.0294141 154.995074,71.1185953 C154.929313,72.1747532 154.202736,72.8755464 153.079027,72.9649721 C152.00504,73.0508909 152.00504,73.0508909 152.00504,72.0920491 L152.00504,70.9713059 Z" id="Fill-108" fill="#FEFEFE"></path>
                                </g>
                            </g>
                        </g>
                    </g>
                </g>
            </g>
        </g>
    </g>
</svg>