<svg id="Capa_1" data-name="Capa 1" xmlns="http://www.w3.org/2000/svg" width="100" height="100" viewBox="0 0 100 100"><defs><style>.cls-1{fill:#1c9957;}.cls-2{fill:#3e7bf1;}.cls-3{fill:#cbccc9;}.cls-4{fill:#efefef;}.cls-5{fill:#ffd73d;}.cls-6{fill:#d73f35;}.cls-7{fill:#752622;}.cls-8{fill:#fff;}</style></defs><title>google-maps2</title><g id="surface1"><path class="cls-1" d="M87.5,81.2V18.7a6.3,6.3,0,0,0-6.2-6.2H18.7a6.3,6.3,0,0,0-6.2,6.2V81.2a6.3,6.3,0,0,0,6.2,6.2H81.2A6.3,6.3,0,0,0,87.5,81.2Z"/><path class="cls-2" d="M18.7,87.5H81.2C84.7,87.5,50,54.2,50,54.2S15.3,87.5,18.7,87.5Z"/><path class="cls-3" d="M87.5,81.2V18.7C87.5,15.3,54.2,50,54.2,50S87.5,84.7,87.5,81.2Z"/><path class="cls-4" d="M81.2,87.5a6.3,6.3,0,0,0,6.2-6.2v-.5L54.7,47.9l-6.8,6.8L80.7,87.5Z"/><path class="cls-5" d="M87.5,18.7a6.3,6.3,0,0,0-6.2-6.2h-.5L12.5,80.7v.5a6.3,6.3,0,0,0,6.2,6.2h.5L87.5,19.3Z"/><path class="cls-6" d="M75,4.2A20.8,20.8,0,0,0,54.2,25c0,14.2,16,19.4,19.4,41.4.2,1.4.2,2.4,1.4,2.4s1.2-1,1.4-2.4c3.5-22,19.4-27.2,19.4-41.4A20.8,20.8,0,0,0,75,4.2Z"/><path class="cls-7" d="M82.3,25A7.3,7.3,0,1,1,75,17.7,7.3,7.3,0,0,1,82.3,25Z"/><path class="cls-8" d="M30.2,26.1v4.4h6.2A6.3,6.3,0,0,1,30.2,35a6.9,6.9,0,1,1,4.5-12.2l3.2-3.2a11.5,11.5,0,1,0-7.7,19.9c10,0,11.7-9,10.8-13.5Z"/></g></svg>