<?xml version="1.0" encoding="UTF-8"?>
<svg width="157px" height="66px" viewBox="0 0 157 66" version="1.1" xmlns="http://www.w3.org/2000/svg" xmlns:xlink="http://www.w3.org/1999/xlink">
    <!-- Generator: Sketch 50.2 (55047) - http://www.bohemiancoding.com/sketch -->
    <title>grupo-vips</title>
    <desc>Created with Sketch.</desc>
    <defs></defs>
    <g id="06-Empresas" stroke="none" stroke-width="1" fill="none" fill-rule="evenodd">
        <g id="06-E-Empresas" transform="translate(-1156.000000, -2094.000000)" fill="#192F4F">
            <g id="grupo-vips" transform="translate(1156.000000, 2094.000000)">
                <path d="M8.52514456,53.7420702 C5.39860387,42.6313248 16.9020032,36.0192429 25.328527,32.5031544 C19.2398137,36.0192429 11.3028466,43.78688 12.7253989,50.2365724 C15.3943105,62.3345996 47.2781671,64.3797675 85.8987491,55.0458941 C125.757413,45.4131297 154.007435,27.7032465 151.968798,15.4240019 C150.075609,4.02966312 121.636386,1.33964365 86.7702546,8.677772 C123.677388,0.16173049 154.709842,3.54484771 156.879737,16.6172127 C159.102844,30.0025895 130.240286,48.5197139 92.2428833,58.1771898 C89.1092476,59.1162254 85.8963841,60.0011312 82.6161179,60.8201398 C44.1492614,70.4070114 11.9473113,65.9012877 8.52514456,53.7420702" id="Fill-1"></path>
                <path d="M7.79267997,0 C9.31970591,0 14.6230912,0.506177462 15,4.15284538 L11.6962915,4.15284538 C10.374081,2.25102958 9.0373273,2.3216024 7.88721015,2.3216024 C5.77361235,2.3216024 3.38005979,3.33639086 3.38005979,6.73118682 C3.38005979,9.75 6.28989254,10.9095844 7.88721015,10.9095844 C9.15488406,10.9095844 11.7387089,9.66360914 12.0210875,8.27162112 C11.8574776,8.0891052 11.5532843,8.12439161 8.29078129,8.2947398 L8.29078129,6.30044927 L14.9939404,6.30044927 L14.9939404,12.4999064 L12.7955078,12.4999064 C12.7688454,11.9547922 12.5906924,11.5410895 12.4731357,11.1407712 C11.6623576,12.2383003 8.35622526,13 7.32366486,13 C4.71923729,13 0,11.6639835 0,6.61559341 C0,1.21798952 5.04645714,0 7.79267997,0" id="Fill-3"></path>
                <path d="M22.1976593,1.00014744 L24,1.00014744 L24,2.94388718 C22.658485,2.94504555 20.944896,2.56857629 19.4270156,5.10655828 L19.4270156,12 L17,12 L17,1.24224613 L19.4042588,1.24224613 C19.2631664,2.00792669 19.2620286,2.60564404 19.3644343,3.19525281 C19.7194408,2.3091021 21.2054616,0.983930305 22.1976593,1.00014744" id="Fill-5"></path>
                <path d="M26,1 L28.6069305,1 L28.6069305,8.83721649 C28.6202868,10.3783505 31.4651629,10.4860825 31.5355866,10.4860825 C32.5713012,10.4860825 35.5813089,9.86350515 35.5946651,7.59206186 L35.5946651,1 L38,1 L38,11.5361856 L35.7962227,11.5361856 C35.7695103,11.0281443 35.7780097,10.6425773 35.6578036,10.2683505 C34.4436013,11.5418557 32.2653223,12 30.9721967,12 C29.4908699,12 25.9866818,11.3241237 26.0000381,8.89051546 L26,1 Z" id="Fill-7"></path>
                <path d="M28,19.0002025 L33.7194543,19.0002025 C34.1751736,18.9628229 39.6355626,24.1106834 42.4994112,26.762293 C45.1819142,24.3314562 50.4597799,18.9628229 50.9154992,19.0002025 L57,19.0002025 L42.4994112,33 L28,19.0002025 Z" id="Fill-9"></path>
                <polygon id="Fill-11" points="59 33 64 33 64 19 59 19"></polygon>
                <path d="M96.1661491,19.0001456 L113.169255,19.0001456 L113.169255,22.6963307 L96.5271739,22.6963307 C96.0764752,22.7112717 96.0275621,22.8986095 95.6851708,23.3020177 C95.693323,23.4790116 95.8470497,23.8398954 96.177795,24.2501995 L110.015528,24.2501995 C111.728649,24.2456023 115,25.6167306 115,28.7405586 C115,30.9598787 112.450699,33.0159965 110.736413,32.9999062 L92.8319099,32.9999062 L92.8319099,29.5232396 L109.654503,29.5232396 C110.105202,29.5082986 110.489519,29.1784462 110.489519,28.6313741 C110.489519,28.0831526 110.154115,27.940638 110.002717,27.7498523 L94.9037267,27.7498523 C93.1871118,27.7533002 91,25.6431648 91,23.5881962 C91,20.3000167 94.2259317,18.9840553 96.1661491,19.0001456" id="Fill-13"></path>
                <path d="M54,6.98401894 C54,2.77804084 50.5152564,1 47.9458056,1 C47.1430003,1 44.0371619,1.73157739 43.4545951,3.03255401 C43.3492121,2.64308967 43.3586848,2.0168689 43.3338191,1.48416691 L41,1.48416691 L41,17 L43.678386,17 C43.542217,12.17372 43.5161672,11.8055638 43.6464159,11.6126073 C45.7659168,13.1787511 46.0654887,12.9704054 47.6699153,12.9704054 C50.1233264,12.9704054 54,11.9523528 54,6.98401894 M51.4317333,7.09766203 C51.4317333,10.6549275 48.8172875,11.3888724 47.2116768,11.3888724 C45.1478277,11.3888724 43.3586848,10.5424682 43.3586848,7.43740752 C43.3586848,4.44362237 45.0791511,2.8076354 47.395209,2.8076354 C49.711267,2.8076354 51.4317333,4.33116307 51.4317333,7.09766203" id="Fill-14"></path>
                <path d="M90,24.446723 C90,20.4622844 85.7423088,18.9849215 83.7934227,19.0001159 L66,19 L66,33 L71.2356061,33 C71.352493,29.8021637 71.1638538,29.6256749 71.219404,29.4550302 L85.2261549,29.4550302 C86.7051789,29.4643806 90,26.9841874 90,24.446723 M84.9796509,24.224651 C84.9796509,25.2005989 83.5897386,25.6739628 83.074742,25.643574 L71.0215064,25.643574 L71.0215064,22.7905337 L83.074742,22.7905337 C83.5897386,22.7753393 84.9796509,23.1926008 84.9796509,24.224651" id="Fill-15"></path>
                <path d="M69,6.99881329 C69,2.55696203 64.8315074,1 62.0005945,1 C59.6738004,1 55,2.81210443 55,7.33821203 C55,12.0921677 59.6987686,13 61.9078556,13 C64.37138,13 69,12.2072785 69,6.99881329 M66.4223355,6.99881329 C66.4223355,10.9327532 63.8197028,11.414557 62.0921444,11.414557 C59.8818684,11.414557 57.7631423,10.5933544 57.7631423,7.33821203 C57.7631423,4.2539557 59.8818684,2.81210443 62.0921444,2.81210443 C64.3024204,2.81210443 66.4223355,4 66.4223355,6.99881329" id="Fill-16"></path>
            </g>
        </g>
    </g>
</svg>