<?xml version="1.0" encoding="UTF-8"?>
<svg width="133px" height="56px" viewBox="0 0 133 56" version="1.1" xmlns="http://www.w3.org/2000/svg" xmlns:xlink="http://www.w3.org/1999/xlink">
    <!-- Generator: Sketch 50.2 (55047) - http://www.bohemiancoding.com/sketch -->
    <title>Group 3</title>
    <desc>Created with Sketch.</desc>
    <defs></defs>
    <g id="Copys" stroke="none" stroke-width="1" fill="none" fill-rule="evenodd">
        <g id="00-E-Home-1920-Copy" transform="translate(-667.000000, -424.000000)" fill="#FFFFFF">
            <g id="Group-2" transform="translate(667.000000, 423.000000)">
                <g id="Group-3" transform="translate(0.000000, 1.000000)">
                    <path d="M3.0017399,10.257682 L42.6684339,10.257682 L42.6684339,3.04195505 L3.0017399,3.04195505 L3.0017399,10.257682 Z M0,13.299637 L45.6701738,13.299637 L45.6701738,0 L0,0 L0,13.299637 Z" id="Fill-1"></path>
                    <polyline id="Fill-2" points="10.9757539 21.4622269 10.9757539 34.2515048 8.34494903 34.2515048 8.34494903 28.877742 2.63080482 28.877742 2.63080482 34.2515048 0 34.2515048 0 21.4622269 2.63080482 21.4622269 2.63080482 26.5446716 8.34494903 26.5446716 8.34494903 21.4622269 10.9757539 21.4622269"></polyline>
                    <path d="M15.2977236,28.7038348 L18.7713079,28.7038348 C18.7096411,27.7042631 18.15464,26.9960096 17.1474158,26.9960096 C16.3049478,26.9960096 15.5851905,27.5376153 15.2977236,28.7038348 Z M15.2155012,30.3911446 C15.4210572,31.9114909 16.5105038,32.536736 17.8671731,32.536736 C18.8740859,32.536736 19.5935317,32.3072796 20.4979779,31.724012 L20.4979779,33.8487725 C19.7371094,34.4112091 18.7096411,34.6611809 17.4766168,34.6611809 C14.6810557,34.6611809 12.7693853,32.8280542 12.7693853,29.87037 C12.7693853,26.9543477 14.5782778,24.9340578 17.0860605,24.9340578 C19.7579765,24.9340578 21.1352014,26.8085308 21.1352014,29.5579052 L21.1352014,30.3911446 L15.2155012,30.3911446 Z" id="Fill-3"></path>
                    <polyline id="Fill-4" points="30.968251 30.8699416 32.6126987 24.9340578 35.0793702 24.9340578 32.2838091 34.2445612 29.9407826 34.2445612 28.4402241 28.5375025 26.9399771 34.2445612 24.5966392 34.2445612 21.8013896 24.9340578 24.349972 24.9340578 25.9944197 30.8699416 27.4946667 24.9340578 29.4474483 24.9340578 30.968251 30.8699416"></polyline>
                    <path d="M44.5738753,28.7038348 L48.0474596,28.7038348 C47.9857928,27.7042631 47.4307917,26.9960096 46.4235675,26.9960096 C45.5810995,26.9960096 44.8613422,27.5376153 44.5738753,28.7038348 Z M44.4916529,30.3911446 C44.6972089,31.9114909 45.7866555,32.536736 47.1433248,32.536736 C48.1502376,32.536736 48.8696834,32.3072796 49.7741296,31.724012 L49.7741296,33.8487725 C49.0132611,34.4112091 47.9857928,34.6611809 46.7527685,34.6611809 C43.9572075,34.6611809 42.045537,32.8280542 42.045537,29.87037 C42.045537,26.9543477 43.8544295,24.9340578 46.3622122,24.9340578 C49.0341282,24.9340578 50.4113531,26.8085308 50.4113531,29.5579052 L50.4113531,30.3911446 L44.4916529,30.3911446 Z" id="Fill-5"></path>
                    <path d="M73.4924843,23.7328043 L71.1289022,23.7328043 L71.1289022,27.5445589 L73.4924843,27.5445589 C74.8491536,27.5445589 75.5069327,26.7529815 75.5069327,25.6489393 C75.5069327,24.5032351 74.8491536,23.7328043 73.4924843,23.7328043 Z M71.1289022,29.8148207 L71.1289022,34.2515048 L68.518653,34.2515048 L68.518653,21.4622269 L73.6572405,21.4622269 C76.3291565,21.4622269 78.0969377,22.9203959 78.0969377,25.6489393 C78.0969377,28.3566517 76.3291565,29.8148207 73.6572405,29.8148207 L71.1289022,29.8148207 Z" id="Fill-6"></path>
                    <path d="M84.4075057,31.245215 C84.1813941,30.7452713 83.5033709,30.4328065 82.783925,30.4328065 C81.9822568,30.4328065 81.160033,30.7869333 81.160033,31.5781951 C81.160033,32.3909191 81.9822568,32.7238993 82.783925,32.7238993 C83.5033709,32.7238993 84.1813941,32.4114345 84.4075057,31.9114909 L84.4075057,31.245215 Z M84.4075057,28.6416575 C84.4075057,27.7459251 83.6472601,27.1834885 82.3522575,27.1834885 C81.4275672,27.1834885 80.5639207,27.4542913 79.8447863,27.933404 L79.8447863,25.7044886 C80.5025654,25.2881845 81.6944785,24.9340578 82.9072586,24.9340578 C85.4352855,24.9340578 86.8536216,26.2460942 86.8536216,28.5163559 L86.8536216,34.452871 L84.4075057,34.452871 L84.4075057,33.9529274 C84.0994832,34.2653922 83.1947255,34.6195189 82.1878128,34.6195189 C80.3381206,34.6195189 78.7964509,33.5366233 78.7964509,31.5993417 C78.7964509,29.828708 80.3381206,28.6205109 82.3522575,28.6205109 C83.1539258,28.6205109 84.0378164,28.8916293 84.4075057,29.1621165 L84.4075057,28.6416575 Z" id="Fill-7"></path>
                    <path d="M93.0966052,24.9340578 C94.021607,24.9340578 94.9257418,25.1423676 95.5835209,25.6628266 L95.5835209,28.0164123 C94.966853,27.4542913 94.2268515,27.1834885 93.4046277,27.1834885 C92.0482698,27.1834885 90.9793788,28.1417138 90.9793788,29.807877 C90.9793788,31.4535248 92.0482698,32.4322655 93.4046277,32.4322655 C94.2268515,32.4322655 94.966853,32.1409473 95.5835209,31.5993417 L95.5835209,33.9320964 C94.9257418,34.452871 94.021607,34.6611809 93.0966052,34.6611809 C90.4860445,34.6611809 88.451352,32.7867078 88.451352,29.807877 C88.451352,26.8085308 90.4860445,24.9340578 93.0966052,24.9340578" id="Fill-8"></path>
                    <polyline id="Fill-9" points="106.633088 34.3701783 103.652838 34.3701783 100.343699 30.079311 100.343699 34.3701783 97.7948047 34.3701783 97.7948047 20.830985 100.343699 20.830985 100.343699 28.7464436 103.488082 25.0596749 106.550866 25.0596749 102.727836 29.3293956 106.633088 34.3701783"></polyline>
                    <path d="M112.749312,31.245215 C112.523201,30.7452713 111.845177,30.4328065 111.125731,30.4328065 C110.324063,30.4328065 109.501839,30.7869333 109.501839,31.5781951 C109.501839,32.3909191 110.324063,32.7238993 111.125731,32.7238993 C111.845177,32.7238993 112.523201,32.4114345 112.749312,31.9114909 L112.749312,31.245215 Z M112.749312,28.6416575 C112.749312,27.7459251 111.989067,27.1834885 110.694064,27.1834885 C109.769374,27.1834885 108.905727,27.4542913 108.186593,27.933404 L108.186593,25.7044886 C108.844372,25.2881845 110.036285,24.9340578 111.249065,24.9340578 C113.777092,24.9340578 115.195117,26.2460942 115.195117,28.5163559 L115.195117,34.452871 L112.749312,34.452871 L112.749312,33.9529274 C112.44129,34.2653922 111.536532,34.6195189 110.529619,34.6195189 C108.679927,34.6195189 107.138257,33.5366233 107.138257,31.5993417 C107.138257,29.828708 108.679927,28.6205109 110.694064,28.6205109 C111.495732,28.6205109 112.379311,28.8916293 112.749312,29.1621165 L112.749312,28.6416575 Z" id="Fill-10"></path>
                    <path d="M122.98631,27.6834322 C122.636865,27.4748067 122.184642,27.3706518 121.711863,27.3706518 C120.84884,27.3706518 120.14995,27.829249 119.964949,28.6833194 L119.964949,34.452871 L117.416055,34.452871 L117.416055,25.1423676 L119.964949,25.1423676 L119.964949,26.0586153 C120.355505,25.3923394 121.115751,24.9340578 122.020509,24.9340578 C122.451865,24.9340578 122.842421,25.0170661 122.98631,25.10039 L122.98631,27.6834322" id="Fill-11"></path>
                    <path d="M130.430862,28.1836914 C130.143084,27.5590775 129.444193,27.1007958 128.704503,27.1007958 C127.327278,27.1007958 126.505366,28.2253534 126.505366,29.7251843 C126.505366,31.2041842 127.327278,32.3287418 128.704503,32.3287418 C129.46506,32.3287418 130.143084,31.8912911 130.430862,31.2455306 L130.430862,28.1836914 Z M130.430862,33.5994319 C130.020061,34.0990599 129.115615,34.5784882 128.128947,34.5784882 C125.457031,34.5784882 123.956472,32.3912348 123.956472,29.7251843 C123.956472,27.0591338 125.457031,24.8513651 128.128947,24.8513651 C129.115615,24.8513651 130.020061,25.3301621 130.430862,25.8301057 L130.430862,20.830985 L133,20.830985 L133,34.3701783 L130.430862,34.3701783 L130.430862,33.5994319 Z" id="Fill-12"></path>
                    <path d="M40.5122765,32.8870753 C39.7442446,32.8870753 39.2767606,32.4613026 39.2614996,31.6350069 L39.2998077,31.6350069 L39.2998077,21.7778479 L36.7509139,21.7778479 L36.7509139,31.7618865 C36.7509139,33.865816 38.0459164,35.0740131 39.9983866,35.0740131 C40.5944988,35.0740131 41.0467219,34.9910048 41.4167227,34.8237257 L41.4167227,32.6367879 C41.1494999,32.8245824 40.8206104,32.8870753 40.5122765,32.8870753" id="Fill-13"></path>
                    <path d="M61.5272588,27.6695448 L63.8469266,27.6695448 L63.8469266,25.5656153 L61.5272588,25.5656153 L61.5272588,21.7778479 L58.9786763,21.7778479 L58.9786763,25.5656153 L55.2982903,25.5656153 L55.2982903,21.7778479 L52.7497079,21.7778479 L52.7497079,25.5656153 L51.0775413,25.5656153 L51.0775413,27.6695448 L52.7497079,27.6695448 L52.7497079,31.7618865 C52.7497079,33.865816 54.0447104,35.0740131 55.9971806,35.0740131 C56.5929814,35.0740131 57.0452045,34.9910048 57.4152052,34.8237257 L57.4152052,32.6367879 C57.1482939,32.8245824 56.8194044,32.8870753 56.5110705,32.8870753 C55.7427272,32.8870753 55.2752431,32.4613026 55.2599822,31.6350069 L55.2982903,31.6350069 L55.2982903,27.6695448 L58.9786763,27.6695448 L58.9786763,31.7618865 C58.9786763,33.865816 60.2733674,35.0740131 62.2258376,35.0740131 C62.8219499,35.0740131 63.2744844,34.9910048 63.6444851,34.8237257 L63.6444851,32.6367879 C63.3769509,32.8245824 63.0483729,32.8870753 62.7400389,32.8870753 C61.9716957,32.8870753 61.5042116,32.4613026 61.4889506,31.6350069 L61.5272588,31.6350069 L61.5272588,27.6695448" id="Fill-14"></path>
                    <polyline id="Fill-15" points="8.40910741 39.452623 8.40910741 40.9218387 1.92661994 40.9218387 1.92661994 44.993665 7.80863485 44.993665 7.80863485 46.4628807 1.92661994 46.4628807 1.92661994 50.8490655 8.40910741 50.8490655 8.40910741 52.3394278 0.311448423 52.3394278 0.311448423 39.452623 8.40910741 39.452623"></polyline>
                    <path d="M10.5892464,43.1131952 L12.1427511,43.1131952 L12.1427511,44.2885678 C12.6812454,43.5538021 13.6753888,42.9244539 14.8557783,42.9244539 C16.9477774,42.9244539 18.0867442,44.2885678 18.0867442,46.3243231 L18.0867442,52.4319048 L16.5126839,52.4319048 L16.5126839,46.5761887 C16.5126839,45.2748833 15.8704773,44.3725229 14.4829745,44.3725229 C13.4059859,44.3725229 12.4741322,45.106973 12.1427511,46.1144352 L12.1427511,52.4319048 L10.5892464,52.4319048 L10.5892464,43.1131952" id="Fill-16"></path>
                    <path d="M28.0885989,46.8072232 L32.831024,46.8072232 C32.7690458,45.4427937 32.0857279,44.2677368 30.5945129,44.2677368 C29.3727007,44.2677368 28.3785574,45.086142 28.0885989,46.8072232 Z M28.0054422,48.0454043 C28.0677318,50.2070925 29.4141234,51.2357012 31.0912731,51.2357012 C32.1271506,51.2357012 32.8727581,50.9838357 33.7008995,50.3541718 L33.7008995,51.8022409 C32.9556034,52.3899272 32.0028827,52.6209617 30.9053384,52.6209617 C28.2542894,52.6209617 26.4731159,50.7950943 26.4731159,47.856663 C26.4731159,44.9602092 28.1300215,42.9244539 30.5736458,42.9244539 C33.0590043,42.9244539 34.3431061,44.7503213 34.3431061,47.4788647 L34.3431061,48.0454043 L28.0054422,48.0454043 Z" id="Fill-17"></path>
                    <path d="M41.4727834,44.6871971 C41.2242475,44.5196023 40.8308882,44.4353315 40.4372174,44.4353315 C39.4639411,44.4353315 38.6146212,45.086142 38.3041071,46.1775593 L38.3041071,52.4319048 L36.7509139,52.4319048 L36.7509139,43.1131952 L38.3041071,43.1131952 L38.3041071,44.3305453 C38.6974665,43.5329711 39.5673419,42.9244539 40.5823523,42.9244539 C40.9757117,42.9244539 41.3070928,42.9872624 41.4727834,43.0712176 L41.4727834,44.6871971" id="Fill-18"></path>
                    <path d="M44.5330756,49.6616994 C45.0092802,50.6268684 45.9205783,51.193408 46.8938546,51.193408 C48.6541611,51.193408 49.6900386,49.745339 49.6900386,47.7723922 C49.6900386,45.7994454 48.6541611,44.3513763 46.8938546,44.3513763 C45.9205783,44.3513763 45.0092802,44.917916 44.5330756,45.8837162 L44.5330756,49.6616994 Z M44.5330756,56 L42.9798823,56 L42.9798823,43.1131952 L44.5330756,43.1131952 L44.5330756,44.2046126 C45.0092802,43.5329711 45.9825565,42.9244539 47.1218349,42.9244539 C49.8348621,42.9244539 51.2637874,45.1912438 51.2637874,47.7723922 C51.2637874,50.3541718 49.8348621,52.6209617 47.1218349,52.6209617 C45.9825565,52.6209617 45.0092802,52.0121289 44.5330756,51.3404874 L44.5330756,56 Z" id="Fill-19"></path>
                    <path d="M58.2909982,44.6871971 C58.0424624,44.5196023 57.649103,44.4353315 57.2554322,44.4353315 C56.2818444,44.4353315 55.432836,45.086142 55.122322,46.1775593 L55.122322,52.4319048 L53.5691287,52.4319048 L53.5691287,43.1131952 L55.122322,43.1131952 L55.122322,44.3305453 C55.5159928,43.5329711 56.3855568,42.9244539 57.4002557,42.9244539 C57.7939265,42.9244539 58.1253076,42.9872624 58.2909982,43.0712176 L58.2909982,44.6871971" id="Fill-20"></path>
                    <path d="M60.3372143,52.2756724 L61.8907191,52.2756724 L61.8907191,42.9569628 L60.3372143,42.9569628 L60.3372143,52.2756724 Z M61.1033775,41.1519264 C60.5651946,41.1519264 60.1095455,40.6901729 60.1095455,40.1447799 C60.1095455,39.5779246 60.5651946,39.1370021 61.1033775,39.1370021 C61.6627388,39.1370021 62.1183879,39.5779246 62.1183879,40.1447799 C62.1183879,40.6901729 61.6627388,41.1519264 61.1033775,41.1519264 Z" id="Fill-21"></path>
                    <path d="M64.158375,50.0183511 C65.0076949,50.8159253 66.0638165,51.2776788 67.1822278,51.2776788 C68.1972382,51.2776788 69.0876692,50.8998805 69.0876692,49.9763735 C69.0876692,49.2835855 68.5697305,48.9057871 67.7621447,48.6330906 L66.4989099,48.1921681 C65.1114072,47.7307302 64.1792421,47.0590888 64.1792421,45.5478955 C64.1792421,43.9107694 65.6081674,42.9244539 67.4307636,42.9244539 C68.4663296,42.9244539 69.4190503,43.218297 70.1646579,43.7428591 L70.1646579,45.3799851 C69.3981833,44.7294903 68.5491749,44.2677368 67.4307636,44.2677368 C66.4780429,44.2677368 65.6910127,44.6871971 65.6910127,45.4847713 C65.6910127,46.2403679 66.1883959,46.4922335 67.0579598,46.8072232 L68.4663296,47.2898077 C69.8538323,47.7723922 70.6203069,48.591113 70.6203069,49.9135649 C70.6203069,51.6343305 69.1085363,52.6209617 67.1822278,52.6209617 C65.9812827,52.6209617 64.8420043,52.2428478 64.158375,51.6974547 L64.158375,50.0183511" id="Fill-22"></path>
                    <path d="M73.871517,46.8072232 L78.6142536,46.8072232 C78.5519639,45.4427937 77.868646,44.2677368 76.377431,44.2677368 C75.1553074,44.2677368 74.1614755,45.086142 73.871517,46.8072232 Z M73.7883603,48.0454043 C73.8506499,50.2070925 75.1970415,51.2357012 76.8745027,51.2357012 C77.9100687,51.2357012 78.6553648,50.9838357 79.484129,50.3541718 L79.484129,51.8022409 C78.7385215,52.3899272 77.7854893,52.6209617 76.6879451,52.6209617 C74.0368961,52.6209617 72.256034,50.7950943 72.256034,47.856663 C72.256034,44.9602092 73.9129396,42.9244539 76.3568754,42.9244539 C78.8419224,42.9244539 80.1260242,44.7503213 80.1260242,47.4788647 L80.1260242,48.0454043 L73.7883603,48.0454043 Z" id="Fill-23"></path>
                    <path d="M24.4686339,51.1347025 C23.5573358,51.1347025 22.9568632,50.5473319 22.9568632,49.4344523 L22.9568632,48.6296188 L22.9951714,48.6296188 L22.9951714,44.3447483 L25.4347469,44.3447483 L25.4347469,43.0295557 L22.9951714,43.0295557 L22.9951714,40.715107 L21.4242255,40.715107 L21.4242255,43.0295557 L19.3098022,43.0295557 L19.3098022,44.3447483 L21.4242255,44.3447483 L21.4242255,49.5610163 C21.4242255,51.4288613 22.6254821,52.519963 24.2406536,52.519963 C24.7380368,52.519963 25.0899735,52.4568388 25.4422216,52.3103907 L25.4422216,50.8825214 C25.1522632,51.071894 24.800015,51.1347025 24.4686339,51.1347025" id="Fill-24"></path>
                </g>
            </g>
        </g>
    </g>
</svg>