<?xml version="1.0" encoding="UTF-8"?>
<svg width="159px" height="67px" viewBox="0 0 159 67" version="1.1" xmlns="http://www.w3.org/2000/svg" xmlns:xlink="http://www.w3.org/1999/xlink">
    <!-- Generator: Sketch 50.2 (55047) - http://www.bohemiancoding.com/sketch -->
    <title>hp</title>
    <desc>Created with Sketch.</desc>
    <defs></defs>
    <g id="00-Home" stroke="none" stroke-width="1" fill="none" fill-rule="evenodd">
        <g id="00-E-Home-2560" transform="translate(-679.000000, -4161.000000)">
            <g id="hp" transform="translate(679.000000, 4161.000000)">
                <path d="M3.58700555,12.4896788 L50.9877319,12.4896788 L50.9877319,3.98105449 L3.58700555,3.98105449 L3.58700555,12.4896788 Z M0,16.0766843 L54.5747374,16.0766843 L54.5747374,0.394048945 L0,0.394048945 L0,16.0766843 Z" id="Fill-1" fill="#00A982"></path>
                <polyline id="Fill-2" fill="#1A1919" points="13.1957739 25.9604887 13.1957739 41.0413199 10.0520266 41.0413199 10.0520266 34.7046986 3.22376448 34.7046986 3.22376448 41.0413199 0.0800172435 41.0413199 0.0800172435 25.9604887 3.22376448 25.9604887 3.22376448 31.9535941 10.0520266 31.9535941 10.0520266 25.9604887 13.1957739 25.9604887"></polyline>
                <path d="M18.3042236,34.2621846 L22.4550716,34.2621846 C22.3813813,33.083512 21.7181686,32.2483553 20.5145604,32.2483553 C19.5078318,32.2483553 18.6477395,32.8870046 18.3042236,34.2621846 Z M18.2059698,36.2518227 C18.4516042,38.0445811 19.7534661,38.7818563 21.3746527,38.7818563 C22.5778887,38.7818563 23.4376089,38.5112864 24.5183999,37.8235102 L24.5183999,40.3289804 C23.6091807,40.9921931 22.3813813,41.2869543 20.9079475,41.2869543 C17.5673206,41.2869543 15.2829213,39.1253722 15.2829213,35.6377369 C15.2829213,32.1992285 17.4445034,29.8169476 20.4412422,29.8169476 C23.6341163,29.8169476 25.2798663,32.0272844 25.2798663,35.2692854 L25.2798663,36.2518227 L18.2059698,36.2518227 Z" id="Fill-3" fill="#1A1919"></path>
                <polyline id="Fill-4" fill="#1A1919" points="37.1179523 37.0620438 39.0830269 30.062582 42.0306389 30.062582 38.690012 41.0413199 35.8901528 41.0413199 34.0970222 34.3116837 32.3042638 41.0413199 29.5040325 41.0413199 26.1637778 30.062582 29.2092713 30.062582 31.1743459 37.0620438 32.9671043 30.062582 35.3006304 30.062582 37.1179523 37.0620438"></polyline>
                <path d="M53.1969522,34.2621846 L57.3478001,34.2621846 C57.2741098,33.083512 56.6108972,32.2483553 55.4072889,32.2483553 C54.4005604,32.2483553 53.540468,32.8870046 53.1969522,34.2621846 Z M53.0986984,36.2518227 C53.3443328,38.0445811 54.6461947,38.7818563 56.2673813,38.7818563 C57.4706173,38.7818563 58.3303375,38.5112864 59.4111285,37.8235102 L59.4111285,40.3289804 C58.5019093,40.9921931 57.2741098,41.2869543 55.800676,41.2869543 C52.4600492,41.2869543 50.1756499,39.1253722 50.1756499,35.6377369 C50.1756499,32.1992285 52.337232,29.8169476 55.3339708,29.8169476 C58.5268449,29.8169476 60.1725949,32.0272844 60.1725949,35.2692854 L60.1725949,36.2518227 L53.0986984,36.2518227 Z" id="Fill-5" fill="#1A1919"></path>
                <path d="M87.7502588,28.6379029 L84.9258362,28.6379029 L84.9258362,33.1326389 L87.7502588,33.1326389 C89.3714453,33.1326389 90.1574752,32.1992285 90.1574752,30.8973665 C90.1574752,29.5463777 89.3714453,28.6379029 87.7502588,28.6379029 Z M84.9258362,35.8096809 L84.9258362,41.0413199 L81.8066524,41.0413199 L81.8066524,25.9604887 L87.9471384,25.9604887 C91.1400125,25.9604887 93.2524677,27.679929 93.2524677,30.8973665 C93.2524677,34.0902406 91.1400125,35.8096809 87.9471384,35.8096809 L84.9258362,35.8096809 Z" id="Fill-6" fill="#1A1919"></path>
                <path d="M100.718635,37.2589235 C100.448437,36.6694011 99.6382159,36.3009496 98.7784958,36.3009496 C97.8205219,36.3009496 96.8379846,36.7185279 96.8379846,37.6515662 C96.8379846,38.6099123 97.8205219,39.002555 98.7784958,39.002555 C99.6382159,39.002555 100.448437,38.6341035 100.718635,38.0445811 L100.718635,37.2589235 Z M100.718635,34.1888665 C100.718635,33.1326389 99.81016,32.4694262 98.2626637,32.4694262 C97.1576814,32.4694262 96.125645,32.7887508 95.2662971,33.3537098 L95.2662971,30.7254225 C96.0523269,30.234526 97.4766338,29.8169476 98.9258764,29.8169476 C101.946806,29.8169476 103.641683,31.3640717 103.641683,34.0411137 L103.641683,41.0413199 L100.718635,41.0413199 L100.718635,40.4517976 C100.350555,40.820249 99.2693923,41.2378274 98.0661562,41.2378274 C95.8558194,41.2378274 94.013562,39.9609011 94.013562,37.6765018 C94.013562,35.58861 95.8558194,34.1639309 98.2626637,34.1639309 C99.2206376,34.1639309 100.276865,34.4836277 100.718635,34.8025802 L100.718635,34.1888665 Z" id="Fill-7" fill="#1A1919"></path>
                <path d="M111.407078,29.8169476 C112.512432,29.8169476 113.592851,30.062582 114.378881,30.6762956 L114.378881,33.4515914 C113.641978,32.7887508 112.757694,32.4694262 111.775157,32.4694262 C110.154343,32.4694262 108.877044,33.5993441 108.877044,35.5640466 C108.877044,37.5045578 110.154343,38.658667 111.775157,38.658667 C112.757694,38.658667 113.641978,38.3151511 114.378881,37.6765018 L114.378881,40.4272341 C113.592851,41.0413199 112.512432,41.2869543 111.407078,41.2869543 C108.287522,41.2869543 105.856114,39.0766175 105.856114,35.5640466 C105.856114,32.0272844 108.287522,29.8169476 111.407078,29.8169476" id="Fill-8" fill="#1A1919"></path>
                <polyline id="Fill-9" fill="#1A1919" points="127.425041 41.0413199 123.863716 41.0413199 119.909375 35.9816249 119.909375 41.0413199 116.863509 41.0413199 116.863509 25.0762051 119.909375 25.0762051 119.909375 34.4099374 123.666836 30.062582 127.326787 30.062582 122.758361 35.0973414 127.425041 41.0413199"></polyline>
                <path d="M134.572256,37.2589235 C134.302058,36.6694011 133.491837,36.3009496 132.632117,36.3009496 C131.674143,36.3009496 130.691606,36.7185279 130.691606,37.6515662 C130.691606,38.6099123 131.674143,39.002555 132.632117,39.002555 C133.491837,39.002555 134.302058,38.6341035 134.572256,38.0445811 L134.572256,37.2589235 Z M134.572256,34.1888665 C134.572256,33.1326389 133.663781,32.4694262 132.116285,32.4694262 C131.011302,32.4694262 129.979266,32.7887508 129.119918,33.3537098 L129.119918,30.7254225 C129.905948,30.234526 131.330255,29.8169476 132.779497,29.8169476 C135.800427,29.8169476 137.494932,31.3640717 137.494932,34.0411137 L137.494932,41.0413199 L134.572256,41.0413199 L134.572256,40.4517976 C134.204176,40.820249 133.123013,41.2378274 131.919777,41.2378274 C129.70944,41.2378274 127.867183,39.9609011 127.867183,37.6765018 C127.867183,35.58861 129.70944,34.1639309 132.116285,34.1639309 C133.074259,34.1639309 134.130114,34.4836277 134.572256,34.8025802 L134.572256,34.1888665 Z" id="Fill-10" fill="#1A1919"></path>
                <path d="M147.053457,33.0589486 C146.635879,32.8129421 146.095483,32.6901249 145.530524,32.6901249 C144.499232,32.6901249 143.664075,33.2308926 143.443005,34.2379934 L143.443005,41.0413199 L140.397139,41.0413199 L140.397139,30.062582 L143.443005,30.062582 L143.443005,31.1430008 C143.90971,30.3573432 144.818185,29.8169476 145.899348,29.8169476 C146.414808,29.8169476 146.881513,29.9148292 147.053457,30.0130829 L147.053457,33.0589486" id="Fill-11" fill="#1A1919"></path>
                <path d="M155.797667,33.7463525 C155.453779,33.0098217 154.618622,32.4694262 153.734711,32.4694262 C152.088961,32.4694262 151.106796,33.7954794 151.106796,35.5640466 C151.106796,37.3080503 152.088961,38.6341035 153.734711,38.6341035 C154.643558,38.6341035 155.453779,38.1182714 155.797667,37.356805 L155.797667,33.7463525 Z M155.797667,40.1324729 C155.30677,40.7216231 154.225979,41.2869543 153.046935,41.2869543 C149.854061,41.2869543 148.06093,38.7077938 148.06093,35.5640466 C148.06093,32.4202993 149.854061,29.8169476 153.046935,29.8169476 C154.225979,29.8169476 155.30677,30.3815344 155.797667,30.9710568 L155.797667,25.0762051 L158.867724,25.0762051 L158.867724,41.0413199 L155.797667,41.0413199 L155.797667,40.1324729 Z" id="Fill-12" fill="#1A1919"></path>
                <path d="M48.542926,39.1681721 C47.6251468,39.1681721 47.0665148,38.6661104 47.0482783,37.6917609 L47.0940556,37.6917609 L47.0940556,26.0684189 L44.0481899,26.0684189 L44.0481899,37.8413745 C44.0481899,40.3222813 45.5956862,41.7469604 47.9288402,41.7469604 C48.6411797,41.7469604 49.1815752,41.6490788 49.623717,41.451827 L49.623717,38.8730387 C49.3043924,39.0944818 48.9113775,39.1681721 48.542926,39.1681721" id="Fill-13" fill="#1A1919"></path>
                <path d="M73.6422883,33.0157765 L76.4142345,33.0157765 L76.4142345,30.5348698 L73.6422883,30.5348698 L73.6422883,26.0684189 L70.5967948,26.0684189 L70.5967948,30.5348698 L66.1988238,30.5348698 L66.1988238,26.0684189 L63.1533303,26.0684189 L63.1533303,30.5348698 L61.1551322,30.5348698 L61.1551322,33.0157765 L63.1533303,33.0157765 L63.1533303,37.8413745 C63.1533303,40.3222813 64.7008266,41.7469604 67.0339805,41.7469604 C67.7459479,41.7469604 68.2863434,41.6490788 68.7284852,41.451827 L68.7284852,38.8730387 C68.4095328,39.0944818 68.0165178,39.1681721 67.6480663,39.1681721 C66.729915,39.1681721 66.171283,38.6661104 66.1530465,37.6917609 L66.1988238,37.6917609 L66.1988238,33.0157765 L70.5967948,33.0157765 L70.5967948,37.8413745 C70.5967948,40.3222813 72.1439189,41.7469604 74.4770728,41.7469604 C75.1894124,41.7469604 75.7301801,41.6490788 76.1723219,41.451827 L76.1723219,38.8730387 C75.8526251,39.0944818 75.4599823,39.1681721 75.0915308,39.1681721 C74.1733795,39.1681721 73.6147475,38.6661104 73.596511,37.6917609 L73.6422883,37.6917609 L73.6422883,33.0157765" id="Fill-14" fill="#1A1919"></path>
                <polyline id="Fill-15" fill="#1A1919" points="9.92809296 47.0247489 9.92809296 48.7572153 2.18167945 48.7572153 2.18167945 53.558622 9.21054298 53.558622 9.21054298 55.2910884 2.18167945 55.2910884 2.18167945 60.4631797 9.92809296 60.4631797 9.92809296 62.2205817 0.2515891 62.2205817 0.2515891 47.0247489 9.92809296 47.0247489"></polyline>
                <path d="M12.8485363,51.2321672 L14.7049363,51.2321672 L14.7049363,52.6181403 C15.3484238,51.751721 16.5364008,51.0096076 17.9469373,51.0096076 C20.4468248,51.0096076 21.8078623,52.6181403 21.8078623,55.0186576 L21.8078623,62.2205817 L19.9268988,62.2205817 L19.9268988,55.3156518 C19.9268988,53.7811816 19.1594776,52.7171384 17.5014459,52.7171384 C16.2144709,52.7171384 15.1009286,53.5831855 14.7049363,54.7711624 L14.7049363,62.2205817 L12.8485363,62.2205817 L12.8485363,51.2321672" id="Fill-16" fill="#1A1919"></path>
                <path d="M33.7620663,55.5880826 L39.429148,55.5880826 C39.3550856,53.9791778 38.5385375,52.5935769 36.7565721,52.5935769 C35.2965365,52.5935769 34.1085596,53.558622 33.7620663,55.5880826 Z M33.6626961,57.0481182 C33.7371307,59.5971326 35.3460356,60.8100452 37.3501884,60.8100452 C38.5880365,60.8100452 39.4790192,60.5130509 40.4686278,59.7705653 L40.4686278,61.4780961 C39.5780173,62.1710826 38.4395394,62.4435134 37.128001,62.4435134 C33.9600625,62.4435134 31.8316038,60.2904913 31.8316038,56.8255586 C31.8316038,53.4101249 33.8115654,51.0096076 36.7316365,51.0096076 C39.7015788,51.0096076 41.236049,53.1626297 41.236049,56.3800673 L41.236049,57.0481182 L33.6626961,57.0481182 Z" id="Fill-17" fill="#1A1919"></path>
                <path d="M49.4033905,53.0881951 C49.1063962,52.8905711 48.6363415,52.7912008 48.1659145,52.7912008 C47.0028732,52.7912008 45.9879568,53.558622 45.6169001,54.845597 L45.6169001,62.2205817 L43.7608722,62.2205817 L43.7608722,51.2321672 L45.6169001,51.2321672 L45.6169001,52.6676393 C46.0869549,51.7271576 47.1264347,51.0096076 48.3393472,51.0096076 C48.809402,51.0096076 49.2053943,51.0836701 49.4033905,51.1826682 L49.4033905,53.0881951" id="Fill-18" fill="#1A1919"></path>
                <path d="M53.1891365,58.9540173 C53.7581894,60.092123 54.8471682,60.7601739 56.0102096,60.7601739 C58.1137326,60.7601739 59.3515808,59.0526432 59.3515808,56.7261884 C59.3515808,54.3997335 58.1137326,52.6922028 56.0102096,52.6922028 C54.8471682,52.6922028 53.7581894,53.3602537 53.1891365,54.4991038 L53.1891365,58.9540173 Z M53.1891365,66.428 L51.3331086,66.428 L51.3331086,51.2321672 L53.1891365,51.2321672 L53.1891365,52.5191422 C53.7581894,51.7271576 54.9212307,51.0096076 56.2826404,51.0096076 C59.5246413,51.0096076 61.2321721,53.6825557 61.2321721,56.7261884 C61.2321721,59.7705653 59.5246413,62.4435134 56.2826404,62.4435134 C54.9212307,62.4435134 53.7581894,61.7255913 53.1891365,60.9336067 L53.1891365,66.428 Z" id="Fill-19" fill="#1A1919"></path>
                <path d="M69.7720589,53.0881951 C69.4750647,52.8905711 69.0050099,52.7912008 68.534583,52.7912008 C67.3711695,52.7912008 66.3566252,53.558622 65.9855685,54.845597 L65.9855685,62.2205817 L64.1295407,62.2205817 L64.1295407,51.2321672 L65.9855685,51.2321672 L65.9855685,52.6676393 C66.4559955,51.7271576 67.4951031,51.0096076 68.7076435,51.0096076 C69.1780705,51.0096076 69.5740628,51.0836701 69.7720589,51.1826682 L69.7720589,53.0881951" id="Fill-20" fill="#1A1919"></path>
                <path d="M72.0739503,62.2205817 L73.9303504,62.2205817 L73.9303504,51.2321672 L72.0739503,51.2321672 L72.0739503,62.2205817 Z M72.9894965,49.1037085 C72.3463811,49.1037085 71.8018917,48.5592191 71.8018917,47.9161038 C71.8018917,47.2476807 72.3463811,46.7277547 72.9894965,46.7277547 C73.6579196,46.7277547 74.202409,47.2476807 74.202409,47.9161038 C74.202409,48.5592191 73.6579196,49.1037085 72.9894965,49.1037085 Z" id="Fill-21" fill="#1A1919"></path>
                <path d="M76.6029263,59.374573 C77.6178427,60.3150548 78.8798821,60.8595442 80.2163562,60.8595442 C81.4292687,60.8595442 82.493312,60.4140528 82.493312,59.325074 C82.493312,58.5081538 81.8743879,58.0626624 80.9093427,57.7411047 L79.3998081,57.2211787 C77.7417764,56.6770615 76.6278619,55.8850769 76.6278619,54.1031115 C76.6278619,52.1726489 78.3353927,51.0096076 80.5133504,51.0096076 C81.7508264,51.0096076 82.8893043,51.3561009 83.780287,51.9746528 L83.780287,53.9051153 C82.8643687,53.1380663 81.8498244,52.5935769 80.5133504,52.5935769 C79.3748725,52.5935769 78.4343908,53.0881951 78.4343908,54.0286768 C78.4343908,54.9196595 79.0287514,55.2166538 80.067859,55.5880826 L81.7508264,56.1571355 C83.4088581,56.7261884 84.3247764,57.6916057 84.3247764,59.2510115 C84.3247764,61.2800999 82.5182476,62.4435134 80.2163562,62.4435134 C78.7812562,62.4435134 77.4198465,61.9976499 76.6029263,61.3545346 L76.6029263,59.374573" id="Fill-22" fill="#1A1919"></path>
                <path d="M88.1112668,55.5880826 L93.7787207,55.5880826 C93.704286,53.9791778 92.887738,52.5935769 91.1057726,52.5935769 C89.6453648,52.5935769 88.4577601,53.558622 88.1112668,55.5880826 Z M88.0118965,57.0481182 C88.0863312,59.5971326 89.695236,60.8100452 91.699761,60.8100452 C92.937237,60.8100452 93.8278475,60.5130509 94.8182005,59.7705653 L94.8182005,61.4780961 C93.9272178,62.1710826 92.7883677,62.4435134 91.4768293,62.4435134 C88.3088908,62.4435134 86.1808043,60.2904913 86.1808043,56.8255586 C86.1808043,53.4101249 88.1607658,51.0096076 91.0812091,51.0096076 C94.0507793,51.0096076 95.5852495,53.1626297 95.5852495,56.3800673 L95.5852495,57.0481182 L88.0118965,57.0481182 Z" id="Fill-23" fill="#1A1919"></path>
                <path d="M29.4202935,60.8100452 C28.3313146,60.8100452 27.6137646,60.1174308 27.6137646,58.805148 L27.6137646,57.8561063 L27.6595419,57.8561063 L27.6595419,52.8034826 L30.5747748,52.8034826 L30.5747748,51.2526367 L27.6595419,51.2526367 L27.6595419,48.5234905 L25.7823002,48.5234905 L25.7823002,51.2526367 L23.2556162,51.2526367 L23.2556162,52.8034826 L25.7823002,52.8034826 L25.7823002,58.9543895 C25.7823002,61.1569106 27.2177723,62.4435134 29.1478627,62.4435134 C29.7422233,62.4435134 30.1627791,62.3690788 30.583707,62.1963904 L30.583707,60.5126788 C30.2372137,60.7359827 29.8162858,60.8100452 29.4202935,60.8100452" id="Fill-24" fill="#1A1919"></path>
            </g>
        </g>
    </g>
</svg>