<?xml version="1.0" encoding="UTF-8"?>
<svg width="181px" height="66px" viewBox="0 0 181 66" version="1.1" xmlns="http://www.w3.org/2000/svg" xmlns:xlink="http://www.w3.org/1999/xlink">
    <!-- Generator: Sketch 50.2 (55047) - http://www.bohemiancoding.com/sketch -->
    <title>ie</title>
    <desc>Created with Sketch.</desc>
    <defs></defs>
    <g id="06-Empresas" stroke="none" stroke-width="1" fill="none" fill-rule="evenodd">
        <g id="06-E-Empresas" transform="translate(-1156.000000, -1925.000000)" fill-rule="nonzero">
            <g id="ie" transform="translate(1156.000000, 1925.000000)">
                <path d="M71.9412521,44.9889856 C72.8799529,44.9889856 73.4649843,44.4286513 73.4649843,43.4582421 C73.4649843,42.5289164 73.0704195,41.9550778 71.6964477,41.9550778 L70.363182,41.9550778 L70.363182,44.9889856 L71.9412521,44.9889856 Z M68.6082772,40.4380288 L71.7237113,40.4380288 C72.7710879,40.4380288 73.2472542,40.5200058 73.6688933,40.7113487 C74.6348577,41.1486225 75.2469634,42.0779481 75.2469634,43.3625706 C75.2469634,44.5243228 74.6348577,45.6039078 73.6145554,46.0139827 L73.6145554,46.0413718 C73.6145554,46.0413718 73.7506841,46.1779366 73.9411506,46.5197291 L75.927228,50.1414363 L73.9682249,50.1414363 L72.0501172,46.5197291 L70.363182,46.5197291 L70.363182,50.1414363 L68.6082772,50.1414363 L68.6082772,40.4380288 Z" id="Fill-1" fill="#000000"></path>
                <path d="M81.790227,45.7954409 C81.7631527,44.8524207 81.1781213,44.3468646 80.4162552,44.3468646 C79.5318923,44.3468646 78.9197866,44.8935043 78.7565837,45.7954409 L81.790227,45.7954409 Z M80.4569613,43.007464 C82.4568598,43.007464 83.5315,44.4697349 83.5315,46.3146916 C83.5315,46.5199193 83.4907939,46.9843159 83.4907939,46.9843159 L78.7022458,46.9843159 C78.8109215,48.2006559 79.7496224,48.8292726 80.7835565,48.8292726 C81.8990921,48.8292726 82.7832657,48.0640911 82.7832657,48.0640911 L83.4500879,49.3078202 C83.4500879,49.3078202 82.3887008,50.3054282 80.6610596,50.3054282 C78.3620188,50.3054282 76.9337092,48.6379297 76.9337092,46.6564841 C76.9337092,44.5108184 78.3892824,43.007464 80.4569613,43.007464 Z" id="Fill-2" fill="#000000"></path>
                <path d="M85.16334,43.1714179 L86.8911705,43.1714179 L86.8911705,50.1413602 L85.16334,50.1413602 L85.16334,43.1714179 Z M85.16334,40.438219 L86.8775387,40.438219 L86.8775387,41.9824669 L85.16334,41.9824669 L85.16334,40.438219 Z" id="Fill-3" fill="#000000"></path>
                <path d="M88.9993661,43.1714179 L90.659227,43.1714179 L90.659227,43.977683 C90.659227,44.2373084 90.6319634,44.4562305 90.6319634,44.4562305 L90.659227,44.4562305 C90.9585586,43.8685072 91.7204247,43.007464 93.12166,43.007464 C94.6588347,43.007464 95.5295659,43.8137291 95.5295659,45.6586859 L95.5295659,50.1413032 L93.8153672,50.1413032 L93.8153672,46.0139827 C93.8153672,45.1668242 93.5978264,44.5927954 92.7134634,44.5927954 C91.7883944,44.5927954 91.1081297,45.1805187 90.8495042,46.0139827 C90.7544603,46.3011873 90.7271967,46.6154006 90.7271967,46.9434415 L90.7271967,50.1413032 L88.9993661,50.1413032 L88.9993661,43.1714179 Z" id="Fill-4" fill="#000000"></path>
                <path d="M96.5901956,43.1714179 L98.4130701,43.1714179 L99.8552008,47.4900813 C99.9913295,47.899966 100.086563,48.5422772 100.100005,48.5422772 L100.127269,48.5422772 C100.140901,48.5422772 100.236134,47.899966 100.372263,47.4900813 L101.814204,43.1714179 L103.637078,43.1714179 L101.147571,50.1413032 L99.1069665,50.1413032 L96.5901956,43.1714179 Z" id="Fill-5" fill="#000000"></path>
                <path d="M109.173672,45.7954409 C109.146408,44.8524207 108.561566,44.3468646 107.7997,44.3468646 C106.915337,44.3468646 106.303231,44.8935043 106.139839,45.7954409 L109.173672,45.7954409 Z M107.840217,43.007464 C109.840115,43.007464 110.914945,44.4697349 110.914945,46.3146916 C110.914945,46.5199193 110.874049,46.9843159 110.874049,46.9843159 L106.085501,46.9843159 C106.194366,48.2006559 107.132878,48.8292726 108.167001,48.8292726 C109.282537,48.8292726 110.16671,48.0640911 110.16671,48.0640911 L110.833532,49.3078202 C110.833532,49.3078202 109.771956,50.3054282 108.044315,50.3054282 C105.745463,50.3054282 104.317154,48.6379297 104.317154,46.6564841 C104.317154,44.5108184 105.772727,43.007464 107.840217,43.007464 Z" id="Fill-6" fill="#000000"></path>
                <path d="M112.546785,43.1714179 L114.206645,43.1714179 L114.206645,43.977683 C114.206645,44.2373084 114.179382,44.4562305 114.179382,44.4562305 L114.206645,44.4562305 C114.505977,43.8685072 115.267654,43.007464 116.668889,43.007464 C118.206253,43.007464 119.076795,43.8137291 119.076795,45.6586859 L119.076795,50.1413032 L117.362596,50.1413032 L117.362596,46.0139827 C117.362596,45.1668242 117.145055,44.5927954 116.260692,44.5927954 C115.335623,44.5927954 114.655548,45.1805187 114.396923,46.0139827 C114.301689,46.3011873 114.274615,46.6154006 114.274615,46.9434415 L114.274615,50.1413032 L112.546785,50.1413032 L112.546785,43.1714179 Z" id="Fill-7" fill="#000000"></path>
                <path d="M121.3889,44.6610778 L120.491094,44.6610778 L120.491094,43.2807839 L121.429795,43.2807839 L121.429795,41.2718732 L123.11673,41.2718732 L123.11673,43.2807839 L124.6948,43.2807839 L124.6948,44.6610778 L123.11673,44.6610778 L123.11673,47.367211 C123.11673,48.5150784 124.014536,48.6790323 124.490702,48.6790323 C124.681168,48.6790323 124.803476,48.6518334 124.803476,48.6518334 L124.803476,50.1686922 C124.803476,50.1686922 124.599567,50.2097758 124.272972,50.2097758 C123.307197,50.2097758 121.3889,49.9227614 121.3889,47.5857527 L121.3889,44.6610778 Z" id="Fill-8" fill="#000000"></path>
                <path d="M126.422063,43.1714179 L128.149893,43.1714179 L128.149893,50.1413602 L126.422063,50.1413602 L126.422063,43.1714179 Z M126.422063,40.438219 L128.136262,40.438219 L128.136262,41.9824669 L126.422063,41.9824669 L126.422063,40.438219 Z" id="Fill-9" fill="#000000"></path>
                <path d="M130.258278,43.1714179 L131.918139,43.1714179 L131.918139,43.977683 C131.918139,44.2373084 131.890876,44.4562305 131.890876,44.4562305 L131.918139,44.4562305 C132.217471,43.8685072 132.979147,43.007464 134.380383,43.007464 C135.917747,43.007464 136.788289,43.8137291 136.788289,45.6586859 L136.788289,50.1413032 L135.07409,50.1413032 L135.07409,46.0139827 C135.07409,45.1668242 134.856549,44.5927954 133.972186,44.5927954 C133.047117,44.5927954 132.367042,45.1805187 132.108416,46.0139827 C132.013183,46.3011873 131.986109,46.6154006 131.986109,46.9434415 L131.986109,50.1413032 L130.258278,50.1413032 L130.258278,43.1714179 Z" id="Fill-10" fill="#000000"></path>
                <path d="M143.426596,46.4925303 C143.426596,44.9071988 142.651098,44.4834294 141.712397,44.4834294 C140.665021,44.4834294 140.07999,45.2488012 140.07999,46.4242478 C140.07999,47.6403216 140.705727,48.5422582 141.821263,48.5422582 C142.651098,48.5422582 143.426596,48.0640911 143.426596,46.4925303 M141.426887,51.5354628 C142.487895,51.5354628 143.385701,51.0844945 143.385701,49.8407654 L143.385701,49.4306905 C143.385701,49.2667366 143.412964,49.0616991 143.412964,49.0616991 L143.385701,49.0616991 C142.977694,49.6766213 142.37922,50.0047193 141.453961,50.0047193 C139.467884,50.0047193 138.338717,48.3919988 138.338717,46.4788357 C138.338717,44.5654063 139.413357,43.007464 141.413066,43.007464 C142.923356,43.007464 143.467492,43.8958963 143.467492,43.8958963 L143.508387,43.8958963 C143.508387,43.8958963 143.494566,43.8137291 143.494566,43.7045533 L143.494566,43.1714179 L145.113531,43.1714179 L145.113531,49.7177049 C145.113531,52.1093014 143.263393,53.011238 141.453961,53.011238 C140.58323,53.011238 139.65835,52.7653072 138.991718,52.4100104 L139.508779,51.0844945 C139.508779,51.0844945 140.379321,51.5354628 141.426887,51.5354628" id="Fill-11" fill="#000000"></path>
                <polygon id="Fill-12" fill="#000000" points="68.6082772 53.3766916 70.363182 53.3766916 70.363182 57.4903746 74.7846182 57.4903746 74.7846182 53.3766916 76.539523 53.3766916 76.539523 63.0800231 74.7846182 63.0800231 74.7846182 59.0072334 70.363182 59.0072334 70.363182 63.0800231 68.6082772 63.0800231"></polygon>
                <path d="M78.9194079,56.1098905 L80.6472385,56.1098905 L80.6472385,63.0800231 L78.9194079,63.0800231 L78.9194079,56.1098905 Z M78.9194079,53.3766916 L80.6336067,53.3766916 L80.6336067,54.9209395 L78.9194079,54.9209395 L78.9194079,53.3766916 Z" id="Fill-13" fill="#000000"></path>
                <path d="M87.3811579,59.4310029 C87.3811579,57.8456715 86.60566,57.421902 85.6669592,57.421902 C84.6195826,57.421902 84.0345513,58.1872738 84.0345513,59.3627205 C84.0345513,60.5788703 84.6602887,61.4808069 85.7760136,61.4808069 C86.60566,61.4808069 87.3811579,61.0026398 87.3811579,59.4310029 M85.3812594,64.4740115 C86.4424571,64.4740115 87.3402626,64.0230432 87.3402626,62.7793141 L87.3402626,62.3692392 C87.3402626,62.2052853 87.3675262,62.0002478 87.3675262,62.0002478 L87.3402626,62.0002478 C86.9322552,62.61517 86.3337814,62.943268 85.408523,62.943268 C83.4224456,62.943268 82.2932782,61.3305476 82.2932782,59.4173084 C82.2932782,57.503879 83.3679184,55.9459366 85.3676276,55.9459366 C86.8779174,55.9459366 87.4220533,56.8343689 87.4220533,56.8343689 L87.4627594,56.8343689 C87.4627594,56.8343689 87.4491276,56.7522017 87.4491276,56.6430259 L87.4491276,56.1098905 L89.0680931,56.1098905 L89.0680931,62.6562536 C89.0680931,65.0478501 87.217955,65.9497867 85.408523,65.9497867 C84.5377918,65.9497867 83.6129121,65.7038559 82.9462793,65.3485591 L83.463341,64.0230432 C83.463341,64.0230432 84.3338828,64.4740115 85.3812594,64.4740115" id="Fill-14" fill="#000000"></path>
                <path d="M91.17591,53.3766916 L92.9037406,53.3766916 L92.9037406,56.7386974 C92.9037406,57.0802997 92.876477,57.3264207 92.876477,57.3264207 L92.9037406,57.3264207 C93.2437782,56.6565303 94.0872458,55.9459366 95.2980146,55.9459366 C96.8353787,55.9459366 97.7059205,56.7522017 97.7059205,58.5971585 L97.7059205,63.0800231 L95.9919111,63.0800231 L95.9919111,58.9524553 C95.9919111,58.1052968 95.774181,57.531268 94.889818,57.531268 C93.9785701,57.531268 93.2708525,58.1326859 93.0126056,58.9800346 C92.9310042,59.2531643 92.9037406,59.5538732 92.9037406,59.8819712 L92.9037406,63.0800231 L91.17591,63.0800231 L91.17591,53.3766916 Z" id="Fill-15" fill="#000000"></path>
                <path d="M104.085792,58.7339135 C104.058528,57.7908934 103.473686,57.2853372 102.71182,57.2853372 C101.827457,57.2853372 101.215351,57.8319769 101.052149,58.7339135 L104.085792,58.7339135 Z M102.752526,55.9459366 C104.752425,55.9459366 105.827065,57.4082075 105.827065,59.2531643 C105.827065,59.4583919 105.786169,59.9228646 105.786169,59.9228646 L100.997811,59.9228646 C101.106486,61.1393948 102.045187,61.7678213 103.079121,61.7678213 C104.194657,61.7678213 105.078831,61.0026398 105.078831,61.0026398 L105.745653,62.2463689 C105.745653,62.2463689 104.684266,63.2439769 102.956624,63.2439769 C100.657584,63.2439769 99.2292741,61.5764784 99.2292741,59.5949568 C99.2292741,57.4492911 100.684847,55.9459366 102.752526,55.9459366 Z" id="Fill-16" fill="#000000"></path>
                <path d="M107.458905,56.1099095 L109.118766,56.1099095 L109.118766,57.312555 C109.118766,57.5723706 109.091502,57.8046069 109.091502,57.8046069 L109.118766,57.8046069 C109.43154,56.8069988 110.261565,56.014238 111.322573,56.014238 C111.485776,56.014238 111.635537,56.0416271 111.635537,56.0416271 L111.635537,57.750019 C111.635537,57.750019 111.458513,57.72263 111.22734,57.72263 C110.492548,57.72263 109.662902,58.1462092 109.336306,59.1849009 C109.227631,59.5266934 109.186735,59.9093793 109.186735,60.319264 L109.186735,63.0800421 L107.458905,63.0800421 L107.458905,56.1099095 Z" id="Fill-17" fill="#000000"></path>
                <polygon id="Fill-18" fill="#000000" points="116.790818 53.3766916 122.572594 53.3766916 122.572594 54.8937406 118.545912 54.8937406 118.545912 57.4355965 121.797096 57.4355965 121.797096 58.9524553 118.545912 58.9524553 118.545912 61.5629741 122.790135 61.5629741 122.790135 63.0800231 116.790818 63.0800231"></polygon>
                <path d="M127.537598,61.7815919 C128.435404,61.7815919 129.278871,61.1255862 129.278871,59.5813383 C129.278871,58.5015631 128.707472,57.4354824 127.551041,57.4354824 C126.598897,57.4354824 125.809768,58.2145487 125.809768,59.5950329 C125.809768,60.9207389 126.517107,61.7815919 127.537598,61.7815919 M127.211003,55.9458225 C128.734735,55.9458225 129.210902,56.8342548 129.210902,56.8342548 L129.237976,56.8342548 C129.237976,56.8342548 129.224344,56.6566063 129.224344,56.4378744 L129.224344,53.3767677 L130.952175,53.3767677 L130.952175,63.0799089 L129.319577,63.0799089 L129.319577,62.5060703 C129.319577,62.2462548 129.34703,62.0549118 129.34703,62.0549118 L129.319577,62.0549118 C129.319577,62.0549118 128.734735,63.244053 127.143033,63.244053 C125.265632,63.244053 124.068495,61.7543931 124.068495,59.5950329 C124.068495,57.3808945 125.374497,55.9458225 127.211003,55.9458225" id="Fill-19" fill="#000000"></path>
                <path d="M132.964948,56.1099095 L134.692778,56.1099095 L134.692778,60.237287 C134.692778,61.0846357 134.910319,61.6586646 135.767608,61.6586646 C137.019083,61.6586646 137.71279,60.5516905 137.71279,59.3079614 L137.71279,56.1099095 L139.44062,56.1099095 L139.44062,63.0800421 L137.780759,63.0800421 L137.780759,62.2872813 C137.780759,62.0139614 137.808023,61.7954196 137.808023,61.7954196 L137.780759,61.7954196 C137.440911,62.5195176 136.556548,63.243996 135.373043,63.243996 C133.890206,63.243996 132.964948,62.4923187 132.964948,60.5925839 L132.964948,56.1099095 Z" id="Fill-20" fill="#000000"></path>
                <path d="M144.813632,55.9458986 C146.623064,55.9458986 147.480163,56.9845902 147.480163,56.9845902 L146.718297,58.1735412 C146.718297,58.1735412 145.997326,57.4220542 144.908865,57.4220542 C143.630127,57.4220542 142.800291,58.3922732 142.800291,59.5812242 C142.800291,60.7566709 143.643569,61.7677833 144.963392,61.7677833 C146.133266,61.7677833 147.003808,60.8797314 147.003808,60.8797314 L147.67063,62.1095758 C147.67063,62.1095758 146.677402,63.2439389 144.813632,63.2439389 C142.514591,63.2439389 141.045386,61.6175239 141.045386,59.5951089 C141.045386,57.6133971 142.514591,55.9458986 144.813632,55.9458986" id="Fill-21" fill="#000000"></path>
                <path d="M151.370527,61.890996 C152.281964,61.890996 152.935155,60.9068922 152.935155,60.0595435 L152.935155,59.8955896 L152.635823,59.8955896 C151.75146,59.8955896 150.323151,60.0184599 150.323151,60.9890594 C150.323151,61.453532 150.663188,61.890996 151.370527,61.890996 M152.690161,58.7066386 L152.921334,58.7066386 L152.921334,58.6109671 C152.921334,57.6951458 152.350123,57.3809326 151.588068,57.3809326 C150.595029,57.3809326 149.683592,58.0506329 149.683592,58.0506329 L149.03078,56.8070939 C149.03078,56.8070939 150.105231,55.9458605 151.75146,55.9458605 C153.574524,55.9458605 154.635532,56.9573533 154.635532,58.7203331 L154.635532,63.079947 L153.043831,63.079947 L153.043831,62.5059182 C153.043831,62.2325983 153.070905,62.0140565 153.070905,62.0140565 L153.043831,62.0140565 C153.057462,62.0140565 152.513326,63.2439009 150.935256,63.2439009 C149.697224,63.2439009 148.581878,62.4650248 148.581878,61.0710363 C148.581878,58.856898 151.560994,58.7066386 152.690161,58.7066386" id="Fill-22" fill="#000000"></path>
                <path d="M156.893299,57.5995695 L155.995683,57.5995695 L155.995683,56.2192755 L156.934195,56.2192755 L156.934195,54.2103648 L158.62113,54.2103648 L158.62113,56.2192755 L160.1992,56.2192755 L160.1992,57.5995695 L158.62113,57.5995695 L158.62113,60.3057597 C158.62113,61.4536271 159.519124,61.617581 159.995291,61.617581 C160.185568,61.617581 160.307876,61.5903821 160.307876,61.5903821 L160.307876,63.1072409 C160.307876,63.1072409 160.103967,63.1483245 159.777371,63.1483245 C158.811596,63.1483245 156.893299,62.8613101 156.893299,60.5243014 L156.893299,57.5995695 Z" id="Fill-23" fill="#000000"></path>
                <path d="M161.926462,56.1098905 L163.654293,56.1098905 L163.654293,63.0800231 L161.926462,63.0800231 L161.926462,56.1098905 Z M161.926462,53.3766916 L163.640661,53.3766916 L163.640661,54.9209395 L161.926462,54.9209395 L161.926462,53.3766916 Z" id="Fill-24" fill="#000000"></path>
                <path d="M169.068578,61.7678594 C170.184114,61.7678594 171.122815,60.8933118 171.122815,59.5949948 C171.122815,58.3101821 170.184114,57.4219401 169.068578,57.4219401 C167.939411,57.4219401 167.00071,58.3101821 167.00071,59.5949948 C167.00071,60.8933118 167.939411,61.7678594 169.068578,61.7678594 M169.054947,55.9459746 C171.177342,55.9459746 172.87772,57.4628334 172.87772,59.5949948 C172.87772,61.7404703 171.177342,63.244015 169.068578,63.244015 C166.946372,63.244015 165.245805,61.7404703 165.245805,59.5949948 C165.245805,57.4628334 166.946372,55.9459746 169.054947,55.9459746" id="Fill-25" fill="#000000"></path>
                <path d="M174.468854,56.1099095 L176.128714,56.1099095 L176.128714,56.9161746 C176.128714,57.1758 176.101451,57.3947222 176.101451,57.3947222 L176.128714,57.3947222 C176.428046,56.8069988 177.189723,55.9459556 178.590958,55.9459556 C180.128322,55.9459556 180.998864,56.7522207 180.998864,58.5971775 L180.998864,63.0800421 L179.284855,63.0800421 L179.284855,58.9524744 C179.284855,58.1053159 179.067124,57.531287 178.182762,57.531287 C177.257692,57.531287 176.577617,58.1190104 176.318992,58.9524744 C176.223948,59.239679 176.196684,59.5538922 176.196684,59.8819902 L176.196684,63.0800421 L174.468854,63.0800421 L174.468854,56.1099095 Z" id="Fill-26" fill="#000000"></path>
                <path d="M8.05033473,0 C12.48616,0 16.1006695,3.61763689 16.1006695,8.08186167 C16.1006695,12.5460865 12.48616,16.1745648 8.05033473,16.1745648 C3.60352824,16.1745648 0,12.5460865 0,8.08186167 C0,3.61763689 3.60352824,0 8.05033473,0" id="Fill-27" fill="#0098E0"></path>
                <polygon id="Fill-28" fill="#002F91" points="1.6064886 63.0809741 14.4868348 63.0809741 14.4868348 21.0269914 1.6064886 21.0269914"></polygon>
                <path d="M39.4489121,36.5263401 L31.1742207,36.5263401 C31.9654331,33.2482133 34.6204153,30.2784035 39.4489121,30.2784035 C44.277409,30.2784035 46.9323912,33.2482133 47.7236036,36.5263401 L39.4489121,36.5263401 Z M60.5219697,42.1873141 L60.5217803,41.9575504 C60.4776663,29.7680922 52.3644738,19.9036599 39.1145544,19.9036599 C25.8644456,19.9036599 17.7514046,29.7680922 17.7072906,41.9575504 L17.7069119,42.1873141 C17.7069119,55.5744156 28.0237605,64.2110957 40.9200105,64.2110957 C47.625909,64.2110957 54.4177636,61.1884098 58.5446015,55.9196317 L49.7685628,49.4542945 C47.4532395,52.1812167 44.5309226,54.3653032 40.3181287,54.3653032 C35.3317301,54.3653032 31.6348619,51.1695337 30.6031998,46.2465994 L60.1821213,46.2465994 C60.4013661,44.947902 60.5219697,43.5955677 60.5219697,42.1873141 Z" id="Fill-29" fill="#002F91"></path>
            </g>
        </g>
    </g>
</svg>