<?xml version="1.0" encoding="UTF-8"?>
<svg width="177px" height="29px" viewBox="0 0 177 29" version="1.1" xmlns="http://www.w3.org/2000/svg" xmlns:xlink="http://www.w3.org/1999/xlink">
    <!-- Generator: Sketch 50.2 (55047) - http://www.bohemiancoding.com/sketch -->
    <title>imaginarium</title>
    <desc>Created with Sketch.</desc>
    <defs></defs>
    <g id="06-Empresas" stroke="none" stroke-width="1" fill="none" fill-rule="evenodd">
        <g id="06-E-Empresas" transform="translate(-730.000000, -1946.000000)" fill="#0047BA" fill-rule="nonzero">
            <g id="imaginarium" transform="translate(730.000000, 1946.000000)">
                <path d="M117.735805,22.4673367 C118.453308,22.4020101 118.909901,22.2713568 119.170812,22.0753769 C119.562177,21.8140704 119.692633,21.2261307 119.692633,20.4422111 L119.692633,13.1256281 C119.692633,12.4070352 119.627405,11.9497487 119.431722,11.7537688 C119.236039,11.5577889 118.975129,11.4271357 118.583763,11.4271357 L118.12717,11.4271357 L117.801032,11.4924623 L117.801032,10.9698492 L118.779446,10.6432161 C119.105584,10.5125628 119.692633,10.3165829 120.540591,9.98994975 C121.323322,9.66331658 121.779916,9.53266332 121.845143,9.53266332 L121.910371,9.85929648 L121.910371,11.7537688 C122.823557,10.9045226 123.606288,10.3165829 124.258564,9.98994975 C124.91084,9.66331658 125.563116,9.46733668 126.280619,9.53266332 C127.193806,9.53266332 127.976537,9.85929648 128.498358,10.5125628 C128.759268,10.839196 129.020178,11.361809 129.215861,11.9497487 C129.868137,11.2311558 130.455185,10.7085427 130.977006,10.3819095 C131.824965,9.79396985 132.738151,9.53266332 133.58611,9.53266332 C135.021117,9.53266332 135.999531,10.1859296 136.521351,11.361809 C136.782262,12.080402 136.977945,13.1909548 136.977945,14.6934673 L136.977945,20.5728643 C136.977945,21.2261307 137.1084,21.6834171 137.434538,21.9447236 C137.695448,22.2060302 138.217269,22.3366834 139,22.4020101 L139,22.7939698 L132.868606,22.7939698 L132.868606,22.4020101 C133.651337,22.3366834 134.173158,22.1407035 134.434069,21.879397 C134.694979,21.6180905 134.825434,21.0954774 134.825434,20.3115578 L134.825434,14.2361809 C134.825434,13.321608 134.694979,12.6683417 134.564524,12.2110553 C134.238386,11.4271357 133.58611,11.0351759 132.607696,11.0351759 C132.020648,11.0351759 131.433599,11.2311558 130.846551,11.6231156 C130.520413,11.8844221 130.129047,12.2110553 129.607227,12.7336683 L129.607227,19.9849246 C129.607227,20.7688442 129.737682,21.3567839 129.998592,21.7487437 C130.259503,22.1407035 130.781323,22.3366834 131.629282,22.4020101 L131.629282,22.7939698 L125.367433,22.7939698 L125.367433,22.4020101 C126.215392,22.2713568 126.80244,22.0753769 126.998123,21.7487437 C127.259033,21.4221106 127.324261,20.638191 127.324261,19.3969849 L127.324261,15.4773869 C127.324261,14.040201 127.259033,13.0603015 127.063351,12.4723618 C126.737213,11.5577889 126.150164,11.1005025 125.17175,11.1005025 C124.64993,11.1005025 124.062881,11.2311558 123.541061,11.5577889 C123.01924,11.8844221 122.562647,12.2763819 122.106053,12.798995 L122.106053,20.5075377 C122.106053,21.2261307 122.236509,21.7487437 122.432191,22.0100503 C122.693102,22.2713568 123.214923,22.4020101 123.997654,22.4673367 L123.997654,22.8592965 L117.801032,22.8592965 L117.735805,22.4673367 Z M107.951666,9.79396985 L107.951666,18.8090452 C107.951666,19.4623116 108.016893,19.9849246 108.212576,20.3768844 C108.538714,21.0954774 109.19099,21.4221106 110.038949,21.4221106 C110.625997,21.4221106 111.278273,21.2261307 111.865321,20.7688442 C112.191459,20.5075377 112.517597,20.1809045 112.908963,19.7889447 L112.908963,12.080402 C112.908963,11.361809 112.778508,10.9045226 112.517597,10.6432161 C112.256687,10.4472362 111.669639,10.2512563 110.886908,10.2512563 L110.886908,9.79396985 L115.257156,9.79396985 L115.257156,19.7236181 C115.257156,20.3768844 115.387611,20.8341709 115.583294,21.0301508 C115.778977,21.2914573 116.300798,21.3567839 117.018301,21.3567839 L117.018301,21.7487437 L115.909432,22.0753769 C115.648522,22.1407035 115.257156,22.2713568 114.735336,22.4673367 L113.169873,23.0552764 L113.039418,20.5728643 C112.45237,21.3567839 111.865321,21.879397 111.343501,22.2713568 C110.56077,22.8592965 109.778038,23.120603 108.93008,23.120603 C108.147349,23.120603 107.364618,22.7939698 106.712342,22.2713568 C105.994838,21.6834171 105.6687,20.7035176 105.6687,19.3969849 L105.6687,12.080402 C105.6687,11.2964824 105.538245,10.839196 105.212107,10.5778894 C105.016424,10.4472362 104.559831,10.3165829 103.907555,10.2512563 L103.907555,9.85929648 L107.951666,9.79396985 Z M88.1877053,22.3366834 C89.035664,22.2713568 89.5574847,22.1407035 89.8183951,21.879397 C90.0793055,21.6180905 90.2097607,21.160804 90.2097607,20.3768844 L90.2097607,14.040201 C90.2097607,13.1256281 90.1445331,12.4723618 89.9488503,12.080402 C89.7531675,11.6884422 89.4922572,11.4924623 89.035664,11.4924623 C88.9704364,11.4924623 88.8399812,11.4924623 88.6442985,11.5577889 L88.1877053,11.6231156 L88.1877053,11.1658291 L89.7531675,10.5778894 L90.8620366,10.1859296 C91.3186298,9.98994975 91.7752229,9.79396985 92.231816,9.59798995 C92.3622712,9.72864322 92.3622712,9.79396985 92.3622712,9.98994975 L92.3622712,12.2763819 C92.9493196,11.4271357 93.4711403,10.7738693 94.0581886,10.3165829 C94.5800094,9.85929648 95.1670577,9.59798995 95.7541061,9.59798995 C96.2106992,9.59798995 96.6020648,9.72864322 96.8629751,10.0552764 C97.1238855,10.3165829 97.3195683,10.7085427 97.3195683,11.1005025 C97.3195683,11.4924623 97.1891131,11.8190955 96.9934303,12.080402 C96.7977475,12.3417085 96.4716096,12.4723618 96.1454716,12.4723618 C95.8193336,12.4723618 95.4279681,12.2763819 95.1018301,11.9497487 C94.7756922,11.6231156 94.5147818,11.4271357 94.2538714,11.4271357 C93.9277335,11.4271357 93.5363679,11.6884422 93.0797748,12.2110553 C92.6231816,12.7336683 92.3622712,13.2562814 92.3622712,13.8442211 L92.3622712,20.1809045 C92.3622712,20.9648241 92.557954,21.5527638 92.884092,21.879397 C93.2754575,22.2060302 93.8625059,22.3366834 94.7104646,22.3366834 L94.7104646,22.7939698 L87.9920225,22.7939698 L88.1877053,22.3366834 Z M62.8793993,22.3366834 C63.5316753,22.2713568 63.9882684,22.0753769 64.2491788,21.8140704 C64.5100892,21.5527638 64.6405443,21.0301508 64.6405443,20.1155779 L64.6405443,12.9296482 C64.6405443,12.3417085 64.5753168,11.8844221 64.4448616,11.6884422 C64.2491788,11.361809 63.9230408,11.1658291 63.4012201,11.1658291 L62.8141718,11.2311558 L62.8141718,10.7085427 C63.2055373,10.5778894 64.053496,10.3165829 65.4232755,9.85929648 L66.7278273,9.40201005 L66.8582825,11.7537688 C67.7062412,10.9698492 68.3585171,10.3819095 68.8151103,10.120603 C69.5326138,9.66331658 70.2501173,9.40201005 71.0328484,9.40201005 C71.6198968,9.40201005 72.2069451,9.59798995 72.7287658,9.92462312 C73.7071797,10.6432161 74.2290005,11.9497487 74.2290005,13.7788945 L74.2290005,20.3768844 C74.2290005,21.0301508 74.3594557,21.5527638 74.620366,21.8140704 C74.8812764,22.1407035 75.3378695,22.2713568 75.9249179,22.2713568 L75.9249179,22.6633166 L70.1196621,22.6633166 L70.1196621,22.2713568 C70.7719381,22.2060302 71.2285312,22.0100503 71.4894416,21.6834171 C71.7503519,21.4221106 71.8808071,20.7688442 71.8808071,19.7889447 L71.8808071,13.7788945 C71.8808071,12.9949749 71.7503519,12.2763819 71.424214,11.7537688 C71.1633036,11.2311558 70.5762553,10.9698492 69.7935242,10.9698492 C69.2717034,10.9698492 68.6846551,11.1658291 68.1628344,11.5577889 C67.8366964,11.7537688 67.4453308,12.1457286 66.9887377,12.6030151 L66.9887377,20.5075377 C66.9887377,21.160804 67.1191929,21.6180905 67.4453308,21.879397 C67.7062412,22.0753769 68.1628344,22.2060302 68.8151103,22.2713568 L68.8151103,22.6633166 L62.8793993,22.6633166 L62.8793993,22.3366834 Z M9.19709057,22.2060302 C9.91459409,22.1407035 10.3711872,22.0100503 10.6320976,21.8140704 C11.0234632,21.5527638 11.1539183,20.9648241 11.1539183,20.1809045 L11.1539183,12.8643216 C11.1539183,12.1457286 11.0886908,11.6884422 10.893008,11.4924623 C10.6973252,11.2964824 10.4364148,11.1658291 10.0450493,11.1658291 L9.58845612,11.1658291 L9.26231816,11.2311558 L9.26231816,10.7085427 L10.2407321,10.3819095 C10.56687,10.2512563 11.1539183,10.0552764 12.0018771,9.72864322 C12.7846082,9.40201005 13.2412013,9.27135678 13.3064289,9.27135678 L13.3716565,9.59798995 L13.3716565,11.4924623 C14.2848428,10.6432161 15.0675739,10.0552764 15.7198498,9.72864322 C16.3721258,9.40201005 17.0244017,9.20603015 17.7419052,9.27135678 C18.6550915,9.27135678 19.4378226,9.59798995 19.9596434,10.2512563 C20.2205537,10.5778894 20.4814641,11.1005025 20.6771469,11.6884422 C21.3294228,10.9698492 21.9164711,10.4472362 22.4382919,10.120603 C23.2862506,9.53266332 24.1994369,9.27135678 25.0473956,9.27135678 C26.4824026,9.27135678 27.4608165,9.92462312 27.9826373,11.1005025 C28.2435476,11.8190955 28.4392304,12.9296482 28.4392304,14.4321608 L28.4392304,20.3115578 C28.4392304,20.9648241 28.5696856,21.4221106 28.8958236,21.6834171 C29.1567339,21.9447236 29.6785547,22.0753769 30.4612858,22.1407035 L30.4612858,22.5326633 L24.3298921,22.5326633 L24.3298921,22.1407035 C25.1126232,22.0753769 25.6344439,21.879397 25.8953543,21.6180905 C26.1562647,21.3567839 26.2867198,20.8341709 26.2867198,20.0502513 L26.2867198,13.9748744 C26.2867198,13.0603015 26.1562647,12.4070352 26.0258095,11.9497487 C25.6996715,11.1658291 25.0473956,10.7738693 24.0689817,10.7738693 C23.4819334,10.7738693 22.894885,10.9698492 22.3078367,11.361809 C21.9816987,11.6231156 21.5903332,11.9497487 21.0685124,12.4723618 L21.0685124,19.7236181 C21.0685124,20.5075377 21.1989676,21.0954774 21.459878,21.4874372 C21.7207884,21.879397 22.2426091,22.0753769 23.0905678,22.1407035 L23.0905678,22.5326633 L16.8287189,22.5326633 L16.8287189,22.1407035 C17.6766776,22.0100503 18.263726,21.8140704 18.4594087,21.4874372 C18.7203191,21.160804 18.7855467,20.3768844 18.7855467,19.1356784 L18.7855467,15.2160804 C18.7855467,13.7788945 18.7203191,12.798995 18.5246363,12.2110553 C18.1984984,11.2964824 17.61145,10.839196 16.6330361,10.839196 C16.1112154,10.839196 15.5241671,10.9698492 15.0023463,11.2964824 C14.4805256,11.6231156 14.0239324,12.0150754 13.5673393,12.5376884 L13.5673393,20.2462312 C13.5673393,20.9648241 13.6977945,21.4874372 13.8934772,21.7487437 C14.1543876,22.0100503 14.6762084,22.1407035 15.4589395,22.2060302 L15.4589395,22.5979899 L9.26231816,22.5979899 L9.19709057,22.2060302 Z M1.1586748e-15,22.0753769 C1.10886908,22.0100503 1.89160019,21.8140704 2.21773815,21.5527638 C2.54387611,21.2914573 2.73955889,20.5728643 2.73955889,19.4623116 L2.73955889,6.59296482 C2.73955889,5.54773869 2.54387611,4.82914573 2.21773815,4.5678392 C1.89160019,4.24120603 1.17409667,4.04522613 0,3.9798995 L0,3.45728643 L8.21867668,3.45728643 L8.21867668,3.9798995 C7.1098076,4.04522613 6.32707649,4.24120603 6.00093853,4.50251256 C5.67480056,4.82914573 5.47911779,5.48241206 5.47911779,6.52763819 L5.47911779,19.3969849 C5.47911779,20.5075377 5.67480056,21.2261307 6.00093853,21.4874372 C6.32707649,21.7487437 7.04458001,21.9447236 8.21867668,22.0100503 L8.21867668,22.5326633 L0,22.5326633 L1.1586748e-15,22.0753769 Z M37.3754106,14.8241206 C36.3317691,15.1507538 35.4838104,15.5427136 34.7663069,16 C33.461755,16.8492462 32.8094791,17.7638191 32.8094791,18.8743719 C32.8094791,19.7236181 33.0703895,20.3768844 33.6574378,20.7688442 C33.9835758,21.0301508 34.3749413,21.160804 34.8315345,21.160804 C35.4185828,21.160804 36.0056312,20.9648241 36.5274519,20.638191 C37.0492726,20.3115578 37.3754106,19.8542714 37.3754106,19.3316583 L37.3754106,14.8241206 Z M32.4181136,16.4572864 C33.2660723,15.8693467 34.8967621,15.1507538 37.3754106,14.1708543 L37.3754106,12.9949749 C37.3754106,12.0150754 37.310183,11.361809 37.1145002,10.9698492 C36.7883623,10.3165829 36.1360863,10.0552764 35.2229,9.98994975 C34.7663069,9.98994975 34.3097137,10.120603 33.9183482,10.3819095 C33.5269826,10.6432161 33.2660723,10.9698492 33.2660723,11.4271357 C33.2660723,11.5577889 33.2660723,11.7537688 33.3312999,12.0150754 C33.3965275,12.2763819 33.3965275,12.4723618 33.3965275,12.5376884 C33.3965275,13.0603015 33.2008447,13.4522613 32.8747067,13.6482412 C32.6790239,13.7788945 32.4833412,13.8442211 32.2224308,13.8442211 C31.8310652,13.8442211 31.5049273,13.7135678 31.3092445,13.4522613 C31.1135617,13.1909548 30.9831065,12.8643216 30.9831065,12.5376884 C30.9831065,11.8844221 31.3744721,11.1658291 32.1572032,10.5125628 C32.9399343,9.79396985 34.114031,9.40201005 35.6142656,9.40201005 C37.3754106,9.40201005 38.5495073,9.98994975 39.2017832,11.1658291 C39.5279212,11.8190955 39.7236039,12.7336683 39.7236039,13.9748744 L39.7236039,19.6582915 C39.7236039,20.1809045 39.7888315,20.5728643 39.8540591,20.7688442 C39.9845143,21.160804 40.2454247,21.2914573 40.5715626,21.2914573 C40.7672454,21.2914573 40.9629282,21.2914573 41.0933834,21.2261307 C41.2238386,21.160804 41.4847489,21.0301508 41.8108869,20.7688442 L41.8108869,21.4874372 C41.5499765,21.879397 41.2238386,22.1407035 40.8977006,22.4020101 C40.3758799,22.7286432 39.8540591,22.9246231 39.3322384,22.9246231 C38.7451901,22.9246231 38.2885969,22.7286432 37.9624589,22.2713568 C37.7015486,21.879397 37.5710934,21.3567839 37.5058658,20.7688442 C36.7883623,21.3567839 36.2013139,21.879397 35.7447208,22.1407035 C34.8967621,22.6633166 34.114031,22.9246231 33.3965275,22.9246231 C32.6137963,22.9246231 31.9615204,22.6633166 31.3744721,22.0753769 C30.7874237,21.4874372 30.5265134,20.7688442 30.5265134,19.919598 C30.4612858,18.4824121 31.1135617,17.3718593 32.4181136,16.4572864 L32.4181136,16.4572864 Z M49.8338808,17.241206 C50.3557015,16.7839196 50.6166119,16 50.6166119,14.8894472 C50.6166119,13.9748744 50.4209291,12.9949749 49.964336,11.8844221 C49.5077428,10.7738693 48.7902393,10.1859296 47.7465978,10.1859296 C46.8334115,10.1859296 46.2463632,10.6432161 45.9202252,11.4924623 C45.7245425,11.9497487 45.6593149,12.5376884 45.6593149,13.1909548 C45.6593149,14.3668342 45.9202252,15.3467337 46.442046,16.2613065 C46.9638667,17.1758794 47.6813702,17.6331658 48.529329,17.6331658 C49.0511497,17.6984925 49.5077428,17.5025126 49.8338808,17.241206 L49.8338808,17.241206 Z M44.0286251,16.4572864 C43.5720319,15.7386935 43.3763491,14.8894472 43.3111215,14.040201 C43.3111215,12.9296482 43.7024871,11.8844221 44.5504458,10.9045226 C45.3984045,9.92462312 46.5725012,9.40201005 48.1379634,9.40201005 C48.7902393,9.40201005 49.5077428,9.59798995 50.3557015,9.92462312 C51.1384327,10.2512563 51.9211638,10.3819095 52.6386673,10.3819095 L53.486626,10.3819095 L54.3345847,10.3819095 L54.5302675,11.5577889 L52.1820741,11.5577889 C52.3777569,11.9497487 52.4429845,12.2763819 52.5734397,12.6030151 C52.7038949,13.1256281 52.8343501,13.6482412 52.8343501,14.1708543 C52.8343501,15.2160804 52.3777569,16.2613065 51.5297982,17.1105528 C50.6818395,18.0251256 49.5077428,18.4170854 48.0727358,18.4170854 C47.877053,18.4170854 47.4204599,18.3517588 46.8334115,18.2864322 C46.5725012,18.2864322 46.2463632,18.5477387 45.7897701,19.0050251 C45.3331769,19.4623116 45.1374941,19.8542714 45.1374941,20.1155779 C45.1374941,20.4422111 45.4636321,20.638191 46.115908,20.7688442 C46.5072736,20.8341709 46.9638667,20.8994975 47.4856875,20.8994975 C49.8338808,20.8994975 51.399343,21.0301508 52.2473017,21.2914573 C53.6170812,21.7487437 54.3345847,22.6633166 54.3345847,24.1658291 C54.3345847,25.6683417 53.5518536,26.8442211 51.9211638,27.6934673 C50.3557015,28.5427136 48.7250117,29 47.0943219,29 C45.5940873,29 44.4199906,28.6733668 43.5720319,28.0201005 C42.7240732,27.3668342 42.2674801,26.7135678 42.2674801,26.0603015 C42.2674801,25.7336683 42.3979352,25.4070352 42.593618,25.080402 C42.8545284,24.7537688 43.3111215,24.2964824 43.9633975,23.6432161 L44.8765838,22.7939698 C44.6156734,22.4673367 44.2895354,22.2713568 44.0938527,22.1407035 C43.7024871,21.879397 43.5720319,21.4874372 43.5720319,21.160804 C43.5720319,20.8341709 43.7024871,20.4422111 44.0286251,20.0502513 C44.354763,19.6582915 45.0070389,18.9396985 46.0506804,18.0251256 C45.1374941,17.6331658 44.4852182,17.1758794 44.0286251,16.4572864 L44.0286251,16.4572864 Z M45.5288597,26.9095477 C46.3768184,27.2361809 47.3552323,27.3668342 48.4641014,27.3668342 C49.964336,27.3668342 51.2036603,27.1055276 52.1168466,26.5829146 C53.0300328,26.0603015 53.5518536,25.4070352 53.5518536,24.6231156 C53.5518536,23.9698492 53.160488,23.5778894 52.3777569,23.3819095 C51.9211638,23.2512563 51.0079775,23.1859296 49.7034256,23.1859296 L48.6597841,23.120603 L47.6161427,23.0552764 C47.4204599,23.0552764 47.0943219,22.9899497 46.6377288,22.9246231 C46.1811356,22.8592965 45.8549977,22.7939698 45.6593149,22.7286432 C45.5288597,22.7286432 45.2679493,23.0552764 44.8765838,23.6432161 C44.4199906,24.2311558 44.2243078,24.8190955 44.2243078,25.2763819 C44.2243078,26.0603015 44.680901,26.6482412 45.5288597,26.9095477 L45.5288597,26.9095477 Z M83.3608634,14.9547739 C82.317222,15.281407 81.4692633,15.6733668 80.7517597,16.1306533 C79.4472079,16.9798995 78.794932,17.8944724 78.794932,19.0050251 C78.794932,19.8542714 79.0558423,20.5075377 79.6428907,20.8994975 C79.9690286,21.160804 80.3603942,21.2914573 80.8169873,21.2914573 C81.4040357,21.2914573 81.991084,21.0954774 82.5129047,20.7688442 C83.0347255,20.4422111 83.3608634,19.9849246 83.3608634,19.4623116 L83.3608634,14.9547739 Z M78.3383388,16.5226131 C79.1862975,15.9346734 80.8169873,15.2160804 83.2956359,14.2361809 L83.2956359,13.0603015 C83.2956359,12.080402 83.2304083,11.4271357 83.0347255,11.0351759 C82.7085875,10.3819095 82.0563116,10.120603 81.1431253,10.0552764 C80.6865321,10.0552764 80.229939,10.1859296 79.8385734,10.4472362 C79.4472079,10.7085427 79.1862975,11.0351759 79.1862975,11.4924623 C79.1862975,11.6231156 79.1862975,11.8190955 79.2515251,12.080402 C79.3167527,12.3417085 79.3167527,12.5376884 79.3167527,12.6030151 C79.3167527,13.1256281 79.1210699,13.5175879 78.794932,13.7135678 C78.5992492,13.8442211 78.4035664,13.9095477 78.142656,13.9095477 C77.7512905,13.9095477 77.4251525,13.7788945 77.2294697,13.5175879 C77.033787,13.2562814 76.9033318,12.9296482 76.9033318,12.6030151 C76.9033318,11.9497487 77.2946973,11.2311558 78.0774284,10.5778894 C78.8601595,9.85929648 80.0342562,9.46733668 81.5344908,9.46733668 C83.2956359,9.46733668 84.4697325,10.0552764 85.1220084,11.2311558 C85.4481464,11.8844221 85.6438292,12.798995 85.6438292,14.040201 L85.6438292,19.7236181 C85.6438292,20.2462312 85.7090568,20.638191 85.7742844,20.8341709 C85.9047396,21.2261307 86.1656499,21.3567839 86.4917879,21.3567839 C86.6874707,21.3567839 86.8831534,21.3567839 87.0136086,21.2914573 C87.1440638,21.2261307 87.4049742,21.0954774 87.7311122,20.8341709 L87.7311122,21.5527638 C87.4702018,21.9447236 87.1440638,22.2060302 86.8179259,22.4673367 C86.2961051,22.7939698 85.7742844,22.9899497 85.2524636,22.9899497 C84.6654153,22.9899497 84.2088221,22.7939698 83.8826842,22.3366834 C83.6217738,21.9447236 83.4913186,21.4221106 83.426091,20.8341709 C82.7085875,21.4221106 82.1215392,21.9447236 81.664946,22.2060302 C80.8169873,22.7286432 80.0342562,22.9899497 79.3167527,22.9899497 C78.5340216,22.9899497 77.8817457,22.7286432 77.2946973,22.1407035 C76.707649,21.5527638 76.4467386,20.8341709 76.4467386,19.9849246 C76.381511,18.6130653 77.033787,17.4371859 78.3383388,16.5226131 L78.3383388,16.5226131 Z M99.9938996,3.52261307 C100.25481,3.26130653 100.580948,3.06532663 100.972313,3.06532663 C101.363679,3.06532663 101.689817,3.1959799 101.950727,3.52261307 C102.211638,3.7839196 102.342093,4.1758794 102.407321,4.5678392 C102.407321,4.95979899 102.276865,5.35175879 102.015955,5.61306533 C101.755045,5.87437186 101.428907,6.00502513 101.037541,6.00502513 C100.646176,6.00502513 100.320038,5.87437186 100.059127,5.54773869 C99.7982168,5.28643216 99.6677616,4.89447236 99.6677616,4.50251256 C99.602534,4.1758794 99.7329892,3.84924623 99.9938996,3.52261307 L99.9938996,3.52261307 Z M97.9066166,22.4020101 C98.8850305,22.3366834 99.4720788,22.1407035 99.7329892,21.879397 C99.9938996,21.6180905 100.124355,20.9648241 100.124355,19.8542714 L100.124355,13.1256281 C100.124355,12.5376884 100.059127,12.080402 99.9938996,11.8844221 C99.8634444,11.4924623 99.602534,11.2964824 99.1459409,11.2964824 L98.8198029,11.2964824 L98.0370718,11.4924623 L98.0370718,11.0351759 L98.6241201,10.839196 C100.189582,10.3165829 101.298451,9.92462312 101.950727,9.66331658 C102.211638,9.53266332 102.342093,9.46733668 102.472548,9.46733668 L102.537776,19.7889447 C102.537776,20.8341709 102.668231,21.5527638 102.929141,21.8140704 C103.190052,22.0753769 103.7771,22.2713568 104.625059,22.3366834 L104.625059,22.7286432 L98.0370718,22.7286432 L97.9066166,22.4020101 Z M57.6611919,3.45728643 C57.9221023,3.1959799 58.2482403,3 58.6396058,3 C59.0309714,3 59.3571093,3.13065327 59.6180197,3.45728643 C59.8789301,3.71859296 60.0093853,4.11055276 60.0746129,4.50251256 C60.0746129,4.89447236 59.9441577,5.28643216 59.6832473,5.54773869 C59.4223369,5.80904523 59.096199,5.93969849 58.7048334,5.93969849 C58.3134679,5.93969849 57.9873299,5.80904523 57.7264195,5.48241206 C57.4655092,5.22110553 57.335054,4.82914573 57.335054,4.43718593 C57.2698264,4.11055276 57.4002816,3.71859296 57.6611919,3.45728643 L57.6611919,3.45728643 Z M55.573909,22.3366834 C56.5523229,22.2713568 57.1393712,22.0753769 57.4002816,21.8140704 C57.6611919,21.5527638 57.7916471,20.8994975 57.7916471,19.7889447 L57.7916471,13.0603015 C57.7916471,12.4723618 57.7264195,12.0150754 57.6611919,11.8190955 C57.5307367,11.4271357 57.2698264,11.2311558 56.8132332,11.2311558 L56.4870953,11.2311558 L55.7043641,11.4271357 L55.7043641,10.9698492 L56.2914125,10.7738693 C57.8568747,10.2512563 58.9657438,9.85929648 59.6180197,9.59798995 C59.8789301,9.46733668 60.0093853,9.40201005 60.1398405,9.40201005 L60.205068,19.7236181 C60.205068,20.7688442 60.3355232,21.4874372 60.5964336,21.7487437 C60.857344,22.0100503 61.4443923,22.2060302 62.292351,22.2713568 L62.292351,22.6633166 L55.7043641,22.6633166 L55.573909,22.3366834 Z" id="Shape"></path>
                <path d="M139.402597,7.18421053 C139.727273,7.18421053 139.987013,7.25 140.181818,7.31578947 C140.441558,7.44736842 140.636364,7.64473684 140.636364,7.97368421 C140.636364,8.23684211 140.571429,8.36842105 140.376623,8.5 C140.311688,8.56578947 140.116883,8.63157895 139.987013,8.63157895 C140.181818,8.69736842 140.376623,8.76315789 140.441558,8.89473684 C140.571429,9.02631579 140.571429,9.15789474 140.571429,9.28947368 L140.571429,9.48684211 L140.571429,9.68421053 L140.571429,9.81578947 L140.116883,9.88157895 L140.116883,9.75 L140.116883,9.55263158 C140.116883,9.22368421 140.051948,9.02631579 139.857143,8.96052632 C139.727273,8.89473684 139.597403,8.89473684 139.337662,8.89473684 L138.948052,8.89473684 L138.948052,9.94736842 L138.428571,9.94736842 L138.428571,7.25 L139.402597,7.18421053 Z M137.909091,6.98684211 C137.519481,7.38157895 137.25974,7.90789474 137.25974,8.5 C137.25974,9.09210526 137.454545,9.61842105 137.909091,10.0131579 C138.363636,10.4078947 138.818182,10.6710526 139.467532,10.6710526 C140.051948,10.6710526 140.571429,10.4736842 141.025974,10.0789474 C141.415584,9.68421053 141.675325,9.15789474 141.675325,8.56578947 C141.675325,7.97368421 141.480519,7.44736842 141.025974,7.05263158 C140.571429,6.65789474 140.116883,6.39473684 139.467532,6.39473684 C138.818182,6.39473684 138.298701,6.59210526 137.909091,6.98684211 L137.909091,6.98684211 Z M141.220779,10.2763158 C140.701299,10.7368421 140.116883,11 139.467532,11 C138.753247,11 138.168831,10.7368421 137.714286,10.2763158 C137.194805,9.81578947 137,9.22368421 137,8.5 C137,7.84210526 137.25974,7.25 137.714286,6.72368421 C138.233766,6.26315789 138.818182,6 139.467532,6 C140.181818,6 140.766234,6.26315789 141.285714,6.72368421 C141.805195,7.18421053 142,7.77631579 142,8.5 C141.935065,9.22368421 141.74026,9.81578947 141.220779,10.2763158 L141.220779,10.2763158 Z M139.922078,7.57894737 C139.792208,7.51315789 139.597403,7.44736842 139.337662,7.44736842 L138.948052,7.44736842 L138.948052,8.43421053 L139.402597,8.43421053 C139.597403,8.43421053 139.792208,8.43421053 139.857143,8.36842105 C140.051948,8.30263158 140.116883,8.17105263 140.116883,7.97368421 C140.116883,7.77631579 140.051948,7.64473684 139.922078,7.57894737 L139.922078,7.57894737 Z" id="Shape"></path>
                <path d="M163.05845,24 L165.093665,24 C165.093665,24 163.518014,20.4513874 164.174535,17.23135 C164.765404,14.2741728 167.194532,12.5655816 169.623659,12.6312966 C172.052786,12.6970117 174.35061,14.6027481 174.941478,17.3627801 C175.597999,20.5171024 174.088001,24 174.088001,24 L176.057564,24 C176.057564,24 177.17365,22.0942636 176.976693,18.0199306 C176.779737,13.2884471 172.971916,11.5141408 172.971916,11.5141408 C170.345832,10.1341248 167.654096,10.9884204 167.654096,10.9884204 C167.654096,10.9884204 167.522792,7.43980777 164.96236,4.0883403 C164.96236,4.0883403 161.548452,-0.90600339 154.326721,0.145437386 C154.326721,0.145437386 147.104991,1.39402331 145.398037,9.21411408 C143.822387,16.3770544 147.433252,23.934285 147.433252,23.934285 L149.468467,23.934285 C149.468467,23.934285 146.185862,16.4427694 147.104991,10.8569903 C148.024121,5.27121117 151.569334,2.37974904 155.442807,2.05117379 C159.381933,1.72259855 163.124102,3.9569102 164.6341,7.37409272 C165.815838,10.0684097 165.750185,11.777001 165.750185,11.777001 C165.750185,11.777001 162.336277,13.7484524 162.13932,17.8227854 C161.876712,22.0285485 163.05845,24 163.05845,24" id="Shape"></path>
            </g>
        </g>
    </g>
</svg>