<?xml version="1.0" encoding="UTF-8"?>
<svg width="115px" height="39px" viewBox="0 0 115 39" version="1.1" xmlns="http://www.w3.org/2000/svg" xmlns:xlink="http://www.w3.org/1999/xlink">
    <!-- Generator: Sketch 50.2 (55047) - http://www.bohemiancoding.com/sketch -->
    <title>Group 4</title>
    <desc>Created with Sketch.</desc>
    <defs>
        <polygon id="path-1" points="0.266057292 0.0653939394 4.59492882 0.0653939394 4.59492882 4.33585455 0.266057292 4.33585455"></polygon>
        <polygon id="path-3" points="0 0.327915152 4.32879167 0.327915152 4.32879167 4.59861212 0 4.59861212"></polygon>
        <polygon id="path-5" points="0.314413194 0.0622818182 4.64288542 0.0622818182 4.64288542 4.33333333 0.314413194 4.33333333"></polygon>
    </defs>
    <g id="Copys" stroke="none" stroke-width="1" fill="none" fill-rule="evenodd">
        <g id="00-E-Home-1920-Copy" transform="translate(-1121.000000, -427.000000)">
            <g id="Group-4" transform="translate(1121.000000, 427.000000)">
                <polygon id="Fill-1" fill="#FFFFFF" points="47 24.3565152 51.5417014 24.3565152 51.5417014 11 47 11"></polygon>
                <g id="Group-100">
                    <path d="M64.4375347,11.3996212 L54.4736632,11.3996212 L54.4736632,24.7561364 L59.0153646,24.7561364 L59.0153646,15.0967424 L62.7800174,15.0967424 C62.7800174,15.0967424 64.4722743,14.9773788 64.4722743,16.9195 L64.4722743,24.7561364 L68.9968056,24.7561364 L68.9968056,16.0335303 C69.0107812,15.6742576 69.1349653,11.5359242 64.4375347,11.3996212" id="Fill-3" fill="#FFFFFF"></path>
                    <path d="M97.6290503,11.4055697 L97.6162726,15.0707818 L95.736342,15.0707818 C95.736342,15.0707818 94.0237205,15.0089333 94.0237205,16.5133879 L94.0029566,24.7561758 L89.5119573,24.7561758 L89.511967,15.5446909 C89.511967,15.5446909 89.478026,11.4323576 93.4303524,11.3882364 L97.6290503,11.4055697 Z" id="Fill-7" fill="#FFFFFF"></path>
                    <path d="M82.2520729,21.19 L77.8082014,21.19 C77.8082014,21.19 76.3575243,21.281 76.2652847,19.8726667 L76.2652847,16.6695455 C76.2652847,16.6695455 76.1734444,15.1020606 77.7622813,15.1020606 L82.2520729,15.1020606 L82.2520729,21.19 Z M82.1602326,7.085 L82.1714132,11.3994242 C82.1714132,11.3994242 77.4975417,11.3769697 77.1637222,11.3994242 C76.8295035,11.4222727 75.437125,11.3454545 73.6985486,12.3878182 C71.7096076,13.5802727 71.7874722,15.977 71.7874722,15.977 L71.8106319,20.1224242 C71.7870729,22.6605758 73.4106493,23.8475152 74.4580278,24.290303 C75.4662743,24.7165455 76.7460486,24.7563333 76.7460486,24.7563333 L86.6803715,24.7563333 L86.6803715,7.085 L82.1602326,7.085 Z" id="Fill-11" fill="#FFFFFF"></path>
                    <path d="M110.496113,21.19 L106.051842,21.19 C106.051842,21.19 104.601165,21.281 104.509325,19.8726667 L104.509325,16.6695455 C104.509325,16.6695455 104.417085,15.1020606 106.006321,15.1020606 L110.496113,15.1020606 L110.496113,21.19 Z M110.415453,11.3994242 C110.415453,11.3994242 105.741582,11.3769697 105.407762,11.3994242 C105.073543,11.4222727 103.681165,11.3454545 101.942589,12.3878182 C99.9536476,13.5802727 100.031512,15.977 100.031512,15.977 L100.054672,20.1224242 C100.031113,22.6605758 101.65429,23.8475152 102.702068,24.290303 C103.710314,24.7165455 104.990089,24.7563333 104.990089,24.7563333 L114.924411,24.7563333 L114.924411,11.3994242 L110.415453,11.3994242 Z" id="Fill-15" fill="#FFFFFF"></path>
                    <path d="M39.8330851,19.0102545 C39.8330851,20.1897091 38.8639705,21.1454061 37.668849,21.1454061 C36.4733281,21.1454061 35.5042135,20.1897091 35.5042135,19.0102545 C35.5042135,17.8308 36.4733281,16.875103 37.668849,16.875103 C38.8639705,16.875103 39.8330851,17.8308 39.8330851,19.0102545" id="Fill-19" fill="#FFFFFF"></path>
                    <path d="M39.0042465,24.8253121 C39.0042465,26.0047667 38.0351319,26.9604636 36.8400104,26.9604636 C35.6440903,26.9604636 34.675375,26.0047667 34.675375,24.8253121 C34.675375,23.6458576 35.6440903,22.6897667 36.8400104,22.6897667 C38.0351319,22.6897667 39.0042465,23.6458576 39.0042465,24.8253121" id="Fill-21" fill="#FFFFFF"></path>
                    <path d="M33.2018177,25.5067879 C33.2018177,26.6862424 32.2331024,27.6419394 31.0375816,27.6419394 C29.8420608,27.6419394 28.8733455,26.6862424 28.8733455,25.5067879 C28.8733455,24.3273333 29.8420608,23.3712424 31.0375816,23.3712424 C32.2331024,23.3712424 33.2018177,24.3273333 33.2018177,25.5067879" id="Fill-23" fill="#FFFFFF"></path>
                    <path d="M30.1625833,20.6910364 C30.1625833,21.8704909 29.1938681,22.8261879 27.9983472,22.8261879 C26.8028264,22.8261879 25.8337118,21.8704909 25.8337118,20.6910364 C25.8337118,19.5115818 26.8028264,18.5554909 27.9983472,18.5554909 C29.1938681,18.5554909 30.1625833,19.5115818 30.1625833,20.6910364" id="Fill-25" fill="#FFFFFF"></path>
                    <path d="M34.4451753,17.1929333 C34.4451753,18.3723879 33.4764601,19.3280848 32.2809392,19.3280848 C31.0854184,19.3280848 30.1167031,18.3723879 30.1167031,17.1929333 C30.1167031,16.0134788 31.0854184,15.0573879 32.2809392,15.0573879 C33.4764601,15.0573879 34.4451753,16.0134788 34.4451753,17.1929333" id="Fill-27" fill="#FFFFFF"></path>
                    <path d="M38.6817674,13.2404606 C38.6817674,14.4199152 37.7126528,15.3756121 36.5175312,15.3756121 C35.3220104,15.3756121 34.3528958,14.4199152 34.3528958,13.2404606 C34.3528958,12.0610061 35.3220104,11.1049152 36.5175312,11.1049152 C37.7126528,11.1049152 38.6817674,12.0610061 38.6817674,13.2404606" id="Fill-29" fill="#FFFFFF"></path>
                    <path d="M35.688533,8.10672121 C35.688533,9.28617576 34.7198177,10.2418727 33.5242969,10.2418727 C32.328776,10.2418727 31.3600608,9.28617576 31.3600608,8.10672121 C31.3600608,6.92726667 32.328776,5.97117576 33.5242969,5.97117576 C34.7198177,5.97117576 35.688533,6.92726667 35.688533,8.10672121" id="Fill-31" fill="#FFFFFF"></path>
                    <path d="M30.2546233,4.2906303 C30.2546233,5.47008485 29.285908,6.42578182 28.0903872,6.42578182 C26.8948663,6.42578182 25.9257517,5.47008485 25.9257517,4.2906303 C25.9257517,3.1115697 26.8948663,2.15547879 28.0903872,2.15547879 C29.285908,2.15547879 30.2546233,3.1115697 30.2546233,4.2906303" id="Fill-33" fill="#FFFFFF"></path>
                    <g id="Group-37" transform="translate(19.166667, 0.000000)">
                        <mask id="mask-2" fill="white">
                            <use xlink:href="#path-1"></use>
                        </mask>
                        <g id="Clip-36"></g>
                        <path d="M4.59492882,2.20070303 C4.59492882,3.38015758 3.62621354,4.33585455 2.43069271,4.33585455 C1.23517188,4.33585455 0.266057292,3.38015758 0.266057292,2.20070303 C0.266057292,1.02124848 1.23517188,0.0651575758 2.43069271,0.0651575758 C3.62621354,0.0651575758 4.59492882,1.02124848 4.59492882,2.20070303" id="Fill-35" fill="#FFFFFF" mask="url(#mask-2)"></path>
                    </g>
                    <path d="M26.1562708,8.1523 C26.1562708,9.33175455 25.1875556,10.2874515 23.9920347,10.2874515 C22.7965139,10.2874515 21.8273993,9.33175455 21.8273993,8.1523 C21.8273993,6.97284545 22.7965139,6.01675455 23.9920347,6.01675455 C25.1875556,6.01675455 26.1562708,6.97284545 26.1562708,8.1523" id="Fill-38" fill="#FFFFFF"></path>
                    <path d="M31.313901,12.1955758 C31.313901,13.3750303 30.3447865,14.3307273 29.1496649,14.3307273 C27.9537448,14.3307273 26.9850295,13.3750303 26.9850295,12.1955758 C26.9850295,11.0165152 27.9537448,10.0604242 29.1496649,10.0604242 C30.3447865,10.0604242 31.313901,11.0165152 31.313901,12.1955758" id="Fill-40" fill="#FFFFFF"></path>
                    <path d="M27.0771094,15.9207061 C27.0771094,17.1005545 26.1083941,18.0558576 24.9128733,18.0558576 C23.7173524,18.0558576 22.7486372,17.1005545 22.7486372,15.9207061 C22.7486372,14.7416455 23.7173524,13.7855545 24.9128733,13.7855545 C26.1083941,13.7855545 27.0771094,14.7416455 27.0771094,15.9207061" id="Fill-42" fill="#FFFFFF"></path>
                    <path d="M22.7025174,12.1955758 C22.7025174,13.3750303 21.7338021,14.3307273 20.5382812,14.3307273 C19.3427604,14.3307273 18.3740451,13.3750303 18.3740451,12.1955758 C18.3740451,11.0161212 19.3427604,10.0600303 20.5382812,10.0600303 C21.7338021,10.0600303 22.7025174,11.0161212 22.7025174,12.1955758" id="Fill-44" fill="#FFFFFF"></path>
                    <path d="M18.6962049,7.60700909 C18.6962049,8.78685758 17.7274896,9.74216061 16.5319688,9.74216061 C15.3364479,9.74216061 14.3677326,8.78685758 14.3677326,7.60700909 C14.3677326,6.42794848 15.3364479,5.47185758 16.5319688,5.47185758 C17.7274896,5.47185758 18.6962049,6.42794848 18.6962049,7.60700909" id="Fill-46" fill="#FFFFFF"></path>
                    <path d="M16.3477292,2.74583636 C16.3477292,3.92568485 15.3786146,4.88098788 14.1834931,4.88098788 C12.9879722,4.88098788 12.0188576,3.92568485 12.0188576,2.74583636 C12.0188576,1.56677576 12.9879722,0.610684848 14.1834931,0.610684848 C15.3786146,0.610684848 16.3477292,1.56677576 16.3477292,2.74583636" id="Fill-48" fill="#FFFFFF"></path>
                    <path d="M11.098099,5.56246364 C11.098099,6.74231212 10.1289844,7.69761515 8.93386285,7.69761515 C7.73834201,7.69761515 6.76922743,6.74231212 6.76922743,5.56246364 C6.76922743,4.38340303 7.73834201,3.42731212 8.93386285,3.42731212 C10.1289844,3.42731212 11.098099,4.38340303 11.098099,5.56246364" id="Fill-50" fill="#FFFFFF"></path>
                    <path d="M7.04554687,9.96926667 C7.04554687,11.1487212 6.0768316,12.1044182 4.88131076,12.1044182 C3.68578993,12.1044182 2.71667535,11.1487212 2.71667535,9.96926667 C2.71667535,8.78981212 3.68578993,7.83372121 4.88131076,7.83372121 C6.0768316,7.83372121 7.04554687,8.78981212 7.04554687,9.96926667" id="Fill-52" fill="#FFFFFF"></path>
                    <path d="M12.5714965,10.6509788 C12.5714965,11.8304333 11.6027813,12.7861303 10.4072604,12.7861303 C9.21173958,12.7861303 8.24302431,11.8304333 8.24302431,10.6509788 C8.24302431,9.47152424 9.21173958,8.51543333 10.4072604,8.51543333 C11.6027813,8.51543333 12.5714965,9.47152424 12.5714965,10.6509788" id="Fill-54" fill="#FFFFFF"></path>
                    <path d="M17.3148073,13.4222242 C17.3148073,14.6016788 16.3456927,15.5573758 15.1505712,15.5573758 C13.9550503,15.5573758 12.9859358,14.6016788 12.9859358,13.4222242 C12.9859358,12.2427697 13.9550503,11.2866788 15.1505712,11.2866788 C16.3456927,11.2866788 17.3148073,12.2427697 17.3148073,13.4222242" id="Fill-56" fill="#FFFFFF"></path>
                    <path d="M22.8867569,20.1913242 C22.8867569,21.3711727 21.9176424,22.3268697 20.7225208,22.3268697 C19.527,22.3268697 18.5578854,21.3711727 18.5578854,20.1913242 C18.5578854,19.0122636 19.527,18.0561727 20.7225208,18.0561727 C21.9176424,18.0561727 22.8867569,19.0122636 22.8867569,20.1913242" id="Fill-58" fill="#FFFFFF"></path>
                    <path d="M17.8211667,18.6919121 C17.8211667,19.8721545 16.8524514,20.8274576 15.6569306,20.8274576 C14.4614097,20.8274576 13.4926944,19.8721545 13.4926944,18.6919121 C13.4926944,17.5128515 14.4614097,16.5567606 15.6569306,16.5567606 C16.8524514,16.5567606 17.8211667,17.5128515 17.8211667,18.6919121" id="Fill-60" fill="#FFFFFF"></path>
                    <path d="M10.8218194,16.0114697 C10.8218194,17.1913182 9.85270486,18.1470152 8.65758333,18.1470152 C7.4620625,18.1470152 6.49294792,17.1913182 6.49294792,16.0114697 C6.49294792,14.8324091 7.4620625,13.8763182 8.65758333,13.8763182 C9.85270486,13.8763182 10.8218194,14.8324091 10.8218194,16.0114697" id="Fill-62" fill="#FFFFFF"></path>
                    <path d="M4.78915104,15.4209545 C4.78915104,16.600803 3.82043576,17.5565 2.62491493,17.5565 C1.4293941,17.5565 0.460678819,16.600803 0.460678819,15.4209545 C0.460678819,14.2418939 1.4293941,13.285803 2.62491493,13.285803 C3.82043576,13.285803 4.78915104,14.2418939 4.78915104,15.4209545" id="Fill-64" fill="#FFFFFF"></path>
                    <g id="Group-68" transform="translate(0.000000, 18.909091)">
                        <mask id="mask-4" fill="white">
                            <use xlink:href="#path-3"></use>
                        </mask>
                        <g id="Clip-67"></g>
                        <path d="M4.32879167,2.46306667 C4.32879167,3.64291515 3.35967708,4.59861212 2.16455556,4.59861212 C0.969034722,4.59861212 -7.98611111e-05,3.64291515 -7.98611111e-05,2.46306667 C-7.98611111e-05,1.28400606 0.969034722,0.327915152 2.16455556,0.327915152 C3.35967708,0.327915152 4.32879167,1.28400606 4.32879167,2.46306667" id="Fill-66" fill="#FFFFFF" mask="url(#mask-4)"></path>
                    </g>
                    <path d="M9.57846181,21.6447242 C9.57846181,22.8245727 8.60934722,23.7802697 7.41422569,23.7802697 C6.21870486,23.7802697 5.24959028,22.8245727 5.24959028,21.6447242 C5.24959028,20.4656636 6.21870486,19.5095727 7.41422569,19.5095727 C8.60934722,19.5095727 9.57846181,20.4656636 9.57846181,21.6447242" id="Fill-69" fill="#FFFFFF"></path>
                    <path d="M14.6898924,22.6896091 C14.6898924,23.8694576 13.7211771,24.8251545 12.5256562,24.8251545 C11.3301354,24.8251545 10.3610208,23.8694576 10.3610208,22.6896091 C10.3610208,21.5105485 11.3301354,20.5544576 12.5256562,20.5544576 C13.7211771,20.5544576 14.6898924,21.5105485 14.6898924,22.6896091" id="Fill-71" fill="#FFFFFF"></path>
                    <path d="M20.4460816,25.8697636 C20.4460816,27.0496121 19.476967,28.0053091 18.2818455,28.0053091 C17.0863247,28.0053091 16.1172101,27.0496121 16.1172101,25.8697636 C16.1172101,24.690703 17.0863247,23.7346121 18.2818455,23.7346121 C19.476967,23.7346121 20.4460816,24.690703 20.4460816,25.8697636" id="Fill-73" fill="#FFFFFF"></path>
                    <path d="M25.9259913,24.4613515 C25.9259913,25.6412 24.957276,26.596897 23.7617552,26.596897 C22.5662344,26.596897 21.5971198,25.6412 21.5971198,24.4613515 C21.5971198,23.2822909 22.5662344,22.3262 23.7617552,22.3262 C24.957276,22.3262 25.9259913,23.2822909 25.9259913,24.4613515" id="Fill-75" fill="#FFFFFF"></path>
                    <path d="M29.5638247,29.2315242 C29.5638247,30.4113727 28.5951094,31.3674636 27.3995885,31.3674636 C26.2040677,31.3674636 25.2353524,30.4113727 25.2353524,29.2315242 C25.2353524,28.0524636 26.2040677,27.0963727 27.3995885,27.0963727 C28.5951094,27.0963727 29.5638247,28.0524636 29.5638247,29.2315242" id="Fill-77" fill="#FFFFFF"></path>
                    <path d="M36.1490521,30.094803 C36.1490521,31.2746515 35.1799375,32.2307424 33.984816,32.2307424 C32.7892951,32.2307424 31.8201806,31.2746515 31.8201806,30.094803 C31.8201806,28.9161364 32.7892951,27.9596515 33.984816,27.9596515 C35.1799375,27.9596515 36.1490521,28.9161364 36.1490521,30.094803" id="Fill-79" fill="#FFFFFF"></path>
                    <path d="M31.7282205,34.1380788 C31.7282205,35.3179273 30.7595052,36.2740182 29.5639844,36.2740182 C28.3684635,36.2740182 27.399349,35.3179273 27.399349,34.1380788 C27.399349,32.9594121 28.3684635,32.0029273 29.5639844,32.0029273 C30.7595052,32.0029273 31.7282205,32.9594121 31.7282205,34.1380788" id="Fill-81" fill="#FFFFFF"></path>
                    <path d="M24.3603542,31.1396879 C24.3603542,32.3195364 23.3912396,33.2756273 22.1961181,33.2756273 C21.0005972,33.2756273 20.0314826,32.3195364 20.0314826,31.1396879 C20.0314826,29.9610212 21.0005972,29.0045364 22.1961181,29.0045364 C23.3912396,29.0045364 24.3603542,29.9610212 24.3603542,31.1396879" id="Fill-83" fill="#FFFFFF"></path>
                    <path d="M17.9594062,30.7307394 C17.9594062,31.9105879 16.9902917,32.8666788 15.7951701,32.8666788 C14.5996493,32.8666788 13.6305347,31.9105879 13.6305347,30.7307394 C13.6305347,29.5520727 14.5996493,28.5955879 15.7951701,28.5955879 C16.9902917,28.5955879 17.9594062,29.5520727 17.9594062,30.7307394" id="Fill-85" fill="#FFFFFF"></path>
                    <path d="M13.0322153,27.7325061 C13.0322153,28.9123545 12.0631007,29.8680515 10.8679792,29.8680515 C9.67205903,29.8680515 8.70334375,28.9123545 8.70334375,27.7325061 C8.70334375,26.5534455 9.67205903,25.5973545 10.8679792,25.5973545 C12.0631007,25.5973545 13.0322153,26.5534455 13.0322153,27.7325061" id="Fill-87" fill="#FFFFFF"></path>
                    <path d="M6.07850868,27.0056091 C6.07850868,28.1854576 5.1097934,29.1415485 3.91427257,29.1415485 C2.71875174,29.1415485 1.75003646,28.1854576 1.75003646,27.0056091 C1.75003646,25.8265485 2.71875174,24.8704576 3.91427257,24.8704576 C5.1097934,24.8704576 6.07850868,25.8265485 6.07850868,27.0056091" id="Fill-89" fill="#FFFFFF"></path>
                    <path d="M9.48622222,31.8213606 C9.48622222,33.0008152 8.51750694,33.9569061 7.32198611,33.9569061 C6.12646528,33.9569061 5.15735069,33.0008152 5.15735069,31.8213606 C5.15735069,30.6423 6.12646528,29.6858152 7.32198611,29.6858152 C8.51750694,29.6858152 9.48622222,30.6423 9.48622222,31.8213606" id="Fill-91" fill="#FFFFFF"></path>
                    <path d="M14.4136128,35.2741212 C14.4136128,36.4539697 13.4448976,37.4100606 12.2493767,37.4100606 C11.0538559,37.4100606 10.0847413,36.4539697 10.0847413,35.2741212 C10.0847413,34.0954545 11.0538559,33.1389697 12.2493767,33.1389697 C13.4448976,33.1389697 14.4136128,34.0954545 14.4136128,35.2741212" id="Fill-93" fill="#FFFFFF"></path>
                    <g id="Group-97" transform="translate(15.572917, 34.666667)">
                        <mask id="mask-6" fill="white">
                            <use xlink:href="#path-5"></use>
                        </mask>
                        <g id="Clip-96"></g>
                        <path d="M4.64288542,2.19743333 C4.64288542,3.37728182 3.67417014,4.33337273 2.47864931,4.33337273 C1.28312847,4.33337273 0.314413194,3.37728182 0.314413194,2.19743333 C0.314413194,1.01876667 1.28312847,0.0622818182 2.47864931,0.0622818182 C3.67417014,0.0622818182 4.64288542,1.01876667 4.64288542,2.19743333" id="Fill-95" fill="#FFFFFF" mask="url(#mask-6)"></path>
                    </g>
                    <path d="M26.2483108,36.4555455 C26.2483108,37.635 25.2795955,38.5910909 24.0840747,38.5910909 C22.8885538,38.5910909 21.9194392,37.635 21.9194392,36.4555455 C21.9194392,35.2764848 22.8885538,34.3203939 24.0840747,34.3203939 C25.2795955,34.3203939 26.2483108,35.2764848 26.2483108,36.4555455" id="Fill-98" fill="#FFFFFF"></path>
                </g>
            </g>
        </g>
    </g>
</svg>