<?xml version="1.0" encoding="utf-8"?>
<!-- Generator: Adobe Illustrator 21.0.0, SVG Export Plug-In . SVG Version: 6.00 Build 0)  -->
<svg version="1.1" id="Capa_1" xmlns="http://www.w3.org/2000/svg" xmlns:xlink="http://www.w3.org/1999/xlink" x="0px" y="0px"
	 viewBox="0 0 136 68" style="enable-background:new 0 0 136 68;" xml:space="preserve">
<style type="text/css">
	.st0{fill:#888A87;}
	.st1{fill:#1A1919;}
</style>
<title>Group</title>
<desc>Created with Sketch.</desc>
<g id="_x30_0-Home">
	<g id="_x30_0-E-Home-2560" transform="translate(-1525.000000, -4027.000000)">
		<g id="Group-49" transform="translate(-1360.000000, -250.000000)">
			<g id="Group-28">
				<g id="Módulo-5" transform="translate(2031.000000, 4101.000000)">
					<g id="Group-10" transform="translate(0.000000, 174.000000)">
						<g id="Group-8">
							<g id="Group" transform="translate(854.000000, 2.000000)">
								<path id="Fill-1" class="st0" d="M25.2,41.6c1.2,0.7,2.7,0.4,3.4-0.8c0.7-1.2,0.4-2.7-0.8-3.4c-1.2-0.7-2.7-0.4-3.4,0.8
									C23.6,39.4,24,40.9,25.2,41.6"/>
								<path id="Fill-2" class="st0" d="M27.2,31.6c1.2,0.7,2.7,0.4,3.4-0.8c0.7-1.2,0.4-2.7-0.8-3.4c-1.2-0.7-2.7-0.4-3.4,0.8
									C25.6,29.4,26,30.9,27.2,31.6"/>
								<path id="Fill-3" class="st0" d="M30.2,37.6c1.2,0.7,2.7,0.4,3.4-0.8c0.7-1.2,0.4-2.7-0.8-3.4c-1.2-0.7-2.7-0.4-3.4,0.8
									C28.6,35.4,29,36.9,30.2,37.6"/>
								<path id="Fill-4" class="st0" d="M25.6,35.8c0.7-1.2,0.4-2.7-0.8-3.4c-1.2-0.7-2.7-0.4-3.4,0.8c-0.7,1.2-0.4,2.7,0.8,3.4
									C23.4,37.4,24.9,37,25.6,35.8"/>
								<path id="Fill-5" class="st0" d="M39.2,27.4c0.5,1.3,2,1.9,3.2,1.4c1.3-0.5,1.9-2,1.4-3.2c-0.5-1.3-2-1.9-3.2-1.4
									C39.3,24.7,38.7,26.1,39.2,27.4"/>
								<path id="Fill-6" class="st0" d="M40,43.5c-1.1-0.8-2.7-0.6-3.5,0.5c-0.8,1.1-0.6,2.7,0.5,3.5c1.1,0.8,2.7,0.6,3.5-0.5
									C41.3,45.9,41.1,44.3,40,43.5"/>
								<path id="Fill-7" class="st0" d="M32.1,48.4c-1.1,0.8-1.5,2.3-0.7,3.5c0.8,1.2,2.3,1.5,3.5,0.7c1.2-0.8,1.5-2.3,0.7-3.5
									C34.8,48,33.3,47.7,32.1,48.4"/>
								<path id="Fill-8" class="st0" d="M26.9,51.1c-1.3,0.3-2.1,1.7-1.8,3c0.3,1.3,1.7,2.1,3,1.8c1.3-0.3,2.1-1.7,1.8-3
									C29.6,51.5,28.2,50.7,26.9,51.1"/>
								<path id="Fill-9" class="st0" d="M32.6,45.8c0.7-1.2,0.4-2.7-0.8-3.4c-1.2-0.7-2.7-0.4-3.4,0.8c-0.7,1.2-0.4,2.7,0.8,3.4
									C30.4,47.3,31.9,47,32.6,45.8"/>
								<path id="Fill-10" class="st0" d="M30.3,18.7c1.2,0.7,2.7,0.3,3.4-0.9c0.7-1.2,0.3-2.7-0.9-3.4c-1.2-0.7-2.7-0.3-3.4,0.9
									C28.6,16.5,29.1,18,30.3,18.7"/>
								<path id="Fill-11" class="st0" d="M24.4,20.2c-0.7,1.2-0.4,2.7,0.8,3.4c1.2,0.7,2.7,0.4,3.4-0.8c0.7-1.2,0.4-2.7-0.8-3.4
									C26.6,18.6,25.1,19,24.4,20.2"/>
								<path id="Fill-12" class="st0" d="M24.1,17c1.4,0.2,2.7-0.7,2.9-2c0.2-1.4-0.7-2.7-2-2.9c-1.4-0.2-2.7,0.7-2.9,2
									C21.8,15.4,22.7,16.7,24.1,17"/>
								<path id="Fill-13" class="st0" d="M27.6,48.8c0.7-1.2,0.4-2.7-0.8-3.4c-1.2-0.7-2.7-0.4-3.4,0.8c-0.7,1.2-0.4,2.7,0.8,3.4
									C25.4,50.4,26.9,50,27.6,48.8"/>
								<path id="Fill-14" class="st0" d="M22.2,27.6c1.2,0.7,2.7,0.4,3.4-0.8c0.7-1.2,0.4-2.7-0.8-3.4c-1.2-0.7-2.7-0.4-3.4,0.8
									C20.6,25.4,21,26.9,22.2,27.6"/>
								<path id="Fill-15" class="st0" d="M30.4,24.2c-0.7,1.2-0.4,2.7,0.8,3.4c1.2,0.7,2.7,0.4,3.4-0.8c0.7-1.2,0.4-2.7-0.8-3.4
									C32.6,22.6,31.1,23,30.4,24.2"/>
								<path id="Fill-16" class="st0" d="M33.2,42.6c1.2,0.7,2.7,0.4,3.4-0.8c0.7-1.2,0.4-2.7-0.8-3.4c-1.2-0.7-2.7-0.4-3.4,0.8
									C31.6,40.4,32,41.9,33.2,42.6"/>
								<path id="Fill-17" class="st0" d="M39.1,23.4c1-0.9,1.2-2.5,0.3-3.5c-0.9-1-2.5-1.2-3.5-0.3c-1,0.9-1.2,2.5-0.2,3.5
									C36.5,24.2,38.1,24.3,39.1,23.4"/>
								<path id="Fill-18" class="st0" d="M42.2,38.1c-1.3-0.4-2.7,0.3-3.1,1.6c-0.4,1.3,0.3,2.7,1.6,3.1c1.3,0.4,2.7-0.3,3.1-1.6
									C44.3,39.9,43.6,38.5,42.2,38.1"/>
								<path id="Fill-19" class="st0" d="M38.6,32.8c0.7-1.2,0.4-2.7-0.8-3.4c-1.2-0.7-2.7-0.4-3.4,0.8c-0.7,1.2-0.4,2.7,0.8,3.4
									C36.4,34.4,37.9,34,38.6,32.8"/>
								<path id="Fill-20" class="st0" d="M42.4,31c-1.4,0.1-2.5,1.2-2.4,2.6c0,1.4,1.2,2.5,2.6,2.4c1.4,0,2.5-1.2,2.4-2.6
									C44.9,32,43.8,31,42.4,31"/>
								<path id="Fill-21" class="st0" d="M16.2,29.6c1.2,0.7,2.7,0.4,3.4-0.8c0.7-1.2,0.4-2.7-0.8-3.4c-1.2-0.7-2.7-0.4-3.4,0.8
									C14.6,27.4,15,28.9,16.2,29.6"/>
								<path id="Fill-22" class="st0" d="M16.4,19.2c-0.7,1.2-0.3,2.7,0.8,3.4c1.2,0.7,2.7,0.4,3.4-0.8c0.7-1.2,0.4-2.7-0.8-3.4
									C18.6,17.6,17.1,18,16.4,19.2"/>
								<path id="Fill-23" class="st0" d="M11.6,31.8c0.7-1.2,0.4-2.7-0.8-3.4c-1.2-0.7-2.7-0.4-3.4,0.8c-0.7,1.2-0.4,2.7,0.8,3.4
									C9.4,33.4,10.9,33,11.6,31.8"/>
								<path id="Fill-24" class="st0" d="M6.4,35.2c-0.7,1.2-0.4,2.7,0.8,3.4c1.2,0.7,2.7,0.4,3.4-0.8c0.7-1.2,0.4-2.7-0.8-3.4
									C8.6,33.6,7.1,34,6.4,35.2"/>
								<path id="Fill-25" class="st0" d="M20.7,51c-1.4-0.1-2.6,0.9-2.7,2.3c-0.1,1.4,0.9,2.6,2.3,2.7c1.4,0.1,2.6-0.9,2.7-2.3
									C23.1,52.3,22.1,51.1,20.7,51"/>
								<path id="Fill-26" class="st0" d="M13.2,39.6c1.2,0.7,2.7,0.4,3.4-0.8c0.7-1.2,0.4-2.7-0.8-3.4c-1.2-0.7-2.7-0.4-3.4,0.8
									C11.6,37.4,12,38.9,13.2,39.6"/>
								<path id="Fill-27" class="st0" d="M19.2,43.6c1.2,0.7,2.7,0.4,3.4-0.8c0.7-1.2,0.4-2.7-0.8-3.4c-1.2-0.7-2.7-0.4-3.4,0.8
									C17.6,41.4,18,42.9,19.2,43.6"/>
								<path id="Fill-28" class="st0" d="M19.8,34.5c0.5-1.3,0-2.7-1.3-3.3c-1.3-0.5-2.7,0-3.3,1.3c-0.5,1.3,0,2.7,1.3,3.3
									C17.8,36.3,19.2,35.8,19.8,34.5"/>
								<path id="Fill-29" class="st0" d="M12.8,22.4c-1.2-0.7-2.7-0.4-3.4,0.8c-0.7,1.2-0.4,2.7,0.8,3.4c1.2,0.7,2.7,0.4,3.4-0.8
									C14.4,24.6,14,23.1,12.8,22.4"/>
								<path id="Fill-30" class="st0" d="M12.1,20.4c1.1-0.9,1.2-2.4,0.4-3.5c-0.9-1.1-2.4-1.2-3.5-0.4c-1.1,0.9-1.2,2.4-0.4,3.5
									C9.4,21.1,11,21.3,12.1,20.4"/>
								<path id="Fill-31" class="st0" d="M17.3,17.9c1.3-0.5,2-1.9,1.5-3.2c-0.5-1.3-1.9-2-3.2-1.5c-1.3,0.5-2,1.9-1.5,3.2
									C14.6,17.6,16,18.3,17.3,17.9"/>
								<path id="Fill-32" class="st0" d="M14.5,49.2c-1.3-0.6-2.7,0-3.3,1.2c-0.6,1.3,0,2.7,1.2,3.3c1.2,0.6,2.7,0,3.3-1.2
									C16.3,51.3,15.8,49.8,14.5,49.2"/>
								<path id="Fill-33" class="st0" d="M14.6,44.8c0.7-1.2,0.4-2.7-0.8-3.4c-1.2-0.7-2.7-0.4-3.4,0.8c-0.7,1.2-0.4,2.7,0.8,3.4
									C12.4,46.4,13.9,46,14.6,44.8"/>
								<path id="Fill-34" class="st0" d="M19.6,47.8c0.7-1.2,0.4-2.7-0.8-3.4c-1.2-0.7-2.7-0.4-3.4,0.8c-0.7,1.2-0.4,2.7,0.8,3.4
									C17.4,49.4,18.9,49,19.6,47.8"/>
								<path id="Fill-35" class="st0" d="M4.2,25.6c1.2,0.7,2.7,0.4,3.4-0.8c0.7-1.2,0.4-2.7-0.8-3.4c-1.2-0.7-2.7-0.4-3.4,0.8
									C2.6,23.4,3,24.9,4.2,25.6"/>
								<path id="Fill-36" class="st0" d="M6.7,45.8c-1,1-0.9,2.6,0.1,3.5c1,1,2.6,0.9,3.5-0.1c1-1,0.9-2.6-0.1-3.5
									C9.2,44.7,7.7,44.8,6.7,45.8"/>
								<path id="Fill-37" class="st0" d="M3,31.9c1.3,0.3,2.7-0.6,3-1.9c0.3-1.3-0.6-2.7-1.9-3c-1.4-0.3-2.7,0.6-3,1.9
									C0.8,30.3,1.6,31.6,3,31.9"/>
								<path id="Fill-38" class="st0" d="M6.7,41.4c-0.6-1.2-2.1-1.7-3.3-1.1c-1.2,0.6-1.7,2.1-1.1,3.4c0.6,1.2,2.1,1.7,3.4,1.1
									C6.9,44.1,7.4,42.6,6.7,41.4"/>
								<path id="Fill-39" class="st0" d="M2.8,39c1.4-0.2,2.3-1.4,2.2-2.8c-0.2-1.4-1.4-2.3-2.8-2.2c-1.4,0.2-2.3,1.4-2.2,2.8
									C0.2,38.2,1.4,39.2,2.8,39"/>
								<polygon id="Fill-40" class="st1" points="60,42 65,42 65,27 60,27 								"/>
								<path id="Fill-41" class="st1" d="M72.9,42H68V27h10.5c2.5,0,4.3,1,5,2.6c0.4,0.9,0.5,2.1,0.5,4.1V42h-4.9v-7.8
									c0-1.5-0.1-2.1-0.3-2.5c-0.3-0.5-0.8-0.7-2.1-0.7h-3.7V42"/>
								<path id="Fill-42" class="st1" d="M95.4,42c-3.3,0-5.2-0.7-6.4-2.3c-0.7-1-1-2.6-1-5.1v-0.4c0-3,0.4-4.5,1.4-5.6
									c1.3-1.3,2.9-1.8,5.9-1.8h4.6V22h5v20H95.4z M100,31h-4.2c-2.4,0-2.7,0.4-2.7,3.2v0.5c0,2.8,0.4,3.2,2.7,3.2h4.2V31z"/>
								<path id="Fill-43" class="st1" d="M107,33.7c0-2,0.1-3.2,0.5-4.1c0.7-1.7,2.5-2.6,5.1-2.6h3.5v4h-1.6
									c-1.3,0-1.8,0.2-2.1,0.7c-0.2,0.4-0.3,1-0.3,2.5V42H107V33.7"/>
								<path id="Fill-44" class="st1" d="M126.4,42c-3.3,0-5.2-0.7-6.4-2.2c-0.7-1-1-2.6-1-5v-0.4c0-3,0.4-4.5,1.4-5.5
									c1.3-1.3,2.9-1.8,5.9-1.8h9.6v15H126.4z M131,31h-4.2c-2.4,0-2.7,0.4-2.7,3.2v0.5c0,2.8,0.4,3.2,2.7,3.2h4.2V31z"/>
							</g>
						</g>
					</g>
				</g>
			</g>
		</g>
	</g>
</g>
</svg>
