<?xml version="1.0" encoding="UTF-8"?>
<svg width="116px" height="33px" viewBox="0 0 116 33" version="1.1" xmlns="http://www.w3.org/2000/svg" xmlns:xlink="http://www.w3.org/1999/xlink">
    <!-- Generator: Sketch 50.2 (55047) - http://www.bohemiancoding.com/sketch -->
    <title>meta4</title>
    <desc>Created with Sketch.</desc>
    <defs></defs>
    <g id="06-Empresas" stroke="none" stroke-width="1" fill="none" fill-rule="evenodd">
        <g id="06-E-Empresas" transform="translate(-943.000000, -1942.000000)" fill-rule="nonzero">
            <g id="meta4" transform="translate(943.000000, 1942.000000)">
                <g id="#006785ff" fill="#006785">
                    <path d="M64.2503178,0 L64.8705421,0 C65.7174206,0.0607894737 66.5836262,0.653052632 66.5959252,1.55968421 C66.6363364,3.27742105 66.6170093,4.99863158 66.5994393,6.71636842 C68.1772336,6.74242105 69.753271,6.70594737 71.3310654,6.732 C71.9407477,6.72157895 72.5152897,7.10368421 72.7138318,7.67857895 C73.3516262,9.38242105 72.0514393,11.7080526 70.1029159,11.6802632 C68.9257196,11.6889474 67.7485234,11.6733158 66.5695701,11.6837368 C66.5713271,16.302 66.5695701,20.9202632 66.5713271,25.5385263 C66.5871402,26.3096842 66.6697196,27.2458421 67.3918505,27.7078421 C68.2615701,28.2323684 69.3175327,27.9996316 70.2786168,28.0777895 C70.8285607,28.1003684 71.3890467,28.4147368 71.5647477,28.9548947 C72.0813084,30.2384211 71.3925607,31.7338421 70.2680748,32.4598421 C69.3368598,33.0277895 68.1895327,33.0451579 67.1318131,32.9513684 C65.3379065,32.7811579 63.5580561,31.9005789 62.5337196,30.4016842 C61.6464299,29.0799474 61.3723364,27.456 61.3600374,25.8945789 C61.3582804,21.1564737 61.3600374,16.4166316 61.3600374,11.6785263 C60.6379065,11.6663684 59.9140187,11.7167368 59.1954019,11.6576842 C58.6032897,11.6090526 58.1271402,11.1401053 57.9848224,10.5843158 C57.6615327,9.405 58.0410467,8.03984211 58.9494206,7.20789474 C59.6100561,6.62431579 60.541271,6.71636842 61.3600374,6.72505263 C61.3688224,5.24005263 61.3389533,3.75331579 61.3705794,2.26831579 C61.4935701,0.873631579 62.9940561,0.144157895 64.2503178,0 Z" id="Shape"></path>
                    <path d="M0,8.52963158 C0.182728972,7.33121053 1.36695327,6.63994737 2.47562617,6.42457895 C3.3646729,6.22310526 4.48740187,6.37942105 5.01801869,7.19226316 C5.40807477,7.94778947 5.20250467,8.83705263 5.22534579,9.64989474 C6.30414953,8.36984211 7.67637383,7.28605263 9.29985047,6.77889474 C11.5558505,6.06678947 14.1667664,6.18663158 16.2066542,7.44757895 C17.2801869,8.09889474 18.0866542,9.11147368 18.604972,10.2352105 C19.6099813,9.06110526 20.876785,8.12668421 22.2402243,7.40242105 C23.8109907,6.56526316 25.6453084,6.15536842 27.4216449,6.435 C29.0837757,6.65384211 30.6984673,7.44410526 31.7421308,8.76236842 C32.8859439,10.1396842 33.3392523,11.9512105 33.3357383,13.7054211 C33.3392523,19.0357895 33.3322243,24.3661579 33.3374953,29.6965263 C33.3251963,30.2992105 33.4218318,30.9505263 33.1002991,31.4958947 C32.5925234,32.3921053 31.5348037,32.8089474 30.5526355,32.9392105 C29.8744299,33.0086842 29.1013458,33.0173684 28.5443738,32.5727368 C28.1525607,32.2618421 28.0629533,31.7355789 28.0682243,31.2666316 C28.0699813,25.4690526 28.0734953,19.6714737 28.0664673,13.8738947 C28.0805234,12.9273158 27.6869533,11.8174737 26.690729,11.5031053 C25.3044486,11.0810526 23.7530093,11.3276842 22.4809346,11.9876842 C21.2562991,12.6911053 20.124785,13.6116316 19.2902056,14.7440526 C19.2620935,20.0240526 19.2884486,25.3057895 19.2779065,30.5857895 C19.2972336,31.3395789 18.803514,32.0169474 18.1657196,32.3921053 C17.3645234,32.8610526 16.4016822,33.0416842 15.4792523,32.9496316 C14.9275514,32.8975263 14.3336822,32.6144211 14.1421682,32.0655789 C13.9629533,31.5271579 14.0349907,30.9505263 14.0226916,30.3947368 C14.0262056,24.8889474 14.0244486,19.3831579 14.0226916,13.8791053 C14.0226916,13.0488947 13.7696822,12.1005789 12.9913271,11.6611579 C12.1444486,11.2095789 11.1306542,11.2616842 10.2064673,11.3832632 C8.28078505,11.7045789 6.73285981,13.035 5.46957009,14.4279474 C5.11992523,14.7353684 5.27102804,15.2251579 5.24115888,15.6298421 C5.24818692,20.6111053 5.24818692,25.5923684 5.24115888,30.5753684 C5.25521495,31.4212105 4.65256075,32.1593684 3.90583178,32.5119474 C3.03786916,33.0017368 2.00299065,32.8784211 1.04893458,32.8419474 C0.549943925,32.8072105 0.312747664,32.3035263 0,31.9874211 L0,8.52963158 Z" id="Shape"></path>
                    <path d="M39.4378318,9.46926316 C41.4214953,7.44410526 44.2801495,6.40721053 47.1036636,6.35163158 C49.2015327,6.25784211 51.2853458,6.91089474 53.0511402,8.00857895 C55.275514,9.42757895 56.8831776,11.7757895 57.2855327,14.3741053 C57.5420561,16.1491579 57.716,18.0926842 56.8708785,19.7461579 C56.0538692,21.2884737 54.1984673,21.9258947 52.5328224,21.9571579 C48.7236262,21.9762632 44.9144299,21.9432632 41.1069907,21.9727895 C41.4847477,23.8121053 42.2525607,25.6913684 43.7846729,26.8828421 C45.0813458,27.9388421 46.8629533,28.2288947 48.4917009,27.9735789 C50.1801869,27.7825263 51.6297196,26.8428947 53.1108785,26.1012632 C53.8453084,25.7556316 54.7308411,25.5767368 55.5109533,25.8754737 C55.9730467,26.0474211 56.2541682,26.4972632 56.3859439,26.9471053 C56.5985421,27.7929474 56.5019065,28.7412632 55.9923738,29.469 C55.0242617,30.9713684 53.3111776,31.7720526 51.6578318,32.3087368 C50.8724486,32.6092105 50.0466542,32.8384737 49.1980187,32.8402105 C48.6006355,32.8905789 47.9681121,32.7707368 47.3988411,33 L47.2986916,33 C47.1458318,32.9287895 46.9877009,32.8975263 46.8225421,32.9079474 C45.7894206,32.9826316 44.7598131,32.7603158 43.7653458,32.5015263 C40.801271,31.7025789 38.3678131,29.4290526 37.1449346,26.6761579 C35.8359626,23.8242632 35.533757,20.6093684 35.908,17.523 C36.2207477,14.5755789 37.3206355,11.6212105 39.4378318,9.46926316 L39.4378318,9.46926316 Z M41.354729,16.929 C44.9882243,16.9550526 48.6217196,16.9376842 52.2534579,16.9376842 C52.3360374,13.9972105 49.8041869,11.0810526 46.7311776,11.2043684 C43.7161495,11.1852632 41.3125607,14.0475789 41.354729,16.929 Z" id="Shape"></path>
                    <path d="M76.1575701,8.06936842 C78.7526729,6.85878947 81.6482243,6.28215789 84.5139065,6.38810526 C86.9825047,6.49231579 89.5530093,7.13321053 91.4259813,8.80926316 C93.1285234,10.2821053 93.8928224,12.5643158 93.8928224,14.7562105 C93.8875514,20.0883158 93.8980935,25.4204211 93.8875514,30.7525263 C93.8295701,32.1350526 92.3290841,32.8801579 91.0974206,33 L90.5755888,33 C89.9465794,32.9166316 89.2578318,32.637 89.0048224,32.0152105 C88.7693832,31.4246842 88.7588411,30.7768421 88.6463925,30.1585263 C86.7839626,31.8102632 84.3628037,32.7776842 81.8819065,33 L80.3849346,33 C79.3219439,32.8818947 78.2571963,32.6474211 77.3013832,32.1576316 C75.5584299,31.2996316 74.2793271,29.6392105 73.7926355,27.786 C73.32,25.9154211 73.3358131,23.9163158 73.8242617,22.0492105 C74.4093458,19.8069474 76.2050093,17.9242105 78.4504673,17.2503158 C81.7483738,16.2064737 85.2905047,16.6128947 88.6376075,17.1964737 C88.6182804,16.3297895 88.6850467,15.4578947 88.5989533,14.5929474 C88.4742056,13.4952632 87.7327477,12.5295789 86.7488224,12.0276316 C85.2922617,11.1956842 83.5370093,11.2217368 81.9170467,11.4093158 C80.4517009,11.5777895 79.1058318,12.2117368 77.7757757,12.8005263 C77.2082617,13.035 76.5476262,13.2451579 75.955514,12.9742105 C74.5288224,12.3993158 73.9103551,10.5113684 74.6518131,9.19484211 C74.9610467,8.61821053 75.6005981,8.35247368 76.1575701,8.06936842 L76.1575701,8.06936842 Z M80.8558131,21.9033158 C79.8841869,22.242 79.1093458,23.0704737 78.8159252,24.0413684 C78.5189907,25.1251579 78.7280748,26.367 79.4537196,27.2441053 C80.0054206,27.8693684 80.8891963,28.0552105 81.6921495,28.0621579 C84.1976449,28.0708421 86.5854206,27.0478421 88.6657196,25.7434737 C88.6059813,24.354 88.6516636,22.9610526 88.6411215,21.5698421 C87.0299439,21.5646316 85.4187664,21.5698421 83.8075888,21.5663684 C82.8166355,21.5576842 81.7940561,21.5437895 80.8558131,21.9033158 Z" id="Shape"></path>
                </g>
                <g id="#ef4642ff" transform="translate(96.000000, 7.000000)" fill="#EF4642">
                    <path d="M1.2,0.133913043 C1.77068966,0.0156521739 2.35862069,0.0834782609 2.93793103,0.0695652174 C8.22413793,0.0539130435 13.5086207,0.0556521739 18.7948276,0.0417391304 C19.2551724,0.0052173913 19.7172414,0.156521739 20,0.542608696 L20,0.963478261 C19.7189655,5.50956522 17.6396552,9.83652174 14.5896552,13.1513043 C11.1793103,16.9808696 6.35172414,19.6591304 1.20517241,19.9321739 C0.725862069,20 0.136206897,19.6991304 0.193103448,19.1426087 C0.156896552,14.0956522 0.225862069,9.04521739 0.151724138,3.99652174 C0.182758621,3.06608696 0.0844827586,2.12869565 0.213793103,1.20347826 C0.277586207,0.68173913 0.687931034,0.236521739 1.2,0.133913043 L1.2,0.133913043 Z M6.65689655,2.34782609 C5.1362069,4.81043478 3.62586207,7.28173913 2.10344828,9.74434783 C1.77413793,10.2417391 1.68448276,10.8991304 1.90517241,11.4591304 C2.14482759,12.0695652 2.78103448,12.4643478 3.42586207,12.4643478 C4.81724138,12.4869565 6.20862069,12.4608696 7.60172414,12.4747826 C7.64137931,13.2486957 7.50689655,14.0434783 7.68965517,14.8034783 C8.07586207,16.0591304 10.1706897,16.053913 10.5586207,14.8017391 C10.7396552,14.0417391 10.6034483,13.2469565 10.6431034,12.4713043 C11.0896552,12.4313043 11.5827586,12.3217391 11.85,11.9182609 C12.1724138,11.3756522 12.1568966,10.6626087 11.9155172,10.0921739 C11.6844828,9.60173913 11.1293103,9.43826087 10.6344828,9.41043478 C10.6293103,7.31304348 10.6431034,5.21565217 10.6293103,3.11826087 C10.6448276,2.10782609 9.79827586,1.17391304 8.78448276,1.16 C7.9137931,1.08695652 7.1,1.6173913 6.65689655,2.34782609 Z" id="Shape"></path>
                    <path d="M5.79310345,9.44 C6.41034483,8.45913043 6.93103448,7.41913043 7.56034483,6.44521739 C7.57413793,7.44 7.52758621,8.43652174 7.57758621,9.43130435 C6.98275862,9.43478261 6.3862069,9.43130435 5.79310345,9.44 Z" id="Shape"></path>
                </g>
                <g id="#ffffffff" transform="translate(98.000000, 8.000000)" fill="#FFFFFF">
                    <path d="M5.15918033,1.32352941 C5.62262295,0.582352941 6.47377049,0.0441176471 7.38442623,0.118235294 C8.4447541,0.132352941 9.33016393,1.08 9.31393443,2.10529412 C9.32836066,4.23352941 9.31393443,6.36176471 9.31934426,8.49 C9.83688525,8.51823529 10.417541,8.68411765 10.6591803,9.18176471 C10.9116393,9.76058824 10.9278689,10.4841176 10.5906557,11.0347059 C10.3111475,11.4441176 9.79540984,11.5552941 9.32836066,11.5958824 C9.28688525,12.3829412 9.42934426,13.1894118 9.24,13.9605882 C8.8342623,15.2311765 6.64327869,15.2364706 6.23934426,13.9623529 C6.04819672,13.1911765 6.18885246,12.3847059 6.14737705,11.5994118 C4.69032787,11.5852941 3.23508197,11.6117647 1.77983607,11.5888235 C1.10540984,11.5888235 0.44,11.1882353 0.189344262,10.5688235 C-0.0414754098,10.0005882 0.052295082,9.33352941 0.396721311,8.82882353 C1.98901639,6.33 3.56868852,3.82235294 5.15918033,1.32352941 L5.15918033,1.32352941 Z M4.2557377,8.52 C4.87606557,8.51117647 5.5,8.51470588 6.12213115,8.51117647 C6.06983607,7.50176471 6.11852459,6.49058824 6.10409836,5.48117647 C5.44590164,6.46941176 4.90131148,7.52470588 4.2557377,8.52 Z" id="Shape"></path>
                </g>
            </g>
        </g>
    </g>
</svg>