<?xml version="1.0" encoding="utf-8"?>
<!-- Generator: Adobe Illustrator 21.0.0, SVG Export Plug-In . SVG Version: 6.00 Build 0)  -->
<svg version="1.1" id="Capa_1" xmlns="http://www.w3.org/2000/svg" xmlns:xlink="http://www.w3.org/1999/xlink" x="0px" y="0px"
	 viewBox="0 0 135 68" style="enable-background:new 0 0 135 68;" xml:space="preserve">
<style type="text/css">
	.st0{filter:url(#Adobe_OpacityMaskFilter);}
	.st1{fill:#FFFFFF;}
	.st2{mask:url(#mask-2);}
</style>
<title>Group</title>
<desc>Created with Sketch.</desc>
<g id="_x30_0-Home">
	<g id="_x30_0-E-Home-1920" transform="translate(-328.000000, -4034.000000)">
		<g id="Group-28" transform="translate(-1703.000000, -249.000000)">
			<g id="Módulo-5" transform="translate(2031.000000, 4101.000000)">
				<g id="Group-10" transform="translate(0.000000, 155.000000)">
					<g id="Group-8">
						<g id="Group" transform="translate(0.000000, 27.000000)">
							<g id="Clip-2">
							</g>
							<defs>
								<filter id="Adobe_OpacityMaskFilter" filterUnits="userSpaceOnUse" x="0" y="13" width="135" height="42">
									<feColorMatrix  type="matrix" values="1 0 0 0 0  0 1 0 0 0  0 0 1 0 0  0 0 0 1 0"/>
								</filter>
							</defs>
							<mask maskUnits="userSpaceOnUse" x="0" y="13" width="135" height="42" id="mask-2">
								<g class="st0">
									<polygon id="path-1" class="st1" points="0,13 135,13 135,55 0,55 									"/>
								</g>
							</mask>
							<path id="Fill-1" class="st2" d="M40.2,35.8h3.9v1.7c0,0-11.3,0-11.4,0v-1.7h5.5V20.5H33c-0.1,0-0.2,0-0.3,0v-1.6
								c0.1,0,0.2,0,0.3,0h7.2L40.2,35.8L40.2,35.8z M120.8,37.5c0.1,0,0.1,0,0.2,0v-1.6c-0.1,0-0.1,0-0.2,0h-4V18.7h-7.3h0v1.7h0
								h5.3v15.4h-5.3h0v1.7h0L120.8,37.5L120.8,37.5z M80.3,27.6L74.1,26c-0.8-0.2-1.3-0.6-1.7-1c-0.4-0.5-0.5-0.9-0.5-1.4
								c0-0.7,0.1-1.3,0.4-1.7c0.3-0.4,0.7-0.7,1.1-1c0.5-0.2,1-0.4,1.5-0.5c0.6-0.1,1.1-0.1,1.7-0.1c1.6,0,2.9,0.3,3.8,0.8
								c0.9,0.5,1.4,1.4,1.4,2.7v0.1h1.9v-0.1c-0.1-1.8-0.7-3.2-2-4c-1.3-0.9-3-1.3-5-1.3c-0.9,0-1.7,0.1-2.6,0.3
								c-0.8,0.2-1.5,0.5-2.2,0.9c-0.6,0.4-1.1,0.9-1.5,1.6c-0.4,0.6-0.6,1.4-0.6,2.3c0,1,0.3,1.9,0.9,2.6c0.6,0.7,1.5,1.2,2.6,1.5
								l6.2,1.7c0.8,0.2,1.4,0.6,1.8,1.1c0.4,0.6,0.6,1.2,0.6,1.8c0,0.8-0.2,1.4-0.5,1.9c-0.3,0.5-0.7,0.8-1.2,1.1
								c-0.6,0.3-1.1,0.4-1.7,0.5c-1.6,0.2-2.9,0.1-4-0.1C74,35.5,73.5,35.3,73,35c-0.4-0.3-0.8-0.6-1-1.1c-0.3-0.4-0.4-1-0.4-1.6
								c0,0,0-0.1,0-0.1h-2c0,0,0,0.1,0,0.1c0,1.8,0.7,3.2,2,4c1.3,0.9,3,1.3,5.1,1.3c1,0,1.9-0.1,2.8-0.3c0.9-0.2,1.6-0.5,2.3-0.9
								c0.7-0.4,1.2-1,1.6-1.7c0.4-0.7,0.6-1.6,0.6-2.6c0-1.1-0.3-2.1-1-3C82.4,28.5,81.4,28,80.3,27.6z M19.7,18.5L19.7,18.5
								c-2.3,0-4.1,0.6-5.3,1.7c-0.4,0.3-0.7,0.7-1,1.2c-0.3-0.4-0.6-0.9-1-1.2c-1.2-1.1-3-1.7-5.2-1.7H7.1c-2.2,0-4,0.6-5.2,1.7
								C0.6,21.3,0,22.9,0,25v12.6h2V25c0-0.6,0.1-1.1,0.2-1.6c0.2-0.6,0.4-1,0.8-1.5c0.4-0.4,0.9-0.8,1.6-1.1
								c0.7-0.3,1.5-0.4,2.5-0.4c0,0,0.1,0,0.2,0c1.1,0,1.9,0.1,2.6,0.4c0.7,0.3,1.2,0.6,1.6,1.1c0.4,0.4,0.6,0.9,0.8,1.5
								c0.2,0.6,0.2,1.1,0.2,1.6v12.6h2.1V25c0-0.5,0.1-1.1,0.2-1.6c0.2-0.6,0.4-1.1,0.8-1.5c0.4-0.4,0.9-0.8,1.6-1.1
								c0.7-0.3,1.5-0.4,2.6-0.4h0.2c1,0,1.9,0.1,2.6,0.4c0.6,0.3,1.2,0.6,1.6,1.1c0.4,0.4,0.6,0.9,0.8,1.5c0.2,0.6,0.2,1.1,0.2,1.6
								v12.6h1.9V25c0-2.1-0.6-3.7-1.9-4.8C23.7,19.1,21.9,18.5,19.7,18.5z M103,22.3c0.3,0.8,0.5,1.7,0.5,2.6v12.6h-1.2l-0.6-1.5v0
								V36c0,0,0,0,0,0c-1.3,1.1-3,1.7-5.2,1.7c-2.2,0-3.9-0.6-5.2-1.7c-1.3-1.1-1.9-2.7-1.9-4.8v-6.3c0-1,0.2-1.8,0.5-2.6
								c0.3-0.8,0.8-1.5,1.4-2.1c0.6-0.5,1.3-1,2.3-1.3c1.8-0.6,4.1-0.6,5.8,0c0.9,0.3,1.7,0.8,2.3,1.3
								C102.1,20.8,102.6,21.5,103,22.3z M101.4,24.9c0-1.5-0.4-2.6-1.3-3.4c-0.9-0.8-2.2-1.2-3.8-1.2c-1.6,0-2.9,0.4-3.8,1.2
								c-0.9,0.8-1.3,1.9-1.3,3.4v6.3c0,0.5,0.1,1,0.2,1.6c0.1,0.5,0.4,1,0.8,1.5c0.4,0.4,0.9,0.8,1.5,1.1c0.6,0.3,1.5,0.4,2.6,0.4
								c1.1,0,1.9-0.1,2.6-0.4c0.7-0.3,1.2-0.6,1.5-1.1c0.4-0.5,0.6-0.9,0.8-1.5c0.2-0.6,0.2-1.1,0.2-1.6V24.9z M131,37.7
								c1.7,0,3-0.4,4-1.2l-0.7-1.7c-0.7,0.6-1.7,1.1-3.3,1.1c-1.2,0-2-0.3-2.6-0.9c-0.6-0.6-0.9-1.7-0.9-3.3V20.5h6.2h0v-1.7h0
								h-6.2V13h-1.9v18.8c0,2,0.5,3.5,1.4,4.4C127.9,37.2,129.3,37.7,131,37.7z M57.3,18.5c-0.5,0-1.1,0.1-1.7,0.2
								c-0.5,0.1-1.1,0.3-1.7,0.6c-0.5,0.2-1,0.6-1.4,0.9c-0.2,0.1-0.3,0.3-0.4,0.4v0l-1-1.8h-0.9v18.8h1.9V24.9
								c0-0.7,0.1-1.3,0.4-1.8c0.3-0.6,0.6-1.1,1.1-1.4c0.4-0.4,1-0.7,1.6-0.9c0.6-0.2,1.3-0.3,2.1-0.3c1,0,1.9,0.1,2.6,0.4
								c0.7,0.3,1.2,0.6,1.6,1.1c0.4,0.4,0.6,0.9,0.8,1.5c0.1,0.6,0.2,1.1,0.2,1.6v12.6h1.9V25c0-2.1-0.6-3.6-1.8-4.8
								C61.2,19.1,59.5,18.5,57.3,18.5z M92.8,45.7c-1.2,0-2,0.5-2.4,0.8v-3.2c0-0.1-0.1-0.1-0.2-0.1h-0.4c-0.1,0-0.2,0.1-0.2,0.1
								v8.8c0,0.1,0,0.1,0.2,0.1h0.3c0.1,0,0.2-0.1,0.2-0.1v-0.5c0.4,0.3,1.2,0.8,2.5,0.8c1.3,0,1.9-0.6,1.9-1.6v-3.4
								C94.8,46.4,94.2,45.7,92.8,45.7z M94.1,50.7c0,0.6-0.4,1.1-1.4,1.1c-1.2,0-2-0.6-2.3-0.8v-3.9c0.3-0.2,1.1-0.8,2.3-0.8
								c1,0,1.4,0.5,1.4,1.1V50.7z M101.4,46l-3.3,8.9c0,0.1-0.1,0.1-0.2,0.1h-0.3c-0.1,0-0.2-0.1-0.1-0.1l0.9-2.6L96.1,46
								c0-0.1,0-0.1,0.1-0.1h0.4c0.1,0,0.2,0.1,0.2,0.1l1.7,4.7c0.1,0.3,0.2,0.6,0.2,0.7c0,0,0.1-0.4,0.2-0.6l1.7-4.8
								c0-0.1,0.1-0.1,0.2-0.1h0.4C101.4,45.9,101.4,45.9,101.4,46z M107.3,43.6v8.5c0,0.3-0.2,0.3-0.4,0.3h-0.6
								c-0.2,0-0.3-0.1-0.3-0.3v-8.5c0-0.2,0.1-0.3,0.3-0.3h0.6C107.1,43.3,107.3,43.3,107.3,43.6z M115.1,47.3v4.8
								c0,0.2-0.1,0.3-0.3,0.3h-0.6c-0.2,0-0.3-0.1-0.3-0.3v-4.6c0-0.6-0.3-0.9-1.1-0.9c-0.7,0-1.4,0.2-2,0.7v4.8
								c0,0.2-0.1,0.3-0.3,0.3h-0.6c-0.2,0-0.4-0.1-0.4-0.3v-6c0-0.2,0.1-0.3,0.4-0.3h0.5c0.3,0,0.3,0.2,0.3,0.3v0.3
								c0.4-0.3,1.2-0.7,2.3-0.7C114.3,45.6,115.1,46.3,115.1,47.3z M122,43h-0.6c-0.2,0-0.4,0.1-0.4,0.3v2.9
								c-0.5-0.3-1.2-0.6-2.3-0.6c-1.3,0-2.1,0.6-2.1,1.8v3.3c0,1.1,0.8,1.8,2.1,1.8c0.8,0,1.6-0.2,2.3-0.7v0.3c0,0.1,0,0.3,0.4,0.3
								h0.5c0.2,0,0.3-0.1,0.3-0.3v-8.7C122.4,43.1,122.3,43,122,43z M121.1,47.4v3.4c-0.3,0.2-1,0.7-2,0.7c-0.9,0-1.1-0.5-1.1-0.9
								v-3c0-0.4,0.2-0.9,1.1-0.9C119.8,46.7,120.5,46.9,121.1,47.4z M128.1,45.9v0.4c0,0.2-0.2,0.3-0.3,0.3c-1,0-1.9,0.6-2.2,0.8
								v4.6c0,0.2-0.1,0.3-0.3,0.3h-0.6c-0.2,0-0.4-0.1-0.4-0.3V46c0-0.2,0.1-0.3,0.4-0.3h0.5c0.3,0,0.3,0.2,0.3,0.3l0,0.4
								c0.4-0.3,1.2-0.8,2.2-0.8C128,45.6,128.1,45.7,128.1,45.9z M131.8,45.6c-1.8,0-2.7,0.6-2.7,1.8v0.2c0,0.3,0.2,0.4,0.4,0.4
								h0.5c0.2,0,0.3-0.1,0.3-0.4v-0.1c0-0.4,0.2-0.9,1.5-0.9c1.3,0,1.5,0.4,1.5,0.9v1.1h-2.3c-1.2,0-2,0.6-2,1.7v0.6
								c0,1,0.8,1.7,2.1,1.7c0.8,0,1.6-0.2,2.2-0.6v0.2c0,0.1,0,0.3,0.3,0.3h0.5c0.2,0,0.3-0.1,0.3-0.3v-4.7
								C134.5,46.2,133.6,45.6,131.8,45.6z M133.3,49.5v1.4c-0.6,0.4-1.3,0.7-2,0.7c-1,0-1.1-0.4-1.1-0.8v-0.4c0-0.6,0.3-0.8,1-0.8
								L133.3,49.5L133.3,49.5z"/>
						</g>
					</g>
				</g>
			</g>
		</g>
	</g>
</g>
</svg>
