<?xml version="1.0" encoding="UTF-8"?>
<svg width="142px" height="27px" viewBox="0 0 142 27" version="1.1" xmlns="http://www.w3.org/2000/svg" xmlns:xlink="http://www.w3.org/1999/xlink">
    <!-- Generator: Sketch 50.2 (55047) - http://www.bohemiancoding.com/sketch -->
    <title>Group</title>
    <desc>Created with Sketch.</desc>
    <defs></defs>
    <g id="Copys" stroke="none" stroke-width="1" fill="none" fill-rule="evenodd">
        <g id="00-E-Home-1920-Copy" transform="translate(-895.000000, -5954.000000)" fill="#FFFFFF">
            <g id="Group-2-Copy-3" transform="translate(670.000000, 5939.000000)">
                <g id="Group" transform="translate(225.000000, 15.000000)">
                    <path d="M37.4131737,13.6893556 C37.3849796,15.5948206 37.2523017,17.5958017 36.7945629,19.5627855 C36.6569095,20.1536902 36.3683351,20.6717435 35.955375,21.108851 C35.416371,21.6706152 34.7430306,21.9312607 33.9585724,21.7418475 C33.1807481,21.5508153 32.7843729,20.9858134 32.6201839,20.2605387 C32.3913145,19.2746184 32.5803806,18.2822224 32.6865229,17.297921 C32.8440779,15.8036609 32.9767558,14.3110196 32.9104169,12.8086649 C32.8755889,12.0202524 32.7760805,11.2188886 32.1773714,10.6296029 C31.37467,9.84119049 30.2634924,9.93832549 29.2932852,10.8254919 C28.410977,11.6268557 27.8172434,12.6224895 27.3230181,13.6893556 C26.3246168,15.8506094 25.6512764,18.1235686 24.9331572,20.3754818 C24.5450743,21.5929071 24.1055787,22.7876677 23.2282459,23.7573988 C20.1633861,27.1215078 14.4914052,26.7588705 11.9555985,22.9608918 C10.5376033,20.8401109 9.33355119,18.5946733 8.02667371,16.4075168 C7.74141619,15.936412 7.43625699,15.4750208 7.04817408,15.0702916 C6.62360475,14.6396597 6.15425662,14.440533 5.53730431,14.5943301 C4.88552405,14.7562217 4.65665464,15.2435157 4.54885384,15.800423 C4.38632339,16.6438787 4.50075809,17.4792397 4.67158091,18.3129818 C5.04307907,20.1407388 5.76451524,21.8713608 6.22059558,23.6699773 C6.36322434,24.2268847 6.45278193,24.785411 6.41463703,25.3617453 C6.36819976,26.0190255 6.08791766,26.5629816 5.45106367,26.8220082 C4.7229936,27.1215078 4.00155743,27.0502755 3.37465428,26.5532681 C2.76765281,26.0724498 2.43429955,25.3892669 2.16728524,24.7044651 C0.800702707,21.207605 -0.174479976,17.6265611 0.0261953717,13.8382959 C0.157214814,11.3532587 0.609978203,8.92650252 1.79744555,6.6907785 C2.76267739,4.86949716 4.14086924,3.50636926 6.3400057,3.18582374 C7.83429073,2.96726998 9.16604532,3.32019383 10.3253186,4.28506821 C11.6786334,5.41183427 12.6239635,6.84943234 13.5925123,8.27407907 C14.3238993,9.33932629 14.914316,10.5049464 15.7734055,11.4827721 C16.600984,12.4282194 17.587776,13.137305 18.9327984,13.0919753 C20.4287419,13.0417889 21.3475365,12.164336 21.9213685,10.9031999 C22.9181113,8.70471093 23.735739,6.43337073 24.7805776,4.24783313 C25.5849374,2.56577863 26.7475277,1.19779398 28.5204363,0.462805774 C31.1806285,-0.63481978 33.6119514,0.25072768 35.0432144,2.79242697 C36.21078,4.87435391 36.7812951,7.14731302 37.1129899,9.48340988 C37.3037144,10.8481567 37.3750288,12.2145224 37.4131737,13.6893556" id="Fill-1"></path>
                    <path d="M130.131349,8.8126254 C129.369814,8.48437982 128.220859,8.27819542 126.734368,8.27819542 L126.551467,8.27819542 C125.645272,8.27819542 124.40653,8.38706078 123.216007,8.60644099 C123.021466,8.64272945 122.935003,8.74169796 122.935003,8.97097502 L122.935003,10.6600377 C122.935003,10.869521 123.044744,10.9404485 123.29083,10.90416 C124.333369,10.7458104 125.412488,10.636945 126.245522,10.636945 L126.368565,10.636945 C127.544123,10.636945 128.488561,10.7458104 129.053893,11.1251897 C129.617562,11.4996206 129.900228,12.0719885 129.900228,13.3008476 L129.900228,13.6653816 C129.040591,13.4822898 127.998052,13.3618782 127.055277,13.3618782 L126.79589,13.3618782 C125.214622,13.3618782 123.729794,13.739608 122.77538,14.6138299 C122.052087,15.2835168 121.573218,16.3028925 121.573218,17.6043285 L121.573218,17.7164928 C121.573218,20.3292616 123.387269,21.9375 127.078556,21.9375 L127.74199,21.9375 C129.188575,21.9375 130.573639,21.5086364 131.395033,20.8290526 C132.35111,20.0488508 132.718576,18.8826718 132.718576,17.0336101 L132.718576,13.2645591 C132.718576,10.6847798 131.70264,9.49550815 130.131349,8.8126254 Z M129.900228,16.9725795 C129.900228,17.9589657 129.860323,18.5412305 129.506159,18.9568982 C129.125391,19.3956586 128.440341,19.601843 127.520845,19.601843 L127.066916,19.601843 C125.362606,19.601843 124.381589,18.9222592 124.381589,17.6290706 C124.381589,17.0336101 124.616035,16.5123759 124.983501,16.1956766 C125.412488,15.8294931 126.049319,15.6497003 127.128438,15.6497003 L127.372861,15.6497003 C128.192593,15.6497003 129.125391,15.7321741 129.900228,15.9284616 L129.900228,16.9725795 Z M141.704032,8.27819542 L140.184286,8.27819542 C138.002769,8.27819542 136.286819,9.03200561 135.563527,10.6006566 C135.242618,11.2818899 135.146179,12.1940497 135.146179,13.1672401 L135.146179,21.437709 C135.146179,21.6191513 135.234304,21.6933777 135.428845,21.6933777 L137.696824,21.6933777 C137.879726,21.6933777 137.964526,21.6191513 137.964526,21.437709 L137.964526,14.5165108 C137.964526,13.5433204 137.99113,12.8274482 138.039349,12.3886878 C138.174031,11.2456014 138.874046,10.6996251 140.503532,10.6996251 L141.717334,10.6996251 C141.911875,10.6996251 142,10.6006566 142,10.407668 L142,8.54541041 C142,8.36231865 141.900235,8.27819542 141.704032,8.27819542 Z M87.1993579,21.6933777 L89.6618784,21.6933777 C89.8697211,21.6933777 89.9694856,21.6191513 90.0542854,21.4641006 C91.6488547,18.4834988 94.0880969,13.3998161 94.2593593,8.78953275 C94.2709985,8.60644099 94.1861986,8.52066828 93.9517521,8.52066828 L91.6621567,8.52066828 C91.3911298,8.52066828 91.3146437,8.60644099 91.30633,8.839017 C91.1932635,10.5132344 90.8374368,12.4744605 90.3236496,14.2146569 C89.7849213,16.0142344 89.0982089,17.7296886 88.4364377,19.0063825 C87.7746665,17.7296886 87.0862914,16.0142344 86.5459004,14.2146569 C86.020474,12.4612647 85.6646472,10.4917912 85.5549063,8.80107907 C85.5432671,8.55695673 85.408585,8.50912195 85.1741384,8.50912195 L82.8579392,8.50912195 C82.6118534,8.50912195 82.5386928,8.61798732 82.5636339,8.86210966 C82.8828803,13.3866203 84.3045245,16.8884562 86.7687078,21.4509048 C86.8535076,21.6306976 86.9765505,21.6933777 87.1993579,21.6933777 Z M105.477878,15.7948542 C106.089767,16.0241312 106.605217,16.2055735 107.205466,16.4150568 C108.504068,16.8752604 109.056098,17.2430934 109.056098,18.0199963 C109.056098,19.0410215 108.186484,19.5754514 106.224449,19.5754514 L106.149625,19.5754514 C105.04889,19.5754514 103.773567,19.3560712 102.657868,19.0063825 C102.425084,18.9321561 102.302041,19.0179288 102.302041,19.2472059 L102.302041,20.9263717 C102.302041,21.135855 102.336959,21.267813 102.571405,21.3502868 C103.638885,21.7181198 105.098773,21.9243042 106.297609,21.9243042 L106.384072,21.9243042 C109.865853,21.9243042 111.754728,20.3902922 111.754728,17.8962856 L111.754728,17.8616466 C111.754728,16.901652 111.435481,16.0356775 110.848534,15.4534128 C110.269899,14.8826943 109.388646,14.4439339 108.015222,13.9457924 C107.291929,13.6785774 106.72826,13.469094 106.224449,13.2893012 C105.098773,12.875283 104.777863,12.4992026 104.777863,11.9136389 C104.777863,10.9519948 105.722301,10.5874608 107.243709,10.5874608 L107.35345,10.5874608 C108.223064,10.5874608 109.288882,10.7128209 110.577507,10.9404485 C110.810291,10.9915822 110.944973,10.9305516 110.944973,10.6847798 L110.944973,8.9594287 C110.944973,8.72850216 110.883451,8.66747158 110.650667,8.61798732 C109.815971,8.44974084 108.296225,8.25345329 107.43825,8.25345329 L107.230408,8.25345329 C105.451274,8.25345329 104.127731,8.58169886 103.258118,9.33550905 C102.544801,9.95736123 102.067594,10.8926137 102.067594,11.9994116 L102.067594,12.0851843 C102.067594,13.1194053 102.436723,13.9556892 103.048612,14.5165108 C103.662164,15.0773324 104.433676,15.405578 105.477878,15.7948542 Z M119.466524,21.6933777 C119.661065,21.6933777 119.772468,21.5828628 119.772468,21.4113174 L119.772468,19.5408125 C119.772468,19.369267 119.661065,19.2604017 119.466524,19.2604017 L119.158917,19.2604017 C118.252723,19.2604017 117.700692,19.0410215 117.356505,18.6863843 C116.902576,18.2129849 116.817776,17.4591747 116.817776,16.5602107 L116.817776,10.8579747 L119.316877,10.8579747 C119.503104,10.8579747 119.599543,10.7837483 119.599543,10.6006566 L119.599543,8.77633694 C119.599543,8.59489467 119.503104,8.52066828 119.316877,8.52066828 L116.817776,8.52066828 L116.817776,6.16191866 C116.817776,5.98047639 116.719675,5.90625 116.53511,5.90625 L114.267131,5.90625 C114.084229,5.90625 113.984464,5.98047639 113.984464,6.16191866 L113.984464,16.7185603 C113.984464,18.5544263 114.353593,19.7239042 115.161686,20.5222502 C115.921559,21.2793594 117.123721,21.6933777 118.852972,21.6933777 L119.466524,21.6933777 Z M61.2938416,8.27819542 L60.6071293,8.27819542 C58.6317921,8.27819542 57.3198889,8.80107907 56.681396,9.56643559 L56.6697568,9.56643559 C56.0329268,8.80107907 54.6478629,8.27819542 52.6741885,8.27819542 L51.962535,8.27819542 C49.7311356,8.27819542 47.9170843,9.04355193 47.1804898,10.6253987 C46.8629061,11.306632 46.7664671,12.2072455 46.7664671,13.1919822 L46.7664671,21.3981216 C46.7664671,21.5828628 46.8745453,21.704924 47.0591096,21.704924 L49.3021482,21.704924 C49.4850498,21.704924 49.5964535,21.5828628 49.5964535,21.3981216 L49.5964535,14.5659951 C49.5964535,13.5928047 49.6213946,12.875283 49.6712769,12.438172 C49.805959,11.2934362 50.662271,10.7342641 52.2950833,10.7342641 L52.4779849,10.7342641 C54.1074718,10.7342641 55.0136661,11.2934362 55.1383717,12.438172 C55.1865912,12.875283 55.2115323,13.5928047 55.2115323,14.5659951 L55.2115323,21.3981216 C55.2115323,21.5828628 55.322936,21.704924 55.5058376,21.704924 L57.7488762,21.704924 C57.9334406,21.704924 58.0448443,21.5581207 58.0448443,21.3766784 L58.0448443,14.5659951 C58.0448443,13.5928047 58.0681226,12.875283 58.1180049,12.438172 C58.2410478,11.2934362 59.147242,10.7342641 60.7767289,10.7342641 L60.9612933,10.7342641 C62.5924429,10.7342641 63.4504176,11.2934362 63.5850997,12.438172 C63.6333192,12.875283 63.6599231,13.5928047 63.6599231,14.5659951 L63.6599231,21.3981216 C63.6599231,21.5828628 63.7680013,21.704924 63.9525657,21.704924 L66.1956043,21.704924 C66.3801686,21.704924 66.4915723,21.5581207 66.4915723,21.3766784 L66.4915723,13.1919822 C66.4915723,12.2072455 66.3801686,11.306632 66.0742241,10.6253987 C65.3492687,9.04355193 63.525241,8.27819542 61.2938416,8.27819542 Z M80.6132378,18.737518 C80.882602,17.835255 81.043888,16.8142299 81.043888,15.1004251 C81.043888,13.3998161 80.8959039,12.3639456 80.6132378,11.4649816 C79.9281883,9.17880891 78.1008351,8.26499961 75.146143,8.26499961 L74.7903163,8.26499961 C71.837287,8.26499961 70.0232357,9.17880891 69.3232215,11.4649816 C69.0538573,12.3639456 68.8925713,13.3998161 68.8925713,15.1004251 C68.8925713,16.8059825 69.0405554,17.835255 69.3232215,18.737518 C70.0232357,21.0253402 71.837287,21.9375 74.7903163,21.9375 L75.146143,21.9375 C78.1008351,21.9375 79.9281883,21.0253402 80.6132378,18.737518 Z M78.0642548,17.0204143 C77.8431101,19.1630826 76.7656535,19.4929777 75.0114609,19.4929777 L74.9383003,19.4929777 C73.1974097,19.4929777 72.1066511,19.1630826 71.8838437,17.0204143 C71.8123458,16.3804179 71.7624636,15.8426889 71.7624636,15.1004251 C71.7624636,14.3581612 71.8123458,13.8253807 71.8838437,13.1787864 C72.1066511,11.039417 73.1841078,10.7128209 74.9383003,10.7128209 L75.0114609,10.7128209 C76.7523515,10.7128209 77.8431101,11.039417 78.0642548,13.1787864 C78.1374154,13.8253807 78.1872977,14.3581612 78.1872977,15.1004251 C78.1872977,15.8558847 78.1257762,16.3804179 78.0642548,17.0204143 Z M99.1378435,8.53221461 L96.8715265,8.53221461 C96.6869622,8.53221461 96.5888604,8.60644099 96.5888604,8.78953275 L96.5888604,21.437709 C96.5888604,21.6191513 96.6736603,21.6933777 96.8715265,21.6933777 L99.1378435,21.6933777 C99.3340471,21.6933777 99.4205096,21.6191513 99.4205096,21.437709 L99.4205096,8.78953275 C99.4205096,8.60644099 99.3224079,8.53221461 99.1378435,8.53221461 Z" id="Fill-2"></path>
                </g>
            </g>
        </g>
    </g>
</svg>