<svg width="167" height="32" xmlns="http://www.w3.org/2000/svg"><g class="logo-movistar" fill="#0092C5" fill-rule="evenodd"><path d="M44 16.224c-.033 2.259-.19 4.63-.728 6.962a3.956 3.956 0 0 1-.986 1.832c-.634.666-1.426.975-2.349.75-.915-.226-1.38-.896-1.574-1.756-.269-1.168-.047-2.344.078-3.51.185-1.772.342-3.54.264-5.321-.041-.935-.158-1.885-.863-2.583-.944-.934-2.25-.82-3.391.232-1.038.95-1.736 2.13-2.318 3.394-1.174 2.562-1.966 5.256-2.81 7.925-.457 1.443-.973 2.859-2.005 4.008-3.605 3.987-10.275 3.557-13.258-.944-1.667-2.514-3.083-5.175-4.62-7.767-.336-.558-.695-1.105-1.151-1.585-.5-.51-1.051-.746-1.777-.564-.766.192-1.036.77-1.162 1.43-.191 1-.057 1.99.144 2.977.437 2.167 1.285 4.218 1.822 6.35.168.66.273 1.321.228 2.004-.055.78-.384 1.424-1.133 1.731-.856.355-1.705.27-2.442-.318-.714-.57-1.106-1.38-1.42-2.192C.942 25.135-.205 20.891.03 16.401c.154-2.945.686-5.821 2.083-8.471C3.249 5.77 4.87 4.156 7.456 3.776c1.758-.26 3.324.159 4.687 1.303 1.592 1.335 2.703 3.039 3.843 4.727.86 1.263 1.554 2.644 2.564 3.803.974 1.12 2.134 1.961 3.716 1.907 1.76-.06 2.84-1.099 3.515-2.594 1.172-2.605 2.134-5.297 3.362-7.888.946-1.993 2.314-3.614 4.399-4.485 3.128-1.301 5.988-.252 7.67 2.76 1.374 2.468 2.045 5.162 2.435 7.93.224 1.618.308 3.237.353 4.985M153.042 10.445c-.896-.39-2.247-.634-3.995-.634h-.215c-1.066 0-2.523.13-3.923.39-.229.042-.33.16-.33.431v2.002c0 .248.129.332.418.29 1.226-.188 2.495-.317 3.475-.317h.145c1.382 0 2.493.129 3.158.578.663.444.995 1.123.995 2.579v.432a16.725 16.725 0 0 0-3.346-.36h-.305c-1.86 0-3.606.448-4.728 1.484-.85.794-1.414 2.002-1.414 3.544v.133c0 3.097 2.133 5.003 6.475 5.003h.78c1.701 0 3.33-.508 4.296-1.314 1.124-.924 1.557-2.307 1.557-4.498v-4.467c0-3.058-1.195-4.467-3.043-5.276zm-.272 9.67c0 1.17-.047 1.86-.463 2.352-.448.52-1.254.765-2.335.765h-.534c-2.005 0-3.158-.806-3.158-2.338 0-.706.275-1.324.708-1.7.504-.433 1.253-.646 2.522-.646h.288c.964 0 2.06.098 2.972.33v1.238zm13.882-10.304h-1.787c-2.566 0-4.584.894-5.435 2.753-.377.807-.49 1.888-.49 3.042v9.802c0 .215.103.303.332.303h2.667c.215 0 .315-.088.315-.303v-8.203c0-1.154.031-2.002.088-2.522.158-1.355.982-2.002 2.898-2.002h1.428c.228 0 .332-.117.332-.346v-2.207c0-.217-.117-.317-.348-.317zm-64.1 15.9h2.895c.245 0 .362-.088.462-.272 1.875-3.533 4.744-9.558 4.945-15.022.014-.217-.086-.318-.361-.318H107.8c-.319 0-.409.101-.419.377-.133 1.984-.551 4.309-1.155 6.371-.634 2.133-1.441 4.166-2.22 5.68-.778-1.514-1.588-3.547-2.223-5.68-.618-2.078-1.037-4.412-1.166-6.416-.013-.29-.172-.346-.447-.346h-2.724c-.29 0-.376.129-.347.418.376 5.363 2.048 9.513 4.946 14.92.1.213.244.288.506.288zm21.496-6.991c.72.272 1.326.487 2.032.735 1.527.545 2.176.981 2.176 1.902 0 1.21-1.023 1.844-3.33 1.844h-.088c-1.295 0-2.794-.26-4.107-.675-.273-.088-.418.014-.418.286v1.99c0 .248.041.404.317.502 1.255.436 2.972.68 4.382.68h.102c4.094 0 6.316-1.818 6.316-4.774v-.04c0-1.138-.376-2.165-1.066-2.855-.68-.676-1.717-1.196-3.332-1.787-.85-.316-1.514-.565-2.106-.778-1.324-.49-1.701-.936-1.701-1.63 0-1.14 1.11-1.572 2.9-1.572h.129c1.022 0 2.276.149 3.791.418.274.061.433-.011.433-.303V10.62c0-.274-.073-.346-.347-.405-.981-.2-2.769-.432-3.778-.432h-.244c-2.092 0-3.649.389-4.672 1.282-.839.737-1.4 1.846-1.4 3.158v.101c0 1.226.434 2.217 1.154 2.882.722.664 1.629 1.053 2.857 1.515zm16.451 6.99c.23 0 .36-.13.36-.334V23.16c0-.203-.13-.332-.36-.332h-.361c-1.066 0-1.715-.26-2.12-.68-.534-.561-.634-1.455-.634-2.52v-6.758h2.94c.218 0 .332-.088.332-.305v-2.162c0-.215-.114-.303-.333-.303h-2.939V7.303c0-.215-.115-.303-.332-.303h-2.667c-.216 0-.333.088-.333.303v12.512c0 2.175.434 3.561 1.385 4.508.893.897 2.307 1.388 4.34 1.388h.722zM72.085 9.812h-.808c-2.323 0-3.866.62-4.616 1.527h-.014c-.75-.907-2.378-1.527-4.7-1.527h-.836c-2.624 0-4.758.907-5.624 2.782-.374.807-.487 1.875-.487 3.042v9.726c0 .219.127.363.344.363h2.638c.215 0 .346-.144.346-.363v-8.098c0-1.153.03-2.003.088-2.521.159-1.357 1.166-2.02 3.086-2.02h.215c1.916 0 2.982.663 3.129 2.02.057.518.086 1.368.086 2.521v8.098c0 .219.13.363.346.363h2.638c.217 0 .348-.174.348-.389v-8.072c0-1.153.027-2.003.086-2.521.145-1.357 1.21-2.02 3.127-2.02h.217c1.918 0 2.927.663 3.086 2.02.056.518.088 1.368.088 2.521v8.098c0 .219.127.363.344.363h2.638c.217 0 .348-.174.348-.389v-9.7c0-1.167-.131-2.235-.491-3.042-.853-1.875-2.998-2.782-5.622-2.782zm22.72 12.396c.317-1.069.507-2.279.507-4.31 0-2.016-.174-3.243-.506-4.309-.806-2.71-2.955-3.792-6.43-3.792h-.418c-3.473 0-5.607 1.083-6.43 3.792-.317 1.066-.506 2.293-.506 4.309 0 2.021.174 3.241.506 4.31.823 2.712 2.957 3.793 6.43 3.793h.418c3.475 0 5.624-1.081 6.43-3.793zm-2.997-2.035c-.26 2.54-1.527 2.93-3.59 2.93h-.086c-2.048 0-3.33-.39-3.593-2.93a18.926 18.926 0 0 1-.142-2.275c0-.88.058-1.511.142-2.278.262-2.535 1.53-2.922 3.593-2.922h.086c2.047 0 3.33.387 3.59 2.922.086.767.145 1.398.145 2.278 0 .895-.073 1.517-.145 2.275zm24.784-10.06h-2.666c-.217 0-.332.088-.332.305v14.99c0 .216.1.304.332.304h2.666c.23 0 .332-.088.332-.303v-14.99c0-.218-.115-.306-.332-.306z"/></g></svg>