<?xml version="1.0" encoding="UTF-8"?>
<svg width="79px" height="70px" viewBox="0 0 79 70" version="1.1" xmlns="http://www.w3.org/2000/svg" xmlns:xlink="http://www.w3.org/1999/xlink">
    <!-- Generator: Sketch 50.2 (55047) - http://www.bohemiancoding.com/sketch -->
    <title>nh-hoteles</title>
    <desc>Created with Sketch.</desc>
    <defs>
        <polygon id="path-1" points="0.000272093023 0.921845098 38.1939698 0.921845098 38.1939698 45.7207706 0.000272093023 45.7207706"></polygon>
        <polygon id="path-3" points="68.9307767 55.2148472 78.7654884 55.2148472 78.7654884 69.4044471 68.9307767 69.4044471"></polygon>
    </defs>
    <g id="06-Empresas" stroke="none" stroke-width="1" fill="none" fill-rule="evenodd">
        <g id="06-E-Empresas" transform="translate(-559.000000, -2089.000000)">
            <g id="nh-hoteles" transform="translate(559.000000, 2089.000000)">
                <g id="Group-15">
                    <g id="Group-3" transform="translate(0.000000, 0.286884)"></g>
                    <mask id="mask-2" fill="white">
                        <use xlink:href="#path-1"></use>
                    </mask>
                    <g id="Clip-2"></g>
                    <path d="M21.5863186,1.71494706 C24.6600628,0.566672549 28.1065744,0.714123529 31.165807,1.84120196 C33.9611093,2.96735882 36.3691326,5.26114314 37.3386907,8.19449608 C38.0851326,10.5398882 38.2266209,13.0299667 38.1876209,15.4813392 C38.1921558,25.5586922 38.1812721,35.6378882 38.1939698,45.7161627 C35.5836907,45.6968098 32.9734116,45.7115549 30.3631326,45.7097118 C30.3676674,35.4950451 30.3631326,25.2831431 30.3658535,15.0684765 C30.3531558,13.0613 30.2452256,11.0071235 29.5350628,9.11145686 C29.1042488,7.65169216 28.0476209,6.37992745 26.6599465,5.77906471 C25.0455279,5.16345686 23.2252256,5.32933922 21.6416442,5.96153529 C19.9374349,6.73473137 18.3130395,7.76596667 17.0786442,9.20453529 C14.9626674,11.5849471 13.3645744,14.4676137 12.5192721,17.5613196 C12.3977372,17.9529863 12.3560163,18.3676922 12.3542023,18.7787118 C12.3542023,27.7584765 12.3542023,36.7410059 12.3560163,45.7207706 C9.7384814,45.685751 7.12003953,45.7180059 4.50159767,45.7069471 C4.50159767,32.0631235 4.49796977,18.4174569 4.5043186,4.77363333 C3.00145814,4.79206471 1.5013186,4.7717902 0.00208604651,4.78653529 C0.0165976744,3.98108431 0.0165976744,3.1765549 0.000272093023,2.37202549 C4.1261093,2.38677059 8.25466744,2.3453 12.3814116,2.39506471 C12.3215512,5.15239804 12.3705279,7.91341765 12.3560163,10.6725941 C12.8049698,10.3491235 12.9546209,9.7565549 13.2375977,9.29577059 C14.9526907,5.83343725 17.945714,2.96551569 21.5863186,1.71494706" id="Fill-1" fill="#000000" mask="url(#mask-2)"></path>
                    <g id="Group-10" mask="url(#mask-2)">
                        <g transform="translate(68.930233, 54.659433)"></g>
                    </g>
                    <mask id="mask-4" fill="white">
                        <use xlink:href="#path-3"></use>
                    </mask>
                    <g id="Clip-9"></g>
                    <path d="M70.3057535,56.6306686 C71.0331488,55.6501196 72.2820558,55.2013157 73.4593116,55.2225118 C74.7363349,55.158002 76.0768465,55.4971392 77.0491256,56.3753941 C77.6014744,56.8131392 77.9896605,57.4103157 78.3932651,57.9826098 C77.9116605,58.2941 77.4364047,58.6120412 76.9647767,58.9382765 C76.4214977,58.1383549 75.7612186,57.3522569 74.8451721,56.9974529 C73.9590558,56.7550804 72.938707,56.7292765 72.1287767,57.2241588 C71.3895907,57.6821784 71.1936837,58.8221588 71.7487535,59.4912176 C73.4593116,60.9906098 75.9408,61.0929039 77.618707,62.6411392 C79.1605674,63.9774137 79.1242884,66.6720804 77.6531721,68.0498255 C76.4115209,69.3243549 74.4896372,69.5962176 72.818986,69.2893353 C71.0594512,68.997198 69.5058,67.6701392 68.9307767,65.9569431 C69.3915209,65.6767863 69.8404744,65.378198 70.2858,65.0694725 C70.6939395,66.0463353 71.3732651,66.9503941 72.3446372,67.3964333 C73.5871953,67.935551 75.122707,67.8710412 76.2283116,67.0397863 C76.9892651,66.4214137 77.1724744,65.2556294 76.7498233,64.3856686 C76.2791023,63.5230804 75.2959395,63.2079039 74.4588,62.840198 C72.938707,62.2743549 71.2734977,61.7416882 70.2223116,60.4063353 C69.4495674,59.3050608 69.4568233,57.6867863 70.3057535,56.6306686" id="Fill-8" fill="#000000" mask="url(#mask-4)"></path>
                </g>
                <path d="M44,2.00471202 C46.6547163,2.00288403 49.3075954,1.99283007 51.9641489,2.009282 C51.9292426,9.36329418 51.9678232,16.7173064 51.9430214,24.0713185 C58.3235263,24.0649206 64.7012755,24.0667486 71.0817805,24.0713185 C71.0652459,16.7145644 71.0964779,9.3587242 71.0652459,2.00471202 C73.7107763,1.99922805 76.3544696,2.00288403 79,2.00105604 C78.9880584,16.332514 79.0101045,30.6658 78.9898955,45 C76.3507952,44.9552142 73.7107763,44.989946 71.071676,44.9817201 C71.0900478,39.1778452 71.0652459,33.3748843 71.0836177,27.5737514 C64.7058685,27.5710094 58.3281193,27.5975153 51.9494515,27.5582135 C51.9466957,33.3721423 51.9558816,39.1842432 51.9448585,44.996344 C49.3002467,44.9588702 46.6519605,44.9853761 44.0064301,44.9817201 C44.011023,30.6557461 44.0248018,16.330686 44,2.00471202" id="Fill-4" fill="#000000"></path>
                <path d="M21.8095145,56.7586705 C20.669131,56.9734367 19.7425694,57.8889232 19.2728482,58.9818648 C18.4785298,60.8437787 18.4690839,63.0651531 19.2342057,64.9388973 C19.6223482,65.825263 20.2749774,66.621536 21.1354173,67.0137574 C22.2826706,67.5224621 23.7029977,67.3686677 24.661332,66.4986825 C25.7647905,65.5267743 26.2765891,63.9742694 26.3444282,62.4900164 C26.4251481,60.9793727 26.1606615,59.3631659 25.2547093,58.1510108 C24.481859,57.0425987 23.083,56.4638219 21.8095145,56.7586705 M21.0658608,55.2025254 C22.4492628,54.8112141 23.9829412,54.9895792 25.2444046,55.7148702 C25.8008568,56.2754465 26.4114085,56.7996216 26.8270302,57.4976119 C27.895281,59.1875308 28.1425931,61.3151724 27.9304887,63.2990298 C27.7261127,64.9734783 27.0279713,66.621536 25.793987,67.7281281 C24.4062914,69.0221856 22.3273242,69.3434249 20.6210425,68.624504 C19.4798003,68.1594806 18.5446515,67.2194234 17.9547091,66.0937208 C16.8572617,63.9442385 16.7112789,61.2887816 17.4892815,58.9946052 C18.0328529,57.2373443 19.3827647,55.7394409 21.0658608,55.2025254" id="Fill-6" fill="#000000"></path>
                <path d="M5,55.0047272 C5.62140733,55.006618 6.24677899,55.0047272 6.86818632,55 C6.85530228,56.9617774 6.87314172,58.9235548 6.85728444,60.8843868 C9.27254708,60.8692599 11.6878097,60.8843868 14.1000991,60.8777688 C14.0733399,58.9188277 14.0961348,56.9589411 14.0891972,55.0028363 C14.7244797,55.0047272 15.3627354,55.0047272 16,55.0028363 C15.9930624,59.6704484 16.0029732,64.3342788 15.9930624,69 C15.35778,68.978255 14.7224975,68.9763641 14.086224,68.9829822 C14.0961348,66.8595354 14.0753221,64.7351432 14.0981169,62.6116964 C11.6848365,62.6249325 9.27056492,62.6268233 6.85530228,62.6098055 C6.87809713,64.737034 6.85332012,66.8661534 6.86818632,68.993382 C6.24677899,68.9801459 5.62140733,68.9801459 5,68.9896002 C5,64.3286062 5.00198216,59.6657212 5,55.0047272" id="Fill-11" fill="#000000"></path>
                <path d="M29,55 C32.3336503,55.0018924 35.6663497,55.0018924 39,55 C38.9914424,55.5790754 38.9914424,56.1609895 38.9952458,56.7438497 C37.6345916,56.7145174 36.2739374,56.7353339 34.9151849,56.7287105 C34.9303984,60.8163017 34.902824,64.9020005 34.9284967,68.9895918 C34.3123514,68.9867532 33.6962061,68.9867532 33.0800609,69 C33.0667491,64.9105164 33.0762575,60.8181941 33.0762575,56.7287105 C31.7165542,56.7306029 30.3587525,56.7239795 29,56.7334415 L29,55 Z" id="Fill-13" fill="#000000"></path>
                <path d="M41,55 C43.6654201,55.0037853 46.3317752,55.0037853 48.9971953,55 C48.9869113,55.5810464 48.9869113,56.1630391 48.9934557,56.7459781 C46.9142223,56.7138029 44.8368587,56.7374611 42.7585602,56.7327295 C42.7585602,58.115317 42.7651046,59.4988509 42.7538857,60.8833311 C44.6115461,60.8700825 46.4673367,60.897526 48.3240622,60.8681898 C48.3240622,61.4710018 48.3240622,62.0738137 48.3203225,62.677572 C46.464532,62.6397188 44.6087414,62.6709477 42.7538857,62.6586454 C42.7622999,64.1831824 42.7651046,65.7077193 42.7520159,67.2350953 C44.8331191,67.225632 46.9123525,67.236988 48.9934557,67.225632 C48.9869113,67.8161417 48.9887811,68.405705 49,68.997161 C46.3317752,68.9933757 43.6654201,68.9867514 41,69 C41.010284,64.3317561 41.0084142,59.6672976 41,55" id="Fill-15" fill="#000000"></path>
                <path d="M51,68.9914899 C51.0112875,64.3270296 51.0052096,59.6644604 51.0017365,55 C51.5565616,55.0066189 52.1113868,55.0066189 52.6662119,55 C52.6644753,59.077266 52.6644753,63.1526408 52.6644753,67.2299068 C54.4418258,67.2081589 56.2183081,67.248818 57.9956586,67.2081589 C57.9973952,67.8038633 57.9973952,68.4014589 58,69 C55.6652195,68.9706876 53.3330439,68.984871 51,68.9914899" id="Fill-17" fill="#000000"></path>
                <path d="M60,55.0037853 C62.665733,55 65.3323996,55.0066243 67.9981326,55 C67.9953315,55.5782074 67.9953315,56.1583074 68,56.7374611 C65.9318394,56.7242125 63.8636788,56.7327295 61.7964519,56.7308368 L61.7964519,60.8899554 C63.6582633,60.8634582 65.519141,60.8994187 67.3781513,60.8700825 C67.3734827,61.4681628 67.3734827,62.0671894 67.3734827,62.6671624 C65.5144725,62.6501284 63.6554622,62.6728403 61.7945845,62.6548601 C61.7964519,64.1831824 61.8029879,65.709612 61.7927171,67.2388806 C63.859944,67.217115 65.9290383,67.2455049 67.9953315,67.2218467 C67.9981326,67.8133027 67.9981326,68.4075977 67.9981326,69 C65.3323996,68.9867514 62.665733,68.9933757 60.0028011,68.997161 C60.0028011,64.3317561 60.0046685,59.6672976 60,55.0037853" id="Fill-19" fill="#000000"></path>
            </g>
        </g>
    </g>
</svg>