<?xml version="1.0" encoding="UTF-8"?>
<svg width="167px" height="44px" viewBox="0 0 167 44" version="1.1" xmlns="http://www.w3.org/2000/svg" xmlns:xlink="http://www.w3.org/1999/xlink">
    <!-- Generator: Sketch 50.2 (55047) - http://www.bohemiancoding.com/sketch -->
    <title>Group</title>
    <desc>Created with Sketch.</desc>
    <defs>
        <polygon id="path-1" points="0 0.0255588235 166.803304 0.0255588235 166.803304 44 0 44"></polygon>
    </defs>
    <g id="00-Home" stroke="none" stroke-width="1" fill="none" fill-rule="evenodd">
        <g id="00-E-Home-2560" transform="translate(-1738.000000, -4025.000000)">
            <g id="Group-49" transform="translate(-1360.000000, -250.000000)">
                <g id="Group-28">
                    <g id="Módulo-5" transform="translate(2031.000000, 4101.000000)">
                        <g id="Group-10" transform="translate(0.000000, 174.000000)">
                            <g id="Group-8">
                                <g id="Group" transform="translate(1067.000000, 0.000000)">
                                    <g id="Group-3">
                                        <mask id="mask-2" fill="white">
                                            <use xlink:href="#path-1"></use>
                                        </mask>
                                        <g id="Clip-2"></g>
                                    </g>
                                    <g id="Group-6" fill="#FF3D15">
                                        <path d="M7.76661471,44.0000647 C7.42205588,43.9055941 7.07523235,43.8175941 6.73261471,43.7156824 C4.00785,42.9091235 2.42158529,40.8181529 2.41026176,37.9698 C2.39602647,34.5060941 2.36043824,31.0410941 2.42546765,27.5786824 C2.45976176,25.7478294 1.86317353,24.2401824 0.634408824,22.9282706 C-0.0886794118,22.1566529 -0.0763852941,22.0379176 0.646379412,21.2624176 C1.82499706,19.9970941 2.45135,18.5476824 2.42287941,16.7715059 C2.36755588,13.2718882 2.39473235,9.77097647 2.41026176,6.27071176 C2.42579118,2.70185882 5.09943824,0.137564706 8.64176176,0.263741176 C9.87764412,0.308064706 10.6845265,1.06512353 10.7120265,2.20653529 C10.7372618,3.24571176 10.1539382,3.95294706 9.10311471,4.1558 C8.79996765,4.21403529 8.49099706,4.25059412 8.19367353,4.33082941 C7.04320294,4.64141765 6.56535,5.26777059 6.56437941,6.46256471 C6.56146765,10.0540647 6.54140882,13.6458882 6.57343824,17.2367412 C6.58735,18.8285059 6.14282059,20.2523588 5.25699706,21.5474471 C4.99137941,21.9353588 4.98102647,22.2498294 5.24696765,22.6380647 C6.15737941,23.9658294 6.59317353,25.4252706 6.57505588,27.0552118 C6.53655588,30.5732706 6.56276176,34.0923 6.56373235,37.6106824 C6.56405588,39.0173882 7.15643824,39.7200941 8.54308529,39.9650059 C8.72232059,39.9967118 8.90285,40.0209765 9.08046765,40.0585059 C10.1270853,40.2814176 10.6835559,40.8815647 10.71235,41.8146235 C10.7456735,42.8858294 10.2383794,43.5736529 9.20535,43.8651529 C9.08726176,43.8984765 8.97532059,43.9544471 8.86046765,44.0000647 L7.76661471,44.0000647 Z" id="Fill-4"></path>
                                    </g>
                                    <path d="M128.190466,13.6480588 C128.367047,13.5224133 128.51275,13.4260851 128.650734,13.3191253 C131.013509,11.4876001 135.011186,11.3870836 137.082554,14.1429089 C137.275539,14.3993547 137.446652,14.5259667 137.715544,14.1983218 C139.322141,12.2417954 141.48775,11.8155671 143.843127,12.076201 C147.203633,12.4483051 148.552917,14.871653 148.880348,17.398739 C148.963975,18.0433972 148.986168,18.6993313 148.990349,19.3504329 C149.003215,21.5279665 149.002893,23.7058224 148.991314,25.8836782 C148.985203,26.9900032 148.149258,27.9075378 147.111644,27.9893685 C145.9309,28.0821528 145.095276,27.4426493 144.868197,26.257071 C144.820595,26.0099681 144.802904,25.7535224 144.802261,25.5012648 C144.797436,23.4323017 144.803869,21.3636609 144.795185,19.2946978 C144.793577,18.9531997 144.763021,18.6059026 144.696441,18.2708478 C144.365473,16.6023396 143.340724,15.7398958 141.730589,15.7524604 C140.093436,15.7650249 138.96126,16.7167093 138.676607,18.3504233 C138.599092,18.7943709 138.563068,19.2505608 138.560173,19.701596 C138.548272,21.6974269 138.556635,23.6939022 138.554705,25.6900553 C138.553419,27.0083668 137.65797,27.9996778 136.473366,28 C135.297446,28 134.395243,27.004823 134.387524,25.6839341 C134.374015,23.4342348 134.380126,21.1842133 134.353752,18.9345139 C134.336383,17.454474 133.558977,16.2872593 132.389168,15.901302 C130.289495,15.2096072 128.336169,16.4773384 128.236139,18.7128623 C128.138682,20.8862078 128.200115,23.0663189 128.185319,25.2438525 C128.18339,25.5692423 128.166986,25.8972093 128.120348,26.2190552 C127.965639,27.284787 127.073085,28.0244848 125.995587,27.9990335 C125.015547,27.9758374 124.116882,27.1127493 124.017173,26.0969535 C124.004951,25.9706636 124.001734,25.8434072 124.001734,25.7161509 C124.001091,21.9055475 123.997231,18.0946219 124.003664,14.2836963 C124.005594,13.0955407 124.546916,12.3593867 125.56877,12.0977863 C126.5234,11.8539051 127.430428,12.2537156 127.906778,13.1290461 C127.99137,13.2846533 128.076605,13.4399383 128.190466,13.6480588" id="Fill-7" fill="#FF3D15"></path>
                                    <path d="M117.676162,19.4758631 C117.6685,19.3400336 117.671373,19.1249175 117.641363,18.9145397 C117.424274,17.4027258 116.751936,16.1831031 115.214753,15.6802181 C113.703429,15.1861778 112.287879,15.4202467 111.159334,16.6161782 C110.233832,17.5969935 110.070376,18.8219861 110.155296,20.1016264 C110.322902,22.6236329 112.770903,24.2415834 115.177401,23.4228158 C116.702133,22.9044525 117.663072,21.4166456 117.676162,19.4758631 M117.80418,13.4466124 C117.852068,13.3755389 117.920387,13.3098353 117.944969,13.2308646 C118.254641,12.2364663 119.328594,11.9297443 120.166941,12.0245091 C121.074885,12.1268551 121.788087,12.8502261 121.93143,13.786818 C121.969101,14.0322587 121.992087,14.2821218 121.992087,14.5297738 C121.995599,18.4277647 122.009965,22.3254397 121.988256,26.2231148 C121.977402,28.2071732 121.55727,30.0759345 120.124481,31.5845896 C118.902077,32.8714952 117.350528,33.5209498 115.622434,33.7872388 C113.505813,34.1129137 111.397494,34.1157567 109.339296,33.4328186 C108.953963,33.3048861 108.573099,33.111566 108.247146,32.8730747 C107.512554,32.3354425 107.276948,31.3255659 107.644723,30.5225924 C107.993662,29.7613155 108.850845,29.3168687 109.746658,29.4767053 C110.768254,29.6589695 111.776123,29.972325 112.803147,30.0506639 C113.665438,30.1163675 114.567316,30.0149692 115.41588,29.8285984 C116.82696,29.5193494 117.589964,28.5906546 117.730434,27.1631813 C117.785345,26.6037533 117.739373,26.0351646 117.739373,25.3515948 C117.492593,25.4833178 117.319561,25.5468102 117.17973,25.6535785 C113.121757,28.7621789 107.099765,26.4597108 106.192141,21.4577103 C105.819897,19.4051054 105.950469,17.4131499 106.921305,15.5368074 C108.080179,13.2962523 110.003015,12.1676039 112.50433,12.0210344 C114.35725,11.9123708 116.128124,12.2026669 117.630828,13.4112336 C117.666584,13.4402948 117.731711,13.4330295 117.80418,13.4466124" id="Fill-9" fill="#FF3D15"></path>
                                    <path d="M93.9798617,19.9623432 C93.7214028,19.1053049 93.5849133,18.2315627 93.207389,17.47796 C91.9563964,14.9791214 88.4970484,14.7902389 87.0014717,17.1544826 C85.8534109,18.9687827 85.8498615,20.9173563 86.9617833,22.7486815 C88.4373544,25.1784559 91.9670445,25.0133443 93.2277173,22.4672851 C93.6013694,21.7123975 93.7259202,20.8351218 93.9798617,19.9623432 M93.7452804,13.359486 C93.7736754,13.0681315 93.8104598,12.8631876 93.8111051,12.6582436 C93.8156225,10.8853821 93.8056197,9.11284174 93.8165905,7.3399802 C93.8246573,6.11031649 94.4190159,5.28411611 95.4234885,5.05700737 C96.7590207,4.75473111 97.979037,5.68854312 97.9912985,7.05312291 C98.0077547,8.91624974 97.9958159,10.7796978 97.9958159,12.6428246 C97.9958159,17.0205302 97.9961386,21.3982358 97.9954932,25.7759414 C97.9954932,26.8719739 97.4411457,27.658342 96.5012072,27.9002272 C95.4860865,28.161065 94.5161397,27.7203391 94.00987,26.7296696 C93.8462762,26.4097257 93.7117227,26.3364856 93.3951831,26.5539575 C89.0162249,29.563871 83.7925158,27.6994592 82.3879321,22.5890308 C81.6732175,19.9883628 81.9152202,17.4451946 83.3717538,15.1272079 C84.9618729,12.5968889 87.3809319,11.7684399 90.2646362,12.0472665 C91.4046302,12.157448 92.4633114,12.5011627 93.3874391,13.2001565 C93.4558452,13.2515531 93.5468382,13.2727542 93.7452804,13.359486" id="Fill-11" fill="#FF3D15"></path>
                                    <path d="M29.9002394,19.9525581 C29.7246563,19.1902047 29.6394468,18.4975287 29.4025386,17.8581354 C28.8515818,16.3737847 27.5721484,15.5247285 25.992868,15.49856 C24.4568379,15.4730221 23.2051622,16.2940181 22.5873934,17.7771078 C21.9844717,19.2248857 21.9967367,20.6900043 22.6545281,22.1128749 C23.2839164,23.4733196 24.3893804,24.2586887 25.9354162,24.2634179 C27.4643455,24.2681472 28.6401719,23.5644363 29.2618138,22.1879122 C29.5842543,21.4747428 29.7014173,20.6732943 29.9002394,19.9525581 M18.0028647,23.0448505 C18.0028647,20.0960117 17.9944729,17.1474883 18.0064151,14.1986496 C18.0128704,12.64872 19.474665,11.6022969 20.8706159,12.1966047 C21.3140925,12.3857743 21.6749418,12.8303228 21.9851172,13.2244262 C22.2113742,13.511964 22.3307966,13.6018195 22.66292,13.3735549 C26.8078451,10.5208774 32.1014845,12.2889825 33.5300345,17.0374547 C34.4192471,19.9922837 34.0968067,22.8140635 32.1311787,25.3120481 C30.9376004,26.8291882 29.2944129,27.5817679 27.3320126,27.6902252 C25.668491,27.7822877 24.1108357,27.527224 22.7400604,26.5287238 C22.6222518,26.442967 22.4498962,26.4290945 22.3027162,26.3821174 C22.2610798,26.5274627 22.1836166,26.672808 22.1826483,26.8184686 C22.1742565,28.5238325 22.1874898,30.2291964 22.1729654,31.9342451 C22.1645736,32.930223 21.4770879,33.7628845 20.5520486,33.9536305 C19.604093,34.1491057 18.61321,33.7152768 18.2294445,32.8649595 C18.0741954,32.5213014 18.0144842,32.1111186 18.0122249,31.7308877 C17.9951184,28.8356471 18.0028647,25.9400911 18.0028647,23.0448505" id="Fill-13" fill="#FF3D15"></path>
                                    <path d="M46.8974798,19.9507889 C46.8841856,19.6982141 46.877855,19.4449965 46.8556979,19.1933857 C46.7021812,17.4439996 45.5019022,16.0095288 43.9221046,15.6827239 C42.0729406,15.2993629 40.3779264,16.081188 39.5609643,17.7209965 C39.0725597,18.700447 38.9715868,19.7454514 39.1048456,20.8315875 C39.3055252,22.4627197 40.3285478,23.7683324 41.7947114,24.209535 C43.3802065,24.6864066 44.9508248,24.2313863 45.9412449,22.9839365 C46.6410911,22.1024952 46.9126732,21.07163 46.8974798,19.9507889 M46.8053698,26.2844406 C46.688887,26.3516011 46.6018415,26.3818072 46.5407513,26.4396488 C43.5261265,29.3101973 36.788801,28.367701 35.3204217,22.3788494 C34.7266128,19.9575371 34.9101997,17.5898889 36.2766566,15.4381826 C37.6665366,13.249522 39.756896,12.2212274 42.244816,12.0342064 C44.5947293,11.8571469 46.7923921,12.3455868 48.6000908,14.0130307 C50.278962,15.5622206 50.9158189,17.5802487 50.9715281,19.8058637 C51.0215397,21.7959349 50.9936851,23.7885769 50.9778586,25.7802549 C50.9699454,26.7985879 50.4068398,27.5942307 49.5632893,27.8699422 C48.7523413,28.1350494 47.8473841,27.885688 47.343153,27.2189032 C47.132661,26.940621 46.9899063,26.6102814 46.8053698,26.2844406" id="Fill-15" fill="#FF3D15"></path>
                                    <path d="M155.043776,20.021383 C155.10555,20.4673946 155.133428,20.921767 155.235436,21.3581316 C155.637764,23.0833316 156.836196,24.1522159 158.589967,24.3843864 C160.118815,24.5866512 161.629288,23.7959211 162.373437,22.3729929 C162.927193,21.3140771 163.034586,20.1802365 162.862567,19.0026629 C162.497937,16.5050622 160.235395,15.0412951 157.852154,15.7728571 C156.1421,16.2982954 155.077989,17.9273472 155.043776,20.021383 M162.853063,26.2874121 C162.697834,26.3825956 162.583155,26.4314736 162.494769,26.5109003 C159.488078,29.2033698 153.533619,28.2656843 151.726943,23.5261275 C150.58395,20.5272059 150.710985,17.5819857 152.666554,14.9252099 C154.068684,13.0205763 156.077791,12.1896506 158.363459,12.027903 C159.987345,11.9127825 161.569097,12.1439882 163.038388,12.9064205 C165.295544,14.0775628 166.631781,15.9998825 166.85132,18.5068086 C167.070224,21.0060172 166.983106,23.5344882 166.981839,26.0500967 C166.981522,26.9655942 166.228186,27.7849436 165.40167,27.9428323 C164.403453,28.1335208 163.514212,27.6875092 163.09351,26.7861605 C163.020647,26.629558 162.943666,26.4748849 162.853063,26.2874121" id="Fill-17" fill="#FF3D15"></path>
                                    <path d="M75.9261382,19.8170259 C75.9080795,19.6510264 75.8925554,19.3248181 75.8345776,19.006009 C75.5741526,17.5673468 74.9135856,16.4146798 73.4970891,15.8829024 C72.0314858,15.3324661 70.6355826,15.5071516 69.4484629,16.5710282 C68.2378986,17.6561372 67.9629,19.1070242 68.0864593,20.6759768 C68.3006287,23.3918056 70.8475343,25.0820407 73.3640253,24.1725823 C74.9142192,23.6124949 75.92994,21.9492829 75.9261382,19.8170259 M75.8773481,26.4090715 C74.944317,26.8797251 74.131677,27.4568629 73.2303278,27.7148698 C69.8245267,28.6896343 65.449894,27.1473832 64.2855852,22.2603711 C63.8398213,20.388373 63.8879778,18.5067237 64.6286999,16.7141866 C65.8788665,13.6891998 68.2629273,12.270805 71.3902447,12.0308134 C73.0335834,11.9047053 74.6360524,12.1565999 76.1067248,12.9547486 C78.684045,14.3535195 79.8458192,16.6566015 79.9560721,19.5271702 C80.0365441,21.62597 79.9833185,23.7308821 79.9757149,25.8332206 C79.9722299,26.8951669 79.3034256,27.7708464 78.3941559,27.9513226 C77.3591092,28.1572134 76.5106687,27.7042536 76.041777,26.7008574 C75.9834824,26.5757144 75.9061786,26.4595791 75.8773481,26.4090715" id="Fill-19" fill="#FF3D15"></path>
                                    <path d="M57.19567,13.8714667 C57.3744391,13.7002721 57.4859329,13.59388 57.5967951,13.4868431 C58.640036,12.4780527 59.876575,11.9664034 61.3171509,12.0038019 C62.2422653,12.0276595 62.9270204,12.6824544 62.991769,13.5755032 C63.0732574,14.7039042 62.5457937,15.5063585 61.5824619,15.6765858 C61.1462779,15.7533171 60.6927224,15.7365523 60.2606444,15.8287588 C58.6018186,16.1824319 57.4758259,17.4333449 57.2329399,19.2033225 C57.1520832,19.793315 57.1312373,20.3955587 57.1261838,20.992644 C57.1119707,22.626891 57.1258679,24.2617828 57.119551,25.8963522 C57.1151292,27.0814957 56.4259521,27.9013596 55.3792369,27.9884076 C54.1152192,28.0938325 53.2835954,27.4770808 53.0694515,26.2648557 C53.0287073,26.0343396 53.0040712,25.7967305 53.0040712,25.5626679 C52.9999652,21.8756984 52.9955434,18.1890512 53.0094406,14.5020816 C53.0110199,14.1103653 53.0792427,13.7031737 53.2008436,13.3314462 C53.4677339,12.5167407 54.1622803,12.0225011 54.969584,12.0009003 C55.8744842,11.977365 56.5892448,12.4161518 56.9388868,13.2157045 C57.0172168,13.3946367 57.0819653,13.5800168 57.19567,13.8714667" id="Fill-21" fill="#FF3D15"></path>
                                    <path d="M100.001147,20.0481587 C100.000835,18.0701169 99.9989607,16.0923975 100.001772,14.1143557 C100.003334,12.9112833 100.83179,12.017683 101.952641,12.0002752 C103.111604,11.9822226 103.989417,12.8542244 103.992229,14.0782506 C104.002538,18.0340118 104.00285,21.9900954 103.991604,25.946179 C103.98848,27.1457053 103.12535,28.0051348 101.986692,27.9999769 C100.849596,27.9951414 100.004584,27.1186265 100.002085,25.9274817 C99.9980235,23.9678148 100.001147,22.0081479 100.001147,20.0481587" id="Fill-23" fill="#FF3D15"></path>
                                    <path d="M103.99998,7.03787921 C103.995602,8.1777628 103.158331,8.99907225 101.999539,8.99999924 C100.827297,9.00092622 99.9937797,8.15829609 100.000035,6.9797881 C100.005665,5.85968021 100.884846,4.99202146 102.004856,5.00005534 C103.167401,5.00870721 104.004672,5.86369715 103.99998,7.03787921" id="Fill-25" fill="#FF3D15"></path>
                                    <path d="M118,19.9401943 C117.986113,21.8336849 116.966628,23.2852378 115.349,23.7909699 C112.795884,24.5897863 110.198737,23.0112611 110.020919,20.5507094 C109.930825,19.3022507 110.10424,18.107108 111.086129,17.1501925 C112.283431,15.9834029 113.785225,15.7550376 115.388628,16.2370394 C117.019465,16.7276705 117.732766,17.917574 117.963082,19.392549 C117.99492,19.5978004 117.991871,19.8076746 118,19.9401943" id="Fill-27" fill="#FFFFFF"></path>
                                    <path d="M94,20.4797291 C93.7410677,21.3534624 93.6140692,22.2316978 93.2330736,22.9874111 C91.9476246,25.5362555 88.348565,25.7015477 86.8439942,23.2691153 C85.7102197,21.4357869 85.7138388,19.4850816 86.8844627,17.6687969 C88.4094322,15.301967 91.9367673,15.4910561 93.2123458,17.9926281 C93.5972896,18.7470552 93.7364616,19.6217532 94,20.4797291" id="Fill-29" fill="#FFFFFF"></path>
                                    <path d="M30,20.573769 C29.7948308,21.3137901 29.6739276,22.1366832 29.3411938,22.868935 C28.6997071,24.2822912 27.4863446,25.0048315 25.9086069,24.9999757 C24.3132168,24.9951199 23.1724628,24.1887365 22.5229825,22.79189 C21.8441923,21.3309472 21.8315357,19.826626 22.4537046,18.3401095 C23.0911945,16.8173364 24.3828277,15.9743727 25.9678928,16.0005939 C27.5975889,16.0274626 28.9178658,16.8992372 29.4864109,18.4233052 C29.730882,19.0798069 29.8188116,19.791017 30,20.573769" id="Fill-31" fill="#FFFFFF"></path>
                                    <path d="M46.9993872,20.4590808 C47.0148768,21.604322 46.7379989,22.6576286 46.0245059,23.5582584 C45.0147728,24.8328645 43.4135279,25.2977904 41.797116,24.8105376 C40.3023626,24.3597302 39.2593913,23.025695 39.0547985,21.3590539 C38.9189412,20.2492732 39.0218829,19.1815196 39.5198114,18.180747 C40.352704,16.5052408 42.0807706,15.7063957 43.9659929,16.0981023 C45.5765962,16.4320215 46.8002803,17.8977201 46.9567906,19.6851894 C46.9793797,19.9422776 46.9858337,20.2010076 46.9993872,20.4590808" id="Fill-33" fill="#FFFFFF"></path>
                                    <path d="M155,20.521824 C155.034674,18.387816 156.113084,16.7276679 157.846118,16.1921997 C160.261386,15.4466733 162.554333,16.9383816 162.923863,19.4836579 C163.098194,20.6837097 162.989358,21.8391937 162.42816,22.9183228 C161.674011,24.3684126 160.143239,25.1742366 158.593846,24.9681108 C156.816507,24.7315086 155.601971,23.6422207 155.194236,21.8840892 C155.090857,21.439395 155.062605,20.9763493 155,20.521824" id="Fill-35" fill="#FFFFFF"></path>
                                    <path d="M75.9999892,20.3146093 C76.0038554,22.4848675 74.9709207,24.1777213 73.3944547,24.7477906 C70.8353153,25.6734575 68.2452459,23.9530989 68.0274468,21.1888684 C67.9017935,19.5919539 68.1814527,18.1152092 69.4125331,17.0107612 C70.6197716,15.9279242 72.039332,15.7501254 73.5297737,16.3103716 C74.9702763,16.8516264 75.6420383,18.0248363 75.9068768,19.4891385 C75.9658373,19.8136294 75.9816245,20.1456514 75.9999892,20.3146093" id="Fill-37" fill="#FFFFFF"></path>
                                </g>
                            </g>
                        </g>
                    </g>
                </g>
            </g>
        </g>
    </g>
</svg>