<?xml version="1.0" encoding="UTF-8"?>
<svg width="127px" height="18px" viewBox="0 0 127 18" version="1.1" xmlns="http://www.w3.org/2000/svg" xmlns:xlink="http://www.w3.org/1999/xlink">
    <!-- Generator: Sketch 50.2 (55047) - http://www.bohemiancoding.com/sketch -->
    <title>Group 6</title>
    <desc>Created with Sketch.</desc>
    <defs></defs>
    <g id="Copys" stroke="none" stroke-width="1" fill="none" fill-rule="evenodd">
        <g id="00-E-Home-1920-Copy" transform="translate(-1095.000000, -439.000000)" fill="#FFFFFF">
            <g id="Group-6" transform="translate(1095.000000, 439.000000)">
                <path d="M15.7756756,13.9343095 C15.0607142,13.9635591 13.7145256,13.9635591 13.2722371,13.5765644 C12.6646273,13.0545715 12.1149873,11.6078411 12.5637168,11.0813482 C12.9523295,10.6291044 15.1809479,10.3951075 15.7756756,10.3388583 L15.7756756,13.9343095 Z M14.1482259,4.01194408 C11.4644368,4.07494323 10.6635942,6.79740631 10.5605367,7.73114365 L10.6185065,7.81664249 L12.6667743,8.22838691 L12.7462145,8.17663761 C12.8299487,7.81664249 13.2529139,6.18991455 14.3199884,6.27316342 C15.7305879,6.37441205 15.7756756,7.97864029 15.7756756,7.97864029 L15.7756756,8.23963675 C14.7622768,8.26438642 9.96795602,8.59288196 10.0001615,12.2985817 C10.0280729,16.4385256 13.1434153,15.9907816 14.0752268,15.9817818 C14.5840733,15.9772818 15.2582411,15.963782 15.7756756,15.9547821 L15.7756756,15.9592821 L16.4476964,15.9457823 C16.5206955,15.9412823 16.5636361,15.9412823 16.5636361,15.9412823 L17.9227069,15.9187826 L18,15.8332838 L18,8.0888888 C18,6.11566555 16.969425,3.81394677 14.1482259,4.01194408 Z" id="Fill-2"></path>
                <path d="M59.7676808,13.9343095 C59.0593487,13.9635591 57.7135178,13.9635591 57.2692004,13.5765644 C56.661752,13.0545715 56.1122581,11.6078411 56.5651613,11.0813482 C56.9558172,10.6291044 59.1774041,10.3951075 59.7676808,10.3388583 L59.7676808,13.9343095 Z M58.14281,4.01194408 C55.4640269,4.07494323 54.6591041,6.79740631 54.5582205,7.73114365 L54.6204678,7.81664249 L56.666045,8.22838691 L56.745464,8.17663761 C56.829176,7.81664249 57.2520288,6.18991455 58.3145268,6.27316342 C59.726898,6.37441205 59.7676808,7.97864029 59.7676808,7.97864029 L59.7676808,8.23963675 C58.7631371,8.26438642 53.9700902,8.59288196 54.0001407,12.2985817 C54.0258982,16.4385256 57.1404128,15.9907816 58.0741232,15.9817818 C58.5828344,15.9772818 59.2568231,15.963782 59.7676808,15.9547821 L59.7676808,15.9592821 L60.4524018,15.9457823 C60.5189421,15.9412823 60.5597248,15.9412823 60.5597248,15.9412823 L61.9184345,15.9187826 L62,15.8332838 L62,8.0888888 C62,6.11566555 60.9675524,3.81394677 58.14281,4.01194408 Z" id="Fill-3"></path>
                <path d="M35.9870009,16.5442342 C35.5406995,16.8013513 35.001238,16.9697288 34.3556175,16.9879318 C31.5066543,17.1881646 30.4667286,14.8581831 30.4667286,12.8649567 L30.4667286,6.93078493 L29.088827,6.97629238 C29.084494,6.97174164 29.084494,6.96491552 29.084494,6.96491552 L29,6.88527748 L29,4.53709296 L29.088827,4.45517955 L30.4667286,4.45517955 L30.4667286,0.0659858053 L30.5512225,0 C31.2835036,0.179754435 32.2216032,0.416393185 32.8498917,0.580220012 L32.8498917,0.584770758 L32.9235531,0.693988642 L32.8607242,4.45517955 L35.4952027,4.45517955 L35.5623646,4.52344072 L35.5623646,6.67366783 L35.4930362,6.75330587 L35.4930362,6.76240736 L32.817394,6.85114689 L32.7134014,12.9741746 C32.7155679,12.9741746 32.7610647,14.601066 34.1822965,14.7034577 C34.5701021,14.7307622 34.9427422,14.6192689 35.2893841,14.4554421 L35.369545,14.485022 L36,16.5032775 L35.9870009,16.5442342" id="Fill-4"></path>
                <path d="M70.9826679,16.5442342 C70.538533,16.8013513 70.001238,16.9697288 69.3534509,16.9879318 C66.5044878,17.1881646 65.4688951,14.8581831 65.4688951,12.8649567 L65.4688951,6.93078493 L64.084494,6.97629238 C64.084494,6.97174164 64.084494,6.96491552 64.084494,6.96491552 L64,6.88527748 L64,4.53709296 L64.084494,4.45517955 L65.4688951,4.45517955 L65.4688951,0.0659858053 L65.549056,0 C66.281337,0.179754435 67.2237697,0.416393185 67.8477252,0.580220012 L67.8477252,0.584770758 L67.9278861,0.693988642 L67.8585577,4.45517955 L70.4908697,4.45517955 L70.5623646,4.52344072 L70.5623646,6.67366783 L70.4822037,6.75330587 L70.4822037,6.76240736 L67.817394,6.85114689 L67.7155679,12.9741746 C67.7155679,12.9741746 67.7588982,14.601066 69.184463,14.7034577 C69.5636026,14.7307622 69.9405757,14.6192689 70.2850511,14.4554421 L70.369545,14.485022 L71,16.5032775 L70.9826679,16.5442342" id="Fill-5"></path>
                <g id="Group-4">
                    <path d="M48.0039601,7.64731576 C48.2382811,7.18295837 48.6090998,6.75897987 49.1823901,6.75897987 C49.5896082,6.75897987 49.8921781,6.87787331 50.131049,7.05284857 L50.1196742,7.05733511 C50.1196742,7.05733511 50.1401489,7.0663082 50.1674484,7.08201111 C50.2880213,7.171742 50.3767448,7.27941908 50.4518186,7.38485289 C50.661115,7.68769467 50.8908861,8.26197241 50.9181856,9.28714792 C50.9181856,9.28714792 48.3679539,9.25574211 47.599017,9.24452574 C47.655891,8.68146436 47.7810139,8.13410588 48.0039601,7.64731576 Z M53.2249965,13.1724958 L53.1476478,13.067062 L53.1476478,13.0648187 L51.0114591,12.6565431 L50.9045359,12.7260846 C50.8112625,13.1074409 50.3630951,14.688948 49.248364,14.6059469 C48.4930768,14.5588382 48.0926836,13.8118284 47.8788372,13.0827649 L47.8788372,13.0020071 C47.8788372,13.0020071 47.7013903,12.293133 47.6081168,11.3195528 C47.9948603,11.3150662 52.8905772,10.9471695 52.8905772,10.9471695 C52.8905772,10.9471695 53.6162898,8.91476469 52.9360764,6.92049549 C52.7449796,6.36865047 52.5220334,6.0164567 52.3013622,5.79885927 C51.6165988,4.89930702 50.4950428,4.31381291 48.8479708,4.52468052 C46.0793428,4.76022413 45.3377054,7.38036634 45.2671816,8.37189276 L45.2580817,8.38086585 C45.2580817,8.38086585 44.6438422,11.4003106 45.5060525,14.0922375 C45.6311754,14.5588382 45.8222722,15.0097359 46.0929926,15.4067951 C46.1293919,15.4606337 46.1635164,15.5077424 46.1953658,15.5570944 C46.8391799,16.393835 47.8788372,16.9636262 49.425811,16.862679 C52.251313,16.7976241 53.1135234,14.1236433 53.2340963,13.1724958 L53.2249965,13.1724958 Z M42.4803539,8.31356768 C41.7159669,6.29013593 40.6672097,7.84472374 40.4670131,8.18570115 L40.6899593,16.2143732 L40.6012358,16.2973743 L40.6012358,16.3018609 L38.0601039,16.3467263 L38.0601039,16.3422398 L37.9668305,16.2480223 L37.9668305,5.30533933 L37.9713804,5.30309606 L38.0692038,5.19093244 L38.0692038,5.18644589 L40.2895661,4.86341466 L40.2895661,4.86565793 L40.3737396,4.95314556 L40.3760146,4.95314556 L40.3919393,5.48255785 C44.3549221,3.6632639 44.773515,7.31531144 44.8144643,7.8806161 L44.7553153,7.96810372 L42.5736273,8.36740622 L42.4803539,8.31356768 Z M5.53270608,7.49477324 L3.7286617,7.49477324 L3.7286617,2.15802809 C4.64319618,2.16251464 5.38710855,2.16251464 5.53270608,2.16251464 C5.9558489,2.16251464 7.40044938,2.73454911 7.40044938,4.77368376 C7.40044938,6.8060886 6.03319758,7.49477324 5.53270608,7.49477324 Z M6.76801011,0.0426221764 C6.05367224,0.0426221764 0.846285634,0.00448654489 0.0864485325,0 L0.00682488415,0.0785145356 C0.00682488415,0.0785145356 0.00227496138,0.0785145356 0,0.0830010804 L0.250245752,1.90902485 L0.34579413,2.00324229 L0.828085943,2.07951356 L0.828085943,16.3422398 L0.92135936,16.4319707 L3.64448813,16.4319707 L3.7286617,16.3422398 L3.7286617,9.8748853 L4.57494734,9.8748853 L6.8749333,16.3848619 L6.99550625,16.4723496 L9.86650751,16.4319707 L9.91200674,16.3489696 L7.38452465,9.74701877 C8.49015588,9.33874319 10.1713523,7.93669791 10.1713523,4.8521983 C10.1713523,1.09023041 7.53694706,0.0426221764 6.76801011,0.0426221764 Z M28.8192108,13.8432343 C28.6554136,16.9770859 24.6355568,17.0780331 24.2533633,16.9770859 C23.8688948,16.8671655 20.7044235,17.3360095 20.4655526,13.0109802 L20.558826,12.9324656 L20.561101,12.9279791 L22.6244909,13.0984678 L22.7291392,13.190442 C22.799663,13.5762848 23.1704817,15.1757381 24.7174554,15.0344119 C26.4805505,14.8728963 26.6488976,14.063075 26.098357,13.1612794 C25.5455414,12.2617272 21.2231147,10.8148165 20.9455694,8.91027815 C20.6725741,6.99901003 21.3914619,4.347462 24.6355568,4.347462 C27.7022047,4.347462 28.4097177,7.65628885 28.5280157,8.11840298 L28.5257408,8.11840298 L28.455217,8.21935024 C28.0843983,8.34048695 26.687572,8.56481419 26.2849038,8.62986909 L26.1893554,8.56930074 L26.1711557,8.56930074 C26.1415812,8.15653861 25.9049853,6.27218975 24.4171605,6.6266268 C22.8838365,6.99452348 22.9702851,8.38086585 24.1259655,8.89681851 C24.9358517,9.25574211 28.985283,10.7161125 28.8192108,13.8432343 Z M78.2677714,13.0984678 C78.2268221,13.2039016 78.1881477,13.313822 78.1289987,13.4237423 C78.0129757,13.6727455 77.8628283,13.8880997 77.699031,14.0810211 C77.4578851,14.3345109 77.1553153,14.5049996 76.7640219,14.4825669 C76.0087347,14.4264851 75.6106165,13.6817186 75.3967701,12.9548984 L75.3967701,12.8651675 C75.3967701,12.8651675 74.5823339,9.59896279 75.5173431,7.51720596 C75.7516641,7.05284857 76.1202078,6.6266268 76.7025979,6.63111335 C77.1462154,6.63559989 77.4715349,6.77692605 77.7104058,6.97433403 C77.8127791,7.04836202 78.2586715,7.42074525 78.408819,8.31356768 C78.5066423,8.7353029 78.5771661,9.30060755 78.5953658,10.0543471 C78.6181154,11.5079876 78.5157422,12.4277293 78.2677714,13.0984678 Z M78.8274119,4.79835976 C78.3200955,4.46859871 77.7650049,4.32951582 77.2190142,4.35419181 C76.9505687,4.347462 76.6616486,4.35867836 76.3659037,4.39457072 C73.5972757,4.63011433 72.8601882,7.25474309 72.7828395,8.23953969 L72.7782896,8.25299932 C72.7782896,8.25299932 72.1572251,11.272444 73.0285353,13.9621277 C73.1445583,14.4264851 73.3356551,14.8773829 73.6109254,15.2811719 C73.6404999,15.3327672 73.6814492,15.3821192 73.7155737,15.4292279 C74.3616627,16.270455 75.3967701,16.8312732 76.9482938,16.7348124 C77.8946777,16.7101364 78.6226654,16.393835 79.173206,15.9474238 C79.1777559,15.9563969 79.1868558,15.9563969 79.1868558,15.9563969 C79.1868558,15.9563969 79.9648926,15.5795271 80.5063334,14.0025066 C80.590507,13.7602332 80.6519309,13.5336627 80.6928802,13.338498 C80.8748771,12.5937315 81,11.6493138 81,10.4469198 C81,9.28714792 80.8566774,8.30459459 80.6178065,7.48580015 C80.3994102,6.41800246 79.8352198,5.36815096 78.8274119,4.79835976 Z" id="Fill-1"></path>
                    <path d="M87.6177645,8.60539168 C86.8399867,6.48857199 85.7664671,8.11545224 85.5522289,8.47177183 L85.7850965,16.8616917 L85.6942781,16.9484274 L85.6942781,16.9531158 L83.0908184,17 L83.0908184,16.9953116 L83,16.8968549 L83,5.45946474 L83.1001331,5.34225435 L83.1047904,5.33756593 L85.3752495,5 L85.3752495,5.00234421 L85.4660679,5.09376831 L85.4800399,5.64465716 C89.5365935,3.7458488 89.9650699,7.56221918 90,8.15295956 L89.9417831,8.24438367 L87.7178975,8.66165267 L87.6177645,8.60539168" id="Fill-6"></path>
                    <path d="M92.7439573,14.6710345 L92.3103443,17.5002262 L92.2154915,17.5770685 L90.0880776,17.4722836 L90,17.3721558 L90,14.9015612 L90.0880776,14.7991049 L92.6603965,14.5802209 L92.6603965,14.584878 L92.7439573,14.6710345 Z M101.994368,14.1610814 C101.874673,15.1483878 101.023256,17.9216943 98.2228384,17.9868938 C96.678092,18.0963358 95.6505195,17.5095404 95.011392,16.631676 C94.9752576,16.5851049 94.94364,16.5362053 94.909764,16.4803201 C94.6410143,16.0681662 94.4467918,15.6001271 94.3270965,15.111131 C93.4621289,12.3191961 94.0809308,9.18263533 94.0809308,9.18263533 L94.0899644,9.17332111 C94.1644916,8.14410074 94.8962136,5.42900808 97.6492045,5.17985292 C100.55125,4.79098459 101.791112,7.0194097 101.953717,9.03127939 L101.865639,9.13140716 L99.7043495,9.16866401 L99.6072383,9.07319334 C99.5462614,8.72158185 99.2504109,7.51306291 97.9744143,7.49909159 C97.4052972,7.49909159 97.0349194,7.93918809 96.8068209,8.42119853 C95.8763597,10.5867527 96.678092,13.9794543 96.678092,13.9794543 L96.678092,14.0632822 C96.8948986,14.8200619 97.2968939,15.6001271 98.0376495,15.6490267 C99.1352324,15.730526 99.5846543,14.1168389 99.6817655,13.7070136 L99.7879104,13.6255142 L101.917583,14.0469823 L101.994368,14.1610814 Z M109.033804,14.079582 C108.993153,14.189024 108.950244,14.3031231 108.891525,14.4172222 C108.778605,14.6756916 108.631809,14.8992327 108.464687,15.0994882 C108.225297,15.3626147 107.927188,15.5395847 107.538743,15.5162992 C106.793471,15.4580853 106.391475,14.6850058 106.179185,13.9305547 L106.179185,13.8443982 C106.179185,13.8443982 105.368419,10.4470395 106.307914,8.28614247 C106.531496,7.80413202 106.901874,7.36170697 107.475508,7.36636408 C107.918154,7.37102118 108.238847,7.51772001 108.478238,7.72263267 C108.579866,7.79947491 109.020254,8.18601469 109.173825,9.11277874 C109.26642,9.55054668 109.338689,10.137342 109.354497,10.9197358 C109.381598,12.428638 109.270937,13.3833447 109.033804,14.079582 Z M111.366733,8.25354273 C111.145409,7.14515155 110.580809,6.0553888 109.584854,5.46393637 C109.081231,5.1216391 108.530181,4.97726882 107.983648,5.0028829 C107.723932,4.99589724 107.441632,5.00754001 107.145781,5.04479685 C104.39279,5.28929491 103.661068,8.01370178 103.591058,9.03593649 L103.582024,9.04990781 C103.582024,9.04990781 102.963222,12.18414 103.823673,14.9760749 C103.947885,15.4580853 104.137591,15.9261245 104.406341,16.345264 C104.442475,16.3988207 104.476351,16.4500489 104.512485,16.4942914 C105.151613,17.3721558 106.179185,17.954294 107.714898,17.8541663 C108.654393,17.8285522 109.381598,17.5002262 109.923614,17.0368442 C109.937165,17.0461584 109.941682,17.0461584 109.941682,17.0461584 C109.941682,17.0461584 110.718572,16.6549615 111.251554,15.0179888 C111.339632,14.7665051 111.402867,14.5313213 111.436743,14.3287372 C111.617415,13.5556576 111.737111,12.5753369 111.737111,11.3225754 C111.737111,10.1233707 111.601607,9.10346453 111.366733,8.25354273 Z M126.999385,9.36426245 C126.958734,11.4436602 126.805163,16.5268911 126.787095,17.1812145 L126.726119,17.2557282 L124.481268,17.3185991 L124.399966,17.2370997 C124.445134,16.3708781 124.768085,9.08949321 124.431583,8.15807206 C124.106373,7.2219938 122.27481,7.6667474 121.450494,8.61679698 C121.477595,8.85896647 121.48437,9.10346453 121.48437,9.36426245 C121.450494,11.4506458 121.296922,16.5455195 121.278855,17.1812145 L121.211103,17.2557282 L118.966252,17.3185991 L118.891725,17.2370997 C118.932376,16.3638924 119.248553,9.08949321 118.923343,8.15807206 C118.577808,7.18939406 116.518146,7.72263267 115.734481,8.73089607 L115.962579,17.2999707 L115.874501,17.3954413 L113.351867,17.4350267 L113.26379,17.3488703 L113.26379,5.97388945 L113.356384,5.86211891 L113.356384,5.85979036 L115.556067,5.52447875 L115.646403,5.61296376 C115.646403,5.61296376 115.65092,5.61296376 115.657695,5.61529231 L115.671245,6.28358699 C116.00323,6.06703157 117.692514,5.02383988 118.957219,5.18218147 C119.636998,5.27532359 120.267092,5.75034838 120.732322,6.48151398 C120.983005,6.32317239 123.144295,5.01452567 124.472234,5.18218147 C125.838567,5.3638086 127.031003,7.13118024 126.999385,9.36426245 Z" id="Fill-7"></path>
                </g>
            </g>
        </g>
    </g>
</svg>