<?xml version="1.0" encoding="UTF-8"?>
<svg width="193px" height="31px" viewBox="0 0 193 31" version="1.1" xmlns="http://www.w3.org/2000/svg" xmlns:xlink="http://www.w3.org/1999/xlink">
    <!-- Generator: Sketch 51.3 (57544) - http://www.bohemiancoding.com/sketch -->
    <title>Group 2</title>
    <desc>Created with Sketch.</desc>
    <defs></defs>
    <g id="00-Home" stroke="none" stroke-width="1" fill="none" fill-rule="evenodd">
        <g id="00-E-Home-1920" transform="translate(-542.000000, -4198.000000)">
            <g id="Group-28" transform="translate(-1703.000000, -249.000000)">
                <g id="Módulo-5" transform="translate(2031.000000, 4101.000000)">
                    <g id="Group-10" transform="translate(0.000000, 155.000000)">
                        <g id="Group-8">
                            <g id="Group-2" transform="translate(214.000000, 191.000000)">
                                <path d="M114.00396,19.6473158 C114.238281,19.1829584 114.6091,18.7589799 115.18239,18.7589799 C115.589608,18.7589799 115.892178,18.8778733 116.131049,19.0528486 L116.119674,19.0573351 C116.119674,19.0573351 116.140149,19.0663082 116.167448,19.0820111 C116.288021,19.171742 116.376745,19.2794191 116.451819,19.3848529 C116.661115,19.6876947 116.890886,20.2619724 116.918186,21.2871479 C116.918186,21.2871479 114.367954,21.2557421 113.599017,21.2445257 C113.655891,20.6814644 113.781014,20.1341059 114.00396,19.6473158 Z M119.224996,25.1724958 L119.147648,25.067062 L119.147648,25.0648187 L117.011459,24.6565431 L116.904536,24.7260846 C116.811262,25.1074409 116.363095,26.688948 115.248364,26.6059469 C114.493077,26.5588382 114.092684,25.8118284 113.878837,25.0827649 L113.878837,25.0020071 C113.878837,25.0020071 113.70139,24.293133 113.608117,23.3195528 C113.99486,23.3150662 118.890577,22.9471695 118.890577,22.9471695 C118.890577,22.9471695 119.61629,20.9147647 118.936076,18.9204955 C118.74498,18.3686505 118.522033,18.0164567 118.301362,17.7988593 C117.616599,16.899307 116.495043,16.3138129 114.847971,16.5246805 C112.079343,16.7602241 111.337705,19.3803663 111.267182,20.3718928 L111.258082,20.3808659 C111.258082,20.3808659 110.643842,23.4003106 111.506053,26.0922375 C111.631175,26.5588382 111.822272,27.0097359 112.092993,27.4067951 C112.129392,27.4606337 112.163516,27.5077424 112.195366,27.5570944 C112.83918,28.393835 113.878837,28.9636262 115.425811,28.862679 C118.251313,28.7976241 119.113523,26.1236433 119.234096,25.1724958 L119.224996,25.1724958 Z M108.480354,20.3135677 C107.715967,18.2901359 106.66721,19.8447237 106.467013,20.1857011 L106.689959,28.2143732 L106.601236,28.2973743 L106.601236,28.3018609 L104.060104,28.3467263 L104.060104,28.3422398 L103.966831,28.2480223 L103.966831,17.3053393 L103.97138,17.3030961 L104.069204,17.1909324 L104.069204,17.1864459 L106.289566,16.8634147 L106.289566,16.8656579 L106.37374,16.9531456 L106.376015,16.9531456 L106.391939,17.4825579 C110.354922,15.6632639 110.773515,19.3153114 110.814464,19.8806161 L110.755315,19.9681037 L108.573627,20.3674062 L108.480354,20.3135677 Z M71.5327061,19.4947732 L69.7286617,19.4947732 L69.7286617,14.1580281 C70.6431962,14.1625146 71.3871086,14.1625146 71.5327061,14.1625146 C71.9558489,14.1625146 73.4004494,14.7345491 73.4004494,16.7736838 C73.4004494,18.8060886 72.0331976,19.4947732 71.5327061,19.4947732 Z M72.7680101,12.0426222 C72.0536722,12.0426222 66.8462856,12.0044865 66.0864485,12 L66.0068249,12.0785145 C66.0068249,12.0785145 66.002275,12.0785145 66,12.0830011 L66.2502458,13.9090249 L66.3457941,14.0032423 L66.8280859,14.0795136 L66.8280859,28.3422398 L66.9213594,28.4319707 L69.6444881,28.4319707 L69.7286617,28.3422398 L69.7286617,21.8748853 L70.5749473,21.8748853 L72.8749333,28.3848619 L72.9955062,28.4723496 L75.8665075,28.4319707 L75.9120067,28.3489696 L73.3845246,21.7470188 C74.4901559,21.3387432 76.1713523,19.9366979 76.1713523,16.8521983 C76.1713523,13.0902304 73.5369471,12.0426222 72.7680101,12.0426222 Z M94.8192108,25.8432343 C94.6554136,28.9770859 90.6355568,29.0780331 90.2533633,28.9770859 C89.8688948,28.8671655 86.7044235,29.3360095 86.4655526,25.0109802 L86.558826,24.9324656 L86.561101,24.9279791 L88.6244909,25.0984678 L88.7291392,25.190442 C88.799663,25.5762848 89.1704817,27.1757381 90.7174554,27.0344119 C92.4805505,26.8728963 92.6488976,26.063075 92.098357,25.1612794 C91.5455414,24.2617272 87.2231147,22.8148165 86.9455694,20.9102781 C86.6725741,18.99901 87.3914619,16.347462 90.6355568,16.347462 C93.7022047,16.347462 94.4097177,19.6562889 94.5280157,20.118403 L94.5257408,20.118403 L94.455217,20.2193502 C94.0843983,20.3404869 92.687572,20.5648142 92.2849038,20.6298691 L92.1893554,20.5693007 L92.1711557,20.5693007 C92.1415812,20.1565386 91.9049853,18.2721898 90.4171605,18.6266268 C88.8838365,18.9945235 88.9702851,20.3808659 90.1259655,20.8968185 C90.9358517,21.2557421 94.985283,22.7161125 94.8192108,25.8432343 Z M144.267771,25.0984678 C144.226822,25.2039016 144.188148,25.313822 144.128999,25.4237423 C144.012976,25.6727455 143.862828,25.8880997 143.699031,26.0810211 C143.457885,26.3345109 143.155315,26.5049996 142.764022,26.4825669 C142.008735,26.4264851 141.610616,25.6817186 141.39677,24.9548984 L141.39677,24.8651675 C141.39677,24.8651675 140.582334,21.5989628 141.517343,19.517206 C141.751664,19.0528486 142.120208,18.6266268 142.702598,18.6311133 C143.146215,18.6355999 143.471535,18.7769261 143.710406,18.974334 C143.812779,19.048362 144.258672,19.4207452 144.408819,20.3135677 C144.506642,20.7353029 144.577166,21.3006076 144.595366,22.0543471 C144.618115,23.5079876 144.515742,24.4277293 144.267771,25.0984678 Z M144.827412,16.7983598 C144.320095,16.4685987 143.765005,16.3295158 143.219014,16.3541918 C142.950569,16.347462 142.661649,16.3586784 142.365904,16.3945707 C139.597276,16.6301143 138.860188,19.2547431 138.782839,20.2395397 L138.77829,20.2529993 C138.77829,20.2529993 138.157225,23.272444 139.028535,25.9621277 C139.144558,26.4264851 139.335655,26.8773829 139.610925,27.2811719 C139.6405,27.3327672 139.681449,27.3821192 139.715574,27.4292279 C140.361663,28.270455 141.39677,28.8312732 142.948294,28.7348124 C143.894678,28.7101364 144.622665,28.393835 145.173206,27.9474238 C145.177756,27.9563969 145.186856,27.9563969 145.186856,27.9563969 C145.186856,27.9563969 145.964893,27.5795271 146.506333,26.0025066 C146.590507,25.7602332 146.651931,25.5336627 146.69288,25.338498 C146.874877,24.5937315 147,23.6493138 147,22.4469198 C147,21.2871479 146.856677,20.3045946 146.617806,19.4858001 C146.39941,18.4180025 145.83522,17.368151 144.827412,16.7983598 Z" id="Fill-1" fill="#268FA5"></path>
                                <path d="M81.7756756,26.9343095 C81.0607142,26.9635591 79.7145256,26.9635591 79.2722371,26.5765644 C78.6646273,26.0545715 78.1149873,24.6078411 78.5637168,24.0813482 C78.9523295,23.6291044 81.1809479,23.3951075 81.7756756,23.3388583 L81.7756756,26.9343095 Z M80.1482259,17.0119441 C77.4644368,17.0749432 76.6635942,19.7974063 76.5605367,20.7311436 L76.6185065,20.8166425 L78.6667743,21.2283869 L78.7462145,21.1766376 C78.8299487,20.8166425 79.2529139,19.1899145 80.3199884,19.2731634 C81.7305879,19.374412 81.7756756,20.9786403 81.7756756,20.9786403 L81.7756756,21.2396368 C80.7622768,21.2643864 75.967956,21.592882 76.0001615,25.2985817 C76.0280729,29.4385256 79.1434153,28.9907816 80.0752268,28.9817818 C80.5840733,28.9772818 81.2582411,28.963782 81.7756756,28.9547821 L81.7756756,28.9592821 L82.4476964,28.9457823 C82.5206955,28.9412823 82.5636361,28.9412823 82.5636361,28.9412823 L83.9227069,28.9187826 L84,28.8332838 L84,21.0888888 C84,19.1156656 82.969425,16.8139468 80.1482259,17.0119441 Z" id="Fill-2" fill="#268FA5"></path>
                                <path d="M125.767681,26.9343095 C125.059349,26.9635591 123.713518,26.9635591 123.2692,26.5765644 C122.661752,26.0545715 122.112258,24.6078411 122.565161,24.0813482 C122.955817,23.6291044 125.177404,23.3951075 125.767681,23.3388583 L125.767681,26.9343095 Z M124.14281,17.0119441 C121.464027,17.0749432 120.659104,19.7974063 120.55822,20.7311436 L120.620468,20.8166425 L122.666045,21.2283869 L122.745464,21.1766376 C122.829176,20.8166425 123.252029,19.1899145 124.314527,19.2731634 C125.726898,19.374412 125.767681,20.9786403 125.767681,20.9786403 L125.767681,21.2396368 C124.763137,21.2643864 119.97009,21.592882 120.000141,25.2985817 C120.025898,29.4385256 123.140413,28.9907816 124.074123,28.9817818 C124.582834,28.9772818 125.256823,28.963782 125.767681,28.9547821 L125.767681,28.9592821 L126.452402,28.9457823 C126.518942,28.9412823 126.559725,28.9412823 126.559725,28.9412823 L127.918434,28.9187826 L128,28.8332838 L128,21.0888888 C128,19.1156656 126.967552,16.8139468 124.14281,17.0119441 Z" id="Fill-3" fill="#268FA5"></path>
                                <path d="M101.987001,29.5442342 C101.540699,29.8013513 101.001238,29.9697288 100.355617,29.9879318 C97.5066543,30.1881646 96.4667286,27.8581831 96.4667286,25.8649567 L96.4667286,19.9307849 L95.088827,19.9762924 C95.084494,19.9717416 95.084494,19.9649155 95.084494,19.9649155 L95,19.8852775 L95,17.537093 L95.088827,17.4551795 L96.4667286,17.4551795 L96.4667286,13.0659858 L96.5512225,13 C97.2835036,13.1797544 98.2216032,13.4163932 98.8498917,13.58022 L98.8498917,13.5847708 L98.9235531,13.6939886 L98.8607242,17.4551795 L101.495203,17.4551795 L101.562365,17.5234407 L101.562365,19.6736678 L101.493036,19.7533059 L101.493036,19.7624074 L98.817394,19.8511469 L98.7134014,25.9741746 C98.7155679,25.9741746 98.7610647,27.601066 100.182297,27.7034577 C100.570102,27.7307622 100.942742,27.6192689 101.289384,27.4554421 L101.369545,27.485022 L102,29.5032775 L101.987001,29.5442342" id="Fill-4" fill="#268FA5"></path>
                                <path d="M136.982668,29.5442342 C136.538533,29.8013513 136.001238,29.9697288 135.353451,29.9879318 C132.504488,30.1881646 131.468895,27.8581831 131.468895,25.8649567 L131.468895,19.9307849 L130.084494,19.9762924 C130.084494,19.9717416 130.084494,19.9649155 130.084494,19.9649155 L130,19.8852775 L130,17.537093 L130.084494,17.4551795 L131.468895,17.4551795 L131.468895,13.0659858 L131.549056,13 C132.281337,13.1797544 133.22377,13.4163932 133.847725,13.58022 L133.847725,13.5847708 L133.927886,13.6939886 L133.858558,17.4551795 L136.49087,17.4551795 L136.562365,17.5234407 L136.562365,19.6736678 L136.482204,19.7533059 L136.482204,19.7624074 L133.817394,19.8511469 L133.715568,25.9741746 C133.715568,25.9741746 133.758898,27.601066 135.184463,27.7034577 C135.563603,27.7307622 135.940576,27.6192689 136.285051,27.4554421 L136.369545,27.485022 L137,29.5032775 L136.982668,29.5442342" id="Fill-5" fill="#268FA5"></path>
                                <path d="M153.617764,20.6053917 C152.839987,18.488572 151.766467,20.1154522 151.552229,20.4717718 L151.785096,28.8616917 L151.694278,28.9484274 L151.694278,28.9531158 L149.090818,29 L149.090818,28.9953116 L149,28.8968549 L149,17.4594647 L149.100133,17.3422543 L149.10479,17.3375659 L151.37525,17 L151.37525,17.0023442 L151.466068,17.0937683 L151.48004,17.6446572 C155.536593,15.7458488 155.96507,19.5622192 156,20.1529596 L155.941783,20.2443837 L153.717898,20.6616527 L153.617764,20.6053917" id="Fill-6" fill="#268FA5"></path>
                                <path d="M158.743957,26.6710345 L158.310344,29.5002262 L158.215491,29.5770685 L156.088078,29.4722836 L156,29.3721558 L156,26.9015612 L156.088078,26.7991049 L158.660396,26.5802209 L158.660396,26.584878 L158.743957,26.6710345 Z M167.994368,26.1610814 C167.874673,27.1483878 167.023256,29.9216943 164.222838,29.9868938 C162.678092,30.0963358 161.65052,29.5095404 161.011392,28.631676 C160.975258,28.5851049 160.94364,28.5362053 160.909764,28.4803201 C160.641014,28.0681662 160.446792,27.6001271 160.327097,27.111131 C159.462129,24.3191961 160.080931,21.1826353 160.080931,21.1826353 L160.089964,21.1733211 C160.164492,20.1441007 160.896214,17.4290081 163.649205,17.1798529 C166.55125,16.7909846 167.791112,19.0194097 167.953717,21.0312794 L167.865639,21.1314072 L165.70435,21.168664 L165.607238,21.0731933 C165.546261,20.7215819 165.250411,19.5130629 163.974414,19.4990916 C163.405297,19.4990916 163.034919,19.9391881 162.806821,20.4211985 C161.87636,22.5867527 162.678092,25.9794543 162.678092,25.9794543 L162.678092,26.0632822 C162.894899,26.8200619 163.296894,27.6001271 164.03765,27.6490267 C165.135232,27.730526 165.584654,26.1168389 165.681766,25.7070136 L165.78791,25.6255142 L167.917583,26.0469823 L167.994368,26.1610814 Z M175.033804,26.079582 C174.993153,26.189024 174.950244,26.3031231 174.891525,26.4172222 C174.778605,26.6756916 174.631809,26.8992327 174.464687,27.0994882 C174.225297,27.3626147 173.927188,27.5395847 173.538743,27.5162992 C172.793471,27.4580853 172.391475,26.6850058 172.179185,25.9305547 L172.179185,25.8443982 C172.179185,25.8443982 171.368419,22.4470395 172.307914,20.2861425 C172.531496,19.804132 172.901874,19.361707 173.475508,19.3663641 C173.918154,19.3710212 174.238847,19.51772 174.478238,19.7226327 C174.579866,19.7994749 175.020254,20.1860147 175.173825,21.1127787 C175.26642,21.5505467 175.338689,22.137342 175.354497,22.9197358 C175.381598,24.428638 175.270937,25.3833447 175.033804,26.079582 Z M177.366733,20.2535427 C177.145409,19.1451516 176.580809,18.0553888 175.584854,17.4639364 C175.081231,17.1216391 174.530181,16.9772688 173.983648,17.0028829 C173.723932,16.9958972 173.441632,17.00754 173.145781,17.0447969 C170.39279,17.2892949 169.661068,20.0137018 169.591058,21.0359365 L169.582024,21.0499078 C169.582024,21.0499078 168.963222,24.18414 169.823673,26.9760749 C169.947885,27.4580853 170.137591,27.9261245 170.406341,28.345264 C170.442475,28.3988207 170.476351,28.4500489 170.512485,28.4942914 C171.151613,29.3721558 172.179185,29.954294 173.714898,29.8541663 C174.654393,29.8285522 175.381598,29.5002262 175.923614,29.0368442 C175.937165,29.0461584 175.941682,29.0461584 175.941682,29.0461584 C175.941682,29.0461584 176.718572,28.6549615 177.251554,27.0179888 C177.339632,26.7665051 177.402867,26.5313213 177.436743,26.3287372 C177.617415,25.5556576 177.737111,24.5753369 177.737111,23.3225754 C177.737111,22.1233707 177.601607,21.1034645 177.366733,20.2535427 Z M192.999385,21.3642625 C192.958734,23.4436602 192.805163,28.5268911 192.787095,29.1812145 L192.726119,29.2557282 L190.481268,29.3185991 L190.399966,29.2370997 C190.445134,28.3708781 190.768085,21.0894932 190.431583,20.1580721 C190.106373,19.2219938 188.27481,19.6667474 187.450494,20.616797 C187.477595,20.8589665 187.48437,21.1034645 187.48437,21.3642625 C187.450494,23.4506458 187.296922,28.5455195 187.278855,29.1812145 L187.211103,29.2557282 L184.966252,29.3185991 L184.891725,29.2370997 C184.932376,28.3638924 185.248553,21.0894932 184.923343,20.1580721 C184.577808,19.1893941 182.518146,19.7226327 181.734481,20.7308961 L181.962579,29.2999707 L181.874501,29.3954413 L179.351867,29.4350267 L179.26379,29.3488703 L179.26379,17.9738895 L179.356384,17.8621189 L179.356384,17.8597904 L181.556067,17.5244787 L181.646403,17.6129638 C181.646403,17.6129638 181.65092,17.6129638 181.657695,17.6152923 L181.671245,18.283587 C182.00323,18.0670316 183.692514,17.0238399 184.957219,17.1821815 C185.636998,17.2753236 186.267092,17.7503484 186.732322,18.481514 C186.983005,18.3231724 189.144295,17.0145257 190.472234,17.1821815 C191.838567,17.3638086 193.031003,19.1311802 192.999385,21.3642625 Z" id="Fill-7" fill="#000105"></path>
                                <path d="M9.018,30.056 C9.014,30.064 9.006,30.07 9,30.078 C9.018,30.05 9.036,30.028 9.052,30 C9.05,30.004 9.048,30.008 9.046,30.012 C9.038,30.028 9.03,30.044 9.018,30.056" id="Fill-8" fill="#FFFFFE"></path>
                                <path d="M44.8436066,27.7064029 C44.5737146,27.3251897 44.1409954,27.1925023 43.6725879,27.1566977 C43.1841058,27.118787 42.8785257,26.908172 42.9387495,26.3984837 C42.9766682,26.1015165 43.1551092,25.5560236 43.2644042,25 C43.0547361,25.0610784 42.8584511,25.111626 42.7090068,25.1705982 C42.5394879,25.2316765 42.178145,25.3496209 41.7454258,25.4696715 C41.6785104,25.6339512 41.611595,25.7982309 41.5513712,25.9625106 C41.3283201,26.5669757 40.5900207,27.7274644 41.3037844,28.2750634 C41.7431952,28.6078351 42.3989657,28.4351308 42.8852173,28.6457458 C43.0837328,28.7278857 43.2443296,28.8479363 43.3714688,28.9869422 C43.411618,29.0311713 43.9982426,28.9490315 44.0896936,28.9469253 C44.3015922,28.9300761 44.5268739,28.7847518 44.6963928,28.6647012 C44.8949083,28.521483 44.9952814,28.3445664 44.9997424,28.1592252 C45.0042034,28.0117947 44.9506711,27.8601519 44.8436066,27.7064029" id="Fill-9" fill="#B0A69E"></path>
                                <path d="M3.01,2.284 C3.006,2.188 3.002,2.096 3,2 L3,2.27 C3.004,2.272 3.006,2.276 3.01,2.284" id="Fill-10" fill="#9D9983"></path>
                                <path d="M11.5791009,13 C11.7200536,12.8741794 11.8453448,12.7669989 11.9191772,12.6947686 C12.4807505,12.1332359 13.0400866,11.5856833 13.7359006,11.1942415 C14.0670275,11.0078406 14.5256831,10.7422194 15,10.5674685 C14.4429013,10.4929082 13.881328,10.3018473 13.3600268,10.1783567 C12.1563357,9.88943535 10.9772553,9.25567237 9.85187123,8.74073994 C7.31696037,7.57806446 5.26979052,5.68143553 3.45306712,3.58442566 C2.63643652,2.64077121 1.94957189,1.58760625 1.1486027,0.629971742 C1.07029566,0.536771303 0.976327203,0.45755093 0.900257504,0.36202048 C0.830899837,0.271150052 0.804051708,0.147659471 0.721269976,0.0637790757 C0.595978707,-0.0620415168 0.370006953,0.0264989002 0.231291619,0.0894091964 C-0.227363921,0.306100217 0.112712382,0.83967273 0.260377092,1.15888423 C0.461738061,1.59925631 0.687709815,2.0442884 0.983039236,2.4264102 C1.26494459,2.79222193 1.57369808,3.13473354 1.86007812,3.49355523 C2.11513535,3.81509674 2.31873366,4.15527835 2.5894523,4.46050978 C3.01454768,4.94282205 3.36133601,5.46474451 3.79314342,5.94472677 C4.2383749,6.4386891 4.71940388,6.89304124 5.19148348,7.35438341 C5.51589838,7.67592493 5.82465186,7.99979645 6.16025347,8.30502789 C6.42202273,8.53802899 6.68155465,8.76404005 6.95227328,8.9877211 C7.29682428,9.27431245 7.64584995,9.51430358 8.01053704,9.76594477 C8.22084739,9.91739548 8.41773367,10.0991363 8.63475605,10.236607 C9.59905135,10.8657099 11.397876,11.7091739 11.5791009,13" id="Fill-11" fill="#683D28"></path>
                                <path d="M6,5 C6.024,5.024 6.048,5.046 6.07,5.07" id="Fill-12" fill="#F3F2EE"></path>
                                <path d="M11.0707385,12.4066194 C11.1363016,12.643026 11.1249976,12.8321513 11.0729993,13 C11.3420339,12.7399527 11.6155901,12.5153664 11.7444554,12.3853428 C12.3119149,11.8156028 12.8748528,11.2600473 13.5802208,10.8628842 C13.9487304,10.6572104 14.4687132,10.3475177 15,10.177305 C14.9932176,10.1749409 14.9841744,10.1749409 14.9773921,10.1749409 C14.9276546,10.1702128 14.8869603,10.1654846 14.8598307,10.1607565 C14.5410586,10.0921986 14.2381121,10.0283688 13.9238616,9.96690307 C12.641991,9.73286052 11.4708992,9.21276596 10.2726779,8.69739953 C9.66678491,8.43498818 9.0993254,8.15130024 8.53638747,7.79905437 C6.82044417,6.71631206 5.31701558,5.46099291 3.93793071,3.93144208 C3.79097905,3.76832151 3.64854897,3.60756501 3.5038581,3.44208038 C3.40438313,3.3286052 3.30038656,3.05910165 3.15795649,3.00945626 C3.14439172,3.00472813 3.12856615,3.00236407 3.11500138,3 C2.52493392,3.19385343 2.15868515,3.55082742 2.00042951,3.73522459 C1.99138633,3.84869976 2.12703403,3.93144208 2.2287698,4.04964539 C2.4480669,4.30496454 2.68092877,4.54846336 2.89796508,4.80851064 C3.26873543,5.25531915 3.63950579,5.71867612 4.05323125,6.12765957 C4.60034361,6.66903073 5.04798099,7.26477541 5.6199621,7.78486998 C6.49036812,8.56737589 7.40825084,9.30260047 8.38943581,9.93853428 C9.34349124,10.5579196 10.7338801,11.1843972 11.0707385,12.4066194" id="Fill-13" fill="#000105"></path>
                                <path d="M2.6853813,4 C2.64010838,4 2.59721823,3.98545 2.56385923,3.95427144 C2.29460445,3.68405719 2.06823981,3.4387858 1.87046859,3.20598583 C1.81089895,3.13531442 1.72988424,3.04177872 1.63457281,2.93369302 C1.09844602,2.32051454 0.195370241,1.29577898 0.00474738447,0.609850513 C-0.0333771868,0.416543399 0.166776813,0.258571995 0.295447241,0.154643439 C0.519429097,-0.0220351059 0.812511739,-0.00124939474 0.843487953,0.00290774748 C0.888760882,0.0049863186 0.931651024,0.0257720297 0.955478882,0.0548720253 C1.98484231,1.26252184 2.9689328,2.31220026 3.96017166,3.26210725 C4.01735851,3.31822867 4.01259294,3.40345009 3.94825773,3.45125723 C3.87915694,3.5032215 3.78146273,3.49698579 3.72427587,3.44294294 C2.74256816,2.49719308 1.77039159,1.4599861 0.748176525,0.266886279 C0.686224097,0.271043421 0.588529883,0.28767199 0.517046311,0.345871981 C0.374079169,0.458114821 0.307361169,0.526707668 0.312126741,0.555807664 C0.488452883,1.179379 1.39867702,2.21658598 1.88714809,2.77364304 C1.98245952,2.88380731 2.06347424,2.97734301 2.12542666,3.050093 C2.31604952,3.27665725 2.53764859,3.51569293 2.80452059,3.77967146 C2.85932466,3.83579288 2.8521763,3.9210143 2.7854583,3.96882143 C2.75448209,3.98960714 2.7187403,4 2.6853813,4" id="Fill-14" fill="#9C5D3D"></path>
                                <path d="M12,12.7709924 C11.7303746,11.9900763 10.795037,11.3259542 10.1531854,10.870229 L10.0124075,10.7694656 C9.64495347,10.5061069 9.27034121,10.2450382 8.89334288,9.98167939 C7.18492007,8.79312977 5.42400382,7.56335878 4.10928179,6.03587786 C3.77284658,5.64427481 3.37198759,5.22748092 2.98305894,4.82442748 C2.72297781,4.55419847 2.45096636,4.2610687 2.20997375,4 C2.10498688,4.09389313 2.03817705,4.18320611 2,4.23129771 C2.23860654,4.49007634 2.4963016,4.76030534 2.74922453,5.02366412 C3.13576712,5.42442748 3.53185397,5.83206107 3.86351706,6.21908397 C5.2044858,7.77862595 6.98449058,9.01984733 8.70484371,10.2198473 C9.08184204,10.4832061 9.45645431,10.7419847 9.82152231,11.0053435 L9.9599141,11.1015267 C10.613696,11.5664122 11.5824386,12.2557252 11.7375328,13 C11.8210451,12.9175573 11.9117156,12.8442748 12,12.7709924" id="Fill-15" fill="#383B39"></path>
                                <path d="M14.3607748,10 C14.5485193,9.92636277 14.7787297,9.86834555 15,9.83933695 C13.987521,9.64520242 13.149376,9.39751355 12.1503073,9.05833599 C9.55764574,8.17915206 7.23095549,6.82244182 5.41162228,5.14217405 C4.74781151,4.52629901 3.99683367,3.76314951 3.33525796,3.04462863 L3.30173217,3 C3.19221457,3.02677718 3.09163718,3.06024865 3,3.10041441 C3.01788042,3.11826586 3.03576085,3.13834874 3.05364127,3.16066305 C3.05587633,3.16512592 3.06034643,3.17182021 3.06481654,3.1785145 C3.08269696,3.19636595 3.10057739,3.21644884 3.11845781,3.23653172 L3.12069287,3.23653172 C3.78226858,3.96397832 4.53995157,4.72935926 5.2104675,5.34746573 C7.05662134,7.06120497 9.42354256,8.43576666 12.051965,9.32610775 C12.8677594,9.60726809 13.5762712,9.82371693 14.3607748,10" id="Fill-16" fill="#383B39"></path>
                                <path d="M60.776117,5.87444472 C60.3846557,5.35802272 59.6153887,5.21207738 59.0008854,5.12001954 C58.5798369,5.05490546 58.3181041,4.86854448 57.9311946,4.73607101 C57.5260777,4.59686161 57.0982014,4.52052096 56.709016,4.33415998 C55.9488527,3.96817396 55.8578152,3.16884252 55.2842789,2.64792989 C54.6401885,2.06414851 53.8595418,1.56568901 52.9878576,1.41749835 C51.9978246,1.24909988 51.0988291,0.901076357 50.0701052,1.02681389 C49.2029728,1.1323436 48.429154,1.53874526 47.8624454,2.1831501 C47.4800879,2.6142502 47.1955956,3.10597375 46.7973065,3.52584729 C46.4536399,3.89183331 45.9438298,4.11860993 45.6502338,4.52276628 C45.4476753,4.8034304 45.2633244,5.09756641 45.1040087,5.40068367 C44.6306136,6.285337 44.0752848,7.14304658 43.6929272,8.06811555 C43.5427153,8.4206297 43.4334703,8.75967196 43.1125631,9.0066564 C42.8189671,9.2311877 42.4275058,9.28507521 42.0861151,9.419794 C41.0027686,9.84640347 40.0992213,10.5649036 39.0887049,11.1037788 C37.2565749,12.0782446 34.4935863,11.7616555 32.4657256,11.8896383 C29.9212271,12.0535462 27.4472826,11.8424868 24.9118878,11.6336726 C24.4771836,11.5999929 24.0652389,11.4922179 23.6373626,11.4203679 C23.1867269,11.3440273 22.7360912,11.2676866 22.2922833,11.1644022 C21.6322613,11.0094756 20.9972746,10.7737178 20.3486323,10.5806208 C19.8160629,10.4301849 19.297149,10.4706005 18.7577517,10.4279395 C18.1751116,10.3830333 17.612955,10.1966723 17.0212111,10.2258614 C16.2951869,10.2617864 15.6761318,10.5199974 15.0434211,10.8478131 C13.7097215,11.5483507 12.4943707,12.4330041 11.5794436,13.6095481 C10.6554129,14.8018093 10.4209913,15.9716174 10.100084,17.3951459 C9.96807962,17.9946445 9.83835116,18.6031243 9.65172425,19.1869057 C9.44916578,19.813348 9.1441901,20.7159639 8.55699813,21.1111389 C8.28160964,21.3019906 7.94021896,21.4793703 7.62158766,21.5849 C7.32343979,21.6814485 7.00025661,21.7039016 6.70210875,21.8229032 C6.05346645,22.0856048 5.7621464,22.6065174 5.6597292,23.2643941 C5.60510669,23.6124177 5.57779544,23.9537052 5.57779544,24.3039741 C5.57779544,24.8316226 5.48448198,25.3390634 5.3957204,25.8577307 C5.3115107,26.3606808 5.1248838,26.8703669 5.03384628,27.3688264 C4.93598095,27.9144374 5.06115754,28.5678235 5.27054382,29.0752643 C5.80311329,30.357338 7.51689451,31.3565023 8.9575632,30.8782506 C9.77690084,30.6065678 9.93166461,29.8745957 9.55385892,29.1583408 C9.16012167,28.4128969 8.0744993,28.4578032 7.75814393,27.6584717 C7.48958326,26.9758966 7.6784861,26.0934886 8.14505337,25.5276697 C8.91887225,24.5981101 9.60848143,24.8473398 10.7100354,24.8473398 C12.0573906,24.8473398 13.8166906,24.7485461 15.0001783,24.0547443 C15.7580656,23.6124177 16.5091251,22.2427767 17.4103965,22.137247 C17.7176481,22.1035673 18.2092507,22.3662689 18.5096745,22.4403643 C19.4109459,22.6648956 20.3349767,22.689594 21.2521797,22.725519 C26.2273799,22.9231066 30.7724278,24.6070913 35.6201755,25.3884603 C36.592001,25.5411416 37.5774821,25.9183541 38.5766189,25.8622213 C38.5971023,25.8577307 38.6175857,25.8532401 38.6357932,25.8532401 C38.6676564,26.1383948 38.6972436,26.419059 38.7382104,26.7042137 C38.8224201,27.3216748 38.8360758,27.9481171 38.9111817,28.5723141 C38.9612524,28.958508 39.0135989,29.3649096 39.1888461,29.7219144 C39.4756143,30.3079411 40.1401882,30.5975865 40.7797267,30.6537193 C41.1302212,30.6851537 41.4852675,30.6537193 41.8357619,30.6357568 C42.2158435,30.615549 42.5959252,30.6065678 42.9737309,30.5571709 C43.2878103,30.5190005 43.6428566,30.4449052 43.8454151,30.1889395 C44.029766,29.9621629 44.0866645,29.7084425 44.0548013,29.4659487 C44.0047307,29.0505658 43.6883753,28.664372 43.2741547,28.4802563 C42.7757243,28.255725 42.1065985,28.4353501 41.6582388,28.0850812 C40.9299386,27.5012998 41.6832741,26.2641324 41.9108679,25.6197275 C41.9723182,25.4445931 42.0428723,25.2649681 42.1111504,25.085343 C44.3301898,24.5464679 46.0667304,23.6213989 47.9216198,22.2607392 C48.5270193,21.8184126 49.1938691,21.4636531 49.7605776,20.9629483 C51.0100675,19.8537636 51.4925664,18.2753086 51.9363742,16.7484957 C52.202659,15.8166908 52.4120453,14.6581093 53.0197207,13.8655138 C53.2131754,13.6117934 53.5318067,13.4838106 53.704778,13.2166183 C54.0029259,12.7585745 53.7525727,12.1680571 54.0302371,11.701032 C54.2191399,11.3732163 54.72895,11.1778741 55.0931001,11.1352132 C55.4458705,11.0947975 55.8100205,11.0813256 56.1491353,10.9713053 C56.4768703,10.8657756 56.6999122,10.5716396 57.0253714,10.4638646 C57.3713139,10.3515989 57.7764309,10.452638 58.1314772,10.4256942 C58.5639054,10.3920145 58.9166757,10.2348426 59.2444108,9.95642381 C59.4401415,9.79027065 59.5539384,9.60840029 59.6904946,9.40183149 C59.8543622,9.15709237 60.0637484,8.95276888 60.2071325,8.69006726 C60.3846557,8.3689875 60.5599029,8.04790773 60.703287,7.71111078 C60.9445364,7.15202783 61.1926136,6.41556516 60.776117,5.87444472" id="Fill-17" fill="#F3F2EE"></path>
                                <path d="M57.98206,5.96111021 C57.931104,5.52283363 57.7944495,4.97385832 57.3011035,4.8360497 C57.1343387,4.78634823 56.9606253,4.75020171 56.7938605,4.69146361 C56.4024263,4.55591415 56.0549996,4.35258996 55.7631611,4.0679361 C55.4527932,3.76520897 55.4296314,3.39696627 55.2373886,3.03550105 C55.021984,2.62659351 53.4029753,1.77263192 52.6340041,1.48797805 C51.8650329,1.20332419 50.3710978,1 49.516428,1 C48.854001,1 47.9645885,1.57382604 47.5083014,2.01662095 C47.0937054,2.41197354 46.8041831,2.91576569 46.3919034,3.31789576 C45.9309839,3.76294981 45.3588878,4.08600936 44.9373434,4.57624657 C44.5343283,5.04163305 44.2633355,5.65612393 43.9622323,6.18476682 C43.6124893,6.79925771 43.2859082,7.42730353 43.0612389,8.09375504 C42.9824888,8.32418912 42.919952,8.58625141 43.2720111,8.59076973 C43.438776,8.59302888 43.6032246,8.57721478 43.7607248,8.65176698 C44.205431,8.8641278 44.1104677,9.26173955 44.2471222,9.64805551 C44.5389607,10.4839438 45.1249538,10.8273358 45.7989617,11.331128 C46.0583737,11.5254155 46.3270504,11.7174439 46.5934109,11.9094723 C47.1469775,11.9388414 47.373963,11.4847507 47.5569411,10.8341133 C47.7700295,10.0727772 47.9298458,9.27303534 48.0410224,8.50944005 C48.1545151,7.74810392 48.1406181,6.95513958 48.5667949,6.27513313 C48.7984127,6.43327416 48.7034494,7.07487494 48.6965009,7.30530902 C48.6802876,7.92431822 48.594589,8.53429079 48.620067,9.14878167 C48.6640744,10.1111828 48.3120153,10.9628853 48.0155444,11.8710666 C47.9182649,12.1692755 47.8302502,12.4674843 47.7700295,12.7656931 C47.9692209,12.9125383 48.1684122,13.0526061 48.3629712,13.2017105 C48.5922729,13.3711473 51.0010984,14.5323544 51.9808418,15 C51.9067241,14.9638535 52.4626069,14.1189285 52.8054013,13.6015814 C52.9304749,13.4050347 53.0300706,13.2559303 53.0532324,13.2130063 C53.2477914,12.8605777 53.3358062,12.5668872 53.4307695,12.1783121 C53.5234166,11.7919961 53.7805124,11.4147168 54.2136378,11.3401646 C54.6467631,11.2701307 55.0335649,11.4937873 55.4041534,11.1662095 C55.7701096,10.8431499 55.9507715,10.3642085 56.0619481,9.91237696 C56.3120954,8.91382927 57.060221,8.54332742 57.5836773,7.70743908 C57.9079423,7.18331451 58.0538615,6.56430531 57.98206,5.96111021" id="Fill-18" fill="#683D28"></path>
                                <path d="M45.9690148,18.5224713 C46.4353073,18.3907894 46.8947087,18.1140342 46.981995,17.6252489 C47.0715782,17.1208404 46.8097194,16.5985766 46.5754247,16.1655887 C46.3663971,15.7772388 46.1458844,15.3397871 45.8220064,15.0250897 C45.6612159,14.868857 45.4981284,14.739407 45.367199,14.5541596 C45.0961521,14.1747372 44.9215796,13.7439812 44.8044322,13.3042976 C44.6872848,12.8556865 44.5678405,12.391452 44.2232894,12.0522038 C43.8902234,11.7263469 43.2792195,11.4741426 43.132211,11.0099082 C42.9806086,10.5456738 43.4101489,10.0814393 43.3320506,9.60827731 C43.1482901,8.53027138 41.9331733,9.13511528 41.3405455,9.52569714 C40.1989329,10.2800781 39.2272989,10.3805134 37.8513917,10.5903117 C36.8039564,10.7487763 35.8208374,11.1616772 34.7688081,11.3446927 C32.1685961,11.7910719 29.4696127,11.5924331 26.8418365,11.3937944 C26.0769332,11.337997 25.3281089,11.2978228 24.5677995,11.1616772 C23.8419453,11.0277634 22.3075445,10.9942849 22.2593073,12.0031021 C22.2248522,12.6771348 22.9369244,13.1436011 23.2699905,13.6658648 C23.451454,13.9537795 23.5410373,14.373376 23.3940289,14.6925372 C23.1964863,15.1299888 22.7439759,15.3911207 22.5073841,15.7973258 C22.2983565,16.1455017 22.1191899,16.5673301 22.0479827,16.9579119 C21.8940832,17.7837136 22.1031109,18.6429937 22.780728,19.2121272 C24.2209514,20.4151194 25.9735679,21.2074426 27.7882035,21.7520253 C28.5577009,21.9841425 29.9565782,22.4617683 30.7697187,22.2184916 C31.6517695,21.9573597 31.5989383,20.444134 31.7781048,19.7745651 C31.8906582,19.3594324 31.9664594,18.8751109 32.4419399,18.7278057 C33.0230827,18.5403264 33.4870781,18.9844738 33.774204,19.4018384 C34.4610092,20.3928004 34.73665,21.564546 35.4946624,22.5197976 C36.0712111,23.2473958 37.0083901,23.0911631 37.5826418,22.4327536 C37.9892121,21.9752149 38.1890517,21.4551831 38.7012843,21.0869202 C39.1675767,20.7543676 39.7372345,20.6539323 40.233388,20.3704814 C41.0809837,19.8794642 41.6621265,18.9844738 42.6268695,18.6831678 C43.7110568,18.3483834 44.8825305,18.8327049 45.9690148,18.5224713" id="Fill-19" fill="#683D28"></path>
                                <path d="M19.9556339,10.5749289 C19.9714821,10.5422259 19.9850663,10.5141948 19.9986505,10.4814918 C20.0665713,10.3319924 17.5489716,9.988611 17.3452091,10.0002906 C16.7542976,10.0353296 16.070561,10.0913918 15.51361,10.2922816 C14.322731,10.7127486 13.4873045,11.7662521 12.6133895,12.6352173 C12.1288874,13.1140825 11.6738177,13.6092993 11.2300681,14.1255393 C10.7863185,14.6441153 10.6550048,15.2210895 10.4512423,15.886829 C10.2950243,16.3960612 10.3086085,16.9823791 10.1025819,17.4659162 C9.9056114,17.9214222 9.93957183,18.4960604 9.83542652,18.9795975 C9.76976969,19.2809322 9.68147258,19.5869388 9.54336684,19.8602423 C9.51167044,19.9233124 9.48223807,19.9887184 9.4528057,20.0564603 L9.29432371,20.0564603 L9,20.5913878 C9,20.5913878 9.15621797,21.1286512 9.64072007,21.49072 C9.64751215,21.4953919 9.65430424,21.4977278 9.66109632,21.5023996 C9.70637689,21.5351026 9.75165746,21.5631338 9.80599415,21.5935008 C10.1320143,21.7757032 10.5418034,21.8738122 10.8610314,21.9322104 C12.1379435,22.1517876 13.4759844,21.7990625 14.6962957,21.4299859 C16.1701783,20.9838236 17.340681,20.1265381 18.1172428,18.7787077 C18.7353226,17.7041809 18.687778,16.4918343 18.5881607,15.3098548 C18.5406161,14.718865 18.5949528,14.1605782 18.7149463,13.5789322 C18.9413492,12.4903898 19.4937721,11.5630264 19.9556339,10.5749289" id="Fill-20" fill="#683D28"></path>
                                <path d="M51.9111704,4 C52.1335919,4.92655826 51.9720216,5.95135402 52.167165,6.89354097 C52.3413252,7.72855974 52.4819125,8.56804385 52.5154855,9.41645865 C52.6057131,11.6223371 52.8680027,13.7746315 52.9603286,15.9849753 C52.9918034,16.7842713 53.2163232,18.0434975 52.1126088,17.9988441 C51.2690855,17.9631213 50.4801185,17.0789838 49.8107556,16.630217 C48.7825805,15.9447872 48.1090209,14.8105906 48.0083017,13.5357357 C47.9138775,12.3166976 48.6524849,11.2628772 48.8266452,10.0884925 C48.9903138,8.98778591 48.8770048,7.79107452 48.9672324,6.68366995 C49.0280835,5.92679465 49.1015246,5.14759264 49.4792216,4.45993012" id="Fill-21" fill="#683D28"></path>
                                <path d="M13.705441,10.6007814 C12.8204945,10.9943818 12.0074772,11.7604968 11.3666538,12.4867833 C11.120351,12.7679264 10.8958449,13.0701552 10.6756981,13.374727 C10.4424733,13.7050701 10.0523121,14.0518133 10,14.4805566 C10.5754332,14.8319855 11.3819115,14.6632996 11.9965788,14.4711852 C12.3082718,14.3704422 12.6090664,14.2251849 12.9272984,14.1455277 C13.6640273,13.9534132 14.2372808,14.2696993 14.7015508,14.8764999 C15.2813433,15.6332434 15.7347149,17.5262738 16.6109428,17.9245599 C17.5787168,18.3743889 17.4043431,16.6922159 17.4043431,16.057301 C17.4065228,15.0733 17.4304991,14.0869562 17.6724426,13.124041 C17.7836059,12.6788977 17.9361829,12.2454687 18.1628687,11.8495255 C18.2674929,11.6597539 18.3939138,11.4488965 18.4876397,11.2544392 C18.5748265,11.074039 18.6750914,10.940496 18.7818953,10.7764959 C18.8298481,10.6991815 19.0325575,10.5187814 18.9955031,10.4227241 C18.969347,10.3594669 18.7709969,10.3149526 18.7143255,10.3008954 C17.4522959,9.95415223 16.1401338,9.88620931 14.8650261,10.207181 C14.5119194,10.2938668 14.163172,10.4156955 13.818784,10.5515814 C13.7817295,10.5656385 13.7424955,10.5820386 13.705441,10.6007814" id="Fill-22" fill="#000105"></path>
                                <path d="M32.2431377,11.6053856 C31.6423755,11.7118852 31.1387289,11.9537279 30.5718442,12.6237876 C30.2827556,12.9699112 30.0320616,13.3115972 29.541966,13.355972 C29.1218842,13.3959094 28.4714348,13.1562854 28.5821015,12.6792561 C28.6859927,12.2177581 29.3545101,12.1001648 29.5893946,11.7740099 C28.5414484,11.3169493 27.0214747,11.6164793 25.8764128,11.5299484 C25.6708889,11.5121985 25.4653649,11.4744799 25.264358,11.4345426 C24.315786,11.2481684 23.3694725,11.0839816 22.4118665,10.9730445 C22.2108596,10.9486384 22.0505057,10.9331072 21.9217709,11.0995128 C21.6778524,11.4234489 21.4452264,11.7518225 21.4045734,12.1578521 C21.3706958,12.4706945 21.5965463,12.6415375 21.8133627,12.8367867 C22.1160024,13.1141293 22.4163835,13.4070031 22.6264244,13.7575641 C22.8771185,14.1813436 22.8387239,14.8136847 22.3260433,15.0533087 C21.6213898,15.3750261 21.0974167,14.5784982 20.3746952,14.5429983 C19.5458239,14.4986235 19.0670209,15.0621836 19.0060413,15.8276492 C18.9360276,16.6552395 19.4871028,17.5516107 20.0088174,18.1706394 C21.0996752,19.4619465 22.8680844,20.826472 24.5890651,21.2125329 C25.7973651,21.485438 28.9728228,22.7767451 30.0275446,22.264216 C31.2087426,21.6873434 30.6237898,19.9301007 31.2719807,19.0581356 C32.3967161,17.5382983 33.6411522,20.6911288 33.9618599,21.3634072 C34.2825676,22.0401231 34.6484453,23.0873688 35.5970173,22.9941816 C36.4281471,22.905432 36.8888821,21.9624672 37.3789776,21.4188758 C38.0023249,20.7443786 38.740856,20.7488161 39.4138904,20.2451619 C40.2879317,19.5906334 39.483904,18.490138 39.3212917,17.7224537 C39.1496453,16.9237071 39.7933192,15.8076805 40.7147891,15.581369 C41.6791707,15.3395262 42.7384094,16.1782102 43.725376,16.1293979 C44.1115803,16.1094293 44.5700568,16.0251171 44.8297848,15.7300246 C45.2001796,15.3173388 44.8997985,15.093246 44.5587643,14.793716 C43.7705461,14.1014689 44.0370497,13.0165047 43.4204778,12.2399455 C43.1020287,11.8472284 42.5893481,11.6253543 42.3386541,11.1749499 C42.0224634,10.6047336 42.6322597,9.92579892 42.3341371,9.35558256 C42.2437969,9.18473953 42.0156879,9.06936501 41.8350075,9.01389649 C41.6430346,8.95842798 41.4352522,9.08045871 41.2839323,9.1780833 C41.139388,9.27127041 40.9745172,9.32673893 40.8164219,9.39773863 C40.4753876,9.55748796 40.1501629,9.74164344 39.8271968,9.92579892 C39.698462,9.99901736 39.5719857,10.0766733 39.4409924,10.1432355 C38.763441,10.4871403 38.1626787,10.4139219 37.4241477,10.5004528 C36.1955211,10.6402334 35.1182143,11.3790741 33.9053973,11.4744799 C33.2413969,11.5210735 32.7129067,11.5210735 32.2431377,11.6053856" id="Fill-23" fill="#000105"></path>
                                <path d="M46.7587432,6.99416131 C45.0032338,5.74654059 46.9302447,4.89467053 47.125566,3.62916278 C47.1422398,3.52407645 47.1470037,3.41899011 47.1327119,3.30943202 C47.125566,3.24906328 47.1065103,3.03665473 47.0469611,3.00535242 C47.0374332,2.99864478 47.0255234,2.99864478 47.0159955,3.00311654 C46.9659742,3.0187677 46.9230988,3.10373111 46.9016611,3.13503343 C46.842112,3.21328921 46.7849448,3.28260147 46.7158678,3.35191373 C46.5777137,3.49277413 46.41574,3.61798338 46.2680581,3.74766439 C46.2299466,3.7789667 46.1703974,3.82368429 46.1513417,3.87287364 C46.0227155,3.99808288 45.9036172,4.12105625 45.7988107,4.20825555 C45.3629108,4.57941153 44.9389207,4.90584993 44.5840077,5.35302581 C44.1433439,5.90528803 43.8122506,6.52462663 43.5526162,7.16855991 C43.4668654,7.37873257 43.3954064,7.59561287 43.3287114,7.8102573 C43.281072,7.9734765 43.2477245,8.13445982 43.2072311,8.29767901 C43.1643557,8.47207761 43.0619311,8.62635329 43,8.79404425 C43.069077,8.8320542 43.2429606,8.77615721 43.3215655,8.76050605 C43.5240326,8.7224961 43.8098686,8.69790143 43.998044,8.78510073 C44.4172701,8.97962224 44.4125061,9.41338285 44.5387504,9.76441591 C44.7507454,10.3412728 45.1771174,10.7392593 45.6773304,11.1081794 C46.0512991,11.3831926 46.6801383,12.2127039 47.2541922,11.9488701 C47.6448347,11.7699998 47.7067658,11.3004651 47.7925166,10.949432 C47.9116149,10.4642462 47.9949838,9.96564506 47.9997477,9.46927983 C48.0116575,8.50114404 47.6019593,7.59784875 46.7587432,6.99416131" id="Fill-24" fill="#000105"></path>
                                <path d="M55.4241216,4.20667163 C55.3981216,4.11251606 55.3721216,4.02284408 55.3481216,3.9376557 C55.2541216,3.63052917 55.2061216,3.0790465 54.8441216,3.00282531 C54.4861216,2.92884593 54.2841216,4.32997061 54.1801216,4.59226114 C54.0541216,4.90387127 53.8101216,5.35447297 54.2601216,5.43966135 C54.6501216,5.51588253 54.9361216,5.55623492 55.3061216,5.75575507 C55.5501216,5.88577944 55.9581216,6.25343456 55.9761216,5.71764448 C55.9841216,5.47104654 55.8661216,5.32084597 55.7561216,5.12580942 C55.6041216,4.86351888 55.5121216,4.52276536 55.4241216,4.20667163" id="Fill-25" fill="#442A1C"></path>
                                <path d="M54.0097778,4.69880801 C54.0097778,4.69880801 53.9877778,4.69480801 54.0097778,4.64880801 C54.0317778,4.60680801 54.2397778,4.27480801 54.3557778,4.16080801 C54.4697778,4.04880801 54.5597778,3.98080801 54.6717778,4.00480801 C54.7817778,4.03280801 54.8557778,4.18680801 54.8557778,4.29680801 C54.8557778,4.40680801 54.8657778,4.65280801 54.5997778,4.69080801 C54.3317778,4.73080801 54.0297778,4.73880801 54.0097778,4.69880801" id="Fill-26" fill="#FFFFFE"></path>
                                <path d="M55.0374826,4.39042511 C55.0034826,4.29042511 54.9874826,4.16842511 55.0114826,4.08242511 C55.0594826,3.90842511 55.2054826,4.04842511 55.2474826,4.15042511 C55.2834826,4.23842511 55.2974826,4.47642511 55.2154826,4.54842511 C55.1614826,4.59242511 55.1214826,4.54042511 55.0934826,4.50042511 C55.0734826,4.47042511 55.0554826,4.43442511 55.0374826,4.39042511" id="Fill-27" fill="#000105"></path>
                                <path d="M59.9225711,8.09763314 C59.9083509,8.09097633 59.8941307,8.0887574 59.8775404,8.08653846 C59.8799104,8.05769231 59.8799104,8.02218935 59.8799104,8.01997041 C59.8751704,8.0066568 59.8111793,8 59.8111793,8 C59.8111793,8 59.7637785,8.07322485 59.7163777,8.14423077 C59.7140077,8.1464497 59.7092676,8.14866864 59.7092676,8.15310651 C59.4959641,8.49704142 59.2376298,8.83431953 58.9579652,9.13387574 C58.6569703,9.46227811 58.2706539,9.72411243 57.8108663,9.91715976 C57.3984795,10.0924556 57.0690441,10.1168639 56.6542873,10.147929 C56.5334153,10.1545858 56.4030631,10.1656805 56.2656009,10.1789941 C55.9977864,10.2056213 55.8200335,10.3343195 55.665981,10.4497041 C55.5759195,10.5162722 55.4929681,10.5784024 55.3910564,10.6227811 C55.3839463,10.6294379 55.3768362,10.6316568 55.3697261,10.6316568 C55.2867747,10.7248521 55.1587926,10.862426 55,11 C55.1753829,10.9889053 55.3507658,10.9622781 55.5332588,10.8823964 C55.6636109,10.8202663 55.7702627,10.7448225 55.8626942,10.6738166 C56.0072666,10.5673077 56.1210285,10.4807692 56.3011514,10.4630178 C56.4362437,10.4497041 56.5594857,10.4408284 56.6803577,10.4319527 C57.1069647,10.4008876 57.4766908,10.3720414 57.9435885,10.1767751 C58.4436668,9.96597633 58.8655337,9.67751479 59.1973392,9.32026627 C59.488854,9.00739645 59.7590384,8.65236686 59.9794521,8.29511834 C60.0221128,8.22411243 59.9960423,8.13757396 59.9225711,8.09763314" id="Fill-28" fill="#9D9983"></path>
                                <path d="M59.8435819,4.9058813 C59.822328,4.9058813 59.801074,4.9038813 59.7798201,4.8938813 C59.4751803,4.7878813 59.1115018,4.7158813 58.7926927,4.6498813 C58.5966841,4.6138813 58.4124833,4.5758813 58.2660673,4.5378813 C58.0488048,4.4758813 57.8244576,4.4238813 57.5859412,4.3678813 C57.4253559,4.3298813 57.2671321,4.2938813 57.1089083,4.2518813 C57.0262541,4.2318813 56.9813847,4.1598813 57.0073617,4.0938813 C57.0309772,4.0258813 57.1183545,3.9838813 57.1986472,4.0058813 C57.356871,4.0478813 57.5127332,4.0818813 57.6685954,4.1198813 C57.9118349,4.1778813 58.1409052,4.2298813 58.3652523,4.2898813 C58.4974991,4.3278813 58.6769768,4.3658813 58.8635391,4.3998813 C59.1988791,4.4678813 59.5767269,4.5398813 59.9073437,4.6578813 C59.9852748,4.6878813 60.0206981,4.7638813 59.9876364,4.8278813 C59.9616594,4.8758813 59.9026206,4.9058813 59.8435819,4.9058813" id="Fill-29" fill="#9D9983"></path>
                                <path d="M16.9859374,25.6194764 C16.9788591,25.6309517 16.9670618,25.6447221 16.9599834,25.6539023 C16.577751,26.1565213 17.3988428,26.833565 17.7621994,27.1388085 C18.2529669,27.5404446 18.8546289,27.7837214 19.5105585,27.7171645 C20.2467097,27.6368373 21.1739771,27.4784779 21.6718229,28.1647019 C21.8770959,28.4469947 21.9950688,28.8463358 21.9997877,29.1951855 C22.0092256,29.5715759 21.7024959,29.6702637 21.3698122,29.7460008 C20.947469,29.8423934 20.5251259,29.8905898 20.0933449,29.9525565 C19.3005667,30.0741949 18.5337425,29.9617367 17.8188265,29.6174772 C16.8774023,29.1699398 16.4479808,28.1027352 15.5395891,27.5863459 C14.5934461,27.0538911 12.958341,26.9506133 13.0008113,25.605706 C13.014968,25.1466933 13.2863058,24.8345646 13.5482057,24.4857149 C13.6142706,24.3939124 13.6685381,24.2745691 13.7676354,24.2057172 C13.8572949,24.1529307 13.9847056,24.1345702 14.0861624,24.0932591 C14.5934461,23.875228 15.0488216,23.6411315 15.4522891,23.2831016 C15.5702621,23.1752336 16.5022484,21.9840956 16.5588754,22.000161 C16.839651,22.0850784 17.0991915,22.1539303 17.3894049,22.2113069 C17.7126508,22.2801588 18.0358967,22.3765515 18.3662209,22.4224527 C18.7555317,22.4752392 19.1542802,22.5119602 19.5506693,22.5440911 C19.7252693,22.5601566 19.9918882,22.6565492 20.1570503,22.6060578 C20.1334557,22.610648 20.0650314,23.1660534 20.0508746,23.2326102 C20.0060449,23.4299857 19.9281828,23.5929352 19.8149287,23.76736 C19.5954991,24.1116196 19.3147234,24.4260433 18.9749613,24.6739102 C18.361502,25.1122673 17.49794,25.0503006 16.9859374,25.6194764" id="Fill-30" fill="#B0A69E"></path>
                                <path d="M44.14195,29 C44.009576,29 43.8753109,28.9874719 43.7410458,28.9791199 C43.650275,28.9707678 43.5613953,28.9624158 43.4744066,28.9624158 C43.4044375,28.9582397 43.3514879,28.8935113 43.35527,28.8246069 C43.3590521,28.7473504 43.4138928,28.686798 43.4838619,28.6930621 C43.5727416,28.6930621 43.6654035,28.7014141 43.7580653,28.7097662 C44.1116931,28.7389984 44.4766672,28.7661425 44.6411892,28.5823974 C44.73196,28.4821728 44.765999,28.3130437 44.7433063,28.0687462 C44.6941388,27.5363028 44.3764412,27.2544211 43.7410458,27.1980447 C43.4687335,27.1729885 43.2663903,27.079028 43.1434716,26.9119869 C43.026226,26.76165 42.9808406,26.5528487 43.0073154,26.2960231 C43.0489187,25.9013886 43.1018683,25.5568664 43.190748,25.1037676 C43.2058765,25.0306871 43.2739545,24.9868388 43.3401416,25.003543 C43.4063286,25.0202471 43.4498229,25.0891515 43.4346944,25.1622319 C43.3495968,25.6028027 43.2966472,25.9410608 43.255044,26.3231672 C43.2361334,26.5090004 43.2626082,26.6468093 43.3344684,26.7449459 C43.4138928,26.8514345 43.5595042,26.9119869 43.7637385,26.928691 C44.5182705,26.9975954 44.930521,27.3755258 44.9929259,28.045778 C45.0212918,28.3715081 44.9645601,28.6116296 44.8189486,28.7703186 C44.6544266,28.9561517 44.4085891,29 44.14195,29" id="Fill-31" fill="#9D9983"></path>
                                <path d="M42.1316944,9.11130905 C42.0836944,9.11130905 42.0356944,9.08330905 42.0136944,9.04130905 C41.9816944,8.97730905 42.0076944,8.89730905 42.0716944,8.86930905 C42.1536944,8.82530905 42.2316944,8.79130905 42.3056944,8.75930905 C42.4436944,8.69930905 42.5696944,8.64130905 42.6956944,8.56330905 C42.9056944,8.42930905 43.0676944,8.23530905 43.2176944,8.05130905 C43.2636944,7.99330905 43.3456944,7.98330905 43.4036944,8.02730905 C43.4596944,8.07130905 43.4696944,8.15330905 43.4256944,8.20930905 C43.2676944,8.40330905 43.0916944,8.63930905 42.8416944,8.77930905 C42.6936944,8.85930905 42.5536944,8.92330905 42.4076944,8.98730905 C42.3356944,9.01930905 42.2676944,9.05930905 42.1896944,9.09730905 C42.1736944,9.10730905 42.1516944,9.11130905 42.1316944,9.11130905" id="Fill-32" fill="#9D9983"></path>
                                <path d="M41.1517834,25 C41.0828771,25 41.0208614,24.9542385 41.0047833,24.8878842 C40.9841114,24.8123777 41.0323458,24.7254307 41.1127365,24.704838 C43.45555,24.1236664 45.4033009,22.8400551 46.9996297,21.6616953 C47.2316142,21.4855133 47.4796768,21.3253479 47.7162551,21.1697587 C48.0998333,20.9180702 48.4971929,20.6549413 48.8440212,20.3483389 C49.8615373,19.4353961 50.3530687,18.1998344 50.7044908,17.1015573 C50.7274595,17.0237627 50.8147408,16.9848654 50.8928346,17.0054581 C50.9732253,17.0306269 51.0168659,17.1152858 50.9938971,17.1907923 C50.6332876,18.3211025 50.1187874,19.6047138 49.0484431,20.5657063 C48.6855367,20.8883252 48.2789897,21.1560302 47.8862239,21.4145829 C47.6519425,21.5724603 47.4107705,21.7280495 47.1810829,21.8973672 C45.5617853,23.0963197 43.5841751,24.3959476 41.1885334,24.9908477 C41.177049,24.9954238 41.1632678,25 41.1517834,25" id="Fill-33" fill="#9D9983"></path>
                                <path d="M40.8451428,31 C40.5202596,31 40.1976325,30.9795178 39.8750055,30.888486 C38.6702303,30.5744263 38.613827,28.9745422 38.5935218,28.3691807 C38.5641921,27.5339638 38.4716906,26.675989 38.3791891,25.843048 C38.3498594,25.5722283 38.3205297,25.3059603 38.2934561,25.0351407 C38.2731509,24.8303191 38.2257721,24.586809 38.173881,24.3228167 C38.0881479,23.897243 37.9956465,23.4170502 38.0001587,23.0005797 C38.0001587,22.9140995 38.0655866,22.852653 38.1490635,22.852653 C38.2325405,22.852653 38.2979683,22.9209269 38.2957122,23.0005797 C38.2934561,23.3897407 38.3837014,23.8585545 38.4671783,24.2704735 C38.5168133,24.5321899 38.5687043,24.7916306 38.5912657,25.0055553 C38.6160831,25.276375 38.647669,25.542643 38.6769987,25.808911 C38.767244,26.6486795 38.8620016,27.5112059 38.8913314,28.3600775 C38.9229172,29.2840504 39.0740782,30.3787079 39.951714,30.6085632 C40.4909299,30.7519383 41.0662439,30.710974 41.6212526,30.6745613 L41.7047296,30.6722855 C41.8694273,30.6586307 42.0318689,30.6586307 42.1897982,30.6631823 C42.5169375,30.6677339 42.8237717,30.6722855 43.1125567,30.5653231 C43.6314674,30.3696047 43.7510424,29.9235488 43.6878707,29.5730764 C43.6201867,29.1907428 43.3494507,28.8493735 42.9771887,28.6764131 C42.7876735,28.5899328 42.5643163,28.5740023 42.3274223,28.5512443 C41.9867462,28.5239348 41.6347894,28.487522 41.3437482,28.2576667 C40.6714205,27.7114759 41.0842929,26.7237807 41.3866148,26.009181 C41.4497865,25.8589785 41.5061898,25.720155 41.5468002,25.6040895 C41.6347894,25.3514762 41.7318032,25.1011387 41.8265608,24.8439739 C42.1333949,24.0406181 42.4515097,23.2145045 42.4876078,22.386115 C42.4921201,22.2700494 42.5011446,22.1562597 42.5124253,22.0447457 C42.5349866,21.7329618 42.5643163,21.4166262 42.4808394,21.2004257 C42.4537658,21.1230486 42.4921201,21.0388442 42.5665725,21.0092589 C42.6455371,20.9819493 42.7312702,21.0160863 42.7583438,21.0980149 C42.8666382,21.3779377 42.8373085,21.7238586 42.8079787,22.0675037 C42.7989542,22.1767418 42.7899297,22.2882558 42.7854174,22.3952182 C42.7470631,23.2713993 42.4221799,24.120271 42.1063213,24.9463846 C42.0093076,25.1989979 41.91455,25.4493354 41.8288169,25.6973971 C41.7859504,25.8225658 41.7250348,25.9636651 41.661863,26.120695 C41.3933832,26.7556419 41.0278896,27.6227199 41.5332634,28.0300872 C41.7498522,28.209875 42.0408934,28.2349088 42.3522398,28.2576667 C42.6049267,28.2849763 42.8666382,28.3077342 43.1012761,28.4146966 C43.5682956,28.6263456 43.8976911,29.0405403 43.9789119,29.5207331 C44.0849502,30.1078883 43.7848844,30.6267696 43.218595,30.8406943 C42.8756627,30.9635873 42.5259621,30.9613115 42.185286,30.9567599 C42.034125,30.9522083 41.8761957,30.9522083 41.7227786,30.9613115 L41.6415578,30.9635873 C41.3798464,30.9817936 41.1113665,31 40.8451428,31" id="Fill-34" fill="#9D9983"></path>
                                <path d="M52.8957023,19 C52.8694512,19 52.8503595,19 52.8264949,18.9976563 C52.0819184,18.9695316 51.3898441,18.4539133 50.7789095,17.9945442 C50.5498091,17.8257964 50.3326409,17.6664234 50.1297916,17.5375189 C48.9007631,16.7804974 48.127549,15.5523882 48.0106123,14.1766247 C47.9414049,13.3750725 48.2230075,12.6485194 48.4974508,11.9430597 C48.6764355,11.481347 48.8649661,11.0055718 48.9413329,10.5227656 C49.0487238,9.86886774 49.0487238,9.16575181 49.0511102,8.48841679 C49.0511102,7.9798296 49.0558832,7.45483637 49.0988395,6.95562406 C49.1680469,6.19157141 49.2444138,5.32673881 49.7002282,4.56034245 C49.7431845,4.48768713 49.8386431,4.45956249 49.9126234,4.50409317 C49.9889902,4.54159269 50.0152413,4.63534148 49.972285,4.70565307 C49.5522675,5.41580016 49.4782871,6.24782069 49.4138526,6.98140498 C49.3708963,7.46889869 49.3661234,7.98920448 49.3661234,8.48841679 C49.3637369,9.17747041 49.3613504,9.88996122 49.2539596,10.5649525 C49.1704334,11.0805709 48.9771299,11.572752 48.7933722,12.0485271 C48.518929,12.7539868 48.261191,13.4196032 48.3208525,14.1508438 C48.4330163,15.4352022 49.1537282,16.5765937 50.3016169,17.2867408 C50.5163986,17.4179891 50.7383397,17.5843933 50.972213,17.7601722 C51.5473507,18.1867292 52.1940822,18.674223 52.8360407,18.6953164 C53.1128705,18.707035 53.3085604,18.648442 53.4398159,18.5171937 C53.7405103,18.221885 53.6951675,17.5679872 53.6593705,17.0476814 C53.6498247,16.9398703 53.6426653,16.8344029 53.6378923,16.7383104 C53.5877766,15.5922314 53.4875452,14.441465 53.3897002,13.3258544 C53.2894687,12.191494 53.1868508,11.012603 53.1343486,9.84308683 C53.0961652,8.88684916 52.9028617,7.94233009 52.7429687,7.22515183 C52.6308049,6.73297068 52.6188726,6.22203977 52.6045538,5.72751489 C52.5926215,5.18845935 52.5783027,4.67752843 52.4518202,4.187691 C52.4279555,4.10331709 52.4804577,4.02363062 52.5639839,4.00488086 C52.6498966,3.98378738 52.7358093,4.0330055 52.7572875,4.11503569 C52.8909294,4.63534148 52.9076346,5.18845935 52.9195669,5.71814002 C52.9338857,6.20094629 52.9434316,6.69547116 53.048436,7.15718396 C53.2131019,7.89076825 53.4064054,8.85169336 53.4493618,9.82902451 C53.4994775,10.996197 53.6044819,12.1680568 53.7023268,13.3000735 C53.8001718,14.4203716 53.9027897,15.5734817 53.9529055,16.7242481 C53.9576784,16.8203406 53.9648378,16.9211206 53.9719972,17.0242442 C54.0149535,17.6406425 54.0626828,18.3367273 53.6665299,18.7257848 C53.4851587,18.9085949 53.2250342,19 52.8957023,19" id="Fill-35" fill="#9C5D3D"></path>
                                <path d="M42.1780486,30.68 C42.1560486,30.68 42.1360486,30.672 42.1180486,30.664 C42.0520486,30.63 42.0260486,30.556 42.0600486,30.494 C42.1480486,30.326 42.1120486,30.094 41.9620486,29.852 C41.7600486,29.524 41.3940486,29.258 41.1300486,29.258 C41.0580486,29.258 40.9980486,29.2 41.0000486,29.126 C41.0000486,29.056 41.0580486,29 41.1300486,29 L41.1320486,29 C41.5380486,29.004 41.9700486,29.364 42.1900486,29.72 C42.3860486,30.04 42.4260486,30.364 42.2940486,30.614 C42.2720486,30.658 42.2240486,30.68 42.1780486,30.68" id="Fill-36" fill="#9D9983"></path>
                                <path d="M39.1559389,22.3903889 C39.1181397,22.3903889 39.077978,22.3783889 39.0472661,22.3503889 C38.9858423,22.3083889 38.9834799,22.2223889 39.0449036,22.1723889 C39.6189796,21.6803889 40.4789124,21.3783889 41.6081648,21.2763889 C41.7947986,21.2623889 42.0145067,21.2623889 42.2483895,21.2583889 C42.8035659,21.2583889 43.4367033,21.2523889 43.7438221,21.0303889 C43.8076083,20.9843889 43.9044689,20.9923889 43.9635302,21.0423889 C44.0178666,21.0983889 44.0107793,21.1783889 43.9469931,21.2263889 C43.5524634,21.5063889 42.8602648,21.5103889 42.250752,21.5163889 C42.026319,21.5183889 41.8136982,21.5183889 41.6412392,21.5343889 C40.5875853,21.6283889 39.7890762,21.9023889 39.2693366,22.3503889 C39.2386248,22.3743889 39.1984631,22.3903889 39.1559389,22.3903889" id="Fill-37" fill="#9D9983"></path>
                                <path d="M21.6937226,30 C21.665778,30 21.6356838,29.9912088 21.6120384,29.9736264 C21.5475508,29.9274725 21.5346533,29.8373626 21.5819442,29.7736264 C21.8957835,29.3604396 21.577645,28.7824176 21.4723154,28.6131868 C21.1240828,28.0593407 20.5393959,28.0901099 19.9160165,28.1252747 C19.686011,28.1384615 19.4517064,28.156044 19.226,28.1340659 C18.8132799,28.1032967 18.3618672,27.8835165 17.8416679,27.4681319 C17.4160502,27.1252747 16.7539783,26.4769231 17.0936126,25.967033 C17.2849256,25.6769231 17.6224103,25.5054945 17.8631637,25.4 C18.5080389,25.1164835 19.0647812,24.8659341 19.5011468,24.3186813 C19.7569473,23.9956044 20.017047,23.6043956 20.0041495,23.1450549 C20.0019999,23.0681319 20.0643378,23.0043956 20.1417228,23 C20.2191079,23 20.2878946,23.0637363 20.2900442,23.1406593 C20.3029417,23.6857143 20.0105982,24.1318681 19.7247035,24.4923077 C19.2431967,25.0989011 18.6284156,25.3692308 17.9792412,25.6571429 C17.7707316,25.7472527 17.4762386,25.8967033 17.3279173,26.1252747 C17.1473522,26.3956044 17.5665211,26.8835165 18.0200833,27.243956 C18.4843935,27.621978 18.9014128,27.8241758 19.2474959,27.8505495 C19.4538559,27.8659341 19.6709639,27.8549451 19.9009694,27.8417582 C20.5458447,27.8065934 21.2767033,27.7626374 21.7130688,28.4637363 C21.8420439,28.6703297 22.2311186,29.3868132 21.8076505,29.9450549 C21.7797059,29.9846154 21.7388638,30 21.6937226,30" id="Fill-38" fill="#9D9983"></path>
                                <path d="M19.3944935,30 C19.0872908,30 18.7824154,29.9818295 18.47754,29.9386746 C17.6210961,29.8228376 17.0834914,29.2027694 16.5621777,28.5986003 C16.4248674,28.4418797 16.294539,28.2919731 16.159556,28.1511518 C15.675479,27.6537344 15.0378007,27.3789056 14.4164134,27.1517743 C13.8159718,26.9405423 13.1852754,26.6202872 13.0270194,25.8957386 C12.9548734,25.5686696 13.0293467,25.1552908 13.2248394,24.8236792 C13.3691315,24.5783774 13.5366966,24.3262618 13.7368438,24.0605182 C13.785717,23.9969215 13.881136,23.978751 13.9509548,24.0287199 C14.0207736,24.0786887 14.0370647,24.1672699 13.9858642,24.233138 C13.7950262,24.4852536 13.6321157,24.7260127 13.4924781,24.9690432 C13.3342221,25.2393293 13.2690579,25.5732123 13.3272403,25.8344132 C13.4552414,26.4204118 13.9788823,26.6816127 14.5234689,26.8814882 C15.1797656,27.1154333 15.8593352,27.4084326 16.3853034,27.9558189 C16.524941,28.1011829 16.6645786,28.2601747 16.7995616,28.4168953 C17.2836386,28.9756381 17.7816793,29.5525515 18.5194312,29.6502179 C19.5620586,29.788768 20.5907221,29.6547605 21.8172056,29.4094588 C21.8986609,29.3958309 21.9801161,29.4457998 21.9964072,29.5252957 C22.0150255,29.6047917 21.9591705,29.6820163 21.8777152,29.6979155 C20.9747255,29.8796204 20.1741367,30 19.3944935,30" id="Fill-39" fill="#9D9983"></path>
                                <path d="M7.97442871,30.7070183 L7.96642871,30.7070183 C7.89442871,30.6990183 7.83842871,30.6410183 7.84442871,30.5710183 C7.86042871,30.3070183 7.67242871,29.5970183 7.38042871,29.3430183 C7.30242871,29.2730183 7.23042871,29.2490183 7.15442871,29.2610183 C7.08242871,29.2730183 7.01642871,29.2270183 7.00242871,29.1550183 C6.98842871,29.0850183 7.03642871,29.0230183 7.10842871,29.0070183 C7.26442871,28.9810183 7.41842871,29.0270183 7.55642871,29.1490183 C7.92842871,29.4770183 8.12642871,30.2730183 8.10642871,30.5850183 C8.10242871,30.6510183 8.04242871,30.7070183 7.97442871,30.7070183" id="Fill-40" fill="#9D9983"></path>
                                <path d="M20.344,29.338 C20.282,29.338 20.228,29.3 20.214,29.238 C20.06,28.558 19.736,28.266 19.13,28.26 C19.056,28.26 19,28.202 19,28.132 C19.002,28.058 19.058,28 19.132,28 L19.134,28 C19.866,28.008 20.29,28.386 20.472,29.188 C20.488,29.254 20.444,29.324 20.372,29.338 C20.362,29.338 20.352,29.338 20.344,29.338" id="Fill-41" fill="#9D9983"></path>
                                <path d="M7.33075198,31 C7.0890914,31 6.86533162,30.9774038 6.64828462,30.9299519 C5.55633685,30.7039903 4.60759535,29.8001437 4.16902616,28.573172 C3.83562408,27.6376909 4.06162146,26.8038924 4.28090606,25.9949498 C4.37264757,25.6560073 4.46886428,25.3012475 4.52480423,24.9442282 C4.57403138,24.6324011 4.56731859,24.309276 4.56060579,23.9951893 C4.5494178,23.4438429 4.53822981,22.8766792 4.82240475,22.3140347 C5.15804443,21.6610056 5.64136557,21.5593228 6.15377549,21.4576401 C6.40214885,21.4056689 6.65723501,21.3559574 6.91679637,21.2339381 C7.4090679,21.0079765 7.78945954,20.6283609 8.07810967,20.0770145 C8.11614883,20.0069664 8.20341515,19.979851 8.27501828,20.0160049 C8.34885901,20.0544183 8.37571019,20.1425434 8.33990862,20.2148511 C8.02216972,20.8181687 7.59702613,21.2429766 7.03986425,21.4983132 C6.75345172,21.6316306 6.46703919,21.6926402 6.21419063,21.7400922 C5.73534468,21.8372557 5.35719064,21.9163422 5.0864413,22.4473521 C4.83359274,22.9422081 4.84254313,23.4483621 4.85596871,23.9929297 C4.86268151,24.3137952 4.8693943,24.6549973 4.81792955,24.9894205 C4.75751441,25.3645168 4.6612977,25.7215362 4.56508099,26.0695171 C4.34803399,26.8694213 4.14441259,27.6286524 4.4487259,28.4805278 C4.7642272,29.3640378 5.52277288,30.4012017 6.70869976,30.6474998 C7.0980418,30.7311057 7.514235,30.7311057 8.01321933,30.6520191 C8.22131594,30.6203845 8.38018539,30.5322594 8.56814361,30.3514901 C8.69792429,30.222692 8.70687468,30.11649 8.70687468,29.8792303 C8.70687468,29.7956245 8.77176502,29.727836 8.85231854,29.727836 C8.93510966,29.727836 9,29.7956245 9,29.8792303 C9,30.11649 9,30.3424516 8.77400261,30.5593748 C8.54353003,30.7785576 8.32872063,30.893798 8.06020889,30.9389904 C7.80064753,30.9819231 7.55674936,31 7.33075198,31" id="Fill-42" fill="#9D9983"></path>
                                <path d="M9.22786716,31 C9.19301588,31 9.15584118,30.9865551 9.12563674,30.9596654 C9.06290443,30.9081266 9.05825759,30.8162533 9.11401964,30.7602329 C9.30453999,30.5585597 9.22322033,30.1776213 9.13028357,29.8661482 C9.05825759,29.6263811 8.90491194,29.2880182 8.59589724,29.0572144 C8.45649211,28.9518962 8.2706186,28.8913942 8.07545141,28.833133 C7.7780538,28.7457413 7.47136251,28.6493863 7.28316558,28.3782478 C6.82545207,27.7172077 6.98112113,26.7581394 7.33660422,26.0970993 C7.68976388,25.451745 8.22879706,25.066325 8.81429861,25.0394352 C9.13957725,25.0259903 9.46020905,25.0394352 9.7738706,25.0506393 C10.2106733,25.0685658 10.6614166,25.0864923 11.1028662,25.030472 C12.7246125,24.8153538 14.1511917,24.5711051 15.2292581,23.7487264 C15.8728451,23.2624698 16.3816738,22.6148746 16.8742386,21.985206 C17.4248889,21.2793496 17.9941265,20.5533259 18.7562079,20.0267347 C18.8259104,19.9796776 18.923494,19.9976041 18.9699624,20.0581061 C19.0210776,20.1253305 19.0048137,20.2104814 18.9374346,20.2597793 C18.2125279,20.7594808 17.6572308,21.467578 17.120521,22.1555078 C16.6186625,22.7986214 16.0935699,23.4641431 15.4221018,23.9750486 C14.1906898,24.9117088 12.4295383,25.1447535 11.1470111,25.3195369 C10.6753571,25.3755573 10.2106733,25.3576308 9.75760666,25.3397043 C9.45556221,25.3285002 9.13493041,25.3150553 8.82823912,25.3285002 C8.35658509,25.3464267 7.91048867,25.6735855 7.61076764,26.2293074 C7.23437379,26.9217188 7.20649276,27.7396159 7.53874166,28.2169092 C7.66885311,28.4096192 7.91048867,28.4835661 8.16838817,28.5575129 C8.3821427,28.6224965 8.60286749,28.6897209 8.78641758,28.8286514 C9.1581646,29.1087531 9.34171469,29.507618 9.42535777,29.7877197 C9.54152871,30.1686581 9.63446546,30.6459514 9.34171469,30.9507021 C9.31151024,30.9820735 9.2696887,31 9.22786716,31" id="Fill-43" fill="#9D9983"></path>
                                <path d="M38.8512262,26 L38.8466556,26 C38.7438179,25.9955402 38.6432655,25.9910803 38.5427131,25.9843906 C35.8963568,25.8617452 33.3505529,25.1905404 30.8893044,24.5460946 C28.9171062,24.028754 26.8786348,23.4868843 24.8150254,23.2438234 C23.9374772,23.1345576 23.0690701,23.0832695 22.2280864,23.0342113 C20.4638488,22.9294053 18.7955931,22.829059 17.099914,22.2782697 C17.0222145,22.2470509 16.9810794,22.1690038 17.0085028,22.0931866 C17.0336409,22.0195994 17.1181963,21.9794609 17.1958959,22.0106797 C18.8527252,22.5503195 20.5026986,22.6506657 22.2463686,22.7510119 C23.0919229,22.8045299 23.9671858,22.855818 24.8515899,22.9606241 C26.9380522,23.2148345 28.9856647,23.7522444 30.9692893,24.2718149 C33.4145408,24.9162607 35.9420624,25.5785458 38.5564248,25.705651 C38.6569772,25.707881 38.7575296,25.7123408 38.8603673,25.7168006 C38.9403522,25.7234904 39.0043401,25.788158 38.9997695,25.866205 C38.9974842,25.9397923 38.931211,26 38.8512262,26" id="Fill-44" fill="#9D9983"></path>
                                <path d="M59.8251962,5.22013302 C59.7771962,5.18546593 59.7011962,5.14646546 59.6011962,5.09879822 C59.5951962,5.09663153 59.5851962,5.09663153 59.5791962,5.09446483 L59.4691962,5.0142972 C59.3331962,4.93629625 59.1971962,5.19846609 59.1331962,5.29380058 C59.1091962,5.33280105 59.0891962,5.36530144 59.0711962,5.40430192 C59.0391962,5.45413585 59.0131962,5.50613648 59.0051962,5.55380373 C58.9991962,5.56680388 58.9991962,5.58197073 59.0011962,5.59713758 C59.0051962,5.66647176 59.0451962,5.72280577 59.1491962,5.7444727 C59.3671962,5.79430664 59.6331962,5.42380215 59.8371962,5.72280577 C60.0491962,6.03914293 59.6411962,6.00014246 59.4891962,6.11281049 C59.2671962,6.27314577 59.2811962,6.50281521 59.3351962,6.79315206 C59.3571962,6.9014867 59.7311962,7.95883284 59.6871962,8 C60.0871962,7.61432867 60.2631962,6.73248466 60.3771962,6.19514482 C60.4511962,5.84197388 60.1931962,5.49096963 59.8251962,5.22013302" id="Fill-45" fill="#000105"></path>
                                <path d="M53.132,8 C53.058,8 53,7.93530484 53,7.85945534 C53,6.74848331 53,5.70443729 53.316,4.62023567 C53.35,4.50869229 53.39,4.38376371 53.434,4.25214252 C53.65,3.59849833 53.944,2.70392044 53.602,2.23320739 C53.558,2.17297397 53.568,2.0815084 53.624,2.03242931 C53.682,1.98111936 53.764,1.99227369 53.808,2.05473799 C54.242,2.65037962 53.92,3.62973047 53.682,4.34583896 C53.64,4.47746014 53.6,4.60015786 53.568,4.7072395 C53.262,5.74682378 53.262,6.77302285 53.262,7.85945534 C53.262,7.93530484 53.204,8 53.132,8" id="Fill-46" fill="#9C5D3D"></path>
                                <path d="M60.216,6.08527132 C60.162,5.68475452 59.932,5.37984496 59.508,5.1498708 L59.162,5 C59.112,5.08010336 59.05,5.19121447 59,5.28423773 L59.41,5.45736434 C59.74,5.64082687 59.918,5.8630491 59.956,6.14211886 C60.05,6.82945736 59.908,7.60465116 59.542,8.45219638 L59.496,8.54780362 C59.53,8.70801034 59.574,8.90956072 59.594,9 L59.77,8.61757106 C60.17,7.7002584 60.32,6.84754522 60.216,6.08527132" id="Fill-47" fill="#383B39"></path>
                                <path d="M55.6065637,11.4494585 C55.7755395,11.2815884 55.911729,11.1137184 56,11 C55.7654514,11.1137184 55.5334249,11.1110108 55.2660899,11.1028881 C55.1425106,11.1001805 55.0138872,11.0947653 54.8802197,11.1028881 C54.448953,11.1299639 54.1110013,11.3032491 53.7453073,11.6741877 C53.4426639,11.9882671 53.4098776,12.2833935 53.3745692,12.6299639 C53.3695251,12.6841155 53.3644811,12.7382671 53.356915,12.7951264 L53.3468269,12.868231 C53.3165626,13.1362816 53.2711661,13.5505415 53.0744479,13.6805054 C52.9987871,13.7319495 52.9786108,13.8429603 53.0240073,13.9241877 C53.0593157,13.9756318 53.1097563,14 53.1652409,14 C53.1980273,14 53.2282916,13.9945848 53.2560339,13.9756318 C53.5813755,13.7536101 53.6393821,13.2445848 53.6797345,12.9088448 L53.6847786,12.8384477 C53.6948667,12.7788809 53.6999108,12.7220217 53.7049548,12.66787 C53.7377412,12.3429603 53.7579174,12.1453069 53.9773338,11.9232852 C54.2824992,11.6119134 54.5523561,11.4738267 54.902918,11.4494585 C55.0239753,11.4440433 55.1425106,11.4467509 55.2585239,11.4494585 C55.3720151,11.4548736 55.4905504,11.4575812 55.6065637,11.4494585" id="Fill-48" fill="#9C5D3D"></path>
                                <path d="M57.6780936,4.63613745 C57.5079431,4.58776266 57.3354933,4.54359437 57.3010033,4.53097486 C56.9055184,4.41529602 56.611204,4.29751392 56.3697742,4.16080256 C56.1628344,4.04302046 56.0409699,3.80745627 55.909908,3.55927256 C55.8156355,3.38259942 55.7213629,3.19961652 55.590301,3.05238889 C54.4475334,1.76730209 52.2102843,1.27303793 51.5503763,1.15104933 C50.2489548,0.91127863 49.2372492,0.957550168 48.5474498,1.28565744 C48.055393,1.52332488 47.673704,2.01338254 47.3954849,2.37093533 C47.3081104,2.48030442 47.2115385,2.58967351 47.1149666,2.69273285 C47.0804766,2.73269463 47.041388,2.77265641 47,2.81051495 C47.0827759,2.87150925 47.1126672,2.98298159 47.1264632,3.10286694 C47.2046405,3.02294337 47.2782191,2.94512306 47.354097,2.86519949 C47.4506689,2.7558304 47.5518395,2.64225481 47.6415134,2.52447271 C47.9036371,2.19215894 48.2623328,1.73154681 48.687709,1.52753139 C49.3154264,1.22676639 50.2604515,1.18890786 51.492893,1.41605905 C52.7966137,1.65582974 54.4958194,2.25735974 55.3511706,3.22064903 C55.4615385,3.34474089 55.5466137,3.50248477 55.6339883,3.67284816 C55.7788462,3.94627088 55.9260033,4.22810661 56.2088211,4.38795375 C56.4709448,4.53938787 56.7882525,4.66558297 57.2044314,4.78967483 C57.2550167,4.80439759 57.5677258,4.88852766 57.7792642,4.9432122 L57.9632107,4.99369024 C57.9770067,4.99789675 57.9885033,4.99789675 58,5 C57.8781355,4.83173986 57.7263796,4.68030574 57.6780936,4.63613745" id="Fill-49" fill="#9C5D3D"></path>
                                <path d="M46.9888144,3.28711192 C46.9910515,3.26432526 46.9865772,3.2415386 46.9776287,3.21647327 C46.9530203,3.12304796 46.9217006,3.04785199 46.8970922,3 C46.841164,3.06608131 46.7785245,3.12988396 46.7203592,3.20052261 C46.4272957,3.51953585 46.1006752,3.82259842 45.7852404,4.111989 C45.4630942,4.40821558 45.1319995,4.71127816 44.8299874,5.03940606 C44.2662316,5.65920321 44.042519,6.25393504 43.7852494,6.94437083 C43.7270842,7.09704146 43.6689189,7.25199074 43.6040422,7.4092187 C43.5570626,7.52998799 43.5100829,7.65987196 43.4608661,7.78519859 C43.3378242,8.12016249 43.210308,8.46424105 43.0380492,8.7695823 C43.033575,8.77413963 43.033575,8.78097563 43.0291007,8.78781162 C43.0291007,8.78781162 43.0291007,8.78781162 43.0291007,8.79009029 C43.0201522,8.79920495 43.0089666,8.81287695 43.0000181,8.82427028 C43.0000181,8.82882761 43.0000181,8.83110628 43.0000181,8.83338494 C42.997781,9.06580887 43.2035966,8.99517023 43.2617619,8.9701049 C43.2729475,8.95643291 43.2796589,8.93820358 43.2863703,8.92225292 C43.2886074,8.91769558 43.2908445,8.91769558 43.2930816,8.91541692 C43.4787631,8.58728902 43.6107536,8.23181712 43.7382698,7.88545989 C43.7852494,7.76241193 43.829992,7.6370853 43.8792088,7.51859466 C43.9418483,7.35908805 44.0022507,7.20186009 44.060416,7.04918947 C44.3064999,6.38837633 44.5235011,5.81643117 45.0469887,5.23765001 C45.3400523,4.91863677 45.6666727,4.62013152 45.9821075,4.33074094 C46.2595112,4.07780901 46.539152,3.81120509 46.80537,3.53320784 C46.8344527,3.50814252 46.8501125,3.48535586 46.8702467,3.46940519 C46.9217006,3.41699588 46.9552575,3.38509455 47,3.33724257 C46.9977629,3.31901324 46.9955257,3.30534124 46.9888144,3.28711192" id="Fill-50" fill="#383B39"></path>
                                <path d="M41.540827,9 L41.2552716,9.12215321 C40.860063,9.29192547 40.3666234,9.50310559 39.9714148,9.72256729 C39.2289709,10.1200828 38.5527758,10.2215321 37.8377452,10.3291925 C37.4174077,10.3913043 36.9810791,10.4554865 36.4990617,10.5817805 C36.2569107,10.6480331 36.0101909,10.7246377 35.7703244,10.8033126 C35.365978,10.9337474 34.947925,11.068323 34.5458631,11.1325052 C34.2922899,11.173913 34.0341479,11.184265 33.7600147,11.1987578 L32.9581753,11.2401656 C32.5858111,11.2505176 32.2088781,11.2960663 31.8502205,11.3374741 C31.471003,11.3850932 31.0757944,11.4327122 30.692008,11.436853 C28.9032893,11.4513458 27.0780195,11.2919255 25.3189985,11.1407867 L25.1750786,11.126294 C24.9100832,11.1055901 24.6473723,11.0869565 24.3869458,11.068323 C23.8592395,11.0289855 23.3178266,10.9875776 22.783267,10.9192547 C22.5936582,10.8964803 22.4040495,10.8674948 22.2144407,10.8385093 C21.6204856,10.73706 21.024246,10.5942029 20.446282,10.4554865 C20.1767177,10.3913043 19.9025846,10.3291925 19.6238825,10.2650104 C19.3817316,10.2111801 19.1350118,10.1594203 18.888292,10.1180124 C18.5524789,10.0538302 18.2143813,9.99792961 17.8739993,9.96480331 C17.3828441,9.91511387 16.8185868,9.86956522 16.3023027,9.90062112 C15.3017167,9.96480331 14.4359129,10.126294 13.4673091,10.7122153 C13.1634782,10.8944099 12.9007673,11.1055901 12.6220653,11.3291925 C12.4393099,11.4720497 12.25427,11.621118 12.0555235,11.7660455 C11.9915591,11.8115942 11.9824213,11.8923395 12.0303946,11.9503106 C12.0600924,11.9813665 12.1034968,12 12.1469012,12 C12.1788834,12 12.21315,11.989648 12.2405633,11.9710145 C12.4461632,11.8219462 12.6357719,11.6728778 12.8208118,11.5238095 C13.0926605,11.3064182 13.3485181,11.1014493 13.6340735,10.9296066 C14.5455661,10.3747412 15.37025,10.2236025 16.3228627,10.1614907 C16.8140179,10.1304348 17.3622841,10.1780538 17.8397327,10.2277433 C18.2806302,10.2670807 18.7215276,10.3457557 19.1532873,10.4306418 C19.564487,10.515528 19.9711179,10.6128364 20.3708953,10.7080745 C20.8323528,10.8198758 21.302948,10.931677 21.782681,11.0248447 C21.8786276,11.0414079 21.9791431,11.0621118 22.0773741,11.0786749 C22.1070719,11.0848861 22.1322008,11.0890269 22.1596141,11.0952381 C22.8906358,11.2173913 23.6376486,11.2732919 24.361817,11.3271222 C24.6222434,11.3478261 24.8826699,11.36853 25.1453808,11.389234 L25.2915852,11.4016563 C27.0574595,11.5569358 28.8850137,11.7122153 30.6942925,11.6977226 C31.0986388,11.6935818 31.5007008,11.6459627 31.8890561,11.5983437 C32.2431447,11.5569358 32.6086556,11.5113872 32.9695975,11.5031056 L33.7760058,11.4616977 C34.0478545,11.447205 34.3265566,11.4347826 34.6006897,11.3871636 C35.0255961,11.320911 35.4550713,11.1821946 35.8708399,11.0496894 C36.1061375,10.9730849 36.3505729,10.8964803 36.5858705,10.8343685 C37.047328,10.7122153 37.4745188,10.6480331 37.8880029,10.5859213 C38.6304468,10.4761905 39.3340552,10.3706004 40.1244724,9.94409938 C40.5105433,9.73706004 40.9948452,9.52795031 41.3832004,9.35817805 L42,9.0952381 C42,9.0952381 41.8218135,9.03519669 41.540827,9" id="Fill-51" fill="#383B39"></path>
                                <path d="M12.9692371,12.0534084 C12.9177421,11.9907637 12.8332902,11.981483 12.7756158,12.034847 L12.6437885,12.1554961 C12.2462468,12.5197634 11.8322268,12.900272 11.4614625,13.3179033 C10.7322929,14.1369248 10.285316,15.0139507 10.1370103,15.9141782 C10.0896349,16.1856386 10.0525585,16.4640595 10.0196016,16.7331997 C9.94544879,17.2923617 9.87129595,17.8677649 9.71063145,18.4130058 C9.6385384,18.6473434 9.57674436,18.8979222 9.51701012,19.1392203 C9.43461807,19.4617245 9.35222602,19.7865489 9.24305655,20.0997724 C9.22245854,20.1624171 9.19980073,20.2227417 9.17714291,20.2853864 C9.14212629,20.3712328 9.10710967,20.4663599 9.06591364,20.5522064 L9,20.6705353 C9.02265781,20.7285396 9.06591364,20.8515089 9.14212629,21 L9.30485059,20.6983774 C9.35222602,20.5962897 9.39342205,20.494202 9.43049847,20.3897942 C9.46551509,20.2993074 9.49641211,20.2088206 9.52524933,20.1183338 C9.52524933,20.1183338 9.52524933,20.1183338 9.52730913,20.1183338 C9.62411979,19.8190313 9.70239224,19.5150885 9.77860489,19.2157861 C9.83627933,18.9791283 9.89807336,18.73551 9.96810661,18.5058128 C10.1370103,17.9396903 10.213223,17.3480459 10.2873758,16.7749628 C10.3223924,16.510463 10.3574091,16.2343623 10.4027247,15.9675422 C10.5427912,15.1276392 10.9650504,14.3039774 11.6571437,13.5243988 C12.0176089,13.1160482 12.4233898,12.7471405 12.8188716,12.3851933 L12.9506989,12.2645443 C13.0083733,12.2135004 13.0166125,12.1183733 12.9692371,12.0534084" id="Fill-52" fill="#9C5D3D"></path>
                            </g>
                        </g>
                    </g>
                </g>
            </g>
        </g>
    </g>
</svg>