<?xml version="1.0" encoding="UTF-8"?>
<svg width="241px" height="49px" viewBox="0 0 241 49" version="1.1" xmlns="http://www.w3.org/2000/svg" xmlns:xlink="http://www.w3.org/1999/xlink">
    <!-- Generator: Sketch 51.3 (57544) - http://www.bohemiancoding.com/sketch -->
    <title>Group 37</title>
    <desc>Created with Sketch.</desc>
    <defs></defs>
    <g id="00-Home" stroke="none" stroke-width="1" fill="none" fill-rule="evenodd">
        <g id="00-E-Home-1920" transform="translate(-330.000000, -6173.000000)">
            <g id="Group-28" transform="translate(-1703.000000, -249.000000)">
                <g id="Módulo-8" transform="translate(1478.000000, 6198.000000)">
                    <g id="Group" transform="translate(555.000000, 224.000000)">
                        <g id="Group-37">
                            <path d="M42.4960899,12.0542204 C44.525418,9.65507838 45.3951301,8.49185801 45.2501781,7.91024783 C45.1052261,7.47404019 44.5978941,7.11053383 43.873134,6.81972874 C43.1483739,6.52892364 42.0612338,6.3835211 41.5539018,6.67432619 C41.4089498,6.81972874 41.1190457,7.11053383 40.3942857,7.91024783 L39.8144776,8.63726056 C39.3796216,8.20105292 38.9447656,7.76484528 38.5099095,7.40133892 C35.4659172,4.71139182 31.6246889,2.96656127 27.5660325,2.31224982 C25.8990844,0.567419265 23.7972802,-0.232294737 21.695476,0.0585103551 C19.8835759,0.349315447 18.3615797,1.43983454 17.2744396,3.03926254 C13.1433073,4.34788546 9.37455492,6.74702746 6.40303866,9.94588347 C5.7507546,9.80048093 4.30123447,10.0185847 3.35904639,10.5274937 C2.85171434,10.8182987 2.56181032,11.1818051 2.48933431,11.5453115 C2.4168583,11.8361166 2.56181032,12.2723242 3.72142642,13.5809471 C0.749910156,18.2338286 -0.482181954,23.7591253 0.170102104,29.1390195 C0.822386162,34.591615 3.35904639,39.6080028 7.49017876,43.1703652 C8.93969888,44.4062868 10.534171,45.4968059 12.2011192,46.2965199 C14.6653034,47.5324416 17.4193916,48.3321556 20.3184319,48.7683632 C26.4064164,49.5680772 32.276973,48.2594543 37.1328654,45.4241047 C37.7851494,45.0605983 38.0025775,44.3335856 37.6401974,43.6065728 L37.5677214,43.388469 C36.3356293,40.6258206 32.494401,32.0470704 34.5962052,24.195333 C35.5383932,20.9237757 38.0750535,17.4341146 40.3218097,14.6714662 C42.6410419,18.3792311 43.873134,22.7413075 43.655706,27.0306826 C43.510754,31.1019539 42.2061858,34.8824201 39.8144776,38.0812761 C39.7420016,38.1539774 39.6695256,38.2266786 39.6695256,38.3720812 C39.7420016,38.4447825 39.7420016,38.4447825 39.7420016,38.5174837 L39.9594296,39.0990939 C40.0319056,39.2444965 40.2493337,39.389899 40.4667617,39.389899 C40.5392377,39.3171977 40.6841897,39.2444965 40.7566657,39.1717952 C46.9896023,31.2473564 47.7868383,20.2694642 42.4960899,12.0542204 Z M14.8102554,30.5203437 C14.3029234,33.5010959 13.6506393,37.4996659 14.2304474,43.6065728 C12.6359752,42.8068588 11.1139791,41.7163397 9.73693495,40.5531194 C5.96818262,37.2815621 3.43152239,32.8467844 2.63428632,28.0485004 C1.76457425,23.395619 2.56181032,18.6700362 4.73609051,14.7441675 C5.60580259,15.6165828 6.62046668,16.6344006 7.70760677,17.6522184 C10.316743,20.2694642 13.2157833,23.1775151 14.6653034,25.2858521 C15.5350155,26.4490724 15.2451114,27.9757992 14.8102554,30.5203437 Z M37.4227694,11.1091038 C32.639353,15.9800891 28.1458406,18.5973349 24.0147082,18.88814 C20.8257639,19.1062439 17.4918676,18.1611273 14.0130193,16.0527904 C11.1864551,14.3079598 9.01217489,12.2723242 7.70760677,11.0364026 L7.56265476,10.891 C9.88188697,8.34645547 12.8534032,6.52892364 16.1872995,5.51110582 C16.1872995,5.51110582 16.1872995,5.51110582 16.1872995,5.51110582 C16.1872995,5.51110582 16.1872995,5.51110582 16.1872995,5.51110582 C15.8249195,6.81972874 15.8249195,8.20105292 16.0423475,9.58237711 C16.4047275,12.1269217 17.7092957,14.3079598 19.5211958,15.689284 C20.970716,16.7071019 22.7101401,17.1433095 24.3046123,16.9252057 C25.9715604,16.6344006 27.4210805,15.689284 28.5082206,14.2352586 C29.8127887,12.4177268 30.3925968,9.8731822 29.9577408,7.40133892 C29.9577408,6.96513128 29.8127887,6.45622237 29.6678367,6.02001473 C32.0595449,6.96513128 34.3063011,8.27375419 36.2631533,10.0185847 C36.6980094,10.3820911 37.0603894,10.7455975 37.4227694,11.1091038 Z" id="Fill-10" fill="#DA281B"></path>
                            <path d="M118.432455,24.9734513 L114.499807,24.9734513 L114.499807,29.6371681 C114.499807,30.6902655 115.082421,31.4424779 116.174824,31.4424779 C116.903092,31.4424779 117.558533,31.2168142 118.432455,30.7654867 L118.432455,33.3230088 C117.267226,33.8495575 116.393304,34 115.300902,34 C113.04327,34 111.076946,32.9469027 111.076946,29.7876106 L111.076946,24.9734513 L109.547583,24.9734513 L109.547583,24.2964602 L114.062846,19.1061947 L114.499807,19.1061947 L114.499807,22.5663717 L118.432455,22.5663717 L118.432455,24.9734513 Z M165.187276,28.7345133 C162.856818,29.8628319 161.400281,30.539823 159.36113,30.539823 C156.011096,30.539823 153.607811,28.4336283 153.607811,25.5 C153.607811,22.5663717 156.011096,20.460177 159.433957,20.460177 C161.400281,20.460177 163.220952,21.1371681 164.968796,22.1150442 L164.968796,18.4292035 C163.366606,17.4513274 161.400281,17 159.14265,17 C153.025197,17 149.456682,21.1371681 149.456682,25.5752212 C149.456682,29.8628319 152.588236,34 158.851342,34 C161.254628,34 162.929645,33.5486726 165.187276,32.3451327 L165.187276,28.7345133 Z M81.8005626,32.3451327 L79.3972774,34 C78.3777018,33.7743363 77.6494336,33.2477876 77.2852995,32.6460177 C76.6298581,33.2477876 75.828763,34 74.0809192,34 C70.3667512,34 68.9102147,30.6150442 68.9102147,28.2079646 C68.9102147,25.5 70.5124048,22.340708 74.153746,22.340708 C75.6102825,22.340708 76.4842044,22.7920354 76.9939922,23.0929204 L76.9939922,22.5663717 L80.4168529,22.5663717 L80.4168529,29.9380531 C80.4168529,30.9159292 80.5625066,32.0442478 81.8005626,32.3451327 Z M76.9939922,25.3495575 C76.5570312,25.1238938 75.9744166,24.7477876 75.0276679,24.7477876 C73.0613437,24.7477876 72.4059023,26.8539823 72.4059023,28.4336283 C72.4059023,29.9380531 73.1341705,31.5176991 75.1004948,31.5176991 C76.1200703,31.5176991 76.6298581,31.0663717 76.9939922,30.7654867 L76.9939922,25.3495575 Z M104.813839,28.7345133 L97.0213688,28.7345133 C97.0941956,30.7654867 98.4779053,31.8938053 100.589883,31.8938053 C101.973593,31.8938053 102.993168,31.5176991 104.595359,30.3141593 L104.595359,32.4955752 C102.629034,34 100.589883,34 99.7887881,34 C95.9289664,34 93.4528544,31.7433628 93.4528544,28.2079646 C93.4528544,24.8230088 95.8561396,22.340708 99.2061735,22.340708 C102.337727,22.340708 104.959493,24.6725664 104.813839,28.7345133 Z M101.900766,26.9292035 C101.755112,25.3495575 100.88119,24.4469027 99.5703076,24.4469027 C98.2594248,24.4469027 97.3855029,25.3495575 97.2398493,26.9292035 L101.900766,26.9292035 Z M144.358804,28.7345133 L136.566334,28.7345133 C136.711988,30.7654867 138.022871,31.9690265 140.134849,31.9690265 C141.518558,31.9690265 142.610961,31.5176991 144.213151,30.3141593 L144.213151,32.5707965 C142.246827,34 140.207675,34 139.333754,34 C135.546759,34 133.070647,31.7433628 133.070647,28.2079646 C133.070647,24.8230088 135.401105,22.340708 138.751139,22.340708 C141.882692,22.340708 144.504458,24.6725664 144.358804,28.7345133 Z M141.372905,26.9292035 C141.227251,25.3495575 140.280502,24.4469027 138.969619,24.4469027 C137.658737,24.4469027 136.784815,25.3495575 136.639161,26.9292035 L141.372905,26.9292035 Z M123.748813,17.2256637 L120.325953,17.2256637 L120.325953,33.7743363 L123.748813,33.7743363 L123.748813,27.1548673 C123.748813,26.1017699 124.404255,24.9734513 126.006445,24.9734513 C127.098847,24.9734513 127.754289,25.7256637 127.754289,27.380531 L127.754289,33.7743363 L131.177149,33.7743363 L131.177149,26.6283186 C131.177149,23.619469 129.210825,22.340708 127.244501,22.340708 C125.860791,22.340708 124.695562,22.9424779 123.748813,24.2212389 L123.748813,17.2256637 Z M171.159076,17.2256637 L167.736215,17.2256637 L167.736215,33.7743363 L171.159076,33.7743363 L171.159076,27.1548673 C171.159076,26.1017699 171.887344,24.9734513 173.489534,24.9734513 C174.50911,24.9734513 175.237378,25.7256637 175.237378,27.380531 L175.237378,33.7743363 L178.660239,33.7743363 L178.660239,26.6283186 C178.660239,23.619469 176.621088,22.340708 174.654763,22.340708 C173.34388,22.340708 172.178651,22.9424779 171.159076,24.2212389 L171.159076,17.2256637 Z M66.5797563,18.2787611 C64.5406053,17.3761062 62.9384151,17 61.1177445,17 C57.4035765,17 55,18.880531 55,21.7389381 C55,27.7566372 63.1568956,26.7035398 63.1568956,29.4867257 C63.1568956,30.3893805 62.3558005,30.9911504 60.8264372,30.9911504 C59.0785935,30.9911504 57.622057,30.3893805 55.3641341,28.8097345 L55.3641341,32.420354 C56.8934974,33.2477876 58.3503252,34 61.1177445,34 C64.6862589,34 67.3080246,32.1946903 67.3080246,28.960177 C67.3080246,23.1681416 59.1514203,23.920354 59.1514203,21.3628319 C59.1514203,20.6106195 60.0253422,20.0088496 61.4818787,20.0088496 C62.8655883,20.0088496 64.249298,20.460177 66.5797563,21.5132743 L66.5797563,18.2787611 Z M182.592887,17 C181.573312,17 180.69939,17.9026549 180.69939,18.9557522 C180.69939,20.0088496 181.573312,20.9115044 182.592887,20.9115044 C183.612463,20.9115044 184.486385,20.0088496 184.486385,18.9557522 C184.486385,17.9026549 183.612463,17 182.592887,17 Z M184.267904,22.5663717 L180.91787,22.5663717 L180.91787,33.7743363 L184.267904,33.7743363 L184.267904,22.5663717 Z M190.31253,17.2256637 L186.88967,17.2256637 L186.88967,29.4115044 C186.88967,31.5929204 187.472284,33.9247788 191.040799,34 L192.133201,31.4424779 C190.676665,31.2168142 190.31253,30.4646018 190.31253,28.8097345 L190.31253,17.2256637 Z M210.558388,22.5663717 L207.135527,22.5663717 L207.135527,33.7743363 L210.558388,33.7743363 L210.558388,28.8849558 C210.558388,26.7787611 211.577963,25.6504425 213.325807,25.6504425 C213.835595,25.6504425 214.491036,25.9513274 215.364958,26.4778761 L216.311707,23.3938053 C215.292131,22.6415929 214.709517,22.340708 214.054075,22.340708 C212.961673,22.340708 211.359483,23.0176991 210.558388,25.199115 L210.558388,22.5663717 Z M228.036825,28.7345133 L220.171528,28.7345133 C220.317182,30.7654867 221.628065,31.9690265 223.81287,31.9690265 C225.123752,31.9690265 226.216155,31.5176991 227.818345,30.3141593 L227.818345,32.5707965 C225.852021,34 223.81287,34 222.938948,34 C219.151953,34 216.675841,31.7433628 216.675841,28.2079646 C216.675841,24.8230088 219.079126,22.340708 222.42916,22.340708 C225.560713,22.340708 228.182479,24.6725664 228.036825,28.7345133 Z M224.978099,26.9292035 C224.832445,25.3495575 223.958523,24.4469027 222.64764,24.4469027 C221.263931,24.4469027 220.390009,25.3495575 220.244355,26.9292035 L224.978099,26.9292035 Z M236.994525,22.4159292 C235.683642,22.4159292 234.518413,22.9424779 233.571664,24.2964602 L233.571664,22.5663717 L230.148803,22.5663717 L230.148803,33.8495575 L233.571664,33.8495575 L233.571664,27.1548673 C233.571664,26.1769912 234.227105,24.9734513 235.829295,24.9734513 C236.921698,24.9734513 237.577139,25.7256637 237.577139,27.4557522 L237.577139,33.8495575 L241,33.8495575 L241,26.7035398 C241,23.619469 239.033676,22.4159292 236.994525,22.4159292 Z M204.586588,17.2256637 L201.163727,17.2256637 L201.163727,23.0929204 C200.289805,22.6415929 199.343057,22.340708 198.323481,22.340708 C195.264754,22.340708 193.07995,24.7477876 193.07995,28.2079646 C193.07995,31.5176991 195.264754,34 198.177827,34 C199.343057,34 200.216979,33.699115 201.163727,32.8716814 L201.163727,33.7743363 L204.586588,33.7743363 L204.586588,17.2256637 Z M201.163727,30.7654867 C200.435459,31.3672566 199.852844,31.6681416 199.124576,31.6681416 C197.522386,31.6681416 196.50281,30.3141593 196.50281,28.2831858 C196.50281,26.0265487 197.522386,24.7477876 199.27023,24.7477876 C199.852844,24.7477876 200.653939,25.0486726 201.163727,25.3495575 L201.163727,30.7654867 Z M93.3072008,22.5663717 L89.7386864,22.5663717 L87.408228,28.7345133 L85.0777697,22.5663717 L81.7277357,22.5663717 L86.3886525,33.7743363 L88.4278036,33.7743363 L93.3072008,22.5663717 Z" id="Fill-11" fill="#000000"></path>
                        </g>
                    </g>
                </g>
            </g>
        </g>
    </g>
</svg>