<?xml version="1.0" encoding="UTF-8"?>
<svg width="184px" height="32px" viewBox="0 0 184 32" version="1.1" xmlns="http://www.w3.org/2000/svg" xmlns:xlink="http://www.w3.org/1999/xlink">
    <!-- Generator: Sketch 50.2 (55047) - http://www.bohemiancoding.com/sketch -->
    <title>Group 50</title>
    <desc>Created with Sketch.</desc>
    <defs></defs>
    <g id="00-Home" stroke="none" stroke-width="1" fill="none" fill-rule="evenodd">
        <g id="00-E-Home-2560" transform="translate(-1736.000000, -4183.000000)">
            <g id="Group-49" transform="translate(-1360.000000, -250.000000)">
                <g id="Group-50" transform="translate(3096.000000, 4433.000000)">
                    <path d="M166.71655,18.9543596 C166.691361,17.7683804 166.287526,16.634554 165.34671,15.7125238 C163.767355,14.1650578 161.285969,14.3537635 159.890539,16.1393012 C159.267194,16.9367219 158.966117,17.8503917 158.93493,18.8596087 C158.889748,20.31312 159.344363,21.5584181 160.473901,22.514686 C161.922109,23.7408746 164.038045,23.6600576 165.388293,22.3239897 C166.293523,21.4278369 166.708953,20.3230728 166.71655,18.9543596 Z M171,26.8155028 L166.906473,26.8155028 L166.906473,25.1227255 C166.562213,25.3978217 166.263136,25.6629651 165.938068,25.8914821 C165.045233,26.5193066 164.047641,26.8819877 162.958886,26.970767 C159.917728,27.2175972 157.702633,25.8914821 156.146069,23.3662501 C155.485939,22.2957237 155.158473,21.1097445 155.04252,19.8580766 C154.877788,18.0745295 155.186861,16.384937 156.054507,14.8187597 C157.125269,12.8875126 158.717819,11.5761277 160.914921,11.1433787 C162.941693,10.7444692 164.810129,11.1720428 166.431467,12.5001484 C166.510634,12.5650409 166.585804,12.6367013 166.653376,12.7135371 C166.714151,12.783605 166.762531,12.864422 166.816509,12.9408598 C166.843298,12.9249352 166.870487,12.9090107 166.897276,12.8930862 L166.897276,11.3667202 L171,11.3667202 L171,26.8155028 Z" id="Fill-5" fill="#1D1D1B"></path>
                    <path d="M146,26.9943835 L144.275296,26.9943835 C143.31866,26.9943835 142.362024,26.9887961 141.405771,26.9999708 C141.249781,27.0015672 141.176577,26.937712 141.107972,26.8151899 C139.985764,24.79577 138.86164,22.7779466 137.737133,20.759325 C137.699956,20.6918779 137.660863,20.62483 137.608355,20.5330382 C137.184845,20.9979837 136.769766,21.4533509 136.35507,21.9095162 C136.319043,21.9494257 136.293747,22.0025053 136.251971,22.0344329 C135.828844,22.358897 135.728044,22.7871258 135.746441,23.3271011 C135.787067,24.534762 135.759089,25.7444185 135.759089,26.9740296 L132,26.9740296 L132,6 L135.751424,6 L135.751424,17.1730588 C136.013579,16.8753341 136.232808,16.6334826 136.444755,16.3860438 C137.019656,15.7147663 137.591491,15.0414933 138.165243,14.3690186 C138.869306,13.5440895 139.576435,12.7219542 140.275898,11.8930342 C140.428055,11.7130425 140.577146,11.6128697 140.830486,11.6156633 C142.424113,11.6320262 144.018123,11.6236452 145.651993,11.6236452 C145.560775,11.7401809 145.49332,11.8383582 145.414367,11.9249618 C144.747098,12.6592963 144.07638,13.390438 143.409877,14.1247725 C142.394601,15.2426371 141.384691,16.36569 140.363283,17.4775682 C140.230289,17.6224396 140.30426,17.7074468 140.372481,17.8191933 C142.168857,20.7461548 143.965232,23.6727172 145.761608,26.5996787 C145.833662,26.7174116 145.904566,26.8363419 146,26.9943835" id="Fill-6" fill="#1D1D1B"></path>
                    <path d="M129.95404,16.5206364 C128.601551,16.5206364 127.286774,16.5230112 125.972389,16.5139077 C125.905609,16.5131161 125.818009,16.4288103 125.776763,16.3607324 C125.15571,15.3316478 124.243576,14.7403199 123.06825,14.6069347 C122.198541,14.50838 121.39404,14.7616932 120.697565,15.299192 C119.709616,16.0615063 119.1577,17.0850497 118.980537,18.3195555 C118.791197,19.6454915 119.055174,20.8661442 119.868709,21.9344133 C120.678317,22.9959537 121.753866,23.5615544 123.09457,23.4313356 C124.234541,23.3209069 125.131355,22.7370993 125.735124,21.7444284 C125.859256,21.5401947 125.984959,21.4630133 126.223402,21.4657839 C127.390479,21.4792412 128.557555,21.4721168 129.724631,21.4721168 L130,21.4721168 C129.781983,22.3654414 129.438656,23.1827721 128.934665,23.9272753 C127.850474,25.5306683 126.334571,26.469906 124.457664,26.8285024 C122.592935,27.184724 120.787129,27.0058216 119.094063,26.1049767 C117.148019,25.069955 115.896486,23.4467719 115.32925,21.3185457 C114.666165,18.8340978 114.990637,16.4711611 116.429939,14.3251238 C117.637869,12.5242257 119.337613,11.4488322 121.480461,11.1124007 C123.111068,10.8559211 124.693751,11.0273033 126.191584,11.7409339 C128.03078,12.6172391 129.195106,14.0919966 129.815373,16.0243009 C129.864869,16.1782678 129.902973,16.3357969 129.95404,16.5206364" id="Fill-8" fill="#1D1D1B"></path>
                    <path d="M102.869171,19.2419431 C102.887076,20.4460048 103.281778,21.6936059 104.386477,22.6269319 C105.107373,23.2364832 105.955165,23.4957404 106.873022,23.3789757 C108.240467,23.2048182 109.184793,22.4068601 109.746096,21.1442181 C110.295331,19.9084914 110.321022,18.6232881 109.910749,17.356688 C109.432747,15.8807031 108.498152,14.8412994 106.904552,14.6220193 C105.698647,14.4561738 104.701772,14.9184828 103.925602,15.8482465 C103.163056,16.7617818 102.87968,17.855016 102.869171,19.2419431 M99,19.028996 C99.0591664,17.0887229 99.5955564,15.3313153 100.789005,13.8153533 C101.950534,12.34016 103.451103,11.4151461 105.297328,11.1095788 C107.524242,10.7414732 109.517604,11.3023395 111.238101,12.768825 C112.617612,13.9439924 113.458397,15.4686623 113.815342,17.2656512 C114.158663,18.9945603 114.034491,20.6854714 113.348239,22.307907 C112.332679,24.7104891 110.574036,26.2628658 108.049344,26.8154201 C105.775719,27.3125606 103.689326,26.8027541 101.871905,25.3188529 C100.470596,24.1741631 99.6150191,22.6641383 99.2471754,20.880607 C99.1218361,20.272639 99.0797968,19.6464635 99,19.028996" id="Fill-7" fill="#1D1D1B"></path>
                    <path d="M103,18.7494694 C103.017117,19.9784568 103.394429,21.2518849 104.450457,22.204532 C105.139592,22.8267018 105.950032,23.091326 106.827451,22.9721441 C108.134649,22.7943813 109.037371,21.9799044 109.573943,20.6911241 C110.098981,19.4298162 110.123539,18.1180075 109.731343,16.825187 C109.2744,15.3186473 108.380981,14.2577265 106.857592,14.033907 C105.704817,13.8646283 104.751861,14.3365078 104.009887,15.2855187 C103.280938,16.2179655 103.010047,17.3338311 103,18.7494694" id="Path" fill="#D8D8D8"></path>
                    <path d="M99,19.028996 C99.0591664,17.0887229 99.5955564,15.3313153 100.789005,13.8153533 C101.950534,12.34016 103.451103,11.4151461 105.297328,11.1095788 C107.524242,10.7414732 109.517604,11.3023395 111.238101,12.768825 C112.617612,13.9439924 113.458397,15.4686623 113.815342,17.2656512 C114.158663,18.9945603 114.034491,20.6854714 113.348239,22.307907 C112.332679,24.7104891 110.574036,26.2628658 108.049344,26.8154201 C105.775719,27.3125606 103.689326,26.8027541 101.871905,25.3188529 C100.470596,24.1741631 99.6150191,22.6641383 99.2471754,20.880607 C99.1218361,20.272639 99.0797968,19.6464635 99,19.028996" id="Path" fill="#1D1D1B"></path>
                    <path d="M97,21.4733098 C96.7881945,22.3363995 96.4771789,23.1131802 96.0149861,23.8206762 C94.8697402,25.5714022 93.2371053,26.5544534 91.1950321,26.8806855 C89.487596,27.1534693 87.8364576,26.9705577 86.2742933,26.207238 C84.9117302,25.5413128 83.8523088,24.5317354 83.0920922,23.2117625 C82.2421142,21.7357999 81.9074772,20.1327494 82.0216475,18.4457654 C82.1503843,16.5370702 82.8180836,14.8413761 84.1298606,13.4248005 C85.315263,12.1452106 86.7652255,11.3743686 88.4813228,11.1106907 C90.2415135,10.8402824 91.9355641,11.050512 93.5142634,11.9052875 C95.3094926,12.8768573 96.3980471,14.4149781 96.9366158,16.3699951 C96.9468518,16.406815 96.9484265,16.4464062 96.956694,16.5053972 C96.8870108,16.51094 96.8212645,16.520046 96.7559118,16.520046 C95.5315341,16.5208378 94.3071563,16.5176705 93.0823849,16.524401 C92.9312077,16.5251929 92.8552254,16.4753079 92.7737314,16.3462403 C92.0068221,15.1307883 90.9017326,14.4985157 89.4722421,14.6101631 C88.150229,14.7138922 87.173089,15.4637509 86.559719,16.6126896 C85.6022635,18.4045904 85.6459631,20.1996586 86.8321529,21.8818917 C87.618353,22.9975737 88.7321037,23.5672921 90.1045092,23.4322859 C91.2662901,23.318263 92.1733533,22.7188512 92.7749125,21.6977923 C92.8764847,21.5247785 92.9796316,21.4665793 93.1756895,21.4681629 C94.3532181,21.4780608 95.5307467,21.4733098 96.708669,21.4733098 L97,21.4733098 Z" id="Fill-9" fill="#1D1D1B"></path>
                    <path d="M73.210119,17.4118725 C73.2124527,17.3738762 73.2206204,17.3489412 73.2147863,17.3279641 C72.8312895,15.979889 72.1245819,14.8589998 70.9620342,14.0741399 C69.9581749,13.3965403 68.8613584,13.1230465 67.6603055,13.3636893 C66.389632,13.618185 65.3939405,14.3171576 64.6137228,15.3442435 C64.1485482,15.956933 63.8303936,16.649177 63.6619817,17.4118725 L73.210119,17.4118725 Z M76,19.6825438 L63.4542867,19.6825438 C63.5538559,20.1218754 63.6153087,20.5430004 63.7452153,20.9411694 C64.3651889,22.8397942 65.5907451,24.1372076 67.5311768,24.5801014 C69.2884168,24.9810409 70.8889131,24.6002869 72.1553083,23.2165903 C72.4684066,22.8742283 72.6792132,22.434501 72.942138,22.0434563 C72.9829769,21.9828998 73.0506528,21.8981998 73.1066604,21.8974082 C73.9226608,21.888305 74.7386611,21.8910755 75.6032792,21.8910755 C75.4850408,22.2037529 75.38975,22.4942659 75.2672333,22.7725092 C74.2855436,25.0024138 72.6263171,26.3726533 70.2588271,26.832962 C68.4883631,27.1765113 66.7735178,27.0086946 65.1644647,26.1561539 C63.110462,25.0677198 61.8040058,23.3416613 61.2598759,21.0646572 C60.6741293,18.6142953 61.0743506,16.308794 62.5033235,14.2300829 C63.6973755,12.4933379 65.3344324,11.4076744 67.4001033,11.08906 C69.4513835,10.7724247 71.3116931,11.3027889 72.9269692,12.6370112 C74.5002396,13.9360078 75.4080303,15.6402976 75.7580781,17.6552859 C75.872427,18.3119085 75.9183222,18.9808007 76,19.6825438 Z" id="Fill-10" fill="#1D1D1B"></path>
                    <path d="M49.3564043,27 L47,27 L47,6 L49.35301,6 L49.35301,13.1306283 C49.612486,12.879758 49.8225559,12.6496604 50.0582718,12.4539177 C50.8325512,11.8095646 51.7052656,11.411288 52.689615,11.2894482 C54.1084359,11.1136792 55.4454163,11.3353878 56.64587,12.1986532 C57.7441173,12.9892142 58.3973331,14.1205273 58.7114951,15.4575701 C58.8714048,16.1394738 58.9762512,16.8549335 58.9826627,17.5556126 C59.0117029,20.6335673 58.9954856,23.7127204 58.9954856,26.7910746 L58.9954856,26.9948068 L56.6398356,26.9948068 L56.6398356,26.6900074 C56.6398356,23.6508018 56.6398356,20.6119957 56.6402128,17.5731895 C56.6402128,16.8641214 56.5353664,16.1738287 56.2457187,15.5334703 C55.7297839,14.3925698 54.8619724,13.7665925 53.6773588,13.6123951 C52.6877293,13.4837642 51.7678718,13.6655253 50.9445634,14.2751241 C50.0269687,14.95543 49.5219711,15.9021857 49.3993988,17.0754437 C49.3658329,17.3962221 49.35829,17.7209953 49.3579128,18.04457 C49.3552728,20.9327741 49.3564043,23.8213776 49.3564043,26.7095817 L49.3564043,27 Z" id="Fill-11" fill="#1D1D1B"></path>
                    <path d="M150.742249,11.5403217 L153.82229,11.5403217 L153.82229,14.9885846 L150.74586,14.9885846 L150.74586,15.279312 C150.74586,17.0928225 150.737837,18.9063329 150.749871,20.7194506 C150.754284,21.4077674 150.934401,22.0564038 151.420998,22.5785345 C151.771604,22.9549087 152.22651,23.176883 152.737577,23.2578152 C153.149158,23.3230324 153.567559,23.3462121 154,23.3894283 L154,26.9496605 C152.322786,27.1048461 150.729011,26.9382672 149.325784,25.9234713 C148.317289,25.1946884 147.723184,24.1940361 147.360944,23.0421269 C147.117846,22.2677705 147.004722,21.4710202 147.003919,20.6644481 C146.997501,15.8698029 147.00071,11.0751578 147.001512,6.28051267 C147.001512,6.18975857 147.010338,6.09821872 147.015954,6 L150.742249,6 L150.742249,11.5403217 Z" id="Fill-12" fill="#1D1D1B"></path>
                    <polygon id="Fill-13" fill="#1D1D1B" points="180 27 184 27 184 6 180 6"></polygon>
                    <path d="M41.5206399,11.6270794 L44.9361628,11.6270794 L44.9361628,14.0220241 L41.5412397,14.0220241 C41.5343731,14.1256912 41.525487,14.2006927 41.525487,14.2756943 C41.5246791,16.694985 41.5194282,19.1142757 41.5279105,21.5339592 C41.530334,22.3373789 41.6939204,23.1011381 42.2497103,23.7400256 C42.6540313,24.2053493 43.1811431,24.4582341 43.7862108,24.5493355 C44.1699321,24.6078445 44.5617316,24.6137347 44.9733231,24.645149 C44.9765545,24.657322 44.9963464,24.6997313 44.9963464,24.7425332 C44.9987699,25.4191178 44.9959425,26.0960951 44.9999817,26.7726798 C45.0007895,26.8916613 44.9753427,26.9662702 44.8367992,26.9756944 C43.8896136,27.0420571 42.9606043,26.9874748 42.0703711,26.623462 C40.7883383,26.0996292 39.9643474,25.163877 39.48409,23.9190869 C39.1904423,23.1584691 39.0543223,22.3676151 39.0523027,21.5579125 C39.0466478,19.1460827 39.0502831,16.7350382 39.0502831,14.3232083 L39.0502831,14.0385166 L37,14.0385166 L37,11.634933 L39.0401852,11.634933 L39.0401852,6 L41.5206399,6 L41.5206399,11.6270794 Z" id="Fill-14" fill="#1D1D1B"></path>
                    <polygon id="Fill-15" fill="#1D1D1B" points="174 27 178 27 178 12 174 12"></polygon>
                    <polygon id="Fill-15-Copy" fill="#1D1D1B" points="174 11 178 11 178 7 174 7"></polygon>
                    <path d="M13.6859294,27.6031527 C14.8146009,27.5582266 15.8321392,27.4671921 17.2236681,27.0151724 C20.2888938,26.0185222 22.7361877,24.1765517 24.6022,21.5566502 C26.0611182,19.5081773 26.9478189,17.2362562 27.1763906,14.7266995 C27.2784597,13.6063054 27.2126468,12.4866995 26.9486071,11.3879803 C26.3109708,8.73300493 24.7945156,6.73970443 22.3803252,5.46364532 C20.4587463,4.448867 18.3949012,4.27231527 16.27746,4.59270936 C14.828394,4.81221675 13.4616927,5.29891626 12.1738092,5.99842365 C9.80533317,7.2835468 7.93498587,9.10384236 6.49616623,11.369064 C5.35409575,13.1676847 4.65695197,15.1318227 4.44138519,17.2559606 C4.33064612,18.3471921 4.39094177,19.4340887 4.62503075,20.5064039 C5.0971496,22.6691626 6.16788993,24.4642365 7.94641446,25.8057143 C9.61853489,27.066798 11.5385374,27.5700493 13.6859294,27.6031527 Z M30.3562963,0 C30.4426019,0.0295566502 30.5277251,0.0622660099 30.6148188,0.0886699507 C31.4877264,0.347980296 31.9665448,1.00689655 31.9988601,1.99566502 C32.0008305,2.05832512 31.9996483,2.12059113 31.9996483,2.18325123 C31.9996483,11.4100493 32.0008305,20.6372414 31.9953133,29.8644335 C31.9953133,30.1647291 31.976397,30.4788177 31.8889092,30.7625616 C31.6461502,31.551133 31.0124548,31.959803 30.0552122,31.9980296 C29.9850643,32.0011823 29.9145223,31.9996059 29.8443745,31.9996059 L2.16276148,31.9996059 C1.75606144,31.9996059 1.35330228,31.9826601 0.983252532,31.7816749 C0.479606546,31.5073892 0.175763779,31.0884729 0.0610838247,30.5280788 C0.0488670597,30.4689655 0.0208867271,30.413399 0,30.3562562 L0,1.68630542 C0.0193103704,1.6453202 0.0484729705,1.60591133 0.0571429328,1.56256158 C0.209261361,0.798817734 0.670739804,0.319605911 1.40413979,0.0874876847 C1.49793302,0.0579310345 1.59251442,0.0291625616 1.68630765,0 L30.3562963,0 Z" id="Fill-3" fill="#709811"></path>
                    <path d="M10.999429,21.5165496 C11.3324098,21.1899173 11.6059178,20.9288805 11.8716977,20.6597705 C12.0534763,20.4754301 12.0390281,20.2446682 11.8478413,20.0879116 C11.6949591,19.962439 11.482268,19.9738762 11.3293858,20.1313056 C11.065958,20.4017612 10.8105943,20.6796174 10.5427984,20.9628557 C10.446029,20.8730402 10.3922682,20.8246004 10.3405234,20.7744787 C10.1106961,20.5531356 9.88792488,20.3233829 9.64969743,20.1114587 C9.41785406,19.9049168 9.11914573,19.997087 9.01901628,20.2917625 C8.95416733,20.4828306 9.06672897,20.6066213 9.18265065,20.727048 C9.42491016,20.9793387 9.66985772,21.2292747 9.92488542,21.491657 C9.66044958,21.7708587 9.40071781,22.0453509 9.14132205,22.3195068 C8.96122344,22.5095658 8.95349532,22.7140894 9.11981774,22.8785829 C9.28412412,23.0407218 9.4964792,23.0316393 9.68161789,22.8550358 C9.95579787,22.593999 10.2299778,22.3339715 10.5461584,22.0335773 C10.6402398,22.1472763 10.723233,22.2596298 10.8186584,22.3598733 C10.9930449,22.5425318 11.1691115,22.7251902 11.3555942,22.8950659 C11.5182205,23.0430765 11.7235195,23.0302937 11.8753937,22.8832924 C12.0289479,22.7352818 12.0407081,22.5384951 11.9012661,22.3659283 C11.8428012,22.2939413 11.7799683,22.2243091 11.7117593,22.1614046 C11.4873081,21.9545263 11.2591608,21.7510118 10.999429,21.5165496" id="Fill-17" fill="#709812"></path>
                    <path d="M103,18.7494694 C103.010047,17.3338311 103.280938,16.2179655 104.009887,15.2855187 C104.751861,14.3365078 105.704817,13.8646283 106.857592,14.033907 C108.380981,14.2577265 109.2744,15.3186473 109.731343,16.825187 C110.123539,18.1180075 110.098981,19.4298162 109.573943,20.6911241 C109.037371,21.9799044 108.134649,22.7943813 106.827451,22.9721441 C105.950032,23.091326 105.139592,22.8267018 104.450457,22.204532 C103.394429,21.2518849 103.017117,19.9784568 103,18.7494694" id="Fill-19" fill="#FEFEFE"></path>
                </g>
            </g>
        </g>
    </g>
</svg>