<?xml version="1.0" encoding="UTF-8"?>
<svg width="98px" height="38px" viewBox="0 0 98 38" version="1.1" xmlns="http://www.w3.org/2000/svg" xmlns:xlink="http://www.w3.org/1999/xlink">
    <!-- Generator: Sketch 50.2 (55047) - http://www.bohemiancoding.com/sketch -->
    <title>Group 47</title>
    <desc>Created with Sketch.</desc>
    <defs>
        <polygon id="path-1" points="2.84110153e-05 0.130320513 51.9860068 0.130320513 51.9860068 37.9999821 2.84110153e-05 37.9999821"></polygon>
        <polygon id="path-3" points="0.234072173 0.0292438356 21.9134505 0.0292438356 21.9134505 35.9742336 0.234072173 35.9742336"></polygon>
    </defs>
    <g id="00-Home" stroke="none" stroke-width="1" fill="none" fill-rule="evenodd">
        <g id="00-E-Home-2560" transform="translate(-1124.000000, -4032.000000)">
            <g id="Group-49" transform="translate(-1360.000000, -250.000000)">
                <g id="Group-28">
                    <g id="Módulo-5" transform="translate(2031.000000, 4101.000000)">
                        <g id="Group-10" transform="translate(0.000000, 174.000000)">
                            <g id="Group-8">
                                <g id="Group-47" transform="translate(453.000000, 7.000000)">
                                    <g id="Group-3">
                                        <mask id="mask-2" fill="white">
                                            <use xlink:href="#path-1"></use>
                                        </mask>
                                        <g id="Clip-2"></g>
                                        <path d="M31.8053295,21.6239487 C34.0056724,21.7182179 36.13272,21.9985897 38.3263771,21.7140769 C38.2216343,21.350641 38.1768152,21.1455385 38.1040152,20.9506667 C37.4589676,19.2282436 37.018701,17.4186154 35.9457676,15.8752308 C35.4487962,15.1607821 35.1620533,15.1581026 34.5858438,15.8175 C33.8952343,16.6077051 33.4777486,17.5572179 33.052339,18.4921154 C32.5982057,19.4896154 32.0779581,20.4686026 31.8053295,21.6239487 M23.7918819,37.9897692 C22.2244533,37.9571282 20.9556533,37.4360897 19.8517676,36.4566154 C17.5699581,34.4316538 15.6892914,32.0668846 13.8754819,29.6512051 C9.0030819,23.1617308 4.61576762,16.3611923 0.560015238,9.35238462 C-0.994784762,6.66583333 0.857900952,3.59538462 4.02494857,3.55348718 C5.17241524,3.53838462 6.00342476,4.07038462 6.68809143,4.92514103 C8.81266286,7.57637179 10.645539,10.426859 12.5848914,13.205 C15.1752343,16.9163333 17.6224533,20.729 20.5718438,24.187 C20.8806248,24.5492179 21.22952,24.8797692 21.5751962,25.2093462 C22.0974248,25.7067564 22.5495771,25.6283205 22.9603771,25.0446795 C23.7579581,23.9115 24.3418438,22.6706538 24.8930438,21.4127564 C27.435101,15.6104487 29.4697867,9.62520513 31.5019962,3.63947436 C31.6728533,3.13646154 31.85832,2.64708974 32.1740343,2.2135 C33.0654629,0.989217949 34.1022438,-0.0591923077 35.7939771,0.159307692 C37.5694057,0.388525641 38.7797676,1.4535 39.3923771,3.0660641 C40.3068343,5.47394872 41.1088724,7.92275641 41.9715771,10.349641 C44.3073676,16.9207179 46.6466248,23.4910641 49.4008914,29.9081923 C50.0444533,31.4082179 50.6610248,32.9274872 51.7230629,34.2133974 C52.03952,34.5965641 52.0204533,35.0627949 51.9228914,35.4980897 C51.5210057,37.2938333 49.6777295,38.241641 47.9434057,37.549359 C46.7592914,37.0767949 45.8785105,36.2286154 45.2104343,35.1894615 C43.9376724,33.2102949 42.6936343,31.2123718 41.4785676,29.1986154 C41.1816724,28.7058333 40.8451581,28.3989103 40.26672,28.3078077 C36.8277867,27.7646026 33.4368914,28.0286538 30.0759581,28.8602692 C29.2018629,29.0765769 28.7685295,29.7240385 28.4322629,30.4660128 C27.7778057,31.9105 27.4182629,33.4543718 26.8848914,34.9400256 C26.6256343,35.6627564 26.354739,36.3774487 25.8567771,36.9803333 C25.3040914,37.6494744 24.6258629,38.0721026 23.7918819,37.9897692" id="Fill-1" fill="#1F385E" mask="url(#mask-2)"></path>
                                    </g>
                                    <path d="M77.9980902,3.50580476 C77.9696643,4.19882777 77.7296506,4.74428974 77.1408631,5.20141085 C75.0425351,6.8302107 72.7553601,8.1306077 70.2954048,9.12291289 C67.694803,10.1719912 67.7674745,11.6843083 69.0508434,13.6167952 C69.8183436,14.7733018 70.792735,15.7643834 71.8702013,16.6389824 C73.4618062,17.9310592 73.9917644,19.6631273 74.1492193,21.6005084 C74.3793458,24.4367148 73.1199535,26.7382267 71.4979452,28.888262 C68.5967701,32.7343929 64.6008259,34.9710562 60.0410596,36.3255344 C59.1484854,36.590557 58.2287212,36.7738459 57.3131591,36.9529748 C56.4833691,37.1152185 55.7371266,36.8572926 55.2548746,36.1845806 C54.7441966,35.4724701 55.0875323,34.7630514 55.5275163,34.1353664 C56.5328055,32.6996439 57.9165303,31.6522786 59.3029742,30.6142124 C60.815728,29.4819322 62.4646791,28.5317174 63.8921551,27.2856463 C66.0740306,25.3808119 66.4700162,23.8131899 65.3863703,21.1404507 C64.3682277,18.6299553 62.745725,16.4924002 60.9778794,14.4644759 C60.1987617,13.5710341 59.4975064,12.6553236 59.2508188,11.476793 C58.8189918,9.416322 59.6156594,7.74127168 61.030282,6.32243431 C62.2923932,5.05678635 63.9126712,4.32338593 65.5465443,3.66242013 C68.4467306,2.4887837 71.4566658,1.66190349 74.527655,1.06162614 C76.3466673,0.706060304 78.0653238,1.93769336 77.9980902,3.50580476" id="Fill-4" fill="#1F385E"></path>
                                    <g id="Group-8" transform="translate(76.000000, 2.000000)">
                                        <mask id="mask-4" fill="white">
                                            <use xlink:href="#path-3"></use>
                                        </mask>
                                        <g id="Clip-7"></g>
                                        <path d="M19.6799912,0.0292438356 C21.3817275,0.0361479452 22.014167,0.718421918 21.9007824,2.43409315 C21.829222,3.51014795 21.4617495,4.41902466 20.6518593,5.17699726 C19.2675516,6.47250411 17.7659912,7.63707945 16.5069143,9.07313425 C15.2809582,10.471463 15.222211,11.0780384 16.2209143,12.665737 C16.9188703,13.775326 17.7892,14.7443671 18.7762989,15.567189 C21.4997055,17.8371616 21.7395297,20.7097644 20.8387385,23.8839288 C19.836167,27.4183397 17.6397934,30.0004767 14.5595516,31.8103397 C11.0397934,33.8788603 7.21445275,35.1097644 3.24550769,35.9062027 C2.47381538,36.0610521 1.7321011,35.9545315 1.04599121,35.5560658 C0.407024176,35.1849699 0.0830681319,34.6057644 0.302584615,33.881326 C0.575771429,32.9796 1.03317802,32.2287781 1.96926593,31.7972712 C5.3724967,30.2280658 8.74405714,28.5898192 11.7495956,26.2828603 C12.4990462,25.7076 13.1868484,25.0726685 13.7424088,24.2907781 C14.387178,23.383874 14.4969363,22.4483671 14.0054418,21.4396274 C13.1061011,19.5925315 11.7370242,18.083737 10.5504747,16.4435178 C9.3412,14.7719836 8.11572747,13.1179562 7.38078242,11.1458466 C6.75970549,9.47899726 6.87913407,8.00595616 8.14836484,6.66286027 C10.8135077,3.84277808 13.7926945,1.52447671 17.5155297,0.350284932 C18.2161451,0.129106849 18.9440791,0.0346684932 19.6799912,0.0292438356" id="Fill-6" fill="#9FC03C" mask="url(#mask-4)"></path>
                                    </g>
                                </g>
                            </g>
                        </g>
                    </g>
                </g>
            </g>
        </g>
    </g>
</svg>