<?xml version="1.0" encoding="UTF-8"?>
<svg width="289px" height="289px" viewBox="0 0 289 289" version="1.1" xmlns="http://www.w3.org/2000/svg" xmlns:xlink="http://www.w3.org/1999/xlink">
    <!-- Generator: Sketch 51.3 (57544) - http://www.bohemiancoding.com/sketch -->
    <title>Group 2</title>
    <desc>Created with Sketch.</desc>
    <defs>
        <radialGradient cx="46.873695%" cy="2.13469155%" fx="46.873695%" fy="2.13469155%" r="55.4853208%" gradientTransform="translate(0.468737,0.021347),rotate(89.081824),scale(1.000000,1.082159),translate(-0.468737,-0.021347)" id="radialGradient-1">
            <stop stop-color="#D1F3DA" offset="0%"></stop>
            <stop stop-color="#D5F4DE" offset="73.4679255%"></stop>
            <stop stop-color="#FFFFFF" offset="100%"></stop>
        </radialGradient>
        <path d="M205.421708,91.3106133 C202.488376,92.402974 199.313909,93 196,93 C181.088312,93 169,80.9116882 169,66 C169,62.3004926 169.744046,58.7747665 171.090659,55.5643012 C159.750734,49.4622547 146.779693,46 133,46 C89.5847298,46 54.1967332,80.3688437 52.5592243,123.383317 C65.2997831,125.550021 75,136.642207 75,150 C75,158.201648 71.3430898,165.549179 65.570847,170.501016 C71.7421321,179.948808 79.908986,188.107482 89.6599218,194.350462 C94.0785816,197.179483 95.3672385,203.054889 92.5382174,207.473549 C89.7091963,211.892209 83.8337901,213.180865 79.4151303,210.351844 C66.0546522,201.797876 55.0970829,190.322524 47.2412794,176.989549 C32.6804174,176.587788 21,164.657948 21,150 C21,140.423708 25.9854779,132.011836 33.5025494,127.21827 C33.5008538,126.97899 33.5,126.739568 33.5,126.5 C33.5,71.5476674 78.0476674,27 133,27 C151.934868,27 169.634412,32.2890448 184.701848,41.4703477 C188.139026,39.8845829 191.96621,39 196,39 C210.911688,39 223,51.0883118 223,66 C223,70.4208757 221.937501,74.5935914 220.05393,78.2767195 C227.98396,92.5616695 232.5,109.003446 232.5,126.5 C232.5,151.054094 223.530926,174.080333 208.043427,191.851087 C208.667024,194.12805 209,196.52514 209,199 C209,213.911688 196.911688,226 182,226 C167.088312,226 155,213.911688 155,199 C155,184.088312 167.088312,172 182,172 C187.287175,172 192.219404,173.519705 196.383703,176.146132 C207.271862,162.259518 213.5,144.915432 213.5,126.5 C213.5,113.881588 210.596717,101.941274 205.421708,91.3106133 Z" id="path-2"></path>
        <filter x="-2.4%" y="-2.0%" width="107.6%" height="108.0%" filterUnits="objectBoundingBox" id="filter-3">
            <feOffset dx="3" dy="4" in="SourceAlpha" result="shadowOffsetOuter1"></feOffset>
            <feGaussianBlur stdDeviation="2" in="shadowOffsetOuter1" result="shadowBlurOuter1"></feGaussianBlur>
            <feColorMatrix values="0 0 0 0 0.785023384   0 0 0 0 0.785023384   0 0 0 0 0.785023384  0 0 0 0.5 0" type="matrix" in="shadowBlurOuter1"></feColorMatrix>
        </filter>
        <linearGradient x1="111.039932%" y1="9.71231442%" x2="33.1514786%" y2="88.1033485%" id="linearGradient-4">
            <stop stop-color="#F1BCFC" offset="0%"></stop>
            <stop stop-color="#8C40A3" offset="100%"></stop>
        </linearGradient>
        <linearGradient x1="0.779822942%" y1="97.0293178%" x2="24.8824196%" y2="5.21212339%" id="linearGradient-5">
            <stop stop-color="#78D8FD" offset="0%"></stop>
            <stop stop-color="#105580" offset="100%"></stop>
        </linearGradient>
        <linearGradient x1="85.9231729%" y1="100%" x2="16.6148297%" y2="24.5021819%" id="linearGradient-6">
            <stop stop-color="#C9FFF6" offset="0%"></stop>
            <stop stop-color="#73C3B2" offset="100%"></stop>
        </linearGradient>
    </defs>
    <g id="01-Ficha-bootcamp" stroke="none" stroke-width="1" fill="none" fill-rule="evenodd">
        <g id="01-E-Ficha-Bootcamp" transform="translate(-574.000000, -4010.000000)">
            <g id="Módulo-6" transform="translate(350.000000, 3827.000000)">
                <g id="Group-2" transform="translate(235.000000, 194.000000)">
                    <circle id="Oval-13" stroke="#FFFFFF" stroke-width="11" fill="#E7E7E7" opacity="0.233482143" cx="133.5" cy="133.5" r="139"></circle>
                    <circle id="Oval-13" fill="url(#radialGradient-1)" opacity="0.233482143" cx="133.5" cy="133.5" r="95.5"></circle>
                    <g id="Combined-Shape" fill-rule="nonzero">
                        <use fill="black" fill-opacity="1" filter="url(#filter-3)" xlink:href="#path-2"></use>
                        <use fill="#FFFFFF" xlink:href="#path-2"></use>
                    </g>
                    <path d="M181.735396,202.675723 C206.563107,186.653575 223,158.746308 223,127 C223,113.145103 219.869311,100.021418 214.276762,88.2977716" id="Oval-15" stroke="url(#linearGradient-4)" stroke-width="3" stroke-linecap="round" stroke-linejoin="round"></path>
                    <path d="M196.939547,63.6617381 C180.629615,47.1979425 158.005736,37 133,37 C84.4760861,37 44.9212556,75.4012113 43.0679099,123.471232" id="Oval-15-Copy" stroke="url(#linearGradient-5)" stroke-width="3" stroke-linecap="round" stroke-linejoin="round"></path>
                    <path d="M45,146 C50.8431402,170.888004 60.5914426,186.489178 83.2531827,200.919855" id="Oval-15-Copy-2" stroke="url(#linearGradient-6)" stroke-width="3" stroke-linecap="round" stroke-linejoin="round"></path>
                    <g id="Group-4" transform="translate(178.000000, 48.000000)">
                        <circle id="Oval-13-Copy-2" fill="#105580" transform="translate(19.000000, 19.000000) scale(-1, 1) translate(-19.000000, -19.000000) " cx="19" cy="19" r="19"></circle>
                        <circle id="Oval-13-Copy-3" fill="#FFFFFF" transform="translate(19.000000, 19.000000) scale(-1, 1) translate(-19.000000, -19.000000) " cx="19" cy="19" r="16"></circle>
                    </g>
                    <g id="Group-5" transform="translate(29.000000, 131.000000)">
                        <circle id="Oval-13-Copy-2" fill="#8C40A3" transform="translate(154.000000, 69.000000) scale(-1, 1) translate(-154.000000, -69.000000) " cx="154" cy="69" r="19"></circle>
                        <circle id="Oval-13-Copy" stroke="#73C3B2" stroke-width="3" fill="#FFFFFF" transform="translate(19.000000, 19.000000) scale(-1, 1) translate(-19.000000, -19.000000) " cx="19" cy="19" r="19"></circle>
                        <circle id="Oval-13-Copy-3" fill="#FFFFFF" transform="translate(154.000000, 69.000000) scale(-1, 1) translate(-154.000000, -69.000000) " cx="154" cy="69" r="16"></circle>
                    </g>
                </g>
            </g>
        </g>
    </g>
</svg>