<svg xmlns="http://www.w3.org/2000/svg" xmlns:xlink="http://www.w3.org/1999/xlink" width="251" height="287" viewBox="0 0 251 287">
    <defs>
        <path id="a" d="M.12.078h24.63v18.526H.12z"/>
    </defs>
    <g fill="none" fill-rule="evenodd">
        <path fill="#EDEDED" fill-rule="nonzero" d="M223.608 45.315c6.088 3.837 10.734 10 12.953 16.73 2.238 6.712 2.067 13.99 3.034 22.856.987 8.886 3.11 19.378-1.175 24.35-4.286 4.99-15.002 4.443-23.024 1.588-8.04-2.836-13.408-7.978-19.135-10.341-5.728-2.363-11.834-1.966-14.13-4.764-2.294-2.798-.758-8.81 1.575-13.026 2.352-4.234 5.519-6.673 6.163-11.191.645-4.537-1.251-11.116.418-16.977 1.669-5.86 6.884-10.984 13.275-12.78 6.391-1.814 13.958-.283 20.046 3.555z"/>
        <g opacity=".379">
            <path fill="#E5E5E5" d="M220.183 159.821c-4.699-1.38-10.079-2.409-13.375-4.602-5.441-3.62-3.077-8.734-3.538-13.286-.844-8.29-12.36-15.692-26.945-19.417-14.587-3.725-31.735-4.17-47.838-2.817-20.594 1.728-40.694 6.486-54.245 14.56-13.55 8.073-19.635 19.683-12.864 29.725 5.947 8.823 21.155 16.234 16.237 25.22-13.367 4.7-22.233 12.561-23.465 20.803-1.232 8.24 5.2 16.694 17.015 22.367 9.237 4.434 22.323 7.896 24.604 14.251 1.789 4.986-4.047 10.138-1.748 15.069 2.366 5.08 12.26 8.088 19.793 11.635 7.534 3.548 12.997 10 5.697 13.671 0 0 13.153-3.546 6.528-13.637-3.8-5.786-10.599-11.809-6.528-17.546 1.829-2.577 5.576-4.686 7.855-7.17 5.933-6.472-1.357-14.784-13.577-17.888 8.008 1.031 16.149 1.756 24.307 1.302 11.183-.624 22.544-4.001 25.883-9.466 2.46-4.028-1.385-8.866-8.068-10.995 17.03 1.9 35.202 1.358 51.019-2.31 18.346-4.256 32.99-12.95 36.37-23.06 3.378-10.112-5.654-21.281-23.117-26.409"/>
            <path fill="#B9B9B9" d="M43 179.5c0-4.695-7.164-8.5-16.001-8.5C18.164 171 11 174.805 11 179.5s7.164 8.5 15.999 8.5C35.836 188 43 184.195 43 179.5M251 139.5c0-3.59-5.82-6.5-13-6.5-7.179 0-13 2.91-13 6.5s5.821 6.5 13 6.5c7.18 0 13-2.91 13-6.5"/>
            <path fill="#B3E0D0" d="M92 111c0-2.762-4.476-5-9.999-5C76.478 106 72 108.238 72 111s4.478 5 10.001 5S92 113.762 92 111"/>
        </g>
        <path fill="#523B5D" d="M82.992 92.06c-3.496 0-6.357 2.847-6.357 6.327v16.423c0 3.827 3.147 6.959 6.992 6.959H96.97c1.732 0 3.15-1.411 3.15-3.136V95.196c0-1.725-1.418-3.136-3.15-3.136H82.992z"/>
        <path fill="#3A3B39" d="M120.527 184.456c.878.016 1.766.14 2.642.263 1.236.175 2.444.692 3.271 1.507 0 0 .463.519.622.793.737 1.276.453 3.033-.852 3.88-1.307.847-3.513.38-4.017-.982-.367-.993.21-2.12 1.146-2.756.475-.324 1.023-.537 1.601-.677-1.004-1.001-2.752-1.239-4.754-1.217-1.203.792-4.866 1.367-9.199 1.367-.432 0-.858-.005-1.275-.016l-.841.524c1.163-.204 2.492.141 3.14 1.044 1.082 1.509-.051 3.804-2.006 4.244-1.964.442-4.17-1.032-4.23-2.827-.049-1.432 1.282-2.734 2.834-3.028-3.66-.187-6.482-.796-7.109-1.554-.738.008-2.09.055-2.78.282-.978.323-1.578 1.04-1.252 1.92.194.523.726.898.967 1.406.577 1.215-1.05 2.623-2.496 2.309-1.445-.315-2.24-1.866-1.875-3.144.365-1.278 1.622-2.237 3.006-2.721 1.383-.484 2.897-.569 4.382-.648l.01.01c.591-.859 3.99-1.537 8.272-1.649l-2.005-32.603 2.618-.16 2.015 32.766c4.262.123 7.622.807 8.165 1.667z"/>
        <path fill="#523B5D" d="M110.682 152.57c14.257 0 16.286-6.272 16.286-6.272l-36.188.392c2.978 5.149 5.645 5.88 19.902 5.88z"/>
        <g>
            <path fill="#F9B6A8" d="M135.008 117.252l-8.04 2.493-5.076-26.236 8.233-3.876z"/>
            <path fill="#3A3B39" d="M177.552 162.5l6.301-1.306-8.139 6.795-6.432-8.82 3.282-3.332z"/>
            <path fill="#838383" d="M133.003 98.983a1.28 1.28 0 0 1 1.282-1.276l18.05-1.482a1.28 1.28 0 0 1 1.281 1.276v19.386h-20.613V98.983z"/>
            <path fill="#FFFFFE" d="M143.31 104.86a2.442 2.442 0 0 0-2.448 2.437 2.442 2.442 0 0 0 2.447 2.436 2.442 2.442 0 0 0 2.448-2.436 2.442 2.442 0 0 0-2.448-2.436z"/>
            <path fill="#3A3B39" d="M153.397 192.379l5.12 3.528h-8.533v-10.845h3.413z"/>
            <path fill="#373737" d="M146.834 131.01l21.66 30.184 5.645-4.573s-14.703-42.075-24.155-42.598c-2.739 6.02-4.178 11.764-3.15 16.987z"/>
            <path fill="#F9B6A8" d="M95.414 62.313c1.244 1.949 3.041 3.516 5.211 4.278 4.727 1.412 11.152-.778 12.39-5.803-2.715-.904-4.78-1.253-4.78-1.253l-.73-3.528s1.456-.849 2.178-2.09c.722-1.242-3.307-10.454-3.307-10.454l-6.735.588 1.76 7.132s-2.652-2.874-3.177-1.306c-.526 1.568 3.045 3.136 3.045 3.136l.704 5.73a1.622 1.622 0 0 1-1.168 1.813c-1.239.345-3.19.933-5.39 1.757z"/>
            <path fill="#FFFFFE" d="M115.639 61.776a35.615 35.615 0 0 0-2.625-.989c-1.237 5.026-7.662 7.216-12.389 5.804-2.17-.762-3.967-2.33-5.21-4.278a56.77 56.77 0 0 0-2.902 1.175c2.855 4.079 7.372 6.68 12.838 5.978 4.592-.457 8.78-3.312 10.288-7.69z"/>
            <path fill="#273156" d="M115.639 61.776c-1.507 4.378-5.696 7.233-10.288 7.69-5.466.702-9.983-1.9-12.838-5.978-1.609.706-3.243 1.523-4.753 2.45-6.17 3.79.263 68.208.263 68.208l42.795-13.59-4.442-28.564 3.749-2.36s-3.612-14.89-4.689-18.729c-1.274-4.54-5.737-7.407-9.797-9.127z"/>
            <path fill="#F9B6A8" d="M129.104 113.22l3.507-1.519-.655 4.134-4.334 1.704z"/>
            <path fill="#838383" d="M122.846 118.947a3.485 3.485 0 0 0-2.267 4.005l17.678-5.75-3.675-2.264-11.736 4.009z"/>
            <path fill="#273156" d="M93.26 85.8l1.59 40.767h-1.59z"/>
            <path fill="#CC395D" d="M108.633 51.695s-1.05-3.266-1.97-3.266c-.918 0 .657 3.658.657 3.658l1.313-.392z"/>
            <path fill="#333" d="M102.385 51.183s-.447-4.976-1.432-6.152c0 0 5.49.262 6.552-1.764 1.062-2.025-.722-3.985-3.276-2.548-2.554 1.438-5.113.523-4.588 3.332 0 0-3.29 1.283-.985 4.05 2.232 2.68 2.744 3.082 2.744 3.082h.985z"/>
            <path fill="#3F2C48" d="M104.137 48.429a.491.491 0 1 0 0 .98.491.491 0 1 0 0-.98zM107.505 47.449a.491.491 0 1 0 0 .98.49.49 0 1 0 0-.98z"/>
            <path fill="#333" d="M102.715 47.777c.148-.312.436-.558.79-.676a1.343 1.343 0 0 1 1.04.068l-.244.463a.812.812 0 0 0-.63-.035.808.808 0 0 0-.482.404l-.474-.224zM106.11 46.712a1.39 1.39 0 0 1 1.548-.545l-.158.498a.878.878 0 0 0-.952.336l-.438-.289zM105.81 55.354s2.167-.784 2.495-2.221c0 0 1.406 1.24 2.377.588 0 0-1.524-2.418-3.362-1.634 0 0-1.772 1.242-1.51 3.267z"/>
            <path fill="#CC395D" d="M108.633 61.757l.666-2.005-1.065-.217zM101.071 51.95l-2.034-1.177a.13.13 0 1 1 .132-.226l2.034 1.178a.13.13 0 0 1-.066.244.132.132 0 0 1-.066-.018z"/>
            <path fill="#273156" d="M81.853 81.095c-.373 4.413-.589 10.465-.71 16.683 4.428 1.106 8.467.842 12.117-.797l.014-5.65-5.514-25.393s-4.725 1.176-5.907 15.157z"/>
            <path fill="#FFFFFE" d="M81.088 101.087c3.964.63 8.03.26 12.164-.784l.008-3.322-12.117.797c-.021 1.1-.04 2.206-.055 3.309z"/>
            <path fill="#222" d="M156.81 138.327c-.121 6.415-2.625 49-2.625 49h-5.645l-3.938-39.592h-33.92l36.152-16.725s10.099.902 9.977 7.317z"/>
            <path fill="#373737" d="M90.78 146.69c4.634 3.79 16.54 6.01 31.9-2.221 15.358-8.232 24.154-13.46 24.154-13.46l3.15-16.986c-9.451-.522-63.668 20.123-63.668 20.123s-.17 8.755 4.464 12.544z"/>
            <path fill="#008B44" d="M152.347 127.874l-2.756 3.644-2.757-.508z"/>
            <path fill="#F9B6A8" d="M93.187 126.35l.065-26.047-12.164.784c-.178 12.407-.023 24.435-.023 24.435s-.262 12.021 9.32 10.715c9.584-1.307 30.588-17.569 30.588-17.569l2.757 1.089 3.238-1.48-5.426-3.311-28.355 11.383z"/>
            <path fill="#FFFFFE" d="M130.125 89.633l.499 2.818-3.864 2.007-.384-2.466z"/>
            <path fill="#273156" d="M123.555 76.26l4.067 14.948-1.246.784z"/>
            <path fill="#CC395D" d="M132.2 112.022l-2.506 1.085-.105-.24 2.505-1.085zM124.509 119.316l-.129.228-2.552-1.421.128-.228zM122.078 116.993l.153-.212c.193.139 3.052 2.036 3.081 2.055l-.146.218c-.118-.079-2.892-1.92-3.088-2.06zM126.244 118.534l-.15.215-3-2.07.149-.215zM129.506 114.393l-.932 2.682-.25-.086.933-2.682zM130.242 114.389l-.736 2.364-.251-.077.736-2.365zM131.274 114.384l-.521 1.94-.254-.068.52-1.94z"/>
            <path fill="#FFFFFE" d="M117.276 109.945l-.186.489-5.745-2.174.187-.488zM120.248 105.093l-.388.351-2.626-2.874.389-.352zM125.042 104.99l-.524.035-.263-3.92.524-.035z"/>
        </g>
        <g>
            <path fill="#6B4F7C" d="M165.009 86.578a2.772 2.772 0 0 1-2.772-2.764V44.3a2.75 2.75 0 0 1 2.36-2.732l44.596-6.709a2.78 2.78 0 0 1 2.225.638c.614.525.965 1.289.965 2.094v37.37c0 1.313-.939 2.452-2.233 2.71l-44.594 8.853a2.81 2.81 0 0 1-.547.054"/>
            <path fill="#FFFFFE" d="M192.561 46.51a2.03 2.03 0 0 0 2.383 1.998l9.246-1.632a2.926 2.926 0 0 0 2.417-2.882 2.05 2.05 0 0 0-2.415-2.016l-9.25 1.68a2.898 2.898 0 0 0-2.381 2.851zM196.87 55.888a.727.727 0 0 1 .6-.757l8.75-1.533a.576.576 0 0 1 .675.535.727.727 0 0 1-.6.757l-8.75 1.533a.576.576 0 0 1-.675-.535zM196.934 60.177a.727.727 0 0 1 .6-.758l8.75-1.532a.576.576 0 0 1 .675.534.727.727 0 0 1-.6.758l-8.75 1.532a.576.576 0 0 1-.675-.534zM196.998 64.465a.727.727 0 0 1 .6-.758l8.75-1.532a.576.576 0 0 1 .675.534.727.727 0 0 1-.6.758l-8.75 1.532a.576.576 0 0 1-.675-.534zM197.062 68.753a.727.727 0 0 1 .6-.757l8.75-1.533a.576.576 0 0 1 .675.535.727.727 0 0 1-.6.757l-8.75 1.533a.576.576 0 0 1-.675-.535zM197.126 73.042a.727.727 0 0 1 .6-.758l8.75-1.533a.576.576 0 0 1 .675.535.727.727 0 0 1-.6.758l-8.75 1.532a.576.576 0 0 1-.675-.534z"/>
            <g>
                <path fill="#3F2C48" d="M120.183 76.86a3.79 3.79 0 0 1-1.332-2.743l-2.277-62.57a3.781 3.781 0 0 1 3.517-3.913l63.65-4.749a3.826 3.826 0 0 1 2.87 1 3.79 3.79 0 0 1 1.218 2.776v59.865a3.796 3.796 0 0 1-3.343 3.758l-61.373 7.454a3.825 3.825 0 0 1-2.93-.879z"/>
                <path fill="#FFFFFE" d="M170.753 53.515c0 1.874 1.344 3.398 2.996 3.398 1.651 0 2.995-1.524 2.995-3.398s-1.344-3.399-2.995-3.399c-1.652 0-2.996 1.525-2.996 3.399zm6.989.01a4.77 4.77 0 0 1-.231 1.462l.77.238a5.406 5.406 0 0 1-.767 1.544l-.673-.479a4.153 4.153 0 0 1-1.056 1.001l.48.701a4.513 4.513 0 0 1-1.638.694l-.174-.849a3.65 3.65 0 0 1-1.435-.005l-.18.847a4.519 4.519 0 0 1-1.632-.705l.484-.697a4.172 4.172 0 0 1-1.05-1.009l-.676.475a5.42 5.42 0 0 1-.758-1.548l.772-.235a4.764 4.764 0 0 1-.223-1.445v-.01h-.799a5.724 5.724 0 0 1 .256-1.691l.772.237c.154-.478.381-.918.667-1.305l-.674-.477c.348-.487.768-.9 1.247-1.226l.48.7a3.75 3.75 0 0 1 1.332-.55l-.176-.847a4.44 4.44 0 0 1 1.788.002l-.178.847c.478.097.927.287 1.33.553l.482-.699c.479.327.897.74 1.245 1.229l-.676.476c.286.387.512.828.665 1.306l.772-.236c.168.543.253 1.112.253 1.69l-.8.011zm-3.993 1.381c.658 0 1.194-.624 1.194-1.391s-.536-1.391-1.194-1.391c-.659 0-1.195.624-1.195 1.39 0 .768.536 1.392 1.195 1.392zm0-3.776c1.209 0 2.192 1.07 2.192 2.385 0 1.315-.983 2.385-2.192 2.385-1.21 0-2.193-1.07-2.193-2.385 0-1.315.983-2.385 2.193-2.385z"/>
                <path fill="#9DE7AC" d="M125.984 27.163a.653.653 0 0 1 .584-.715l16.413-1.637a.653.653 0 1 1 .13 1.3L126.7 27.748a.654.654 0 0 1-.715-.585z"/>
                <path fill="#465BA7" d="M126.097 31.478a.653.653 0 0 1 .584-.715l16.413-1.637a.653.653 0 1 1 .13 1.3l-16.412 1.637a.654.654 0 0 1-.715-.585zM126.21 35.793a.653.653 0 0 1 .584-.715l16.413-1.637a.653.653 0 1 1 .13 1.3l-16.412 1.637a.654.654 0 0 1-.715-.585z"/>
                <path fill="#9DE7AC" d="M126.323 40.108a.653.653 0 0 1 .584-.715l16.413-1.637a.653.653 0 1 1 .13 1.3l-16.412 1.637a.654.654 0 0 1-.715-.585z"/>
                <path fill="#FFFFFE" d="M126.436 44.423a.653.653 0 0 1 .584-.715l16.413-1.637a.653.653 0 1 1 .13 1.3l-16.412 1.637a.654.654 0 0 1-.715-.585z"/>
                <path fill="#9DE7AC" d="M157.455 12.524a.653.653 0 0 1 .585-.715l16.413-1.637a.653.653 0 1 1 .13 1.3l-16.412 1.637a.654.654 0 0 1-.716-.585zM157.568 16.84a.653.653 0 0 1 .585-.716l16.413-1.637a.653.653 0 1 1 .131 1.3l-16.413 1.637a.654.654 0 0 1-.716-.585z"/>
                <path fill="#465BA7" d="M157.681 21.154a.653.653 0 0 1 .584-.715l16.414-1.637a.653.653 0 1 1 .13 1.3l-16.412 1.637a.654.654 0 0 1-.716-.585zM157.794 25.47a.653.653 0 0 1 .584-.716l16.414-1.637a.653.653 0 1 1 .13 1.3l-16.412 1.637a.654.654 0 0 1-.716-.585z"/>
                <path fill="#FFFFFE" d="M157.907 29.784a.653.653 0 0 1 .585-.715l16.413-1.637a.653.653 0 1 1 .13 1.3l-16.413 1.637a.654.654 0 0 1-.715-.585zM136.863 65.121l-4.94-3.69 4.095-4.803 1.001.845-3.193 3.745 3.825 2.858zM148.498 64.185l-1-.845 3.192-3.746-3.825-2.858.788-1.045 4.94 3.691zM140.775 66.75l-1.194-.541 5.254-11.497 1.195.54z"/>
            </g>
            <g>
                <g transform="translate(101.08)">
                    <mask id="b" fill="#fff">
                        <use xlink:href="#a"/>
                    </mask>
                    <path fill="#3C3C3C" d="M3.49 18.604c-.613 0-1.2-.213-1.676-.614a2.57 2.57 0 0 1-.919-1.822l-.77-12.47a2.57 2.57 0 0 1 .663-1.893A2.595 2.595 0 0 1 2.61.947L22.025.081c.718-.032 1.4.223 1.919.717.52.494.805 1.16.805 1.876v11.378a2.594 2.594 0 0 1-2.333 2.581L3.77 18.59a2.73 2.73 0 0 1-.28.015" mask="url(#b)"/>
                </g>
                <path fill="#FFFFFE" d="M104.739 5.263a.653.653 0 0 1 .585-.715l16.413-1.637a.653.653 0 1 1 .13 1.3L105.455 5.85a.654.654 0 0 1-.716-.586zM104.852 9.578a.653.653 0 0 1 .585-.715l16.413-1.637a.653.653 0 1 1 .13 1.3l-16.413 1.638a.654.654 0 0 1-.715-.586zM104.965 13.893a.653.653 0 0 1 .585-.715l16.412-1.637a.653.653 0 1 1 .131 1.3L105.68 14.48a.654.654 0 0 1-.715-.586z"/>
            </g>
            <g fill="#523B5D">
                <path d="M194.268 20.243c0 2.464 1.766 4.469 3.938 4.469 2.171 0 3.938-2.005 3.938-4.47 0-2.463-1.767-4.468-3.938-4.468-2.172 0-3.938 2.005-3.938 4.469zm9.189.014a6.265 6.265 0 0 1-.305 1.921l1.014.314a7.108 7.108 0 0 1-1.01 2.03l-.884-.63a5.462 5.462 0 0 1-1.389 1.316l.63.923a5.929 5.929 0 0 1-2.153.911l-.228-1.115a4.774 4.774 0 0 1-1.887-.007l-.237 1.113a5.94 5.94 0 0 1-2.145-.927l.635-.916a5.484 5.484 0 0 1-1.379-1.327l-.889.625a7.123 7.123 0 0 1-.997-2.035l1.015-.31a6.271 6.271 0 0 1-.293-1.9v-.012l-1.05-.002c.001-.76.114-1.508.336-2.222l1.014.312c.203-.629.502-1.208.878-1.716l-.886-.628a6.541 6.541 0 0 1 1.639-1.612l.632.92a4.929 4.929 0 0 1 1.75-.721l-.23-1.115a5.84 5.84 0 0 1 2.35.003l-.234 1.114c.63.126 1.22.376 1.75.726l.633-.919c.63.43 1.18.974 1.636 1.615l-.887.626c.375.51.672 1.09.874 1.719l1.014-.311c.221.714.333 1.462.333 2.223l-1.05.014zm-5.251 1.815c.866 0 1.57-.82 1.57-1.83 0-1.008-.704-1.828-1.57-1.828-.866 0-1.57.82-1.57 1.829s.704 1.83 1.57 1.83zm0-4.965c1.59 0 2.883 1.407 2.883 3.136 0 1.73-1.293 3.136-2.883 3.136s-2.883-1.407-2.883-3.136c0-1.73 1.293-3.136 2.883-3.136z"/>
            </g>
        </g>
        <path fill="#EDEDED" fill-rule="nonzero" d="M41.48 223.603c3.646 3.744 14.56 7.565 18.458 12.921 3.898 5.357.795 12.213-4.627 11.784-5.421-.454-13.148-8.206-20.41-7.658-7.25.536-14.034 9.371-20.784 11.692-6.75 2.32-13.465-1.874-13.913-7.907-.447-6.034 5.374-13.93 6.386-21.888 1.024-7.972-2.772-15.995-1.245-22.278 1.54-6.295 8.402-10.85 14.47-8.292 6.067 2.558 11.34 12.23 15.415 16.849 4.076 4.62 6.944 4.176 6.585 5.794-.37 1.606-3.98 5.263-.334 8.983z"/>
    </g>
</svg>
