<?xml version="1.0" encoding="UTF-8"?>
<svg width="278px" height="158px" viewBox="0 0 278 158" version="1.1" xmlns="http://www.w3.org/2000/svg" xmlns:xlink="http://www.w3.org/1999/xlink">
    <!-- Generator: Sketch 54.1 (76490) - https://sketchapp.com -->
    <title>Group 6</title>
    <desc>Created with Sketch.</desc>
    <defs>
        <path d="M254.729603,99.3885711 L132.5,140 L10.2638624,99.324075 C4.13500736,97.2846057 4.02788068e-14,91.5506814 3.37507799e-14,85.0914013 L0,0 L265,0 L265,85.1537245 C265,91.6155396 260.861799,97.3511165 254.729603,99.3885711 Z" id="path-1"></path>
        <rect id="path-3" x="-124" y="-12.72032" width="536" height="56"></rect>
        <filter x="-4.1%" y="-25.0%" width="108.2%" height="178.6%" filterUnits="objectBoundingBox" id="filter-4">
            <feOffset dx="0" dy="8" in="SourceAlpha" result="shadowOffsetOuter1"></feOffset>
            <feGaussianBlur stdDeviation="6" in="shadowOffsetOuter1" result="shadowBlurOuter1"></feGaussianBlur>
            <feComposite in="shadowBlurOuter1" in2="SourceAlpha" operator="out" result="shadowBlurOuter1"></feComposite>
            <feColorMatrix values="0 0 0 0 0   0 0 0 0 0   0 0 0 0 0  0 0 0 1 0" type="matrix" in="shadowBlurOuter1"></feColorMatrix>
        </filter>
        <circle id="path-5" cx="23" cy="23" r="16.030303"></circle>
        <filter x="-20.9%" y="-11.5%" width="141.8%" height="141.8%" filterUnits="objectBoundingBox" id="filter-6">
            <feMorphology radius="0.7" operator="dilate" in="SourceAlpha" result="shadowSpreadOuter1"></feMorphology>
            <feOffset dx="0" dy="3" in="shadowSpreadOuter1" result="shadowOffsetOuter1"></feOffset>
            <feGaussianBlur stdDeviation="1.5" in="shadowOffsetOuter1" result="shadowBlurOuter1"></feGaussianBlur>
            <feComposite in="shadowBlurOuter1" in2="SourceAlpha" operator="out" result="shadowBlurOuter1"></feComposite>
            <feColorMatrix values="0 0 0 0 0.335326316   0 0 0 0 0.313244833   0 0 0 0 0.368829257  0 0 0 1 0" type="matrix" in="shadowBlurOuter1"></feColorMatrix>
        </filter>
    </defs>
    <g id="Black-Friday-Bootcamp-" stroke="none" stroke-width="1" fill="none" fill-rule="evenodd">
        <g id="03-Ficha-Bootcamp-01" transform="translate(-581.000000, 0.000000)">
            <g id="Group-6" transform="translate(581.000000, -4.000000)">
                <g id="Group-4">
                    <g id="Group-3">
                        <g id="Group-74">
                            <path d="M277.5,1.22031995 L0.5,1.22031995 L0.5,94.0634605 C0.5,100.175181 4.33221971,105.630724 10.0816026,107.703818 L139.00013,154.188856 L267.911727,107.777539 C273.664569,105.706376 277.5,100.249098 277.5,94.1347779 L277.5,1.22031995 Z" id="Path" stroke="#FFFFFF" fill="#FFFFFF" opacity="0.432617188"></path>
                            <g id="Rectangle" transform="translate(6.000000, 0.720320)">
                                <mask id="mask-2" fill="white">
                                    <use xlink:href="#path-1"></use>
                                </mask>
                                <use id="Mask" fill="#292828" xlink:href="#path-1"></use>
                                <g mask="url(#mask-2)">
                                    <use fill="black" fill-opacity="1" filter="url(#filter-4)" xlink:href="#path-3"></use>
                                    <rect stroke="#DCDCDC" stroke-width="1" stroke-linejoin="square" fill="#6B4F7C" fill-rule="evenodd" x="-123.5" y="-12.22032" width="535" height="55"></rect>
                                </g>
                            </g>
                            <g id="Group" transform="translate(135.000000, 139.000000) rotate(-270.000000) translate(-135.000000, -139.000000) translate(112.000000, 116.000000)">
                                <circle id="Oval" fill="#747474" opacity="0.363327753" cx="23" cy="23" r="23"></circle>
                                <g id="Oval">
                                    <use fill="black" fill-opacity="1" filter="url(#filter-6)" xlink:href="#path-5"></use>
                                    <use stroke="#FFFFFF" stroke-width="1.4" fill="#68B75C" fill-rule="evenodd" xlink:href="#path-5"></use>
                                </g>
                                <g id="ic-keyboard-arrow-down-24px" transform="translate(23.348485, 23.000000) rotate(-90.000000) translate(-23.348485, -23.000000) translate(16.378788, 18.469697)" fill="#FFFFFF" fill-rule="nonzero">
                                    <polygon id="Shape" points="1.63787879 0.348484848 6.96969697 5.51791191 12.3015152 0.348484848 13.9393939 1.93994602 6.96969697 8.71212121 0 1.93994602"></polygon>
                                </g>
                            </g>
                        </g>
                        <g id="Group-8-Copy-3" opacity="0.741396949" transform="translate(70.000000, 76.000000)" fill="#FFFFFF" fill-rule="nonzero">
                            <path d="M22.07875,19.86 L23.85525,19.86 L23.85525,28 L22.48025,28 L22.48025,21.851 L20.24725,26.8395 L19.01525,26.8395 L16.78225,21.9665 L16.78225,28 L15.40725,28 L15.40725,19.86 L17.18375,19.86 L19.65875,25.349 L22.07875,19.86 Z M30.93375,28 L30.16925,25.657 L26.99025,25.657 L26.22575,28 L24.78475,28 L27.52375,19.86 L29.64675,19.86 L32.38575,28 L30.93375,28 Z M27.36975,24.48 L29.78425,24.48 L28.57425,20.784 L27.36975,24.48 Z M27.93075,19.2 L28.90975,17.572 L30.43325,17.572 L29.22875,19.2 L27.93075,19.2 Z M35.17975,28.1045 C34.8057481,28.1045 34.4308352,28.075167 34.055,28.0165 C33.6791648,27.957833 33.328085,27.8735006 33.00175,27.7635 L33.00175,26.559 C33.3354183,26.6726672 33.6956647,26.7597497 34.0825,26.82025 C34.4693353,26.8807503 34.8350816,26.911 35.17975,26.911 C35.7554195,26.911 36.177082,26.8138343 36.44475,26.6195 C36.712418,26.4251657 36.84625,26.1410019 36.84625,25.767 C36.84625,25.5543323 36.8050004,25.378334 36.7225,25.239 C36.6399996,25.099666 36.5034176,24.9786672 36.31275,24.876 C36.1220824,24.7733328 35.8562517,24.6780004 35.51525,24.59 L34.96525,24.447 C34.2465797,24.2673324 33.7112518,23.9905019 33.35925,23.6165 C33.0072482,23.2424981 32.83125,22.753003 32.83125,22.148 C32.83125,21.3889962 33.1034973,20.8005021 33.648,20.3825 C34.1925027,19.9644979 34.9909114,19.7555 36.04325,19.7555 C36.3879184,19.7555 36.7224984,19.7765831 37.047,19.81875 C37.3715016,19.8609169 37.6620821,19.9204996 37.91875,19.9975 L37.91875,21.202 C37.6547487,21.1213329 37.3669182,21.0590002 37.05525,21.015 C36.7435818,20.9709998 36.4300849,20.949 36.11475,20.949 C35.4804135,20.949 35.0184181,21.0461657 34.72875,21.2405 C34.4390819,21.4348343 34.29425,21.7116649 34.29425,22.071 C34.29425,22.2726677 34.331833,22.4413327 34.407,22.577 C34.482167,22.7126673 34.6068325,22.8299995 34.781,22.929 C34.9551675,23.0280005 35.1944151,23.1196662 35.49875,23.204 L36.04875,23.3415 C36.8297539,23.5358343 37.4026648,23.8199981 37.7675,24.194 C38.1323352,24.5680019 38.31475,25.0593303 38.31475,25.668 C38.31475,26.1740025 38.1910012,26.6103315 37.9435,26.977 C37.6959988,27.3436685 37.336669,27.623249 36.8655,27.81575 C36.394331,28.008251 35.8324199,28.1045 35.17975,28.1045 Z M42.19775,28 L42.19775,19.86 L43.66625,19.86 L43.66625,28 L42.19775,28 Z M50.62925,19.86 L52.00975,19.86 L52.00975,28 L50.52475,28 L46.65825,22.0655 L46.65825,28 L45.27225,28 L45.27225,19.86 L46.75725,19.86 L50.62925,25.8 L50.62925,19.86 Z M59.06625,21.0645 L55.08425,21.0645 L55.08425,23.3745 L58.51625,23.3745 L58.51625,24.579 L55.08425,24.579 L55.08425,28 L53.61575,28 L53.61575,19.86 L59.06625,19.86 L59.06625,21.0645 Z M63.48825,28.1045 C62.7329129,28.1045 62.0811694,27.9541682 61.533,27.6535 C60.9848306,27.3528318 60.5613348,26.8908365 60.2625,26.2675 C59.9636652,25.6441635 59.81425,24.8650047 59.81425,23.93 C59.81425,22.9949953 59.9636652,22.2167531 60.2625,21.59525 C60.5613348,20.9737469 60.9857473,20.5117515 61.53575,20.20925 C62.0857527,19.9067485 62.7365796,19.7555 63.48825,19.7555 C64.2435871,19.7555 64.8953306,19.9067485 65.4435,20.20925 C65.9916694,20.5117515 66.4151652,20.9737469 66.714,21.59525 C67.0128348,22.2167531 67.16225,22.9949953 67.16225,23.93 C67.16225,24.861338 67.0119182,25.6386635 66.71125,26.262 C66.4105818,26.8853364 65.9861694,27.3482485 65.438,27.65075 C64.8898306,27.9532515 64.2399204,28.1045 63.48825,28.1045 Z M63.48825,26.9055 C64.1885868,26.9055 64.7248315,26.6717523 65.097,26.20425 C65.4691685,25.7367477 65.65525,24.9896718 65.65525,23.963 C65.65525,22.9069947 65.4682519,22.1415857 65.09425,21.66675 C64.7202481,21.1919143 64.1849201,20.9545 63.48825,20.9545 C62.7915799,20.9545 62.2571685,21.187331 61.885,21.653 C61.5128315,22.118669 61.32675,22.8666615 61.32675,23.897 C61.32675,24.956672 61.5119148,25.7229976 61.88225,26.196 C62.2525852,26.6690024 62.7879132,26.9055 63.48825,26.9055 Z M73.33325,28 L71.09475,24.8705 C71.0434164,24.8741667 70.9664172,24.876 70.86375,24.876 C70.6437489,24.876 70.3284187,24.8650001 69.91775,24.843 L69.91775,28 L68.47125,28 L68.47125,20.025 C69.274254,19.8526658 70.077246,19.7665 70.88025,19.7665 C72.020589,19.7665 72.8721639,19.9736646 73.435,20.388 C73.9978361,20.8023354 74.27925,21.4421623 74.27925,22.3075 C74.2829167,22.901503 74.1335015,23.396498 73.831,23.7925 C73.5284985,24.188502 73.0912529,24.4763324 72.51925,24.656 L74.94475,28 L73.33325,28 Z M69.91775,23.721 C70.2660851,23.7540002 70.5905818,23.7705 70.89125,23.7705 C71.5842535,23.7705 72.0920817,23.6540845 72.41475,23.42125 C72.7374183,23.1884155 72.89875,22.8190025 72.89875,22.313 C72.89875,21.8069975 72.7475015,21.4385012 72.445,21.2075 C72.1424985,20.9764988 71.6667532,20.861 71.01775,20.861 C70.6510815,20.861 70.2844185,20.8939997 69.91775,20.96 L69.91775,23.721 Z M82.60075,19.86 L84.37725,19.86 L84.37725,28 L83.00225,28 L83.00225,21.851 L80.76925,26.8395 L79.53725,26.8395 L77.30425,21.9665 L77.30425,28 L75.92925,28 L75.92925,19.86 L77.70575,19.86 L80.18075,25.349 L82.60075,19.86 Z M91.45575,28 L90.69125,25.657 L87.51225,25.657 L86.74775,28 L85.30675,28 L88.04575,19.86 L90.16875,19.86 L92.90775,28 L91.45575,28 Z M87.89175,24.48 L90.30625,24.48 L89.09625,20.784 L87.89175,24.48 Z M97.56625,28.1045 C96.2499101,28.1045 95.2452535,27.7717533 94.55225,27.10625 C93.8592465,26.4407467 93.51275,25.3875072 93.51275,23.9465 C93.51275,22.5458263 93.8674965,21.4971702 94.577,20.8005 C95.2865035,20.1038298 96.31041,19.7555 97.64875,19.7555 C98.2500863,19.7555 98.8330805,19.825166 99.39775,19.9645 L99.39775,21.1855 C98.8697474,21.0498327 98.3215862,20.982 97.75325,20.982 C97.1445803,20.982 96.642252,21.080999 96.24625,21.279 C95.850248,21.477001 95.5523343,21.7914145 95.3525,22.22225 C95.1526657,22.6530855 95.05275,23.2204965 95.05275,23.9245 C95.05275,24.6431703 95.151749,25.2197478 95.34975,25.65425 C95.547751,26.0887522 95.8401647,26.4013324 96.227,26.592 C96.6138353,26.7826676 97.1024137,26.878 97.69275,26.878 C98.2464194,26.878 98.8147471,26.7881676 99.39775,26.6085 L99.39775,27.8295 C99.1264153,27.9175004 98.8340016,27.9853331 98.5205,28.033 C98.2069984,28.0806669 97.8889183,28.1045 97.56625,28.1045 Z M100.44825,28 L100.44825,19.86 L101.91675,19.86 L101.91675,28 L100.44825,28 Z M106.89425,28.1045 C106.138913,28.1045 105.487169,27.9541682 104.939,27.6535 C104.390831,27.3528318 103.967335,26.8908365 103.6685,26.2675 C103.369665,25.6441635 103.22025,24.8650047 103.22025,23.93 C103.22025,22.9949953 103.369665,22.2167531 103.6685,21.59525 C103.967335,20.9737469 104.391747,20.5117515 104.94175,20.20925 C105.491753,19.9067485 106.14258,19.7555 106.89425,19.7555 C107.649587,19.7555 108.301331,19.9067485 108.8495,20.20925 C109.397669,20.5117515 109.821165,20.9737469 110.12,21.59525 C110.418835,22.2167531 110.56825,22.9949953 110.56825,23.93 C110.56825,24.861338 110.417918,25.6386635 110.11725,26.262 C109.816582,26.8853364 109.392169,27.3482485 108.844,27.65075 C108.295831,27.9532515 107.64592,28.1045 106.89425,28.1045 Z M106.89425,26.9055 C107.594587,26.9055 108.130831,26.6717523 108.503,26.20425 C108.875169,25.7367477 109.06125,24.9896718 109.06125,23.963 C109.06125,22.9069947 108.874252,22.1415857 108.50025,21.66675 C108.126248,21.1919143 107.59092,20.9545 106.89425,20.9545 C106.19758,20.9545 105.663169,21.187331 105.291,21.653 C104.918831,22.118669 104.73275,22.8666615 104.73275,23.897 C104.73275,24.956672 104.917915,25.7229976 105.28825,26.196 C105.658585,26.6690024 106.193913,26.9055 106.89425,26.9055 Z M106.23975,19.2 L107.21875,17.572 L108.74225,17.572 L107.53775,19.2 L106.23975,19.2 Z M117.23425,19.86 L118.61475,19.86 L118.61475,28 L117.12975,28 L113.26325,22.0655 L113.26325,28 L111.87725,28 L111.87725,19.86 L113.36225,19.86 L117.23425,25.8 L117.23425,19.86 Z" id="MÁSINFORMACIÓN"></path>
                        </g>
                    </g>
                    <g id="Logo" transform="translate(56.000000, 57.000000)">
                        <g id="Group-Copy-3" transform="translate(8.400000, 0.000000)">
                            <path d="M4.75944005,24.7352 C3.95975605,24.7352 3.16204403,24.6783606 2.36628005,24.56468 C1.57051607,24.4509994 0.835523418,24.2844011 0.161280047,24.06488 L0.161280047,5.49584 L3.24240005,5.49584 L3.24240005,12.93992 L3.39528005,12.93992 C3.78728201,12.4773577 4.27335715,12.1167213 4.85352005,11.858 C5.43368295,11.5992787 6.08439644,11.46992 6.80568005,11.46992 C7.73864471,11.46992 8.57751632,11.6913978 9.32232005,12.13436 C10.0671238,12.5773222 10.6590379,13.2750752 11.09808,14.22764 C11.5371222,15.1802048 11.75664,16.3816727 11.75664,17.83208 C11.75664,20.1213714 11.1725659,21.8441942 10.0044,23.0006 C8.83623421,24.1570058 7.08793169,24.7352 4.75944005,24.7352 Z M5.01816005,22.35968 C6.24120616,22.35968 7.15259705,22.0225634 7.75236005,21.34832 C8.35212305,20.6740766 8.65200005,19.5843275 8.65200005,18.07904 C8.65200005,16.5894326 8.39720259,15.540843 7.88760005,14.93324 C7.3779975,14.325637 6.64888479,14.02184 5.70024005,14.02184 C5.22983769,14.02184 4.77708222,14.1080791 4.34196005,14.28056 C3.90683787,14.4530409 3.54032154,14.7117583 3.24240005,15.05672 L3.24240005,22.13624 C3.78336275,22.2852007 4.37527683,22.35968 5.01816005,22.35968 Z M15.3552001,24.5 L15.3552001,5.49584 L18.4363201,5.49584 L18.4363201,24.5 L15.3552001,24.5 Z M26.9505601,11.46992 C28.2520066,11.46992 29.3064761,11.6325984 30.1140001,11.95796 C30.9215242,12.2833216 31.5232382,12.8183963 31.9191601,13.5632 C32.3150821,14.3080037 32.5130401,15.3193536 32.5130401,16.59728 L32.5130401,24.5 L29.9611201,24.5 L29.7494401,23.17112 L29.5848001,23.17112 C29.2006382,23.6807225 28.7047632,24.0668387 28.0971601,24.32948 C27.4895571,24.5921213 26.8172838,24.72344 26.0803201,24.72344 C25.2414359,24.72344 24.5162432,24.5744815 23.9047201,24.27656 C23.2931971,23.9786385 22.8247618,23.5572427 22.4994001,23.01236 C22.1740385,22.4674773 22.0113601,21.8265637 22.0113601,21.0896 C22.0113601,19.897914 22.4190361,18.9767233 23.2344001,18.326 C24.0497642,17.6752767 25.3394313,17.2793607 27.1034401,17.13824 L29.5024801,16.9148 L29.5024801,16.40912 C29.5024801,15.7583967 29.3986012,15.2468419 29.1908401,14.87444 C28.9830791,14.5020381 28.6577224,14.2374408 28.2147601,14.08064 C27.7717979,13.9238392 27.1779239,13.84544 26.4331201,13.84544 C25.9078375,13.84544 25.3394432,13.8905195 24.7279201,13.98068 C24.1163971,14.0708405 23.528403,14.2060791 22.9639201,14.3864 L22.9639201,12.02264 C23.544083,11.8423191 24.1928366,11.7051205 24.9102001,11.61104 C25.6275637,11.5169595 26.3076769,11.46992 26.9505601,11.46992 Z M27.0328801,22.53608 C27.4876024,22.53608 27.928598,22.4498409 28.3558801,22.27736 C28.7831623,22.1048791 29.1653585,21.8304819 29.5024801,21.45416 L29.5024801,18.72584 L27.3974401,18.914 C26.5899161,18.9924004 25.999962,19.1864385 25.6275601,19.49612 C25.2551583,19.8058015 25.0689601,20.2389572 25.0689601,20.7956 C25.0689601,21.3600828 25.2355585,21.7912785 25.5687601,22.0892 C25.9019618,22.3871215 26.3899969,22.53608 27.0328801,22.53608 Z M42.3561602,24.7352 C40.2863898,24.7352 38.7144856,24.1883655 37.6404002,23.09468 C36.5663148,22.0009945 36.0292802,20.3369712 36.0292802,18.10256 C36.0292802,15.8524687 36.6015945,14.1845254 37.7462402,13.09868 C38.8908859,12.0128346 40.5647092,11.46992 42.7677602,11.46992 C43.7634452,11.46992 44.6924759,11.571839 45.5548802,11.77568 L45.5548802,14.24528 C44.7003159,14.0649591 43.9045639,13.9748 43.1676002,13.9748 C42.2503156,13.9748 41.5016031,14.1119986 40.9214402,14.3864 C40.3412773,14.6608014 39.9100816,15.097877 39.6278402,15.69764 C39.3455988,16.297403 39.2044802,17.0872751 39.2044802,18.06728 C39.2044802,19.5490474 39.5004372,20.6133168 40.0923602,21.26012 C40.6842831,21.9069232 41.5917541,22.23032 42.8148002,22.23032 C43.2146422,22.23032 43.632118,22.1930804 44.0672402,22.1186 C44.5023624,22.0441196 44.9982374,21.9284808 45.5548802,21.77168 L45.5548802,24.24128 C44.5513552,24.5705616 43.4851258,24.7352 42.3561602,24.7352 Z M57.6441602,24.5 L53.7868802,19.16096 L52.0111202,19.16096 L52.0111202,24.5 L48.9300002,24.5 L48.9300002,5.49584 L52.0111202,5.49584 L52.0111202,16.66784 L53.7633602,16.66784 L57.3031202,11.66984 L60.6194402,11.66984 L56.3152802,17.8556 L61.0310402,24.5 L57.6441602,24.5 Z M64.8883203,20.83088 C65.5625637,20.83088 66.0780385,21.0405979 66.4347603,21.46004 C66.7914821,21.8794821 66.9698403,22.5047158 66.9698403,23.33576 C66.9698403,24.2138444 66.8267617,25.0958356 66.5406003,25.98176 C66.2544388,26.8676844 65.8644027,27.6751964 65.3704803,28.40432 L63.5947203,28.40432 C63.9161619,27.6673563 64.1650794,27.002923 64.3414803,26.411 C64.5178812,25.819077 64.6296,25.2369629 64.6766403,24.66464 C64.1278375,24.6175998 63.6927219,24.4235617 63.3712803,24.08252 C63.0498387,23.7414783 62.8891203,23.2965627 62.8891203,22.74776 C62.8891203,22.151917 63.0694385,21.6834817 63.4300803,21.34244 C63.7907221,21.0013983 64.2767972,20.83088 64.8883203,20.83088 Z M64.9353603,15.33896 C64.3159972,15.33896 63.8201221,15.1664817 63.4477203,14.82152 C63.0753184,14.4765583 62.8891203,14.0100829 62.8891203,13.42208 C62.8891203,12.8340771 63.0733584,12.3656417 63.4418403,12.01676 C63.8103221,11.6678783 64.3081571,11.49344 64.9353603,11.49344 C65.5625634,11.49344 66.0603984,11.6698382 66.4288803,12.02264 C66.7973621,12.3754418 66.9816003,12.8419171 66.9816003,13.42208 C66.9816003,14.0022429 66.7954021,14.4667583 66.4230003,14.81564 C66.0505984,15.1645217 65.5547234,15.33896 64.9353603,15.33896 Z M84.6451204,15.89168 L84.6451204,18.34952 L84.1276804,18.34952 C83.5867177,18.34952 83.1712018,18.4925986 82.8811204,18.77876 C82.5910389,19.0649214 82.4460004,19.4863172 82.4460004,20.04296 L82.4460004,25.52312 C82.4460004,26.9656872 82.0520443,28.0573963 81.2641204,28.79828 C80.4761964,29.5391637 79.3060881,29.9096 77.7537604,29.9096 C77.071677,29.9096 76.4366433,29.8625605 75.8486404,29.76848 L75.8486404,27.40472 L77.2716004,27.40472 C77.9772039,27.40472 78.5024786,27.2498815 78.8474404,26.9402 C79.1924021,26.6305185 79.3648804,26.1346434 79.3648804,25.45256 L79.3648804,20.12528 C79.3648804,19.3099159 79.5334387,18.6552825 79.8705604,18.16136 C80.2076821,17.6674375 80.7368768,17.318561 81.4581604,17.11472 C80.7368768,16.918719 80.2076821,16.5737625 79.8705604,16.07984 C79.5334387,15.5859175 79.3648804,14.9312841 79.3648804,14.11592 L79.3648804,9.71768 C79.3648804,9.03559659 79.1924021,8.53972155 78.8474404,8.23004 C78.5024786,7.92035845 77.9772039,7.76552 77.2716004,7.76552 L75.8486404,7.76552 L75.8486404,5.40176 C76.4366433,5.30767953 77.071677,5.26064 77.7537604,5.26064 C79.3060881,5.26064 80.4761964,5.6310763 81.2641204,6.37196 C82.0520443,7.1128437 82.4460004,8.20455279 82.4460004,9.64712 L82.4460004,14.19824 C82.4460004,14.7548828 82.5910389,15.1762786 82.8811204,15.46244 C83.1712018,15.7486014 83.5867177,15.89168 84.1276804,15.89168 L84.6451204,15.89168 Z" id="black;}" fill="#FFFFFF" fill-rule="nonzero"></path>
                            <path d="M101.6148,6.49544 C100.579915,6.49544 99.8174824,6.73063765 99.32748,7.20104 C98.8374775,7.67144235 98.59248,8.44759459 98.59248,9.52952 L98.59248,11.76392 L102.75552,11.76392 L102.75552,12.9752 L98.59248,12.9752 L98.59248,24.5 L97.18128,24.5 L97.18128,12.9752 L94.69992,12.9752 L94.69992,11.76392 L97.18128,11.76392 L97.18128,9.60008 C97.18128,8.16535283 97.5458364,7.08344365 98.27496,6.35432 C99.0040836,5.62519635 100.089913,5.26064 101.53248,5.26064 C102.120483,5.26064 102.684957,5.30767953 103.22592,5.40176 L103.22592,6.64832 C102.708477,6.54639949 102.171443,6.49544 101.6148,6.49544 Z M104.54304,11.76392 L105.74256,11.76392 L105.86016,13.48088 L105.966,13.48088 C106.412882,12.9007171 106.975397,12.4518816 107.65356,12.13436 C108.331723,11.8168384 109.039276,11.65808 109.77624,11.65808 C110.160402,11.65808 110.493599,11.6855197 110.77584,11.7404 L110.77584,13.08104 C110.501439,13.0339998 110.148642,13.01048 109.71744,13.01048 C109.019677,13.01048 108.323883,13.1790383 107.63004,13.51616 C106.936197,13.8532817 106.377602,14.3354369 105.95424,14.96264 L105.95424,24.5 L104.54304,24.5 L104.54304,11.76392 Z M112.79856,24.5 L112.79856,11.76392 L114.22152,11.76392 L114.22152,24.5 L112.79856,24.5 Z M113.50416,8.76512 C113.174878,8.76512 112.916161,8.67888086 112.728,8.5064 C112.539839,8.33391914 112.44576,8.09480153 112.44576,7.78904 C112.44576,7.48327847 112.539839,7.23828092 112.728,7.05404 C112.916161,6.86979908 113.174878,6.77768 113.50416,6.77768 C113.833442,6.77768 114.092159,6.86979908 114.28032,7.05404 C114.468481,7.23828092 114.56256,7.48327847 114.56256,7.78904 C114.56256,8.09480153 114.470441,8.33391914 114.2862,8.5064 C114.101959,8.67888086 113.841282,8.76512 113.50416,8.76512 Z M122.23008,24.71168 C120.732633,24.71168 119.531165,24.2060051 118.62564,23.19464 C117.720115,22.1832749 117.26736,20.5839309 117.26736,18.39656 C117.26736,13.8493373 119.364539,11.57576 123.55896,11.57576 C124.272404,11.57576 125.013276,11.6384794 125.7816,11.76392 L125.7816,5.49584 L127.1928,5.49584 L127.1928,24.5 L125.98152,24.5 L125.87568,23.11232 L125.76984,23.11232 C125.369998,23.5984024 124.864323,23.9864785 124.2528,24.27656 C123.641277,24.5666415 122.967044,24.71168 122.23008,24.71168 Z M122.4888,23.46512 C123.139523,23.46512 123.754957,23.3200815 124.33512,23.03 C124.915283,22.7399185 125.397438,22.3008829 125.7816,21.71288 L125.7816,13.02224 C125.475838,12.9516796 125.117162,12.8928802 124.70556,12.84584 C124.293958,12.7987998 123.900002,12.77528 123.52368,12.77528 C121.908632,12.77528 120.705204,13.2123556 119.91336,14.08652 C119.121516,14.9606844 118.7256,16.3503105 118.7256,18.25544 C118.7256,20.1527295 119.052917,21.4953161 119.70756,22.28324 C120.362203,23.0711639 121.289274,23.46512 122.4888,23.46512 Z M134.56632,11.57576 C135.609045,11.57576 136.467517,11.7129586 137.14176,11.98736 C137.816003,12.2617614 138.327558,12.7203968 138.67644,13.36328 C139.025322,14.0061632 139.19976,14.8724746 139.19976,15.96224 L139.19976,24.5 L138.00024,24.5 L137.8944,23.04176 L137.7768,23.04176 C137.353438,23.5670426 136.812483,23.9747185 136.15392,24.2648 C135.495357,24.5548815 134.785844,24.69992 134.02536,24.69992 C133.249196,24.69992 132.576923,24.5646814 132.00852,24.2942 C131.440117,24.0237186 131.003042,23.6336825 130.69728,23.12408 C130.391518,22.6144775 130.23864,22.0029636 130.23864,21.28952 C130.23864,20.1919145 130.595356,19.341283 131.3088,18.7376 C132.022244,18.133917 133.147272,17.7497608 134.68392,17.58512 L137.81208,17.23232 L137.81208,15.9152 C137.81208,15.107676 137.686641,14.4765623 137.43576,14.02184 C137.184879,13.5671177 136.814442,13.2476409 136.32444,13.0634 C135.834438,12.8791591 135.201364,12.78704 134.4252,12.78704 C133.899917,12.78704 133.339363,12.8340795 132.74352,12.92816 C132.147677,13.0222405 131.563603,13.167279 130.99128,13.36328 L130.99128,12.14024 C131.493043,11.9599191 132.063397,11.8207605 132.70236,11.72276 C133.341323,11.6247595 133.962637,11.57576 134.56632,11.57576 Z M134.3076,23.53568 C134.966163,23.53568 135.599237,23.3945614 136.20684,23.11232 C136.814443,22.8300786 137.349518,22.391043 137.81208,21.7952 L137.81208,18.29072 L134.75448,18.63176 C133.680395,18.7493606 132.900322,19.011998 132.41424,19.41968 C131.928158,19.827362 131.68512,20.4075162 131.68512,21.16016 C131.68512,21.9363239 131.904638,22.526278 132.34368,22.93004 C132.782722,23.333802 133.437356,23.53568 134.3076,23.53568 Z M151.34784,11.76392 L152.79432,11.76392 L145.90296,29.6744 L144.46824,29.6744 L146.4792,24.5 L146.05584,24.5 L141.15192,11.76392 L142.66896,11.76392 L146.98488,23.33576 L151.34784,11.76392 Z" id="friday" fill="#9DE7AC" fill-rule="nonzero"></path>
                        </g>
                    </g>
                </g>
                <path d="M24.823,24.631 C25.5183368,24.7756674 26.0503315,25.0626645 26.419,25.492 C26.7876685,25.9213355 26.972,26.4743299 26.972,27.151 C26.972,28.1030048 26.63367,28.8379974 25.957,29.356 C25.28033,29.8740026 24.2816733,30.133 22.961,30.133 C22.027662,30.133 21.1503374,30.0093346 20.329,29.762 L20.329,28.341 C20.7256686,28.4623339 21.1491644,28.5556663 21.5995,28.621 C22.0498356,28.6863337 22.4803313,28.719 22.891,28.719 C24.4356744,28.719 25.208,28.1613389 25.208,27.046 C25.208,26.5093307 25.0236685,26.1021681 24.655,25.8245 C24.2863315,25.5468319 23.7053373,25.408 22.912,25.408 L21.491,25.408 L21.491,23.98 L22.492,23.98 C23.2853373,23.98 23.8744981,23.8435014 24.2595,23.5705 C24.6445019,23.2974986 24.837,22.9020026 24.837,22.384 C24.837,21.4086618 24.1720067,20.921 22.842,20.921 C22.449998,20.921 22.054502,20.9536663 21.6555,21.019 C21.256498,21.0843337 20.8820018,21.1799994 20.532,21.306 L20.532,19.892 C20.8586683,19.7753328 21.2483311,19.6820004 21.701,19.612 C22.1536689,19.5419997 22.5969978,19.507 23.031,19.507 C24.2116726,19.507 25.1076636,19.7426643 25.719,20.214 C26.3303364,20.6853357 26.636,21.357329 26.636,22.23 C26.636,22.8180029 26.4761683,23.3219979 26.1565,23.742 C25.8368317,24.1620021 25.3923362,24.4583325 24.823,24.631 Z M30.276,23.833 C31.2886717,23.8890003 32.1123302,24.0406654 32.747,24.288 C33.3816698,24.5353346 33.8459985,24.8794978 34.14,25.3205 C34.4340015,25.7615022 34.581,26.3109967 34.581,26.969 C34.5763333,28.0003385 34.2368367,28.7854973 33.5625,29.3245 C32.8881633,29.8635027 31.8930066,30.133 30.577,30.133 C29.6529954,30.133 28.7733375,30.0023346 27.938,29.741 L27.938,28.32 C28.3346687,28.4413339 28.7581644,28.535833 29.2085,28.6035 C29.6588356,28.671167 30.0916646,28.705 30.507,28.705 C31.2910039,28.705 31.8708315,28.5638347 32.2465,28.2815 C32.6221685,27.9991653 32.81,27.5756695 32.81,27.011 C32.81,26.6283314 32.7143343,26.3168345 32.523,26.0765 C32.3316657,25.8361655 32.0038357,25.6460007 31.5395,25.506 C31.0751643,25.3659993 30.4323374,25.2726669 29.611,25.226 L28.288,25.156 L28.638,19.64 L34.154,19.64 L34.154,21.089 L30.304,21.089 L30.115,23.826 L30.276,23.833 Z M38.228,25.996 C37.4066626,25.996 36.7580024,25.7265027 36.282,25.1875 C35.8059976,24.6484973 35.568,23.8376721 35.568,22.755 C35.568,21.6723279 35.8059976,20.860336 36.282,20.319 C36.7580024,19.777664 37.4066626,19.507 38.228,19.507 C39.0493374,19.507 39.696831,19.777664 40.1705,20.319 C40.644169,20.860336 40.881,21.6723279 40.881,22.755 C40.881,23.8376721 40.6430024,24.6484973 40.167,25.1875 C39.6909976,25.7265027 39.0446708,25.996 38.228,25.996 Z M38.9,30 L43.492,19.64 L45.018,19.64 L40.426,30 L38.9,30 Z M38.228,24.82 C38.6060019,24.82 38.8988323,24.6613349 39.1065,24.344 C39.3141677,24.0266651 39.418,23.499337 39.418,22.762 C39.418,22.0199963 39.3141677,21.4891683 39.1065,21.1695 C38.8988323,20.8498317 38.6060019,20.69 38.228,20.69 C37.8499981,20.69 37.5560011,20.8486651 37.346,21.166 C37.135999,21.4833349 37.031,22.010663 37.031,22.748 C37.031,23.485337 37.135999,24.0149984 37.346,24.337 C37.5560011,24.6590016 37.8499981,24.82 38.228,24.82 Z M45.69,30.126 C44.8686626,30.126 44.2200024,29.855336 43.744,29.314 C43.2679976,28.772664 43.03,27.9606721 43.03,26.878 C43.03,25.7953279 43.2679976,24.983336 43.744,24.442 C44.2200024,23.900664 44.8686626,23.63 45.69,23.63 C46.5113374,23.63 47.158831,23.900664 47.6325,24.442 C48.106169,24.983336 48.343,25.7953279 48.343,26.878 C48.343,27.9606721 48.106169,28.772664 47.6325,29.314 C47.158831,29.855336 46.5113374,30.126 45.69,30.126 Z M45.69,28.943 C46.0680019,28.943 46.3608323,28.7843349 46.5685,28.467 C46.7761677,28.1496651 46.88,27.622337 46.88,26.885 C46.88,26.1429963 46.7761677,25.6121683 46.5685,25.2925 C46.3608323,24.9728317 46.0680019,24.813 45.69,24.813 C45.3119981,24.813 45.0180011,24.9728317 44.808,25.2925 C44.597999,25.6121683 44.493,26.1383297 44.493,26.871 C44.493,27.608337 44.597999,28.1379984 44.808,28.46 C45.0180011,28.7820016 45.3119981,28.943 45.69,28.943 Z M56.113,30.133 C55.5249971,30.133 54.9988357,30.0023346 54.5345,29.741 C54.0701643,29.4796654 53.7015014,29.0655028 53.4285,28.4985 C53.1554986,27.9314972 53.019,27.211671 53.019,26.339 C53.019,24.9949933 53.3631632,23.9753368 54.0515,23.28 C54.7398368,22.5846632 55.7443267,22.237 57.065,22.237 C57.3776682,22.237 57.7183315,22.2626664 58.087,22.314 L58.087,18.688 L59.921,18.688 L59.921,30 L58.374,30 L58.262,29.195 L58.164,29.195 C57.9353322,29.4843348 57.6460017,29.7129992 57.296,29.881 C56.9459983,30.0490008 56.5516689,30.133 56.113,30.133 Z M56.617,28.621 C56.9016681,28.621 57.1746654,28.5638339 57.436,28.4495 C57.6973346,28.3351661 57.9143325,28.1660011 58.087,27.942 L58.087,23.763 C57.7743318,23.6929996 57.4336685,23.658 57.065,23.658 C56.3229963,23.658 55.7711685,23.857498 55.4095,24.2565 C55.0478315,24.655502 54.867,25.3006622 54.867,26.192 C54.867,27.0786711 55.0186651,27.7051648 55.322,28.0715 C55.6253349,28.4378352 56.0569972,28.621 56.617,28.621 Z M67.943,26.731 L63.218,26.731 C63.2413334,27.2256691 63.3346659,27.6188319 63.498,27.9105 C63.6613342,28.2021681 63.9133316,28.4133327 64.254,28.544 C64.5946684,28.6746673 65.0496638,28.74 65.619,28.74 C66.1790028,28.74 66.8183297,28.6513342 67.537,28.474 L67.537,29.867 C66.8043297,30.0490009 66.0810036,30.14 65.367,30.14 C64.4569954,30.14 63.7091696,30.0023347 63.1235,29.727 C62.5378304,29.4516653 62.1003348,29.0235029 61.811,28.4425 C61.5216652,27.8614971 61.377,27.1066713 61.377,26.178 C61.377,25.3239957 61.5099987,24.6030029 61.776,24.015 C62.0420013,23.4269971 62.4269975,22.9848348 62.931,22.6885 C63.4350025,22.3921652 64.0439964,22.244 64.758,22.244 C65.7986719,22.244 66.589664,22.57883 67.131,23.2485 C67.672336,23.91817 67.943,24.9133267 67.943,26.234 L67.943,26.731 Z M64.744,23.441 C64.2493309,23.441 63.8736679,23.6089983 63.617,23.945 C63.3603321,24.2810017 63.2250001,24.8433294 63.211,25.632 L66.228,25.632 C66.2139999,24.8433294 66.0845012,24.2810017 65.8395,23.945 C65.5944988,23.6089983 65.2293358,23.441 64.744,23.441 Z M75.524,30.133 C74.9359971,30.133 74.4098357,30.0023346 73.9455,29.741 C73.4811643,29.4796654 73.1125014,29.0655028 72.8395,28.4985 C72.5664986,27.9314972 72.43,27.211671 72.43,26.339 C72.43,24.9949933 72.7741632,23.9753368 73.4625,23.28 C74.1508368,22.5846632 75.1553267,22.237 76.476,22.237 C76.7886682,22.237 77.1293315,22.2626664 77.498,22.314 L77.498,18.688 L79.332,18.688 L79.332,30 L77.785,30 L77.673,29.195 L77.575,29.195 C77.3463322,29.4843348 77.0570017,29.7129992 76.707,29.881 C76.3569983,30.0490008 75.9626689,30.133 75.524,30.133 Z M76.028,28.621 C76.3126681,28.621 76.5856654,28.5638339 76.847,28.4495 C77.1083346,28.3351661 77.3253325,28.1660011 77.498,27.942 L77.498,23.763 C77.1853318,23.6929996 76.8446685,23.658 76.476,23.658 C75.7339963,23.658 75.1821685,23.857498 74.8205,24.2565 C74.4588315,24.655502 74.278,25.3006622 74.278,26.192 C74.278,27.0786711 74.4296652,27.7051648 74.733,28.0715 C75.0363349,28.4378352 75.4679972,28.621 76.028,28.621 Z M87.354,26.731 L82.629,26.731 C82.6523334,27.2256691 82.7456658,27.6188319 82.909,27.9105 C83.0723341,28.2021681 83.3243316,28.4133327 83.665,28.544 C84.0056684,28.6746673 84.4606638,28.74 85.03,28.74 C85.5900028,28.74 86.2293297,28.6513342 86.948,28.474 L86.948,29.867 C86.2153297,30.0490009 85.4920036,30.14 84.778,30.14 C83.8679954,30.14 83.1201696,30.0023347 82.5345,29.727 C81.9488304,29.4516653 81.5113348,29.0235029 81.222,28.4425 C80.9326652,27.8614971 80.788,27.1066713 80.788,26.178 C80.788,25.3239957 80.9209987,24.6030029 81.187,24.015 C81.4530013,23.4269971 81.8379975,22.9848348 82.342,22.6885 C82.8460025,22.3921652 83.4549964,22.244 84.169,22.244 C85.2096719,22.244 86.000664,22.57883 86.542,23.2485 C87.083336,23.91817 87.354,24.9133267 87.354,26.234 L87.354,26.731 Z M84.155,23.441 C83.6603309,23.441 83.2846679,23.6089983 83.028,23.945 C82.7713321,24.2810017 82.6360001,24.8433294 82.622,25.632 L85.639,25.632 C85.6249999,24.8433294 85.4955012,24.2810017 85.2505,23.945 C85.0054988,23.6089983 84.6403358,23.441 84.155,23.441 Z M90.819,30.14 C89.9509957,30.14 89.1740034,30.0326677 88.488,29.818 L88.488,28.446 C89.2300037,28.6700011 89.999996,28.782 90.798,28.782 C91.339336,28.782 91.7348321,28.7015008 91.9845,28.5405 C92.2341679,28.3794992 92.359,28.1450015 92.359,27.837 C92.359,27.5896654 92.2936673,27.4006673 92.163,27.27 C92.0323327,27.1393327 91.8083349,27.0413337 91.491,26.976 L90.329,26.759 C89.6243298,26.6189993 89.1110016,26.3728351 88.789,26.0205 C88.4669984,25.6681649 88.306,25.1956696 88.306,24.603 C88.306,24.1269976 88.4308321,23.7128351 88.6805,23.3605 C88.9301679,23.0081649 89.3093308,22.734001 89.818,22.538 C90.3266692,22.341999 90.9566629,22.244 91.708,22.244 C92.4126702,22.244 93.0636637,22.3233325 93.661,22.482 L93.661,23.847 C93.058997,23.6836658 92.4243367,23.602 91.757,23.602 C90.6043276,23.602 90.028,23.9193302 90.028,24.554 C90.028,24.7780011 90.092166,24.9564993 90.2205,25.0895 C90.348834,25.2225007 90.5669985,25.3216663 90.875,25.387 L92.037,25.604 C92.7370035,25.7440007 93.2514984,25.983165 93.5805,26.3215 C93.9095016,26.659835 94.074,27.1416635 94.074,27.767 C94.074,28.2570024 93.9480013,28.6793316 93.696,29.034 C93.4439987,29.3886684 93.0741691,29.6616657 92.5865,29.853 C92.0988309,30.0443343 91.5096701,30.14 90.819,30.14 Z M98.785,30.14 C97.5529938,30.14 96.6173365,29.8145033 95.978,29.1635 C95.3386635,28.5124967 95.019,27.5220067 95.019,26.192 C95.019,24.85266 95.3596633,23.8598366 96.041,23.2135 C96.7223367,22.5671634 97.7186601,22.244 99.03,22.244 C99.6226696,22.244 100.175664,22.3046661 100.689,22.426 L100.689,23.896 C100.180331,23.7886661 99.7066689,23.735 99.268,23.735 C98.7219973,23.735 98.2763351,23.8166658 97.931,23.98 C97.5856649,24.1433342 97.3290008,24.4034982 97.161,24.7605 C96.9929992,25.1175018 96.909,25.5876638 96.909,26.171 C96.909,27.0530044 97.0851649,27.6864981 97.4375,28.0715 C97.7898351,28.4565019 98.3299964,28.649 99.058,28.649 C99.2960012,28.649 99.5444987,28.6268336 99.8035,28.5825 C100.062501,28.5381664 100.357665,28.4693338 100.689,28.376 L100.689,29.846 C100.091664,30.042001 99.4570034,30.14 98.785,30.14 Z M104.413,30.133 C103.619663,30.133 102.993169,29.9008357 102.5335,29.4365 C102.073831,28.9721643 101.844,28.2406717 101.844,27.242 L101.844,22.363 L103.678,22.363 L103.678,27.13 C103.678,27.6386692 103.784166,28.0014989 103.9965,28.2185 C104.208834,28.4355011 104.510998,28.544 104.903,28.544 C105.197001,28.544 105.492165,28.4786673 105.7885,28.348 C106.084835,28.2173327 106.330999,28.023668 106.527,27.767 L106.527,22.363 L108.361,22.363 L108.361,30 L106.842,30 L106.716,29.209 L106.632,29.209 C106.333332,29.5123349 105.995002,29.7421659 105.617,29.8985 C105.238998,30.0548341 104.837669,30.133 104.413,30.133 Z M116.39,26.731 L111.665,26.731 C111.688333,27.2256691 111.781666,27.6188319 111.945,27.9105 C112.108334,28.2021681 112.360332,28.4133327 112.701,28.544 C113.041668,28.6746673 113.496664,28.74 114.066,28.74 C114.626003,28.74 115.26533,28.6513342 115.984,28.474 L115.984,29.867 C115.25133,30.0490009 114.528004,30.14 113.814,30.14 C112.903995,30.14 112.15617,30.0023347 111.5705,29.727 C110.98483,29.4516653 110.547335,29.0235029 110.258,28.4425 C109.968665,27.8614971 109.824,27.1066713 109.824,26.178 C109.824,25.3239957 109.956999,24.6030029 110.223,24.015 C110.489001,23.4269971 110.873997,22.9848348 111.378,22.6885 C111.882003,22.3921652 112.490996,22.244 113.205,22.244 C114.245672,22.244 115.036664,22.57883 115.578,23.2485 C116.119336,23.91817 116.39,24.9133267 116.39,26.234 L116.39,26.731 Z M113.191,23.441 C112.696331,23.441 112.320668,23.6089983 112.064,23.945 C111.807332,24.2810017 111.672,24.8433294 111.658,25.632 L114.675,25.632 C114.661,24.8433294 114.531501,24.2810017 114.2865,23.945 C114.041499,23.6089983 113.676336,23.441 113.191,23.441 Z M117.755,22.363 L119.274,22.363 L119.4,23.168 L119.498,23.168 C119.787335,22.8693318 120.129165,22.6406675 120.5235,22.482 C120.917835,22.3233325 121.338998,22.244 121.787,22.244 C122.575671,22.244 123.198664,22.4761643 123.656,22.9405 C124.113336,23.4048357 124.342,24.1386617 124.342,25.142 L124.342,30 L122.508,30 L122.508,25.247 C122.508,24.7383308 122.400668,24.3755011 122.186,24.1585 C121.971332,23.9414989 121.658669,23.833 121.248,23.833 C120.939998,23.833 120.636668,23.897166 120.338,24.0255 C120.039332,24.153834 119.789668,24.3463321 119.589,24.603 L119.589,30 L117.755,30 L117.755,22.363 Z M129.802,28.614 C130.026001,28.614 130.308332,28.5813337 130.649,28.516 L130.649,29.986 C130.205664,30.0886672 129.764669,30.14 129.326,30.14 C127.515324,30.14 126.61,29.2276758 126.61,27.403 L126.61,23.826 L125.294,23.826 L125.294,22.363 L126.61,22.363 L126.932,19.64 L128.444,19.64 L128.444,22.363 L130.579,22.363 L130.579,23.826 L128.444,23.826 L128.444,27.109 C128.444,27.4823352 128.491833,27.7786656 128.5875,27.998 C128.683167,28.2173344 128.828999,28.3748329 129.025,28.4705 C129.221001,28.5661671 129.479998,28.614 129.802,28.614 Z M134.954,30.14 C133.838661,30.14 132.96717,29.8110033 132.3395,29.153 C131.71183,28.4949967 131.398,27.5103399 131.398,26.199 C131.398,24.8783267 131.707164,23.8890033 132.3255,23.231 C132.943836,22.5729967 133.819994,22.244 134.954,22.244 C136.088006,22.244 136.964164,22.5729967 137.5825,23.231 C138.200836,23.8890033 138.51,24.8759934 138.51,26.192 C138.51,27.0693377 138.366501,27.8019971 138.0795,28.39 C137.792499,28.9780029 137.383003,29.4166652 136.851,29.706 C136.318997,29.9953348 135.68667,30.14 134.954,30.14 Z M134.954,28.726 C135.518669,28.726 135.944499,28.5346686 136.2315,28.152 C136.518501,27.7693314 136.662,27.1206712 136.662,26.206 C136.662,25.2773287 136.518501,24.6205019 136.2315,24.2355 C135.944499,23.8504981 135.518669,23.658 134.954,23.658 C134.389331,23.658 133.963501,23.8493314 133.6765,24.232 C133.389499,24.6146686 133.246,25.2633288 133.246,26.178 C133.246,26.8080032 133.312499,27.3096648 133.4455,27.683 C133.578501,28.0563352 133.769832,28.3234992 134.0195,28.4845 C134.269168,28.6455008 134.580665,28.726 134.954,28.726 Z M140.883,30.105 C140.514331,30.105 140.219168,30.0023344 139.9975,29.797 C139.775832,29.5916656 139.665,29.3140017 139.665,28.964 C139.665,28.6139982 139.774666,28.3351677 139.994,28.1275 C140.213334,27.9198323 140.509665,27.816 140.883,27.816 C141.256335,27.816 141.552666,27.9209989 141.772,28.131 C141.991334,28.341001 142.101,28.6186649 142.101,28.964 C142.101,29.3093351 141.990168,29.5858323 141.7685,29.7935 C141.546832,30.0011677 141.251669,30.105 140.883,30.105 Z M140.883,24.547 C140.514331,24.547 140.219168,24.4443344 139.9975,24.239 C139.775832,24.0336656 139.665,23.7560018 139.665,23.406 C139.665,23.0559983 139.774666,22.7771677 139.994,22.5695 C140.213334,22.3618323 140.509665,22.258 140.883,22.258 C141.256335,22.258 141.552666,22.3629989 141.772,22.573 C141.991334,22.783001 142.101,23.0606649 142.101,23.406 C142.101,23.7513351 141.990168,24.0278323 141.7685,24.2355 C141.546832,24.4431677 141.251669,24.547 140.883,24.547 Z M148.17,22.258 C148.538669,22.258 148.833832,22.3618323 149.0555,22.5695 C149.277168,22.7771677 149.388,23.0536649 149.388,23.399 C149.388,23.7443351 149.278334,24.021999 149.059,24.232 C148.839666,24.4420011 148.543335,24.547 148.17,24.547 C147.796665,24.547 147.500334,24.4443344 147.281,24.239 C147.061666,24.0336656 146.952,23.7536684 146.952,23.399 C146.952,23.0489983 147.062832,22.7713344 147.2845,22.566 C147.506168,22.3606656 147.801331,22.258 148.17,22.258 Z M147.617,25.492 L148.744,25.492 L149.143,29.048 L149.143,32.66 L147.197,32.66 L147.197,29.048 L147.617,25.492 Z M159.685,19.64 L161.946,19.64 L161.946,30 L160.196,30 L160.196,22.174 L157.354,28.523 L155.786,28.523 L152.944,22.321 L152.944,30 L151.194,30 L151.194,19.64 L153.455,19.64 L156.605,26.626 L159.685,19.64 Z M166.447,22.244 C167.221671,22.244 167.849331,22.3408324 168.33,22.5345 C168.810669,22.7281676 169.168832,23.0466645 169.4045,23.49 C169.640168,23.9333356 169.758,24.5353295 169.758,25.296 L169.758,30 L168.239,30 L168.113,29.209 L168.015,29.209 C167.786332,29.5123349 167.491168,29.7421659 167.1295,29.8985 C166.767832,30.0548341 166.367669,30.133 165.929,30.133 C165.429664,30.133 164.998002,30.0443342 164.634,29.867 C164.269998,29.6896658 163.991168,29.438835 163.7975,29.1145 C163.603832,28.790165 163.507,28.4086689 163.507,27.97 C163.507,27.2606631 163.749664,26.7123353 164.235,26.325 C164.720336,25.9376647 165.487995,25.7020004 166.538,25.618 L167.966,25.485 L167.966,25.184 C167.966,24.7966647 167.904167,24.4921678 167.7805,24.2705 C167.656833,24.0488322 167.463168,23.8913338 167.1995,23.798 C166.935832,23.7046662 166.582336,23.658 166.139,23.658 C165.826332,23.658 165.488002,23.6848331 165.124,23.7385 C164.759998,23.7921669 164.410002,23.8726661 164.074,23.98 L164.074,22.573 C164.419335,22.4656661 164.805498,22.3840003 165.2325,22.328 C165.659502,22.2719997 166.064331,22.244 166.447,22.244 Z M166.496,28.831 C166.766668,28.831 167.029165,28.7796672 167.2835,28.677 C167.537835,28.5743328 167.765332,28.4110011 167.966,28.187 L167.966,26.563 L166.713,26.675 C166.232331,26.7216669 165.881168,26.8371657 165.6595,27.0215 C165.437832,27.2058343 165.327,27.463665 165.327,27.795 C165.327,28.1310017 165.426166,28.3876658 165.6245,28.565 C165.822834,28.7423342 166.113331,28.831 166.496,28.831 Z M165.936,21.32 L167.476,18.688 L169.436,18.688 L167.616,21.32 L165.936,21.32 Z M173.615,30.14 C172.746996,30.14 171.970003,30.0326677 171.284,29.818 L171.284,28.446 C172.026004,28.6700011 172.795996,28.782 173.594,28.782 C174.135336,28.782 174.530832,28.7015008 174.7805,28.5405 C175.030168,28.3794992 175.155,28.1450015 175.155,27.837 C175.155,27.5896654 175.089667,27.4006673 174.959,27.27 C174.828333,27.1393327 174.604335,27.0413337 174.287,26.976 L173.125,26.759 C172.42033,26.6189993 171.907002,26.3728351 171.585,26.0205 C171.262998,25.6681649 171.102,25.1956696 171.102,24.603 C171.102,24.1269976 171.226832,23.7128351 171.4765,23.3605 C171.726168,23.0081649 172.105331,22.734001 172.614,22.538 C173.122669,22.341999 173.752663,22.244 174.504,22.244 C175.20867,22.244 175.859664,22.3233325 176.457,22.482 L176.457,23.847 C175.854997,23.6836658 175.220337,23.602 174.553,23.602 C173.400328,23.602 172.824,23.9193302 172.824,24.554 C172.824,24.7780011 172.888166,24.9564993 173.0165,25.0895 C173.144834,25.2225007 173.362998,25.3216663 173.671,25.387 L174.833,25.604 C175.533003,25.7440007 176.047498,25.983165 176.3765,26.3215 C176.705502,26.659835 176.87,27.1416635 176.87,27.767 C176.87,28.2570024 176.744001,28.6793316 176.492,29.034 C176.239999,29.3886684 175.870169,29.6616657 175.3825,29.853 C174.894831,30.0443343 174.30567,30.14 173.615,30.14 Z M184.395,30.133 C183.806997,30.133 183.280836,30.0023346 182.8165,29.741 C182.352164,29.4796654 181.983501,29.0655028 181.7105,28.4985 C181.437499,27.9314972 181.301,27.211671 181.301,26.339 C181.301,24.9949933 181.645163,23.9753368 182.3335,23.28 C183.021837,22.5846632 184.026327,22.237 185.347,22.237 C185.659668,22.237 186.000331,22.2626664 186.369,22.314 L186.369,18.688 L188.203,18.688 L188.203,30 L186.656,30 L186.544,29.195 L186.446,29.195 C186.217332,29.4843348 185.928002,29.7129992 185.578,29.881 C185.227998,30.0490008 184.833669,30.133 184.395,30.133 Z M184.899,28.621 C185.183668,28.621 185.456665,28.5638339 185.718,28.4495 C185.979335,28.3351661 186.196332,28.1660011 186.369,27.942 L186.369,23.763 C186.056332,23.6929996 185.715669,23.658 185.347,23.658 C184.604996,23.658 184.053168,23.857498 183.6915,24.2565 C183.329832,24.655502 183.149,25.3006622 183.149,26.192 C183.149,27.0786711 183.300665,27.7051648 183.604,28.0715 C183.907335,28.4378352 184.338997,28.621 184.899,28.621 Z M196.225,26.731 L191.5,26.731 C191.523333,27.2256691 191.616666,27.6188319 191.78,27.9105 C191.943334,28.2021681 192.195332,28.4133327 192.536,28.544 C192.876668,28.6746673 193.331664,28.74 193.901,28.74 C194.461003,28.74 195.10033,28.6513342 195.819,28.474 L195.819,29.867 C195.08633,30.0490009 194.363004,30.14 193.649,30.14 C192.738995,30.14 191.99117,30.0023347 191.4055,29.727 C190.81983,29.4516653 190.382335,29.0235029 190.093,28.4425 C189.803665,27.8614971 189.659,27.1066713 189.659,26.178 C189.659,25.3239957 189.791999,24.6030029 190.058,24.015 C190.324001,23.4269971 190.708997,22.9848348 191.213,22.6885 C191.717003,22.3921652 192.325996,22.244 193.04,22.244 C194.080672,22.244 194.871664,22.57883 195.413,23.2485 C195.954336,23.91817 196.225,24.9133267 196.225,26.234 L196.225,26.731 Z M193.026,23.441 C192.531331,23.441 192.155668,23.6089983 191.899,23.945 C191.642332,24.2810017 191.507,24.8433294 191.493,25.632 L194.51,25.632 C194.496,24.8433294 194.366501,24.2810017 194.1215,23.945 C193.876499,23.6089983 193.511336,23.441 193.026,23.441 Z M207.061,28.453 L207.061,30 L200.53,30 L200.53,28.999 L203.442,25.275 C203.899336,24.6869971 204.223666,24.1865021 204.415,23.7735 C204.606334,23.3604979 204.702,22.9650019 204.702,22.587 C204.702,22.045664 204.541002,21.6501679 204.219,21.4005 C203.896998,21.1508321 203.388337,21.026 202.693,21.026 C202.286998,21.026 201.886835,21.0621663 201.4925,21.1345 C201.098165,21.2068337 200.735335,21.3059994 200.404,21.432 L200.404,19.899 C200.712002,19.7823328 201.094664,19.6878337 201.552,19.6155 C202.009336,19.5431663 202.450331,19.507 202.875,19.507 C204.093006,19.507 205.009997,19.7414977 205.626,20.2105 C206.242003,20.6795023 206.55,21.4086617 206.55,22.398 C206.55,22.9486694 206.436834,23.4899973 206.2105,24.022 C205.984166,24.5540027 205.593336,25.1699965 205.038,25.87 L202.987,28.453 L207.061,28.453 Z M209.287,30.105 C208.918331,30.105 208.623168,30.0023344 208.4015,29.797 C208.179832,29.5916656 208.069,29.3140017 208.069,28.964 C208.069,28.6139982 208.178666,28.3351677 208.398,28.1275 C208.617334,27.9198323 208.913665,27.816 209.287,27.816 C209.660335,27.816 209.956666,27.9209989 210.176,28.131 C210.395334,28.341001 210.505,28.6186649 210.505,28.964 C210.505,29.3093351 210.394168,29.5858323 210.1725,29.7935 C209.950832,30.0011677 209.655669,30.105 209.287,30.105 Z M215.692,30.133 C214.455327,30.133 213.50217,29.7025043 212.8325,28.8415 C212.16283,27.9804957 211.828,26.6400091 211.828,24.82 C211.828,22.9953242 212.161663,21.653671 212.829,20.795 C213.496337,19.936329 214.45066,19.507 215.692,19.507 C216.93334,19.507 217.886497,19.936329 218.5515,20.795 C219.216503,21.653671 219.549,22.9953242 219.549,24.82 C219.549,26.6400091 219.215337,27.9804957 218.548,28.8415 C217.880663,29.7025043 216.928673,30.133 215.692,30.133 Z M215.692,28.586 C216.130669,28.586 216.496999,28.4693345 216.791,28.236 C217.085001,28.0026655 217.311333,27.6106694 217.47,27.06 C217.628667,26.5093306 217.708,25.767338 217.708,24.834 C217.708,23.8913286 217.628667,23.1423361 217.47,22.587 C217.311333,22.0316639 217.085001,21.6373345 216.791,21.404 C216.496999,21.1706655 216.130669,21.054 215.692,21.054 C215.253331,21.054 214.887001,21.1706655 214.593,21.404 C214.298999,21.6373345 214.072667,22.0293306 213.914,22.58 C213.755333,23.1306694 213.676,23.872662 213.676,24.806 C213.676,25.7486714 213.754166,26.4976639 213.9105,27.053 C214.066834,27.6083361 214.291999,28.0026655 214.586,28.236 C214.880001,28.4693345 215.248664,28.586 215.692,28.586 Z M224.834,30.133 C223.597327,30.133 222.64417,29.7025043 221.9745,28.8415 C221.30483,27.9804957 220.97,26.6400091 220.97,24.82 C220.97,22.9953242 221.303663,21.653671 221.971,20.795 C222.638337,19.936329 223.59266,19.507 224.834,19.507 C226.07534,19.507 227.028497,19.936329 227.6935,20.795 C228.358503,21.653671 228.691,22.9953242 228.691,24.82 C228.691,26.6400091 228.357337,27.9804957 227.69,28.8415 C227.022663,29.7025043 226.070673,30.133 224.834,30.133 Z M224.834,28.586 C225.272669,28.586 225.638999,28.4693345 225.933,28.236 C226.227001,28.0026655 226.453333,27.6106694 226.612,27.06 C226.770667,26.5093306 226.85,25.767338 226.85,24.834 C226.85,23.8913286 226.770667,23.1423361 226.612,22.587 C226.453333,22.0316639 226.227001,21.6373345 225.933,21.404 C225.638999,21.1706655 225.272669,21.054 224.834,21.054 C224.395331,21.054 224.029001,21.1706655 223.735,21.404 C223.440999,21.6373345 223.214667,22.0293306 223.056,22.58 C222.897333,23.1306694 222.818,23.872662 222.818,24.806 C222.818,25.7486714 222.896166,26.4976639 223.0525,27.053 C223.208834,27.6083361 223.433999,28.0026655 223.728,28.236 C224.022001,28.4693345 224.390664,28.586 224.834,28.586 Z M233.976,30.133 C232.739327,30.133 231.78617,29.7025043 231.1165,28.8415 C230.44683,27.9804957 230.112,26.6400091 230.112,24.82 C230.112,22.9953242 230.445663,21.653671 231.113,20.795 C231.780337,19.936329 232.73466,19.507 233.976,19.507 C235.21734,19.507 236.170497,19.936329 236.8355,20.795 C237.500503,21.653671 237.833,22.9953242 237.833,24.82 C237.833,26.6400091 237.499337,27.9804957 236.832,28.8415 C236.164663,29.7025043 235.212673,30.133 233.976,30.133 Z M233.976,28.586 C234.414669,28.586 234.780999,28.4693345 235.075,28.236 C235.369001,28.0026655 235.595333,27.6106694 235.754,27.06 C235.912667,26.5093306 235.992,25.767338 235.992,24.834 C235.992,23.8913286 235.912667,23.1423361 235.754,22.587 C235.595333,22.0316639 235.369001,21.6373345 235.075,21.404 C234.780999,21.1706655 234.414669,21.054 233.976,21.054 C233.537331,21.054 233.171001,21.1706655 232.877,21.404 C232.582999,21.6373345 232.356667,22.0293306 232.198,22.58 C232.039333,23.1306694 231.96,23.872662 231.96,24.806 C231.96,25.7486714 232.038166,26.4976639 232.1945,27.053 C232.350834,27.6083361 232.575999,28.0026655 232.87,28.236 C233.164001,28.4693345 233.532664,28.586 233.976,28.586 Z M245.666,21.026 C244.793329,21.026 244.089836,21.1834984 243.5555,21.4985 C243.021164,21.8135016 242.644334,22.3163299 242.425,23.007 L246.457,23.007 L246.457,24.127 L242.215,24.127 C242.196333,24.3183343 242.187,24.5469987 242.187,24.813 C242.187,24.9530007 242.191667,25.1396655 242.201,25.373 L246.457,25.373 L246.457,26.493 L242.376,26.493 C242.576668,27.2490038 242.940664,27.7914984 243.468,28.1205 C243.995336,28.4495016 244.702329,28.614 245.589,28.614 C246.29367,28.614 247.01933,28.4996678 247.766,28.271 L247.766,29.783 C247.425332,29.8950006 247.053169,29.981333 246.6495,30.042 C246.245831,30.102667 245.838669,30.133 245.428,30.133 C242.581319,30.133 240.913002,28.9196788 240.423,26.493 L239.037,26.493 L239.037,25.373 L240.29,25.373 C240.280667,25.1396655 240.276,24.9623339 240.276,24.841 C240.276,24.570332 240.285333,24.3323344 240.304,24.127 L239.037,24.127 L239.037,23.007 L240.479,23.007 C240.763668,21.8356608 241.336496,20.9595029 242.1975,20.3785 C243.058504,19.7974971 244.17266,19.507 245.54,19.507 C246.30067,19.507 247.042663,19.5956658 247.766,19.773 L247.766,21.285 C247.08933,21.1123325 246.389337,21.026 245.666,21.026 Z M252.981,26.976 L252.561,23.371 L252.561,19.64 L254.507,19.64 L254.507,23.371 L254.108,26.976 L252.981,26.976 Z M253.534,30.105 C253.165331,30.105 252.870168,30.007001 252.6485,29.811 C252.426832,29.614999 252.316,29.351335 252.316,29.02 C252.316,28.6839983 252.425666,28.4168343 252.645,28.2185 C252.864334,28.0201657 253.160665,27.921 253.534,27.921 C253.907335,27.921 254.203666,28.0213323 254.423,28.222 C254.642334,28.4226677 254.752,28.688665 254.752,29.02 C254.752,29.3466683 254.641168,29.6091657 254.4195,29.8075 C254.197832,30.0058343 253.902669,30.105 253.534,30.105 Z" id="35%dedescuento:¡Másde2.000€!" fill="#FFFFFF" fill-rule="nonzero" opacity="0.9"></path>
            </g>
        </g>
    </g>
</svg>