<?xml version="1.0" encoding="UTF-8"?>
<svg width="278px" height="151px" viewBox="0 0 278 151" version="1.1" xmlns="http://www.w3.org/2000/svg" xmlns:xlink="http://www.w3.org/1999/xlink">
    <!-- Generator: Sketch 54.1 (76490) - https://sketchapp.com -->
    <title>Group 6</title>
    <desc>Created with Sketch.</desc>
    <defs>
        <path d="M254.729603,99.3885711 L132.5,140 L10.2638624,99.324075 C4.13500736,97.2846057 4.02788068e-14,91.5506814 3.37507799e-14,85.0914013 L0,0 L265,0 L265,85.1537245 C265,91.6155396 260.861799,97.3511165 254.729603,99.3885711 Z" id="path-1"></path>
        <rect id="path-3" x="-124" y="-12.72032" width="536" height="56"></rect>
        <filter x="-4.1%" y="-25.0%" width="108.2%" height="178.6%" filterUnits="objectBoundingBox" id="filter-4">
            <feOffset dx="0" dy="8" in="SourceAlpha" result="shadowOffsetOuter1"></feOffset>
            <feGaussianBlur stdDeviation="6" in="shadowOffsetOuter1" result="shadowBlurOuter1"></feGaussianBlur>
            <feComposite in="shadowBlurOuter1" in2="SourceAlpha" operator="out" result="shadowBlurOuter1"></feComposite>
            <feColorMatrix values="0 0 0 0 0   0 0 0 0 0   0 0 0 0 0  0 0 0 1 0" type="matrix" in="shadowBlurOuter1"></feColorMatrix>
        </filter>
    </defs>
    <g id="Black-Friday-Bootcamp-" stroke="none" stroke-width="1" fill="none" fill-rule="evenodd">
        <g id="05-Formulario-de-inscripción" transform="translate(-581.000000, 0.000000)">
            <g id="Group-6" transform="translate(581.000000, -5.000000)">
                <g id="Group-4" transform="translate(0.000000, 1.000000)">
                    <g id="Group-3">
                        <g id="Group-74">
                            <path d="M277.5,1.22031995 L0.5,1.22031995 L0.5,94.0634605 C0.5,100.175181 4.33221971,105.630724 10.0816026,107.703818 L139.00013,154.188856 L267.911727,107.777539 C273.664569,105.706376 277.5,100.249098 277.5,94.1347779 L277.5,1.22031995 Z" id="Path" stroke="#FFFFFF" fill="#FFFFFF" opacity="0.432617188"></path>
                            <g id="Rectangle" transform="translate(6.000000, 0.720320)">
                                <mask id="mask-2" fill="white">
                                    <use xlink:href="#path-1"></use>
                                </mask>
                                <use id="Mask" fill="#292828" xlink:href="#path-1"></use>
                                <g mask="url(#mask-2)">
                                    <use fill="black" fill-opacity="1" filter="url(#filter-4)" xlink:href="#path-3"></use>
                                    <rect stroke="#DCDCDC" stroke-width="1" stroke-linejoin="square" fill="#6B4F7C" fill-rule="evenodd" x="-123.5" y="-12.22032" width="535" height="55"></rect>
                                </g>
                            </g>
                        </g>
                    </g>
                    <g id="Logo" transform="translate(56.000000, 62.000000)">
                        <g id="Group-Copy-3" transform="translate(8.400000, 0.000000)">
                            <path d="M4.75944005,24.7352 C3.95975605,24.7352 3.16204403,24.6783606 2.36628005,24.56468 C1.57051607,24.4509994 0.835523418,24.2844011 0.161280047,24.06488 L0.161280047,5.49584 L3.24240005,5.49584 L3.24240005,12.93992 L3.39528005,12.93992 C3.78728201,12.4773577 4.27335715,12.1167213 4.85352005,11.858 C5.43368295,11.5992787 6.08439644,11.46992 6.80568005,11.46992 C7.73864471,11.46992 8.57751632,11.6913978 9.32232005,12.13436 C10.0671238,12.5773222 10.6590379,13.2750752 11.09808,14.22764 C11.5371222,15.1802048 11.75664,16.3816727 11.75664,17.83208 C11.75664,20.1213714 11.1725659,21.8441942 10.0044,23.0006 C8.83623421,24.1570058 7.08793169,24.7352 4.75944005,24.7352 Z M5.01816005,22.35968 C6.24120616,22.35968 7.15259705,22.0225634 7.75236005,21.34832 C8.35212305,20.6740766 8.65200005,19.5843275 8.65200005,18.07904 C8.65200005,16.5894326 8.39720259,15.540843 7.88760005,14.93324 C7.3779975,14.325637 6.64888479,14.02184 5.70024005,14.02184 C5.22983769,14.02184 4.77708222,14.1080791 4.34196005,14.28056 C3.90683787,14.4530409 3.54032154,14.7117583 3.24240005,15.05672 L3.24240005,22.13624 C3.78336275,22.2852007 4.37527683,22.35968 5.01816005,22.35968 Z M15.3552001,24.5 L15.3552001,5.49584 L18.4363201,5.49584 L18.4363201,24.5 L15.3552001,24.5 Z M26.9505601,11.46992 C28.2520066,11.46992 29.3064761,11.6325984 30.1140001,11.95796 C30.9215242,12.2833216 31.5232382,12.8183963 31.9191601,13.5632 C32.3150821,14.3080037 32.5130401,15.3193536 32.5130401,16.59728 L32.5130401,24.5 L29.9611201,24.5 L29.7494401,23.17112 L29.5848001,23.17112 C29.2006382,23.6807225 28.7047632,24.0668387 28.0971601,24.32948 C27.4895571,24.5921213 26.8172838,24.72344 26.0803201,24.72344 C25.2414359,24.72344 24.5162432,24.5744815 23.9047201,24.27656 C23.2931971,23.9786385 22.8247618,23.5572427 22.4994001,23.01236 C22.1740385,22.4674773 22.0113601,21.8265637 22.0113601,21.0896 C22.0113601,19.897914 22.4190361,18.9767233 23.2344001,18.326 C24.0497642,17.6752767 25.3394313,17.2793607 27.1034401,17.13824 L29.5024801,16.9148 L29.5024801,16.40912 C29.5024801,15.7583967 29.3986012,15.2468419 29.1908401,14.87444 C28.9830791,14.5020381 28.6577224,14.2374408 28.2147601,14.08064 C27.7717979,13.9238392 27.1779239,13.84544 26.4331201,13.84544 C25.9078375,13.84544 25.3394432,13.8905195 24.7279201,13.98068 C24.1163971,14.0708405 23.528403,14.2060791 22.9639201,14.3864 L22.9639201,12.02264 C23.544083,11.8423191 24.1928366,11.7051205 24.9102001,11.61104 C25.6275637,11.5169595 26.3076769,11.46992 26.9505601,11.46992 Z M27.0328801,22.53608 C27.4876024,22.53608 27.928598,22.4498409 28.3558801,22.27736 C28.7831623,22.1048791 29.1653585,21.8304819 29.5024801,21.45416 L29.5024801,18.72584 L27.3974401,18.914 C26.5899161,18.9924004 25.999962,19.1864385 25.6275601,19.49612 C25.2551583,19.8058015 25.0689601,20.2389572 25.0689601,20.7956 C25.0689601,21.3600828 25.2355585,21.7912785 25.5687601,22.0892 C25.9019618,22.3871215 26.3899969,22.53608 27.0328801,22.53608 Z M42.3561602,24.7352 C40.2863898,24.7352 38.7144856,24.1883655 37.6404002,23.09468 C36.5663148,22.0009945 36.0292802,20.3369712 36.0292802,18.10256 C36.0292802,15.8524687 36.6015945,14.1845254 37.7462402,13.09868 C38.8908859,12.0128346 40.5647092,11.46992 42.7677602,11.46992 C43.7634452,11.46992 44.6924759,11.571839 45.5548802,11.77568 L45.5548802,14.24528 C44.7003159,14.0649591 43.9045639,13.9748 43.1676002,13.9748 C42.2503156,13.9748 41.5016031,14.1119986 40.9214402,14.3864 C40.3412773,14.6608014 39.9100816,15.097877 39.6278402,15.69764 C39.3455988,16.297403 39.2044802,17.0872751 39.2044802,18.06728 C39.2044802,19.5490474 39.5004372,20.6133168 40.0923602,21.26012 C40.6842831,21.9069232 41.5917541,22.23032 42.8148002,22.23032 C43.2146422,22.23032 43.632118,22.1930804 44.0672402,22.1186 C44.5023624,22.0441196 44.9982374,21.9284808 45.5548802,21.77168 L45.5548802,24.24128 C44.5513552,24.5705616 43.4851258,24.7352 42.3561602,24.7352 Z M57.6441602,24.5 L53.7868802,19.16096 L52.0111202,19.16096 L52.0111202,24.5 L48.9300002,24.5 L48.9300002,5.49584 L52.0111202,5.49584 L52.0111202,16.66784 L53.7633602,16.66784 L57.3031202,11.66984 L60.6194402,11.66984 L56.3152802,17.8556 L61.0310402,24.5 L57.6441602,24.5 Z M64.8883203,20.83088 C65.5625637,20.83088 66.0780385,21.0405979 66.4347603,21.46004 C66.7914821,21.8794821 66.9698403,22.5047158 66.9698403,23.33576 C66.9698403,24.2138444 66.8267617,25.0958356 66.5406003,25.98176 C66.2544388,26.8676844 65.8644027,27.6751964 65.3704803,28.40432 L63.5947203,28.40432 C63.9161619,27.6673563 64.1650794,27.002923 64.3414803,26.411 C64.5178812,25.819077 64.6296,25.2369629 64.6766403,24.66464 C64.1278375,24.6175998 63.6927219,24.4235617 63.3712803,24.08252 C63.0498387,23.7414783 62.8891203,23.2965627 62.8891203,22.74776 C62.8891203,22.151917 63.0694385,21.6834817 63.4300803,21.34244 C63.7907221,21.0013983 64.2767972,20.83088 64.8883203,20.83088 Z M64.9353603,15.33896 C64.3159972,15.33896 63.8201221,15.1664817 63.4477203,14.82152 C63.0753184,14.4765583 62.8891203,14.0100829 62.8891203,13.42208 C62.8891203,12.8340771 63.0733584,12.3656417 63.4418403,12.01676 C63.8103221,11.6678783 64.3081571,11.49344 64.9353603,11.49344 C65.5625634,11.49344 66.0603984,11.6698382 66.4288803,12.02264 C66.7973621,12.3754418 66.9816003,12.8419171 66.9816003,13.42208 C66.9816003,14.0022429 66.7954021,14.4667583 66.4230003,14.81564 C66.0505984,15.1645217 65.5547234,15.33896 64.9353603,15.33896 Z M84.6451204,15.89168 L84.6451204,18.34952 L84.1276804,18.34952 C83.5867177,18.34952 83.1712018,18.4925986 82.8811204,18.77876 C82.5910389,19.0649214 82.4460004,19.4863172 82.4460004,20.04296 L82.4460004,25.52312 C82.4460004,26.9656872 82.0520443,28.0573963 81.2641204,28.79828 C80.4761964,29.5391637 79.3060881,29.9096 77.7537604,29.9096 C77.071677,29.9096 76.4366433,29.8625605 75.8486404,29.76848 L75.8486404,27.40472 L77.2716004,27.40472 C77.9772039,27.40472 78.5024786,27.2498815 78.8474404,26.9402 C79.1924021,26.6305185 79.3648804,26.1346434 79.3648804,25.45256 L79.3648804,20.12528 C79.3648804,19.3099159 79.5334387,18.6552825 79.8705604,18.16136 C80.2076821,17.6674375 80.7368768,17.318561 81.4581604,17.11472 C80.7368768,16.918719 80.2076821,16.5737625 79.8705604,16.07984 C79.5334387,15.5859175 79.3648804,14.9312841 79.3648804,14.11592 L79.3648804,9.71768 C79.3648804,9.03559659 79.1924021,8.53972155 78.8474404,8.23004 C78.5024786,7.92035845 77.9772039,7.76552 77.2716004,7.76552 L75.8486404,7.76552 L75.8486404,5.40176 C76.4366433,5.30767953 77.071677,5.26064 77.7537604,5.26064 C79.3060881,5.26064 80.4761964,5.6310763 81.2641204,6.37196 C82.0520443,7.1128437 82.4460004,8.20455279 82.4460004,9.64712 L82.4460004,14.19824 C82.4460004,14.7548828 82.5910389,15.1762786 82.8811204,15.46244 C83.1712018,15.7486014 83.5867177,15.89168 84.1276804,15.89168 L84.6451204,15.89168 Z" id="black;}" fill="#FFFFFF" fill-rule="nonzero"></path>
                            <path d="M101.6148,6.49544 C100.579915,6.49544 99.8174824,6.73063765 99.32748,7.20104 C98.8374775,7.67144235 98.59248,8.44759459 98.59248,9.52952 L98.59248,11.76392 L102.75552,11.76392 L102.75552,12.9752 L98.59248,12.9752 L98.59248,24.5 L97.18128,24.5 L97.18128,12.9752 L94.69992,12.9752 L94.69992,11.76392 L97.18128,11.76392 L97.18128,9.60008 C97.18128,8.16535283 97.5458364,7.08344365 98.27496,6.35432 C99.0040836,5.62519635 100.089913,5.26064 101.53248,5.26064 C102.120483,5.26064 102.684957,5.30767953 103.22592,5.40176 L103.22592,6.64832 C102.708477,6.54639949 102.171443,6.49544 101.6148,6.49544 Z M104.54304,11.76392 L105.74256,11.76392 L105.86016,13.48088 L105.966,13.48088 C106.412882,12.9007171 106.975397,12.4518816 107.65356,12.13436 C108.331723,11.8168384 109.039276,11.65808 109.77624,11.65808 C110.160402,11.65808 110.493599,11.6855197 110.77584,11.7404 L110.77584,13.08104 C110.501439,13.0339998 110.148642,13.01048 109.71744,13.01048 C109.019677,13.01048 108.323883,13.1790383 107.63004,13.51616 C106.936197,13.8532817 106.377602,14.3354369 105.95424,14.96264 L105.95424,24.5 L104.54304,24.5 L104.54304,11.76392 Z M112.79856,24.5 L112.79856,11.76392 L114.22152,11.76392 L114.22152,24.5 L112.79856,24.5 Z M113.50416,8.76512 C113.174878,8.76512 112.916161,8.67888086 112.728,8.5064 C112.539839,8.33391914 112.44576,8.09480153 112.44576,7.78904 C112.44576,7.48327847 112.539839,7.23828092 112.728,7.05404 C112.916161,6.86979908 113.174878,6.77768 113.50416,6.77768 C113.833442,6.77768 114.092159,6.86979908 114.28032,7.05404 C114.468481,7.23828092 114.56256,7.48327847 114.56256,7.78904 C114.56256,8.09480153 114.470441,8.33391914 114.2862,8.5064 C114.101959,8.67888086 113.841282,8.76512 113.50416,8.76512 Z M122.23008,24.71168 C120.732633,24.71168 119.531165,24.2060051 118.62564,23.19464 C117.720115,22.1832749 117.26736,20.5839309 117.26736,18.39656 C117.26736,13.8493373 119.364539,11.57576 123.55896,11.57576 C124.272404,11.57576 125.013276,11.6384794 125.7816,11.76392 L125.7816,5.49584 L127.1928,5.49584 L127.1928,24.5 L125.98152,24.5 L125.87568,23.11232 L125.76984,23.11232 C125.369998,23.5984024 124.864323,23.9864785 124.2528,24.27656 C123.641277,24.5666415 122.967044,24.71168 122.23008,24.71168 Z M122.4888,23.46512 C123.139523,23.46512 123.754957,23.3200815 124.33512,23.03 C124.915283,22.7399185 125.397438,22.3008829 125.7816,21.71288 L125.7816,13.02224 C125.475838,12.9516796 125.117162,12.8928802 124.70556,12.84584 C124.293958,12.7987998 123.900002,12.77528 123.52368,12.77528 C121.908632,12.77528 120.705204,13.2123556 119.91336,14.08652 C119.121516,14.9606844 118.7256,16.3503105 118.7256,18.25544 C118.7256,20.1527295 119.052917,21.4953161 119.70756,22.28324 C120.362203,23.0711639 121.289274,23.46512 122.4888,23.46512 Z M134.56632,11.57576 C135.609045,11.57576 136.467517,11.7129586 137.14176,11.98736 C137.816003,12.2617614 138.327558,12.7203968 138.67644,13.36328 C139.025322,14.0061632 139.19976,14.8724746 139.19976,15.96224 L139.19976,24.5 L138.00024,24.5 L137.8944,23.04176 L137.7768,23.04176 C137.353438,23.5670426 136.812483,23.9747185 136.15392,24.2648 C135.495357,24.5548815 134.785844,24.69992 134.02536,24.69992 C133.249196,24.69992 132.576923,24.5646814 132.00852,24.2942 C131.440117,24.0237186 131.003042,23.6336825 130.69728,23.12408 C130.391518,22.6144775 130.23864,22.0029636 130.23864,21.28952 C130.23864,20.1919145 130.595356,19.341283 131.3088,18.7376 C132.022244,18.133917 133.147272,17.7497608 134.68392,17.58512 L137.81208,17.23232 L137.81208,15.9152 C137.81208,15.107676 137.686641,14.4765623 137.43576,14.02184 C137.184879,13.5671177 136.814442,13.2476409 136.32444,13.0634 C135.834438,12.8791591 135.201364,12.78704 134.4252,12.78704 C133.899917,12.78704 133.339363,12.8340795 132.74352,12.92816 C132.147677,13.0222405 131.563603,13.167279 130.99128,13.36328 L130.99128,12.14024 C131.493043,11.9599191 132.063397,11.8207605 132.70236,11.72276 C133.341323,11.6247595 133.962637,11.57576 134.56632,11.57576 Z M134.3076,23.53568 C134.966163,23.53568 135.599237,23.3945614 136.20684,23.11232 C136.814443,22.8300786 137.349518,22.391043 137.81208,21.7952 L137.81208,18.29072 L134.75448,18.63176 C133.680395,18.7493606 132.900322,19.011998 132.41424,19.41968 C131.928158,19.827362 131.68512,20.4075162 131.68512,21.16016 C131.68512,21.9363239 131.904638,22.526278 132.34368,22.93004 C132.782722,23.333802 133.437356,23.53568 134.3076,23.53568 Z M151.34784,11.76392 L152.79432,11.76392 L145.90296,29.6744 L144.46824,29.6744 L146.4792,24.5 L146.05584,24.5 L141.15192,11.76392 L142.66896,11.76392 L146.98488,23.33576 L151.34784,11.76392 Z" id="friday" fill="#9DE7AC" fill-rule="nonzero"></path>
                        </g>
                    </g>
                </g>
                <path d="M21.823,23.631 C22.5183368,23.7756674 23.0503315,24.0626645 23.419,24.492 C23.7876685,24.9213355 23.972,25.4743299 23.972,26.151 C23.972,27.1030048 23.63367,27.8379974 22.957,28.356 C22.28033,28.8740026 21.2816733,29.133 19.961,29.133 C19.027662,29.133 18.1503374,29.0093346 17.329,28.762 L17.329,27.341 C17.7256686,27.4623339 18.1491644,27.5556663 18.5995,27.621 C19.0498356,27.6863337 19.4803313,27.719 19.891,27.719 C21.4356744,27.719 22.208,27.1613389 22.208,26.046 C22.208,25.5093307 22.0236685,25.1021681 21.655,24.8245 C21.2863315,24.5468319 20.7053373,24.408 19.912,24.408 L18.491,24.408 L18.491,22.98 L19.492,22.98 C20.2853373,22.98 20.8744981,22.8435014 21.2595,22.5705 C21.6445019,22.2974986 21.837,21.9020026 21.837,21.384 C21.837,20.4086618 21.1720067,19.921 19.842,19.921 C19.449998,19.921 19.054502,19.9536663 18.6555,20.019 C18.256498,20.0843337 17.8820018,20.1799994 17.532,20.306 L17.532,18.892 C17.8586683,18.7753328 18.2483311,18.6820004 18.701,18.612 C19.1536689,18.5419997 19.5969978,18.507 20.031,18.507 C21.2116726,18.507 22.1076636,18.7426643 22.719,19.214 C23.3303364,19.6853357 23.636,20.357329 23.636,21.23 C23.636,21.8180029 23.4761683,22.3219979 23.1565,22.742 C22.8368317,23.1620021 22.3923362,23.4583325 21.823,23.631 Z M27.276,22.833 C28.2886717,22.8890003 29.1123302,23.0406654 29.747,23.288 C30.3816698,23.5353346 30.8459985,23.8794978 31.14,24.3205 C31.4340015,24.7615022 31.581,25.3109967 31.581,25.969 C31.5763333,27.0003385 31.2368367,27.7854973 30.5625,28.3245 C29.8881633,28.8635027 28.8930066,29.133 27.577,29.133 C26.6529954,29.133 25.7733375,29.0023346 24.938,28.741 L24.938,27.32 C25.3346687,27.4413339 25.7581644,27.535833 26.2085,27.6035 C26.6588356,27.671167 27.0916646,27.705 27.507,27.705 C28.2910039,27.705 28.8708315,27.5638347 29.2465,27.2815 C29.6221685,26.9991653 29.81,26.5756695 29.81,26.011 C29.81,25.6283314 29.7143343,25.3168345 29.523,25.0765 C29.3316657,24.8361655 29.0038357,24.6460007 28.5395,24.506 C28.0751643,24.3659993 27.4323374,24.2726669 26.611,24.226 L25.288,24.156 L25.638,18.64 L31.154,18.64 L31.154,20.089 L27.304,20.089 L27.115,22.826 L27.276,22.833 Z M35.228,24.996 C34.4066626,24.996 33.7580024,24.7265027 33.282,24.1875 C32.8059976,23.6484973 32.568,22.8376721 32.568,21.755 C32.568,20.6723279 32.8059976,19.860336 33.282,19.319 C33.7580024,18.777664 34.4066626,18.507 35.228,18.507 C36.0493374,18.507 36.696831,18.777664 37.1705,19.319 C37.644169,19.860336 37.881,20.6723279 37.881,21.755 C37.881,22.8376721 37.6430024,23.6484973 37.167,24.1875 C36.6909976,24.7265027 36.0446708,24.996 35.228,24.996 Z M35.9,29 L40.492,18.64 L42.018,18.64 L37.426,29 L35.9,29 Z M35.228,23.82 C35.6060019,23.82 35.8988323,23.6613349 36.1065,23.344 C36.3141677,23.0266651 36.418,22.499337 36.418,21.762 C36.418,21.0199963 36.3141677,20.4891683 36.1065,20.1695 C35.8988323,19.8498317 35.6060019,19.69 35.228,19.69 C34.8499981,19.69 34.5560011,19.8486651 34.346,20.166 C34.135999,20.4833349 34.031,21.010663 34.031,21.748 C34.031,22.485337 34.135999,23.0149984 34.346,23.337 C34.5560011,23.6590016 34.8499981,23.82 35.228,23.82 Z M42.69,29.126 C41.8686626,29.126 41.2200024,28.855336 40.744,28.314 C40.2679976,27.772664 40.03,26.9606721 40.03,25.878 C40.03,24.7953279 40.2679976,23.983336 40.744,23.442 C41.2200024,22.900664 41.8686626,22.63 42.69,22.63 C43.5113374,22.63 44.158831,22.900664 44.6325,23.442 C45.106169,23.983336 45.343,24.7953279 45.343,25.878 C45.343,26.9606721 45.106169,27.772664 44.6325,28.314 C44.158831,28.855336 43.5113374,29.126 42.69,29.126 Z M42.69,27.943 C43.0680019,27.943 43.3608323,27.7843349 43.5685,27.467 C43.7761677,27.1496651 43.88,26.622337 43.88,25.885 C43.88,25.1429963 43.7761677,24.6121683 43.5685,24.2925 C43.3608323,23.9728317 43.0680019,23.813 42.69,23.813 C42.3119981,23.813 42.0180011,23.9728317 41.808,24.2925 C41.597999,24.6121683 41.493,25.1383297 41.493,25.871 C41.493,26.608337 41.597999,27.1379984 41.808,27.46 C42.0180011,27.7820016 42.3119981,27.943 42.69,27.943 Z M53.113,29.133 C52.5249971,29.133 51.9988357,29.0023346 51.5345,28.741 C51.0701643,28.4796654 50.7015014,28.0655028 50.4285,27.4985 C50.1554986,26.9314972 50.019,26.211671 50.019,25.339 C50.019,23.9949933 50.3631632,22.9753368 51.0515,22.28 C51.7398368,21.5846632 52.7443267,21.237 54.065,21.237 C54.3776682,21.237 54.7183315,21.2626664 55.087,21.314 L55.087,17.688 L56.921,17.688 L56.921,29 L55.374,29 L55.262,28.195 L55.164,28.195 C54.9353322,28.4843348 54.6460017,28.7129992 54.296,28.881 C53.9459983,29.0490008 53.5516689,29.133 53.113,29.133 Z M53.617,27.621 C53.9016681,27.621 54.1746654,27.5638339 54.436,27.4495 C54.6973346,27.3351661 54.9143325,27.1660011 55.087,26.942 L55.087,22.763 C54.7743318,22.6929996 54.4336685,22.658 54.065,22.658 C53.3229963,22.658 52.7711685,22.857498 52.4095,23.2565 C52.0478315,23.655502 51.867,24.3006622 51.867,25.192 C51.867,26.0786711 52.0186651,26.7051648 52.322,27.0715 C52.6253349,27.4378352 53.0569972,27.621 53.617,27.621 Z M64.943,25.731 L60.218,25.731 C60.2413334,26.2256691 60.3346659,26.6188319 60.498,26.9105 C60.6613342,27.2021681 60.9133316,27.4133327 61.254,27.544 C61.5946684,27.6746673 62.0496638,27.74 62.619,27.74 C63.1790028,27.74 63.8183297,27.6513342 64.537,27.474 L64.537,28.867 C63.8043297,29.0490009 63.0810036,29.14 62.367,29.14 C61.4569955,29.14 60.7091696,29.0023347 60.1235,28.727 C59.5378304,28.4516653 59.1003348,28.0235029 58.811,27.4425 C58.5216652,26.8614971 58.377,26.1066713 58.377,25.178 C58.377,24.3239957 58.5099987,23.6030029 58.776,23.015 C59.0420013,22.4269971 59.4269975,21.9848348 59.931,21.6885 C60.4350025,21.3921652 61.0439964,21.244 61.758,21.244 C62.7986719,21.244 63.589664,21.57883 64.131,22.2485 C64.672336,22.91817 64.943,23.9133267 64.943,25.234 L64.943,25.731 Z M61.744,22.441 C61.2493309,22.441 60.8736679,22.6089983 60.617,22.945 C60.3603321,23.2810017 60.2250001,23.8433294 60.211,24.632 L63.228,24.632 C63.2139999,23.8433294 63.0845012,23.2810017 62.8395,22.945 C62.5944988,22.6089983 62.2293358,22.441 61.744,22.441 Z M72.524,29.133 C71.9359971,29.133 71.4098357,29.0023346 70.9455,28.741 C70.4811643,28.4796654 70.1125014,28.0655028 69.8395,27.4985 C69.5664986,26.9314972 69.43,26.211671 69.43,25.339 C69.43,23.9949933 69.7741632,22.9753368 70.4625,22.28 C71.1508368,21.5846632 72.1553267,21.237 73.476,21.237 C73.7886682,21.237 74.1293315,21.2626664 74.498,21.314 L74.498,17.688 L76.332,17.688 L76.332,29 L74.785,29 L74.673,28.195 L74.575,28.195 C74.3463322,28.4843348 74.0570017,28.7129992 73.707,28.881 C73.3569983,29.0490008 72.9626689,29.133 72.524,29.133 Z M73.028,27.621 C73.3126681,27.621 73.5856654,27.5638339 73.847,27.4495 C74.1083346,27.3351661 74.3253325,27.1660011 74.498,26.942 L74.498,22.763 C74.1853318,22.6929996 73.8446685,22.658 73.476,22.658 C72.7339963,22.658 72.1821685,22.857498 71.8205,23.2565 C71.4588315,23.655502 71.278,24.3006622 71.278,25.192 C71.278,26.0786711 71.4296652,26.7051648 71.733,27.0715 C72.0363349,27.4378352 72.4679972,27.621 73.028,27.621 Z M84.354,25.731 L79.629,25.731 C79.6523334,26.2256691 79.7456658,26.6188319 79.909,26.9105 C80.0723341,27.2021681 80.3243316,27.4133327 80.665,27.544 C81.0056684,27.6746673 81.4606638,27.74 82.03,27.74 C82.5900028,27.74 83.2293297,27.6513342 83.948,27.474 L83.948,28.867 C83.2153297,29.0490009 82.4920036,29.14 81.778,29.14 C80.8679954,29.14 80.1201696,29.0023347 79.5345,28.727 C78.9488304,28.4516653 78.5113348,28.0235029 78.222,27.4425 C77.9326652,26.8614971 77.788,26.1066713 77.788,25.178 C77.788,24.3239957 77.9209987,23.6030029 78.187,23.015 C78.4530013,22.4269971 78.8379975,21.9848348 79.342,21.6885 C79.8460025,21.3921652 80.4549964,21.244 81.169,21.244 C82.2096719,21.244 83.000664,21.57883 83.542,22.2485 C84.083336,22.91817 84.354,23.9133267 84.354,25.234 L84.354,25.731 Z M81.155,22.441 C80.6603309,22.441 80.2846679,22.6089983 80.028,22.945 C79.7713321,23.2810017 79.6360001,23.8433294 79.622,24.632 L82.639,24.632 C82.6249999,23.8433294 82.4955012,23.2810017 82.2505,22.945 C82.0054988,22.6089983 81.6403358,22.441 81.155,22.441 Z M87.819,29.14 C86.9509957,29.14 86.1740034,29.0326677 85.488,28.818 L85.488,27.446 C86.2300037,27.6700011 86.999996,27.782 87.798,27.782 C88.339336,27.782 88.7348321,27.7015008 88.9845,27.5405 C89.2341679,27.3794992 89.359,27.1450015 89.359,26.837 C89.359,26.5896654 89.2936673,26.4006673 89.163,26.27 C89.0323327,26.1393327 88.8083349,26.0413337 88.491,25.976 L87.329,25.759 C86.6243298,25.6189993 86.1110016,25.3728351 85.789,25.0205 C85.4669984,24.6681649 85.306,24.1956696 85.306,23.603 C85.306,23.1269976 85.4308321,22.7128351 85.6805,22.3605 C85.9301679,22.0081649 86.3093308,21.734001 86.818,21.538 C87.3266692,21.341999 87.9566629,21.244 88.708,21.244 C89.4126702,21.244 90.0636637,21.3233325 90.661,21.482 L90.661,22.847 C90.058997,22.6836658 89.4243367,22.602 88.757,22.602 C87.6043276,22.602 87.028,22.9193302 87.028,23.554 C87.028,23.7780011 87.092166,23.9564993 87.2205,24.0895 C87.348834,24.2225007 87.5669985,24.3216663 87.875,24.387 L89.037,24.604 C89.7370035,24.7440007 90.2514984,24.983165 90.5805,25.3215 C90.9095016,25.659835 91.074,26.1416635 91.074,26.767 C91.074,27.2570024 90.9480013,27.6793316 90.696,28.034 C90.4439987,28.3886684 90.0741691,28.6616657 89.5865,28.853 C89.0988309,29.0443343 88.5096701,29.14 87.819,29.14 Z M95.785,29.14 C94.5529938,29.14 93.6173365,28.8145033 92.978,28.1635 C92.3386635,27.5124967 92.019,26.5220067 92.019,25.192 C92.019,23.85266 92.3596633,22.8598366 93.041,22.2135 C93.7223367,21.5671634 94.7186601,21.244 96.03,21.244 C96.6226696,21.244 97.1756641,21.3046661 97.689,21.426 L97.689,22.896 C97.1803308,22.7886661 96.7066689,22.735 96.268,22.735 C95.7219973,22.735 95.2763351,22.8166658 94.931,22.98 C94.5856649,23.1433342 94.3290008,23.4034982 94.161,23.7605 C93.9929992,24.1175018 93.909,24.5876638 93.909,25.171 C93.909,26.0530044 94.0851649,26.6864981 94.4375,27.0715 C94.7898351,27.4565019 95.3299964,27.649 96.058,27.649 C96.2960012,27.649 96.5444987,27.6268336 96.8035,27.5825 C97.0625013,27.5381664 97.357665,27.4693338 97.689,27.376 L97.689,28.846 C97.0916637,29.042001 96.4570034,29.14 95.785,29.14 Z M101.413,29.133 C100.619663,29.133 99.993169,28.9008357 99.5335,28.4365 C99.073831,27.9721643 98.844,27.2406717 98.844,26.242 L98.844,21.363 L100.678,21.363 L100.678,26.13 C100.678,26.6386692 100.784166,27.0014989 100.9965,27.2185 C101.208834,27.4355011 101.510998,27.544 101.903,27.544 C102.197001,27.544 102.492165,27.4786673 102.7885,27.348 C103.084835,27.2173327 103.330999,27.023668 103.527,26.767 L103.527,21.363 L105.361,21.363 L105.361,29 L103.842,29 L103.716,28.209 L103.632,28.209 C103.333332,28.5123349 102.995002,28.7421659 102.617,28.8985 C102.238998,29.0548341 101.837669,29.133 101.413,29.133 Z M113.39,25.731 L108.665,25.731 C108.688333,26.2256691 108.781666,26.6188319 108.945,26.9105 C109.108334,27.2021681 109.360332,27.4133327 109.701,27.544 C110.041668,27.6746673 110.496664,27.74 111.066,27.74 C111.626003,27.74 112.26533,27.6513342 112.984,27.474 L112.984,28.867 C112.25133,29.0490009 111.528004,29.14 110.814,29.14 C109.903995,29.14 109.15617,29.0023347 108.5705,28.727 C107.98483,28.4516653 107.547335,28.0235029 107.258,27.4425 C106.968665,26.8614971 106.824,26.1066713 106.824,25.178 C106.824,24.3239957 106.956999,23.6030029 107.223,23.015 C107.489001,22.4269971 107.873997,21.9848348 108.378,21.6885 C108.882003,21.3921652 109.490996,21.244 110.205,21.244 C111.245672,21.244 112.036664,21.57883 112.578,22.2485 C113.119336,22.91817 113.39,23.9133267 113.39,25.234 L113.39,25.731 Z M110.191,22.441 C109.696331,22.441 109.320668,22.6089983 109.064,22.945 C108.807332,23.2810017 108.672,23.8433294 108.658,24.632 L111.675,24.632 C111.661,23.8433294 111.531501,23.2810017 111.2865,22.945 C111.041499,22.6089983 110.676336,22.441 110.191,22.441 Z M114.755,21.363 L116.274,21.363 L116.4,22.168 L116.498,22.168 C116.787335,21.8693318 117.129165,21.6406675 117.5235,21.482 C117.917835,21.3233325 118.338998,21.244 118.787,21.244 C119.575671,21.244 120.198664,21.4761643 120.656,21.9405 C121.113336,22.4048357 121.342,23.1386617 121.342,24.142 L121.342,29 L119.508,29 L119.508,24.247 C119.508,23.7383308 119.400668,23.3755011 119.186,23.1585 C118.971332,22.9414989 118.658669,22.833 118.248,22.833 C117.939998,22.833 117.636668,22.897166 117.338,23.0255 C117.039332,23.153834 116.789668,23.3463321 116.589,23.603 L116.589,29 L114.755,29 L114.755,21.363 Z M126.802,27.614 C127.026001,27.614 127.308332,27.5813337 127.649,27.516 L127.649,28.986 C127.205664,29.0886672 126.764669,29.14 126.326,29.14 C124.515324,29.14 123.61,28.2276758 123.61,26.403 L123.61,22.826 L122.294,22.826 L122.294,21.363 L123.61,21.363 L123.932,18.64 L125.444,18.64 L125.444,21.363 L127.579,21.363 L127.579,22.826 L125.444,22.826 L125.444,26.109 C125.444,26.4823352 125.491833,26.7786656 125.5875,26.998 C125.683167,27.2173344 125.828999,27.3748329 126.025,27.4705 C126.221001,27.5661671 126.479998,27.614 126.802,27.614 Z M131.954,29.14 C130.838661,29.14 129.96717,28.8110033 129.3395,28.153 C128.71183,27.4949967 128.398,26.5103399 128.398,25.199 C128.398,23.8783267 128.707164,22.8890033 129.3255,22.231 C129.943836,21.5729967 130.819994,21.244 131.954,21.244 C133.088006,21.244 133.964164,21.5729967 134.5825,22.231 C135.200836,22.8890033 135.51,23.8759934 135.51,25.192 C135.51,26.0693377 135.366501,26.8019971 135.0795,27.39 C134.792499,27.9780029 134.383003,28.4166652 133.851,28.706 C133.318997,28.9953348 132.68667,29.14 131.954,29.14 Z M131.954,27.726 C132.518669,27.726 132.944499,27.5346686 133.2315,27.152 C133.518501,26.7693314 133.662,26.1206712 133.662,25.206 C133.662,24.2773287 133.518501,23.6205019 133.2315,23.2355 C132.944499,22.8504981 132.518669,22.658 131.954,22.658 C131.389331,22.658 130.963501,22.8493314 130.6765,23.232 C130.389499,23.6146686 130.246,24.2633288 130.246,25.178 C130.246,25.8080032 130.312499,26.3096648 130.4455,26.683 C130.578501,27.0563352 130.769832,27.3234992 131.0195,27.4845 C131.269168,27.6455008 131.580665,27.726 131.954,27.726 Z M137.883,29.105 C137.514331,29.105 137.219168,29.0023344 136.9975,28.797 C136.775832,28.5916656 136.665,28.3140017 136.665,27.964 C136.665,27.6139982 136.774666,27.3351677 136.994,27.1275 C137.213334,26.9198323 137.509665,26.816 137.883,26.816 C138.256335,26.816 138.552666,26.9209989 138.772,27.131 C138.991334,27.341001 139.101,27.6186649 139.101,27.964 C139.101,28.3093351 138.990168,28.5858323 138.7685,28.7935 C138.546832,29.0011677 138.251669,29.105 137.883,29.105 Z M137.883,23.547 C137.514331,23.547 137.219168,23.4443344 136.9975,23.239 C136.775832,23.0336656 136.665,22.7560018 136.665,22.406 C136.665,22.0559983 136.774666,21.7771677 136.994,21.5695 C137.213334,21.3618323 137.509665,21.258 137.883,21.258 C138.256335,21.258 138.552666,21.3629989 138.772,21.573 C138.991334,21.783001 139.101,22.0606649 139.101,22.406 C139.101,22.7513351 138.990168,23.0278323 138.7685,23.2355 C138.546832,23.4431677 138.251669,23.547 137.883,23.547 Z M145.17,21.258 C145.538669,21.258 145.833832,21.3618323 146.0555,21.5695 C146.277168,21.7771677 146.388,22.0536649 146.388,22.399 C146.388,22.7443351 146.278334,23.021999 146.059,23.232 C145.839666,23.4420011 145.543335,23.547 145.17,23.547 C144.796665,23.547 144.500334,23.4443344 144.281,23.239 C144.061666,23.0336656 143.952,22.7536684 143.952,22.399 C143.952,22.0489983 144.062832,21.7713344 144.2845,21.566 C144.506168,21.3606656 144.801331,21.258 145.17,21.258 Z M144.617,24.492 L145.744,24.492 L146.143,28.048 L146.143,31.66 L144.197,31.66 L144.197,28.048 L144.617,24.492 Z M156.685,18.64 L158.946,18.64 L158.946,29 L157.196,29 L157.196,21.174 L154.354,27.523 L152.786,27.523 L149.944,21.321 L149.944,29 L148.194,29 L148.194,18.64 L150.455,18.64 L153.605,25.626 L156.685,18.64 Z M163.447,21.244 C164.221671,21.244 164.849331,21.3408324 165.33,21.5345 C165.810669,21.7281676 166.168832,22.0466645 166.4045,22.49 C166.640168,22.9333356 166.758,23.5353295 166.758,24.296 L166.758,29 L165.239,29 L165.113,28.209 L165.015,28.209 C164.786332,28.5123349 164.491168,28.7421659 164.1295,28.8985 C163.767832,29.0548341 163.367669,29.133 162.929,29.133 C162.429664,29.133 161.998002,29.0443342 161.634,28.867 C161.269998,28.6896658 160.991168,28.438835 160.7975,28.1145 C160.603832,27.790165 160.507,27.4086689 160.507,26.97 C160.507,26.2606631 160.749664,25.7123353 161.235,25.325 C161.720336,24.9376647 162.487995,24.7020004 163.538,24.618 L164.966,24.485 L164.966,24.184 C164.966,23.7966647 164.904167,23.4921678 164.7805,23.2705 C164.656833,23.0488322 164.463168,22.8913338 164.1995,22.798 C163.935832,22.7046662 163.582336,22.658 163.139,22.658 C162.826332,22.658 162.488002,22.6848331 162.124,22.7385 C161.759998,22.7921669 161.410002,22.8726661 161.074,22.98 L161.074,21.573 C161.419335,21.4656661 161.805498,21.3840003 162.2325,21.328 C162.659502,21.2719997 163.064331,21.244 163.447,21.244 Z M163.496,27.831 C163.766668,27.831 164.029165,27.7796672 164.2835,27.677 C164.537835,27.5743328 164.765332,27.4110011 164.966,27.187 L164.966,25.563 L163.713,25.675 C163.232331,25.7216669 162.881168,25.8371657 162.6595,26.0215 C162.437832,26.2058343 162.327,26.463665 162.327,26.795 C162.327,27.1310017 162.426166,27.3876658 162.6245,27.565 C162.822834,27.7423342 163.113331,27.831 163.496,27.831 Z M162.936,20.32 L164.476,17.688 L166.436,17.688 L164.616,20.32 L162.936,20.32 Z M170.615,29.14 C169.746996,29.14 168.970003,29.0326677 168.284,28.818 L168.284,27.446 C169.026004,27.6700011 169.795996,27.782 170.594,27.782 C171.135336,27.782 171.530832,27.7015008 171.7805,27.5405 C172.030168,27.3794992 172.155,27.1450015 172.155,26.837 C172.155,26.5896654 172.089667,26.4006673 171.959,26.27 C171.828333,26.1393327 171.604335,26.0413337 171.287,25.976 L170.125,25.759 C169.42033,25.6189993 168.907002,25.3728351 168.585,25.0205 C168.262998,24.6681649 168.102,24.1956696 168.102,23.603 C168.102,23.1269976 168.226832,22.7128351 168.4765,22.3605 C168.726168,22.0081649 169.105331,21.734001 169.614,21.538 C170.122669,21.341999 170.752663,21.244 171.504,21.244 C172.20867,21.244 172.859664,21.3233325 173.457,21.482 L173.457,22.847 C172.854997,22.6836658 172.220337,22.602 171.553,22.602 C170.400328,22.602 169.824,22.9193302 169.824,23.554 C169.824,23.7780011 169.888166,23.9564993 170.0165,24.0895 C170.144834,24.2225007 170.362998,24.3216663 170.671,24.387 L171.833,24.604 C172.533003,24.7440007 173.047498,24.983165 173.3765,25.3215 C173.705502,25.659835 173.87,26.1416635 173.87,26.767 C173.87,27.2570024 173.744001,27.6793316 173.492,28.034 C173.239999,28.3886684 172.870169,28.6616657 172.3825,28.853 C171.894831,29.0443343 171.30567,29.14 170.615,29.14 Z M181.395,29.133 C180.806997,29.133 180.280836,29.0023346 179.8165,28.741 C179.352164,28.4796654 178.983501,28.0655028 178.7105,27.4985 C178.437499,26.9314972 178.301,26.211671 178.301,25.339 C178.301,23.9949933 178.645163,22.9753368 179.3335,22.28 C180.021837,21.5846632 181.026327,21.237 182.347,21.237 C182.659668,21.237 183.000331,21.2626664 183.369,21.314 L183.369,17.688 L185.203,17.688 L185.203,29 L183.656,29 L183.544,28.195 L183.446,28.195 C183.217332,28.4843348 182.928002,28.7129992 182.578,28.881 C182.227998,29.0490008 181.833669,29.133 181.395,29.133 Z M181.899,27.621 C182.183668,27.621 182.456665,27.5638339 182.718,27.4495 C182.979335,27.3351661 183.196332,27.1660011 183.369,26.942 L183.369,22.763 C183.056332,22.6929996 182.715669,22.658 182.347,22.658 C181.604996,22.658 181.053168,22.857498 180.6915,23.2565 C180.329832,23.655502 180.149,24.3006622 180.149,25.192 C180.149,26.0786711 180.300665,26.7051648 180.604,27.0715 C180.907335,27.4378352 181.338997,27.621 181.899,27.621 Z M193.225,25.731 L188.5,25.731 C188.523333,26.2256691 188.616666,26.6188319 188.78,26.9105 C188.943334,27.2021681 189.195332,27.4133327 189.536,27.544 C189.876668,27.6746673 190.331664,27.74 190.901,27.74 C191.461003,27.74 192.10033,27.6513342 192.819,27.474 L192.819,28.867 C192.08633,29.0490009 191.363004,29.14 190.649,29.14 C189.738995,29.14 188.99117,29.0023347 188.4055,28.727 C187.81983,28.4516653 187.382335,28.0235029 187.093,27.4425 C186.803665,26.8614971 186.659,26.1066713 186.659,25.178 C186.659,24.3239957 186.791999,23.6030029 187.058,23.015 C187.324001,22.4269971 187.708997,21.9848348 188.213,21.6885 C188.717003,21.3921652 189.325996,21.244 190.04,21.244 C191.080672,21.244 191.871664,21.57883 192.413,22.2485 C192.954336,22.91817 193.225,23.9133267 193.225,25.234 L193.225,25.731 Z M190.026,22.441 C189.531331,22.441 189.155668,22.6089983 188.899,22.945 C188.642332,23.2810017 188.507,23.8433294 188.493,24.632 L191.51,24.632 C191.496,23.8433294 191.366501,23.2810017 191.1215,22.945 C190.876499,22.6089983 190.511336,22.441 190.026,22.441 Z M204.061,27.453 L204.061,29 L197.53,29 L197.53,27.999 L200.442,24.275 C200.899336,23.6869971 201.223666,23.1865021 201.415,22.7735 C201.606334,22.3604979 201.702,21.9650019 201.702,21.587 C201.702,21.045664 201.541002,20.6501679 201.219,20.4005 C200.896998,20.1508321 200.388337,20.026 199.693,20.026 C199.286998,20.026 198.886835,20.0621663 198.4925,20.1345 C198.098165,20.2068337 197.735335,20.3059994 197.404,20.432 L197.404,18.899 C197.712002,18.7823328 198.094664,18.6878337 198.552,18.6155 C199.009336,18.5431663 199.450331,18.507 199.875,18.507 C201.093006,18.507 202.009997,18.7414977 202.626,19.2105 C203.242003,19.6795023 203.55,20.4086617 203.55,21.398 C203.55,21.9486694 203.436834,22.4899973 203.2105,23.022 C202.984166,23.5540027 202.593336,24.1699965 202.038,24.87 L199.987,27.453 L204.061,27.453 Z M206.287,29.105 C205.918331,29.105 205.623168,29.0023344 205.4015,28.797 C205.179832,28.5916656 205.069,28.3140017 205.069,27.964 C205.069,27.6139982 205.178666,27.3351677 205.398,27.1275 C205.617334,26.9198323 205.913665,26.816 206.287,26.816 C206.660335,26.816 206.956666,26.9209989 207.176,27.131 C207.395334,27.341001 207.505,27.6186649 207.505,27.964 C207.505,28.3093351 207.394168,28.5858323 207.1725,28.7935 C206.950832,29.0011677 206.655669,29.105 206.287,29.105 Z M212.692,29.133 C211.455327,29.133 210.50217,28.7025043 209.8325,27.8415 C209.16283,26.9804957 208.828,25.6400091 208.828,23.82 C208.828,21.9953242 209.161663,20.653671 209.829,19.795 C210.496337,18.936329 211.45066,18.507 212.692,18.507 C213.93334,18.507 214.886497,18.936329 215.5515,19.795 C216.216503,20.653671 216.549,21.9953242 216.549,23.82 C216.549,25.6400091 216.215337,26.9804957 215.548,27.8415 C214.880663,28.7025043 213.928673,29.133 212.692,29.133 Z M212.692,27.586 C213.130669,27.586 213.496999,27.4693345 213.791,27.236 C214.085001,27.0026655 214.311333,26.6106694 214.47,26.06 C214.628667,25.5093306 214.708,24.767338 214.708,23.834 C214.708,22.8913286 214.628667,22.1423361 214.47,21.587 C214.311333,21.0316639 214.085001,20.6373345 213.791,20.404 C213.496999,20.1706655 213.130669,20.054 212.692,20.054 C212.253331,20.054 211.887001,20.1706655 211.593,20.404 C211.298999,20.6373345 211.072667,21.0293306 210.914,21.58 C210.755333,22.1306694 210.676,22.872662 210.676,23.806 C210.676,24.7486714 210.754166,25.4976639 210.9105,26.053 C211.066834,26.6083361 211.291999,27.0026655 211.586,27.236 C211.880001,27.4693345 212.248664,27.586 212.692,27.586 Z M221.834,29.133 C220.597327,29.133 219.64417,28.7025043 218.9745,27.8415 C218.30483,26.9804957 217.97,25.6400091 217.97,23.82 C217.97,21.9953242 218.303663,20.653671 218.971,19.795 C219.638337,18.936329 220.59266,18.507 221.834,18.507 C223.07534,18.507 224.028497,18.936329 224.6935,19.795 C225.358503,20.653671 225.691,21.9953242 225.691,23.82 C225.691,25.6400091 225.357337,26.9804957 224.69,27.8415 C224.022663,28.7025043 223.070673,29.133 221.834,29.133 Z M221.834,27.586 C222.272669,27.586 222.638999,27.4693345 222.933,27.236 C223.227001,27.0026655 223.453333,26.6106694 223.612,26.06 C223.770667,25.5093306 223.85,24.767338 223.85,23.834 C223.85,22.8913286 223.770667,22.1423361 223.612,21.587 C223.453333,21.0316639 223.227001,20.6373345 222.933,20.404 C222.638999,20.1706655 222.272669,20.054 221.834,20.054 C221.395331,20.054 221.029001,20.1706655 220.735,20.404 C220.440999,20.6373345 220.214667,21.0293306 220.056,21.58 C219.897333,22.1306694 219.818,22.872662 219.818,23.806 C219.818,24.7486714 219.896166,25.4976639 220.0525,26.053 C220.208834,26.6083361 220.433999,27.0026655 220.728,27.236 C221.022001,27.4693345 221.390664,27.586 221.834,27.586 Z M230.976,29.133 C229.739327,29.133 228.78617,28.7025043 228.1165,27.8415 C227.44683,26.9804957 227.112,25.6400091 227.112,23.82 C227.112,21.9953242 227.445663,20.653671 228.113,19.795 C228.780337,18.936329 229.73466,18.507 230.976,18.507 C232.21734,18.507 233.170497,18.936329 233.8355,19.795 C234.500503,20.653671 234.833,21.9953242 234.833,23.82 C234.833,25.6400091 234.499337,26.9804957 233.832,27.8415 C233.164663,28.7025043 232.212673,29.133 230.976,29.133 Z M230.976,27.586 C231.414669,27.586 231.780999,27.4693345 232.075,27.236 C232.369001,27.0026655 232.595333,26.6106694 232.754,26.06 C232.912667,25.5093306 232.992,24.767338 232.992,23.834 C232.992,22.8913286 232.912667,22.1423361 232.754,21.587 C232.595333,21.0316639 232.369001,20.6373345 232.075,20.404 C231.780999,20.1706655 231.414669,20.054 230.976,20.054 C230.537331,20.054 230.171001,20.1706655 229.877,20.404 C229.582999,20.6373345 229.356667,21.0293306 229.198,21.58 C229.039333,22.1306694 228.96,22.872662 228.96,23.806 C228.96,24.7486714 229.038166,25.4976639 229.1945,26.053 C229.350834,26.6083361 229.575999,27.0026655 229.87,27.236 C230.164001,27.4693345 230.532664,27.586 230.976,27.586 Z M242.666,20.026 C241.793329,20.026 241.089836,20.1834984 240.5555,20.4985 C240.021164,20.8135016 239.644334,21.3163299 239.425,22.007 L243.457,22.007 L243.457,23.127 L239.215,23.127 C239.196333,23.3183343 239.187,23.5469987 239.187,23.813 C239.187,23.9530007 239.191667,24.1396655 239.201,24.373 L243.457,24.373 L243.457,25.493 L239.376,25.493 C239.576668,26.2490038 239.940664,26.7914984 240.468,27.1205 C240.995336,27.4495016 241.702329,27.614 242.589,27.614 C243.29367,27.614 244.01933,27.4996678 244.766,27.271 L244.766,28.783 C244.425332,28.8950006 244.053169,28.981333 243.6495,29.042 C243.245831,29.102667 242.838669,29.133 242.428,29.133 C239.581319,29.133 237.913002,27.9196788 237.423,25.493 L236.037,25.493 L236.037,24.373 L237.29,24.373 C237.280667,24.1396655 237.276,23.9623339 237.276,23.841 C237.276,23.570332 237.285333,23.3323344 237.304,23.127 L236.037,23.127 L236.037,22.007 L237.479,22.007 C237.763668,20.8356608 238.336496,19.9595029 239.1975,19.3785 C240.058504,18.7974971 241.17266,18.507 242.54,18.507 C243.30067,18.507 244.042663,18.5956658 244.766,18.773 L244.766,20.285 C244.08933,20.1123325 243.389337,20.026 242.666,20.026 Z M249.981,25.976 L249.561,22.371 L249.561,18.64 L251.507,18.64 L251.507,22.371 L251.108,25.976 L249.981,25.976 Z M250.534,29.105 C250.165331,29.105 249.870168,29.007001 249.6485,28.811 C249.426832,28.614999 249.316,28.351335 249.316,28.02 C249.316,27.6839983 249.425666,27.4168343 249.645,27.2185 C249.864334,27.0201657 250.160665,26.921 250.534,26.921 C250.907335,26.921 251.203666,27.0213323 251.423,27.222 C251.642334,27.4226677 251.752,27.688665 251.752,28.02 C251.752,28.3466683 251.641168,28.6091657 251.4195,28.8075 C251.197832,29.0058343 250.902669,29.105 250.534,29.105 Z" id="35%dedescuento:¡Másde2.000€!" fill="#FFFFFF" fill-rule="nonzero" opacity="0.9"></path>
            </g>
        </g>
    </g>
</svg>