<?xml version="1.0" encoding="UTF-8"?>
<svg width="219px" height="36px" viewBox="0 0 219 36" version="1.1" xmlns="http://www.w3.org/2000/svg" xmlns:xlink="http://www.w3.org/1999/xlink">
    <!-- Generator: Sketch 54.1 (76490) - https://sketchapp.com -->
    <title>Logo</title>
    <desc>Created with Sketch.</desc>
    <g id="Black-Friday-Bootcamp-" stroke="none" stroke-width="1" fill="none" fill-rule="evenodd">
        <g id="02-Home-Slider" transform="translate(-332.000000, -238.000000)">
            <g id="Logo" transform="translate(320.000000, 231.000000)">
                <g id="Group-Copy-3" transform="translate(12.000000, 7.000000)">
                    <path d="M6.79920007,28.336 C5.65679435,28.336 4.51720575,28.2548008 3.38040007,28.0924 C2.24359438,27.9299992 1.19360488,27.6920016 0.230400067,27.3784 L0.230400067,0.8512 L4.63200007,0.8512 L4.63200007,11.4856 L4.85040007,11.4856 C5.41040287,10.8247967 6.10479592,10.3096018 6.93360007,9.94 C7.76240421,9.57039815 8.69199491,9.3856 9.72240007,9.3856 C11.0552067,9.3856 12.2535947,9.70199684 13.3176001,10.3348 C14.3816054,10.9676032 15.2271969,11.9643932 15.8544001,13.3252 C16.4816032,14.6860068 16.7952001,16.4023896 16.7952001,18.4744 C16.7952001,21.7448164 15.9608084,24.2059917 14.2920001,25.858 C12.6231917,27.5100083 10.1256167,28.336 6.79920007,28.336 Z M7.16880007,24.9424 C8.9160088,24.9424 10.2179958,24.4608048 11.0748001,23.4976 C11.9316044,22.5343952 12.3600001,20.9776108 12.3600001,18.8272 C12.3600001,16.6991894 11.9960037,15.2012043 11.2680001,14.3332 C10.5399964,13.4651957 9.49840684,13.0312 8.14320007,13.0312 C7.47119671,13.0312 6.82440317,13.1543988 6.20280007,13.4008 C5.58119696,13.6472012 5.05760219,14.0167975 4.63200007,14.5096 L4.63200007,24.6232 C5.40480393,24.8360011 6.25039547,24.9424 7.16880007,24.9424 Z M21.9360001,28 L21.9360001,0.8512 L26.3376001,0.8512 L26.3376001,28 L21.9360001,28 Z M38.5008002,9.3856 C40.3600095,9.3856 41.8663944,9.61799768 43.0200002,10.0828 C44.173606,10.5476023 45.0331974,11.3119947 45.5988002,12.376 C46.164403,13.4400053 46.4472002,14.8847909 46.4472002,16.7104 L46.4472002,28 L42.8016002,28 L42.4992002,26.1016 L42.2640002,26.1016 C41.7151975,26.8296036 41.0068045,27.3811981 40.1388002,27.7564 C39.2707959,28.1316019 38.3104055,28.3192 37.2576002,28.3192 C36.0591942,28.3192 35.0232046,28.1064021 34.1496002,27.6808 C33.2759958,27.2551979 32.6068025,26.6532039 32.1420002,25.8748 C31.6771979,25.0963961 31.4448002,24.1808053 31.4448002,23.128 C31.4448002,21.4255915 32.0271944,20.1096046 33.1920002,19.18 C34.356806,18.2503954 36.1991876,17.684801 38.7192002,17.4832 L42.1464002,17.164 L42.1464002,16.4416 C42.1464002,15.5119954 41.9980017,14.7812027 41.7012002,14.2492 C41.4043987,13.7171973 40.9396034,13.3392011 40.3068002,13.1152 C39.673997,12.8911989 38.8256055,12.7792 37.7616002,12.7792 C37.0111964,12.7792 36.1992046,12.8435994 35.3256002,12.9724 C34.4519958,13.1012006 33.6120042,13.2943987 32.8056002,13.552 L32.8056002,10.1752 C33.6344043,9.91759871 34.5611951,9.72160067 35.5860002,9.5872 C36.6108053,9.45279933 37.5823956,9.3856 38.5008002,9.3856 Z M38.6184002,25.1944 C39.2680034,25.1944 39.8979971,25.0712012 40.5084002,24.8248 C41.1188033,24.5783988 41.6647978,24.1864027 42.1464002,23.6488 L42.1464002,19.7512 L39.1392002,20.02 C37.9855944,20.1320006 37.1428029,20.4091978 36.6108002,20.8516 C36.0787975,21.2940022 35.8128002,21.912796 35.8128002,22.708 C35.8128002,23.514404 36.0507978,24.1303979 36.5268002,24.556 C37.0028026,24.9816021 37.6999956,25.1944 38.6184002,25.1944 Z M60.5088003,28.336 C57.5519855,28.336 55.3064079,27.5548078 53.7720003,25.9924 C52.2375926,24.4299922 51.4704003,22.052816 51.4704003,18.8608 C51.4704003,15.6463839 52.2879921,13.2636078 53.9232003,11.7124 C55.5584084,10.1611922 57.9495845,9.3856 61.0968003,9.3856 C62.5192074,9.3856 63.8463941,9.53119854 65.0784003,9.8224 L65.0784003,13.3504 C63.8575942,13.0927987 62.7208055,12.964 61.6680003,12.964 C60.3575937,12.964 59.2880044,13.159998 58.4592003,13.552 C57.6303961,13.944002 57.0144023,14.5683957 56.6112003,15.4252 C56.2079983,16.2820043 56.0064003,17.410393 56.0064003,18.8104 C56.0064003,20.9272106 56.429196,22.4475954 57.2748003,23.3716 C58.1204045,24.2956046 59.4167915,24.7576 61.1640003,24.7576 C61.7352031,24.7576 62.3315972,24.7044005 62.9532003,24.598 C63.5748034,24.4915995 64.2831963,24.3264011 65.0784003,24.1024 L65.0784003,27.6304 C63.6447931,28.1008024 62.1216083,28.336 60.5088003,28.336 Z M82.3488003,28 L76.8384003,20.3728 L74.3016003,20.3728 L74.3016003,28 L69.9000003,28 L69.9000003,0.8512 L74.3016003,0.8512 L74.3016003,16.8112 L76.8048003,16.8112 L81.8616003,9.6712 L86.5992003,9.6712 L80.4504003,18.508 L87.1872003,28 L82.3488003,28 Z M92.6976004,22.7584 C93.6608052,22.7584 94.3971979,23.057997 94.9068004,23.6572 C95.4164029,24.256403 95.6712004,25.1495941 95.6712004,26.3368 C95.6712004,27.5912063 95.4668024,28.8511937 95.0580004,30.1168 C94.6491984,31.3824063 94.0920039,32.5359948 93.3864004,33.5776 L90.8496004,33.5776 C91.3088027,32.5247947 91.6643991,31.5756042 91.9164004,30.73 C92.1684017,29.8843958 92.3280001,29.0528041 92.3952004,28.2352 C91.6111965,28.1679997 90.9896027,27.8908024 90.5304004,27.4036 C90.0711981,26.9163976 89.8416004,26.2808039 89.8416004,25.4968 C89.8416004,24.6455957 90.0991978,23.9764024 90.6144004,23.4892 C91.129603,23.0019976 91.823996,22.7584 92.6976004,22.7584 Z M92.7648004,14.9128 C91.879996,14.9128 91.1716031,14.6664025 90.6396004,14.1736 C90.1075977,13.6807975 89.8416004,13.0144042 89.8416004,12.1744 C89.8416004,11.3343958 90.1047978,10.6652025 90.6312004,10.1668 C91.157603,9.66839751 91.8687959,9.4192 92.7648004,9.4192 C93.6608049,9.4192 94.3719978,9.67119748 94.8984004,10.1752 C95.424803,10.6792025 95.6880004,11.3455959 95.6880004,12.1744 C95.6880004,13.0032041 95.4220031,13.6667975 94.8900004,14.1652 C94.3579977,14.6636025 93.6496048,14.9128 92.7648004,14.9128 Z M120.921601,15.7024 L120.921601,19.2136 L120.182401,19.2136 C119.409597,19.2136 118.816003,19.417998 118.401601,19.8268 C117.987198,20.235602 117.780001,20.837596 117.780001,21.6328 L117.780001,29.4616 C117.780001,31.5224103 117.217206,33.0819947 116.091601,34.1404 C114.965995,35.1988053 113.294412,35.728 111.076801,35.728 C110.102396,35.728 109.195205,35.6608007 108.355201,35.5264 L108.355201,32.1496 L110.388001,32.1496 C111.396006,32.1496 112.146398,31.9284022 112.639201,31.486 C113.132003,31.0435978 113.378401,30.3352049 113.378401,29.3608 L113.378401,21.7504 C113.378401,20.5855942 113.619198,19.6504035 114.100801,18.9448 C114.582403,18.2391965 115.338395,17.7408015 116.368801,17.4496 C115.338395,17.1695986 114.582403,16.6768035 114.100801,15.9712 C113.619198,15.2655965 113.378401,14.3304058 113.378401,13.1656 L113.378401,6.8824 C113.378401,5.90799513 113.132003,5.19960221 112.639201,4.7572 C112.146398,4.31479779 111.396006,4.0936 110.388001,4.0936 L108.355201,4.0936 L108.355201,0.7168 C109.195205,0.582399328 110.102396,0.5152 111.076801,0.5152 C113.294412,0.5152 114.965995,1.04439471 116.091601,2.1028 C117.217206,3.16120529 117.780001,4.7207897 117.780001,6.7816 L117.780001,13.2832 C117.780001,14.078404 117.987198,14.680398 118.401601,15.0892 C118.816003,15.498002 119.409597,15.7024 120.182401,15.7024 L120.921601,15.7024 Z" id="black;}" fill="#FFFFFF" fill-rule="nonzero"></path>
                    <path d="M145.164,2.2792 C143.685593,2.2792 142.596404,2.61519664 141.8964,3.2872 C141.196396,3.95920336 140.8464,5.06799227 140.8464,6.6136 L140.8464,9.8056 L146.7936,9.8056 L146.7936,11.536 L140.8464,11.536 L140.8464,28 L138.8304,28 L138.8304,11.536 L135.2856,11.536 L135.2856,9.8056 L138.8304,9.8056 L138.8304,6.7144 C138.8304,4.66478975 139.351195,3.11920521 140.3928,2.0776 C141.434405,1.03599479 142.98559,0.5152 145.0464,0.5152 C145.886404,0.5152 146.692796,0.582399328 147.4656,0.7168 L147.4656,2.4976 C146.726396,2.35199927 145.959204,2.2792 145.164,2.2792 Z M149.3472,9.8056 L151.0608,9.8056 L151.2288,12.2584 L151.38,12.2584 C152.018403,11.4295959 152.821995,10.7884023 153.7908,10.3348 C154.759605,9.88119773 155.770395,9.6544 156.8232,9.6544 C157.372003,9.6544 157.847998,9.69359961 158.2512,9.772 L158.2512,11.6872 C157.859198,11.6199997 157.355203,11.5864 156.7392,11.5864 C155.742395,11.5864 154.748405,11.8271976 153.7572,12.3088 C152.765995,12.7904024 151.968003,13.4791955 151.3632,14.3752 L151.3632,28 L149.3472,28 L149.3472,9.8056 Z M161.1408,28 L161.1408,9.8056 L163.1736,9.8056 L163.1736,28 L161.1408,28 Z M162.1488,5.5216 C161.678398,5.5216 161.308801,5.39840123 161.04,5.152 C160.771199,4.90559877 160.6368,4.56400218 160.6368,4.1272 C160.6368,3.69039782 160.771199,3.34040132 161.04,3.0772 C161.308801,2.81399868 161.678398,2.6824 162.1488,2.6824 C162.619202,2.6824 162.988799,2.81399868 163.2576,3.0772 C163.526401,3.34040132 163.6608,3.69039782 163.6608,4.1272 C163.6608,4.56400218 163.529201,4.90559877 163.266,5.152 C163.002799,5.39840123 162.630402,5.5216 162.1488,5.5216 Z M174.6144,28.3024 C172.475189,28.3024 170.758806,27.5800072 169.4652,26.1352 C168.171594,24.6903928 167.5248,22.4056156 167.5248,19.2808 C167.5248,12.7847675 170.52077,9.5368 176.5128,9.5368 C177.532005,9.5368 178.590395,9.6263991 179.688,9.8056 L179.688,0.8512 L181.704,0.8512 L181.704,28 L179.9736,28 L179.8224,26.0176 L179.6712,26.0176 C179.099997,26.7120035 178.377604,27.2663979 177.504,27.6808 C176.630396,28.0952021 175.667205,28.3024 174.6144,28.3024 Z M174.984,26.5216 C175.913605,26.5216 176.792796,26.3144021 177.6216,25.9 C178.450404,25.4855979 179.139197,24.8584042 179.688,24.0184 L179.688,11.6032 C179.251198,11.5023995 178.738803,11.4184003 178.1508,11.3512 C177.562797,11.2839997 177.000003,11.2504 176.4624,11.2504 C174.155188,11.2504 172.436006,11.8747938 171.3048,13.1236 C170.173594,14.3724062 169.608,16.3575864 169.608,19.0792 C169.608,21.7896136 170.075595,23.7075944 171.0108,24.8332 C171.946005,25.9588056 173.270391,26.5216 174.984,26.5216 Z M192.2376,9.5368 C193.727207,9.5368 194.953595,9.73279804 195.9168,10.1248 C196.880005,10.516802 197.610798,11.1719954 198.1092,12.0904 C198.607602,13.0088046 198.8568,14.2463922 198.8568,15.8032 L198.8568,28 L197.1432,28 L196.992,25.9168 L196.824,25.9168 C196.219197,26.6672038 195.446405,27.2495979 194.5056,27.664 C193.564795,28.0784021 192.551205,28.2856 191.4648,28.2856 C190.355994,28.2856 189.395604,28.0924019 188.5836,27.706 C187.771596,27.3195981 187.147202,26.7624036 186.7104,26.0344 C186.273598,25.3063964 186.0552,24.4328051 186.0552,23.4136 C186.0552,21.8455922 186.564795,20.6304043 187.584,19.768 C188.603205,18.9055957 190.210389,18.3568012 192.4056,18.1216 L196.8744,17.6176 L196.8744,15.736 C196.8744,14.5823942 196.695202,13.6808032 196.3368,13.0312 C195.978398,12.3815968 195.449203,11.9252013 194.7492,11.662 C194.049196,11.3987987 193.144806,11.2672 192.036,11.2672 C191.285596,11.2672 190.484804,11.3343993 189.6336,11.4688 C188.782396,11.6032007 187.948004,11.8103986 187.1304,12.0904 L187.1304,10.3432 C187.847204,10.0855987 188.661995,9.8868007 189.5748,9.7468 C190.487605,9.6067993 191.375196,9.5368 192.2376,9.5368 Z M191.868,26.6224 C192.808805,26.6224 193.713196,26.420802 194.5812,26.0176 C195.449204,25.614398 196.213597,24.9872043 196.8744,24.136 L196.8744,19.1296 L192.5064,19.6168 C190.971992,19.7848008 189.857603,20.1599971 189.1632,20.7424 C188.468797,21.3248029 188.1216,22.1535946 188.1216,23.2288 C188.1216,24.3376055 188.435197,25.1803971 189.0624,25.7572 C189.689603,26.3340029 190.624794,26.6224 191.868,26.6224 Z M216.2112,9.8056 L218.2776,9.8056 L208.4328,35.392 L206.3832,35.392 L209.256,28 L208.6512,28 L201.6456,9.8056 L203.8128,9.8056 L209.9784,26.3368 L216.2112,9.8056 Z" id="friday" fill="#9DE7AC" fill-rule="nonzero"></path>
                </g>
            </g>
        </g>
    </g>
</svg>