<?xml version="1.0" encoding="UTF-8"?>
<svg width="278px" height="182px" viewBox="0 0 278 182" version="1.1" xmlns="http://www.w3.org/2000/svg" xmlns:xlink="http://www.w3.org/1999/xlink">
    <!-- Generator: Sketch 54.1 (76490) - https://sketchapp.com -->
    <title>Group 6</title>
    <desc>Created with Sketch.</desc>
    <defs>
        <path d="M254.729603,99.3885711 L132.5,140 L10.2638624,99.324075 C4.13500736,97.2846057 4.02788068e-14,91.5506814 3.37507799e-14,85.0914013 L0,0 L265,0 L265,85.1537245 C265,91.6155396 260.861799,97.3511165 254.729603,99.3885711 Z" id="path-1"></path>
        <rect id="path-3" x="-124" y="-12.72032" width="536" height="56"></rect>
        <filter x="-4.1%" y="-25.0%" width="108.2%" height="178.6%" filterUnits="objectBoundingBox" id="filter-4">
            <feOffset dx="0" dy="8" in="SourceAlpha" result="shadowOffsetOuter1"></feOffset>
            <feGaussianBlur stdDeviation="6" in="shadowOffsetOuter1" result="shadowBlurOuter1"></feGaussianBlur>
            <feComposite in="shadowBlurOuter1" in2="SourceAlpha" operator="out" result="shadowBlurOuter1"></feComposite>
            <feColorMatrix values="0 0 0 0 0   0 0 0 0 0   0 0 0 0 0  0 0 0 1 0" type="matrix" in="shadowBlurOuter1"></feColorMatrix>
        </filter>
        <circle id="path-5" cx="33" cy="33" r="23"></circle>
        <filter x="-19.6%" y="-10.9%" width="139.1%" height="139.1%" filterUnits="objectBoundingBox" id="filter-6">
            <feMorphology radius="1" operator="dilate" in="SourceAlpha" result="shadowSpreadOuter1"></feMorphology>
            <feOffset dx="0" dy="4" in="shadowSpreadOuter1" result="shadowOffsetOuter1"></feOffset>
            <feGaussianBlur stdDeviation="2" in="shadowOffsetOuter1" result="shadowBlurOuter1"></feGaussianBlur>
            <feComposite in="shadowBlurOuter1" in2="SourceAlpha" operator="out" result="shadowBlurOuter1"></feComposite>
            <feColorMatrix values="0 0 0 0 0.335326316   0 0 0 0 0.313244833   0 0 0 0 0.368829257  0 0 0 1 0" type="matrix" in="shadowBlurOuter1"></feColorMatrix>
        </filter>
    </defs>
    <g id="Black-Friday-Bootcamp-" stroke="none" stroke-width="1" fill="none" fill-rule="evenodd">
        <g id="02-Home-Slider" transform="translate(-330.000000, -581.000000)">
            <g id="Group-6" transform="translate(330.000000, 581.000000)">
                <g id="Group-4">
                    <g id="Group-3">
                        <g id="Group-74">
                            <path d="M277.5,1.22031995 L0.5,1.22031995 L0.5,94.0634605 C0.5,100.175181 4.33221971,105.630724 10.0816026,107.703818 L139.00013,154.188856 L267.911727,107.777539 C273.664569,105.706376 277.5,100.249098 277.5,94.1347779 L277.5,1.22031995 Z" id="Path" stroke="#FFFFFF" fill="#FFFFFF" opacity="0.432617188"></path>
                            <g id="Rectangle" transform="translate(6.000000, 0.720320)">
                                <mask id="mask-2" fill="white">
                                    <use xlink:href="#path-1"></use>
                                </mask>
                                <use id="Mask" fill="#292828" xlink:href="#path-1"></use>
                                <g mask="url(#mask-2)">
                                    <use fill="black" fill-opacity="1" filter="url(#filter-4)" xlink:href="#path-3"></use>
                                    <rect stroke="#DCDCDC" stroke-width="1" stroke-linejoin="square" fill="#6B4F7C" fill-rule="evenodd" x="-123.5" y="-12.22032" width="535" height="55"></rect>
                                </g>
                            </g>
                            <g id="Group" transform="translate(101.000000, 116.000000)">
                                <circle id="Oval" fill="#747474" opacity="0.363327753" cx="33" cy="33" r="33"></circle>
                                <g id="Oval">
                                    <use fill="black" fill-opacity="1" filter="url(#filter-6)" xlink:href="#path-5"></use>
                                    <use stroke="#FFFFFF" stroke-width="2" fill="#68B75C" fill-rule="evenodd" xlink:href="#path-5"></use>
                                </g>
                                <g id="ic-keyboard-arrow-down-24px" transform="translate(33.500000, 33.000000) rotate(-90.000000) translate(-33.500000, -33.000000) translate(23.500000, 26.500000)" fill="#FFFFFF" fill-rule="nonzero">
                                    <polygon id="Shape" points="2.35 0.5 10 7.91700405 17.65 0.5 20 2.78340081 10 12.5 0 2.78340081"></polygon>
                                </g>
                            </g>
                        </g>
                        <g id="Group-8-Copy-3" opacity="0.741396949" transform="translate(69.000000, 77.000000)" fill="#FFFFFF" fill-rule="nonzero">
                            <path d="M22.07875,19.86 L23.85525,19.86 L23.85525,28 L22.48025,28 L22.48025,21.851 L20.24725,26.8395 L19.01525,26.8395 L16.78225,21.9665 L16.78225,28 L15.40725,28 L15.40725,19.86 L17.18375,19.86 L19.65875,25.349 L22.07875,19.86 Z M30.93375,28 L30.16925,25.657 L26.99025,25.657 L26.22575,28 L24.78475,28 L27.52375,19.86 L29.64675,19.86 L32.38575,28 L30.93375,28 Z M27.36975,24.48 L29.78425,24.48 L28.57425,20.784 L27.36975,24.48 Z M27.93075,19.2 L28.90975,17.572 L30.43325,17.572 L29.22875,19.2 L27.93075,19.2 Z M35.17975,28.1045 C34.8057481,28.1045 34.4308352,28.075167 34.055,28.0165 C33.6791648,27.957833 33.328085,27.8735006 33.00175,27.7635 L33.00175,26.559 C33.3354183,26.6726672 33.6956647,26.7597497 34.0825,26.82025 C34.4693353,26.8807503 34.8350816,26.911 35.17975,26.911 C35.7554195,26.911 36.177082,26.8138343 36.44475,26.6195 C36.712418,26.4251657 36.84625,26.1410019 36.84625,25.767 C36.84625,25.5543323 36.8050004,25.378334 36.7225,25.239 C36.6399996,25.099666 36.5034176,24.9786672 36.31275,24.876 C36.1220824,24.7733328 35.8562517,24.6780004 35.51525,24.59 L34.96525,24.447 C34.2465797,24.2673324 33.7112518,23.9905019 33.35925,23.6165 C33.0072482,23.2424981 32.83125,22.753003 32.83125,22.148 C32.83125,21.3889962 33.1034973,20.8005021 33.648,20.3825 C34.1925027,19.9644979 34.9909114,19.7555 36.04325,19.7555 C36.3879184,19.7555 36.7224984,19.7765831 37.047,19.81875 C37.3715016,19.8609169 37.6620821,19.9204996 37.91875,19.9975 L37.91875,21.202 C37.6547487,21.1213329 37.3669182,21.0590002 37.05525,21.015 C36.7435818,20.9709998 36.4300849,20.949 36.11475,20.949 C35.4804135,20.949 35.0184181,21.0461657 34.72875,21.2405 C34.4390819,21.4348343 34.29425,21.7116649 34.29425,22.071 C34.29425,22.2726677 34.331833,22.4413327 34.407,22.577 C34.482167,22.7126673 34.6068325,22.8299995 34.781,22.929 C34.9551675,23.0280005 35.1944151,23.1196662 35.49875,23.204 L36.04875,23.3415 C36.8297539,23.5358343 37.4026648,23.8199981 37.7675,24.194 C38.1323352,24.5680019 38.31475,25.0593303 38.31475,25.668 C38.31475,26.1740025 38.1910012,26.6103315 37.9435,26.977 C37.6959988,27.3436685 37.336669,27.623249 36.8655,27.81575 C36.394331,28.008251 35.8324199,28.1045 35.17975,28.1045 Z M42.19775,28 L42.19775,19.86 L43.66625,19.86 L43.66625,28 L42.19775,28 Z M50.62925,19.86 L52.00975,19.86 L52.00975,28 L50.52475,28 L46.65825,22.0655 L46.65825,28 L45.27225,28 L45.27225,19.86 L46.75725,19.86 L50.62925,25.8 L50.62925,19.86 Z M59.06625,21.0645 L55.08425,21.0645 L55.08425,23.3745 L58.51625,23.3745 L58.51625,24.579 L55.08425,24.579 L55.08425,28 L53.61575,28 L53.61575,19.86 L59.06625,19.86 L59.06625,21.0645 Z M63.48825,28.1045 C62.7329129,28.1045 62.0811694,27.9541682 61.533,27.6535 C60.9848306,27.3528318 60.5613348,26.8908365 60.2625,26.2675 C59.9636652,25.6441635 59.81425,24.8650047 59.81425,23.93 C59.81425,22.9949953 59.9636652,22.2167531 60.2625,21.59525 C60.5613348,20.9737469 60.9857473,20.5117515 61.53575,20.20925 C62.0857527,19.9067485 62.7365796,19.7555 63.48825,19.7555 C64.2435871,19.7555 64.8953306,19.9067485 65.4435,20.20925 C65.9916694,20.5117515 66.4151652,20.9737469 66.714,21.59525 C67.0128348,22.2167531 67.16225,22.9949953 67.16225,23.93 C67.16225,24.861338 67.0119182,25.6386635 66.71125,26.262 C66.4105818,26.8853364 65.9861694,27.3482485 65.438,27.65075 C64.8898306,27.9532515 64.2399204,28.1045 63.48825,28.1045 Z M63.48825,26.9055 C64.1885868,26.9055 64.7248315,26.6717523 65.097,26.20425 C65.4691685,25.7367477 65.65525,24.9896718 65.65525,23.963 C65.65525,22.9069947 65.4682519,22.1415857 65.09425,21.66675 C64.7202481,21.1919143 64.1849201,20.9545 63.48825,20.9545 C62.7915799,20.9545 62.2571685,21.187331 61.885,21.653 C61.5128315,22.118669 61.32675,22.8666615 61.32675,23.897 C61.32675,24.956672 61.5119148,25.7229976 61.88225,26.196 C62.2525852,26.6690024 62.7879132,26.9055 63.48825,26.9055 Z M73.33325,28 L71.09475,24.8705 C71.0434164,24.8741667 70.9664172,24.876 70.86375,24.876 C70.6437489,24.876 70.3284187,24.8650001 69.91775,24.843 L69.91775,28 L68.47125,28 L68.47125,20.025 C69.274254,19.8526658 70.077246,19.7665 70.88025,19.7665 C72.020589,19.7665 72.8721639,19.9736646 73.435,20.388 C73.9978361,20.8023354 74.27925,21.4421623 74.27925,22.3075 C74.2829167,22.901503 74.1335015,23.396498 73.831,23.7925 C73.5284985,24.188502 73.0912529,24.4763324 72.51925,24.656 L74.94475,28 L73.33325,28 Z M69.91775,23.721 C70.2660851,23.7540002 70.5905818,23.7705 70.89125,23.7705 C71.5842535,23.7705 72.0920817,23.6540845 72.41475,23.42125 C72.7374183,23.1884155 72.89875,22.8190025 72.89875,22.313 C72.89875,21.8069975 72.7475015,21.4385012 72.445,21.2075 C72.1424985,20.9764988 71.6667532,20.861 71.01775,20.861 C70.6510815,20.861 70.2844185,20.8939997 69.91775,20.96 L69.91775,23.721 Z M82.60075,19.86 L84.37725,19.86 L84.37725,28 L83.00225,28 L83.00225,21.851 L80.76925,26.8395 L79.53725,26.8395 L77.30425,21.9665 L77.30425,28 L75.92925,28 L75.92925,19.86 L77.70575,19.86 L80.18075,25.349 L82.60075,19.86 Z M91.45575,28 L90.69125,25.657 L87.51225,25.657 L86.74775,28 L85.30675,28 L88.04575,19.86 L90.16875,19.86 L92.90775,28 L91.45575,28 Z M87.89175,24.48 L90.30625,24.48 L89.09625,20.784 L87.89175,24.48 Z M97.56625,28.1045 C96.2499101,28.1045 95.2452535,27.7717533 94.55225,27.10625 C93.8592465,26.4407467 93.51275,25.3875072 93.51275,23.9465 C93.51275,22.5458263 93.8674965,21.4971702 94.577,20.8005 C95.2865035,20.1038298 96.31041,19.7555 97.64875,19.7555 C98.2500863,19.7555 98.8330805,19.825166 99.39775,19.9645 L99.39775,21.1855 C98.8697474,21.0498327 98.3215862,20.982 97.75325,20.982 C97.1445803,20.982 96.642252,21.080999 96.24625,21.279 C95.850248,21.477001 95.5523343,21.7914145 95.3525,22.22225 C95.1526657,22.6530855 95.05275,23.2204965 95.05275,23.9245 C95.05275,24.6431703 95.151749,25.2197478 95.34975,25.65425 C95.547751,26.0887522 95.8401647,26.4013324 96.227,26.592 C96.6138353,26.7826676 97.1024137,26.878 97.69275,26.878 C98.2464194,26.878 98.8147471,26.7881676 99.39775,26.6085 L99.39775,27.8295 C99.1264153,27.9175004 98.8340016,27.9853331 98.5205,28.033 C98.2069984,28.0806669 97.8889183,28.1045 97.56625,28.1045 Z M100.44825,28 L100.44825,19.86 L101.91675,19.86 L101.91675,28 L100.44825,28 Z M106.89425,28.1045 C106.138913,28.1045 105.487169,27.9541682 104.939,27.6535 C104.390831,27.3528318 103.967335,26.8908365 103.6685,26.2675 C103.369665,25.6441635 103.22025,24.8650047 103.22025,23.93 C103.22025,22.9949953 103.369665,22.2167531 103.6685,21.59525 C103.967335,20.9737469 104.391747,20.5117515 104.94175,20.20925 C105.491753,19.9067485 106.14258,19.7555 106.89425,19.7555 C107.649587,19.7555 108.301331,19.9067485 108.8495,20.20925 C109.397669,20.5117515 109.821165,20.9737469 110.12,21.59525 C110.418835,22.2167531 110.56825,22.9949953 110.56825,23.93 C110.56825,24.861338 110.417918,25.6386635 110.11725,26.262 C109.816582,26.8853364 109.392169,27.3482485 108.844,27.65075 C108.295831,27.9532515 107.64592,28.1045 106.89425,28.1045 Z M106.89425,26.9055 C107.594587,26.9055 108.130831,26.6717523 108.503,26.20425 C108.875169,25.7367477 109.06125,24.9896718 109.06125,23.963 C109.06125,22.9069947 108.874252,22.1415857 108.50025,21.66675 C108.126248,21.1919143 107.59092,20.9545 106.89425,20.9545 C106.19758,20.9545 105.663169,21.187331 105.291,21.653 C104.918831,22.118669 104.73275,22.8666615 104.73275,23.897 C104.73275,24.956672 104.917915,25.7229976 105.28825,26.196 C105.658585,26.6690024 106.193913,26.9055 106.89425,26.9055 Z M106.23975,19.2 L107.21875,17.572 L108.74225,17.572 L107.53775,19.2 L106.23975,19.2 Z M117.23425,19.86 L118.61475,19.86 L118.61475,28 L117.12975,28 L113.26325,22.0655 L113.26325,28 L111.87725,28 L111.87725,19.86 L113.36225,19.86 L117.23425,25.8 L117.23425,19.86 Z" id="MÁSINFORMACIÓN"></path>
                        </g>
                    </g>
                    <g id="Logo" transform="translate(56.000000, 58.000000)">
                        <g id="Group-Copy-3" transform="translate(8.400000, 0.000000)">
                            <path d="M4.75944005,24.7352 C3.95975605,24.7352 3.16204403,24.6783606 2.36628005,24.56468 C1.57051607,24.4509994 0.835523418,24.2844011 0.161280047,24.06488 L0.161280047,5.49584 L3.24240005,5.49584 L3.24240005,12.93992 L3.39528005,12.93992 C3.78728201,12.4773577 4.27335715,12.1167213 4.85352005,11.858 C5.43368295,11.5992787 6.08439644,11.46992 6.80568005,11.46992 C7.73864471,11.46992 8.57751632,11.6913978 9.32232005,12.13436 C10.0671238,12.5773222 10.6590379,13.2750752 11.09808,14.22764 C11.5371222,15.1802048 11.75664,16.3816727 11.75664,17.83208 C11.75664,20.1213714 11.1725659,21.8441942 10.0044,23.0006 C8.83623421,24.1570058 7.08793169,24.7352 4.75944005,24.7352 Z M5.01816005,22.35968 C6.24120616,22.35968 7.15259705,22.0225634 7.75236005,21.34832 C8.35212305,20.6740766 8.65200005,19.5843275 8.65200005,18.07904 C8.65200005,16.5894326 8.39720259,15.540843 7.88760005,14.93324 C7.3779975,14.325637 6.64888479,14.02184 5.70024005,14.02184 C5.22983769,14.02184 4.77708222,14.1080791 4.34196005,14.28056 C3.90683787,14.4530409 3.54032154,14.7117583 3.24240005,15.05672 L3.24240005,22.13624 C3.78336275,22.2852007 4.37527683,22.35968 5.01816005,22.35968 Z M15.3552001,24.5 L15.3552001,5.49584 L18.4363201,5.49584 L18.4363201,24.5 L15.3552001,24.5 Z M26.9505601,11.46992 C28.2520066,11.46992 29.3064761,11.6325984 30.1140001,11.95796 C30.9215242,12.2833216 31.5232382,12.8183963 31.9191601,13.5632 C32.3150821,14.3080037 32.5130401,15.3193536 32.5130401,16.59728 L32.5130401,24.5 L29.9611201,24.5 L29.7494401,23.17112 L29.5848001,23.17112 C29.2006382,23.6807225 28.7047632,24.0668387 28.0971601,24.32948 C27.4895571,24.5921213 26.8172838,24.72344 26.0803201,24.72344 C25.2414359,24.72344 24.5162432,24.5744815 23.9047201,24.27656 C23.2931971,23.9786385 22.8247618,23.5572427 22.4994001,23.01236 C22.1740385,22.4674773 22.0113601,21.8265637 22.0113601,21.0896 C22.0113601,19.897914 22.4190361,18.9767233 23.2344001,18.326 C24.0497642,17.6752767 25.3394313,17.2793607 27.1034401,17.13824 L29.5024801,16.9148 L29.5024801,16.40912 C29.5024801,15.7583967 29.3986012,15.2468419 29.1908401,14.87444 C28.9830791,14.5020381 28.6577224,14.2374408 28.2147601,14.08064 C27.7717979,13.9238392 27.1779239,13.84544 26.4331201,13.84544 C25.9078375,13.84544 25.3394432,13.8905195 24.7279201,13.98068 C24.1163971,14.0708405 23.528403,14.2060791 22.9639201,14.3864 L22.9639201,12.02264 C23.544083,11.8423191 24.1928366,11.7051205 24.9102001,11.61104 C25.6275637,11.5169595 26.3076769,11.46992 26.9505601,11.46992 Z M27.0328801,22.53608 C27.4876024,22.53608 27.928598,22.4498409 28.3558801,22.27736 C28.7831623,22.1048791 29.1653585,21.8304819 29.5024801,21.45416 L29.5024801,18.72584 L27.3974401,18.914 C26.5899161,18.9924004 25.999962,19.1864385 25.6275601,19.49612 C25.2551583,19.8058015 25.0689601,20.2389572 25.0689601,20.7956 C25.0689601,21.3600828 25.2355585,21.7912785 25.5687601,22.0892 C25.9019618,22.3871215 26.3899969,22.53608 27.0328801,22.53608 Z M42.3561602,24.7352 C40.2863898,24.7352 38.7144856,24.1883655 37.6404002,23.09468 C36.5663148,22.0009945 36.0292802,20.3369712 36.0292802,18.10256 C36.0292802,15.8524687 36.6015945,14.1845254 37.7462402,13.09868 C38.8908859,12.0128346 40.5647092,11.46992 42.7677602,11.46992 C43.7634452,11.46992 44.6924759,11.571839 45.5548802,11.77568 L45.5548802,14.24528 C44.7003159,14.0649591 43.9045639,13.9748 43.1676002,13.9748 C42.2503156,13.9748 41.5016031,14.1119986 40.9214402,14.3864 C40.3412773,14.6608014 39.9100816,15.097877 39.6278402,15.69764 C39.3455988,16.297403 39.2044802,17.0872751 39.2044802,18.06728 C39.2044802,19.5490474 39.5004372,20.6133168 40.0923602,21.26012 C40.6842831,21.9069232 41.5917541,22.23032 42.8148002,22.23032 C43.2146422,22.23032 43.632118,22.1930804 44.0672402,22.1186 C44.5023624,22.0441196 44.9982374,21.9284808 45.5548802,21.77168 L45.5548802,24.24128 C44.5513552,24.5705616 43.4851258,24.7352 42.3561602,24.7352 Z M57.6441602,24.5 L53.7868802,19.16096 L52.0111202,19.16096 L52.0111202,24.5 L48.9300002,24.5 L48.9300002,5.49584 L52.0111202,5.49584 L52.0111202,16.66784 L53.7633602,16.66784 L57.3031202,11.66984 L60.6194402,11.66984 L56.3152802,17.8556 L61.0310402,24.5 L57.6441602,24.5 Z M64.8883203,20.83088 C65.5625637,20.83088 66.0780385,21.0405979 66.4347603,21.46004 C66.7914821,21.8794821 66.9698403,22.5047158 66.9698403,23.33576 C66.9698403,24.2138444 66.8267617,25.0958356 66.5406003,25.98176 C66.2544388,26.8676844 65.8644027,27.6751964 65.3704803,28.40432 L63.5947203,28.40432 C63.9161619,27.6673563 64.1650794,27.002923 64.3414803,26.411 C64.5178812,25.819077 64.6296,25.2369629 64.6766403,24.66464 C64.1278375,24.6175998 63.6927219,24.4235617 63.3712803,24.08252 C63.0498387,23.7414783 62.8891203,23.2965627 62.8891203,22.74776 C62.8891203,22.151917 63.0694385,21.6834817 63.4300803,21.34244 C63.7907221,21.0013983 64.2767972,20.83088 64.8883203,20.83088 Z M64.9353603,15.33896 C64.3159972,15.33896 63.8201221,15.1664817 63.4477203,14.82152 C63.0753184,14.4765583 62.8891203,14.0100829 62.8891203,13.42208 C62.8891203,12.8340771 63.0733584,12.3656417 63.4418403,12.01676 C63.8103221,11.6678783 64.3081571,11.49344 64.9353603,11.49344 C65.5625634,11.49344 66.0603984,11.6698382 66.4288803,12.02264 C66.7973621,12.3754418 66.9816003,12.8419171 66.9816003,13.42208 C66.9816003,14.0022429 66.7954021,14.4667583 66.4230003,14.81564 C66.0505984,15.1645217 65.5547234,15.33896 64.9353603,15.33896 Z M84.6451204,15.89168 L84.6451204,18.34952 L84.1276804,18.34952 C83.5867177,18.34952 83.1712018,18.4925986 82.8811204,18.77876 C82.5910389,19.0649214 82.4460004,19.4863172 82.4460004,20.04296 L82.4460004,25.52312 C82.4460004,26.9656872 82.0520443,28.0573963 81.2641204,28.79828 C80.4761964,29.5391637 79.3060881,29.9096 77.7537604,29.9096 C77.071677,29.9096 76.4366433,29.8625605 75.8486404,29.76848 L75.8486404,27.40472 L77.2716004,27.40472 C77.9772039,27.40472 78.5024786,27.2498815 78.8474404,26.9402 C79.1924021,26.6305185 79.3648804,26.1346434 79.3648804,25.45256 L79.3648804,20.12528 C79.3648804,19.3099159 79.5334387,18.6552825 79.8705604,18.16136 C80.2076821,17.6674375 80.7368768,17.318561 81.4581604,17.11472 C80.7368768,16.918719 80.2076821,16.5737625 79.8705604,16.07984 C79.5334387,15.5859175 79.3648804,14.9312841 79.3648804,14.11592 L79.3648804,9.71768 C79.3648804,9.03559659 79.1924021,8.53972155 78.8474404,8.23004 C78.5024786,7.92035845 77.9772039,7.76552 77.2716004,7.76552 L75.8486404,7.76552 L75.8486404,5.40176 C76.4366433,5.30767953 77.071677,5.26064 77.7537604,5.26064 C79.3060881,5.26064 80.4761964,5.6310763 81.2641204,6.37196 C82.0520443,7.1128437 82.4460004,8.20455279 82.4460004,9.64712 L82.4460004,14.19824 C82.4460004,14.7548828 82.5910389,15.1762786 82.8811204,15.46244 C83.1712018,15.7486014 83.5867177,15.89168 84.1276804,15.89168 L84.6451204,15.89168 Z" id="black;}" fill="#FFFFFF" fill-rule="nonzero"></path>
                            <path d="M101.6148,6.49544 C100.579915,6.49544 99.8174824,6.73063765 99.32748,7.20104 C98.8374775,7.67144235 98.59248,8.44759459 98.59248,9.52952 L98.59248,11.76392 L102.75552,11.76392 L102.75552,12.9752 L98.59248,12.9752 L98.59248,24.5 L97.18128,24.5 L97.18128,12.9752 L94.69992,12.9752 L94.69992,11.76392 L97.18128,11.76392 L97.18128,9.60008 C97.18128,8.16535283 97.5458364,7.08344365 98.27496,6.35432 C99.0040836,5.62519635 100.089913,5.26064 101.53248,5.26064 C102.120483,5.26064 102.684957,5.30767953 103.22592,5.40176 L103.22592,6.64832 C102.708477,6.54639949 102.171443,6.49544 101.6148,6.49544 Z M104.54304,11.76392 L105.74256,11.76392 L105.86016,13.48088 L105.966,13.48088 C106.412882,12.9007171 106.975397,12.4518816 107.65356,12.13436 C108.331723,11.8168384 109.039276,11.65808 109.77624,11.65808 C110.160402,11.65808 110.493599,11.6855197 110.77584,11.7404 L110.77584,13.08104 C110.501439,13.0339998 110.148642,13.01048 109.71744,13.01048 C109.019677,13.01048 108.323883,13.1790383 107.63004,13.51616 C106.936197,13.8532817 106.377602,14.3354369 105.95424,14.96264 L105.95424,24.5 L104.54304,24.5 L104.54304,11.76392 Z M112.79856,24.5 L112.79856,11.76392 L114.22152,11.76392 L114.22152,24.5 L112.79856,24.5 Z M113.50416,8.76512 C113.174878,8.76512 112.916161,8.67888086 112.728,8.5064 C112.539839,8.33391914 112.44576,8.09480153 112.44576,7.78904 C112.44576,7.48327847 112.539839,7.23828092 112.728,7.05404 C112.916161,6.86979908 113.174878,6.77768 113.50416,6.77768 C113.833442,6.77768 114.092159,6.86979908 114.28032,7.05404 C114.468481,7.23828092 114.56256,7.48327847 114.56256,7.78904 C114.56256,8.09480153 114.470441,8.33391914 114.2862,8.5064 C114.101959,8.67888086 113.841282,8.76512 113.50416,8.76512 Z M122.23008,24.71168 C120.732633,24.71168 119.531165,24.2060051 118.62564,23.19464 C117.720115,22.1832749 117.26736,20.5839309 117.26736,18.39656 C117.26736,13.8493373 119.364539,11.57576 123.55896,11.57576 C124.272404,11.57576 125.013276,11.6384794 125.7816,11.76392 L125.7816,5.49584 L127.1928,5.49584 L127.1928,24.5 L125.98152,24.5 L125.87568,23.11232 L125.76984,23.11232 C125.369998,23.5984024 124.864323,23.9864785 124.2528,24.27656 C123.641277,24.5666415 122.967044,24.71168 122.23008,24.71168 Z M122.4888,23.46512 C123.139523,23.46512 123.754957,23.3200815 124.33512,23.03 C124.915283,22.7399185 125.397438,22.3008829 125.7816,21.71288 L125.7816,13.02224 C125.475838,12.9516796 125.117162,12.8928802 124.70556,12.84584 C124.293958,12.7987998 123.900002,12.77528 123.52368,12.77528 C121.908632,12.77528 120.705204,13.2123556 119.91336,14.08652 C119.121516,14.9606844 118.7256,16.3503105 118.7256,18.25544 C118.7256,20.1527295 119.052917,21.4953161 119.70756,22.28324 C120.362203,23.0711639 121.289274,23.46512 122.4888,23.46512 Z M134.56632,11.57576 C135.609045,11.57576 136.467517,11.7129586 137.14176,11.98736 C137.816003,12.2617614 138.327558,12.7203968 138.67644,13.36328 C139.025322,14.0061632 139.19976,14.8724746 139.19976,15.96224 L139.19976,24.5 L138.00024,24.5 L137.8944,23.04176 L137.7768,23.04176 C137.353438,23.5670426 136.812483,23.9747185 136.15392,24.2648 C135.495357,24.5548815 134.785844,24.69992 134.02536,24.69992 C133.249196,24.69992 132.576923,24.5646814 132.00852,24.2942 C131.440117,24.0237186 131.003042,23.6336825 130.69728,23.12408 C130.391518,22.6144775 130.23864,22.0029636 130.23864,21.28952 C130.23864,20.1919145 130.595356,19.341283 131.3088,18.7376 C132.022244,18.133917 133.147272,17.7497608 134.68392,17.58512 L137.81208,17.23232 L137.81208,15.9152 C137.81208,15.107676 137.686641,14.4765623 137.43576,14.02184 C137.184879,13.5671177 136.814442,13.2476409 136.32444,13.0634 C135.834438,12.8791591 135.201364,12.78704 134.4252,12.78704 C133.899917,12.78704 133.339363,12.8340795 132.74352,12.92816 C132.147677,13.0222405 131.563603,13.167279 130.99128,13.36328 L130.99128,12.14024 C131.493043,11.9599191 132.063397,11.8207605 132.70236,11.72276 C133.341323,11.6247595 133.962637,11.57576 134.56632,11.57576 Z M134.3076,23.53568 C134.966163,23.53568 135.599237,23.3945614 136.20684,23.11232 C136.814443,22.8300786 137.349518,22.391043 137.81208,21.7952 L137.81208,18.29072 L134.75448,18.63176 C133.680395,18.7493606 132.900322,19.011998 132.41424,19.41968 C131.928158,19.827362 131.68512,20.4075162 131.68512,21.16016 C131.68512,21.9363239 131.904638,22.526278 132.34368,22.93004 C132.782722,23.333802 133.437356,23.53568 134.3076,23.53568 Z M151.34784,11.76392 L152.79432,11.76392 L145.90296,29.6744 L144.46824,29.6744 L146.4792,24.5 L146.05584,24.5 L141.15192,11.76392 L142.66896,11.76392 L146.98488,23.33576 L151.34784,11.76392 Z" id="friday" fill="#9DE7AC" fill-rule="nonzero"></path>
                        </g>
                    </g>
                </g>
                <path d="M22.823,21.631 C23.5183368,21.7756674 24.0503315,22.0626645 24.419,22.492 C24.7876685,22.9213355 24.972,23.47433 24.972,24.151 C24.972,25.1030048 24.63367,25.8379974 23.957,26.356 C23.2803299,26.8740026 22.2816733,27.133 20.961,27.133 C20.027662,27.133 19.1503374,27.0093346 18.329,26.762 L18.329,25.341 C18.7256686,25.4623339 19.1491644,25.5556663 19.5995,25.621 C20.0498356,25.6863337 20.4803313,25.719 20.891,25.719 C22.4356744,25.719 23.208,25.1613389 23.208,24.046 C23.208,23.5093307 23.0236685,23.1021681 22.655,22.8245 C22.2863315,22.5468319 21.7053373,22.408 20.912,22.408 L19.491,22.408 L19.491,20.98 L20.492,20.98 C21.2853373,20.98 21.8744981,20.8435014 22.2595,20.5705 C22.6445019,20.2974986 22.837,19.9020026 22.837,19.384 C22.837,18.4086618 22.1720066,17.921 20.842,17.921 C20.449998,17.921 20.054502,17.9536663 19.6555,18.019 C19.256498,18.0843337 18.8820017,18.1799994 18.532,18.306 L18.532,16.892 C18.8586683,16.7753328 19.2483311,16.6820004 19.701,16.612 C20.1536689,16.5419997 20.5969978,16.507 21.031,16.507 C22.2116726,16.507 23.1076636,16.7426643 23.719,17.214 C24.3303364,17.6853357 24.636,18.357329 24.636,19.23 C24.636,19.8180029 24.4761683,20.3219979 24.1565,20.742 C23.8368317,21.1620021 23.3923362,21.4583325 22.823,21.631 Z M28.276,20.833 C29.2886717,20.8890003 30.1123302,21.0406654 30.747,21.288 C31.3816698,21.5353346 31.8459985,21.8794978 32.14,22.3205 C32.4340015,22.7615022 32.581,23.3109967 32.581,23.969 C32.5763333,25.0003385 32.2368367,25.7854973 31.5625,26.3245 C30.8881633,26.8635027 29.8930066,27.133 28.577,27.133 C27.6529954,27.133 26.7733375,27.0023346 25.938,26.741 L25.938,25.32 C26.3346686,25.4413339 26.7581644,25.535833 27.2085,25.6035 C27.6588356,25.671167 28.0916646,25.705 28.507,25.705 C29.2910039,25.705 29.8708315,25.5638347 30.2465,25.2815 C30.6221685,24.9991653 30.81,24.5756695 30.81,24.011 C30.81,23.6283314 30.7143343,23.3168345 30.523,23.0765 C30.3316657,22.8361655 30.0038357,22.6460007 29.5395,22.506 C29.0751643,22.3659993 28.4323374,22.2726669 27.611,22.226 L26.288,22.156 L26.638,16.64 L32.154,16.64 L32.154,18.089 L28.304,18.089 L28.115,20.826 L28.276,20.833 Z M36.228,22.996 C35.4066626,22.996 34.7580024,22.7265027 34.282,22.1875 C33.8059976,21.6484973 33.568,20.8376721 33.568,19.755 C33.568,18.6723279 33.8059976,17.860336 34.282,17.319 C34.7580024,16.777664 35.4066626,16.507 36.228,16.507 C37.0493374,16.507 37.696831,16.777664 38.1705,17.319 C38.644169,17.860336 38.881,18.6723279 38.881,19.755 C38.881,20.8376721 38.6430024,21.6484973 38.167,22.1875 C37.6909976,22.7265027 37.0446707,22.996 36.228,22.996 Z M36.9,27 L41.492,16.64 L43.018,16.64 L38.426,27 L36.9,27 Z M36.228,21.82 C36.6060019,21.82 36.8988323,21.6613349 37.1065,21.344 C37.3141677,21.0266651 37.418,20.499337 37.418,19.762 C37.418,19.0199963 37.3141677,18.4891683 37.1065,18.1695 C36.8988323,17.8498317 36.6060019,17.69 36.228,17.69 C35.8499981,17.69 35.556001,17.8486651 35.346,18.166 C35.1359989,18.4833349 35.031,19.010663 35.031,19.748 C35.031,20.485337 35.1359989,21.0149984 35.346,21.337 C35.556001,21.6590016 35.8499981,21.82 36.228,21.82 Z M43.69,27.126 C42.8686626,27.126 42.2200024,26.855336 41.744,26.314 C41.2679976,25.772664 41.03,24.9606721 41.03,23.878 C41.03,22.7953279 41.2679976,21.983336 41.744,21.442 C42.2200024,20.900664 42.8686626,20.63 43.69,20.63 C44.5113374,20.63 45.158831,20.900664 45.6325,21.442 C46.106169,21.983336 46.343,22.7953279 46.343,23.878 C46.343,24.9606721 46.106169,25.772664 45.6325,26.314 C45.158831,26.855336 44.5113374,27.126 43.69,27.126 Z M43.69,25.943 C44.0680019,25.943 44.3608323,25.7843349 44.5685,25.467 C44.7761677,25.1496651 44.88,24.622337 44.88,23.885 C44.88,23.1429963 44.7761677,22.6121683 44.5685,22.2925 C44.3608323,21.9728317 44.0680019,21.813 43.69,21.813 C43.3119981,21.813 43.018001,21.9728317 42.808,22.2925 C42.5979989,22.6121683 42.493,23.1383297 42.493,23.871 C42.493,24.608337 42.5979989,25.1379984 42.808,25.46 C43.018001,25.7820016 43.3119981,25.943 43.69,25.943 Z M54.113,27.133 C53.5249971,27.133 52.9988357,27.0023346 52.5345,26.741 C52.0701643,26.4796654 51.7015014,26.0655028 51.4285,25.4985 C51.1554986,24.9314972 51.019,24.211671 51.019,23.339 C51.019,21.9949933 51.3631632,20.9753368 52.0515,20.28 C52.7398368,19.5846632 53.7443267,19.237 55.065,19.237 C55.3776682,19.237 55.7183315,19.2626664 56.087,19.314 L56.087,15.688 L57.921,15.688 L57.921,27 L56.374,27 L56.262,26.195 L56.164,26.195 C55.9353322,26.4843348 55.6460017,26.7129992 55.296,26.881 C54.9459982,27.0490008 54.5516689,27.133 54.113,27.133 Z M54.617,25.621 C54.9016681,25.621 55.1746654,25.5638339 55.436,25.4495 C55.6973346,25.3351661 55.9143325,25.1660011 56.087,24.942 L56.087,20.763 C55.7743318,20.6929997 55.4336685,20.658 55.065,20.658 C54.3229963,20.658 53.7711685,20.857498 53.4095,21.2565 C53.0478315,21.655502 52.867,22.3006622 52.867,23.192 C52.867,24.0786711 53.0186651,24.7051648 53.322,25.0715 C53.6253348,25.4378352 54.0569972,25.621 54.617,25.621 Z M65.943,23.731 L61.218,23.731 C61.2413334,24.2256691 61.3346658,24.6188319 61.498,24.9105 C61.6613341,25.2021681 61.9133316,25.4133327 62.254,25.544 C62.5946684,25.6746673 63.0496638,25.74 63.619,25.74 C64.1790028,25.74 64.8183297,25.6513342 65.537,25.474 L65.537,26.867 C64.8043297,27.0490009 64.0810036,27.14 63.367,27.14 C62.4569954,27.14 61.7091696,27.0023347 61.1235,26.727 C60.5378304,26.4516653 60.1003348,26.0235029 59.811,25.4425 C59.5216652,24.8614971 59.377,24.1066713 59.377,23.178 C59.377,22.3239957 59.5099987,21.6030029 59.776,21.015 C60.0420013,20.4269971 60.4269975,19.9848348 60.931,19.6885 C61.4350025,19.3921652 62.0439964,19.244 62.758,19.244 C63.7986719,19.244 64.589664,19.57883 65.131,20.2485 C65.672336,20.91817 65.943,21.9133267 65.943,23.234 L65.943,23.731 Z M62.744,20.441 C62.2493309,20.441 61.8736679,20.6089983 61.617,20.945 C61.360332,21.2810017 61.2250001,21.8433294 61.211,22.632 L64.228,22.632 C64.2139999,21.8433294 64.0845012,21.2810017 63.8395,20.945 C63.5944988,20.6089983 63.2293358,20.441 62.744,20.441 Z M73.524,27.133 C72.9359971,27.133 72.4098357,27.0023346 71.9455,26.741 C71.4811643,26.4796654 71.1125014,26.0655028 70.8395,25.4985 C70.5664986,24.9314972 70.43,24.211671 70.43,23.339 C70.43,21.9949933 70.7741632,20.9753368 71.4625,20.28 C72.1508368,19.5846632 73.1553267,19.237 74.476,19.237 C74.7886682,19.237 75.1293315,19.2626664 75.498,19.314 L75.498,15.688 L77.332,15.688 L77.332,27 L75.785,27 L75.673,26.195 L75.575,26.195 C75.3463322,26.4843348 75.0570017,26.7129992 74.707,26.881 C74.3569982,27.0490008 73.9626689,27.133 73.524,27.133 Z M74.028,25.621 C74.3126681,25.621 74.5856654,25.5638339 74.847,25.4495 C75.1083346,25.3351661 75.3253325,25.1660011 75.498,24.942 L75.498,20.763 C75.1853318,20.6929997 74.8446685,20.658 74.476,20.658 C73.7339963,20.658 73.1821685,20.857498 72.8205,21.2565 C72.4588315,21.655502 72.278,22.3006622 72.278,23.192 C72.278,24.0786711 72.4296651,24.7051648 72.733,25.0715 C73.0363348,25.4378352 73.4679972,25.621 74.028,25.621 Z M85.354,23.731 L80.629,23.731 C80.6523334,24.2256691 80.7456658,24.6188319 80.909,24.9105 C81.0723341,25.2021681 81.3243316,25.4133327 81.665,25.544 C82.0056684,25.6746673 82.4606638,25.74 83.03,25.74 C83.5900028,25.74 84.2293297,25.6513342 84.948,25.474 L84.948,26.867 C84.2153297,27.0490009 83.4920036,27.14 82.778,27.14 C81.8679954,27.14 81.1201696,27.0023347 80.5345,26.727 C79.9488304,26.4516653 79.5113348,26.0235029 79.222,25.4425 C78.9326652,24.8614971 78.788,24.1066713 78.788,23.178 C78.788,22.3239957 78.9209987,21.6030029 79.187,21.015 C79.4530013,20.4269971 79.8379975,19.9848348 80.342,19.6885 C80.8460025,19.3921652 81.4549964,19.244 82.169,19.244 C83.2096719,19.244 84.000664,19.57883 84.542,20.2485 C85.083336,20.91817 85.354,21.9133267 85.354,23.234 L85.354,23.731 Z M82.155,20.441 C81.6603309,20.441 81.2846679,20.6089983 81.028,20.945 C80.771332,21.2810017 80.6360001,21.8433294 80.622,22.632 L83.639,22.632 C83.6249999,21.8433294 83.4955012,21.2810017 83.2505,20.945 C83.0054988,20.6089983 82.6403358,20.441 82.155,20.441 Z M88.819,27.14 C87.9509957,27.14 87.1740034,27.0326677 86.488,26.818 L86.488,25.446 C87.2300037,25.6700011 87.999996,25.782 88.798,25.782 C89.339336,25.782 89.7348321,25.7015008 89.9845,25.5405 C90.2341679,25.3794992 90.359,25.1450015 90.359,24.837 C90.359,24.5896654 90.2936673,24.4006673 90.163,24.27 C90.0323327,24.1393327 89.8083349,24.0413337 89.491,23.976 L88.329,23.759 C87.6243298,23.6189993 87.1110016,23.3728351 86.789,23.0205 C86.4669984,22.6681649 86.306,22.1956696 86.306,21.603 C86.306,21.1269976 86.4308321,20.7128351 86.6805,20.3605 C86.9301679,20.0081649 87.3093308,19.734001 87.818,19.538 C88.3266692,19.341999 88.9566629,19.244 89.708,19.244 C90.4126702,19.244 91.0636637,19.3233325 91.661,19.482 L91.661,20.847 C91.058997,20.6836659 90.4243367,20.602 89.757,20.602 C88.6043276,20.602 88.028,20.9193302 88.028,21.554 C88.028,21.7780011 88.092166,21.9564993 88.2205,22.0895 C88.348834,22.2225007 88.5669985,22.3216663 88.875,22.387 L90.037,22.604 C90.7370035,22.7440007 91.2514984,22.983165 91.5805,23.3215 C91.9095016,23.659835 92.074,24.1416635 92.074,24.767 C92.074,25.2570025 91.9480013,25.6793316 91.696,26.034 C91.4439987,26.3886684 91.0741691,26.6616657 90.5865,26.853 C90.0988309,27.0443343 89.5096701,27.14 88.819,27.14 Z M96.785,27.14 C95.5529938,27.14 94.6173365,26.8145033 93.978,26.1635 C93.3386635,25.5124967 93.019,24.5220067 93.019,23.192 C93.019,21.85266 93.3596633,20.8598366 94.041,20.2135 C94.7223367,19.5671634 95.7186601,19.244 97.03,19.244 C97.6226696,19.244 98.1756641,19.3046661 98.689,19.426 L98.689,20.896 C98.1803308,20.7886661 97.7066689,20.735 97.268,20.735 C96.7219973,20.735 96.2763351,20.8166659 95.931,20.98 C95.5856649,21.1433342 95.3290008,21.4034982 95.161,21.7605 C94.9929992,22.1175018 94.909,22.5876638 94.909,23.171 C94.909,24.0530044 95.0851649,24.6864981 95.4375,25.0715 C95.7898351,25.4565019 96.3299964,25.649 97.058,25.649 C97.2960012,25.649 97.5444987,25.6268336 97.8035,25.5825 C98.0625013,25.5381664 98.357665,25.4693338 98.689,25.376 L98.689,26.846 C98.0916637,27.042001 97.4570034,27.14 96.785,27.14 Z M102.413,27.133 C101.619663,27.133 100.993169,26.9008357 100.5335,26.4365 C100.073831,25.9721643 99.844,25.2406717 99.844,24.242 L99.844,19.363 L101.678,19.363 L101.678,24.13 C101.678,24.6386692 101.784166,25.0014989 101.9965,25.2185 C102.208834,25.4355011 102.510998,25.544 102.903,25.544 C103.197001,25.544 103.492165,25.4786673 103.7885,25.348 C104.084835,25.2173327 104.330999,25.023668 104.527,24.767 L104.527,19.363 L106.361,19.363 L106.361,27 L104.842,27 L104.716,26.209 L104.632,26.209 C104.333332,26.5123349 103.995002,26.7421659 103.617,26.8985 C103.238998,27.0548341 102.837669,27.133 102.413,27.133 Z M114.39,23.731 L109.665,23.731 C109.688333,24.2256691 109.781666,24.6188319 109.945,24.9105 C110.108334,25.2021681 110.360332,25.4133327 110.701,25.544 C111.041668,25.6746673 111.496664,25.74 112.066,25.74 C112.626003,25.74 113.26533,25.6513342 113.984,25.474 L113.984,26.867 C113.25133,27.0490009 112.528004,27.14 111.814,27.14 C110.903995,27.14 110.15617,27.0023347 109.5705,26.727 C108.98483,26.4516653 108.547335,26.0235029 108.258,25.4425 C107.968665,24.8614971 107.824,24.1066713 107.824,23.178 C107.824,22.3239957 107.956999,21.6030029 108.223,21.015 C108.489001,20.4269971 108.873997,19.9848348 109.378,19.6885 C109.882003,19.3921652 110.490996,19.244 111.205,19.244 C112.245672,19.244 113.036664,19.57883 113.578,20.2485 C114.119336,20.91817 114.39,21.9133267 114.39,23.234 L114.39,23.731 Z M111.191,20.441 C110.696331,20.441 110.320668,20.6089983 110.064,20.945 C109.807332,21.2810017 109.672,21.8433294 109.658,22.632 L112.675,22.632 C112.661,21.8433294 112.531501,21.2810017 112.2865,20.945 C112.041499,20.6089983 111.676336,20.441 111.191,20.441 Z M115.755,19.363 L117.274,19.363 L117.4,20.168 L117.498,20.168 C117.787335,19.8693318 118.129165,19.6406675 118.5235,19.482 C118.917835,19.3233325 119.338998,19.244 119.787,19.244 C120.575671,19.244 121.198664,19.4761643 121.656,19.9405 C122.113336,20.4048357 122.342,21.1386617 122.342,22.142 L122.342,27 L120.508,27 L120.508,22.247 C120.508,21.7383308 120.400668,21.3755011 120.186,21.1585 C119.971332,20.9414989 119.658669,20.833 119.248,20.833 C118.939998,20.833 118.636668,20.897166 118.338,21.0255 C118.039332,21.153834 117.789668,21.3463321 117.589,21.603 L117.589,27 L115.755,27 L115.755,19.363 Z M127.802,25.614 C128.026001,25.614 128.308332,25.5813337 128.649,25.516 L128.649,26.986 C128.205664,27.0886672 127.764669,27.14 127.326,27.14 C125.515324,27.14 124.61,26.2276758 124.61,24.403 L124.61,20.826 L123.294,20.826 L123.294,19.363 L124.61,19.363 L124.932,16.64 L126.444,16.64 L126.444,19.363 L128.579,19.363 L128.579,20.826 L126.444,20.826 L126.444,24.109 C126.444,24.4823352 126.491833,24.7786656 126.5875,24.998 C126.683167,25.2173344 126.828999,25.3748329 127.025,25.4705 C127.221001,25.5661671 127.479998,25.614 127.802,25.614 Z M132.954,27.14 C131.838661,27.14 130.96717,26.8110033 130.3395,26.153 C129.71183,25.4949967 129.398,24.5103399 129.398,23.199 C129.398,21.8783267 129.707164,20.8890033 130.3255,20.231 C130.943836,19.5729967 131.819994,19.244 132.954,19.244 C134.088006,19.244 134.964164,19.5729967 135.5825,20.231 C136.200836,20.8890033 136.51,21.8759934 136.51,23.192 C136.51,24.0693377 136.366501,24.8019971 136.0795,25.39 C135.792499,25.9780029 135.383003,26.4166652 134.851,26.706 C134.318997,26.9953348 133.68667,27.14 132.954,27.14 Z M132.954,25.726 C133.518669,25.726 133.944499,25.5346686 134.2315,25.152 C134.518501,24.7693314 134.662,24.1206712 134.662,23.206 C134.662,22.2773287 134.518501,21.6205019 134.2315,21.2355 C133.944499,20.8504981 133.518669,20.658 132.954,20.658 C132.389331,20.658 131.963501,20.8493314 131.6765,21.232 C131.389499,21.6146686 131.246,22.2633288 131.246,23.178 C131.246,23.8080032 131.312499,24.3096648 131.4455,24.683 C131.578501,25.0563352 131.769832,25.3234992 132.0195,25.4845 C132.269168,25.6455008 132.580665,25.726 132.954,25.726 Z M138.883,27.105 C138.514331,27.105 138.219168,27.0023344 137.9975,26.797 C137.775832,26.5916656 137.665,26.3140018 137.665,25.964 C137.665,25.6139983 137.774666,25.3351677 137.994,25.1275 C138.213334,24.9198323 138.509665,24.816 138.883,24.816 C139.256335,24.816 139.552666,24.920999 139.772,25.131 C139.991334,25.3410011 140.101,25.6186649 140.101,25.964 C140.101,26.3093351 139.990168,26.5858323 139.7685,26.7935 C139.546832,27.0011677 139.251669,27.105 138.883,27.105 Z M138.883,21.547 C138.514331,21.547 138.219168,21.4443344 137.9975,21.239 C137.775832,21.0336656 137.665,20.7560018 137.665,20.406 C137.665,20.0559983 137.774666,19.7771677 137.994,19.5695 C138.213334,19.3618323 138.509665,19.258 138.883,19.258 C139.256335,19.258 139.552666,19.362999 139.772,19.573 C139.991334,19.7830011 140.101,20.0606649 140.101,20.406 C140.101,20.7513351 139.990168,21.0278323 139.7685,21.2355 C139.546832,21.4431677 139.251669,21.547 138.883,21.547 Z M146.17,19.258 C146.538669,19.258 146.833832,19.3618323 147.0555,19.5695 C147.277168,19.7771677 147.388,20.0536649 147.388,20.399 C147.388,20.7443351 147.278334,21.021999 147.059,21.232 C146.839666,21.4420011 146.543335,21.547 146.17,21.547 C145.796665,21.547 145.500334,21.4443344 145.281,21.239 C145.061666,21.0336656 144.952,20.7536684 144.952,20.399 C144.952,20.0489983 145.062832,19.7713344 145.2845,19.566 C145.506168,19.3606656 145.801331,19.258 146.17,19.258 Z M145.617,22.492 L146.744,22.492 L147.143,26.048 L147.143,29.66 L145.197,29.66 L145.197,26.048 L145.617,22.492 Z M157.685,16.64 L159.946,16.64 L159.946,27 L158.196,27 L158.196,19.174 L155.354,25.523 L153.786,25.523 L150.944,19.321 L150.944,27 L149.194,27 L149.194,16.64 L151.455,16.64 L154.605,23.626 L157.685,16.64 Z M164.447,19.244 C165.221671,19.244 165.849331,19.3408324 166.33,19.5345 C166.810669,19.7281676 167.168832,20.0466645 167.4045,20.49 C167.640168,20.9333356 167.758,21.5353295 167.758,22.296 L167.758,27 L166.239,27 L166.113,26.209 L166.015,26.209 C165.786332,26.5123349 165.491168,26.7421659 165.1295,26.8985 C164.767832,27.0548341 164.367669,27.133 163.929,27.133 C163.429664,27.133 162.998002,27.0443342 162.634,26.867 C162.269998,26.6896658 161.991168,26.438835 161.7975,26.1145 C161.603832,25.790165 161.507,25.4086689 161.507,24.97 C161.507,24.2606631 161.749664,23.7123353 162.235,23.325 C162.720336,22.9376647 163.487995,22.7020004 164.538,22.618 L165.966,22.485 L165.966,22.184 C165.966,21.7966647 165.904167,21.4921678 165.7805,21.2705 C165.656833,21.0488322 165.463168,20.8913338 165.1995,20.798 C164.935832,20.7046662 164.582336,20.658 164.139,20.658 C163.826332,20.658 163.488002,20.6848331 163.124,20.7385 C162.759998,20.7921669 162.410002,20.8726661 162.074,20.98 L162.074,19.573 C162.419335,19.4656661 162.805498,19.3840003 163.2325,19.328 C163.659502,19.2719997 164.064331,19.244 164.447,19.244 Z M164.496,25.831 C164.766668,25.831 165.029165,25.7796672 165.2835,25.677 C165.537835,25.5743328 165.765332,25.4110011 165.966,25.187 L165.966,23.563 L164.713,23.675 C164.232331,23.7216669 163.881168,23.8371657 163.6595,24.0215 C163.437832,24.2058343 163.327,24.463665 163.327,24.795 C163.327,25.1310017 163.426166,25.3876658 163.6245,25.565 C163.822834,25.7423342 164.113331,25.831 164.496,25.831 Z M163.936,18.32 L165.476,15.688 L167.436,15.688 L165.616,18.32 L163.936,18.32 Z M171.615,27.14 C170.746996,27.14 169.970003,27.0326677 169.284,26.818 L169.284,25.446 C170.026004,25.6700011 170.795996,25.782 171.594,25.782 C172.135336,25.782 172.530832,25.7015008 172.7805,25.5405 C173.030168,25.3794992 173.155,25.1450015 173.155,24.837 C173.155,24.5896654 173.089667,24.4006673 172.959,24.27 C172.828333,24.1393327 172.604335,24.0413337 172.287,23.976 L171.125,23.759 C170.42033,23.6189993 169.907002,23.3728351 169.585,23.0205 C169.262998,22.6681649 169.102,22.1956696 169.102,21.603 C169.102,21.1269976 169.226832,20.7128351 169.4765,20.3605 C169.726168,20.0081649 170.105331,19.734001 170.614,19.538 C171.122669,19.341999 171.752663,19.244 172.504,19.244 C173.20867,19.244 173.859664,19.3233325 174.457,19.482 L174.457,20.847 C173.854997,20.6836659 173.220337,20.602 172.553,20.602 C171.400328,20.602 170.824,20.9193302 170.824,21.554 C170.824,21.7780011 170.888166,21.9564993 171.0165,22.0895 C171.144834,22.2225007 171.362998,22.3216663 171.671,22.387 L172.833,22.604 C173.533003,22.7440007 174.047498,22.983165 174.3765,23.3215 C174.705502,23.659835 174.87,24.1416635 174.87,24.767 C174.87,25.2570025 174.744001,25.6793316 174.492,26.034 C174.239999,26.3886684 173.870169,26.6616657 173.3825,26.853 C172.894831,27.0443343 172.30567,27.14 171.615,27.14 Z M182.395,27.133 C181.806997,27.133 181.280836,27.0023346 180.8165,26.741 C180.352164,26.4796654 179.983501,26.0655028 179.7105,25.4985 C179.437499,24.9314972 179.301,24.211671 179.301,23.339 C179.301,21.9949933 179.645163,20.9753368 180.3335,20.28 C181.021837,19.5846632 182.026327,19.237 183.347,19.237 C183.659668,19.237 184.000331,19.2626664 184.369,19.314 L184.369,15.688 L186.203,15.688 L186.203,27 L184.656,27 L184.544,26.195 L184.446,26.195 C184.217332,26.4843348 183.928002,26.7129992 183.578,26.881 C183.227998,27.0490008 182.833669,27.133 182.395,27.133 Z M182.899,25.621 C183.183668,25.621 183.456665,25.5638339 183.718,25.4495 C183.979335,25.3351661 184.196332,25.1660011 184.369,24.942 L184.369,20.763 C184.056332,20.6929997 183.715669,20.658 183.347,20.658 C182.604996,20.658 182.053168,20.857498 181.6915,21.2565 C181.329832,21.655502 181.149,22.3006622 181.149,23.192 C181.149,24.0786711 181.300665,24.7051648 181.604,25.0715 C181.907335,25.4378352 182.338997,25.621 182.899,25.621 Z M194.225,23.731 L189.5,23.731 C189.523333,24.2256691 189.616666,24.6188319 189.78,24.9105 C189.943334,25.2021681 190.195332,25.4133327 190.536,25.544 C190.876668,25.6746673 191.331664,25.74 191.901,25.74 C192.461003,25.74 193.10033,25.6513342 193.819,25.474 L193.819,26.867 C193.08633,27.0490009 192.363004,27.14 191.649,27.14 C190.738995,27.14 189.99117,27.0023347 189.4055,26.727 C188.81983,26.4516653 188.382335,26.0235029 188.093,25.4425 C187.803665,24.8614971 187.659,24.1066713 187.659,23.178 C187.659,22.3239957 187.791999,21.6030029 188.058,21.015 C188.324001,20.4269971 188.708997,19.9848348 189.213,19.6885 C189.717003,19.3921652 190.325996,19.244 191.04,19.244 C192.080672,19.244 192.871664,19.57883 193.413,20.2485 C193.954336,20.91817 194.225,21.9133267 194.225,23.234 L194.225,23.731 Z M191.026,20.441 C190.531331,20.441 190.155668,20.6089983 189.899,20.945 C189.642332,21.2810017 189.507,21.8433294 189.493,22.632 L192.51,22.632 C192.496,21.8433294 192.366501,21.2810017 192.1215,20.945 C191.876499,20.6089983 191.511336,20.441 191.026,20.441 Z M205.061,25.453 L205.061,27 L198.53,27 L198.53,25.999 L201.442,22.275 C201.899336,21.6869971 202.223666,21.1865021 202.415,20.7735 C202.606334,20.3604979 202.702,19.9650019 202.702,19.587 C202.702,19.045664 202.541002,18.6501679 202.219,18.4005 C201.896998,18.1508321 201.388337,18.026 200.693,18.026 C200.286998,18.026 199.886835,18.0621663 199.4925,18.1345 C199.098165,18.2068337 198.735335,18.3059994 198.404,18.432 L198.404,16.899 C198.712002,16.7823328 199.094664,16.6878337 199.552,16.6155 C200.009336,16.5431663 200.450331,16.507 200.875,16.507 C202.093006,16.507 203.009997,16.7414977 203.626,17.2105 C204.242003,17.6795023 204.55,18.4086617 204.55,19.398 C204.55,19.9486694 204.436834,20.4899973 204.2105,21.022 C203.984166,21.5540027 203.593336,22.1699965 203.038,22.87 L200.987,25.453 L205.061,25.453 Z M207.287,27.105 C206.918331,27.105 206.623168,27.0023344 206.4015,26.797 C206.179832,26.5916656 206.069,26.3140018 206.069,25.964 C206.069,25.6139983 206.178666,25.3351677 206.398,25.1275 C206.617334,24.9198323 206.913665,24.816 207.287,24.816 C207.660335,24.816 207.956666,24.920999 208.176,25.131 C208.395334,25.3410011 208.505,25.6186649 208.505,25.964 C208.505,26.3093351 208.394168,26.5858323 208.1725,26.7935 C207.950832,27.0011677 207.655669,27.105 207.287,27.105 Z M213.692,27.133 C212.455327,27.133 211.50217,26.7025043 210.8325,25.8415 C210.16283,24.9804957 209.828,23.6400091 209.828,21.82 C209.828,19.9953242 210.161663,18.653671 210.829,17.795 C211.496337,16.936329 212.45066,16.507 213.692,16.507 C214.93334,16.507 215.886497,16.936329 216.5515,17.795 C217.216503,18.653671 217.549,19.9953242 217.549,21.82 C217.549,23.6400091 217.215337,24.9804957 216.548,25.8415 C215.880663,26.7025043 214.928673,27.133 213.692,27.133 Z M213.692,25.586 C214.130669,25.586 214.496999,25.4693345 214.791,25.236 C215.085001,25.0026655 215.311333,24.6106694 215.47,24.06 C215.628667,23.5093306 215.708,22.767338 215.708,21.834 C215.708,20.8913286 215.628667,20.1423361 215.47,19.587 C215.311333,19.0316639 215.085001,18.6373345 214.791,18.404 C214.496999,18.1706655 214.130669,18.054 213.692,18.054 C213.253331,18.054 212.887001,18.1706655 212.593,18.404 C212.298999,18.6373345 212.072667,19.0293306 211.914,19.58 C211.755333,20.1306694 211.676,20.872662 211.676,21.806 C211.676,22.7486714 211.754166,23.4976639 211.9105,24.053 C212.066834,24.6083361 212.291999,25.0026655 212.586,25.236 C212.880001,25.4693345 213.248664,25.586 213.692,25.586 Z M222.834,27.133 C221.597327,27.133 220.64417,26.7025043 219.9745,25.8415 C219.30483,24.9804957 218.97,23.6400091 218.97,21.82 C218.97,19.9953242 219.303663,18.653671 219.971,17.795 C220.638337,16.936329 221.59266,16.507 222.834,16.507 C224.07534,16.507 225.028497,16.936329 225.6935,17.795 C226.358503,18.653671 226.691,19.9953242 226.691,21.82 C226.691,23.6400091 226.357337,24.9804957 225.69,25.8415 C225.022663,26.7025043 224.070673,27.133 222.834,27.133 Z M222.834,25.586 C223.272669,25.586 223.638999,25.4693345 223.933,25.236 C224.227001,25.0026655 224.453333,24.6106694 224.612,24.06 C224.770667,23.5093306 224.85,22.767338 224.85,21.834 C224.85,20.8913286 224.770667,20.1423361 224.612,19.587 C224.453333,19.0316639 224.227001,18.6373345 223.933,18.404 C223.638999,18.1706655 223.272669,18.054 222.834,18.054 C222.395331,18.054 222.029001,18.1706655 221.735,18.404 C221.440999,18.6373345 221.214667,19.0293306 221.056,19.58 C220.897333,20.1306694 220.818,20.872662 220.818,21.806 C220.818,22.7486714 220.896166,23.4976639 221.0525,24.053 C221.208834,24.6083361 221.433999,25.0026655 221.728,25.236 C222.022001,25.4693345 222.390664,25.586 222.834,25.586 Z M231.976,27.133 C230.739327,27.133 229.78617,26.7025043 229.1165,25.8415 C228.44683,24.9804957 228.112,23.6400091 228.112,21.82 C228.112,19.9953242 228.445663,18.653671 229.113,17.795 C229.780337,16.936329 230.73466,16.507 231.976,16.507 C233.21734,16.507 234.170497,16.936329 234.8355,17.795 C235.500503,18.653671 235.833,19.9953242 235.833,21.82 C235.833,23.6400091 235.499337,24.9804957 234.832,25.8415 C234.164663,26.7025043 233.212673,27.133 231.976,27.133 Z M231.976,25.586 C232.414669,25.586 232.780999,25.4693345 233.075,25.236 C233.369001,25.0026655 233.595333,24.6106694 233.754,24.06 C233.912667,23.5093306 233.992,22.767338 233.992,21.834 C233.992,20.8913286 233.912667,20.1423361 233.754,19.587 C233.595333,19.0316639 233.369001,18.6373345 233.075,18.404 C232.780999,18.1706655 232.414669,18.054 231.976,18.054 C231.537331,18.054 231.171001,18.1706655 230.877,18.404 C230.582999,18.6373345 230.356667,19.0293306 230.198,19.58 C230.039333,20.1306694 229.96,20.872662 229.96,21.806 C229.96,22.7486714 230.038166,23.4976639 230.1945,24.053 C230.350834,24.6083361 230.575999,25.0026655 230.87,25.236 C231.164001,25.4693345 231.532664,25.586 231.976,25.586 Z M243.666,18.026 C242.793329,18.026 242.089836,18.1834984 241.5555,18.4985 C241.021164,18.8135016 240.644334,19.3163299 240.425,20.007 L244.457,20.007 L244.457,21.127 L240.215,21.127 C240.196333,21.3183343 240.187,21.5469987 240.187,21.813 C240.187,21.9530007 240.191667,22.1396655 240.201,22.373 L244.457,22.373 L244.457,23.493 L240.376,23.493 C240.576668,24.2490038 240.940664,24.7914984 241.468,25.1205 C241.995336,25.4495016 242.702329,25.614 243.589,25.614 C244.29367,25.614 245.01933,25.4996678 245.766,25.271 L245.766,26.783 C245.425332,26.8950006 245.053169,26.981333 244.6495,27.042 C244.245831,27.102667 243.838669,27.133 243.428,27.133 C240.581319,27.133 238.913002,25.9196788 238.423,23.493 L237.037,23.493 L237.037,22.373 L238.29,22.373 C238.280667,22.1396655 238.276,21.9623339 238.276,21.841 C238.276,21.570332 238.285333,21.3323344 238.304,21.127 L237.037,21.127 L237.037,20.007 L238.479,20.007 C238.763668,18.8356608 239.336496,17.9595029 240.1975,17.3785 C241.058504,16.7974971 242.17266,16.507 243.54,16.507 C244.30067,16.507 245.042663,16.5956658 245.766,16.773 L245.766,18.285 C245.08933,18.1123325 244.389337,18.026 243.666,18.026 Z M250.981,23.976 L250.561,20.371 L250.561,16.64 L252.507,16.64 L252.507,20.371 L252.108,23.976 L250.981,23.976 Z M251.534,27.105 C251.165331,27.105 250.870168,27.007001 250.6485,26.811 C250.426832,26.614999 250.316,26.351335 250.316,26.02 C250.316,25.6839983 250.425666,25.4168343 250.645,25.2185 C250.864334,25.0201657 251.160665,24.921 251.534,24.921 C251.907335,24.921 252.203666,25.0213323 252.423,25.222 C252.642334,25.4226677 252.752,25.688665 252.752,26.02 C252.752,26.3466683 252.641168,26.6091657 252.4195,26.8075 C252.197832,27.0058343 251.902669,27.105 251.534,27.105 Z" id="35%dedescuento:¡Másde2.000€!" fill="#FFFFFF" fill-rule="nonzero" opacity="0.9"></path>
            </g>
        </g>
    </g>
</svg>