<?xml version="1.0" encoding="UTF-8"?>
<svg width="278px" height="112px" viewBox="0 0 278 112" version="1.1" xmlns="http://www.w3.org/2000/svg" xmlns:xlink="http://www.w3.org/1999/xlink">
    <!-- Generator: Sketch 54.1 (76490) - https://sketchapp.com -->
    <title>Group 23</title>
    <desc>Created with Sketch.</desc>
    <g id="Black-Friday-Bootcamp-" stroke="none" stroke-width="1" fill="none" fill-rule="evenodd">
        <g id="03-Ficha-Bootcamp-01" transform="translate(-578.000000, -2076.000000)">
            <g id="Group-23" transform="translate(578.000000, 2076.000000)">
                <g id="Group-4">
                    <g id="Group-3">
                        <g id="Group-74">
                            <path d="M277.5,1.22031995 L0.5,1.22031995 L0.5,63.6076017 C0.5,70.217534 4.97027401,75.9908889 11.3696877,77.6457936 L139.000096,110.651343 L266.625098,77.6977617 C273.027067,76.0447327 277.5,70.2701598 277.5,63.6582223 L277.5,1.22031995 Z" id="Path" stroke="#000000" fill="#FFFFFF" opacity="0.432617188"></path>
                            <path d="M270,1.72031995 L7,1.72031995 L7,57.812223 C7,64.2898426 11.4437356,69.9216147 17.7437014,71.4282621 L138.500178,100.307376 L259.251579,71.4737237 C265.553829,69.9688392 270,64.3359888 270,57.8565567 L270,1.72031995 Z" id="Path" stroke="#FFFFFF" stroke-width="2" fill="#373737"></path>
                        </g>
                    </g>
                </g>
                <g id="Logo" transform="translate(34.000000, 26.000000)">
                    <g id="Group-Copy-3" transform="translate(10.800000, 0.000000)">
                        <path d="M6.11928006,31.8024 C5.09111492,31.8024 4.06548518,31.7293207 3.04236006,31.58316 C2.01923494,31.4369993 1.07424439,31.2228014 0.20736006,30.94056 L0.20736006,7.06608 L4.16880006,7.06608 L4.16880006,16.63704 L4.36536006,16.63704 C4.86936258,16.042317 5.49431633,15.5786417 6.24024006,15.246 C6.98616379,14.9133583 7.82279542,14.74704 8.75016006,14.74704 C9.94968606,14.74704 11.0282353,15.0317972 11.9858401,15.60132 C12.9434448,16.1708428 13.7044772,17.0679539 14.2689601,18.29268 C14.8334429,19.5174061 15.1156801,21.0621507 15.1156801,22.92696 C15.1156801,25.8703347 14.3647276,28.0853926 12.8628001,29.5722 C11.3608726,31.0590074 9.11305503,31.8024 6.11928006,31.8024 Z M6.45192006,28.74816 C8.02440792,28.74816 9.1961962,28.3147243 9.96732006,27.44784 C10.7384439,26.5809557 11.1240001,25.1798497 11.1240001,23.24448 C11.1240001,21.3292704 10.7964033,19.9810839 10.1412001,19.19988 C9.48599678,18.4186761 8.54856616,18.02808 7.32888006,18.02808 C6.72407704,18.02808 6.14196286,18.1389589 5.58252006,18.36072 C5.02307726,18.5824811 4.55184198,18.9151178 4.16880006,19.35864 L4.16880006,28.46088 C4.86432354,28.652401 5.62535593,28.74816 6.45192006,28.74816 Z M19.7424001,31.5 L19.7424001,7.06608 L23.7038401,7.06608 L23.7038401,31.5 L19.7424001,31.5 Z M34.6507202,14.74704 C36.3240085,14.74704 37.679755,14.9561979 38.7180002,15.37452 C39.7562454,15.7928421 40.5298776,16.4807952 41.0389202,17.4384 C41.5479627,18.3960048 41.8024802,19.6963118 41.8024802,21.33936 L41.8024802,31.5 L38.5214402,31.5 L38.2492802,29.79144 L38.0376002,29.79144 C37.5436777,30.4466433 36.9061241,30.9430783 36.1249202,31.28076 C35.3437163,31.6184417 34.4793649,31.78728 33.5318402,31.78728 C32.4532748,31.78728 31.5208841,31.5957619 30.7346402,31.21272 C29.9483962,30.8296781 29.3461223,30.2878835 28.9278002,29.58732 C28.5094781,28.8867565 28.3003202,28.0627247 28.3003202,27.1152 C28.3003202,25.5830323 28.8244749,24.3986442 29.8728002,23.562 C30.9211254,22.7253558 32.5792688,22.2163209 34.8472802,22.03488 L37.9317602,21.7476 L37.9317602,21.09744 C37.9317602,20.2607958 37.7982015,19.6030824 37.5310802,19.12428 C37.2639588,18.6454776 36.845643,18.305281 36.2761202,18.10368 C35.7065973,17.902079 34.943045,17.80128 33.9854402,17.80128 C33.3100768,17.80128 32.5792841,17.8592394 31.7930402,17.97516 C31.0067962,18.0910806 30.2508038,18.2649588 29.5250402,18.4968 L29.5250402,15.45768 C30.2709639,15.2258388 31.1050756,15.0494406 32.0274002,14.92848 C32.9497248,14.8075194 33.824156,14.74704 34.6507202,14.74704 Z M34.7565602,28.97496 C35.3412031,28.97496 35.9081974,28.8640811 36.4575602,28.64232 C37.0069229,28.4205589 37.498318,28.0677624 37.9317602,27.58392 L37.9317602,24.07608 L35.2252802,24.318 C34.187035,24.4188005 33.4285226,24.668278 32.9497202,25.06644 C32.4709178,25.464602 32.2315202,26.0215164 32.2315202,26.7372 C32.2315202,27.4629636 32.445718,28.0173581 32.8741202,28.4004 C33.3025223,28.7834419 33.929996,28.97496 34.7565602,28.97496 Z M54.4579202,31.8024 C51.7967869,31.8024 49.7757671,31.099327 48.3948002,29.69316 C47.0138333,28.286993 46.3233602,26.1475344 46.3233602,23.27472 C46.3233602,20.3817455 47.0591929,18.237247 48.5308802,16.84116 C50.0025676,15.445073 52.1546261,14.74704 54.9871202,14.74704 C56.2672866,14.74704 57.4617547,14.8780787 58.5705602,15.14016 L58.5705602,18.31536 C57.4718347,18.0835188 56.448725,17.9676 55.5012002,17.9676 C54.3218343,17.9676 53.359204,18.1439982 52.6132802,18.4968 C51.8673565,18.8496018 51.3129621,19.4115561 50.9500802,20.18268 C50.5871984,20.9538039 50.4057602,21.9693537 50.4057602,23.22936 C50.4057602,25.1344895 50.7862764,26.5028358 51.5473202,27.33444 C52.308364,28.1660442 53.4751124,28.58184 55.0476002,28.58184 C55.5616828,28.58184 56.0984374,28.5339605 56.6578802,28.4382 C57.217323,28.3424395 57.8548767,28.193761 58.5705602,27.99216 L58.5705602,31.16736 C57.2803138,31.5907221 55.9094475,31.8024 54.4579202,31.8024 Z M74.1139203,31.5 L69.1545603,24.63552 L66.8714403,24.63552 L66.8714403,31.5 L62.9100003,31.5 L62.9100003,7.06608 L66.8714403,7.06608 L66.8714403,21.43008 L69.1243203,21.43008 L73.6754403,15.00408 L77.9392803,15.00408 L72.4053603,22.9572 L78.4684803,31.5 L74.1139203,31.5 Z M83.4278404,26.78256 C84.2947247,26.78256 84.9574781,27.0521973 85.4161204,27.59148 C85.8747627,28.1307627 86.1040804,28.9346347 86.1040804,30.00312 C86.1040804,31.1320856 85.9201222,32.2660743 85.5522004,33.40512 C85.1842785,34.5441657 84.6828035,35.5823953 84.0477604,36.51984 L81.7646404,36.51984 C82.1779224,35.5723153 82.4979592,34.7180438 82.7247604,33.957 C82.9515615,33.1959562 83.0952001,32.4475237 83.1556804,31.71168 C82.4500768,31.6511997 81.8906424,31.4017222 81.4773604,30.96324 C81.0640783,30.5247578 80.8574404,29.9527235 80.8574404,29.24712 C80.8574404,28.4810362 81.089278,27.8787622 81.5529604,27.44028 C82.0166427,27.0017978 82.6415964,26.78256 83.4278404,26.78256 Z M83.4883204,19.72152 C82.6919964,19.72152 82.0544428,19.4997622 81.5756404,19.05624 C81.096838,18.6127178 80.8574404,18.0129638 80.8574404,17.25696 C80.8574404,16.5009562 81.094318,15.8986822 81.5680804,15.45012 C82.0418427,15.0015578 82.6819163,14.77728 83.4883204,14.77728 C84.2947244,14.77728 84.934798,15.0040777 85.4085604,15.45768 C85.8823227,15.9112823 86.1192004,16.5110363 86.1192004,17.25696 C86.1192004,18.0028837 85.8798028,18.6001178 85.4010004,19.04868 C84.922198,19.4972422 84.2846443,19.72152 83.4883204,19.72152 Z M108.82944,20.43216 L108.82944,23.59224 L108.16416,23.59224 C107.468637,23.59224 106.934402,23.7761982 106.56144,24.14412 C106.188479,24.5120418 106.002,25.0538364 106.002,25.76952 L106.002,32.81544 C106.002,34.6701693 105.495486,36.0737952 104.48244,37.02636 C103.469395,37.9789248 101.96497,38.4552 99.9691205,38.4552 C99.0921561,38.4552 98.2756843,38.3947206 97.5196805,38.27376 L97.5196805,35.23464 L99.3492005,35.23464 C100.256405,35.23464 100.931758,35.035562 101.37528,34.6374 C101.818803,34.239238 102.04056,33.6016844 102.04056,32.72472 L102.04056,25.87536 C102.04056,24.8270348 102.257278,23.9853632 102.69072,23.35032 C103.124163,22.7152768 103.804556,22.2667213 104.73192,22.00464 C103.804556,21.7526387 103.124163,21.3091232 102.69072,20.67408 C102.257278,20.0390368 102.04056,19.1973652 102.04056,18.14904 L102.04056,12.49416 C102.04056,11.6171956 101.818803,10.979642 101.37528,10.58148 C100.931758,10.183318 100.256405,9.98424 99.3492005,9.98424 L97.5196805,9.98424 L97.5196805,6.94512 C98.2756843,6.8241594 99.0921561,6.76368 99.9691205,6.76368 C101.96497,6.76368 103.469395,7.23995524 104.48244,8.19252 C105.495486,9.14508476 106.002,10.5487107 106.002,12.40344 L106.002,18.25488 C106.002,18.9705636 106.188479,19.5123582 106.56144,19.88028 C106.934402,20.2482018 107.468637,20.43216 108.16416,20.43216 L108.82944,20.43216 Z" id="black;}" fill="#FFFFFF" fill-rule="nonzero"></path>
                        <path d="M130.6476,8.35128 C129.317033,8.35128 128.336763,8.65367698 127.70676,9.25848 C127.076757,9.86328302 126.76176,10.861193 126.76176,12.25224 L126.76176,15.12504 L132.11424,15.12504 L132.11424,16.6824 L126.76176,16.6824 L126.76176,31.5 L124.94736,31.5 L124.94736,16.6824 L121.75704,16.6824 L121.75704,15.12504 L124.94736,15.12504 L124.94736,12.34296 C124.94736,10.4983108 125.416075,9.10728469 126.35352,8.16984 C127.290965,7.23239531 128.687031,6.76368 130.54176,6.76368 C131.297764,6.76368 132.023517,6.8241594 132.71904,6.94512 L132.71904,8.54784 C132.053757,8.41679934 131.363284,8.35128 130.6476,8.35128 Z M134.41248,15.12504 L135.95472,15.12504 L136.10592,17.33256 L136.242,17.33256 C136.816563,16.5866363 137.539796,16.009562 138.41172,15.60132 C139.283644,15.193078 140.193355,14.98896 141.14088,14.98896 C141.634802,14.98896 142.063198,15.0242396 142.42608,15.0948 L142.42608,16.81848 C142.073278,16.7579997 141.619683,16.72776 141.06528,16.72776 C140.168156,16.72776 139.273564,16.9444778 138.38148,17.37792 C137.489396,17.8113622 136.771203,18.431276 136.22688,19.23768 L136.22688,31.5 L134.41248,31.5 L134.41248,15.12504 Z M145.02672,31.5 L145.02672,15.12504 L146.85624,15.12504 L146.85624,31.5 L145.02672,31.5 Z M145.93392,11.26944 C145.510558,11.26944 145.177921,11.1585611 144.936,10.9368 C144.694079,10.7150389 144.57312,10.407602 144.57312,10.01448 C144.57312,9.62135803 144.694079,9.30636118 144.936,9.06948 C145.177921,8.83259882 145.510558,8.71416 145.93392,8.71416 C146.357282,8.71416 146.689919,8.83259882 146.93184,9.06948 C147.173761,9.30636118 147.29472,9.62135803 147.29472,10.01448 C147.29472,10.407602 147.176281,10.7150389 146.9394,10.9368 C146.702519,11.1585611 146.367362,11.26944 145.93392,11.26944 Z M157.15296,31.77216 C155.22767,31.77216 153.682926,31.1220065 152.51868,29.82168 C151.354434,28.5213535 150.77232,26.4650541 150.77232,23.65272 C150.77232,17.8062908 153.468693,14.88312 158.86152,14.88312 C159.778805,14.88312 160.731355,14.9637592 161.7192,15.12504 L161.7192,7.06608 L163.5336,7.06608 L163.5336,31.5 L161.97624,31.5 L161.84016,29.71584 L161.70408,29.71584 C161.189997,30.3408031 160.539844,30.8397581 159.7536,31.21272 C158.967356,31.5856819 158.100485,31.77216 157.15296,31.77216 Z M157.4856,30.16944 C158.322244,30.16944 159.113516,29.9829619 159.85944,29.61 C160.605364,29.2370381 161.225278,28.6725638 161.7192,27.91656 L161.7192,16.74288 C161.326078,16.6521595 160.864923,16.5765603 160.33572,16.51608 C159.806517,16.4555997 159.300002,16.42536 158.81616,16.42536 C156.73967,16.42536 155.192405,16.9873144 154.17432,18.11124 C153.156235,19.2351656 152.6472,21.0218278 152.6472,23.47128 C152.6472,25.9106522 153.068036,27.6368349 153.90972,28.64988 C154.751404,29.6629251 155.943352,30.16944 157.4856,30.16944 Z M173.01384,14.88312 C174.354487,14.88312 175.458236,15.0595182 176.32512,15.41232 C177.192004,15.7651218 177.849718,16.3547959 178.29828,17.18136 C178.746842,18.0079241 178.97112,19.121753 178.97112,20.52288 L178.97112,31.5 L177.42888,31.5 L177.2928,29.62512 L177.1416,29.62512 C176.597277,30.3004834 175.901764,30.8246381 175.05504,31.1976 C174.208316,31.5705619 173.296085,31.75704 172.31832,31.75704 C171.320395,31.75704 170.456044,31.5831617 169.72524,31.2354 C168.994436,30.8876383 168.432482,30.3861633 168.03936,29.73096 C167.646238,29.0757567 167.44968,28.2895246 167.44968,27.37224 C167.44968,25.9610329 167.908315,24.8673639 168.8256,24.0912 C169.742885,23.3150361 171.18935,22.8211211 173.16504,22.60944 L177.18696,22.15584 L177.18696,20.4624 C177.18696,19.4241548 177.025682,18.6127229 176.70312,18.02808 C176.380558,17.4434371 175.904283,17.0326812 175.27428,16.7958 C174.644277,16.5589188 173.830325,16.44048 172.8324,16.44048 C172.157037,16.44048 171.436324,16.5009594 170.67024,16.62192 C169.904156,16.7428806 169.153204,16.9293587 168.41736,17.18136 L168.41736,15.60888 C169.062483,15.3770388 169.795796,15.1981206 170.61732,15.07212 C171.438844,14.9461194 172.237676,14.88312 173.01384,14.88312 Z M172.6812,30.26016 C173.527924,30.26016 174.341876,30.0787218 175.12308,29.71584 C175.904284,29.3529582 176.592237,28.7884838 177.18696,28.0224 L177.18696,23.51664 L173.25576,23.95512 C171.874793,24.1063208 170.871843,24.4439974 170.24688,24.96816 C169.621917,25.4923226 169.30944,26.2382352 169.30944,27.20592 C169.30944,28.203845 169.591677,28.9623574 170.15616,29.48148 C170.720643,30.0006026 171.562314,30.26016 172.6812,30.26016 Z M194.59008,15.12504 L196.44984,15.12504 L187.58952,38.1528 L185.74488,38.1528 L188.3304,31.5 L187.78608,31.5 L181.48104,15.12504 L183.43152,15.12504 L188.98056,30.00312 L194.59008,15.12504 Z" id="friday" fill="#9DE7AC" fill-rule="nonzero"></path>
                    </g>
                </g>
            </g>
        </g>
    </g>
</svg>