<?xml version="1.0" encoding="UTF-8"?>
<svg width="23px" height="25px" viewBox="0 0 23 25" version="1.1" xmlns="http://www.w3.org/2000/svg" xmlns:xlink="http://www.w3.org/1999/xlink">
    <!-- Generator: Sketch 50.2 (55047) - http://www.bohemiancoding.com/sketch -->
    <title>accessibilty</title>
    <desc>Created with Sketch.</desc>
    <defs></defs>
    <g id="Componentes" stroke="none" stroke-width="1" fill="none" fill-rule="evenodd">
        <g id="Logos-de-cursos" transform="translate(-172.000000, -959.000000)" fill="#FFFFFF">
            <g id="Group-10" transform="translate(172.000000, 952.000000)">
                <path d="M0,7 L22.0895858,7 L20.016399,29.4556843 L11.0446558,32 L2.06962178,29.4556843 L0,7 Z M18.6336,17.6912 L19.7648,16.56 L17.7856,14.58 L18.916,13.4496 L17.2192,11.7528 L9.628,19.3456 C9.1504,19.132 8.632,19.0144 8.0936,19.0016 L8.0016,19 C5.8464,19 4.052,20.752 4.0016,22.9048 C3.976,23.9736 4.368,24.9872 5.1056,25.7608 C5.8432,26.5344 6.8376,26.9744 7.9056,26.9992 L8.0024,27 C10.1544,27 11.9472,25.2488 11.9984,23.0952 C12.0168,22.3256 11.8112,21.5872 11.4232,20.9432 L14.3912,17.9744 L16.3704,19.9552 L17.5024,18.824 L15.5232,16.8432 L16.6544,15.7112 L18.6336,17.6912 Z M8,24.6 C7.1168,24.6 6.3992,23.8832 6.4,23 C6.4,22.1168 7.1168,21.4 7.9992,21.4 C8.8832,21.4 9.5992,22.1168 9.6,23 C9.5992,23.884 8.8832,24.6 8,24.6 Z" id="accessibilty"></path>
            </g>
        </g>
    </g>
</svg>