<?xml version="1.0" encoding="UTF-8"?>
<svg width="25px" height="23px" viewBox="0 0 25 23" version="1.1" xmlns="http://www.w3.org/2000/svg" xmlns:xlink="http://www.w3.org/1999/xlink">
    <!-- Generator: Sketch 50.2 (55047) - http://www.bohemiancoding.com/sketch -->
    <title>apirestful</title>
    <desc>Created with Sketch.</desc>
    <defs></defs>
    <g id="Componentes" stroke="none" stroke-width="1" fill="none" fill-rule="evenodd">
        <g id="Logos-de-cursos" transform="translate(-2070.000000, -1426.000000)" fill="#323232">
            <g id="Group-38" transform="translate(2070.000000, 1421.000000)">
                <path d="M14.5122438,20.9890959 L11.9901615,17.3155585 L11.2497337,17.2933842 L11.2497337,20.9890959 L7.95637255,20.9890959 L7.95637255,10.3380548 C8.54768938,10.2050085 9.19041542,10.0990658 9.88456996,10.0202236 C10.5787245,9.94138132 11.2420178,9.90196078 11.8744697,9.90196078 C13.6227108,9.90196078 14.9390137,10.206238 15.823418,10.8148016 C16.7078223,11.4233651 17.1500178,12.3534433 17.1500178,13.6050639 C17.1500178,14.3392823 16.9777672,14.9700108 16.6332609,15.4972683 C16.2887546,16.0245258 15.7977119,16.4409052 15.1601181,16.7464189 L18.1372549,20.9890959 L14.5122438,20.9890959 Z M0,15.4461058 L0.544662309,15.4461058 C1.20399366,15.4461058 1.64593015,15.2653649 1.87048504,14.9038778 C2.09503992,14.5423906 2.20731567,14.1156413 2.20731567,13.623617 C2.20731567,13.0512623 2.1356503,12.4387516 1.99231739,11.7860664 L1.74865268,10.6865484 C1.58620872,9.96357399 1.50498796,9.28077511 1.50498796,8.63813123 C1.50498796,7.69424803 1.82270446,6.93363016 2.458147,6.35625479 C3.09358954,5.77887943 3.85563138,5.49019608 4.74429538,5.49019608 L4.90196078,5.49019608 L4.90196078,7.16206594 L4.70129572,7.16206594 C4.32863017,7.16206594 3.9918029,7.31770392 3.69080381,7.62898455 C3.38980471,7.94026519 3.23930742,8.40717913 3.23930742,9.02974039 C3.23930742,9.24060791 3.25841819,9.42134879 3.29664029,9.57196845 L3.41130604,10.0840727 L3.62630432,11.3793953 C3.78874828,12.3333198 3.86996904,12.9809747 3.86996904,13.3223792 C3.86996904,13.8846926 3.70513867,14.4495079 3.375473,15.0168419 C3.04580732,15.584176 2.5035393,16.0033944 1.74865268,16.2745098 C2.5035393,16.5556665 3.04580732,16.9799055 3.375473,17.5472396 C3.70513867,18.1145736 3.86996904,18.6793889 3.86996904,19.2417023 C3.86996904,19.5730655 3.78874828,20.2207203 3.62630432,21.1846862 L3.41130604,22.4800088 L3.29664029,22.992113 C3.25841819,23.1628153 3.23930742,23.3435562 3.23930742,23.5343411 C3.23930742,24.1468611 3.38980471,24.6112647 3.69080381,24.927566 C3.9918029,25.2438673 4.32863017,25.4020156 4.70129572,25.4020156 L4.90196078,25.4020156 L4.90196078,27.0588235 L4.74429538,27.0588235 C3.85563138,27.0588235 3.09358954,26.7726505 2.458147,26.2002958 C1.82270446,25.6279411 1.50498796,24.8648129 1.50498796,23.9108884 C1.50498796,23.2682445 1.58620872,22.5904662 1.74865268,21.8775331 L1.99231739,20.7780151 C2.1356503,20.1152886 2.20731567,19.4977573 2.20731567,18.9254026 C2.20731567,18.4434197 2.09503992,18.0191806 1.87048504,17.6526728 C1.64593015,17.286165 1.20399366,17.1029138 0.544662309,17.1029138 L0,17.1029138 L0,15.4461058 Z M24.754902,16.5938903 L24.2102397,16.5938903 C23.5509083,16.5938903 23.1089718,16.7705235 22.8844169,17.123795 C22.659862,17.4770666 22.5475863,17.8941171 22.5475863,18.3749589 C22.5475863,18.9343056 22.6192517,19.5328956 22.7625846,20.1707471 L23.0062493,21.245276 C23.1686932,21.9518192 23.249914,22.6190999 23.249914,23.2471382 C23.249914,24.1695696 22.9321975,24.9129007 22.296755,25.4771539 C21.6613124,26.041407 20.8992706,26.3235294 20.0106066,26.3235294 L19.8529412,26.3235294 L19.8529412,24.6896566 L20.0536062,24.6896566 C20.4262718,24.6896566 20.7630991,24.5375558 21.0640982,24.2333498 C21.3650973,23.9291437 21.5155945,23.4728414 21.5155945,22.8644293 C21.5155945,22.6583542 21.4964838,22.4817211 21.4582617,22.3345246 L21.3435959,21.834059 L21.1285976,20.5681756 C20.9661537,19.6359312 20.8849329,19.0029958 20.8849329,18.6693504 C20.8849329,18.1198169 21.0497633,17.5678383 21.379429,17.0133982 C21.7090946,16.4589581 22.2513627,16.0492674 23.0062493,15.7843137 C22.2513627,15.509547 21.7090946,15.0949497 21.379429,14.5405096 C21.0497633,13.9860695 20.8849329,13.434091 20.8849329,12.8845575 C20.8849329,12.5607252 20.9661537,11.9277898 21.1285976,10.9857323 L21.3435959,9.71984883 L21.4582617,9.21938328 C21.4964838,9.0525606 21.5155945,8.87592747 21.5155945,8.68947858 C21.5155945,8.09087954 21.3650973,7.63703052 21.0640982,7.3279179 C20.7630991,7.01880528 20.4262718,6.86425129 20.0536062,6.86425129 L19.8529412,6.86425129 L19.8529412,5.24509804 L20.0106066,5.24509804 C20.8992706,5.24509804 21.6613124,5.52476717 22.296755,6.08411381 C22.9321975,6.64346046 23.249914,7.3892448 23.249914,8.32148921 C23.249914,8.94952755 23.1686932,9.6119018 23.0062493,10.3086318 L22.7625846,11.3831608 C22.6192517,12.0308253 22.5475863,12.6343219 22.5475863,13.1936685 C22.5475863,13.6646973 22.659862,14.0792945 22.8844169,14.4374726 C23.1089718,14.7956507 23.5509083,14.9747371 24.2102397,14.9747371 L24.754902,14.9747371 L24.754902,16.5938903 Z M11.2497337,14.9133459 C11.6045238,14.952767 11.9464541,14.9724773 12.2755348,14.9724773 C12.8565678,14.9724773 13.2923361,14.8665346 13.5828526,14.654646 C13.8733691,14.4427575 14.0186252,14.0929003 14.0186252,13.6050639 C14.0186252,12.6835952 13.4324591,12.2228677 12.2601092,12.2228677 C11.9207447,12.2228677 11.5839563,12.2524331 11.2497337,12.3115648 L11.2497337,14.9133459 Z" id="apirestful"></path>
            </g>
        </g>
    </g>
</svg>