<?xml version="1.0" encoding="UTF-8"?>
<svg width="25px" height="25px" viewBox="0 0 25 25" version="1.1" xmlns="http://www.w3.org/2000/svg" xmlns:xlink="http://www.w3.org/1999/xlink">
    <!-- Generator: Sketch 50.2 (55047) - http://www.bohemiancoding.com/sketch -->
    <title>atomic-design</title>
    <desc>Created with Sketch.</desc>
    <defs></defs>
    <g id="Componentes" stroke="none" stroke-width="1" fill="none" fill-rule="evenodd">
        <g id="Logos-de-cursos" transform="translate(-2065.000000, -476.000000)" fill="#323232">
            <path d="M2077.49992,494.74926 C2074.04866,494.74926 2071.25086,491.951461 2071.25086,488.500202 C2071.25086,485.048943 2074.04866,482.251145 2077.49992,482.251145 C2080.95118,482.251145 2083.74898,485.048943 2083.74898,488.500202 C2083.74898,491.951461 2080.95118,494.74926 2077.49992,494.74926 Z M2083.74898,477.676517 C2084.12259,477.892221 2084.2506,478.369954 2084.03489,478.743563 C2083.81919,479.117173 2083.34146,479.245181 2082.96785,479.029478 C2077.73731,476.009626 2071.04905,477.80174 2068.0292,483.032277 C2067.57753,483.814586 2067.22808,484.638573 2066.98354,485.490357 C2066.1368,488.43976 2066.58174,491.619785 2068.18127,494.227737 C2069.12396,495.764744 2070.43449,497.048604 2072.032,497.970927 C2077.26253,500.990779 2083.95079,499.198665 2086.97065,493.968128 C2087.98142,492.217415 2088.47586,490.263785 2088.43544,488.28767 C2088.41655,487.363814 2088.28058,486.445099 2088.03165,485.554756 C2087.91548,485.139282 2088.15812,484.708304 2088.5736,484.59214 C2088.98907,484.475976 2089.42005,484.718614 2089.53621,485.134087 C2089.8205,486.15088 2089.97579,487.200193 2089.99738,488.255724 C2090.04359,490.514889 2089.47793,492.749915 2088.32361,494.74926 C2084.87235,500.727016 2077.22862,502.775147 2071.25086,499.323888 C2069.42662,498.270662 2067.92741,496.801959 2066.84953,495.044527 C2065.0219,492.064653 2064.51364,488.432079 2065.48194,485.059261 C2065.76152,484.085422 2066.16083,483.143864 2066.67624,482.251145 C2070.1275,476.273388 2077.77122,474.225258 2083.74898,477.676517 Z M2086.28766,484.594541 C2084.66988,484.594541 2083.35841,483.283073 2083.35841,481.665295 C2083.35841,480.047518 2084.66988,478.73605 2086.28766,478.73605 C2087.90544,478.73605 2089.21691,480.047518 2089.21691,481.665295 C2089.21691,483.283073 2087.90544,484.594541 2086.28766,484.594541 Z" id="atomic-design"></path>
        </g>
    </g>
</svg>