<?xml version="1.0" encoding="UTF-8"?>
<svg width="38px" height="29px" viewBox="0 0 38 29" version="1.1" xmlns="http://www.w3.org/2000/svg" xmlns:xlink="http://www.w3.org/1999/xlink">
    <!-- Generator: Sketch 50.2 (55047) - http://www.bohemiancoding.com/sketch -->
    <title>balance-color</title>
    <desc>Created with Sketch.</desc>
    <defs>
        <linearGradient x1="0%" y1="0%" x2="101.999998%" y2="100.999999%" id="linearGradient-1">
            <stop stop-color="#3023AE" offset="0%"></stop>
            <stop stop-color="#C86DD7" offset="100%"></stop>
        </linearGradient>
    </defs>
    <g id="05-Legal" stroke="none" stroke-width="1" fill="none" fill-rule="evenodd">
        <g id="05-E-Legal-Iconos" transform="translate(-701.000000, -132.000000)" fill="url(#linearGradient-1)" fill-rule="nonzero">
            <g id="Group-5" transform="translate(701.000000, 132.000000)">
                <path d="M35.7908182,18.7647059 L31.7610909,6.82352941 L36.2727273,6.82352941 L36.2727273,3.41176471 L20.7272727,3.41176471 L20.7272727,0 L17.2727273,0 L17.2727273,3.41176471 L1.72727273,3.41176471 L1.72727273,6.82352941 L6.23890909,6.82352941 L2.20918182,18.7647059 L0,18.7647059 L0,20.4705882 C0,25.1737059 3.87427273,29 8.63636364,29 C13.3984545,29 17.2727273,25.1737059 17.2727273,20.4705882 L17.2727273,18.7647059 L15.0635455,18.7647059 L11.0338182,6.82352941 L17.2727273,6.82352941 L17.2727273,8.52941176 L20.7272727,8.52941176 L20.7272727,6.82352941 L26.9661818,6.82352941 L22.9364545,18.7647059 L20.7272727,18.7647059 L20.7272727,20.4705882 C20.7272727,25.1737059 24.6015455,29 29.3636364,29 C34.1257273,29 38,25.1737059 38,20.4705882 L38,18.7647059 L35.7908182,18.7647059 Z M8.63636364,25.5882353 C6.384,25.5882353 4.46327273,24.1621176 3.75163636,22.1764706 L13.5210909,22.1764706 C12.8094545,24.1621176 10.8887273,25.5882353 8.63636364,25.5882353 Z M5.852,18.7647059 L8.63636364,10.5116471 L11.4207273,18.7647059 L5.852,18.7647059 Z M29.3636364,10.5116471 L32.148,18.7647059 L26.5775455,18.7647059 L29.3636364,10.5116471 Z M29.3636364,25.5882353 C27.1112727,25.5882353 25.1905455,24.1621176 24.4789091,22.1764706 L34.2483636,22.1764706 C33.5367273,24.1621176 31.616,25.5882353 29.3636364,25.5882353 Z" id="balance-color"></path>
            </g>
        </g>
    </g>
</svg>