<?xml version="1.0" encoding="UTF-8"?>
<svg width="29px" height="40px" viewBox="0 0 29 40" version="1.1" xmlns="http://www.w3.org/2000/svg" xmlns:xlink="http://www.w3.org/1999/xlink">
    <!-- Generator: Sketch 50.2 (55047) - http://www.bohemiancoding.com/sketch -->
    <title>Group 4</title>
    <desc>Created with Sketch.</desc>
    <defs></defs>
    <g id="Componentes" stroke="none" stroke-width="1" fill="none" fill-rule="evenodd">
        <g id="Iconos-horario" transform="translate(-400.000000, -143.000000)" fill-rule="nonzero">
            <g id="Group-4" transform="translate(400.000000, 143.000000)">
                <path d="M26.8,6.0097561 L22.8,6.0097561 L22.8,2.11707317 C22.8,1.04074634 21.904,0.170731707 20.8,0.170731707 L8.8,0.170731707 C7.696,0.170731707 6.8,1.04074634 6.8,2.11707317 L6.8,6.0097561 L2.8,6.0097561 C1.696,6.0097561 0.8,6.87977073 0.8,7.95609756 L0.8,35.204878 C0.8,37.353639 2.594,39.097561 4.8,39.097561 L24.8,39.097561 C27.006,39.097561 28.8,37.353639 28.8,35.204878 L28.8,7.95609756 C28.8,6.87977073 27.904,6.0097561 26.8,6.0097561 Z M4.8,35.204878 L4.8,9.90243902 L8.8,9.90243902 C9.904,9.90243902 10.8,9.03242439 10.8,7.95609756 L10.8,4.06341463 L18.8,4.06341463 L18.8,7.95609756 C18.8,9.03242439 19.696,9.90243902 20.8,9.90243902 L24.8,9.90243902 L24.802,35.204878 L4.8,35.204878 Z" id="Shape" fill="#8D8D8D"></path>
                <polygon id="Shape" fill="#AD76BD" points="16.8 11.8487805 6.8 23.5268293 12.8 23.5268293 12.8 31.3121951 22.8 19.6341463 16.8 19.6341463"></polygon>
            </g>
        </g>
    </g>
</svg>