<?xml version="1.0" encoding="UTF-8"?>
<svg width="44px" height="36px" viewBox="0 0 44 36" version="1.1" xmlns="http://www.w3.org/2000/svg" xmlns:xlink="http://www.w3.org/1999/xlink">
    <!-- Generator: Sketch 51.3 (57544) - http://www.bohemiancoding.com/sketch -->
    <title>Combined Shape</title>
    <desc>Created with Sketch.</desc>
    <defs></defs>
    <g id="01-Ficha-bootcamp" stroke="none" stroke-width="1" fill="none" fill-rule="evenodd">
        <g id="01-E-Ficha-Bootcamp" transform="translate(-681.000000, -337.000000)" fill="#FFFFFF">
            <g id="Módulo-1" transform="translate(-545.000000, 19.000000)">
                <g id="Módulo-5">
                    <path d="M1229.7,339.103448 C1227.65655,339.103448 1226,337.436095 1226,335.37931 C1226,333.322526 1227.65655,331.655172 1229.7,331.655172 L1257.37154,331.655172 C1258.97858,331.541919 1260.24932,330.196188 1260.24932,328.551724 C1260.24932,326.90726 1258.97858,325.561529 1257.37154,325.455063 L1242.57154,325.448276 C1242.43656,325.440566 1242.29939,325.448276 1242.16043,325.448276 C1240.11698,325.448276 1238.46043,323.780923 1238.46043,321.724138 C1238.46043,319.667353 1240.11698,318 1242.16043,318 C1242.29939,318 1242.43656,318.00771 1242.57154,318.022729 L1257.37154,318 C1263.06646,318.112225 1267.64932,322.793291 1267.64932,328.551724 C1267.64932,331.130109 1266.73051,333.492495 1265.20448,335.325275 C1267.70279,337.260759 1269.29376,340.18111 1269.29376,343.448276 C1269.29376,348.95248 1264.77822,353.472345 1259.01599,353.956984 L1241.74932,354 C1241.54791,353.984997 1241.34202,354 1241.13265,354 C1238.74862,354 1236.81599,352.054754 1236.81599,349.655172 C1236.81599,347.25559 1238.74862,345.310345 1241.13265,345.310345 C1241.34202,345.310345 1241.54791,345.325348 1241.74932,345.354345 L1245.86043,345.310345 L1257.37154,345.36592 C1257.43948,345.308059 1257.50803,345.310345 1257.5771,345.310345 C1259.27998,345.310345 1260.66043,343.920884 1260.66043,342.206897 C1260.66043,340.492909 1259.27998,339.103448 1257.5771,339.103448 C1257.50803,339.103448 1257.43948,339.105734 1257.37154,339.110235 L1229.7,339.103448 Z" id="Combined-Shape"></path>
                </g>
            </g>
        </g>
    </g>
</svg>