<?xml version="1.0" encoding="UTF-8"?>
<svg width="40px" height="40px" viewBox="0 0 40 40" version="1.1" xmlns="http://www.w3.org/2000/svg" xmlns:xlink="http://www.w3.org/1999/xlink">
    <!-- Generator: Sketch 51.3 (57544) - http://www.bohemiancoding.com/sketch -->
    <title>Combined Shape</title>
    <desc>Created with Sketch.</desc>
    <defs></defs>
    <g id="00-Home" stroke="none" stroke-width="1" fill="none" fill-rule="evenodd">
        <g id="00-E-Home-1920" transform="translate(-330.000000, -1421.000000)" fill="#FFFFFF">
            <g id="Group-28" transform="translate(-1703.000000, -249.000000)">
                <g id="Módulo-3" transform="translate(1399.000000, 1239.000000)">
                    <g id="Contenido" transform="translate(632.000000, 425.000000)">
                        <g id="Group-15">
                            <g id="Group-16">
                                <path d="M22,46 C10.954305,46 2,37.045695 2,26 C2,14.954305 10.954305,6 22,6 C33.045695,6 42,14.954305 42,26 C42,37.045695 33.045695,46 22,46 Z M9.222029,27.3103448 L25.8401288,27.314304 C25.8809306,27.3116784 25.9220934,27.3103448 25.9635748,27.3103448 C26.9862354,27.3103448 27.8152657,28.1208638 27.8152657,29.1206897 C27.8152657,30.1205155 26.9862354,30.9310345 25.9635748,30.9310345 C25.9220934,30.9310345 25.8809306,30.9297009 25.8401288,30.9634536 L18.9271497,30.9310345 L16.4582286,30.9567011 C16.337275,30.9397864 16.2136281,30.9310345 16.0878904,30.9310345 C14.6561655,30.9310345 13.4955232,32.0657611 13.4955232,33.4655172 C13.4955232,34.8652734 14.6561655,36 16.0878904,36 C16.2136281,36 16.337275,35.9912481 16.4582286,36 L26.8276972,35.9749076 C30.2881988,35.6922012 33,33.0556132 33,29.8448276 C33,27.9389809 32.0445429,26.2354429 30.5441849,25.1064107 C31.4606442,24.0372887 32.0124316,22.6592302 32.0124316,21.1551724 C32.0124316,17.7960862 29.2601995,15.0654648 25.8401288,15 L16.9520128,15.0132587 C16.8709497,15.0044977 16.7885724,15 16.7051207,15 C15.4779279,15 14.4830917,15.9726228 14.4830917,17.1724138 C14.4830917,18.3722048 15.4779279,19.3448276 16.7051207,19.3448276 C16.7885724,19.3448276 16.8709497,19.3403299 16.9520128,19.3448276 L25.8401288,19.3487868 C26.805234,19.410892 27.5683736,20.1959017 27.5683736,21.1551724 C27.5683736,22.1144431 26.805234,22.8994529 25.8401288,22.9655172 L9.222029,22.9655172 C7.99483627,22.9655172 7,23.93814 7,25.137931 C7,26.337722 7.99483627,27.3103448 9.222029,27.3103448 Z" id="Combined-Shape"></path>
                            </g>
                        </g>
                    </g>
                </g>
            </g>
        </g>
    </g>
</svg>