<?xml version="1.0" encoding="UTF-8"?>
<svg width="34px" height="34px" viewBox="0 0 34 34" version="1.1" xmlns="http://www.w3.org/2000/svg" xmlns:xlink="http://www.w3.org/1999/xlink">
    <!-- Generator: Sketch 50.2 (55047) - http://www.bohemiancoding.com/sketch -->
    <title>building</title>
    <desc>Created with Sketch.</desc>
    <defs></defs>
    <g id="06-Empresas" stroke="none" stroke-width="1" fill="none" fill-rule="evenodd">
        <g id="06-E-Empresas" transform="translate(-272.000000, -623.000000)" fill="#585858" fill-rule="nonzero">
            <g id="Group-5" transform="translate(92.000000, 620.000000)">
                <g id="building-5" transform="translate(177.000000, 0.000000)">
                    <g id="Line_Icons" transform="translate(3.280000, 2.640000)">
                        <g id="Group">
                            <path d="M31.16,0.63836 L1.64,0.63836 C0.73472,0.63836 0,1.37472 0,2.27836 L0,31.79836 C0,32.70528 0.73472,33.43836 1.64,33.43836 L31.16,33.43836 C32.06528,33.43836 32.8,32.70528 32.8,31.79836 L32.8,2.27836 C32.8,1.37308 32.06528,0.63836 31.16,0.63836 Z M14.76,30.15836 L14.76,26.87836 L18.04,26.87836 L18.04,30.15836 L14.76,30.15836 Z M29.52,30.15836 L21.32,30.15836 L21.32,25.23836 C21.32,24.33472 20.58528,23.59836 19.68,23.59836 L13.12,23.59836 C12.21472,23.59836 11.48,24.33472 11.48,25.23836 L11.48,30.15836 L3.28,30.15836 L3.28,3.91836 L29.52,3.91836 L29.52,30.15836 Z M11.48,8.83836 L11.48,12.11836 L14.76,12.11836 L14.76,8.83836 L11.48,8.83836 Z M18.04,8.83836 L18.04,12.11836 L21.32,12.11836 L21.32,8.83836 L18.04,8.83836 Z M24.6,8.83836 L24.6,12.11836 L27.88,12.11836 L27.88,8.83836 L24.6,8.83836 Z M11.48,15.39836 L11.48,18.67836 L14.76,18.67836 L14.76,15.39836 L11.48,15.39836 Z M4.92,8.83836 L4.92,12.11836 L8.2,12.11836 L8.2,8.83836 L4.92,8.83836 Z M4.92,15.39836 L4.92,18.67836 L8.2,18.67836 L8.2,15.39836 L4.92,15.39836 Z M18.04,15.39836 L18.04,18.67836 L21.32,18.67836 L21.32,15.39836 L18.04,15.39836 Z M24.6,15.39836 L24.6,18.67836 L27.88,18.67836 L27.88,15.39836 L24.6,15.39836 Z" id="building"></path>
                        </g>
                    </g>
                </g>
            </g>
        </g>
    </g>
</svg>