<?xml version="1.0" encoding="UTF-8"?>
<svg width="30px" height="37px" viewBox="0 0 30 37" version="1.1" xmlns="http://www.w3.org/2000/svg" xmlns:xlink="http://www.w3.org/1999/xlink">
    <!-- Generator: Sketch 51.3 (57544) - http://www.bohemiancoding.com/sketch -->
    <title>Shape</title>
    <desc>Created with Sketch.</desc>
    <defs></defs>
    <g id="01-Ficha-bootcamp" stroke="none" stroke-width="1" fill="none" fill-rule="evenodd">
        <g id="01-E-Ficha-Bootcamp" transform="translate(-865.000000, -2820.000000)" fill="#585858" fill-rule="nonzero">
            <g id="Módulo-4" transform="translate(-6.000000, 2660.000000)">
                <g id="Group-22" transform="translate(92.000000, 153.000000)">
                    <g id="business-man" transform="translate(772.000000, 0.000000)">
                        <g id="Line_Icons" transform="translate(7.333333, 7.303052)">
                            <g id="Group">
                                <path d="M14.6666667,21.9091556 C6.02983333,21.9091556 0,26.4133129 0,32.8637335 L0,36.5152594 L29.3333333,36.5152594 L29.3333333,32.8637335 C29.3333333,26.4133129 23.3035,21.9091556 14.6666667,21.9091556 Z M14.047,25.5789392 L11.6086667,32.8637335 L3.66666667,32.8637335 C3.66666667,28.7046454 7.90716667,25.765167 14.047,25.5789392 Z M17.721,32.8637335 L15.2826667,25.5789392 C21.4261667,25.7633413 25.6666667,28.7028196 25.6666667,32.8637335 L17.721,32.8637335 Z M14.6666667,18.2576297 C19.7211667,18.2576297 23.8333333,14.1624434 23.8333333,9.12881485 C23.8333333,4.09518634 19.7211667,-6.39488462e-14 14.6666667,-6.39488462e-14 C9.61216667,-6.39488462e-14 5.5,4.09518634 5.5,9.12881485 C5.5,14.1624434 9.61216667,18.2576297 14.6666667,18.2576297 Z M14.6666667,3.65152594 C17.699,3.65152594 20.1666667,6.1090029 20.1666667,9.12881485 C20.1666667,12.1486268 17.699,14.6061038 14.6666667,14.6061038 C11.6343333,14.6061038 9.16666667,12.1486268 9.16666667,9.12881485 C9.16666667,6.1090029 11.6343333,3.65152594 14.6666667,3.65152594 Z" id="Shape"></path>
                            </g>
                        </g>
                    </g>
                </g>
            </g>
        </g>
    </g>
</svg>