<?xml version="1.0" encoding="UTF-8"?>
<svg width="22px" height="21px" viewBox="0 0 22 21" version="1.1" xmlns="http://www.w3.org/2000/svg" xmlns:xlink="http://www.w3.org/1999/xlink">
    <!-- Generator: Sketch 51.3 (57544) - http://www.bohemiancoding.com/sketch -->
    <title>Combined Shape</title>
    <desc>Created with Sketch.</desc>
    <defs></defs>
    <g id="00-Home" stroke="none" stroke-width="1" fill="none" fill-rule="evenodd">
        <g id="00-E-Home-1920" transform="translate(-361.000000, -1572.000000)" fill="#FFFFFF" fill-rule="nonzero">
            <g id="Group-28" transform="translate(-1703.000000, -249.000000)">
                <g id="Módulo-3" transform="translate(1399.000000, 1239.000000)">
                    <g id="Contenido" transform="translate(632.000000, 425.000000)">
                        <g id="Group-33" transform="translate(2.000000, 150.000000)">
                            <g id="Group-25" transform="translate(0.000000, 6.000000)">
                                <g id="calendar-1" transform="translate(30.000000, 0.000000)">
                                    <g id="Line_Icons" transform="translate(1.000000, 1.000000)">
                                        <g id="Group">
                                            <path d="M20,2 C21.104,2 22,2.895 22,4 L22,19 C22,20.104 21.104,21 20,21 L2,21 C0.896,21 0,20.104 0,19 L0,4 C0,2.895 0.896,2 2,2 L4,2 L4,4 L2,4 L2,19 L20,19 L20,4 L17,4 L17,6 L15,6 L15,0 L17,0 L17,2 L20,2 Z M7,4 L7,6 L5,6 L5,0 L7,0 L7,2 L14,2 L14,4 L7,4 Z M4,8 L8,8 L8,12 L4,12 L4,8 Z M9,8 L13,8 L13,12 L9,12 L9,8 Z M14,8 L18,8 L18,12 L14,12 L14,8 Z M4,13 L8,13 L8,17 L4,17 L4,13 Z M9,13 L13,13 L13,17 L9,17 L9,13 Z" id="Combined-Shape"></path>
                                        </g>
                                    </g>
                                </g>
                            </g>
                        </g>
                    </g>
                </g>
            </g>
        </g>
    </g>
</svg>