<?xml version="1.0" encoding="UTF-8"?>
<svg width="24px" height="24px" viewBox="0 0 24 24" version="1.1" xmlns="http://www.w3.org/2000/svg" xmlns:xlink="http://www.w3.org/1999/xlink">
    <!-- Generator: Sketch 51.3 (57544) - http://www.bohemiancoding.com/sketch -->
    <title>calendar-clock</title>
    <desc>Created with Sketch.</desc>
    <defs></defs>
    <g id="01-Ficha-bootcamp" stroke="none" stroke-width="1" fill="none" fill-rule="evenodd">
        <g id="01-E-Ficha-Bootcamp" transform="translate(-515.000000, -582.000000)" fill="#FFFFFF" fill-rule="nonzero">
            <g id="Módulo-1" transform="translate(-545.000000, 19.000000)">
                <g id="Group-33" transform="translate(1008.000000, 555.000000)">
                    <g id="Group-30" transform="translate(0.000000, 8.000000)">
                        <g id="calendar-timeout" transform="translate(52.000000, 0.000000)">
                            <g id="Line_Icons">
                                <g id="Group">
                                    <g id="calendar-clock">
                                        <path d="M20,18 L16,18 L16,13 L18,13 L18,16 L20,16 L20,18 Z M8,18 L8,20 L2,20 C0.897,20 0,19.103 0,18 L0,5 C0,3.897 0.897,3 2,3 L4,3 L4,5 L5,5 L5,0 L7,0 L7,3 L14,3 L14,5 L15,5 L15,0 L17,0 L17,3 L18,3 C19.103,3 20,3.898 20,5 L20,8 L2,8 L2,18 L8,18 Z M17,24 C13.14,24 10,20.86 10,17 C10,13.14 13.14,10 17,10 C20.86,10 24,13.14 24,17 C24,20.86 20.86,24 17,24 Z M17,12 C14.243,12 12,14.243 12,17 C12,19.757 14.243,22 17,22 C19.757,22 22,19.757 22,17 C22,14.243 19.757,12 17,12 Z"></path>
                                    </g>
                                </g>
                            </g>
                        </g>
                    </g>
                </g>
            </g>
        </g>
    </g>
</svg>