<?xml version="1.0" encoding="UTF-8"?>
<svg width="31px" height="28px" viewBox="0 0 31 28" version="1.1" xmlns="http://www.w3.org/2000/svg" xmlns:xlink="http://www.w3.org/1999/xlink">
    <!-- Generator: Sketch 51.3 (57544) - http://www.bohemiancoding.com/sketch -->
    <title>Shape</title>
    <desc>Created with Sketch.</desc>
    <defs></defs>
    <g id="00-Home" stroke="none" stroke-width="1" fill="none" fill-rule="evenodd">
        <g id="00-E-Home-1920" transform="translate(-492.000000, -1568.000000)" fill="#FFFFFF" fill-rule="nonzero">
            <g id="Group-28" transform="translate(-1703.000000, -249.000000)">
                <g id="Módulo-3" transform="translate(1399.000000, 1239.000000)">
                    <g id="Contenido" transform="translate(632.000000, 425.000000)">
                        <g id="Group-33" transform="translate(2.000000, 150.000000)">
                            <g id="Group-17" transform="translate(141.000000, 0.000000)">
                                <g id="chair-barber" transform="translate(20.000000, 0.000000)">
                                    <g id="Line_Icons" transform="translate(1.000000, 3.000000)">
                                        <path d="M31,9.8 L25.3636364,9.8 L25.3636364,12.6 L26.7727273,12.6 L26.7727273,15.4 L25.3636364,15.4 C25.3636364,14.7966 24.9761364,14.2618 24.3998182,14.0714 C24.3702273,14.0616 24.2081818,14.0098 23.9545455,13.9328 L23.9545455,4.2 C23.9545455,0 18.4548636,0 15.5,0 C12.5451364,0 7.04545455,0 7.04545455,4.2 L7.04545455,13.9328 C6.79181818,14.0098 6.62977273,14.0616 6.60018182,14.0714 C6.02386364,14.2632 5.63636364,14.7966 5.63636364,15.4 L4.22727273,15.4 L4.22727273,12.6 L5.63636364,12.6 L5.63636364,9.8 L0,9.8 L0,12.6 L1.40909091,12.6 L1.40909091,16.8 C1.40909091,17.5728 2.03895455,18.2 2.81818182,18.2 L5.63636364,18.2 L5.63636364,19.6 C5.63636364,20.3728 6.26622727,21 7.04545455,21 L14.0909091,21 L14.0909091,25.2 L9.86363636,25.2 L9.86363636,28 L21.1363636,28 L21.1363636,25.2 L16.9090909,25.2 L16.9090909,21 L23.9545455,21 C24.7337727,21 25.3636364,20.3728 25.3636364,19.6 L25.3636364,18.2 L28.1818182,18.2 C28.9610455,18.2 29.5909091,17.5728 29.5909091,16.8 L29.5909091,12.6 L31,12.6 L31,9.8 Z M15.5,2.8 C17.4699091,2.8 21.1363636,2.8 21.1363636,4.2 L21.1363636,5.6 L9.86363636,5.6 L9.86363636,4.2 C9.86363636,2.8 13.5300909,2.8 15.5,2.8 Z M9.86363636,8.4 L21.1363636,8.4 L21.1363636,13.2314 C19.5398636,12.901 17.5319091,12.6 15.5,12.6 C13.4680909,12.6 11.4601364,12.901 9.86363636,13.2314 L9.86363636,8.4 Z M22.5454545,18.2 L8.45454545,18.2 L8.45454545,16.4472 C9.89040909,16.0566 12.7184545,15.4 15.5,15.4 C18.2815455,15.4 21.1095909,16.0566 22.5454545,16.4472 L22.5454545,18.2 Z" id="Shape"></path>
                                    </g>
                                </g>
                            </g>
                        </g>
                    </g>
                </g>
            </g>
        </g>
    </g>
</svg>