<?xml version="1.0" encoding="UTF-8"?>
<svg width="37px" height="37px" viewBox="0 0 37 37" version="1.1" xmlns="http://www.w3.org/2000/svg" xmlns:xlink="http://www.w3.org/1999/xlink">
    <!-- Generator: Sketch 50.2 (55047) - http://www.bohemiancoding.com/sketch -->
    <title>chevron-left-circle</title>
    <desc>Created with Sketch.</desc>
    <defs></defs>
    <g id="00-Home" stroke="none" stroke-width="1" fill="none" fill-rule="evenodd">
        <g id="00-E-Home-2560" transform="translate(-649.000000, -5532.000000)" fill="#4E4E4E" fill-rule="nonzero">
            <g id="Group-49" transform="translate(-1360.000000, -250.000000)">
                <g id="Group-28">
                    <g id="Group-45" transform="translate(2009.000000, 5479.000000)">
                        <g id="Group-41" transform="translate(0.000000, 221.000000)">
                            <g id="Group-38" transform="translate(0.000000, 82.000000)">
                                <g id="Group-18-Copy" transform="translate(18.500000, 18.500000) scale(-1, 1) translate(-18.500000, -18.500000) ">
                                    <path d="M18.5,36.5 C8.5588745,36.5 0.5,28.4411255 0.5,18.5 C0.5,8.5588745 8.5588745,0.5 18.5,0.5 C28.4411255,0.5 36.5,8.5588745 36.5,18.5 C36.5,28.4411255 28.4411255,36.5 18.5,36.5 Z M18.5,35.5 C27.8888407,35.5 35.5,27.8888407 35.5,18.5 C35.5,9.11115925 27.8888407,1.5 18.5,1.5 C9.11115925,1.5 1.5,9.11115925 1.5,18.5 C1.5,27.8888407 9.11115925,35.5 18.5,35.5 Z M16,23.59 L20.3265857,19 L16,14.41 L17.3319838,13 L23,19 L17.3319838,25 L16,23.59 Z" id="chevron-left-circle"></path>
                                </g>
                            </g>
                        </g>
                    </g>
                </g>
            </g>
        </g>
    </g>
</svg>