<?xml version="1.0" encoding="UTF-8"?>
<svg width="25px" height="25px" viewBox="0 0 25 25" version="1.1" xmlns="http://www.w3.org/2000/svg" xmlns:xlink="http://www.w3.org/1999/xlink">
    <!-- Generator: Sketch 50.2 (55047) - http://www.bohemiancoding.com/sketch -->
    <title>chrome-tools</title>
    <desc>Created with Sketch.</desc>
    <defs></defs>
    <g id="Componentes" stroke="none" stroke-width="1" fill="none" fill-rule="evenodd">
        <g id="Logos-de-cursos" transform="translate(-2065.000000, -577.000000)" fill="#323232">
            <g id="Group-41" transform="translate(2065.000000, 573.000000)">
                <path d="M7.82848361,16.5 C7.82848361,13.9241803 9.92407787,11.8285861 12.5,11.8285861 C15.0759221,11.8285861 17.1715164,13.9241803 17.1715164,16.5 C17.1715164,19.0759221 15.0759221,21.1715164 12.5,21.1715164 C9.92407787,21.1715164 7.82848361,19.0759221 7.82848361,16.5 Z M23.2569672,10.333709 C23.2205943,10.3977459 23.1525615,10.4373975 23.0784836,10.4373975 L13.0467213,10.4373975 C13.0406762,10.4373975 13.0351434,10.4369877 13.0290984,10.4365779 C12.8502049,10.4209016 12.6721311,10.4133197 12.5,10.4133197 C9.72315574,10.4133197 7.29938525,12.2907787 6.60584016,14.9792008 C6.58504098,15.060041 6.51731557,15.120082 6.43493852,15.13125 C6.42571721,15.1324795 6.4164959,15.1328893 6.40727459,15.1328893 C6.33483607,15.1328893 6.26680328,15.0944672 6.22961066,15.0304303 L2.7107582,8.93565574 C2.66875,8.86280738 2.6755123,8.77161885 2.72838115,8.70553279 C5.11659836,5.71506148 8.67817623,4 12.5,4 C14.7085041,4 16.8788934,4.58401639 18.7768443,5.68821721 C20.6182377,6.76004098 22.1668033,8.29487705 23.2550205,10.1275615 C23.292623,10.1907787 23.2930328,10.2696721 23.2569672,10.333709 Z M14.3470287,22.4362705 C14.3982582,22.5022541 14.4043033,22.5923156 14.3627049,22.6643443 L10.8430328,28.7610656 C10.8058402,28.8251025 10.7378074,28.8635246 10.6653689,28.8635246 C10.6553279,28.8635246 10.6452869,28.8628074 10.6349385,28.861168 C7.70440574,28.4229508 5.01444672,26.9428279 3.06055328,24.6939549 C1.0869877,22.4226434 0,19.5126025 0,16.5 C0,14.3523566 0.554713115,12.2331967 1.60409836,10.3713115 C1.64016393,10.3072746 1.70778689,10.2672131 1.78145492,10.2668033 L1.78258197,10.2668033 C1.85543033,10.2668033 1.92346311,10.3060451 1.95993852,10.3692623 L6.97961066,19.0635246 C6.98237705,19.06875 6.9852459,19.073873 6.98760246,19.0790984 C7.98862705,21.2099385 10.1522541,22.5867828 12.5,22.5867828 C13.0527664,22.5867828 13.6010246,22.5118852 14.130123,22.3646516 C14.2109631,22.3422131 14.296209,22.3705943 14.3470287,22.4362705 Z M23.9485656,11.8045082 C24.0329918,11.8045082 24.108709,11.8561475 24.1395492,11.9346311 C24.7106557,13.388627 25,14.9246926 25,16.5 C25,19.8139344 23.7160861,22.936168 21.3851434,25.2914959 C19.0561475,27.644877 15.9508197,28.961168 12.6417008,28.9980533 L12.6396516,28.9980533 C12.5668033,28.9980533 12.4995902,28.9596311 12.4628074,28.8968238 C12.4255123,28.8330943 12.4252049,28.7547131 12.4619877,28.6906762 L17.4904713,19.9816598 C17.4932377,19.9764344 17.4965164,19.9716189 17.4996926,19.9668033 C18.2108607,18.9446721 18.5866803,17.7455943 18.5866803,16.5 C18.5866803,14.8543033 17.9375,13.311373 16.7584016,12.1555328 C16.6987705,12.097541 16.6804303,12.0090164 16.7119877,11.9317623 C16.7432377,11.854918 16.8184426,11.8045082 16.9017418,11.8045082 L23.9485656,11.8045082 Z" id="chrome-tools"></path>
            </g>
        </g>
    </g>
</svg>