<?xml version="1.0" encoding="UTF-8"?>
<svg width="26px" height="26px" viewBox="0 0 26 26" version="1.1" xmlns="http://www.w3.org/2000/svg" xmlns:xlink="http://www.w3.org/1999/xlink">
    <!-- Generator: Sketch 51.3 (57544) - http://www.bohemiancoding.com/sketch -->
    <title>Shape</title>
    <desc>Created with Sketch.</desc>
    <defs></defs>
    <g id="01-Ficha-bootcamp" stroke="none" stroke-width="1" fill="none" fill-rule="evenodd">
        <g id="01-E-Ficha-Bootcamp" transform="translate(-441.000000, -7365.000000)" fill="#FFFFFF" fill-rule="nonzero">
            <g id="Módulo-8" transform="translate(0.000000, 6912.000000)">
                <g id="Group-45" transform="translate(0.000000, 32.000000)">
                    <g id="Group-39" transform="translate(0.000000, 278.000000)">
                        <g id="Group-38">
                            <g id="projector-screen-programming" transform="translate(441.000000, 143.000000)">
                                <g id="Line_Icons">
                                    <g id="Group">
                                        <path d="M24.7,6.84210526 C25.4189,6.84210526 26,6.22905263 26,5.47368421 L26,1.36842105 C26,0.613052632 25.4189,0 24.7,0 L1.3,0 C0.5811,0 0,0.613052632 0,1.36842105 L0,5.47368421 C0,6.22905263 0.5811,6.84210526 1.3,6.84210526 L1.3,20.5263158 L0,20.5263158 L0,23.2631579 L11.7,23.2631579 L11.7,26 L14.3,26 L14.3,23.2631579 L26,23.2631579 L26,20.5263158 L24.7,20.5263158 L24.7,6.84210526 Z M2.6,2.73684211 L23.4,2.73684211 L23.4,4.10526316 L2.6,4.10526316 L2.6,2.73684211 Z M22.1,20.5263158 L3.9,20.5263158 L3.9,6.84210526 L22.1,6.84210526 L22.1,20.5263158 Z M12.6191,16.822 L9.6382,13.6842105 L12.6191,10.5464211 L10.7809,8.61147368 L5.9618,13.6842105 L10.7809,18.7569474 L12.6191,16.822 Z M15.2191,18.7569474 L20.0382,13.6842105 L15.2191,8.61147368 L13.3809,10.5464211 L16.3618,13.6842105 L13.3809,16.822 L15.2191,18.7569474 Z" id="Shape"></path>
                                    </g>
                                </g>
                            </g>
                        </g>
                    </g>
                </g>
            </g>
        </g>
    </g>
</svg>