<?xml version="1.0" encoding="UTF-8"?>
<svg width="38px" height="47px" viewBox="0 0 38 47" version="1.1" xmlns="http://www.w3.org/2000/svg" xmlns:xlink="http://www.w3.org/1999/xlink">
    <!-- Generator: Sketch 51.3 (57544) - http://www.bohemiancoding.com/sketch -->
    <title>Group</title>
    <desc>Created with Sketch.</desc>
    <defs></defs>
    <g id="01-Ficha-bootcamp" stroke="none" stroke-width="1" fill="none" fill-rule="evenodd" opacity="0.720870536">
        <g id="01-E-Ficha-Bootcamp" transform="translate(-455.000000, -7547.000000)" fill-rule="nonzero">
            <g id="Módulo-8" transform="translate(0.000000, 6912.000000)">
                <g id="Group-45" transform="translate(0.000000, 32.000000)">
                    <g id="Group-39" transform="translate(0.000000, 278.000000)">
                        <g id="Group-21" transform="translate(455.000000, 317.000000)">
                            <g id="Group-36" transform="translate(0.000000, 8.000000)">
                                <g id="signal-coffee">
                                    <g id="Line_Icons">
                                        <g id="Group">
                                            <path d="M30.1119442,23.5 L10.5269398,23.5 C8.36475536,23.5 6.60993897,25.2585833 6.60993897,27.4166667 L6.60993897,35.25 C6.60993897,41.730125 11.8802636,47 18.3609416,47 C23.4647937,47 27.8087477,43.7237083 29.426469,39.1666667 L30.1119442,39.1666667 C34.4304377,39.1666667 37.9459459,35.6534167 37.9459459,31.3333333 C37.9459459,27.0152083 34.4304377,23.5 30.1119442,23.5 Z M18.3609416,43.0833333 C14.0424481,43.0833333 10.5269398,39.5700833 10.5269398,35.25 L10.5269398,27.4166667 L26.1949433,27.4166667 L26.1949433,35.25 C26.1949433,39.5700833 22.679435,43.0833333 18.3609416,43.0833333 Z M30.1119442,35.25 L30.1119442,27.4166667 C32.2741287,27.4166667 34.0289451,29.17525 34.0289451,31.3333333 C34.0289451,33.4953333 32.2741287,35.25 30.1119442,35.25 Z" id="Shape" fill="#616161"></path>
                                            <path d="M11.4376425,18.535625 L14.2069622,21.3047083 C16.4964492,19.0134583 20.2234755,19.0154167 22.514921,21.3047083 L25.2842406,18.5336667 C21.4632063,14.7188333 15.2528014,14.7207917 11.4376425,18.535625 Z" id="Shape" fill="#5DB250"></path>
                                            <path d="M18.3609416,11.75 C22.0213789,11.75 25.4644227,13.177625 28.0535602,15.7665417 L30.8228799,12.9974583 C27.4953876,9.66829167 23.0672181,7.83333333 18.3609416,7.83333333 C13.6527065,7.83333333 9.22649555,9.66829167 5.89900331,12.9974583 L8.66832293,15.7665417 C11.2574605,13.177625 14.6985458,11.75 18.3609416,11.75 Z" id="Shape" fill="#73C3B2"></path>
                                            <path d="M18.3609416,3.91666667 C24.1150159,3.91666667 29.5243941,6.15895833 33.5921995,10.228375 L36.3615191,7.45929167 C31.5534005,2.65158333 25.1628136,0 18.3609416,0 C18.3609416,0 18.3609416,0 18.3589831,0 C11.5590696,0 5.16652415,2.64766667 0.35840558,7.455375 L3.1277252,10.2244583 C7.1955306,6.15895833 12.6049088,3.91666667 18.3609416,3.91666667 Z" id="Shape" fill="#8C40A3"></path>
                                        </g>
                                    </g>
                                </g>
                            </g>
                        </g>
                    </g>
                </g>
            </g>
        </g>
    </g>
</svg>