<?xml version="1.0" encoding="UTF-8"?>
<svg width="24px" height="30px" viewBox="0 0 24 30" version="1.1" xmlns="http://www.w3.org/2000/svg" xmlns:xlink="http://www.w3.org/1999/xlink">
    <!-- Generator: Sketch 51.3 (57544) - http://www.bohemiancoding.com/sketch -->
    <title>Combined Shape</title>
    <desc>Created with Sketch.</desc>
    <defs></defs>
    <g id="01-Ficha-bootcamp" stroke="none" stroke-width="1" fill="none" fill-rule="evenodd">
        <g id="01-E-Ficha-Bootcamp" transform="translate(-111.000000, -7361.000000)" fill="#FFFFFF" fill-rule="nonzero">
            <g id="Módulo-8" transform="translate(0.000000, 6912.000000)">
                <g id="Group-45" transform="translate(0.000000, 32.000000)">
                    <g id="Group-39" transform="translate(0.000000, 278.000000)">
                        <g id="Group-38">
                            <g id="Group-37" transform="translate(92.000000, 123.000000)">
                                <g id="Group-36" transform="translate(19.000000, 16.000000)">
                                    <g id="signal-coffee">
                                        <g id="Line_Icons">
                                            <g id="Group">
                                                <path d="M19.0451613,15 L6.65806452,15 C5.29052903,15 4.18064516,16.1225 4.18064516,17.5 L4.18064516,22.5 C4.18064516,26.63625 7.5140129,30 11.6129032,30 C14.8409806,30 17.5884387,27.90875 18.6116129,25 L19.0451613,25 C21.7765161,25 24,22.7575 24,20 C24,17.24375 21.7765161,15 19.0451613,15 Z M11.6129032,27.5 C8.88154839,27.5 6.65806452,25.2575 6.65806452,22.5 L6.65806452,17.5 L16.5677419,17.5 L16.5677419,22.5 C16.5677419,25.2575 14.3442581,27.5 11.6129032,27.5 Z M19.0451613,22.5 L19.0451613,17.5 C20.4126968,17.5 21.5225806,18.6225 21.5225806,20 C21.5225806,21.38 20.4126968,22.5 19.0451613,22.5 Z M7.23406452,11.83125 C9.64707097,9.39625 13.5750194,9.395 15.9917419,11.83 L14.2402065,13.59875 C12.7909161,12.1375 10.4336516,12.13625 8.9856,13.59875 L7.23406452,11.83125 Z M11.6129032,7.5 C9.29651613,7.5 7.12010323,8.41125 5.48252903,10.06375 L3.73099355,8.29625 C5.83556129,6.17125 8.63504516,5 11.6129032,5 C14.5895226,5 17.3902452,6.17125 19.4948129,8.29625 L17.7432774,10.06375 C16.1057032,8.41125 13.9280516,7.5 11.6129032,7.5 Z M11.6129032,2.5 C7.97233548,2.5 4.55101935,3.93125 1.97821935,6.52625 L0.226683871,4.75875 C3.26771613,1.69 7.31086452,0 11.6116645,0 C11.6129032,0 11.6129032,0 11.6129032,0 C15.9149419,0 19.9568516,1.6925 22.9978839,4.76125 L21.2463484,6.52875 C18.6735484,3.93125 15.2522323,2.5 11.6129032,2.5 Z" id="Combined-Shape"></path>
                                            </g>
                                        </g>
                                    </g>
                                </g>
                            </g>
                        </g>
                    </g>
                </g>
            </g>
        </g>
    </g>
</svg>