<?xml version="1.0" encoding="UTF-8"?>
<svg width="23px" height="30px" viewBox="0 0 23 30" version="1.1" xmlns="http://www.w3.org/2000/svg" xmlns:xlink="http://www.w3.org/1999/xlink">
    <!-- Generator: Sketch 51.3 (57544) - http://www.bohemiancoding.com/sketch -->
    <title>Shape</title>
    <desc>Created with Sketch.</desc>
    <defs></defs>
    <g id="01-Ficha-bootcamp" stroke="none" stroke-width="1" fill="none" fill-rule="evenodd">
        <g id="01-E-Ficha-Bootcamp" transform="translate(-225.000000, -8843.000000)" fill="#585858" fill-rule="nonzero">
            <g id="Módulo-10" transform="translate(-275.000000, 8591.000000)">
                <g id="Group-49" transform="translate(365.000000, 239.000000)">
                    <g id="location-pin-question-mark-1" transform="translate(129.000000, 10.000000)">
                        <g id="Line_Icons" transform="translate(6.000000, 3.000000)">
                            <g id="Group">
                                <path d="M20.125,0 L2.875,0 C1.2894375,0 0,1.28285714 0,2.85714286 L0,18.5714286 C0,20.1471429 1.2894375,21.4285714 2.875,21.4285714 L6.373875,21.4285714 L11.5,29.9185714 L16.626125,21.4285714 L20.125,21.4285714 C21.7105625,21.4285714 23,20.1471429 23,18.5714286 L23,2.85714286 C23,1.28285714 21.7105625,0 20.125,0 Z M20.125,18.5714286 L14.998875,18.5714286 L11.5,24.3671429 L8.001125,18.5714286 L2.875,18.5714286 L2.875,2.85714286 L20.125,2.85714286 L20.125,18.5714286 Z M11.5,7.14285714 C12.2920625,7.14285714 12.9375,7.78285714 12.9375,8.57142857 C12.9375,9.36 12.2920625,10 11.5,10 L10.0625,10 L10.0625,12.8571429 L11.5,12.8571429 C13.877625,12.8571429 15.8125,10.9342857 15.8125,8.57142857 C15.8125,6.20857143 13.877625,4.28571429 11.5,4.28571429 C9.122375,4.28571429 7.1875,6.20857143 7.1875,8.57142857 L10.0625,8.57142857 C10.0625,7.78285714 10.7079375,7.14285714 11.5,7.14285714 Z M11.5,17.5 C12.4923867,17.5 13.296875,16.7005085 13.296875,15.7142857 C13.296875,14.7280629 12.4923867,13.9285714 11.5,13.9285714 C10.5076133,13.9285714 9.703125,14.7280629 9.703125,15.7142857 C9.703125,16.7005085 10.5076133,17.5 11.5,17.5 Z" id="Shape"></path>
                            </g>
                        </g>
                    </g>
                </g>
            </g>
        </g>
    </g>
</svg>