<?xml version="1.0" encoding="UTF-8"?>
<svg width="38px" height="34px" viewBox="0 0 38 34" version="1.1" xmlns="http://www.w3.org/2000/svg" xmlns:xlink="http://www.w3.org/1999/xlink">
    <!-- Generator: Sketch 51.3 (57544) - http://www.bohemiancoding.com/sketch -->
    <title>Shape</title>
    <desc>Created with Sketch.</desc>
    <defs></defs>
    <g id="01-Ficha-bootcamp" stroke="none" stroke-width="1" fill="none" fill-rule="evenodd">
        <g id="01-E-Ficha-Bootcamp" transform="translate(-853.000000, -8833.000000)" fill="#585858" fill-rule="nonzero">
            <g id="Módulo-10" transform="translate(-275.000000, 8591.000000)">
                <g id="Group-49" transform="translate(365.000000, 239.000000)">
                    <g id="chat-bubbles-circle" transform="translate(762.000000, 0.000000)">
                        <g id="Line_Icons" transform="translate(1.000000, 3.000000)">
                            <g id="Group">
                                <path d="M37.996763,34 L24.453,34 C18.6522296,34 13.9326296,29.6431429 13.9326296,24.2857143 C13.9326296,18.9282857 18.6522296,14.5714286 24.453,14.5714286 C30.2537704,14.5714286 34.9733704,18.9282857 34.9733704,24.2857143 C34.9733704,25.6165714 34.6739444,26.9377143 34.1009889,28.153619 L37.996763,34 Z M24.453,17.8095238 C20.4374556,17.8095238 17.1696667,20.7157143 17.1696667,24.2857143 C17.1696667,27.8557143 20.4374556,30.7619048 24.453,30.7619048 L31.9499778,30.7619048 L30.2926148,28.2734286 L30.8396741,27.3894286 C31.4352889,26.4260952 31.7363333,25.3834286 31.7363333,24.2857143 C31.7363333,20.7157143 28.4685444,17.8095238 24.453,17.8095238 Z M10.6955926,25.9047619 L0.314414815,25.9047619 L6.42432222,19.7944762 C4.97898519,17.7431429 4.22151852,15.4052381 4.22151852,12.952381 C4.22151852,5.8107619 10.7570963,-8.01136935e-13 18.7881852,-8.01136935e-13 C26.0197259,-8.01136935e-13 32.2218889,4.794 33.2156593,11.153619 L30.0174667,11.6539048 C29.2680926,6.85504762 24.4400519,3.23809524 18.7881852,3.23809524 C12.5407037,3.23809524 7.45855556,7.59495238 7.45855556,12.952381 C7.45855556,15.0895238 8.26781481,17.1262857 9.7956963,18.8392381 L10.815363,19.9806667 L8.12862222,22.6666667 L10.6955926,22.6666667 L10.6955926,25.9047619 Z" id="Shape"></path>
                            </g>
                        </g>
                    </g>
                </g>
            </g>
        </g>
    </g>
</svg>