<?xml version="1.0" encoding="UTF-8"?>
<svg width="30px" height="38px" viewBox="0 0 30 38" version="1.1" xmlns="http://www.w3.org/2000/svg" xmlns:xlink="http://www.w3.org/1999/xlink">
    <!-- Generator: Sketch 50.2 (55047) - http://www.bohemiancoding.com/sketch -->
    <title>Group</title>
    <desc>Created with Sketch.</desc>
    <defs>
        <linearGradient x1="0%" y1="0%" x2="101.999998%" y2="100.999999%" id="linearGradient-1">
            <stop stop-color="#3023AE" offset="0%"></stop>
            <stop stop-color="#C86DD7" offset="100%"></stop>
        </linearGradient>
    </defs>
    <g id="05-Legal" stroke="none" stroke-width="1" fill="none" fill-rule="evenodd">
        <g id="05-E-Legal-Iconos" transform="translate(-708.000000, -481.000000)" fill="url(#linearGradient-1)" fill-rule="nonzero">
            <g id="Group" transform="translate(708.000000, 481.000000)">
                <path d="M21.322314,26.2304103 C21.6727273,25.3660315 21.8760331,24.4272798 21.8760331,23.4372934 C21.8760331,19.3368656 18.538843,16 14.4380165,16 C10.3371901,16 7,19.3368656 7,23.4372934 C7,27.5393739 10.3371901,30.8745868 14.4380165,30.8745868 C15.4264463,30.8745868 16.3669421,30.6729535 17.231405,30.3209216 L19.0628099,32.1521486 C19.6099174,32.6992028 20.3355372,33 21.107438,33 C21.8793388,33 22.6066116,32.6992028 23.1520661,32.1521486 C23.6975207,31.6050943 24,30.879545 24,30.1060665 C24,29.3342407 23.6991736,28.6070387 23.1520661,28.0616372 L21.322314,26.2304103 Z M14.4380165,27.5691231 C12.1603306,27.5691231 10.3057851,25.7147579 10.3057851,23.4372934 C10.3057851,21.1598289 12.1603306,19.3054637 14.4380165,19.3054637 C16.7157025,19.3054637 18.5702479,21.1598289 18.5702479,23.4372934 C18.5702479,25.7147579 16.7157025,27.5691231 14.4380165,27.5691231 Z" id="Shape"></path>
                <path d="M26.6666667,8.26086957 L23.3333333,8.26086957 L23.3333333,4.95652174 L21.43,4.95652174 C20.685,2.11643478 18.0966667,0 15,0 C11.9033333,0 9.315,2.11643478 8.57,4.95652174 L6.66666667,4.95652174 L6.66666667,8.26086957 L3.33333333,8.26086957 C1.495,8.26086957 0,9.74452174 0,11.5652174 L0,34.6956522 C0,36.518 1.495,38 3.33333333,38 L26.6666667,38 C28.505,38 30,36.518 30,34.6956522 L30,11.5652174 C30,9.74452174 28.505,8.26086957 26.6666667,8.26086957 Z M15,3.30434783 C16.2316667,3.30434783 17.3083333,3.96852174 17.885,4.95652174 L12.1133333,4.95652174 C12.6916667,3.96852174 13.7683333,3.30434783 15,3.30434783 Z M10,8.26086957 L20,8.26086957 L20,11.5652174 L10,11.5652174 L10,8.26086957 Z M26.6666667,34.6956522 L3.33333333,34.6956522 L3.33333333,11.5652174 L6.66666667,11.5652174 L6.66666667,14.8695652 L23.3333333,14.8695652 L23.3333333,11.5652174 L26.6666667,11.5652174 L26.6666667,34.6956522 Z" id="Shape"></path>
            </g>
        </g>
    </g>
</svg>