<?xml version="1.0" encoding="UTF-8"?>
<svg width="31px" height="31px" viewBox="0 0 31 31" version="1.1" xmlns="http://www.w3.org/2000/svg" xmlns:xlink="http://www.w3.org/1999/xlink">
    <!-- Generator: Sketch 50.2 (55047) - http://www.bohemiancoding.com/sketch -->
    <title>cookie-color</title>
    <desc>Created with Sketch.</desc>
    <defs>
        <linearGradient x1="0%" y1="0%" x2="101.999998%" y2="100.999999%" id="linearGradient-1">
            <stop stop-color="#3023AE" offset="0%"></stop>
            <stop stop-color="#C86DD7" offset="100%"></stop>
        </linearGradient>
    </defs>
    <g id="05-Legal" stroke="none" stroke-width="1" fill="none" fill-rule="evenodd">
        <g id="05-E-Legal-Iconos" transform="translate(-705.000000, -490.000000)" fill="url(#linearGradient-1)" fill-rule="nonzero">
            <g id="Group-2" transform="translate(705.000000, 490.000000)">
                <path d="M30.15215,12.3969 C29.76155,12.15045 29.2826,12.09 28.8455,12.23105 C28.48435,12.34575 28.1852,12.4 27.9,12.4 C26.3779,12.4 25.0666,11.25455 24.85115,9.7371 C24.7783,9.22405 24.4528,8.7792 23.9847,8.556 C23.51505,8.33125 22.96635,8.3576 22.51995,8.6242 C21.76975,9.07215 20.97305,9.3 20.15,9.3 C17.5863,9.3 15.5,7.2137 15.5,4.65 C15.5,3.86415 15.71545,3.09225 16.1355,2.35445 C16.4176,1.8631 16.4083,1.25705 16.1107,0.77345 C15.81465,0.29295 15.27835,0.0062 14.7126,0.03875 C6.46195,0.4526 0,7.24625 0,15.5 C0,24.04825 6.9533,31 15.5,31 C24.0467,31 31,24.04825 31,15.5 C31,14.89085 30.95505,14.25845 30.8574,13.50825 C30.80005,13.04945 30.5412,12.64335 30.15215,12.3969 Z M15.5,27.9 C8.66295,27.9 3.1,22.33705 3.1,15.5 C3.1,9.7154 7.06955,4.82825 12.49145,3.4844 C12.431,3.8688 12.4,4.25785 12.4,4.65 C12.4,8.92335 15.87665,12.4 20.15,12.4 C20.8971,12.4 21.6473,12.2853 22.3727,12.0621 C23.39725,14.1112 25.5192,15.5 27.9,15.5 C27.9,22.33705 22.33705,27.9 15.5,27.9 Z M9.3,10.85 C6.7363,10.85 4.65,12.9363 4.65,15.5 C4.65,18.0637 6.7363,20.15 9.3,20.15 C11.8637,20.15 13.95,18.0637 13.95,15.5 C13.95,12.9363 11.8637,10.85 9.3,10.85 Z M9.3,17.05 C8.44595,17.05 7.75,16.35405 7.75,15.5 C7.75,14.64595 8.44595,13.95 9.3,13.95 C10.15405,13.95 10.85,14.64595 10.85,15.5 C10.85,16.35405 10.15405,17.05 9.3,17.05 Z M21.70155,20.15 C20.8455086,20.15 20.15155,19.4560414 20.15155,18.6 C20.15155,17.7439586 20.8455086,17.05 21.70155,17.05 C22.5575914,17.05 23.25155,17.7439586 23.25155,18.6 C23.25155,19.4560414 22.5575914,20.15 21.70155,20.15 Z M21.7,3.1 C20.8439586,3.1 20.15,2.40604136 20.15,1.55 C20.15,0.693958638 20.8439586,0 21.7,0 C22.5560414,0 23.25,0.693958638 23.25,1.55 C23.25,2.40604136 22.5560414,3.1 21.7,3.1 Z M29.45,6.2 C28.5939586,6.2 27.9,5.50604136 27.9,4.65 C27.9,3.79395864 28.5939586,3.1 29.45,3.1 C30.3060414,3.1 31,3.79395864 31,4.65 C31,5.50604136 30.3060414,6.2 29.45,6.2 Z M15.5,24.8 C14.6439586,24.8 13.95,24.1060414 13.95,23.25 C13.95,22.3939586 14.6439586,21.7 15.5,21.7 C16.3560414,21.7 17.05,22.3939586 17.05,23.25 C17.05,24.1060414 16.3560414,24.8 15.5,24.8 Z" id="cookie-color"></path>
            </g>
        </g>
    </g>
</svg>