<?xml version="1.0" encoding="UTF-8"?>
<svg width="32px" height="33px" viewBox="0 0 32 33" version="1.1" xmlns="http://www.w3.org/2000/svg" xmlns:xlink="http://www.w3.org/1999/xlink">
    <!-- Generator: Sketch 50.2 (55047) - http://www.bohemiancoding.com/sketch -->
    <title>Group</title>
    <desc>Created with Sketch.</desc>
    <defs>
        <linearGradient x1="0%" y1="0%" x2="101.999998%" y2="100.999999%" id="linearGradient-1">
            <stop stop-color="#3023AE" offset="0%"></stop>
            <stop stop-color="#C86DD7" offset="100%"></stop>
        </linearGradient>
    </defs>
    <g id="05-Legal" stroke="none" stroke-width="1" fill="none" fill-rule="evenodd">
        <g id="05-E-Legal" transform="translate(-705.000000, -135.000000)" fill="url(#linearGradient-1)" fill-rule="nonzero">
            <g id="files-copyright-c" transform="translate(705.000000, 135.000000)">
                <g id="Line_Icons">
                    <g id="Group">
                        <path d="M2.66666667,2.70225532 L16,2.70225532 L16,8.05966489 L24,8.05966489 L24,6.18235106 L17.8853333,0.0121117021 L2.66666667,0.0121117021 C1.196,0.0121117021 0,1.21789894 0,2.70360106 L0,26.9270053 C0,28.410016 1.196,29.6184947 2.66666667,29.6184947 L9.33333333,29.6184947 L9.33333333,26.9270053 L2.66666667,26.9270053 L2.66666667,2.70225532 Z" id="Shape"></path>
                        <path d="M17.3333333,19.9614309 L17.3333333,23.1023989 C17.3333333,25.2044521 19.128,26.9148936 21.3333333,26.9148936 L24,26.9148936 L24,24.2234043 L21.3333333,24.2234043 C20.5986667,24.2234043 20,23.7214415 20,23.1023989 L20,19.9614309 C20,19.343734 20.5986667,18.8404255 21.3333333,18.8404255 L24,18.8404255 L24,16.1489362 L21.3333333,16.1489362 C19.128,16.1489362 17.3333333,17.8593777 17.3333333,19.9614309 Z" id="Shape"></path>
                        <path d="M21.3333333,10.7659574 C15.452,10.7659574 10.6666667,15.5958351 10.6666667,21.5319149 C10.6666667,27.4679947 15.452,32.2978723 21.3333333,32.2978723 C27.2146667,32.2978723 32,27.4679947 32,21.5319149 C32,15.5958351 27.2146667,10.7659574 21.3333333,10.7659574 Z M21.3333333,29.606383 C16.9213333,29.606383 13.3333333,25.984984 13.3333333,21.5319149 C13.3333333,17.0788457 16.9213333,13.4574468 21.3333333,13.4574468 C25.7453333,13.4574468 29.3333333,17.0788457 29.3333333,21.5319149 C29.3333333,25.984984 25.7453333,29.606383 21.3333333,29.606383 Z" id="Shape"></path>
                    </g>
                </g>
            </g>
        </g>
    </g>
</svg>