<?xml version="1.0" encoding="UTF-8"?>
<svg width="32px" height="41px" viewBox="0 0 32 41" version="1.1" xmlns="http://www.w3.org/2000/svg" xmlns:xlink="http://www.w3.org/1999/xlink">
    <!-- Generator: Sketch 50.2 (55047) - http://www.bohemiancoding.com/sketch -->
    <title>Group 7</title>
    <desc>Created with Sketch.</desc>
    <defs></defs>
    <g id="Componentes" stroke="none" stroke-width="1" fill="none" fill-rule="evenodd">
        <g id="Iconos-horario" transform="translate(-634.000000, -137.000000)" fill-rule="nonzero">
            <g id="Group-7" transform="translate(634.000000, 137.000000)">
                <path d="M24.4383733,1.17773519 C23.85112,0.609721254 22.97024,0.436933798 22.20024,0.746759582 C21.4343467,1.05261324 20.9333333,1.7795122 20.9333333,2.58188153 L20.9333333,40.3170732 L25.04,40.3170732 L25.04,28.4006969 L29.1466667,28.4006969 C30.28216,28.4006969 31.2,27.5129268 31.2,26.4146341 C31.2,7.93233449 24.7155733,1.44585366 24.4383733,1.17773519 Z M25.04,24.4285714 L25.04,11.0087456 C26.0399733,14.186446 26.9044267,18.5716725 27.0645867,24.4285714 L25.04,24.4285714 Z" id="Shape" fill="#AD76BD"></path>
                <path d="M12.72,12.5121951 C12.72,13.9759233 11.8884,15.2430314 10.6666667,15.9341812 L10.6666667,0.595818815 L6.56,0.595818815 L6.56,15.9341812 C5.33826667,15.2430314 4.50666667,13.9759233 4.50666667,12.5121951 L4.50666667,0.595818815 L0.4,0.595818815 L0.4,12.5121951 C0.4,16.2022997 3.02621333,19.2866551 6.56,20.1744251 L6.56,40.3170732 L10.6666667,40.3170732 L10.6666667,20.1744251 C14.2004533,19.284669 16.8266667,16.2022997 16.8266667,12.5121951 L16.8266667,0.595818815 L12.72,0.595818815 L12.72,12.5121951 Z" id="Shape" fill="#8D8D8D"></path>
            </g>
        </g>
    </g>
</svg>