<?xml version="1.0" encoding="UTF-8"?>
<svg width="22px" height="29px" viewBox="0 0 22 29" version="1.1" xmlns="http://www.w3.org/2000/svg" xmlns:xlink="http://www.w3.org/1999/xlink">
    <!-- Generator: Sketch 51.3 (57544) - http://www.bohemiancoding.com/sketch -->
    <title>Combined Shape</title>
    <desc>Created with Sketch.</desc>
    <defs></defs>
    <g id="01-Ficha-bootcamp" stroke="none" stroke-width="1" fill="none" fill-rule="evenodd">
        <g id="01-E-Ficha-Bootcamp" transform="translate(-1135.000000, -7362.000000)" fill="#FFFFFF" fill-rule="nonzero">
            <g id="Módulo-8" transform="translate(0.000000, 6912.000000)">
                <g id="Group-45" transform="translate(0.000000, 32.000000)">
                    <g id="Group-39" transform="translate(0.000000, 278.000000)">
                        <g id="Group-38">
                            <g id="kitchen-fork-knife" transform="translate(1134.000000, 140.000000)">
                                <g id="Line_Icons" transform="translate(1.000000, 0.000000)">
                                    <g id="Group">
                                        <path d="M17.1702667,0.847142857 C16.7508,0.438571429 16.1216,0.314285714 15.5716,0.537142857 C15.0245333,0.757142857 14.6666667,1.28 14.6666667,1.85714286 L14.6666667,29 L17.6,29 L17.6,20.4285714 L20.5333333,20.4285714 C21.3444,20.4285714 22,19.79 22,19 C22,5.70571429 17.3682667,1.04 17.1702667,0.847142857 Z M17.6,17.5714286 L17.6,7.91857143 C18.3142667,10.2042857 18.9317333,13.3585714 19.0461333,17.5714286 L17.6,17.5714286 Z M8.8,9 L8.8,0.428571429 L11.7333333,0.428571429 L11.7333333,9 C11.7333333,11.6542857 9.85746667,13.8714286 7.33333333,14.5114286 L7.33333333,29 L4.4,29 L4.4,14.5114286 C1.87586667,13.8728571 0,11.6542857 0,9 L0,0.428571429 L2.93333333,0.428571429 L2.93333333,9 C2.93333333,10.0528571 3.52733333,10.9642857 4.4,11.4614286 L4.4,0.428571429 L7.33333333,0.428571429 L7.33333333,11.4614286 C8.206,10.9642857 8.8,10.0528571 8.8,9 Z" id="Combined-Shape"></path>
                                    </g>
                                </g>
                            </g>
                        </g>
                    </g>
                </g>
            </g>
        </g>
    </g>
</svg>