<?xml version="1.0" encoding="UTF-8"?>
<svg width="25px" height="19px" viewBox="0 0 25 19" version="1.1" xmlns="http://www.w3.org/2000/svg" xmlns:xlink="http://www.w3.org/1999/xlink">
    <!-- Generator: Sketch 50.2 (55047) - http://www.bohemiancoding.com/sketch -->
    <title>docker</title>
    <desc>Created with Sketch.</desc>
    <defs></defs>
    <g id="Componentes" stroke="none" stroke-width="1" fill="none" fill-rule="evenodd">
        <g id="Logos-de-cursos" transform="translate(-171.000000, -1388.000000)" fill="#FFFFFF" fill-rule="nonzero">
            <g id="Group-17" transform="translate(171.000000, 1380.000000)">
                <path d="M5.01810657,22.9184173 C4.30677703,22.9184173 3.66011381,22.3366951 3.66011381,21.6257014 C3.66011381,20.9147077 4.24211071,20.3329856 5.01810657,20.3329856 C5.79410243,20.3329856 6.37609933,20.9147077 6.37609933,21.6257014 C6.37609933,22.3366951 5.72943611,22.9184173 5.01810657,22.9184173 Z M21.7020176,15.873116 C21.5726849,14.8389433 20.9260217,13.9986781 20.0853595,13.3523201 L19.7620279,13.093777 L19.5033626,13.4169559 C18.9860321,13.9986781 18.7920331,15.0328507 18.8566994,15.8084802 C18.9213658,16.3902023 19.1153647,16.9719245 19.4386963,17.424375 C19.180031,17.5536466 18.8566994,17.6829182 18.5980341,17.8121897 C18.0160372,18.0060971 17.4340404,18.0707329 16.8520435,18.0707329 L0.103466115,18.0707329 L0.0387997931,18.4585477 C-0.0905328505,19.6866277 0.103466115,20.9793435 0.620796689,22.1427878 L0.879461976,22.5952383 L0.879461976,22.6598741 C2.4314537,25.2453058 5.21210554,26.40875 8.25142266,26.40875 C14.0713916,26.40875 18.8566994,23.8879541 21.1200207,18.4585477 C22.6073461,18.5231835 24.0946715,18.1353687 24.806001,16.7133813 L25,16.3902023 L24.6766684,16.196295 C23.8360062,15.6792086 22.6720124,15.6145728 21.7020176,15.873116 Z M13.3600621,14.8389433 L10.8380755,14.8389433 L10.8380755,17.3597392 L13.3600621,17.3597392 L13.3600621,14.8389433 Z M13.3600621,11.6717896 L10.8380755,11.6717896 L10.8380755,14.1925854 L13.3600621,14.1925854 L13.3600621,11.6717896 Z M13.3600621,8.44 L10.8380755,8.44 L10.8380755,10.9607959 L13.3600621,10.9607959 L13.3600621,8.44 Z M16.4640455,14.8389433 L13.942059,14.8389433 L13.942059,17.3597392 L16.4640455,17.3597392 L16.4640455,14.8389433 Z M7.08742887,14.8389433 L4.56544232,14.8389433 L4.56544232,17.3597392 L7.08742887,17.3597392 L7.08742887,14.8389433 Z M10.2560786,14.8389433 L7.73409208,14.8389433 L7.73409208,17.3597392 L10.2560786,17.3597392 L10.2560786,14.8389433 Z M3.98344542,14.8389433 L1.46145887,14.8389433 L1.46145887,17.3597392 L3.98344542,17.3597392 L3.98344542,14.8389433 Z M10.2560786,11.6717896 L7.73409208,11.6717896 L7.73409208,14.1925854 L10.2560786,14.1925854 L10.2560786,11.6717896 Z M7.08742887,11.6717896 L4.56544232,11.6717896 L4.56544232,14.1925854 L7.08742887,14.1925854 L7.08742887,11.6717896 Z" id="docker"></path>
            </g>
        </g>
    </g>
</svg>