<?xml version="1.0" encoding="UTF-8"?>
<svg width="24px" height="32px" viewBox="0 0 24 32" version="1.1" xmlns="http://www.w3.org/2000/svg" xmlns:xlink="http://www.w3.org/1999/xlink">
    <!-- Generator: Sketch 51.3 (57544) - http://www.bohemiancoding.com/sketch -->
    <title>Combined Shape</title>
    <desc>Created with Sketch.</desc>
    <defs></defs>
    <g id="01-Ficha-bootcamp" stroke="none" stroke-width="1" fill="none" fill-rule="evenodd">
        <g id="01-E-Ficha-Bootcamp" transform="translate(-721.000000, -4833.000000)" fill="#FFFFFF" fill-rule="nonzero">
            <g id="Módulo-7" transform="translate(-524.000000, 4330.000000)">
                <g id="Group-32" transform="translate(1196.000000, 503.000000)">
                    <g id="download-computer" transform="translate(49.000000, 0.000000)">
                        <g id="Line_Icons">
                            <g id="Group">
                                <path d="M21.3333333,10.6592914 L20,10.6592914 L20,13.3237812 L21.3333333,13.3237812 L21.3333333,19.9850057 L2.66666667,19.9850057 L2.66666667,13.3237812 L4,13.3237812 L4,10.6592914 L2.66666667,10.6592914 C1.19466667,10.6592914 0,11.8529829 0,13.3237812 L0,25.3139853 C0,26.7821192 1.19466667,27.9784751 2.66666667,27.9784751 L10.6666667,27.9784751 L10.6666667,29.31072 L6.66666667,29.31072 L6.66666667,31.9752098 L17.3333333,31.9752098 L17.3333333,29.31072 L13.3333333,29.31072 L13.3333333,27.9784751 L21.3333333,27.9784751 C22.8053333,27.9784751 24,26.7821192 24,25.3139853 L24,13.3237812 C24,11.8529829 22.8053333,10.6592914 21.3333333,10.6592914 Z M2.66666667,25.3139853 L2.66666667,22.6494955 L21.3333333,22.6494955 L21.3333333,25.3139853 L2.66666667,25.3139853 Z M18.276,10.2689437 L12,16.5398204 L5.724,10.2689437 L7.60933333,8.38514939 L10.6666667,11.4399869 L10.6666667,0.0013322449 L13.3333333,0.0013322449 L13.3333333,11.4399869 L16.3906667,8.38514939 L18.276,10.2689437 Z" id="Combined-Shape"></path>
                            </g>
                        </g>
                    </g>
                </g>
            </g>
        </g>
    </g>
</svg>