<?xml version="1.0" encoding="UTF-8"?>
<svg width="37px" height="37px" viewBox="0 0 37 37" version="1.1" xmlns="http://www.w3.org/2000/svg" xmlns:xlink="http://www.w3.org/1999/xlink">
    <!-- Generator: Sketch 52.2 (67145) - http://www.bohemiancoding.com/sketch -->
    <title>Filled_Icons</title>
    <desc>Created with Sketch.</desc>
    <defs>
        <linearGradient x1="0%" y1="0%" x2="101.999998%" y2="100.999999%" id="linearGradient-1">
            <stop stop-color="#3023AE" offset="0%"></stop>
            <stop stop-color="#C86DD7" offset="100%"></stop>
        </linearGradient>
    </defs>
    <g id="08-Error-404" stroke="none" stroke-width="1" fill="none" fill-rule="evenodd">
        <g id="08-404" transform="translate(-702.000000, -392.000000)" fill="url(#linearGradient-1)" fill-rule="nonzero">
            <g id="Filled_Icons" transform="translate(702.000000, 392.000000)">
                <g id="Group">
                    <path d="M33.184375,12.5815417 C34.2034167,13.602125 34.7645833,14.9557083 34.7630417,16.3987083 C34.7630417,17.8401667 34.201875,19.1952917 33.1828333,20.2143333 L27.7315,25.664125 L24.461625,22.3957917 L29.9129583,16.9429167 C30.1102917,16.7455833 30.1395833,16.5174167 30.1395833,16.3971667 C30.1395833,16.2769167 30.10875,16.04875 29.9129583,15.8514167 L28.8245417,14.7614583 L32.0944167,11.4915833 L33.184375,12.5815417 Z M25.553125,4.95183333 L22.28325,8.22170833 L21.1932917,7.13329167 C20.8926667,6.83266667 20.4039583,6.83420833 20.1033333,7.13329167 L14.652,12.584625 L11.382125,9.31320833 L16.8334583,3.86341667 C18.9362917,1.75904167 22.3587917,1.76058333 24.4631667,3.861875 L25.553125,4.95183333 Z M8.11225,22.39425 L4.84083333,25.6656667 L3.750875,24.5757083 C1.64804167,22.4697917 1.64804167,19.0472917 3.750875,16.9444583 L9.20220833,11.4946667 L12.4720833,14.763 L7.02075,20.2143333 C6.720125,20.5134167 6.72166667,21.002125 7.02229167,21.3042917 L8.11225,22.39425 Z M22.28325,24.5741667 L25.553125,27.8440417 L20.1033333,33.2969167 C19.0842917,34.3159583 17.7307083,34.8755833 16.28925,34.877125 C16.28925,34.877125 16.2877083,34.877125 16.2877083,34.877125 C14.8447083,34.877125 13.491125,34.3159583 12.4720833,33.295375 L11.382125,32.2054167 L14.652,28.934 L15.7435,30.0239583 C15.9315833,30.2120417 16.1427917,30.2505833 16.2877083,30.2505833 C16.4064167,30.2505833 16.6376667,30.21975 16.8334583,30.0239583 L22.28325,24.5741667 Z M29.9148435,3.86330659 L33.184256,7.13456909 L22.2800476,18.0326108 L19.0106351,14.7613483 L29.9148435,3.86330659 Z M14.6523019,19.1237827 L17.9221769,22.3945827 L7.01951019,33.294166 L3.74963519,30.023366 L14.6523019,19.1237827 Z M32.638625,24.6666667 L37,24.6666667 L37,27.75 L32.638625,27.75 L32.638625,24.6666667 Z M24.5572083,32.749625 L27.6405417,32.749625 L27.6405417,37 L24.5572083,37 L24.5572083,32.749625 Z M9.29625,0 L12.3795833,0 L12.3795833,4.40608333 L9.29625,4.40608333 L9.29625,0 Z M0,9.40725 L4.296625,9.40725 L4.296625,12.4905833 L0,12.4905833 L0,9.40725 Z" id="Combined-Shape"></path>
                </g>
            </g>
        </g>
    </g>
</svg>