<?xml version="1.0" encoding="UTF-8"?>
<svg width="25px" height="25px" viewBox="0 0 25 25" version="1.1" xmlns="http://www.w3.org/2000/svg" xmlns:xlink="http://www.w3.org/1999/xlink">
    <!-- Generator: Sketch 50.2 (55047) - http://www.bohemiancoding.com/sketch -->
    <title>expressjs</title>
    <desc>Created with Sketch.</desc>
    <defs></defs>
    <g id="Componentes" stroke="none" stroke-width="1" fill="none" fill-rule="evenodd">
        <g id="Logos-de-cursos" transform="translate(-2070.000000, -1517.000000)" fill="#323232" fill-rule="nonzero">
            <g id="Group-39" transform="translate(2070.000000, 1515.000000)">
                <path d="M0,14.5 L0,2 L25,2 L25,27 L0,27 L0,14.5 Z M6.85360303,21.4904369 L6.85360303,18.4362047 L11.2910164,18.4362047 L11.2910164,16.9266416 L6.85360303,16.9266416 L6.85360303,14.1181521 L11.9931387,14.1181521 L11.9931387,12.6085891 L5,12.6085891 L5,23 L12.063351,23 L12.063351,21.4904369 L6.85360303,21.4904369 Z M18.3543673,17.6287639 L21.8228518,12.6085891 L19.7796757,12.6085891 L17.2590564,16.2596253 L14.7384371,12.6085891 L12.6461125,12.6085891 L16.1497031,17.6498276 L12.4354758,23 L14.4997155,23 L17.2379928,19.0049238 L19.97627,23 L22.0685946,23 L18.3543673,17.6287639 Z" id="expressjs"></path>
            </g>
        </g>
    </g>
</svg>