<?xml version="1.0" encoding="UTF-8"?>
<svg width="25px" height="25px" viewBox="0 0 25 25" version="1.1" xmlns="http://www.w3.org/2000/svg" xmlns:xlink="http://www.w3.org/1999/xlink">
    <!-- Generator: Sketch 50.2 (55047) - http://www.bohemiancoding.com/sketch -->
    <title>git</title>
    <desc>Created with Sketch.</desc>
    <defs></defs>
    <g id="Componentes" stroke="none" stroke-width="1" fill="none" fill-rule="evenodd">
        <g id="Logos-de-cursos" transform="translate(-172.000000, -1071.000000)" fill="#FFFFFF">
            <g id="Group-12" transform="translate(172.000000, 1062.000000)">
                <path d="M24.5284366,20.3864221 L13.6133058,9.47156336 C12.9848267,8.84281221 11.9653847,8.84281221 11.3363615,9.47156336 L9.06975574,11.7384412 L11.9449795,14.6136649 C12.6131806,14.3878478 13.3793266,14.5393901 13.9117653,15.0718289 C14.4474689,15.6078046 14.597651,16.3804801 14.3661204,17.0511299 L17.1374138,19.8221513 C17.8080636,19.5908928 18.5810112,19.7402586 19.1167148,20.2767784 C19.8649042,21.0246957 19.8649042,22.2373066 19.1167148,22.9857681 C18.3679813,23.7345016 17.1556424,23.7345016 16.4066368,22.9857681 C15.8439984,22.4225855 15.7046992,21.5954962 15.9900994,20.9022647 L13.4054452,18.3178825 L13.4054452,25.1185159 C13.5877313,25.2088428 13.7599509,25.3293693 13.9117653,25.4809116 C14.6599547,26.229101 14.6599547,27.4414399 13.9117653,28.1907176 C13.163576,28.9386349 11.9504209,28.9386349 11.2027756,28.1907176 C10.4545863,27.4414399 10.4545863,26.229101 11.2027756,25.4809116 C11.3877825,25.2961769 11.6019007,25.1563335 11.8304385,25.0627418 L11.8304385,18.1989884 C11.6019007,18.1056688 11.3883266,17.9669137 11.2027756,17.7810907 C10.6360562,17.2146433 10.4997497,16.3826567 10.7905913,15.6867045 L7.95617787,12.851747 L0.471563362,20.3358173 C-0.157187787,20.9651126 -0.157187787,21.9845547 0.471563362,22.6133058 L11.3872383,33.5281646 C12.0157174,34.1566436 13.0348874,34.1566436 13.6641827,33.5281646 L24.5284366,22.6639106 C25.1571878,22.0351595 25.1571878,21.0149012 24.5284366,20.3864221" id="git"></path>
            </g>
        </g>
    </g>
</svg>