<?xml version="1.0" encoding="UTF-8"?>
<svg width="43px" height="35px" viewBox="0 0 43 35" version="1.1" xmlns="http://www.w3.org/2000/svg" xmlns:xlink="http://www.w3.org/1999/xlink">
    <!-- Generator: Sketch 51.3 (57544) - http://www.bohemiancoding.com/sketch -->
    <title>graduation-hat</title>
    <desc>Created with Sketch.</desc>
    <defs>
        <linearGradient x1="0%" y1="0%" x2="101.999998%" y2="100.999999%" id="linearGradient-1">
            <stop stop-color="#3023AE" offset="0%"></stop>
            <stop stop-color="#C86DD7" offset="100%"></stop>
        </linearGradient>
    </defs>
    <g id="00-Home" stroke="none" stroke-width="1" fill="none" fill-rule="evenodd">
        <g id="00-E-Home-1920" transform="translate(-891.000000, -5184.000000)" fill="url(#linearGradient-1)" fill-rule="nonzero">
            <g id="Group-28" transform="translate(-1703.000000, -249.000000)">
                <g id="Módulo-7" transform="translate(1650.000000, 5433.000000)">
                    <g id="Group-29" transform="translate(614.000000, 0.000000)">
                        <g id="Group-22">
                            <g id="graduation-hat" transform="translate(330.000000, 0.000000)">
                                <g id="Line_Icons">
                                    <g id="Group">
                                        <path d="M41.9191364,9.92833333 L22.3736818,0.206111111 C21.8244545,-0.0680555556 21.1755455,-0.0680555556 20.6243636,0.206111111 L1.07890909,9.92833333 C0.688,10.1208333 0.387,10.4591667 0.209136364,10.8266667 C0.0918636364,11.0638889 0,11.4683333 0,11.6666667 L0,22.8763889 C0,23.9477778 0.875636364,24.8208333 1.95454545,24.8208333 C3.03345455,24.8208333 3.90909091,23.9477778 3.90909091,22.8763889 L3.90909091,14.5405556 L7.81818182,16.0961111 L7.81818182,25.6316667 C7.81818182,26.3666667 8.23645455,27.0394444 8.89904545,27.37 C12.2589091,29.0383333 15.7125909,31.1013889 21.5,31.1013889 C27.2874091,31.1013889 30.7430455,29.0383333 34.1009545,27.37 C34.7635455,27.0375 35.1818182,26.3666667 35.1818182,25.6297222 L35.1818182,16.0941667 L41.7725455,13.4711111 C42.4859545,13.1872222 42.9667727,12.5125 42.9980455,11.7463889 C43.0312727,10.9822222 42.6071364,10.2725 41.9191364,9.92833333 Z M31.2727273,24.4280556 L29.3670455,25.375 C24.4396364,27.8269444 18.5584091,27.8269444 13.6329545,25.375 L11.7272727,24.4280556 L11.7272727,17.6516667 L20.7729091,21.2527778 C21.0074545,21.3461111 21.2537273,21.3888889 21.5,21.3888889 C21.7462727,21.3888889 21.9925455,21.3461111 22.2270909,21.2508333 L31.2727273,17.6497222 L31.2727273,24.4280556 Z M21.5,17.3502778 L6.72168182,11.4683333 L21.5,4.12027778 L36.2783182,11.4683333 L21.5,17.3502778 Z" id="Shape"></path>
                                        <path d="M1.95454545,27.2222222 C0.875636364,27.2222222 0,28.0933333 0,29.1666667 L0,33.0555556 C0,34.1308333 0.875636364,35 1.95454545,35 C3.03345455,35 3.90909091,34.1308333 3.90909091,33.0555556 L3.90909091,29.1666667 C3.90909091,28.0933333 3.03345455,27.2222222 1.95454545,27.2222222 Z" id="Shape"></path>
                                    </g>
                                </g>
                            </g>
                        </g>
                    </g>
                </g>
            </g>
        </g>
    </g>
</svg>