<?xml version="1.0" encoding="UTF-8"?>
<svg width="42px" height="33px" viewBox="0 0 42 33" version="1.1" xmlns="http://www.w3.org/2000/svg" xmlns:xlink="http://www.w3.org/1999/xlink">
    <!-- Generator: Sketch 51.3 (57544) - http://www.bohemiancoding.com/sketch -->
    <title>Shape</title>
    <desc>Created with Sketch.</desc>
    <defs></defs>
    <g id="01-Ficha-bootcamp" stroke="none" stroke-width="1" fill="none" fill-rule="evenodd">
        <g id="01-E-Ficha-Bootcamp" transform="translate(-210.000000, -2823.000000)" fill="#585858" fill-rule="nonzero">
            <g id="Módulo-4" transform="translate(-6.000000, 2660.000000)">
                <g id="Group-22" transform="translate(92.000000, 153.000000)">
                    <g id="graduation-hat" transform="translate(123.000000, 7.000000)">
                        <g id="Line_Icons" transform="translate(1.833333, 3.583333)">
                            <g id="Group">
                                <path d="M39.3195,9.14825 L20.9861667,0.189916667 C20.471,-0.0627083333 19.8623333,-0.0627083333 19.3453333,0.189916667 L1.012,9.14825 C0.645333333,9.325625 0.363,9.637375 0.196166667,9.976 C0.0861666667,10.1945833 0,10.56725 0,10.75 L0,21.0789583 C0,22.0661667 0.821333333,22.870625 1.83333333,22.870625 C2.84533333,22.870625 3.66666667,22.0661667 3.66666667,21.0789583 L3.66666667,13.3980833 L7.33333333,14.8314167 L7.33333333,23.61775 C7.33333333,24.295 7.72566667,24.9149167 8.34716667,25.2195 C11.4986667,26.75675 14.7381667,28.6577083 20.1666667,28.6577083 C25.5951667,28.6577083 28.8365,26.75675 31.9861667,25.2195 C32.6076667,24.913125 33,24.295 33,23.6159583 L33,14.829625 L39.182,12.4126667 C39.8511667,12.1510833 40.3021667,11.529375 40.3315,10.8234583 C40.3626667,10.1193333 39.9648333,9.465375 39.3195,9.14825 Z M29.3333333,22.5087083 L27.5458333,23.38125 C22.924,25.6405417 17.4075,25.6405417 12.7875,23.38125 L11,22.5087083 L11,16.26475 L19.4846667,19.5829167 C19.7046667,19.6689167 19.9356667,19.7083333 20.1666667,19.7083333 C20.3976667,19.7083333 20.6286667,19.6689167 20.8486667,19.581125 L29.3333333,16.2629583 L29.3333333,22.5087083 Z M20.1666667,15.9870417 L6.30483333,10.56725 L20.1666667,3.79654167 L34.0285,10.56725 L20.1666667,15.9870417 Z M1.83333333,25.0833333 C2.84533333,25.0833333 3.66666667,25.886 3.66666667,26.875 L3.66666667,30.4583333 C3.66666667,31.449125 2.84533333,32.25 1.83333333,32.25 C0.821333333,32.25 0,31.449125 0,30.4583333 L0,26.875 C0,25.886 0.821333333,25.0833333 1.83333333,25.0833333 Z" id="Shape"></path>
                            </g>
                        </g>
                    </g>
                </g>
            </g>
        </g>
    </g>
</svg>