<?xml version="1.0" encoding="UTF-8"?>
<svg width="20px" height="25px" viewBox="0 0 20 25" version="1.1" xmlns="http://www.w3.org/2000/svg" xmlns:xlink="http://www.w3.org/1999/xlink">
    <!-- Generator: Sketch 50.2 (55047) - http://www.bohemiancoding.com/sketch -->
    <title>grunt</title>
    <desc>Created with Sketch.</desc>
    <defs></defs>
    <g id="Componentes" stroke="none" stroke-width="1" fill="none" fill-rule="evenodd">
        <g id="Logos-de-cursos" transform="translate(-2068.000000, -602.000000)" fill="#323232">
            <g id="Group-43" transform="translate(2068.000000, 598.000000)">
                <g id="Group-34" transform="translate(0.000000, 4.000000)">
                    <path d="M14.4399281,19.3934659 C14.5716218,19.4772384 14.6708282,19.5673546 14.7494804,19.6523889 C15.0106018,19.9344766 15.1154401,20.2948898 15.0630549,20.7274901 C16.1358083,20.6855986 17.2397789,20.2141989 17.8087876,19.2784387 C18.4013066,18.3031511 18.2351389,16.6381218 17.9914263,16.3941177 C17.4066935,18.2398419 15.3256966,18.6382951 13.9817137,18.6192321 C14.1334043,18.9177931 14.2970812,19.182309 14.4399281,19.3934659 Z M13.4776531,19.0829401 C13.17127,18.2495789 12.6370931,16.6477905 12.3869841,14.8609293 C12.7191737,15.4071691 13.6425704,17.8047938 13.6752209,17.9003402 C13.7429238,18.0990229 13.8231977,18.2909601 13.9094174,18.4722526 C13.8919216,18.3007148 13.8456627,18.1325837 13.7619488,17.9649853 C13.7542963,17.9501905 13.7456235,17.9359788 13.7376067,17.9215484 C14.4069179,17.9157893 15.1730095,17.8545383 15.8399624,17.610495 C15.7391353,16.4137868 15.6765116,14.9933325 15.7144919,14.3613331 C15.7654354,13.5084119 16.2219592,12.936008 16.6453953,12.691931 C16.7780379,12.615625 16.9166567,12.5406309 17.0565145,12.4651995 C17.7818947,12.0732479 18.5320543,11.6677404 18.5320543,10.975448 C18.5320543,10.4337997 18.3212837,10.2644252 18.098415,10.0848475 L18.0746559,10.0653884 C18.0397296,10.0371721 18.0037025,10.0080621 17.9677397,9.97712564 C18.0131371,10.329824 18.0607676,10.629105 18.098998,10.7056442 C18.098998,10.7056442 17.5066977,9.97071659 17.3311285,8.5408 C17.2621834,7.97750614 17.384477,6.86658776 17.58038,6.43921615 C17.5723108,6.67711742 17.5797767,6.91502617 17.5961567,7.14074301 C17.6154711,7.10014332 17.6366745,7.06496264 17.6598198,7.03603506 C17.8168045,6.83998636 18.2376169,6.18070881 18.116708,5.73766788 C18.070356,5.56858498 17.9638046,5.44323042 17.7904946,5.35446189 C17.6069814,5.26044597 17.3595519,5.21285496 17.0541094,5.21285496 C16.4552499,5.21285496 15.7902148,5.39527501 15.4476032,5.50386704 C14.2222624,5.89224755 12.7437345,7.01198448 12.3195696,7.34592321 C12.3074714,7.35525192 12.3004749,7.36071796 12.299163,7.36159253 L12.0277558,7.55020742 L12.1973489,7.26641052 C12.2073404,7.25000558 13.1295963,5.7331921 14.7920731,4.99499504 C14.6936931,4.85385076 14.4320428,4.5979196 13.7382626,4.25965012 C12.6913333,3.74897603 11.4705839,3.4900314 10.1091751,3.48959411 C8.74805773,3.4900314 7.52679818,3.74897603 6.47972317,4.25965012 C5.78636336,4.59776493 5.52484797,4.8536167 5.42642739,4.99482721 C7.08922657,5.73296218 8.01178924,7.25000433 8.02151143,7.26641052 L8.19110449,7.55020742 L7.91991592,7.36159253 C7.91860407,7.36071796 7.91146178,7.35525192 7.89929073,7.34592321 C7.47549027,7.01198448 5.99688946,5.89224755 4.7715486,5.50386704 C4.42864556,5.39527501 3.76397485,5.21285496 3.16475088,5.21285496 C2.85967285,5.21285496 2.61180607,5.26044597 2.4283657,5.35446189 C2.25498284,5.44323042 2.14850435,5.56858498 2.10244383,5.73766788 C1.98153498,6.18070881 2.40205581,6.83998636 2.55904054,7.03603506 C2.58209738,7.06484544 2.60322845,7.09985835 2.62248589,7.14024979 C2.63881784,6.91467961 2.64625216,6.67694415 2.63818883,6.43921615 C2.83416466,6.86658776 2.95667688,7.97750614 2.88773187,8.5408 C2.7121626,9.97071659 2.11957076,10.7056442 2.11957076,10.7056442 C2.15789178,10.6291326 2.20556872,10.3300397 2.25099438,9.97750706 C2.21520594,10.0083014 2.1793516,10.037288 2.14456879,10.0653884 L2.12051821,10.0848475 C1.89764946,10.2644252 1.68702464,10.4337997 1.68702464,10.975448 C1.68702464,11.6677404 2.43718424,12.0732479 3.16256446,12.4651995 C3.30213074,12.5406309 3.44067668,12.615625 3.5733193,12.691931 C3.99682824,12.936008 4.45357071,13.5084119 4.5045871,14.3613331 C4.54217424,14.9919004 4.48007856,16.4073535 4.37971058,17.6023566 C5.04487947,17.8506066 5.81141979,17.9144221 6.4832202,17.9213511 C6.50421596,17.8663581 6.52435699,17.810738 6.54349366,17.7545791 C6.57607127,17.6590327 7.49946797,15.261408 7.83194909,14.7151682 C7.56553239,16.618537 6.97679638,18.3119117 6.68427178,19.090228 C6.85270939,19.067299 7.04215785,19.054331 7.25575538,19.054331 C7.25575538,19.054331 9.28475018,19.0531649 10.1131106,19.0525819 L12.9631049,19.054331 C13.1529658,19.054331 13.3237475,19.0645705 13.4776531,19.0829401 Z M14.8426903,21.5002117 C14.6278467,22.0642532 14.3802158,22.624322 14.042988,23.1256369 C15.0366676,22.7243424 15.5937943,21.9046858 15.8581245,21.3396944 C15.5329428,21.4146248 15.192554,21.4667072 14.8426903,21.5002117 Z M16.5379625,17.2084038 C17.1285246,16.7307143 17.6871297,15.9225645 17.8087148,15.0133954 C17.8087148,15.0133954 19.2360077,16.1147665 18.8166529,18.472234 C18.5738074,19.8366341 17.7769742,20.6342269 16.7066547,21.0739718 C16.4776251,21.9224254 15.4788526,23.8166528 13.2145268,24.0482564 C12.5083831,24.6251764 11.530621,24.9987623 10.1059683,25 C8.6841222,24.9988273 7.70794663,24.6251486 7.00271731,24.0480849 C4.72958306,23.8147272 3.73258246,21.9060754 3.50910104,21.0632685 C2.45174666,20.6213323 1.66575305,19.8256366 1.42504317,18.472234 C1.00568843,16.1147665 2.43298132,15.0133954 2.43298132,15.0133954 C2.55307408,15.9118075 3.09994635,16.7115766 3.68274325,17.1913097 C3.7887505,16.1374298 3.81265906,14.8761221 3.81265906,14.5820154 C3.81236754,13.8645792 3.3491387,13.3848064 3.21780793,13.3089378 C3.09332793,13.2372233 2.95565655,13.1637597 2.81135304,13.0861419 C1.9319762,12.6154792 0.837747466,12.0301026 0.837747466,10.95045 C0.837747466,10.1613721 1.2916476,9.81905214 1.59184262,9.59246648 C1.62952187,9.5638973 1.66508759,9.53715014 1.69693639,9.5114233 C1.79845901,9.42943267 1.87877339,9.36464185 1.90792562,9.29861206 C2.12073685,8.82066135 2.08167287,7.6263676 1.98955184,7.46194906 C1.96265892,7.43024602 1.17270652,6.43972632 1.41525303,5.55007332 C1.51422483,5.18712813 1.7523985,4.9000516 2.10419296,4.7201095 C2.36332524,4.5874343 2.68376939,4.5133669 3.05750072,4.49964951 C3.061907,4.40320241 3.08265227,4.30763896 3.10316681,4.21315232 C3.13042414,4.08582998 3.15913908,3.95420769 3.14747819,3.81916001 C3.12845636,3.59213706 3.11016334,3.3779411 3.04180137,3.26985922 C2.62966181,2.61903582 1.63353031,2.41059742 1.62369143,2.40855676 L1.02519627,2.29114618 L1.42195804,1.82726141 C1.42924609,1.81851574 2.26576917,0.974121571 3.68249438,0.974121571 C4.06876135,0.974121571 4.46442991,1.03840222 4.85805782,1.1655788 C6.04053512,1.54681913 6.95071988,2.65379669 7.26818576,3.08274797 C7.36257811,3.0534075 7.45793415,3.02564257 7.55423807,2.99945658 C7.50697297,1.70857918 8.56357081,0.684064107 8.93127946,0.640109962 C8.95168602,0.86086518 8.91058138,1.721949 9.28052311,1.98672408 C9.38824058,1.28342667 9.75242474,0.507977506 11.1905768,1.7408297e-13 C10.8825836,0.816918202 11.1493993,1.50119378 11.2765759,1.81836998 C12.2585686,0.927040729 12.9202512,1.07425946 12.9202512,1.07425946 C12.9202512,1.07425946 12.2789235,2.18088016 12.4829782,2.9524332 C12.6414899,2.99180873 12.7975263,3.03536658 12.9510206,3.08309235 C13.2683621,2.6541905 14.1784286,1.54718285 15.3609483,1.16587033 C15.7545762,1.03869375 16.1502447,0.974485973 16.5368032,0.974485973 C17.9535284,0.974485973 18.7901244,1.81909879 18.7972667,1.82762581 L19.1941013,2.29151058 L18.5953875,2.40884828 C18.5854758,2.41088894 17.5894172,2.61925446 17.1769861,3.27022363 C17.1086241,3.37837838 17.0906955,3.5923557 17.0713093,3.81952441 C17.0600128,3.95464497 17.0883633,4.08626726 17.115985,4.21351672 C17.1364446,4.30786483 17.1571427,4.40332067 17.1615708,4.49965699 C17.5351992,4.51339378 17.8552549,4.58745837 18.1146674,4.7201095 C18.4665347,4.9000516 18.7045626,5.18712813 18.8036802,5.55007332 C19.0462267,6.43972632 18.2562014,7.43024602 18.2292356,7.46194906 C18.1371875,7.6263676 18.0981964,8.82066135 18.3106432,9.29861206 C18.3399412,9.36464185 18.4201827,9.42943267 18.5219968,9.5114233 C18.5537727,9.53715014 18.5890469,9.5638973 18.6270177,9.59246648 C18.9272856,9.81905214 19.3809671,10.1613721 19.3809671,10.95045 C19.3809671,12.0301026 18.2867384,12.6154792 17.407653,13.0861419 C17.2632767,13.1637597 17.1253866,13.2372233 17.001271,13.3089378 L17.0013439,13.3089378 C16.8698674,13.3848064 16.4064199,13.8645792 16.4064199,14.5820154 C16.4061803,14.877714 16.4303549,16.1511119 16.5379625,17.2084038 Z M12.7391448,11.3354997 C12.6901746,11.4546054 12.6385099,11.5957262 12.5949852,11.7488565 C12.4528681,12.2497646 12.7249313,12.9818498 12.7249313,12.9818498 C12.7249313,12.9818498 11.9895937,12.1493523 12.0460778,11.3944169 C11.5187316,11.3711596 11.000722,10.9829242 11.015372,10.4412335 C11.015372,10.4412335 11.9355619,10.949211 12.7488361,10.0138619 C13.2235801,9.46784072 14.7453262,7.96220123 16.8084291,8.46252627 C16.5963288,8.50917987 16.3739963,8.57773535 16.1472571,8.66356114 C16.1491947,8.66438534 16.1511381,8.66522547 16.1530871,8.66608168 C16.3531442,8.7541214 16.4651616,9.0022797 16.4927105,9.24402452 C16.5489014,9.73349037 16.2379929,10.1785719 16.2379929,10.1785719 C16.2062211,9.81434014 16.129937,9.55446909 16.0412804,9.36955885 C16.0203641,9.87233039 15.8863569,10.51916 15.4177951,11.0374694 C15.0815746,11.4096911 13.6798071,12.1782792 12.7391448,11.3354997 Z M16.6871846,2.72959143 C16.3238978,2.74359922 16.0040727,2.85880056 15.7357001,3.07257155 C15.3444357,3.38374793 15.144735,3.93701995 15.074339,4.17185163 C15.3129863,4.37432112 15.477064,4.56377882 15.587593,4.71690225 C15.7541756,4.67084232 15.9448341,4.62447028 16.1488913,4.58628657 C16.3098154,4.36935578 16.3347844,4.07160572 16.3613797,3.75830474 C16.3868879,3.45643346 16.4131978,3.14406738 16.5749198,2.88869389 C16.6100607,2.83324227 16.6476234,2.78023899 16.6871846,2.72959143 Z M14.3956349,3.700124 C14.5241287,3.4341835 14.8031052,3.03111474 15.4042393,2.60854102 C15.8093095,2.32386955 16.294694,2.17329831 16.8079189,2.17329831 C16.9854186,2.17329831 17.1391714,2.19108957 17.2568146,2.21137941 C17.4170818,2.10452997 17.5798146,2.01885459 17.7300766,1.95108548 C17.4980978,1.85284249 17.0621263,1.70635256 16.5244864,1.70635256 C16.227571,1.70635256 15.9377979,1.75124699 15.6620907,1.84023415 C14.7916078,2.12093665 14.1191925,2.97076592 13.8193395,3.40966907 C13.8973525,3.44446235 13.974574,3.4804821 14.0509931,3.51772601 C14.1740518,3.5777297 14.2887543,3.63872666 14.3956349,3.700124 Z M6.39980486,3.40928308 C6.09977564,2.97035247 5.42740131,2.12062499 4.55720687,1.83994263 C4.28164547,1.75102834 3.99128932,1.70606104 3.69451967,1.70606104 C3.15695266,1.70606104 2.72105403,1.85255097 2.4890752,1.95093972 C2.63951221,2.01867739 2.80237387,2.10437152 2.96273942,2.21130188 C3.08027526,2.19101201 3.23379091,2.17322543 3.41094141,2.17322543 C3.92416632,2.17322543 4.40940509,2.32386955 4.81476677,2.60854102 C5.41582034,3.03087534 5.69483701,3.43382719 5.82334162,3.69979939 C5.93012322,3.63846438 6.04471421,3.5775278 6.16764861,3.51758025 C6.24422852,3.48025096 6.32161762,3.44415111 6.39980486,3.40928308 Z M5.1446552,4.17147469 C5.07413294,3.9364088 4.87449236,3.38350178 4.48345174,3.07257155 C4.21520691,2.85903858 3.89536736,2.74372666 3.53221041,2.72961323 C3.57167605,2.78016442 3.60915629,2.83306342 3.64423209,2.88840237 C3.80602693,3.14392162 3.83226393,3.45621482 3.85791789,3.75801322 C3.88422368,4.07149058 3.90930842,4.3693995 4.07039072,4.58636135 C4.27422285,4.62451557 4.46467574,4.67083538 4.63109958,4.71684712 C4.74168676,4.56365003 4.90583381,4.3740756 5.1446552,4.17147469 Z M5.54043845,19.5802351 C5.6919186,19.3810992 5.93311982,19.0406212 6.16028585,18.6198672 C4.81538203,18.6180412 2.8207616,18.1949174 2.25005111,16.3941177 C2.0064114,16.6381218 1.84009796,18.3031511 2.43298132,19.2784387 C2.99763186,20.2075542 4.08989542,20.6788804 5.15566534,20.7265327 C5.10352111,20.294358 5.20836889,19.9342685 5.46945284,19.6523889 C5.49142676,19.628652 5.51500206,19.6045178 5.54043845,19.5802351 Z M5.37526942,21.4979102 C5.02436068,21.4634196 4.68313396,21.410098 4.35739691,21.3336215 C4.62049948,21.8987459 5.17804566,22.7228598 6.17544293,23.1256744 C5.83802894,22.6236616 5.59025142,22.0627342 5.37526942,21.4979102 Z M7.47952525,11.3352328 C6.53867717,12.1782055 5.13679165,11.4095529 4.80055506,11.0372507 C4.33231208,10.5191618 4.19832775,9.87262213 4.17738192,9.36993445 C4.08881243,9.55482095 4.0126177,9.81458669 3.9808674,10.1785719 C3.9808674,10.1785719 3.66995892,9.73349037 3.72585831,9.24402452 C3.75369869,9.0022797 3.86578899,8.7541214 4.06570037,8.66608168 C4.06767614,8.66521389 4.06964607,8.66436261 4.07161015,8.6635277 C3.84489759,8.57771754 3.62258771,8.50917381 3.41050413,8.46252627 C5.47375279,7.96220123 6.99513449,9.46784072 7.46995134,10.0138619 C8.28322552,10.949211 9.203707,10.4412335 9.203707,10.4412335 C9.21831058,10.982869 8.70025207,11.3710806 8.17284861,11.3944097 C8.22921835,12.1493471 7.49392905,12.9818498 7.49392905,12.9818498 C7.49392905,12.9818498 7.76599218,12.2497646 7.62387509,11.7488565 C7.58031788,11.5956118 7.52857364,11.4543945 7.47952525,11.3352328 Z M7.84302693,22.0517627 C8.05875339,22.0517627 8.24999198,21.9742178 8.38139563,21.8335583 C8.74842214,21.4411694 8.9652418,21.019118 9.01757005,20.8893906 C9.0477426,20.815344 9.0822151,20.6746845 8.97457051,20.5641247 C8.89083075,20.4784172 8.74506963,20.4343973 8.54173287,20.4343973 L8.22907526,20.4343973 C7.90300763,20.4343973 7.52155078,20.4343973 7.29496512,20.4346888 L7.10481974,20.4349803 C6.83756672,20.4349803 6.70587155,20.511432 6.64246546,20.5754212 C6.55041731,20.6687812 6.5362056,20.7985086 6.59961169,20.9606678 C6.76956916,21.3943072 7.15496156,21.748288 7.26894676,21.846531 C7.41776886,21.9753839 7.63254788,22.0517627 7.84302693,22.0517627 Z M11.8377562,21.8335583 C11.9691599,21.9742178 12.1603256,22.0517627 12.376052,22.0517627 C12.5865311,22.0517627 12.8007999,21.9753839 12.9500593,21.846531 C13.0639716,21.7483609 13.4495098,21.39438 13.6193215,20.9606678 C13.6828005,20.7982899 13.668443,20.6686354 13.576322,20.5754212 C13.5129888,20.5113592 13.3813665,20.4349803 13.1143321,20.4349803 L12.9241138,20.4346888 C12.6973824,20.4343973 12.3161442,20.4343973 11.9900766,20.4343973 L11.6772003,20.4343973 C11.4739365,20.4343973 11.3285397,20.4784172 11.2446542,20.5640518 C11.1370825,20.6746845 11.1711906,20.8154897 11.2012174,20.8893906 C11.2536914,21.0190451 11.4708026,21.4412422 11.8377562,21.8335583 Z M11.4429622,8.29439082 C11.4429622,8.29439082 10.7352191,9.15766106 10.1129649,9.16429319 L10.1129649,9.16480335 C10.111653,9.16480335 10.1105598,9.16451183 10.1094666,9.16451183 C10.1081548,9.16451183 10.1070615,9.16480335 10.1059683,9.16480335 L10.1059683,9.16429319 C9.48356835,9.15766106 8.77611675,8.29439082 8.77611675,8.29439082 C9.26193856,8.588391 9.6955779,8.69027802 10.1095395,8.69931521 C10.5233553,8.69027802 10.9572133,8.588391 11.4429622,8.29439082 Z" id="grunt"></path>
                </g>
            </g>
        </g>
    </g>
</svg>