<?xml version="1.0" encoding="UTF-8"?>
<svg width="24px" height="24px" viewBox="0 0 24 24" version="1.1" xmlns="http://www.w3.org/2000/svg" xmlns:xlink="http://www.w3.org/1999/xlink">
    <!-- Generator: Sketch 50.2 (55047) - http://www.bohemiancoding.com/sketch -->
    <title>gulp</title>
    <desc>Created with Sketch.</desc>
    <defs></defs>
    <g id="Componentes" stroke="none" stroke-width="1" fill="none" fill-rule="evenodd">
        <g id="Logos-de-cursos" transform="translate(-1848.000000, -1331.000000)" fill="#323232">
            <g id="Group-35" transform="translate(1848.000000, 1325.000000)">
                <path d="M12,30 C5.372583,30 0,24.627417 0,18 C0,11.372583 5.372583,6 12,6 C18.627417,6 24,11.372583 24,18 C24,24.627417 18.627417,30 12,30 Z M14.2569335,20.4014545 C14.321821,20.2241515 14.3657771,20.1196865 14.3908948,20.0861427 C14.5007849,19.7919157 14.6148613,19.5101477 14.7299843,19.2417973 C14.8472004,18.9724884 14.9529042,18.7031796 15.0481423,18.436746 C15.1433804,18.1703123 15.2218734,17.8971699 15.2836211,17.6163604 C15.3453689,17.3355508 15.3757195,17.0355733 15.3757195,16.7154696 C15.3757195,16.5956703 15.3558346,16.4902469 15.3160649,16.4001579 C15.2762951,16.3100688 15.2229199,16.2362724 15.1548927,16.1797271 C15.0879121,16.1222235 15.0104657,16.0810125 14.9246468,16.0541775 C14.8377813,16.0273424 14.7519623,16.0139249 14.6661434,16.0139249 C14.4882261,16.0139249 14.314495,16.067595 14.1449503,16.1739768 C13.9764521,16.2813169 13.8393511,16.4614951 13.7346939,16.7145112 L12.8765044,19.0654527 C12.7728938,19.2657571 12.6159079,19.5005638 12.4065934,19.770831 C12.1983255,20.0410982 11.9576138,20.3228662 11.6875981,20.6161349 C11.4175824,20.9094035 11.1255887,21.199797 10.811617,21.486357 C10.4976452,21.7729169 10.1857666,22.0297666 9.87493459,22.2569061 C9.56514914,22.4840456 9.26478284,22.6670989 8.97592883,22.8070245 C8.68707483,22.9469501 8.42857143,23.0169128 8.2014652,23.0169128 C7.99843014,23.0169128 7.83097855,22.9651595 7.69911041,22.8616529 C7.56619571,22.7591047 7.46153846,22.6268463 7.38513867,22.4667945 C7.30769231,22.3067426 7.25641026,22.1275228 7.2281528,21.931052 C7.19989534,21.7345811 7.1862899,21.5429022 7.1862899,21.3560153 C7.1862899,20.7953546 7.28571429,20.1628143 7.48560963,19.4593528 C7.68550497,18.7558913 7.9544741,18.0418875 8.29251701,17.3182997 C8.63055992,16.5947119 9.01988488,15.8874168 9.45944532,15.1973729 C9.89900576,14.5063705 10.3594976,13.8929981 10.8388278,13.3562972 C11.318158,12.8195963 11.8027211,12.3873605 12.2914704,12.060548 C12.7802198,11.7337355 13.2407117,11.56985 13.670853,11.56985 C13.9471481,11.56985 14.2046049,11.6407712 14.4411303,11.7845304 C14.6776557,11.9282895 14.8942962,12.160221 15.0910518,12.4803247 C15.3003663,12.8339723 15.4887493,13.1061563 15.6582941,13.2959184 C15.8267923,13.4866389 16.0099424,13.5815199 16.2066981,13.5815199 C16.4212454,13.5815199 16.6075353,13.4952644 16.7645212,13.321795 C16.9215071,13.1483256 17,12.9116022 17,12.6116248 C17,12.4851167 16.985348,12.3499831 16.9581371,12.2062239 C16.9309262,12.0624648 16.8649922,11.9206224 16.7603349,11.7806968 C16.3050759,11.1539069 15.8163265,10.6996279 15.2940869,10.4197768 C14.7718472,10.1399256 14.2307692,10 13.670853,10 C13.1852433,10 12.6944008,10.0967978 12.1993721,10.2903935 C11.7043433,10.4839892 11.2135008,10.7523396 10.7278912,11.0954448 C10.2422815,11.43855 9.76923077,11.8487428 9.30769231,12.3260232 C8.84615385,12.8033036 8.41182627,13.3256286 8.00261643,13.8920397 C7.59340659,14.4584508 7.21559393,15.0603225 6.86813187,15.6976548 C6.52066981,16.334987 6.21507064,16.9866952 5.95028781,17.6537377 C5.68550497,18.3198219 5.47200419,18.9906979 5.30873888,19.6644492 C5.14652015,20.3382005 5.04604919,20.995659 5.00941915,21.6358665 C5.00313972,21.6761191 5,21.7154132 5,21.7556658 L5,21.8860074 C5,22.239655 5.04918891,22.5933025 5.14756672,22.9469501 C5.24594453,23.3005976 5.39665097,23.6178261 5.59968603,23.8976773 C5.80272109,24.1775285 6.05913134,24.4046679 6.36996337,24.5781373 C6.6807954,24.7506483 7.05128205,24.8378622 7.48142334,24.8378622 C7.85609628,24.8378622 8.24646782,24.7544819 8.65253794,24.5877213 C9.05860806,24.421919 9.46153846,24.2062803 9.86132915,23.9427218 C10.2600733,23.6791634 10.6514914,23.3830195 11.0324437,23.0523734 C11.4144427,22.7217274 11.7671376,22.3901229 12.0936682,22.0566016 C11.9827316,22.3699966 11.8581894,22.7255609 11.7200419,23.1223362 C11.5818943,23.5200699 11.4521193,23.9024693 11.33281,24.2733679 C11.2135008,24.6442665 11.1098901,24.975871 11.0240712,25.2691397 C10.9382522,25.5633668 10.892203,25.7636712 10.8859236,25.870053 C10.8796442,25.9227647 10.8765044,25.9726012 10.8765044,26.0195625 L10.8765044,26.1594881 C10.8765044,26.4795918 10.9215071,26.7000226 11.0104657,26.8198219 C11.0994244,26.9396212 11.2428048,27 11.4395604,27 C11.55573,27 11.6698064,26.9616642 11.7807431,26.8849927 C11.8916797,26.8083211 11.9931973,26.7115233 12.0852957,26.5945992 C12.177394,26.477675 12.2569335,26.3550006 12.3249608,26.2246589 C12.392988,26.0943173 12.4421769,25.9754764 12.4725275,25.8690946 C12.4850863,25.8355508 12.5185767,25.729169 12.574045,25.5489909 C12.6295133,25.3678543 12.6985871,25.1445484 12.7812664,24.8781148 C12.8639456,24.6116811 12.9581371,24.3126621 13.0627943,23.9829744 C13.1674516,23.6523283 13.2762951,23.3159319 13.3903715,22.9718683 C13.5034014,22.6287631 13.614338,22.2914083 13.722135,21.9617206 C13.8288854,21.6320329 13.9293564,21.3330139 14.0214547,21.0665802 C14.1135531,20.8001466 14.192046,20.5787575 14.2569335,20.4014545 Z" id="gulp"></path>
            </g>
        </g>
    </g>
</svg>