<?xml version="1.0" encoding="UTF-8"?>
<svg width="17px" height="25px" viewBox="0 0 17 25" version="1.1" xmlns="http://www.w3.org/2000/svg" xmlns:xlink="http://www.w3.org/1999/xlink">
    <!-- Generator: Sketch 50.2 (55047) - http://www.bohemiancoding.com/sketch -->
    <title>heroku</title>
    <desc>Created with Sketch.</desc>
    <defs></defs>
    <g id="Componentes" stroke="none" stroke-width="1" fill="none" fill-rule="evenodd">
        <g id="Logos-de-cursos" transform="translate(-2071.000000, -666.000000)" fill="#323232" fill-rule="nonzero">
            <g id="Group-42" transform="translate(2071.000000, 666.000000)">
                <path d="M10.9756706,25 L10.9756706,11.3280233 C10.9756706,11.3280233 11.8649622,8.05625488 0.0217032729,12.6664641 C0,12.7249544 0,0.0238736001 0,0.0238736001 L3.86969355,0 L3.86969355,8.13775067 C3.86969355,8.13775067 14.7046185,3.87034465 14.7046185,11.3741427 L14.7046185,25 L10.9757791,25 L10.9756706,25 Z M13.1807232,4.92512371 L9.07620019,4.92512371 C10.5536505,3.11876031 11.8911147,0.0237650838 11.8911147,0.0237650838 L16.1351897,0.0237650838 C16.1351897,0.0237650838 15.4085641,2.04075875 13.1808317,4.92512371 L13.1807232,4.92512371 Z M0.070318604,24.9763434 L0.070318604,17.1905113 L3.96366872,21.0837529 L0.070318604,24.9763434 Z" id="heroku"></path>
            </g>
        </g>
    </g>
</svg>