<?xml version="1.0" encoding="UTF-8"?>
<svg width="42px" height="42px" viewBox="0 0 42 42" version="1.1" xmlns="http://www.w3.org/2000/svg" xmlns:xlink="http://www.w3.org/1999/xlink">
    <!-- Generator: Sketch 50.2 (55047) - http://www.bohemiancoding.com/sketch -->
    <title>instagram</title>
    <desc>Created with Sketch.</desc>
    <defs></defs>
    <g id="00-Home" stroke="none" stroke-width="1" fill="none" fill-rule="evenodd">
        <g id="00-E-Home-1920" transform="translate(-1806.000000, -6970.000000)" fill="#FFFFFF" fill-rule="nonzero">
            <g id="Footer" transform="translate(-679.000000, 6373.000000)">
                <g id="Group-32">
                    <g id="Group-27" transform="translate(725.000000, 389.000000)">
                        <g id="Group-37" transform="translate(0.000000, 208.000000)">
                            <g id="Group-23" transform="translate(1760.000000, 0.000000)">
                                <path d="M16.8,11 L25.2,11 C28.4032,11 31,13.59675 31,16.8 L31,25.19998 C31,28.40328 28.4032,30.99998 25.2,30.99998 L16.8,30.99998 C13.59675,30.99998 11,28.40328 11,25.19998 L11,16.8 C11,13.59675 13.59675,11 16.8,11 Z M16.6,12.99998 C14.61177,12.99998 13,14.61176 13,16.59998 L13,25.39998 C13,27.38818 14.61177,28.99998 16.6,28.99998 L25.4,28.99998 C27.3882,28.99998 29,27.38818 29,25.39998 L29,16.59998 C29,14.61176 27.3882,12.99998 25.4,12.99998 L16.6,12.99998 Z M26.25,14.49998 C26.9404,14.49998 27.5,15.05963 27.5,15.74998 C27.5,16.44034 26.9404,16.99998 26.25,16.99998 C25.5596,16.99998 25,16.44034 25,15.74998 C25,15.05963 25.5596,14.49998 26.25,14.49998 Z M21,15.99998 C23.7614,15.99998 26,18.23856 26,20.99998 C26,23.76138 23.7614,25.99998 21,25.99998 C18.23857,25.99998 16,23.76138 16,20.99998 C16,18.23856 18.23857,15.99998 21,15.99998 Z M21,17.99998 C19.3431,17.99998 18,19.34318 18,20.99998 C18,22.65688 19.3431,23.99998 21,23.99998 C22.6569,23.99998 24,22.65688 24,20.99998 C24,19.34318 22.6569,17.99998 21,17.99998 Z M21,41.5 C9.67816263,41.5 0.5,32.3218374 0.5,21 C0.5,9.67816263 9.67816263,0.5 21,0.5 C32.3218374,0.5 41.5,9.67816263 41.5,21 C41.5,32.3218374 32.3218374,41.5 21,41.5 Z M21,40.5 C31.7695526,40.5 40.5,31.7695526 40.5,21 C40.5,10.2304474 31.7695526,1.5 21,1.5 C10.2304474,1.5 1.5,10.2304474 1.5,21 C1.5,31.7695526 10.2304474,40.5 21,40.5 Z" id="instagram"></path>
                            </g>
                        </g>
                    </g>
                </g>
            </g>
        </g>
    </g>
</svg>