<?xml version="1.0" encoding="UTF-8"?>
<svg width="24px" height="25px" viewBox="0 0 24 25" version="1.1" xmlns="http://www.w3.org/2000/svg" xmlns:xlink="http://www.w3.org/1999/xlink">
    <!-- Generator: Sketch 50.2 (55047) - http://www.bohemiancoding.com/sketch -->
    <title>javascript</title>
    <desc>Created with Sketch.</desc>
    <defs></defs>
    <g id="Componentes" stroke="none" stroke-width="1" fill="none" fill-rule="evenodd">
        <g id="Logos-de-cursos" transform="translate(-172.000000, -352.000000)" fill="#FFFFFF" fill-rule="nonzero">
            <g id="Group-5" transform="translate(172.000000, 345.000000)">
                <path d="M2.15823096,29.4776939 L0,7 L23.2508579,7.00857927 L21.1107634,29.4605353 L11.6072926,32 L2.15823096,29.4776939 Z M18.8709186,25.0164722 L19.4966242,17.8184626 L14.8718436,18.3074811 L14.8718436,14.4639671 L19.8049429,14.4468085 L20.0044433,11.8215511 L12.5594533,11.8558682 L12.6592035,21.4131778 L17.1570293,20.6839396 L17.0935519,22.8115992 L12.5594533,23.9526424 L12.6047943,26.5607412 L18.8709186,25.0164722 Z M3.93559764,24.8191489 L10.754882,26.5607412 L10.754882,11.8301304 L8.4424917,11.8301304 L8.41528711,23.3435141 C7.92408028,23.2240881 7.05935939,23.0042432 5.82112444,22.6839792 L5.82112444,20.8825726 C4.54499136,20.6499422 3.91345969,20.5336271 3.92652944,20.5336271 L3.93559764,24.8191489 Z" id="javascript"></path>
            </g>
        </g>
    </g>
</svg>