<?xml version="1.0" encoding="UTF-8"?>
<svg width="25px" height="23px" viewBox="0 0 25 23" version="1.1" xmlns="http://www.w3.org/2000/svg" xmlns:xlink="http://www.w3.org/1999/xlink">
    <!-- Generator: Sketch 50.2 (55047) - http://www.bohemiancoding.com/sketch -->
    <title>koa</title>
    <desc>Created with Sketch.</desc>
    <defs></defs>
    <g id="Componentes" stroke="none" stroke-width="1" fill="none" fill-rule="evenodd">
        <g id="Logos-de-cursos" transform="translate(-2462.000000, -131.000000)" fill="#323232">
            <g id="Group-45" transform="translate(2462.000000, 126.000000)">
                <path d="M21.893552,17.6048175 C22.2162646,17.6345065 22.5387453,17.6643501 22.8611487,17.6941163 C22.8742956,17.6585423 22.8875199,17.6229682 22.9006668,17.5873168 C22.8367108,17.5597856 22.7715948,17.5188368 22.7071749,17.4860758 C22.7715948,17.5188368 22.8367108,17.5597856 22.9006668,17.5873168 C22.8875199,17.6229682 22.8742956,17.6585423 22.8611487,17.6941163 C22.5386621,17.6643424 22.2160983,17.6344911 21.8936117,17.6047945 Z M20.5610347,17.6877845 C20.7313648,17.7092353 20.9086358,17.7315464 21.099769,17.7555976 C20.904885,17.7715286 20.7659915,17.7828195 20.627098,17.7941877 C20.627098,17.8255857 20.627098,17.8569836 20.6271754,17.8884589 C20.771869,17.9009099 20.9280081,17.9541936 21.0590135,17.9174595 C21.3437606,17.8375726 21.6157474,17.7117487 21.892993,17.6047172 C21.8931115,17.6047698 21.8932205,17.604774 21.8933024,17.6047945 C21.8933856,17.6048022 21.8934688,17.6048098 21.893552,17.6048175 Z M8.11408024,10.5965962 C8.14298731,10.5561339 8.17399049,10.5112515 8.19883819,10.4793888 C8.19886064,10.4794188 8.19888309,10.4794488 8.19890556,10.4794789 C8.19891746,10.4794681 8.19891862,10.4794785 8.19891904,10.4794969 C8.19891904,10.4794969 8.19891904,10.4794969 8.19891904,10.4794969 C8.19893556,10.4802158 8.19783284,10.4931544 8.19783284,10.4931544 C8.20258237,10.4940959 8.2073356,10.495026 8.21209218,10.4959459 C8.26078625,10.5534412 8.33860691,10.6169105 8.32930217,10.6625178 C8.25042057,11.048419 8.0497365,11.4487044 8.56084286,11.708163 C8.63090828,11.7437371 8.67421582,11.840251 8.71930207,11.9148792 C8.82934964,12.0973896 8.93321041,12.283612 8.99693436,12.3943556 C9.07979871,12.2998524 9.15877698,12.2153253 9.23233213,12.1332536 C9.15877698,12.2153253 9.07979871,12.2998524 8.99693436,12.3943556 C8.93321041,12.283612 8.82934964,12.0973896 8.71930207,11.9148792 C8.67421582,11.840251 8.63090828,11.7437371 8.56084286,11.708163 C8.0497365,11.4487044 8.25042057,11.048419 8.32930217,10.6625178 C8.33860996,10.6168956 8.26073521,10.5533996 8.21210292,10.495948 C8.20734275,10.4950274 8.20258595,10.4940966 8.19783284,10.4931544 C8.19872105,10.4917557 8.1995998,10.4903638 8.20046913,10.4889786 C8.20133166,10.4876042 8.20218826,10.4862311 8.20303557,10.4848646 C8.20236332,10.484008 8.20169946,10.4831531 8.20104439,10.4823001 C8.20171129,10.4831471 8.2023726,10.4839995 8.20304231,10.4848537 C8.38175747,10.1966223 8.1473149,10.2031427 7.97456698,10.2025298 C7.84943911,10.2020658 7.72415657,10.2553496 7.59539396,10.2855102 C7.60962358,10.3304418 7.61039693,10.4100194 7.65006974,10.4432734 C7.76607209,10.540406 7.89282399,10.6291092 8.02854674,10.6932971 C8.03937489,10.6984216 8.07480027,10.6515786 8.11411091,10.5965888 Z M6.58807633,18.2771905 C6.54359507,18.3044504 6.49911221,18.3317087 6.45462684,18.3589645 C6.49915973,18.3317388 6.54363375,18.3044753 6.58809596,18.2772183 Z M12.2995213,15.4759194 C11.857011,15.4892983 11.5831681,15.2914756 11.3818654,14.9623383 C11.2539534,14.7530701 11.1033824,14.6706311 10.837041,14.7668357 C10.6856966,14.8215115 10.4850125,14.7215948 10.3076063,14.7271629 C10.1009674,14.733659 9.88110428,14.7427845 9.69372182,14.8177994 C9.50053924,14.8950569 9.33960531,15.0528975 9.18895692,15.1583823 C9.20372789,15.4190782 9.19676775,15.6694113 9.23613121,15.9122429 C9.32421566,16.4555206 9.75620842,16.6598394 10.2018121,16.8426591 C10.7124545,17.0521593 10.9084211,16.9902914 11.2411932,16.5192445 C11.5236202,16.1192684 11.7245363,15.6363893 12.2995213,15.4759194 Z M8.20858239,13.876943 C8.71644068,13.5737902 8.76701771,13.3656819 8.42233605,13.1374667 C8.47283574,12.9776928 8.52070605,12.826271 8.5613842,12.6975084 C8.31971264,12.5868422 8.11013506,12.4910242 7.83505482,12.365123 L8.57538182,12.365123 C8.37724981,12.0691623 8.21840392,11.8170506 8.04208035,11.5778537 C7.98949262,11.5064736 7.86815416,11.4871399 7.81193168,11.4170745 C7.56631604,11.1104416 7.40963553,11.0870864 7.23238394,11.428984 C7.01538221,11.8473658 6.8653525,12.3018631 6.70720263,12.7482401 C6.68307414,12.8160628 6.75631029,12.9339985 6.80998071,13.0111014 C7.00548334,13.2917498 7.2387254,13.549507 7.40770216,13.8445397 C7.66020061,14.2855806 8.03937363,14.48727 8.61946272,14.3887453 C8.47244907,14.2056163 8.3406704,14.0414343 8.20858239,13.876943 Z M6.15843418,16.4648781 C6.36638772,16.6302201 6.54015924,16.8801665 6.69165831,16.8673289 C7.1006826,16.8326055 7.50011736,16.6861332 8.00178886,16.559072 C7.778291,16.445003 7.65911792,16.3841405 7.47397817,16.2896372 C7.68371042,16.3095896 7.81989718,16.3225819 7.92267526,16.3323261 C7.8802184,16.0350507 7.84278831,15.7726534 7.80528088,15.5103334 C7.92290727,15.6573471 7.92708335,15.8250091 7.98276448,15.9733375 C8.01331176,16.0547711 8.13078348,16.1035694 8.2090464,16.1670614 C8.26673823,16.0802916 8.37446575,15.9908151 8.36990299,15.9074481 C8.36356153,15.7923738 8.29929623,15.652475 8.21329982,15.5745987 C7.72686329,15.1342538 7.23006389,14.7052771 6.72723237,14.2837246 C6.65422822,14.2224753 6.47612595,14.1681862 6.43993321,14.2043016 C6.34017119,14.3035996 6.2717298,14.4469012 6.22749424,14.58448 C6.20382976,14.6579481 6.26360964,14.7550808 6.27180714,14.8427785 C6.29005818,15.0386679 6.29949303,15.2354078 6.31256263,15.4317612 C6.27559655,15.4358599 6.23855313,15.4399587 6.20158705,15.4439801 C6.30359178,15.6888224 6.40567385,15.9336647 6.5181188,16.2036408 C6.43088503,16.2669781 6.33321105,16.3379715 6.15843418,16.4648781 Z M16.432453,17.4198868 C16.4506267,17.4888695 16.4979557,17.5666684 16.4762246,17.6027838 C16.3571289,17.8007612 16.4630003,17.9403507 16.6216915,17.9799461 C16.7450407,18.0108027 16.9355939,17.9636285 17.0287825,17.8778641 C17.1544517,17.7620937 17.2485683,17.5853061 17.2958972,17.4176441 C17.3563731,17.2031944 17.3567598,16.9718084 17.3830536,16.7477692 C17.1738627,16.6307614 17.0370573,16.4576086 16.8911263,16.2922666 C16.8260104,16.2185664 16.7528515,16.1369008 16.6659271,16.1003214 C16.4084019,15.9919752 16.1476286,15.8827783 15.8778071,15.8151876 C15.6481225,15.7577278 15.4041309,15.7575731 15.1094849,15.7259431 C15.2305914,15.9389234 15.3026675,16.0541524 15.3635301,16.1749495 C15.5031195,16.4523498 15.6344342,16.7340035 15.7744877,17.0111718 C15.9308589,17.3204341 16.0707577,17.1875727 16.2081045,16.9632242 C16.3038451,17.381142 16.6503055,17.1895061 16.8918997,17.2451099 C16.892441,17.2781319 16.8929824,17.3111539 16.8934464,17.3441759 C16.759193,17.3662164 16.6249396,17.3882568 16.432453,17.4198868 Z M12.7882779,14.9262229 C12.8680101,14.8181087 13.0365229,14.6568654 13.1122338,14.4598935 C13.1513652,14.3580434 13.0625848,14.1145931 12.9681588,14.0702029 C12.5778496,13.8867645 12.1811216,13.500786 11.7302591,13.9727609 C11.7035785,14.0007562 11.6261663,13.9731476 11.5815441,13.9925587 C11.4130313,14.0657948 11.2483853,14.1478471 11.1278202,14.2049976 C11.3660117,14.4333676 11.5561009,14.6156459 11.7282484,14.780756 C11.6548576,14.8300183 11.5931443,14.8713925 11.5314311,14.912844 C11.6985518,15.0430759 11.8473441,15.2270557 12.036892,15.2917076 C12.3786349,15.4083287 12.6210798,15.3163001 12.7000387,15.1518088 C12.5150537,15.0897089 12.3241138,15.0256756 12.1330966,14.961565 C12.1422994,14.9239802 12.1515796,14.8862408 12.1607825,14.8485787 C12.3397354,14.8706964 12.5187657,14.8928142 12.7882779,14.9262229 Z M13.4689797,25.7867497 C13.8441313,25.8957919 14.1758206,26.0130316 14.5170222,26.0851077 C14.8305379,26.151229 15.1556538,26.2021154 15.4727269,26.1888911 C15.5779024,26.1844831 15.7578607,25.9600572 15.7571647,25.8370173 C15.7554633,25.5569103 15.3591993,25.2687605 15.0702761,25.21045 C14.4145535,25.0782073 13.9649284,25.4682845 13.4689797,25.7867497 Z M7.72469029,18.9474821 C7.60645633,18.9341333 7.48828755,18.9207916 7.37027207,18.9075009 C7.35374449,19.0558922 7.37862016,19.1878606 7.43605163,19.2943614 C7.54034698,19.4878317 7.7521733,19.5972891 8.01841587,19.568405 C8.29450146,19.5384764 8.6551141,19.0101243 8.53818373,18.7849251 C8.4047037,18.5277866 8.24477512,18.2844136 8.11431114,18.0654012 C7.96296674,18.1476855 7.79515001,18.2224684 7.64705368,18.3255558 C7.54976637,18.3933012 7.48101564,18.5019567 7.39950466,18.5923612 C7.51218161,18.6768109 7.61797575,18.7737115 7.74001023,18.8409929 C7.81401973,18.8817484 7.91316307,18.876799 8.00109285,18.8923433 L7.98717257,18.9771023 C7.89964553,18.9672346 7.8121185,18.9573528 7.72466286,18.9474809 Z M18.0281814,16.9233194 C17.781251,17.3417012 17.7851178,17.6420699 18.0448084,17.6948123 C18.4586274,17.7788754 18.881572,17.8286017 19.3031246,17.8580663 C19.4402393,17.8676558 19.5850103,17.7685898 19.7262238,17.7191728 C19.7218157,17.6861508 19.7172529,17.6531288 19.7127675,17.6201068 C19.1499241,17.3872514 18.5870807,17.1544734 18.0281814,16.9233194 Z M10.9158461,12.5087626 C10.8126078,12.5189799 10.7246292,12.5771072 10.6652028,12.724653 C10.6532159,12.7544269 10.6464105,12.7862115 10.6297061,12.84197 C10.7480285,12.8485435 10.8453158,12.8538796 10.9392777,12.859061 C10.8317049,13.0353846 10.4468091,12.923481 10.5646675,13.3494416 C10.6790458,13.762874 11.0015323,13.6965207 11.2566602,13.7363481 C11.3402592,13.7493404 11.4666244,13.4881031 11.5896642,13.3317319 C11.6822341,13.3257771 11.8490455,13.3150276 12.0849169,13.2997926 C11.8571915,13.0227151 11.4963646,13.0235705 11.3100758,12.8329012 C11.247461,12.7685654 11.204545,12.6826036 11.1931682,12.5569909 C11.0953285,12.5240061 11.0004538,12.5002926 10.9158425,12.5087141 Z M5.83649385,12.2988316 C5.53320311,11.9906392 5.14486514,11.9255868 4.7662513,12.166295 C4.84876764,12.3841474 4.93027862,12.5991384 5.01171227,12.8141294 C5.04805967,12.8157535 5.08432974,12.8173775 5.12067715,12.8190015 C5.1775183,12.6695132 5.23443678,12.5201021 5.33226543,12.2631183 C5.35144449,12.5878475 5.36466876,12.8106494 5.37681034,13.0158962 C5.68019515,13.0650812 5.98381197,13.1142662 6.28696478,13.1634512 C6.28705861,13.1634163 6.28716637,13.1634337 6.28727412,13.1634512 C6.18740256,12.7879569 6.0290841,12.4944026 5.83653354,12.2988 Z M8.52805286,13.9245039 C8.76980176,14.0339328 8.93042635,14.1724396 9.05857028,14.1470738 C9.20094383,14.1188465 9.37896877,13.9629394 9.42552438,13.8238912 C9.5168569,13.550667 9.52791579,13.2506076 9.58614897,12.8708933 C9.40936139,12.9509349 9.17542331,12.9993465 9.03521514,13.1406374 C8.94179458,13.234754 8.98208606,13.4614999 8.95904026,13.6587812 C8.8935376,13.69915 8.76469766,13.7786503 8.52805286,13.9245039 Z M15.8577001,14.5584955 C15.8136965,14.5245454 15.7635835,14.4550987 15.724452,14.4608215 C15.45958,14.4992569 15.1875932,14.5272522 14.9383428,14.615878 C14.8389674,14.65122 14.7441548,14.8290903 14.7364213,14.9478767 C14.7312399,15.0282276 14.86588,15.1545155 14.9652553,15.1982098 C15.3068436,15.3480848 15.4028935,14.9600956 15.6342022,14.8561575 C15.7267721,14.8145513 15.7748744,14.6741885 15.8577001,14.5584955 Z M3.51497261,16.3644201 C3.35844677,16.3816657 3.1247407,16.3487211 2.96473479,16.4420643 C2.81315838,16.5304581 2.72894068,16.7462998 2.63985087,16.9189113 C2.62507991,16.9476025 2.73087405,17.0890481 2.79119527,17.0966269 C2.97811373,17.1203687 3.17508572,17.1296489 3.35759608,17.0926055 C3.43663235,17.0765198 3.5244848,16.9411064 3.54590657,16.8457525 C3.57243244,16.7281261 3.53399699,16.5958061 3.51497261,16.3644201 Z M7.07957018,11.2282226 C6.71037336,11.2780263 6.51610809,11.5473838 6.34736334,11.8008102 C6.27930863,11.903047 6.34256857,12.1101498 6.38479343,12.2585555 C6.39902305,12.3088232 6.58045073,12.3723925 6.60272318,12.349424 C6.71207473,12.2369017 6.82134894,12.1082165 6.87826743,11.9645282 C6.96225313,11.7523986 7.00192594,11.5227913 7.07957018,11.2282226 Z M3.65858352,18.0450621 C3.47189707,18.2790002 3.25056458,18.5564005 3.00572229,18.863188 C3.31320585,18.814003 3.60042767,18.7810584 3.87983867,18.7147823 C3.95578154,18.6967633 4.04030859,18.5866384 4.06064766,18.5039674 C4.07603731,18.4414808 4.00952929,18.3421055 3.95415751,18.2829443 C3.87388388,18.1973345 3.77071912,18.1331466 3.65858352,18.0450621 Z M12.5845777,11.7634575 C12.5873618,11.7819405 12.5901458,11.8003462 12.5930072,11.8186746 C12.713727,11.8507686 12.8345241,11.8829399 12.8932213,11.8986389 C13.0029595,11.725022 13.0946014,11.5800964 13.2002409,11.4132077 C12.994762,11.1476397 12.4764635,11.047491 12.1021626,11.2900132 C12.3313059,11.4479311 12.5445956,11.5949447 12.7479864,11.7350756 C12.7028228,11.7429637 12.6436616,11.7532493 12.5845777,11.7634575 Z M19.1257183,11.1134576 C19.1560336,11.3067949 19.1366225,11.5692695 19.2144214,11.6022142 C19.4010305,11.6812505 19.6332672,11.6525592 19.8562238,11.6679489 C19.8732374,11.46131 19.8881631,11.2789543 19.9062594,11.0600192 C19.6250697,11.0792756 19.4011852,11.0945879 19.1257183,11.1134576 Z M6.20792851,10.8132436 C6.17799991,10.8691567 6.1480713,10.9250698 6.11814269,10.9809056 C6.232057,11.1020121 6.38819617,11.343529 6.45192012,11.3211792 C6.63597719,11.2567592 6.78283616,11.0860811 6.94431143,10.9570865 C6.92358568,10.9091388 6.90278259,10.8611912 6.8819795,10.8132436 L6.20792851,10.8132436 Z M18.4621848,14.4271808 C18.4822919,14.4019696 18.502399,14.3766811 18.5225834,14.3514699 C18.4604061,14.2672522 18.3974555,14.1107264 18.336361,14.1114997 C18.0814651,14.1145158 17.827188,14.1648608 17.5422862,14.2017496 C17.8353855,14.847496 18.1867953,14.2284301 18.4621848,14.4271808 Z M16.08607,14.223094 C16.0857607,14.2503932 16.085374,14.2775378 16.0850647,14.304837 C16.2718285,14.406223 16.4500081,14.5395484 16.6496094,14.5935282 C16.7305791,14.6154139 16.8581817,14.4647656 16.9645945,14.3926121 C16.9065933,14.3128025 16.8501388,14.1664075 16.7902816,14.1650155 C16.5561116,14.1595247 16.3208588,14.1998162 16.08607,14.223094 Z M4.33116515,10.8103822 C4.23851794,10.9572411 4.06845849,11.1064975 4.08029073,11.2397455 C4.093747,11.3915539 4.24872614,11.5547306 4.38282486,11.6623808 C4.45513299,11.7204593 4.61227751,11.6727436 4.73121859,11.6727436 C4.11199804,11.5655575 4.80546009,10.9520597 4.33116515,10.8103822 Z M10.5512112,12.3800486 C10.8532813,12.1092218 11.1145186,11.8750517 11.3936976,11.624796 C10.82343,11.544445 10.5044236,11.8054503 10.5512112,12.3800486 Z M13.2574687,13.9385789 C13.3016269,13.5877104 13.108831,13.4249978 12.8431083,13.3779009 C12.7187538,13.3559378 12.5695748,13.4736415 12.4316866,13.5279306 C12.4421268,13.56451 12.4525671,13.6010121 12.4630073,13.6376688 C12.7190631,13.7346468 12.9751963,13.8317021 13.2574687,13.9385789 Z M11.2936262,12.3685257 C11.6724126,12.5554442 11.8801341,12.3539868 12.054447,12.0635942 C11.6503721,11.8305842 11.4097059,11.9568721 11.2936262,12.3685257 Z M17.2439282,14.8706964 C17.2222744,14.8314877 17.2006979,14.7922789 17.1791215,14.7530701 C16.9161828,14.9114519 16.6533215,15.0696791 16.3517927,15.2513388 C16.8946064,15.4579777 16.8990145,15.4558123 17.2439282,14.8706964 Z M18.0549393,16.6402736 C18.5406024,16.8288935 18.7627083,16.7497025 18.9158314,16.3678228 C18.7135233,16.3496491 18.519722,16.3323261 18.2217506,16.3056455 C18.3741777,16.3900179 18.4334163,16.4228079 18.4690677,16.442451 C18.3416971,16.5033909 18.2239934,16.559536 18.0549393,16.6402736 Z M17.992066,14.7882574 C17.7595973,14.8159433 17.5802576,14.7928202 17.4643326,14.8677577 C17.3947312,14.9127666 17.4240411,15.110744 17.4060221,15.2634031 L17.8731249,15.2634031 C17.9037495,15.1409819 17.9338328,15.0208808 17.992066,14.7882574 Z M5.69921954,13.8097389 C5.99216414,13.8923326 6.24466259,13.9634034 6.49716104,14.0345515 C6.13453769,13.4560091 6.10754781,13.4501317 5.69921954,13.8097389 Z M18.5802752,15.8331293 L19.4681572,15.8331293 C19.4711733,15.8027367 19.4740347,15.7724214 19.4768961,15.7421061 C19.3675445,15.6608271 19.2581156,15.5794708 19.1357718,15.4886023 C18.9736779,15.5891377 18.8137493,15.688281 18.5802752,15.8331293 Z M10.5677609,25.5218776 C10.5379096,25.4902477 10.5081357,25.4586177 10.4782844,25.4269877 C10.2359168,25.7132042 9.99354923,25.9994206 9.75125898,26.2856371 C9.76471526,26.2983974 9.7783262,26.3111576 9.79185981,26.3239179 C10.0504677,26.0565711 10.3090756,25.7892244 10.5677609,25.5218776 Z M20.6013455,17.136145 C20.6016549,17.1847887 20.6018869,17.233355 20.6021962,17.2819986 L21.2518094,17.2819986 C21.0437785,17.0099345 20.8320355,16.889756 20.6013455,17.136145 Z M14.3643631,13.9301494 C14.6095921,13.861012 14.8275219,13.7994534 15.1370161,13.7121423 C14.6073494,13.4608812 14.4038039,13.5220531 14.3643631,13.9301494 Z M23.6260682,17.038703 C23.4400777,16.8880547 23.3422491,16.788602 23.224468,16.7279714 C23.1956221,16.7130458 23.1014282,16.8249494 23.0372402,16.8785425 C23.1197566,16.9670909 23.1896673,17.0779118 23.290048,17.1348303 C23.3407024,17.1634442 23.4467285,17.0940748 23.6260682,17.038703 Z M9.46125311,12.3247542 C9.68583366,12.498139 9.84529822,12.6213335 10.0360061,12.7685792 C10.111485,12.3252182 10.0755242,12.2979963 9.46125311,12.3247542 Z M21.8923049,17.6048701 C21.8923003,17.6048711 21.8922976,17.6048717 21.8922971,17.6048718 Z M4.4522716,17.1036644 C4.28553755,17.1598868 4.18206346,17.1946102 4.0786667,17.2294109 C4.07959471,17.2007197 4.0804454,17.1719511 4.08137342,17.1432598 C3.98926755,17.1144139 3.89159357,17.0496846 3.80582917,17.0627542 C3.35906545,17.1309636 2.91763783,17.2390778 2.46940475,17.2905828 C2.27745953,17.3125459 2.07468742,17.2147946 1.87493137,17.2021117 C1.74895282,17.1940689 1.61949419,17.2428672 1.4273943,17.2778999 C1.40249246,17.1528494 1.37008914,16.9902914 1.33173103,16.7974182 C1.23312903,16.7889887 1.12192144,16.7792445 1.01071386,16.7697323 C0.726894772,16.7453718 0.722332013,16.5231886 0.767031586,16.3435396 C0.785514627,16.2693755 0.982718623,16.2293933 1.10459843,16.1945926 C1.19376557,16.1692268 1.29259957,16.1754136 1.38725749,16.1718561 C1.51640677,16.1670614 1.71198674,16.1107616 1.76411046,16.1729388 C2.06880997,16.5365675 2.28457434,16.2249079 2.6363708,16.0728675 C2.28944644,15.985479 2.03447327,15.9212911 1.74709678,15.8489829 C1.89913719,15.5646998 2.06254584,15.4147475 2.38278966,15.4129688 C2.51742972,15.4122728 2.6509871,15.2255863 2.81632911,15.0996078 C2.88971994,15.3366392 3.42657881,15.4906903 2.87402095,15.7983286 C2.83682286,15.818977 2.83117742,15.9973113 2.87077288,16.0301786 C2.925758,16.0758835 3.07331299,16.0935932 3.11870858,16.0530697 C3.31830995,15.8751221 3.35063594,15.9285606 3.46810766,16.1583999 C3.57598984,16.3692922 3.87589459,16.4732303 4.05879163,16.6566686 C4.32961845,16.9285008 4.56742327,16.8624568 4.84459155,16.6334682 C4.70438338,16.4259013 4.51932096,16.1784296 5.01712571,16.2096729 C4.98928515,16.0754969 4.96438331,15.9550864 4.95309242,15.900488 C5.1055195,15.7881204 5.22012983,15.6497682 5.36180737,15.6114875 C5.59582277,15.5483822 5.56040339,15.2251223 5.8456145,15.1980551 C6.00252702,15.1831294 6.13391901,14.3186799 5.98845206,14.2550333 C5.7649542,14.1574367 5.48678056,14.1103397 5.24758372,14.1464551 C5.05161708,14.175997 4.80097467,14.3165146 4.71265821,14.4817019 C4.5559777,14.7746465 4.39225972,14.7367524 4.1544549,14.6455746 C4.03010038,14.5979363 3.88540678,14.6032724 3.73553174,14.5827013 C3.8238482,14.4843313 3.89445496,14.4058364 3.96691776,14.3252534 C4.06203969,14.6314996 4.26682251,14.5810772 4.47593608,14.4387037 C4.66030248,14.3131118 4.83005259,14.1660208 5.02748859,14.0118924 C4.90073669,13.9941054 4.79571589,13.9794117 4.72441312,13.9694355 C4.8373994,13.7787277 5.07945764,13.5151703 5.02802993,13.4311846 C4.8271912,13.1028206 4.50076058,12.8947124 4.04402066,12.9377879 C4.0986191,12.5392812 3.89870838,12.4712265 3.55518675,12.4520474 C3.11468716,12.4275323 2.64309894,12.3785793 2.25356304,12.1948316 C1.89820918,12.0271695 1.50905996,12.0321189 1.18239734,11.8660809 C0.88767403,11.7162059 0.655978668,11.4424403 0.384842507,11.2136063 C0.748780549,10.8451055 1.10722781,10.6226904 1.21990476,10.1954924 C1.23861981,10.1244216 1.35879824,10.0197101 1.4156394,10.029145 C1.741374,10.0833568 2.02093966,10.0408226 2.25201635,9.77912127 C2.28805441,9.73836578 2.39524058,9.75855018 2.46979143,9.75391009 C2.66034462,9.74207785 2.85097515,9.73210165 3.04160568,9.72142943 C3.04299771,9.68438601 3.04446707,9.6473426 3.0458591,9.61029918 C3.17817911,9.68175663 3.31042179,9.75321408 3.44305115,9.82482619 C3.5741338,9.55755678 3.30469901,9.37210769 2.62090382,9.2511559 C2.5721055,8.62048979 3.13108216,8.26273854 3.31003512,7.74080529 C3.83854183,7.78457685 4.2829855,7.63276844 4.69657255,7.28073997 C4.85967186,7.14184649 5.16429403,7.16148955 5.40704828,7.12738486 C5.51895188,7.11168588 5.63711961,7.14037713 5.79828554,7.15236404 C5.67547772,6.80922908 5.77052231,6.68897331 6.07978458,6.73274487 C6.18132531,6.74705182 6.31619737,6.72269133 6.39546565,6.66260211 C6.7058106,6.42758135 6.98398424,6.49656408 7.18984974,6.65595131 C7.76437072,6.41567177 8.30068826,6.19565398 8.83282971,5.96573732 C8.96700576,5.90781348 9.1711699,5.84099613 9.1993198,5.73868205 C9.30348991,5.36012772 9.72511979,5.31102005 9.89386454,5.01072864 C9.90948619,4.98296541 10.0356967,5.01722477 10.1105569,5.02263821 C9.96849272,5.26577914 10.2378502,5.21698082 10.3059049,5.25147218 C10.5997775,5.40049653 10.8665056,5.69684387 11.2558095,5.31937222 C11.3615263,5.21682615 11.7770467,5.43367321 12.0825196,5.51216813 C12.2335546,5.40010986 12.4256545,5.2575043 12.6917639,5.05999097 C12.9013415,5.18465483 13.1826085,5.35208489 13.4638756,5.51951495 C13.45127,5.54890221 13.4386644,5.57836681 13.4260588,5.6078314 C13.3527453,5.6009486 13.2794318,5.59398846 13.1608774,5.58292957 C13.288712,5.89938398 13.3915674,6.18799783 13.5266715,6.46052602 C13.5536614,6.51512446 13.7087952,6.5402583 13.7953329,6.52502332 C14.0368498,6.48241179 14.2705559,6.39363133 14.5124595,6.35643324 C14.8039347,6.311579 14.8954219,6.46044868 14.8140656,6.73452357 C14.8016147,6.77643909 14.8023107,6.83134686 14.818783,6.87125167 C14.9125902,7.09815227 14.8856004,7.26697436 14.4686879,7.29102551 C14.8299966,7.4711385 15.0579025,7.5845888 15.3244759,7.71745015 C15.130288,7.85773566 15.4171231,8.27178672 14.9589139,8.22902052 C14.9541191,8.22855651 14.9331613,8.40039466 14.9248865,8.45700381 C15.3159691,8.45700381 15.6687709,8.44764629 16.0203354,8.46342261 C16.1111265,8.46736669 16.1939522,8.56790206 16.2884555,8.59133453 C16.3845054,8.61515368 16.5073906,8.63317271 16.5894429,8.59349991 C16.9638985,8.41253624 17.1614118,8.48523105 17.2993773,8.87925237 C17.5268966,9.03167945 17.9995675,8.55274442 18.0353735,9.22888345 C18.237991,9.10824101 18.3997756,8.96439809 18.5867714,8.91382107 C18.7774019,8.86223869 18.9928569,8.9023755 19.1237076,8.9023755 C19.5226783,9.18913331 19.8777229,9.44441582 20.2954087,9.7446299 C20.1285199,9.92938298 20.0060988,10.0648737 19.8455515,10.2424347 C20.0685081,10.2656351 20.248389,10.2843502 20.4274967,10.3031426 C20.4085496,11.4046235 20.4085496,11.4046235 19.9373481,11.7674016 C20.1108876,11.8264854 20.2727495,11.9408637 20.3531005,11.8989482 C20.790352,11.6709649 21.1540581,11.9518453 21.5396499,12.0413218 C21.6795487,12.0738024 21.7940817,12.216176 21.9201376,12.3083592 C21.9281804,12.2601795 21.9363779,12.2119999 21.9444207,12.1638976 C22.0622018,12.1507507 22.237056,12.0816133 22.2884064,12.1338917 C22.5761695,12.4267589 22.2476509,12.6477047 22.169388,12.9206969 C22.5034747,13.0540223 22.8493164,13.1919878 23.1449677,13.3100008 C23.1449677,13.4418568 23.18959,13.6105242 23.1325168,13.7311667 C23.0747477,13.8532785 22.9292034,13.9559792 22.7985847,14.0151404 C22.6717555,14.0724456 22.515075,14.0637068 22.3714641,14.0838912 C22.4564551,14.2033736 22.5415235,14.3229333 22.5816603,14.3793878 C22.6056341,14.5622849 22.6420589,14.6983943 22.6357174,14.8324157 C22.629376,14.9669784 22.6048608,15.1122133 22.5438436,15.2296851 C22.468442,15.3746107 22.3471809,15.4956398 22.2701553,15.5954018 C22.5646466,15.7881204 22.8057769,15.9459609 23.0723503,16.1205058 C22.8991201,16.2827544 22.5768656,16.4203332 22.9246406,16.8121891 C22.9847298,16.6608447 23.0452057,16.5458477 23.076449,16.4233492 C23.2113211,15.8949972 23.6183347,15.721303 24.2355445,15.9499823 C24.4700239,16.0369067 24.6941405,16.1519811 25,16.2885545 C24.669084,16.4991374 24.4523916,16.6370256 24.2976444,16.7354729 C24.4124868,16.9285782 24.5480548,17.1054431 24.6227604,17.3049671 C24.655937,17.3938249 24.590821,17.611136 24.5289531,17.6293097 C24.0893042,17.758459 23.7368117,18.20414 23.1964728,17.9716713 C23.1858779,18.0022186 23.1752057,18.0329205 23.1645335,18.0635452 C23.3213686,18.1862756 23.4781265,18.3089288 23.6719278,18.4606599 C23.3150272,18.6501304 22.9923086,18.5736462 22.7923979,18.3800769 C22.4936532,18.0909217 23.0840278,18.1122661 23.0255627,17.8177748 C22.5238138,17.7999105 22.0139448,17.5941996 21.4975797,17.9225636 C21.3189361,18.0362459 21.066747,18.0852763 20.8509053,18.0782388 C20.4558786,18.0654012 20.0637133,17.9580603 19.6686866,17.9475428 C19.2646118,17.9367932 18.8589902,18.0015226 18.4533687,18.020779 C18.0784491,18.0384886 17.7023694,18.0335392 17.3276045,18.0531049 C17.2443922,18.0574357 17.1666706,18.1295892 17.0823755,18.1588991 C16.8722566,18.2319806 16.659895,18.2983339 16.3755346,18.3912905 C16.4590563,18.6028014 16.5819414,18.9141517 16.7049039,19.2255794 C16.658735,19.2432891 16.6126434,19.2610761 16.5664744,19.2788631 C16.415826,18.9692915 16.2662603,18.6591012 16.1138333,18.3503803 C16.0579975,18.2372393 16.0160819,18.10693 15.9309362,18.021011 C15.8119178,17.9008325 15.65864,17.7223436 15.5392349,18.0448301 C15.5179678,18.1023673 15.3999548,18.1241757 15.311329,18.1703446 C15.3391696,17.8692025 15.6958381,17.6514275 15.4570279,17.3135513 C15.3597406,17.4205828 15.2817871,17.5063472 15.2038335,17.5921116 C15.1708888,17.5747886 15.1378668,17.5573882 15.1049221,17.5400652 C15.3037502,17.0463592 14.9599192,16.7076323 14.783673,16.3221179 C14.7658859,16.2832957 14.7098955,16.2470257 14.6655826,16.2375135 C14.2520729,16.1488103 13.8403418,16.0439442 13.4222694,15.9867937 C12.7233939,15.8912078 12.1985219,16.2365855 11.9266897,16.8828732 C11.793983,17.1983223 11.4632217,17.4406899 11.5834774,17.7927183 C11.8822995,17.873688 12.1457795,17.992397 12.4137449,18.0037653 C12.6603659,18.0141282 12.911859,17.9088754 13.1393783,17.8594583 C12.9520732,18.2513916 12.6084742,18.2087028 12.2344053,18.1113381 C12.0347266,18.0592917 11.8242983,18.0484648 11.5124067,18.0038426 C11.6975464,18.4677747 11.840384,18.8205765 11.9790455,19.1750023 C12.1191763,19.5331403 12.2551311,19.8929796 12.4413535,20.3781014 C12.5919246,20.0246809 12.7030548,19.7638303 12.8141851,19.503057 C12.8295747,19.5083158 12.8450417,19.5136519 12.8605087,19.518988 C12.792918,19.8618909 12.6726622,20.2045619 12.6704195,20.5479288 C12.6673261,21.0225331 12.6988014,21.5116764 12.8159638,21.968803 C12.9372249,22.4418605 13.0790571,22.8665065 12.9748096,23.3887491 C12.842103,24.0535199 12.9471237,24.7407951 13.2508952,25.4020085 C13.6259695,25.1436326 13.9532508,24.8470533 14.3363679,24.6739778 C14.7237384,24.4989689 15.164702,24.4386477 15.5864866,24.3478565 C15.6527626,24.3336269 15.7509779,24.4128952 15.8184913,24.4682669 C16.135487,24.7282669 16.4469147,24.9950723 16.7827028,25.2782727 C16.8709419,25.2235196 16.987795,25.1511341 17.0362066,25.1210508 C17.2392107,25.2484988 17.3910191,25.4119074 17.5649453,25.4403666 C18.1181219,25.5307711 18.3873247,25.9428115 18.6464739,26.3497477 C18.7796446,26.5587066 18.6214174,26.7112111 18.3917328,26.7461664 C17.5398115,26.8757797 16.6901329,27.0793252 15.8341903,27.1114192 C13.9435839,27.1822579 12.0497296,27.168415 10.1571899,27.1844233 C8.16194944,27.2012823 6.16670901,27.2126506 4.17154591,27.2262615 C4.03203375,27.2271122 3.89259893,27.2263388 3.75308676,27.2263388 C3.75146273,27.1933168 3.74976136,27.1602948 3.74813733,27.1272728 C4.23681657,27.0997416 4.72580514,27.0764638 5.21417504,27.0437511 C6.13863644,26.9818832 7.06974864,26.9616988 7.98400184,26.8279868 C8.39109275,26.7685162 8.80483447,26.6083556 9.11626212,26.2115503 C9.53402525,25.6791768 10.0797776,25.2486534 10.5488138,24.7537874 C10.6686056,24.6274222 10.7385937,24.4295995 10.773781,24.2529666 C10.8256728,23.9927346 10.870063,23.7761196 11.0623176,23.5410988 C11.2862794,23.2673333 11.363537,22.8541329 11.4465173,22.4881842 C11.6704792,21.5011588 11.5137214,20.5592971 11.084358,19.6436518 C10.9128292,19.2777031 10.8102831,18.8733189 10.7207293,18.4764362 C10.6196526,18.0284351 10.3346735,17.7664245 9.95055102,17.5766446 C9.51631556,17.3621176 9.08061073,17.1505293 8.64861797,16.9390957 C8.50678576,17.0950029 8.38707134,17.2264722 8.23518559,17.3934382 C8.51753532,17.9374893 8.8046798,18.4908205 9.0630557,18.9884706 C9.00946262,19.0355675 8.86786242,19.1009928 8.82803494,19.205395 C8.69231219,19.5608262 8.37462042,19.7192854 8.11964725,19.9520634 C7.97557233,20.0835328 7.90852297,20.2993745 7.77628029,20.5307605 C8.35335332,20.4908557 8.64699394,20.2680538 8.69664295,19.7578755 C8.65913552,20.2460907 8.65913552,20.2460907 9.20457857,20.2807367 C8.75719617,20.3968938 8.34484648,20.5039253 7.98021243,20.5986605 C8.08693459,20.93615 8.1534426,21.2075182 8.25892741,21.462646 C8.36317485,21.7148351 8.47152105,21.9821819 8.6482313,22.1804686 C8.73600641,22.2789159 8.98084871,22.2373871 9.15585759,22.2593502 C9.10296051,22.498083 8.51011117,22.1432705 8.67661321,22.6861615 C8.52751152,22.3449599 8.53949843,21.8856679 8.01439445,21.9541867 C8.0430857,21.7267447 8.07007558,21.5130684 8.09706546,21.2993921 C8.0495045,21.29568 8.00194353,21.2918906 7.95438257,21.2882558 C7.70722023,21.9329969 7.75176513,22.5856261 7.93249679,23.2457568 C7.54760099,22.5510574 7.67589959,21.8146745 7.81672645,21.0772862 C7.77883235,21.0722595 7.74086091,21.0671554 7.70296681,21.0621286 C7.66352601,21.1887258 7.62416255,21.3154004 7.57629224,21.4691422 L7.05056959,21.4691422 L7.11901098,21.5380476 C7.27553681,21.362652 7.47088477,21.2064355 7.57095613,21.0031994 C7.61503703,20.9136456 7.46578067,20.7287378 7.38357367,20.539422 C7.39764862,20.4512602 7.42262779,20.2954304 7.44760697,20.1395232 C7.41899305,20.1030985 7.39037914,20.0668284 7.36184256,20.030481 C7.13107522,20.1457873 6.90703601,20.278494 6.66729782,20.3702132 C6.51695877,20.4279051 6.33290171,20.4702846 6.18209866,20.4371853 C5.94877926,20.3858349 5.73108152,20.2639551 5.43705422,20.143622 C5.6430744,20.1214269 5.787768,20.1058825 5.93238426,20.0901836 C5.93501365,20.0661324 5.93772037,20.0420039 5.94042709,20.0179528 C5.09136722,19.7647583 4.24223001,19.5116412 3.3930928,19.2584467 C3.36896431,19.2272034 3.34483582,19.1960374 3.32063,19.1647941 C3.39680488,19.1395056 3.47290242,19.1142944 3.5490773,19.0890833 C3.53670371,19.059464 3.52433013,19.0297674 3.51195654,19.0002255 C3.42688815,19.0136044 3.31312852,18.9966681 3.2614688,19.0454664 C2.90820298,19.3792438 2.57318819,19.1784824 2.2138129,19.058536 C2.07267671,19.0112844 1.8860676,19.1002968 1.62715035,19.142367 C1.41687675,18.9856092 1.1229268,18.7665194 0.828976841,18.5473523 C0.851326627,18.5205944 0.873599078,18.4938365 0.89587153,18.4670787 C0.60439629,18.36809 0.159488607,18.8109096 0.0127843007,18.2472155 C-0.0626945622,17.957055 0.202718816,17.759155 0.632700863,17.7987505 C0.776157104,17.8120521 0.903063676,18.0054666 0.989833434,18.1626112 C1.15679948,18.2175963 1.32198683,18.2791549 1.49119559,18.3260971 C1.79751914,18.4110109 1.94917287,18.2113321 2.07669813,17.9862876 C2.11923232,17.9111954 2.13771536,17.8223376 2.17452678,17.7191728 C2.56414,17.7610884 2.94269434,17.8030812 3.32163535,17.8409753 C3.37020167,17.8458474 3.42510945,17.8396606 3.46988636,17.8212549 C3.7301183,17.7142234 3.9984704,17.6201068 4.24161133,17.482064 C4.33255717,17.4304817 4.36302713,17.2723318 4.4522716,17.1036644 Z" id="koa"></path>
            </g>
        </g>
    </g>
</svg>