<?xml version="1.0" encoding="UTF-8"?>
<svg width="32px" height="27px" viewBox="0 0 32 27" version="1.1" xmlns="http://www.w3.org/2000/svg" xmlns:xlink="http://www.w3.org/1999/xlink">
    <!-- Generator: Sketch 51.3 (57544) - http://www.bohemiancoding.com/sketch -->
    <title>Shape</title>
    <desc>Created with Sketch.</desc>
    <defs></defs>
    <g id="01-Ficha-bootcamp" stroke="none" stroke-width="1" fill="none" fill-rule="evenodd">
        <g id="01-E-Ficha-Bootcamp" transform="translate(-1304.000000, -7364.000000)" fill="#FFFFFF" fill-rule="nonzero">
            <g id="Módulo-8" transform="translate(0.000000, 6912.000000)">
                <g id="Group-45" transform="translate(0.000000, 32.000000)">
                    <g id="Group-39" transform="translate(0.000000, 278.000000)">
                        <g id="Group-38">
                            <g id="laptop-user-1" transform="translate(1304.000000, 139.000000)">
                                <g id="Line_Icons" transform="translate(0.000000, 3.250000)">
                                    <g id="Group">
                                        <path d="M31.2208366,23.3670122 L29.0704496,16.9145334 L29.0704496,1.31763912 C29.0704496,0.590302327 28.4801472,0 27.7528104,0 L4.03530621,0 C3.30796942,0 2.71766709,0.588984688 2.71766709,1.31763912 L2.71766709,16.9145334 L0.567280041,23.3670122 C0.322199164,24.1022548 0.422339737,24.8572621 0.841348978,25.4370233 C1.25904058,26.0194198 1.94289529,26.3527825 2.71766709,26.3527825 L29.0704496,26.3527825 C29.8452214,26.3527825 30.5290761,26.0194198 30.9480853,25.4383409 C31.3670945,24.8572621 31.4659175,24.1022548 31.2208366,23.3670122 Z M26.4351713,2.63527825 L26.4351713,15.8116695 L5.35294534,15.8116695 L5.35294534,2.63527825 L26.4351713,2.63527825 Z M3.22891107,23.7175042 L4.98532402,18.4469477 L26.8041103,18.4469477 L28.5605232,23.7175042 L3.22891107,23.7175042 Z M15.8940583,9.22347386 C14.4386343,9.22347386 13.2587801,8.0436196 13.2587801,6.58819562 C13.2587801,5.13277163 14.4386343,3.95291737 15.8940583,3.95291737 C17.3494823,3.95291737 18.5293366,5.13277163 18.5293366,6.58819562 C18.5293366,8.0436196 17.3494823,9.22347386 15.8940583,9.22347386 Z M15.8940583,9.22347386 C18.8047231,9.22347386 21.1646148,11.5833655 21.1646148,14.4940304 L10.6235018,14.4940304 C10.6235018,11.5833655 12.9833935,9.22347386 15.8940583,9.22347386 Z M13.2587801,19.7645868 L13.2587801,22.3998651 L18.5293366,22.3998651 L18.5293366,19.7645868 L13.2587801,19.7645868 Z" id="Shape"></path>
                                    </g>
                                </g>
                            </g>
                        </g>
                    </g>
                </g>
            </g>
        </g>
    </g>
</svg>