<?xml version="1.0" encoding="UTF-8"?>
<svg width="44px" height="38px" viewBox="0 0 44 38" version="1.1" xmlns="http://www.w3.org/2000/svg" xmlns:xlink="http://www.w3.org/1999/xlink">
    <!-- Generator: Sketch 50.2 (55047) - http://www.bohemiancoding.com/sketch -->
    <title>Group 8</title>
    <desc>Created with Sketch.</desc>
    <defs></defs>
    <g id="Componentes" stroke="none" stroke-width="1" fill="none" fill-rule="evenodd">
        <g id="Iconos-horario" transform="translate(-759.000000, -139.000000)" fill-rule="nonzero">
            <g id="Group-8" transform="translate(759.000000, 139.000000)">
                <path d="M43.7091712,33.0041389 L40.6986294,24.0336196 L40.6986294,2.35013244 C40.6986294,1.33895689 39.8722061,0.518292683 38.8539346,0.518292683 L5.6494287,0.518292683 C4.63115718,0.518292683 3.80473393,1.33712505 3.80473393,2.35013244 L3.80473393,24.0336196 L0.794192057,33.0041389 C0.451078829,34.0263055 0.591275632,35.0759497 1.17788857,35.8819592 C1.76265681,36.6916324 2.7200534,37.1550878 3.80473393,37.1550878 L40.6986294,37.1550878 C41.7833099,37.1550878 42.7407065,36.6916324 43.3273194,35.883791 C43.9139324,35.0759497 44.0522845,34.0263055 43.7091712,33.0041389 Z M37.0092398,4.1819722 L37.0092398,22.5003698 L7.49412347,22.5003698 L7.49412347,4.1819722 L37.0092398,4.1819722 Z M4.5204755,33.4914083 L6.97945363,26.1640493 L37.5257544,26.1640493 L39.9847325,33.4914083 L4.5204755,33.4914083 Z" id="Shape" fill="#8D8D8D"></path>
                <ellipse id="Oval" fill="#8BC881" cx="22.2516816" cy="9.67749147" rx="3.68938954" ry="3.66367951"></ellipse>
                <path d="M22.2516816,13.341171 C18.1767509,13.341171 14.8729026,16.621996 14.8729026,20.66853 L29.6304607,20.66853 C29.6304607,16.621996 26.3266124,13.341171 22.2516816,13.341171 Z" id="Shape" fill="#8BC881"></path>
                <rect id="Rectangle-path" fill="#8D8D8D" x="18.5622921" y="27.995889" width="7.37877909" height="3.66367951"></rect>
            </g>
        </g>
    </g>
</svg>