<?xml version="1.0" encoding="UTF-8"?>
<svg width="42px" height="42px" viewBox="0 0 42 42" version="1.1" xmlns="http://www.w3.org/2000/svg" xmlns:xlink="http://www.w3.org/1999/xlink">
    <!-- Generator: Sketch 50.2 (55047) - http://www.bohemiancoding.com/sketch -->
    <title>linkedin</title>
    <desc>Created with Sketch.</desc>
    <defs></defs>
    <g id="00-Home" stroke="none" stroke-width="1" fill="none" fill-rule="evenodd" opacity="0.846986607">
        <g id="00-E-Home-1920" transform="translate(-1802.000000, -6970.000000)" fill="#FFFFFF" fill-rule="nonzero">
            <g id="Footer" transform="translate(-679.000000, 6373.000000)">
                <g id="Group-32">
                    <g id="Group-27" transform="translate(725.000000, 389.000000)">
                        <g id="Group-37" transform="translate(0.000000, 208.000000)">
                            <g id="Group-28" transform="translate(1701.000000, 0.000000)">
                                <path d="M76,41.5 C64.6781626,41.5 55.5,32.3218374 55.5,21 C55.5,9.67816263 64.6781626,0.5 76,0.5 C87.3218374,0.5 96.5,9.67816263 96.5,21 C96.5,32.3218374 87.3218374,41.5 76,41.5 Z M76,40.5 C86.7695526,40.5 95.5,31.7695526 95.5,21 C95.5,10.2304474 86.7695526,1.5 76,1.5 C65.2304474,1.5 56.5,10.2304474 56.5,21 C56.5,31.7695526 65.2304474,40.5 76,40.5 Z M87,29 L82.5555556,29 L82.5555556,21.5 C82.5555556,20.3237778 81.2356667,19.3397778 80.0594444,19.3397778 C78.8832222,19.3397778 78.1111111,20.3237778 78.1111111,21.5 L78.1111111,29 L73.6666667,29 L73.6666667,15.6666667 L78.1111111,15.6666667 L78.1111111,17.8888889 C78.847,16.6984111 80.7293333,15.9303 82.0277778,15.9303 C84.7738889,15.9303 87,18.1984444 87,20.9444444 L87,29 Z M71.4444333,29 L66.9999889,29 L66.9999889,15.6666667 L71.4444333,15.6666667 L71.4444333,29 Z M69.2222222,9 C70.4495222,9 71.4444444,9.99492222 71.4444444,11.2222222 C71.4444444,12.4495222 70.4495222,13.4444444 69.2222222,13.4444444 C67.9949222,13.4444444 67,12.4495222 67,11.2222222 C67,9.99492222 67.9949222,9 69.2222222,9 Z" id="linkedin"></path>
                            </g>
                        </g>
                    </g>
                </g>
            </g>
        </g>
    </g>
</svg>