<?xml version="1.0" encoding="UTF-8"?>
<svg width="26px" height="26px" viewBox="0 0 26 26" version="1.1" xmlns="http://www.w3.org/2000/svg" xmlns:xlink="http://www.w3.org/1999/xlink">
    <!-- Generator: Sketch 51.3 (57544) - http://www.bohemiancoding.com/sketch -->
    <title>Combined Shape</title>
    <desc>Created with Sketch.</desc>
    <defs></defs>
    <g id="00-Home" stroke="none" stroke-width="1" fill="none" fill-rule="evenodd">
        <g id="00-E-Home-1920" transform="translate(-625.000000, -1567.000000)" fill="#FFFFFF" fill-rule="nonzero">
            <g id="Group-28" transform="translate(-1703.000000, -249.000000)">
                <g id="Módulo-3" transform="translate(1399.000000, 1239.000000)">
                    <g id="Contenido" transform="translate(632.000000, 425.000000)">
                        <g id="Group-33" transform="translate(2.000000, 150.000000)">
                            <g id="Group-16" transform="translate(270.000000, 1.000000)">
                                <g id="location-map-1" transform="translate(22.000000, 0.000000)">
                                    <g id="Line_Icons" transform="translate(3.000000, 1.000000)">
                                        <g id="Group">
                                            <path d="M13,22.1 C12.4904,22.1 12.0276,21.8023 11.817,21.3382 C10.9291,19.3869 6.5,9.5017 6.5,6.5 C6.5,2.9159 9.4159,0 13,0 C16.5841,0 19.5,2.9159 19.5,6.5 C19.5,9.5017 15.0722,19.3869 14.183,21.3382 C13.9724,21.8023 13.5109,22.1 13,22.1 Z M13,2.6 C10.8498,2.6 9.1,4.3498 9.1,6.5 C9.1,8.0379 11.1709,13.3393 13,17.5851 C14.8304,13.338 16.9,8.0366 16.9,6.5 C16.9,4.3498 15.1502,2.6 13,2.6 Z M13,8.45 C11.9230447,8.45 11.05,7.57695526 11.05,6.5 C11.05,5.42304474 11.9230447,4.55 13,4.55 C14.0769553,4.55 14.95,5.42304474 14.95,6.5 C14.95,7.57695526 14.0769553,8.45 13,8.45 Z M22.7279,26 L3.2721,26 C2.3972,26 1.5873,25.5645 1.1024,24.8326 C0.6175,24.0968 0.5369,23.179 0.884,22.3743 L3.6686,15.8756 C4.0768,14.9188 5.0141,14.3 6.0567,14.3 L7.1279,14.3 L7.1279,16.9 L6.0567,16.9 L3.2708,23.4 L22.7279,23.4 L19.942,16.9 L18.8279,16.9 L18.8279,14.3 L19.942,14.3 C20.9846,14.3 21.9219,14.9188 22.3314,15.8769 L25.116,22.3756 C25.4618,23.1777 25.3812,24.0968 24.8976,24.83 C24.414,25.5645 23.6028,26 22.7279,26 Z" id="Combined-Shape"></path>
                                        </g>
                                    </g>
                                </g>
                            </g>
                        </g>
                    </g>
                </g>
            </g>
        </g>
    </g>
</svg>