<?xml version="1.0" encoding="UTF-8"?>
<svg width="37px" height="37px" viewBox="0 0 37 37" version="1.1" xmlns="http://www.w3.org/2000/svg" xmlns:xlink="http://www.w3.org/1999/xlink">
    <!-- Generator: Sketch 50.2 (55047) - http://www.bohemiancoding.com/sketch -->
    <title>Combined Shape</title>
    <desc>Created with Sketch.</desc>
    <defs></defs>
    <g id="01-Ficha-bootcamp" stroke="none" stroke-width="1" fill="none" fill-rule="evenodd">
        <g id="01-M-Ficha-Bootcamp" transform="translate(-161.000000, -3151.000000)" fill="#4E4E4E" fill-rule="nonzero">
            <g id="Group-19" transform="translate(0.000000, 3027.000000)">
                <g id="Group-41" transform="translate(117.000000, 124.000000)">
                    <g id="Group-42">
                        <g id="Group-40" transform="translate(44.000000, 0.000000)">
                            <path d="M18.5,36.5 C8.5588745,36.5 0.5,28.4411255 0.5,18.5 C0.5,8.5588745 8.5588745,0.5 18.5,0.5 C28.4411255,0.5 36.5,8.5588745 36.5,18.5 C36.5,28.4411255 28.4411255,36.5 18.5,36.5 Z M18.5,35.5 C27.8888407,35.5 35.5,27.8888407 35.5,18.5 C35.5,9.11115925 27.8888407,1.5 18.5,1.5 C9.11115925,1.5 1.5,9.11115925 1.5,18.5 C1.5,27.8888407 9.11115925,35.5 18.5,35.5 Z M9.5,19.5 L9.5,18.5 L27.6172428,18.5 L27.6172428,19.5 L9.5,19.5 Z" id="Combined-Shape"></path>
                        </g>
                    </g>
                </g>
            </g>
        </g>
    </g>
</svg>