<?xml version="1.0" encoding="UTF-8"?>
<svg width="31px" height="27px" viewBox="0 0 31 27" version="1.1" xmlns="http://www.w3.org/2000/svg" xmlns:xlink="http://www.w3.org/1999/xlink">
    <!-- Generator: Sketch 50.2 (55047) - http://www.bohemiancoding.com/sketch -->
    <title>monitor</title>
    <desc>Created with Sketch.</desc>
    <defs></defs>
    <g id="02-Ficha-curso" stroke="none" stroke-width="1" fill="none" fill-rule="evenodd">
        <g id="02-E-Ficha-Curso" transform="translate(-1185.000000, -1106.000000)" fill="#585858" fill-rule="nonzero">
            <g id="Group-66" transform="translate(0.000000, 936.000000)">
                <g id="Group-22" transform="translate(92.000000, 24.000000)">
                    <g id="computer-screen-1" transform="translate(1093.000000, 142.000000)">
                        <g id="Line_Icons" transform="translate(0.000000, 4.000000)">
                            <path d="M28.4166667,0 L2.58333333,0 C1.158625,0 0,1.152 0,2.57142857 L0,19.2857143 C0,20.7038571 1.158625,21.8571429 2.58333333,21.8571429 L14.2083333,21.8571429 L14.2083333,24.4285714 L9.04166667,24.4285714 L9.04166667,27 L21.9583333,27 L21.9583333,24.4285714 L16.7916667,24.4285714 L16.7916667,21.8571429 L28.4166667,21.8571429 C29.841375,21.8571429 31,20.7038571 31,19.2857143 L31,2.57142857 C31,1.152 29.841375,0 28.4166667,0 Z M28.4166667,2.57142857 L28.4140833,15.4285714 L2.58333333,15.4285714 L2.58333333,2.57142857 L28.4166667,2.57142857 Z M2.58333333,19.2857143 L2.58333333,18 L28.4127917,18 L28.4127917,19.2857143 L2.58333333,19.2857143 Z" id="monitor"></path>
                        </g>
                    </g>
                </g>
            </g>
        </g>
    </g>
</svg>