<?xml version="1.0" encoding="UTF-8"?>
<svg width="23px" height="25px" viewBox="0 0 23 25" version="1.1" xmlns="http://www.w3.org/2000/svg" xmlns:xlink="http://www.w3.org/1999/xlink">
    <!-- Generator: Sketch 50.2 (55047) - http://www.bohemiancoding.com/sketch -->
    <title>ngrx</title>
    <desc>Created with Sketch.</desc>
    <defs></defs>
    <g id="Componentes" stroke="none" stroke-width="1" fill="none" fill-rule="evenodd">
        <g id="Logos-de-cursos" transform="translate(-1842.000000, -1740.000000)" fill="#323232">
            <g id="Group-34-Copy" transform="translate(1842.000000, 1735.000000)">
                <path d="M0,5 L22.0895858,5 L20.016399,27.4556843 L11.0446558,30 L2.06962178,27.4556843 L0,5 Z M13.9867594,12.0877095 C14.0555981,12.1285882 15.423009,12.7197663 16.1883054,11.0212635 C16.4182634,10.5108936 16.0376914,9.47187013 15.7839473,9.14656281 C15.5302033,8.82125549 15.2808389,8.70948193 15.1741666,8.65337748 C13.4981384,7.77277751 11.8427019,7.798395 9.98045862,8.13723635 C8.07973578,8.48309077 6.33348473,9.48485051 5.06938131,10.9450427 C3.77501102,12.4403001 3.04085475,14.3703671 3.001637,16.3461112 C2.9626038,18.3147499 3.62284615,20.2699162 4.84994647,21.8102049 C6.02371065,23.2835004 7.68801967,24.346163 9.52064204,24.7834639 C10.4554086,25.0065899 11.4278243,25.0716452 12.3839069,24.9718937 C13.1513752,24.8918895 13.9002958,24.6425569 14.5966184,24.3149733 C16.1606223,23.5791561 17.4869205,22.3357227 18.2660157,20.7870368 C18.7041471,19.9163105 18.9533875,18.9388197 18.9924207,17.9651121 C19.0273014,17.0936476 18.9437906,16.213509 18.7002715,15.3744337 C18.5882471,14.9884388 18.4442949,14.6080728 18.2497749,14.2556667 C18.1611889,14.0950123 18.0620834,13.9377722 17.9425846,13.798157 C17.8535372,13.6940685 17.7231497,13.5495626 17.5749528,13.5401504 C17.4092232,13.5297231 17.3771108,13.7484197 17.3606854,13.8716096 C17.3337405,14.0735118 17.3347556,14.279751 17.3313413,14.4831296 C17.3237746,14.925875 17.3185148,15.3683434 17.2860333,15.810166 C17.2510603,16.2861311 17.1892347,16.7609888 17.0856075,17.2270802 C17.0798863,17.1939528 17.0449133,17.3224024 17.0418682,17.3337525 C17.0050497,17.4748441 16.9684157,17.6159357 16.9266142,17.7557355 C16.8025015,18.1711668 16.6432313,18.5760785 16.4309941,18.9548759 C15.9824353,19.7556562 15.3005078,20.4087009 14.5107085,20.869348 C13.7742453,21.2987131 12.9148691,21.5493376 12.0610294,21.5652093 C11.8592195,21.5689926 11.6585169,21.5877249 11.4563379,21.5859716 C11.2256452,21.5838492 10.9950449,21.566132 10.7666592,21.53282 C10.3096109,21.4662883 9.86446635,21.3347935 9.4427602,21.1469174 C7.75307499,20.3942134 6.58696981,18.7314731 6.45021521,16.8875929 C6.32231921,15.1628424 7.10851974,13.4618072 8.49645897,12.4325488 C9.9238005,11.374131 11.8697391,11.1476831 13.5028585,11.8488965 L13.9867594,12.0877095 Z M14,11 C13.4477153,11 13,10.5522847 13,10 C13,9.44771525 13.4477153,9 14,9 C14.5522847,9 15,9.44771525 15,10 C15,10.5522847 14.5522847,11 14,11 Z" id="ngrx"></path>
            </g>
        </g>
    </g>
</svg>