<?xml version="1.0" encoding="UTF-8"?>
<svg width="24px" height="26px" viewBox="0 0 24 26" version="1.1" xmlns="http://www.w3.org/2000/svg" xmlns:xlink="http://www.w3.org/1999/xlink">
    <!-- Generator: Sketch 50.2 (55047) - http://www.bohemiancoding.com/sketch -->
    <title>nodejs</title>
    <desc>Created with Sketch.</desc>
    <defs></defs>
    <g id="Componentes" stroke="none" stroke-width="1" fill="none" fill-rule="evenodd">
        <g id="Logos-de-cursos" transform="translate(-172.000000, -240.000000)" fill="#FFFFFF" fill-rule="nonzero">
            <g id="Group-4" transform="translate(172.000000, 235.000000)">
                <path d="M11.5369773,31 C11.1786861,31 10.8442809,30.9044555 10.5337618,30.737253 L7.35691311,28.8502525 C6.87919136,28.5875056 7.11805234,28.4919613 7.26136868,28.4441891 C7.90629293,28.2292145 8.02572332,28.1814422 8.69453374,27.7992648 C8.76619181,27.7514927 8.86173624,27.7753789 8.93339451,27.823151 L11.3697748,29.280202 C11.4653192,29.3279742 11.5847496,29.3279742 11.6564079,29.280202 L21.1869543,23.7625173 C21.2824988,23.7147449 21.3302709,23.6192007 21.3302709,23.4997703 L21.3302709,12.4882867 C21.3302709,12.3688561 21.2824988,12.2733119 21.1869543,12.2255397 L11.6564079,6.73174092 C11.5608634,6.68396881 11.4414331,6.68396881 11.3697748,6.73174092 L1.83922812,12.2255397 C1.7436839,12.2733119 1.69591178,12.3927422 1.69591178,12.4882867 L1.69591178,23.4997703 C1.69591178,23.5953146 1.7436839,23.7147449 1.83922812,23.7625173 L4.44281109,25.2673404 C5.85208999,25.9839227 6.73587502,25.14791 6.73587502,24.311897 L6.73587502,13.4437298 C6.73587502,13.3004134 6.85530541,13.1570969 7.02250791,13.1570969 L8.24069814,13.1570969 C8.38401468,13.1570969 8.52733103,13.2765273 8.52733103,13.4437298 L8.52733103,24.311897 C8.52733103,26.1988975 7.50022966,27.2976571 5.70877345,27.2976571 C5.15939363,27.2976571 4.72944419,27.2976571 3.51125395,26.7005052 L1.00321542,25.2673404 C0.38217732,24.909049 0,24.2402388 0,23.5236562 L0,12.5121726 C0,11.7955903 0.38217732,11.1267799 1.00321542,10.7684887 L10.5337618,5.25080375 C11.130914,4.91639875 11.9430408,4.91639875 12.5401929,5.25080375 L22.0707393,10.7684887 C22.6917774,11.1267799 23.0739548,11.7955903 23.0739548,12.5121726 L23.0739548,23.5236562 C23.0739548,24.2402388 22.6917774,24.909049 22.0707393,25.2673404 L12.5401929,30.7850251 C12.2296736,30.9283417 11.8713825,31 11.5369773,31 Z M14.4749655,23.428112 C10.2949011,23.428112 9.4350022,21.5172254 9.4350022,19.8929719 C9.4350022,19.7496554 9.55443263,19.606339 9.72163507,19.606339 L10.9637115,19.606339 C11.1070278,19.606339 11.2264582,19.7018832 11.2264582,19.8451998 C11.4175469,21.1111621 11.9669269,21.7322002 14.4988514,21.7322002 C16.5052824,21.7322002 17.3651813,21.2783647 17.3651813,20.203491 C17.3651813,19.5824529 17.1263205,19.1286173 13.9972437,18.8180982 C11.3936609,18.5553513 9.76940744,17.9820853 9.76940744,15.9039962 C9.76940744,13.9692236 11.3936609,12.8226917 14.1166743,12.8226917 C17.1740926,12.8226917 18.6789157,13.8736794 18.8700044,16.1667432 C18.8700044,16.2384014 18.8461183,16.3100597 18.7983462,16.381718 C18.7505741,16.4294901 18.6789157,16.4772622 18.6072575,16.4772622 L17.3651813,16.4772622 C17.2457509,16.4772622 17.1263205,16.381718 17.1024344,16.2622875 C16.8158015,14.9485531 16.0753328,14.5186035 14.1166743,14.5186035 C11.9191546,14.5186035 11.6564079,15.2829581 11.6564079,15.8562241 C11.6564079,16.5489205 11.9669269,16.7638953 14.928801,17.1460726 C17.866789,17.5282499 19.2521817,18.0776298 19.2521817,20.1318326 C19.2282956,22.2338079 17.5084978,23.428112 14.4749655,23.428112 Z" id="nodejs"></path>
            </g>
        </g>
    </g>
</svg>