<?xml version="1.0" encoding="UTF-8"?>
<svg width="39px" height="40px" viewBox="0 0 39 40" version="1.1" xmlns="http://www.w3.org/2000/svg" xmlns:xlink="http://www.w3.org/1999/xlink">
    <!-- Generator: Sketch 50.2 (55047) - http://www.bohemiancoding.com/sketch -->
    <title>pencil-clock</title>
    <desc>Created with Sketch.</desc>
    <defs></defs>
    <g id="06-Empresas" stroke="none" stroke-width="1" fill="none" fill-rule="evenodd">
        <g id="06-E-Empresas" transform="translate(-697.000000, -625.000000)" fill="#585858" fill-rule="nonzero">
            <g id="Group-5" transform="translate(92.000000, 620.000000)">
                <g id="time-edit" transform="translate(605.000000, 5.000000)">
                    <g id="Line_Icons">
                        <g id="Group">
                            <path d="M38.523875,23.8216667 L33.648875,18.8216667 C33.0135,18.17 31.9865,18.17 31.351125,18.8216667 L19.976125,30.4883333 C19.768125,30.7 19.62025,30.97 19.54875,31.2633333 L17.92375,37.93 C17.785625,38.4966667 17.948125,39.0983333 18.351125,39.5116667 C18.737875,39.9083333 19.309875,40.0966667 19.894875,39.9516667 L26.394875,38.285 C26.680875,38.2116667 26.940875,38.0583333 27.148875,37.845 L38.523875,26.1783333 C39.15925,25.5266667 39.15925,24.4733333 38.523875,23.8216667 Z M25.169625,35.1633333 L21.734375,36.0433333 L22.592375,32.52 L27.625,27.3566667 L30.20225,30 L25.169625,35.1633333 Z M32.5,27.6433333 L29.92275,25 L32.5,22.3566667 L35.07725,25 L32.5,27.6433333 Z M13,6.66666667 L16.25,6.66666667 L16.25,14.1083333 L20.401875,16.9466667 L18.59975,19.72 L13,15.8916667 L13,6.66666667 Z M3.25,15 C3.25,8.56666667 8.3525,3.33333333 14.625,3.33333333 C20.895875,3.33333333 26,8.56666667 26,15 C26,15.5683333 25.946375,16.1216667 25.87,16.6666667 L29.154125,16.6666667 C29.21425,16.1183333 29.25,15.5633333 29.25,15 C29.25,6.73 22.689875,-9.23705556e-14 14.625,-9.23705556e-14 C6.560125,-9.23705556e-14 2.62900812e-13,6.73 2.62900812e-13,15 C2.62900812e-13,23.27 6.56175,30 14.625,30 L14.625,26.6666667 C8.354125,26.6666667 3.25,21.4316667 3.25,15 Z" id="pencil-clock"></path>
                        </g>
                    </g>
                </g>
            </g>
        </g>
    </g>
</svg>