<?xml version="1.0" encoding="UTF-8"?>
<svg width="30px" height="30px" viewBox="0 0 30 30" version="1.1" xmlns="http://www.w3.org/2000/svg" xmlns:xlink="http://www.w3.org/1999/xlink">
    <!-- Generator: Sketch 50.2 (55047) - http://www.bohemiancoding.com/sketch -->
    <title>phone-office</title>
    <desc>Created with Sketch.</desc>
    <defs></defs>
    <g id="04-Contacto" stroke="none" stroke-width="1" fill="none" fill-rule="evenodd">
        <g id="04-E-Contacto" transform="translate(-408.000000, -1911.000000)" fill="#000000" fill-rule="nonzero">
            <path d="M435.272727,1917.81818 L418.909091,1917.81818 C418.909091,1916.81318 418.356818,1915.94318 417.545455,1915.47 L417.545455,1911 L414.818182,1911 L414.818182,1915.09091 L410.727273,1915.09091 C409.223182,1915.09091 408,1916.31273 408,1917.81818 L408,1938.27273 C408,1939.77818 409.223182,1941 410.727273,1941 L416.181818,1941 C417.685909,1941 418.909091,1939.77818 418.909091,1938.27273 L435.272727,1938.27273 C436.776818,1938.27273 438,1937.05091 438,1935.54545 L438,1920.54545 C438,1919.04 436.778182,1917.81818 435.272727,1917.81818 Z M410.727273,1938.27273 L410.727273,1917.81818 L416.181818,1917.81818 L416.181818,1938.27273 L410.727273,1938.27273 Z M418.661136,1936 L418.661136,1920.54545 L435.52064,1920.54545 L435.522045,1936 L418.661136,1936 Z M421.636364,1921.90909 L421.636364,1924.63636 L432.545455,1924.63636 L432.545455,1921.90909 L421.636364,1921.90909 Z M423,1930.09091 C423.753116,1930.09091 424.363636,1929.48039 424.363636,1928.72727 C424.363636,1927.97416 423.753116,1927.36364 423,1927.36364 C422.246884,1927.36364 421.636364,1927.97416 421.636364,1928.72727 C421.636364,1929.48039 422.246884,1930.09091 423,1930.09091 Z M427.090909,1930.09091 C427.844025,1930.09091 428.454545,1929.48039 428.454545,1928.72727 C428.454545,1927.97416 427.844025,1927.36364 427.090909,1927.36364 C426.337794,1927.36364 425.727273,1927.97416 425.727273,1928.72727 C425.727273,1929.48039 426.337794,1930.09091 427.090909,1930.09091 Z M431.181818,1930.09091 C431.934934,1930.09091 432.545455,1929.48039 432.545455,1928.72727 C432.545455,1927.97416 431.934934,1927.36364 431.181818,1927.36364 C430.428703,1927.36364 429.818182,1927.97416 429.818182,1928.72727 C429.818182,1929.48039 430.428703,1930.09091 431.181818,1930.09091 Z M423,1934.18182 C423.753116,1934.18182 424.363636,1933.5713 424.363636,1932.81818 C424.363636,1932.06507 423.753116,1931.45455 423,1931.45455 C422.246884,1931.45455 421.636364,1932.06507 421.636364,1932.81818 C421.636364,1933.5713 422.246884,1934.18182 423,1934.18182 Z M427.090909,1934.18182 C427.844025,1934.18182 428.454545,1933.5713 428.454545,1932.81818 C428.454545,1932.06507 427.844025,1931.45455 427.090909,1931.45455 C426.337794,1931.45455 425.727273,1932.06507 425.727273,1932.81818 C425.727273,1933.5713 426.337794,1934.18182 427.090909,1934.18182 Z M431.181818,1934.18182 C431.934934,1934.18182 432.545455,1933.5713 432.545455,1932.81818 C432.545455,1932.06507 431.934934,1931.45455 431.181818,1931.45455 C430.428703,1931.45455 429.818182,1932.06507 429.818182,1932.81818 C429.818182,1933.5713 430.428703,1934.18182 431.181818,1934.18182 Z" id="phone-office"></path>
        </g>
    </g>
</svg>