<?xml version="1.0" encoding="UTF-8"?>
<svg width="32px" height="32px" viewBox="0 0 32 32" version="1.1" xmlns="http://www.w3.org/2000/svg" xmlns:xlink="http://www.w3.org/1999/xlink">
    <!-- Generator: Sketch 50.2 (55047) - http://www.bohemiancoding.com/sketch -->
    <title>rack</title>
    <desc>Created with Sketch.</desc>
    <defs></defs>
    <g id="02-Ficha-curso" stroke="none" stroke-width="1" fill="none" fill-rule="evenodd">
        <g id="02-E-Ficha-Curso" transform="translate(-865.000000, -1101.000000)" fill="#585858" fill-rule="nonzero">
            <g id="Group-66" transform="translate(0.000000, 936.000000)">
                <g id="Group-22" transform="translate(92.000000, 24.000000)">
                    <g id="server-settings-2" transform="translate(773.000000, 141.000000)">
                        <g id="Line_Icons">
                            <g id="Group">
                                <path d="M31.68264,25.08 L31.68264,22.44 L30.228,22.44 C30.05508,21.59784 29.7198,20.81772 29.26044,20.12472 L30.29532,19.08984 L28.42884,17.22336 L27.39264,18.25824 C26.70228,17.8002 25.92216,17.4636 25.08132,17.29464 L25.08132,15.84 L22.44132,15.84 L22.44132,17.29464 C21.59916,17.46492 20.81904,17.80152 20.12736,18.25956 L19.0938,17.226 L17.22732,19.09248 L18.26088,20.12604 C17.80152,20.81772 17.46624,21.59916 17.29464,22.44 L15.84,22.44 L15.84,25.08 L17.29464,25.08 C17.46756,25.92216 17.80284,26.70228 18.26088,27.39528 L17.22732,28.43016 L19.09512,30.29532 L20.12736,29.26044 C20.82036,29.7198 21.6018,30.0564 22.44264,30.22536 L22.44264,31.68132 L25.08264,31.68132 L25.08264,30.22536 C25.92348,30.05376 26.70492,29.71716 27.3966,29.25912 L28.43148,30.29268 L30.29664,28.42488 L29.26176,27.39264 C29.72112,26.70096 30.0564,25.92084 30.228,25.08 L31.68264,25.08 Z M23.76,26.4 C22.3014,26.4 21.12,25.21728 21.12,23.76 C21.12,22.30272 22.3014,21.12 23.76,21.12 C25.21728,21.12 26.4,22.30272 26.4,23.76 C26.4,25.21728 25.21728,26.4 23.76,26.4 Z M13.2,23.76 L13.2,26.4 L2.64,26.4 C1.18272,26.4 -1.26121336e-13,25.21596 -1.26121336e-13,23.76 L-1.26121336e-13,2.64 C-1.26121336e-13,1.18272 1.18272,-1.26121336e-13 2.64,-1.26121336e-13 L23.76,-1.26121336e-13 C25.21728,-1.26121336e-13 26.4,1.18272 26.4,2.64 L26.4,13.2 L23.75736,13.2 L23.75868,10.56 L2.64,10.56 L2.64,15.84 L13.2,15.84 L13.2,18.48 L2.64,18.48 L2.64,23.76 L13.2,23.76 Z M17.16,6.6 C16.4309841,6.6 15.84,6.00901587 15.84,5.28 C15.84,4.55098413 16.4309841,3.96 17.16,3.96 C17.8890159,3.96 18.48,4.55098413 18.48,5.28 C18.48,6.00901587 17.8890159,6.6 17.16,6.6 Z M21.12,6.6 C20.3909841,6.6 19.8,6.00901587 19.8,5.28 C19.8,4.55098413 20.3909841,3.96 21.12,3.96 C21.8490159,3.96 22.44,4.55098413 22.44,5.28 C22.44,6.00901587 21.8490159,6.6 21.12,6.6 Z M2.64,2.64 L2.64,7.92 L23.75868,7.92 L23.76,2.64 L2.64,2.64 Z M3.96,3.96 L10.56,3.96 L10.56,6.6 L3.96,6.6 L3.96,3.96 Z M3.96,11.88 L10.56,11.88 L10.56,14.52 L3.96,14.52 L3.96,11.88 Z M3.96,19.8 L10.56,19.8 L10.56,22.44 L3.96,22.44 L3.96,19.8 Z" id="rack"></path>
                            </g>
                        </g>
                    </g>
                </g>
            </g>
        </g>
    </g>
</svg>