<?xml version="1.0" encoding="UTF-8"?>
<svg width="25px" height="24px" viewBox="0 0 25 24" version="1.1" xmlns="http://www.w3.org/2000/svg" xmlns:xlink="http://www.w3.org/1999/xlink">
    <!-- Generator: Sketch 50.2 (55047) - http://www.bohemiancoding.com/sketch -->
    <title>react</title>
    <desc>Created with Sketch.</desc>
    <defs></defs>
    <g id="Componentes" stroke="none" stroke-width="1" fill="none" fill-rule="evenodd">
        <g id="Logos-de-cursos" transform="translate(-172.000000, -460.000000)" fill="#FFFFFF" fill-rule="nonzero">
            <g id="Group-6" transform="translate(172.000000, 454.000000)">
                <g id="Group" transform="translate(0.000000, 6.000000)">
                    <path d="M20.5551081,7.55888261 C23.2551913,8.5334473 25,10.0600836 25,11.6385744 C25,13.2848127 23.1353671,14.8943931 20.2693223,15.8899548 C20.1178548,15.9426215 19.9626255,15.9932 19.8044088,16.0421544 C19.8608357,16.2801983 19.9111774,16.51395 19.9543274,16.7428294 C20.5201455,19.7393751 20.0844412,22.2022942 18.7434722,23.0161909 C17.4450999,23.8042182 15.3466825,23.0301116 13.2219326,21.1131158 C12.990982,20.9042413 12.7656294,20.6886575 12.5461373,20.4666155 C12.3718777,20.6432923 12.1978394,20.8118487 12.0244649,20.9707767 C9.83089628,22.9811571 7.57824532,23.8152388 6.23605923,23.0037782 C4.93658057,22.217839 4.52820461,19.9252164 5.05109402,17.0378322 C5.1082295,16.7240354 5.17371766,16.411974 5.24748181,16.1020134 C5.02042224,16.0340566 4.79501339,15.9601767 4.57146524,15.8804424 C1.81451256,14.892537 0,13.2631196 0,11.6385744 C0,10.0657679 1.69037335,8.5493401 4.33712758,7.58185176 C4.63298164,7.47373436 4.94222326,7.37211328 5.26241835,7.27675652 C5.1938246,6.98904834 5.13221456,6.69955912 5.07764786,6.40856914 C4.52920038,3.47014234 4.91511622,1.12183702 6.21802475,0.331025513 C7.57680699,-0.493659688 9.83974756,0.391928556 12.0973774,2.49372156 C12.237808,2.62474417 12.3759117,2.75848312 12.5116173,2.8948696 C12.714262,2.68975888 12.921817,2.49004918 13.1340836,2.29593168 C15.2882641,0.330445484 17.4212015,-0.491803595 18.7253271,0.296803803 C20.0855476,1.11905288 20.4838553,3.61688967 19.8746659,6.71749258 C19.8366005,6.91011511 19.7951399,7.10198285 19.7503054,7.29299733 C20.0206602,7.37452446 20.289013,7.46318102 20.5551081,7.55888261 Z M19.9334162,14.8271097 L19.9335269,14.8271097 C22.4080131,13.9673908 23.932093,12.6518851 23.932093,11.6385744 C23.932093,10.6873269 22.5209775,9.45267723 20.207474,8.61778352 C19.9682682,8.5313592 19.7199897,8.44957511 19.4642984,8.37185123 C19.1567164,9.41532336 18.7462382,10.5177264 18.2475792,11.6441427 C18.770026,12.7978203 19.1971003,13.9146081 19.5135336,14.9648086 C19.6564818,14.9203784 19.7967746,14.8745561 19.9334162,14.8271097 Z M18.9066677,16.9603403 C18.8676114,16.753502 18.8222486,16.5420234 18.7713537,16.3262526 C17.7358645,16.5771732 16.5940493,16.7610424 15.3854069,16.873452 C14.6983262,17.9163441 13.9943175,18.855527 13.2898662,19.6633914 C13.5003054,19.875682 13.7101914,20.076372 13.9185284,20.2643014 C15.735475,21.9036953 17.420427,22.5252543 18.2083016,22.0470784 C18.5785064,21.8223752 18.877901,21.2613712 19.0268238,20.4198651 C19.192564,19.4833504 19.156827,18.2853585 18.9066677,16.9603403 Z M8.5230089,21.9644823 L8.52311955,21.9644823 C9.37970224,21.6472065 10.3516835,21.016599 11.3216732,20.1275305 C11.4840184,19.97837 11.6428364,19.8250412 11.7979828,19.6676836 C11.0679734,18.8462465 10.3436067,17.9082237 9.65198977,16.8877207 C8.44047071,16.7847075 7.30695357,16.613831 6.28297102,16.3763671 C6.21445675,16.6646336 6.15358079,16.954837 6.10041335,17.2466426 C5.65331303,19.715826 5.98103171,21.5568379 6.76968082,22.0336218 C7.14021756,22.257629 7.7532794,22.2495086 8.5230089,21.9644823 Z M4.91688647,14.8208454 C5.12099107,14.8936526 5.32677174,14.9611883 5.53404203,15.0233915 C5.84981147,13.9439576 6.26604295,12.810697 6.76768928,11.6658358 C6.27246012,10.5377954 5.86209262,9.42228371 5.54919984,8.35537841 C5.25980096,8.44117643 4.97285967,8.53583903 4.68874471,8.63924459 C2.42514029,9.46671393 1.06790703,10.6841948 1.06790703,11.6385744 C1.06790703,12.0871688 1.38102108,12.6399365 2.0010533,13.1967643 C2.69112128,13.8162352 3.69784383,14.3839676 4.91688647,14.8208454 Z M6.12575015,6.1934944 L6.12575015,6.19337839 C6.17654458,6.46406003 6.23383794,6.73335633 6.29757563,7.00101074 C7.33229036,6.75519446 8.45784135,6.57167329 9.63362336,6.45740758 C10.3192657,5.4428209 11.0369939,4.51187439 11.7632415,3.69414953 C11.6378853,3.56851526 11.5127503,3.44705719 11.3881685,3.33105139 C9.43889518,1.51637273 7.58953071,0.792496568 6.75308467,1.30013793 C5.96786543,1.77668974 5.65585778,3.67582062 6.12575015,6.1934944 Z M16.9095974,8.98540588 C17.1579554,9.43500664 17.3977253,9.88976268 17.628764,10.349402 C17.944976,9.57332325 18.2135017,8.81626943 18.4289198,8.09227726 C17.7113022,7.92047268 16.9471047,7.78010567 16.1493831,7.67454039 C16.4117364,8.1057211 16.6652,8.54277765 16.9095974,8.98540588 Z M12.5119492,4.49435751 C12.0116306,5.06034979 11.514078,5.68422896 11.0283639,6.35578651 C12.0127566,6.30747914 12.9987709,6.3077114 13.9831427,6.35648254 C13.4978713,5.67866068 13.004523,5.05385346 12.5119492,4.49435751 Z M8.08608756,8.99306227 C8.33166377,8.54662989 8.58720429,8.1063052 8.85249783,7.67245229 C8.05997628,7.77627748 7.29931934,7.91304831 6.58601675,8.08044467 C6.80331569,8.81476136 7.06940732,9.57517935 7.3804192,10.34859 C7.60555231,9.89105301 7.84083915,9.43908738 8.08608756,8.99306227 Z M8.87528988,15.6846246 C8.60349472,15.242518 8.34179125,14.7936801 8.09040256,14.3384933 C7.84403922,13.8922679 7.60771846,13.4400297 7.38163625,12.9821536 C7.06398591,13.772153 6.79203031,14.5489278 6.57130149,15.2962372 C7.2843828,15.4589933 8.05654641,15.5888038 8.87528988,15.6846246 Z M12.5414904,18.8619073 C13.0307449,18.2970751 13.5223229,17.6627554 14.0091434,16.9690407 C13.513361,16.9922419 13.0096125,17.0041905 12.5,17.0041905 C12.0039964,17.0041905 11.5159589,16.994214 11.0373259,16.974493 C11.5304528,17.6557951 12.0353078,18.2891867 12.5414904,18.8619073 Z M17.638943,12.9418995 C17.4071235,13.4104226 17.1653868,13.8734778 16.9139124,14.3307209 C16.6665349,14.7806249 16.4106454,15.2253244 16.1463958,15.6645556 C16.9710032,15.5608464 17.7535671,15.4211754 18.478487,15.2477467 C18.2547708,14.513082 17.9730788,13.7404834 17.638943,12.9418995 Z M15.9887323,13.771341 L15.988843,13.771341 C16.370824,13.0776874 16.7291223,12.3699902 17.0630565,11.649595 C16.7256516,10.9364654 16.3662101,10.2350328 15.9853024,9.54640991 C15.6065346,8.85958683 15.2047684,8.18699205 14.7807538,7.52988117 C14.0374675,7.4704862 13.2741551,7.43939664 12.5001106,7.43939664 C11.729496,7.43939664 10.9671795,7.47025419 10.2236719,7.52918513 C9.79532459,8.18730875 9.39097218,8.86225292 9.01148896,9.55255822 L9.01148896,9.55232621 C8.63188664,10.2424845 8.27717896,10.9473701 7.94811822,11.6654878 C8.27801806,12.3833904 8.63380086,13.0878986 9.01469755,13.7774893 C9.39738296,14.4707582 9.80494392,15.1486007 10.2365062,15.8095628 C10.9652986,15.8590973 11.7220831,15.8845026 12.5,15.8845026 C13.2811255,15.8845026 14.0476464,15.8558491 14.7893838,15.8002824 C15.2100361,15.1377777 15.6100303,14.4611064 15.9887323,13.771341 Z M18.1919267,1.26684427 C17.405933,0.791568522 15.680929,1.45651374 13.8352157,3.14068588 C13.6392481,3.31996019 13.4475587,3.50431161 13.260325,3.6935695 C13.9748447,4.50073783 14.6865983,5.43330842 15.3735683,6.45891566 C16.5527802,6.57492146 17.6791057,6.76169079 18.7162545,7.01261132 C18.7567136,6.83963561 18.7941901,6.66590794 18.8286658,6.49151329 C19.3546531,3.81444754 19.0290366,1.77309356 18.1919267,1.26684427 Z M12.5,13 C11.6715729,13 11,12.3284271 11,11.5 C11,10.6715729 11.6715729,10 12.5,10 C13.3284271,10 14,10.6715729 14,11.5 C14,12.3284271 13.3284271,13 12.5,13 Z" id="react"></path>
                </g>
            </g>
        </g>
    </g>
</svg>