<?xml version="1.0" encoding="UTF-8"?>
<svg width="25px" height="24px" viewBox="0 0 25 24" version="1.1" xmlns="http://www.w3.org/2000/svg" xmlns:xlink="http://www.w3.org/1999/xlink">
    <!-- Generator: Sketch 50.2 (55047) - http://www.bohemiancoding.com/sketch -->
    <title>redux</title>
    <desc>Created with Sketch.</desc>
    <defs></defs>
    <g id="Componentes" stroke="none" stroke-width="1" fill="none" fill-rule="evenodd">
        <g id="Logos-de-cursos" transform="translate(-1846.000000, -1666.000000)" fill="#323232" fill-rule="nonzero">
            <g id="Group-37" transform="translate(1846.000000, 1662.000000)">
                <path d="M17.3223587,20.5754641 C18.2449517,20.48002 18.9448498,19.6846523 18.9130362,18.7302109 C18.8812227,17.7757696 18.0858839,17.0122165 17.1314774,17.0122165 L17.0678503,17.0122165 C16.0816302,17.0440313 15.318105,17.8712138 15.3499186,18.8574697 C15.3817321,19.3346904 15.5726134,19.7482817 15.8589354,20.0346141 C14.7772746,22.1661996 13.12297,23.7251204 10.641513,25.0295236 C8.95539482,25.9203355 7.20564953,26.2384825 5.45590422,26.0157796 C4.02429444,25.8248913 2.91082016,25.1885971 2.21092204,24.1387117 C1.19288841,22.5797908 1.09744775,20.8936112 1.95641363,19.2074316 C2.5608711,17.9984726 3.51527762,17.1076607 4.11973509,16.6622547 C3.99248089,16.2486635 3.80159958,15.5487399 3.70615893,15.0397045 C-0.906805946,18.3802491 -0.429602683,22.897938 0.970193555,25.0295236 C2.02004073,26.6202591 4.15154865,27.6065152 6.5057514,27.6065152 C7.14202243,27.6065152 7.77829344,27.5428857 8.41456446,27.3838121 C12.4866989,26.5884444 15.5726134,24.1705264 17.3223587,20.5754641 Z M22.9215437,16.63044 C20.5037138,13.7989308 16.9405961,12.24001 12.8684615,12.24001 L12.3594447,12.24001 C12.0731228,11.6673452 11.4686653,11.2855687 10.8005808,11.2855687 L10.7369537,11.2855687 C9.75073359,11.3173834 8.98720838,12.1445659 9.01902192,13.1308219 C9.05083548,14.0852632 9.84617423,14.8488162 10.8005808,14.8488162 L10.8642079,14.8488162 C11.564106,14.8170016 12.1685635,14.3715956 12.4230719,13.7671161 L12.9957158,13.7671161 C15.4135456,13.7671161 17.7041213,14.4670398 19.7720022,15.8350723 C21.3626797,16.8849577 22.5079675,18.2529902 23.1442385,19.9073552 C23.6850689,21.2435731 23.6532553,22.5479762 23.0806114,23.661491 C22.189832,25.3476707 20.6945951,26.2702973 18.7221549,26.2702973 C17.4496129,26.2702973 16.240698,25.8885207 15.604427,25.6021884 C15.2544779,25.9203355 14.6182068,26.4293708 14.1728172,26.747518 C15.5407998,27.3838121 16.9405961,27.7337739 18.2767652,27.7337739 C21.3308661,27.7337739 23.5896282,26.0475944 24.4485941,24.3614147 C25.371187,22.5161614 25.30756,19.3346904 22.9215437,16.63044 Z M6.76025981,21.1163142 C6.79207337,22.0707555 7.58741214,22.8343086 8.54181866,22.8343086 L8.60544576,22.8343086 C9.59166584,22.8024939 10.355191,21.9753113 10.3233775,20.9890554 C10.291564,20.0346141 9.49622518,19.271061 8.54181866,19.271061 L8.47819156,19.271061 C8.41456446,19.271061 8.31912381,19.271061 8.25549671,19.3028757 C6.95114112,17.1394754 6.41031076,14.7851868 6.60119206,12.24001 C6.72844627,10.3311274 7.36471728,8.67676243 8.47819156,7.30872989 C9.40078454,6.1315856 11.1823434,5.55892081 12.3912583,5.5271061 C15.7634947,5.46347668 17.1951045,9.66301845 17.2905451,11.3491981 C17.7041213,11.4446422 18.4040194,11.6673452 18.8812227,11.8264188 C18.4994601,6.67243568 15.318105,4 12.2640041,4 C9.40078454,4 6.76025981,6.06795617 5.71041263,9.12216837 C4.24698929,13.1944513 5.20139582,17.1076607 6.98295467,20.1936876 C6.82388692,20.4163905 6.72844627,20.7663524 6.76025981,21.1163142 Z" id="redux"></path>
            </g>
        </g>
    </g>
</svg>