<?xml version="1.0" encoding="UTF-8"?>
<svg width="30px" height="30px" viewBox="0 0 30 30" version="1.1" xmlns="http://www.w3.org/2000/svg" xmlns:xlink="http://www.w3.org/1999/xlink">
    <!-- Generator: Sketch 50.2 (55047) - http://www.bohemiancoding.com/sketch -->
    <title>rocket</title>
    <desc>Created with Sketch.</desc>
    <defs></defs>
    <g id="01-Ficha-bootcamp" stroke="none" stroke-width="1" fill="none" fill-rule="evenodd">
        <g id="01-E-Ficha-Bootcamp" transform="translate(-1188.000000, -2830.000000)" fill="#585858" fill-rule="nonzero">
            <g id="Módulo-4" transform="translate(-6.000000, 2660.000000)">
                <g id="Group-22" transform="translate(92.000000, 153.000000)">
                    <g id="Group-57" transform="translate(1102.000000, 17.000000)">
                        <path d="M29.3085614,0.691432461 C28.835925,0.220266459 28.1196766,0 27.054786,0 C24.9220873,0 20.7398388,1.00651561 17.9623707,3.78537392 L12.2002913,9.54585238 L2.49082291,9.54585238 C2.10425303,9.54585238 1.73227069,9.70047651 1.45802489,9.97325683 L0.426685623,11.0060294 C-0.142228541,11.5763882 -0.142228541,12.4997569 0.426685623,13.0701157 L16.9310314,29.5725955 C17.2154885,29.8570456 17.5889296,30 17.9623707,30 C18.3358118,30 18.7092529,29.8570456 18.9937099,29.5725955 L20.026508,28.5412817 C20.3007538,28.2670427 20.4524642,27.8965283 20.4524642,27.5085092 L20.4524642,17.7978216 L26.2145436,12.0358845 C28.3122322,9.93970631 29.2370824,7.2323252 29.6003122,5.80861616 C29.8949806,4.65185257 30.456601,1.83944374 29.3085614,0.691432461 Z M9.28424154,12.4632889 L6.61617998,15.1312846 L3.94665967,12.4632889 L9.28424154,12.4632889 Z M8.67885851,17.195371 L18.9937099,6.88077409 L23.119067,11.0045707 L12.8056743,21.3206263 L8.67885851,17.195371 Z M17.5364144,26.0512496 L14.8683529,23.3847126 L17.5364144,20.7152582 L17.5364144,26.0512496 Z M25.0796327,8.83983273 L21.1585013,4.91879802 C23.2007572,3.48487795 25.7287784,2.91743655 27.054786,2.91743655 C27.0693736,2.91743655 27.0825024,2.91743655 27.0956311,2.91743655 C27.1131362,4.09316347 26.5661033,6.7217738 25.0796327,8.83983273 Z M8.97907324,25.2487234 C9.367713,24.860132 9.61285501,24.3923278 9.74289985,23.894632 L12,26.1529456 C11.7488789,26.5818906 11.4618834,26.9929007 11.0941704,27.3605679 C9.04334828,29.4111346 2.87892377,29.8445635 1.66367713,29.9103251 L0,30 L0.0896860987,28.3380247 C0.155455904,27.1229294 0.585949178,20.9592726 2.63826607,18.9057168 C3.0044843,18.5395442 3.41704036,18.2510898 3.8445441,18 L6.10164425,20.256819 C5.6083707,20.3883423 5.13751868,20.6334537 4.75186846,21.0205505 C4.09566517,21.6751775 3.50373692,24.2503425 3.21823617,26.7806701 C5.73991031,26.5011832 8.3064275,25.9197908 8.97907324,25.2487234 Z" id="rocket"></path>
                    </g>
                </g>
            </g>
        </g>
    </g>
</svg>