<?xml version="1.0" encoding="UTF-8"?>
<svg width="25px" height="19px" viewBox="0 0 25 19" version="1.1" xmlns="http://www.w3.org/2000/svg" xmlns:xlink="http://www.w3.org/1999/xlink">
    <!-- Generator: Sketch 50.2 (55047) - http://www.bohemiancoding.com/sketch -->
    <title>sass</title>
    <desc>Created with Sketch.</desc>
    <defs></defs>
    <g id="Componentes" stroke="none" stroke-width="1" fill="none" fill-rule="evenodd">
        <g id="Logos-de-cursos" transform="translate(-1521.000000, -1520.000000)" fill="#323232" fill-rule="nonzero">
            <g id="Group-13" transform="translate(1521.000000, 1511.000000)">
                <path d="M21.5211984,19.7606753 C20.6470987,19.7656074 19.8901967,19.9755378 19.2553756,20.288114 C19.0209802,19.8242063 18.7865847,19.4188486 18.7475676,19.1161366 C18.7036185,18.7645434 18.6499028,18.5496321 18.7036185,18.1297224 C18.7572853,17.709715 19.0014472,17.1139599 19.0014472,17.0651275 C18.9965151,17.0211783 18.9476827,16.8063158 18.444758,16.8014326 C17.9418332,16.7965494 17.5071761,16.8990974 17.4583437,17.0309448 C17.4095113,17.1627923 17.3118466,17.4655531 17.2483645,17.7780804 C17.1604662,18.2371048 16.2424173,19.8632233 15.7199107,20.7177901 C15.5489974,20.3857299 15.4025002,20.0927356 15.3731519,19.8582913 C15.3292516,19.5067469 15.2754871,19.2918356 15.3292516,18.8719259 C15.3829672,18.4519185 15.6271292,17.8562122 15.6271292,17.8073798 C15.6222459,17.7634307 15.5734135,17.5485681 15.0704888,17.5436849 C14.5674663,17.5388017 14.1329069,17.6413497 14.0840745,17.7731971 C14.0352422,17.9050446 13.9815265,18.2175719 13.8740953,18.5203327 C13.7714984,18.8230935 12.5506887,21.5381743 12.2332782,22.2462439 C12.0721313,22.6076036 11.9305662,22.8957147 11.8279694,23.0910442 C11.7254214,23.2863738 11.8230861,23.1056939 11.8133197,23.1252269 C11.7254214,23.291257 11.676589,23.3840385 11.676589,23.3840385 L11.676589,23.3889706 C11.6082236,23.5110516 11.534975,23.6282005 11.5007435,23.6282005 C11.4763273,23.6282005 11.427495,23.3010235 11.51051,22.8518143 C11.6911899,21.9093004 12.1306813,20.4394944 12.1258469,20.3857787 C12.1258469,20.3613625 12.2088132,20.102502 11.8425703,19.9707034 C11.4860938,19.838856 11.3591784,20.0586017 11.3298302,20.0586017 C11.3005307,20.0586017 11.2761146,20.1367336 11.2761146,20.1367336 C11.2761146,20.1367336 11.6716569,18.4813644 10.5192125,18.4813644 C9.79649319,18.4813644 8.80031247,19.2675659 8.30710535,19.985402 C7.99457806,20.1563153 7.33045758,20.5176262 6.62727119,20.9034509 C6.35869306,21.049948 6.08034845,21.2062117 5.81665355,21.3478256 L5.76298675,21.2891291 C4.36638045,19.7997412 1.78314711,18.7449617 1.89057837,16.7428337 C1.92964428,16.0152312 2.1835727,14.0961183 6.85199784,11.7716966 C10.6755738,9.86723348 13.7373646,10.38974 14.2695888,11.5519509 C15.0264908,13.2122521 12.6337038,16.298459 8.65879621,16.7428337 C7.14499217,16.9137471 6.34897541,16.3277584 6.14881145,16.1080127 C5.93883218,15.8785005 5.90953275,15.868734 5.83140093,15.9126831 C5.70443672,15.9810485 5.78256854,16.1861445 5.83140093,16.3082255 C5.94859866,16.6158695 6.43692254,17.1627923 7.26707314,17.4362536 C7.9946269,17.6755324 9.77217466,17.8073798 11.9207997,16.9772292 C14.3282365,16.0445306 16.2082834,13.456414 15.6564774,11.2931392 C15.094905,9.0907985 11.4422423,8.36807916 7.98979249,9.5937721 C5.93390011,10.3262579 3.70714321,11.4689358 2.10544088,12.9680901 C0.200977736,14.7455891 -0.101783071,16.298459 0.0251811386,16.9430465 C0.469604704,19.243052 3.63877787,20.7422063 4.90841996,21.8507015 C4.84493786,21.8848354 4.78633899,21.9190181 4.73262336,21.9483663 C4.09780232,22.2608448 1.6805991,23.5256525 1.07507749,24.8636111 C0.39142405,26.3774151 1.18250874,27.4664262 1.70989853,27.6129234 C3.3409003,28.0670646 5.01096798,27.2515637 5.91436716,25.908673 C6.81283427,24.5657823 6.70545185,22.8224661 6.29037655,22.0264981 L6.275678,21.9971987 L6.77376836,21.7042044 C7.09611095,21.5137581 7.41352148,21.3379615 7.69181726,21.1865322 C7.53560245,21.611374 7.42323912,22.1143476 7.36468909,22.8468334 C7.29632374,23.7063323 7.64791694,24.8196619 8.11182463,25.2591534 C8.31692066,25.4495509 8.5610826,25.454483 8.712463,25.454483 C9.24961927,25.454483 9.49378121,25.0100594 9.76235935,24.4778352 C10.0944196,23.8283644 10.3874139,23.0763457 10.3874139,23.0763457 C10.3874139,23.0763457 10.021171,25.1126562 11.022235,25.1126562 C11.3884779,25.1126562 11.7547208,24.6389821 11.9207509,24.3948201 L11.9207509,24.3997034 C11.9207509,24.3997034 11.9305174,24.3850537 11.9500503,24.350871 C11.9705397,24.3205749 11.9900821,24.2896491 12.0086492,24.2581383 L12.0086492,24.2483718 C12.1551464,23.9944434 12.4823234,23.413338 12.9706473,22.4513399 C13.6005362,21.2109973 14.2061067,19.6581273 14.2061067,19.6581273 C14.2061067,19.6581273 14.2647055,20.0390199 14.4453854,20.6640745 C14.5527678,21.0352495 14.7871633,21.4405095 14.9678431,21.8360518 C14.8213459,22.0411479 14.7334476,22.1583944 14.7334476,22.1583944 L14.7383309,22.1632777 C14.621182,22.3195413 14.4892857,22.4856203 14.3526038,22.6516015 C13.8545135,23.2473567 13.2587583,23.9261757 13.1806265,24.1215053 C13.087845,24.3509687 13.1073779,24.521882 13.2880578,24.6586615 C13.4199052,24.7563263 13.6543007,24.7758104 13.9033459,24.7563263 C14.3526038,24.726978 14.6651311,24.6147124 14.8213948,24.5462982 C15.0655567,24.4583999 15.3439013,24.3265525 15.6124795,24.1312229 C16.1008033,23.7699121 16.3986809,23.257172 16.3693815,22.5735186 C16.3547318,22.1975092 16.2326508,21.826383 16.0812704,21.4747898 C16.1252195,21.4113077 16.1692175,21.3477768 16.2131178,21.2794603 C16.9846696,20.1513833 17.5804247,18.9110894 17.5804247,18.9110894 C17.5804247,18.9110894 17.6390236,19.2919821 17.8197034,19.9170366 C17.9124361,20.2344472 18.098048,20.5812059 18.2640781,20.9230327 C17.5413588,21.5139046 17.0872176,22.197558 16.9309539,22.646816 C16.6428428,23.4769666 16.8674718,23.852976 17.2923136,23.9408743 C17.4827111,23.9799402 17.7562213,23.8920419 17.9612685,23.8041436 C18.2151969,23.7211285 18.522841,23.5794658 18.8061176,23.3695353 C19.2944415,23.0081756 19.7632325,22.505202 19.7388163,21.8264318 C19.7241665,21.5139046 19.6411515,21.2062605 19.528837,20.9132662 C20.1441251,20.6593378 20.9400442,20.5128406 21.9509234,20.6349216 C24.1239647,20.88885 24.5536897,22.2463904 24.4707235,22.8128461 C24.3877085,23.3793506 23.9335672,23.6918291 23.782138,23.7894939 C23.6307576,23.8822754 23.5819252,23.9165069 23.5965749,23.9848234 C23.6161079,24.0874203 23.6844732,24.0824882 23.8163207,24.0630041 C23.9970005,24.0336558 24.9589986,23.5990964 24.9980645,22.5541321 C25.0566633,21.2110461 23.782138,19.7460744 21.5211984,19.7606753 Z M4.7619228,25.4105826 C4.04408669,26.1967841 3.03325625,26.4946617 2.60353124,26.2407332 C2.13962355,25.9721551 2.32025455,24.8148275 3.20416961,23.9797937 C3.74132588,23.4719368 4.43962903,23.0031459 4.89865348,22.7150348 C5.0012015,22.6515527 5.15746514,22.55882 5.34302822,22.4464567 C5.37232765,22.4269726 5.3918606,22.4171572 5.3918606,22.4171572 C5.42604328,22.3976243 5.46510919,22.3732081 5.5041751,22.3487919 C5.8313521,23.5403022 5.51882481,24.5853153 4.7619228,25.4105826 Z M10.0114045,21.8409351 C9.76235935,22.4513399 9.23496956,24.0188596 8.91755903,23.9309613 C8.64404883,23.8577127 8.47806754,22.6710857 8.86379457,21.4991083 C9.05912413,20.9081876 9.47419943,20.2050501 9.71836137,19.9315399 C10.1139525,19.4920484 10.5436287,19.3455512 10.6511088,19.526231 C10.778073,19.7606753 10.1676682,21.4600424 10.0114045,21.8409351 Z M14.3428374,23.9114283 C14.2354061,23.9651928 14.1377413,24.0042099 14.0937922,23.9749593 C14.0596095,23.9554263 14.1376925,23.8821777 14.1376925,23.8821777 C14.1376925,23.8821777 14.679732,23.3010723 14.8945945,23.0324942 C15.0166755,22.8762794 15.1631727,22.6955995 15.3194363,22.4904547 L15.3194363,22.5490535 C15.3194851,23.2521911 14.6455982,23.720982 14.3428374,23.9114283 Z M17.6829239,23.1496431 C17.6047921,23.0910442 17.6146074,22.9103644 17.8782534,22.3439087 C17.9808503,22.1192797 18.2151969,21.7432703 18.6205057,21.3867939 C18.6693381,21.533291 18.6986864,21.6748561 18.6937543,21.8067524 C18.6889199,22.6857354 18.0638653,23.0129124 17.6829239,23.1496431 Z" id="sass"></path>
            </g>
        </g>
    </g>
</svg>