<?xml version="1.0" encoding="UTF-8"?>
<svg width="134px" height="27px" viewBox="0 0 134 27" version="1.1" xmlns="http://www.w3.org/2000/svg" xmlns:xlink="http://www.w3.org/1999/xlink">
    <!-- Generator: Sketch 51.3 (57544) - http://www.bohemiancoding.com/sketch -->
    <title>Group</title>
    <desc>Created with Sketch.</desc>
    <defs></defs>
    <g id="00-Home" stroke="none" stroke-width="1" fill="none" fill-rule="evenodd">
        <g id="00-E-Home-1920" transform="translate(-889.000000, -2947.000000)" fill="#FFFFFF">
            <g id="Group-28" transform="translate(-1703.000000, -249.000000)">
                <g id="Group" transform="translate(2592.000000, 3196.000000)">
                    <path d="M24.0195291,6.64212144 C25.1665406,5.32014523 25.658117,4.67918707 25.5761876,4.35870799 C25.4942582,4.11834868 25.2075053,3.91804925 24.7978583,3.75780971 C24.3882113,3.59757017 23.7737409,3.5174504 23.486988,3.67768994 C23.4050586,3.75780971 23.2411998,3.91804925 22.8315528,4.35870799 L22.5038352,4.75930684 C22.258047,4.51894753 22.0122588,4.27858822 21.7664706,4.07828879 C20.0459532,2.59607304 17.8748242,1.6346358 15.580801,1.27409684 C14.6386129,0.312659595 13.4506366,-0.127999141 12.2626604,0.0322403997 C11.2385429,0.19247994 10.3782842,0.793378216 9.7638137,1.67469569 C7.42882584,2.39577362 5.29866148,3.71774983 3.61910881,5.48038477 C3.25042651,5.400265 2.43113253,5.52044466 1.89859144,5.80086385 C1.61183854,5.96110339 1.44797974,6.16140282 1.40701505,6.36170224 C1.36605035,6.52194178 1.44797974,6.76230109 2.10341493,7.48337902 C0.423862262,10.0472117 -0.272537626,13.0917629 0.0961446676,16.0561944 C0.464826961,19.0606858 1.89859144,21.8248179 4.2335793,23.7877522 C5.05287328,24.4687703 5.95409667,25.0696686 6.89628475,25.5103273 C8.28908453,26.1913454 9.8457431,26.6320041 11.4843311,26.8723634 C14.9253658,27.3130221 18.2435065,26.5919442 20.9881413,25.0296087 C21.3568236,24.8293093 21.4797177,24.4287104 21.2748942,24.0281116 L21.2339295,23.9079319 C20.5375296,22.3856563 18.3664006,17.6585898 19.5543768,13.3321222 C20.0869179,11.5294274 21.5206824,9.60655293 22.7905881,8.0842773 C24.1014585,10.1273314 24.7978583,12.5309245 24.6749642,14.8944578 C24.5930348,17.1378113 23.8556703,19.2209254 22.5038352,20.9835603 C22.4628705,21.0236202 22.4219058,21.0636801 22.4219058,21.1437998 C22.4628705,21.1838597 22.4628705,21.1838597 22.4628705,21.2239196 L22.5857646,21.5443987 C22.6267293,21.6245185 22.7496234,21.7046382 22.8725175,21.7046382 C22.9134822,21.6645783 22.9954116,21.6245185 23.0363763,21.5844586 C26.5593404,17.2179311 27.0099521,11.1688885 24.0195291,6.64212144 Z M8.37101393,16.8173322 C8.08426103,18.4597875 7.71557874,20.6630812 8.04329633,24.0281116 C7.14207295,23.5874528 6.28181426,22.9865545 5.50348497,22.3455964 C3.37332061,20.5429016 1.93955614,18.0992486 1.48894444,15.4552962 C0.997368052,12.8914635 1.44797974,10.287571 2.67692072,8.12433719 C3.16849711,8.60505581 3.7420029,9.1658942 4.35647339,9.72673259 C5.83120257,11.1688885 7.46979054,12.7712839 8.28908453,13.9330205 C8.78066092,14.5739787 8.61680212,15.4152363 8.37101393,16.8173322 Z M21.1520001,6.12134293 C18.44833,8.80535523 15.9085186,10.2475111 13.5735307,10.4077506 C11.771084,10.5279303 9.8867078,10.0071518 7.92040223,8.84541512 C6.32277896,7.88397787 5.09383798,6.76230109 4.35647339,6.08128305 L4.274544,6.00116328 C5.58541437,4.5990673 7.26496704,3.59757017 9.14934321,3.03673178 C9.14934321,3.03673178 9.14934321,3.03673178 9.14934321,3.03673178 C9.14934321,3.03673178 9.14934321,3.03673178 9.14934321,3.03673178 C8.94451972,3.75780971 8.94451972,4.51894753 9.06741381,5.28008534 C9.27223731,6.68218132 10.0096019,7.88397787 11.0337194,8.64511569 C11.8530134,9.20595408 12.8361661,9.44631339 13.7373895,9.32613374 C14.6795776,9.1658942 15.4988716,8.64511569 16.1133421,7.84391799 C16.8507067,6.84242086 17.1784243,5.44032489 16.9326361,4.07828879 C16.9326361,3.83792948 16.8507067,3.55751029 16.7687773,3.31715098 C18.1206124,3.83792948 19.390518,4.55900741 20.4965649,5.52044466 C20.7423531,5.72074408 20.9471766,5.92104351 21.1520001,6.12134293 Z" id="Fill-10"></path>
                    <path d="M66.1265746,13.2212389 L63.9488176,13.2212389 L63.9488176,15.6902655 C63.9488176,16.2477876 64.2714483,16.6460177 64.8763808,16.6460177 C65.2796691,16.6460177 65.6426286,16.5265487 66.1265746,16.2876106 L66.1265746,17.6415929 C65.4813133,17.920354 64.9973673,18 64.3924348,18 C63.142241,18 62.0533625,17.4424779 62.0533625,15.7699115 L62.0533625,13.2212389 L61.206457,13.2212389 L61.206457,12.8628319 L63.7068446,10.1150442 L63.9488176,10.1150442 L63.9488176,11.9469027 L66.1265746,11.9469027 L66.1265746,13.2212389 Z M92.0176852,15.2123894 C90.7271625,15.8097345 89.9205859,16.1681416 88.7913786,16.1681416 C86.9362523,16.1681416 85.6054008,15.0530973 85.6054008,13.5 C85.6054008,11.9469027 86.9362523,10.8318584 88.8317074,10.8318584 C89.9205859,10.8318584 90.9288067,11.1902655 91.8966987,11.7079646 L91.8966987,9.75663717 C91.0094644,9.23893805 89.9205859,9 88.6703921,9 C85.2827701,9 83.3066573,11.1902655 83.3066573,13.539823 C83.3066573,15.8097345 85.0407971,18 88.5090767,18 C89.8399282,18 90.7674914,17.7610619 92.0176852,17.1238938 L92.0176852,15.2123894 Z M45.8411717,17.1238938 L44.5103203,18 C43.9457166,17.880531 43.5424283,17.6017699 43.3407841,17.2831858 C42.9778246,17.6017699 42.5342075,18 41.5663155,18 C39.509545,18 38.7029684,16.2079646 38.7029684,14.9336283 C38.7029684,13.5 39.5902027,11.8274336 41.6066443,11.8274336 C42.413221,11.8274336 42.897167,12.0663717 43.1794688,12.2256637 L43.1794688,11.9469027 L45.0749239,11.9469027 L45.0749239,15.8495575 C45.0749239,16.3672566 45.1555816,16.9646018 45.8411717,17.1238938 Z M43.1794688,13.420354 C42.9374958,13.300885 42.6148651,13.1017699 42.0905903,13.1017699 C41.0017118,13.1017699 40.6387523,14.2168142 40.6387523,15.0530973 C40.6387523,15.8495575 41.0420407,16.6858407 42.1309191,16.6858407 C42.6955228,16.6858407 42.9778246,16.4469027 43.1794688,16.2876106 L43.1794688,13.420354 Z M58.5850829,15.2123894 L54.2698978,15.2123894 C54.3102266,16.2876106 55.0764744,16.8849558 56.2460106,16.8849558 C57.0122584,16.8849558 57.5768621,16.6858407 58.4640964,16.0486726 L58.4640964,17.2035398 C57.3752179,18 56.2460106,18 55.8023934,18 C53.6649653,18 52.293785,16.8053097 52.293785,14.9336283 C52.293785,13.1415929 53.6246365,11.8274336 55.4797628,11.8274336 C57.2139026,11.8274336 58.6657405,13.0619469 58.5850829,15.2123894 Z M56.9719296,14.2566372 C56.8912719,13.420354 56.4073259,12.9424779 55.6814069,12.9424779 C54.9554879,12.9424779 54.4715419,13.420354 54.3908843,14.2566372 L56.9719296,14.2566372 Z M80.483639,15.2123894 L76.1684539,15.2123894 C76.2491116,16.2876106 76.9750306,16.9247788 78.1445667,16.9247788 C78.9108145,16.9247788 79.515747,16.6858407 80.4029814,16.0486726 L80.4029814,17.2433628 C79.3141029,18 78.1848956,18 77.7009496,18 C75.6038503,18 74.23267,16.8053097 74.23267,14.9336283 C74.23267,13.1415929 75.5231926,11.8274336 77.3783189,11.8274336 C79.1124587,11.8274336 80.5642967,13.0619469 80.483639,15.2123894 Z M78.8301569,14.2566372 C78.7494992,13.420354 78.2252244,12.9424779 77.4993054,12.9424779 C76.7733864,12.9424779 76.2894404,13.420354 76.2087828,14.2566372 L78.8301569,14.2566372 Z M69.0705794,9.11946903 L67.1751242,9.11946903 L67.1751242,17.880531 L69.0705794,17.880531 L69.0705794,14.3761062 C69.0705794,13.8185841 69.4335389,13.2212389 70.3207732,13.2212389 C70.9257057,13.2212389 71.2886652,13.619469 71.2886652,14.4955752 L71.2886652,17.880531 L73.1841203,17.880531 L73.1841203,14.0973451 C73.1841203,12.5044248 72.0952418,11.8274336 71.0063633,11.8274336 C70.2401155,11.8274336 69.5948542,12.1460177 69.0705794,12.8230088 L69.0705794,9.11946903 Z M95.3246495,9.11946903 L93.4291943,9.11946903 L93.4291943,17.880531 L95.3246495,17.880531 L95.3246495,14.3761062 C95.3246495,13.8185841 95.7279378,13.2212389 96.6151721,13.2212389 C97.1797758,13.2212389 97.5830641,13.619469 97.5830641,14.4955752 L97.5830641,17.880531 L99.4785192,17.880531 L99.4785192,14.0973451 C99.4785192,12.5044248 98.3493119,11.8274336 97.2604334,11.8274336 C96.5345144,11.8274336 95.8892531,12.1460177 95.3246495,12.8230088 L95.3246495,9.11946903 Z M37.4124457,9.67699115 C36.2832384,9.19911504 35.3960041,9 34.3877833,9 C32.3310128,9 31,9.99557522 31,11.5088496 C31,14.6946903 35.5169906,14.1371681 35.5169906,15.6106195 C35.5169906,16.0884956 35.0733734,16.4070796 34.2264679,16.4070796 C33.2585759,16.4070796 32.4519993,16.0884956 31.2016442,15.2522124 L31.2016442,17.1637168 C32.0485496,17.6017699 32.8552876,18 34.3877833,18 C36.3638961,18 37.815734,17.0442478 37.815734,15.3318584 C37.815734,12.2654867 33.2989048,12.6637168 33.2989048,11.3097345 C33.2989048,10.9115044 33.7828508,10.5929204 34.5894274,10.5929204 C35.3556752,10.5929204 36.1219231,10.8318584 37.4124457,11.3893805 L37.4124457,9.67699115 Z M101.656276,9 C101.091673,9 100.607727,9.47787611 100.607727,10.0353982 C100.607727,10.5929204 101.091673,11.0707965 101.656276,11.0707965 C102.22088,11.0707965 102.704826,10.5929204 102.704826,10.0353982 C102.704826,9.47787611 102.22088,9 101.656276,9 Z M102.583839,11.9469027 L100.728713,11.9469027 L100.728713,17.880531 L102.583839,17.880531 L102.583839,11.9469027 Z M105.931132,9.11946903 L104.035677,9.11946903 L104.035677,15.5707965 C104.035677,16.7256637 104.358308,17.960177 106.334421,18 L106.939353,16.6460177 C106.132777,16.5265487 105.931132,16.1283186 105.931132,15.2522124 L105.931132,9.11946903 Z M117.142548,11.9469027 L115.247093,11.9469027 L115.247093,17.880531 L117.142548,17.880531 L117.142548,15.2920354 C117.142548,14.1769912 117.707152,13.579646 118.675044,13.579646 C118.957345,13.579646 119.320305,13.7389381 119.804251,14.0176991 L120.328526,12.3849558 C119.763922,11.9867257 119.441291,11.8274336 119.078332,11.8274336 C118.473399,11.8274336 117.586165,12.1858407 117.142548,13.340708 L117.142548,11.9469027 Z M126.821468,15.2123894 L122.465954,15.2123894 C122.546612,16.2876106 123.272531,16.9247788 124.482395,16.9247788 C125.208314,16.9247788 125.813247,16.6858407 126.700481,16.0486726 L126.700481,17.2433628 C125.611603,18 124.482395,18 123.998449,18 C121.90135,18 120.53017,16.8053097 120.53017,14.9336283 C120.53017,13.1415929 121.861021,11.8274336 123.716148,11.8274336 C125.450287,11.8274336 126.902125,13.0619469 126.821468,15.2123894 Z M125.127657,14.2566372 C125.046999,13.420354 124.563053,12.9424779 123.837134,12.9424779 C123.070886,12.9424779 122.58694,13.420354 122.506283,14.2566372 L125.127657,14.2566372 Z M131.781914,11.8672566 C131.055995,11.8672566 130.410734,12.1460177 129.886459,12.8628319 L129.886459,11.9469027 L127.991004,11.9469027 L127.991004,17.920354 L129.886459,17.920354 L129.886459,14.3761062 C129.886459,13.8584071 130.249419,13.2212389 131.136653,13.2212389 C131.741585,13.2212389 132.104545,13.619469 132.104545,14.5353982 L132.104545,17.920354 L134,17.920354 L134,14.1371681 C134,12.5044248 132.911122,11.8672566 131.781914,11.8672566 Z M113.835584,9.11946903 L111.940129,9.11946903 L111.940129,12.2256637 C111.456183,11.9867257 110.931908,11.8274336 110.367304,11.8274336 C108.673493,11.8274336 107.463628,13.1017699 107.463628,14.9336283 C107.463628,16.6858407 108.673493,18 110.286646,18 C110.931908,18 111.415854,17.840708 111.940129,17.4026549 L111.940129,17.880531 L113.835584,17.880531 L113.835584,9.11946903 Z M111.940129,16.2876106 C111.53684,16.6061947 111.21421,16.7654867 110.810921,16.7654867 C109.923687,16.7654867 109.359083,16.0486726 109.359083,14.9734513 C109.359083,13.7787611 109.923687,13.1017699 110.891579,13.1017699 C111.21421,13.1017699 111.657827,13.2610619 111.940129,13.420354 L111.940129,16.2876106 Z M52.2131273,11.9469027 L50.2370145,11.9469027 L48.9464919,15.2123894 L47.6559692,11.9469027 L45.8008429,11.9469027 L48.3818882,17.880531 L49.5110955,17.880531 L52.2131273,11.9469027 Z" id="Fill-11"></path>
                </g>
            </g>
        </g>
    </g>
</svg>