<svg xmlns="http://www.w3.org/2000/svg" width="56" height="67" viewBox="0 0 56 67">
  <g fill="#FFF">
    <path d="M52.1307621,32.104123 L39.1999213,25.6579902 L39.1999213,5.58337695 C39.1999213,2.50399414 36.6871479,0 33.6000262,0 C31.1610151,0 29.0800529,1.56350781 28.314474,3.73629687 C27.4230268,3.140625 26.3512427,2.79162305 25.2000525,2.79162305 C22.1129309,2.79162305 19.6000262,5.29574805 19.6000262,8.375 L19.6000262,42.9409805 C19.6000262,43.6443496 19.1351402,44.0055215 18.9355096,44.1282676 C18.735879,44.2523223 18.2053681,44.5017402 17.5737951,44.1896406 L8.58319818,39.707707 C7.76288824,39.2987715 6.84689735,39.083377 5.93090647,39.083377 C2.66056044,39.083377 0,41.7360273 0,44.9966504 L0,46.0625 C0,46.449582 0.161305746,46.818998 0.445723607,47.0834648 L16.6058294,62.1186836 C19.9856375,65.2661133 24.3933925,67 29.0226968,67 L42,67 C49.7191821,67 56,60.7378555 56,53.041623 L56,38.3458535 C55.9998688,35.6850898 54.5179296,33.2941582 52.1307621,32.104123 Z M53.1999213,53.041623 C53.1999213,59.1988184 48.1768682,64.2082461 42,64.2082461 L29.0226968,64.2082461 C25.1071278,64.2082461 21.374652,62.7415742 18.5144609,60.0779316 L2.80007875,45.4559668 L2.80007875,44.9966504 C2.80007875,43.2749336 4.20549936,41.875 5.93090647,41.875 C6.41495495,41.875 6.89887219,41.989502 7.33094584,42.2048965 L16.3215427,46.6868301 C17.6395511,47.3451836 19.1598151,47.2716406 20.4094425,46.5041504 C21.6563136,45.7353516 22.400105,44.4035957 22.400105,42.9409805 L22.400105,8.375 C22.400105,6.83609375 23.6552448,5.58337695 25.2000525,5.58337695 C26.7449914,5.58337695 28,6.83609375 28,8.375 L28,26.520877 C28,27.2924238 28.6261918,27.9167539 29.4000394,27.9167539 C30.173887,27.9167539 30.8000787,27.2924238 30.8000787,26.520877 L30.8000787,5.58337695 C30.8000787,4.0444707 32.0552186,2.79175391 33.6000262,2.79175391 C35.1449652,2.79175391 36.3999738,4.0444707 36.3999738,5.58337695 L36.3999738,26.520877 C36.3999738,27.0498105 36.7007978,27.5322891 37.1738213,27.7695371 L50.8785098,34.6014434 C52.3112303,35.3156738 53.1999213,36.7496309 53.1999213,38.3458535 L53.1999213,53.041623 Z"/>
    <path d="M6.0099797,33.589845 C6.28350513,33.8632379 6.64168694,34 6.99986875,34 C7.35805056,34 7.71623237,33.8632379 7.9897578,33.589845 L13.5898103,27.9898188 C14.1367299,27.4429017 14.1367299,26.556967 13.5898103,26.0101812 C13.0428907,25.4632642 12.1569518,25.4632642 11.6101635,26.0101812 L8.40004594,29.2202837 L8.40004594,7.40003937 C8.40004594,6.62619179 7.77385121,6 7,6 C6.22614879,6 5.59995406,6.62619179 5.59995406,7.40003937 L5.59995406,29.2202837 L2.38983655,26.0101812 C1.84291694,25.4632642 0.956978058,25.4632642 0.410189703,26.0101812 C-0.136729901,26.5570983 -0.136729901,27.443033 0.410189703,27.9898188 L6.0099797,33.589845 Z"/>
  </g>
</svg>
