<?xml version="1.0" encoding="utf-8"?>
<!-- Generator: Adobe Illustrator 21.0.0, SVG Export Plug-In . SVG Version: 6.00 Build 0)  -->
<svg version="1.1" id="Capa_1" xmlns="http://www.w3.org/2000/svg" xmlns:xlink="http://www.w3.org/1999/xlink" x="0px" y="0px"
	 width="45px" height="81px" viewBox="0 0 45 81" enable-background="new 0 0 45 81" xml:space="preserve">
<path fill="#FFFFFF" d="M22.5,0C10.1,0,0,10.1,0,22.5v22C0,56.9,10.1,67,22.5,67S45,56.9,45,44.5v-22C45,10.1,34.9,0,22.5,0z
	 M22.8,15.4L22.8,15.4c2.4,0,4.4,2,4.4,4.4v6.4c0,2.4-2,4.4-4.4,4.4c-2.4,0-4.4-2-4.4-4.4v-6.4C18.4,17.4,20.4,15.4,22.8,15.4z
	 M42.6,44.5c0,11.1-9,20.1-20.1,20.1s-20.1-9-20.1-20.1v-22c0-10.6,8.2-19.3,18.6-20v10.8c-2.9,0.8-5,3.4-5,6.6v6.4
	c0,3.8,3.1,6.8,6.8,6.8c3.8,0,6.8-3.1,6.8-6.8v-6.4c0-3.6-2.8-6.5-6.3-6.8V2.4c10.7,0.5,19.2,9.3,19.2,20.1V44.5z"/>
<path fill="#FFFFFF" d="M30.8,73.4c-0.3-0.4-1-0.5-1.4-0.2l-6.2,4.5V48c0-0.6-0.4-1-1-1s-1,0.4-1,1v29.3l-5.6-4.1
	c-0.4-0.3-1.1-0.2-1.4,0.2c-0.3,0.4-0.2,1.1,0.2,1.4l7.5,5.5c0,0,0.1,0,0.1,0.1c0,0,0.1,0,0.1,0c0.1,0.1,0.3,0.1,0.4,0.1
	c0,0,0,0,0,0s0,0,0,0c0.1,0,0.3,0,0.4-0.1c0,0,0.1,0,0.1,0c0,0,0.1,0,0.1-0.1l7.5-5.5C31,74.5,31.1,73.9,30.8,73.4z"/>
</svg>
