<?xml version="1.0" encoding="UTF-8"?>
<svg width="31px" height="29px" viewBox="0 0 31 29" version="1.1" xmlns="http://www.w3.org/2000/svg" xmlns:xlink="http://www.w3.org/1999/xlink">
    <!-- Generator: Sketch 51.3 (57544) - http://www.bohemiancoding.com/sketch -->
    <title>swipe-gesture</title>
    <desc>Created with Sketch.</desc>
    <defs></defs>
    <g id="00-Home" stroke="none" stroke-width="1" fill="none" fill-rule="evenodd">
        <g id="00-M-Home" transform="translate(-163.000000, -6799.000000)" fill="#FFFFFF" fill-rule="nonzero">
            <g id="Módulo-3" transform="translate(-1081.000000, 6096.000000)">
                <g id="Group-2" transform="translate(1244.000000, 703.000000)">
                    <path d="M21.9056819,17.7763077 L18.2003591,16.5276154 L18.2003591,9.61538462 C18.2003591,8.72369231 17.4836127,8 16.6004788,8 L11.8008379,8 C10.917704,8 10.2009576,8.72369231 10.2009576,9.61538462 L10.2009576,19.3076923 L8.60107729,19.3076923 C8.04591882,19.3076923 7.53235724,19.5984615 7.23957915,20.075 C6.94680105,20.5515385 6.92120297,21.146 7.16918442,21.6467692 L10.368945,28.1083077 C10.6409247,28.6543077 11.1944833,29 11.8008379,29 L21.4001197,29 C22.2832536,29 23,28.2779231 23,27.3846154 L23,19.3076923 C23,18.6114615 22.5600329,17.996 21.9056819,17.7763077 Z M19.8002394,25.7692308 L12.7895639,25.7692308 L11.1896836,22.5384615 L11.8008379,22.5384615 C12.6839718,22.5384615 13.4007182,21.8163846 13.4007182,20.9230769 L13.4007182,11.2307692 L15.0005985,11.2307692 L15.0005985,17.6923077 C15.0005985,18.3885385 15.4405656,19.0056154 16.0949166,19.2253077 L19.8002394,20.4723846 L19.8002394,25.7692308 Z M27.6943911,1.66666667 L31,1.66666667 L31,10 L22.7359778,10 L22.7359778,6.66666667 L25.1970036,6.66666667 C22.3657496,4.52666667 18.9163468,3.33333333 15.2983579,3.33333333 C10.3498614,3.33333333 5.7021753,5.545 2.54862444,9.39333333 L0,7.27166667 C3.78326935,2.65166667 9.35983152,0 15.2983579,0 C19.8634037,0 24.2069738,1.58 27.6943911,4.40666667 L27.6943911,1.66666667 Z" id="swipe-gesture"></path>
                </g>
            </g>
        </g>
    </g>
</svg>