<?xml version="1.0" encoding="UTF-8"?>
<svg width="29px" height="26px" viewBox="0 0 29 26" version="1.1" xmlns="http://www.w3.org/2000/svg" xmlns:xlink="http://www.w3.org/1999/xlink">
    <!-- Generator: Sketch 51.3 (57544) - http://www.bohemiancoding.com/sketch -->
    <title>Shape</title>
    <desc>Created with Sketch.</desc>
    <defs></defs>
    <g id="01-Ficha-bootcamp" stroke="none" stroke-width="1" fill="none" fill-rule="evenodd">
        <g id="01-E-Ficha-Bootcamp" transform="translate(-958.000000, -7363.000000)" fill="#FFFFFF" fill-rule="nonzero">
            <g id="Módulo-8" transform="translate(0.000000, 6912.000000)">
                <g id="Group-45" transform="translate(0.000000, 32.000000)">
                    <g id="Group-39" transform="translate(0.000000, 278.000000)">
                        <g id="Group-38">
                            <g id="window-programming" transform="translate(958.000000, 141.000000)">
                                <g id="Line_Icons">
                                    <g id="Group">
                                        <path d="M26.2990196,0 L2.62990196,0 C1.17951103,0 0,1.15983065 0,2.58602151 L0,23.2741935 C0,24.7003844 1.17951103,25.8602151 2.62990196,25.8602151 L26.2990196,25.8602151 C27.7494105,25.8602151 28.9289216,24.7003844 28.9289216,23.2741935 L28.9289216,2.58602151 C28.9289216,1.15983065 27.7494105,0 26.2990196,0 Z M26.2990196,5.17204301 L15.7794118,5.17204301 L15.7794118,2.58602151 L26.2990196,2.58602151 L26.2990196,5.17204301 Z M9.20465686,5.17204301 L9.20465686,2.58602151 L13.1495098,2.58602151 L13.1495098,5.17204301 L9.20465686,5.17204301 Z M6.5747549,2.58602151 L6.5747549,5.17204301 L2.62990196,5.17204301 L2.62990196,2.58602151 L6.5747549,2.58602151 Z M2.62990196,23.2741935 L2.62990196,7.75806452 L26.2977047,7.75806452 L26.2950748,23.2741935 L2.62990196,23.2741935 Z M15.7794118,16.8091398 L15.7794118,19.3951613 L22.3541667,19.3951613 L22.3541667,16.8091398 L15.7794118,16.8091398 Z M6.96003554,12.5525484 L9.97521814,15.516129 L6.96003554,18.4822957 L8.81937623,20.3106129 L13.6938995,15.516129 L8.81937623,10.7242312 L6.96003554,12.5525484 Z" id="Shape"></path>
                                    </g>
                                </g>
                            </g>
                        </g>
                    </g>
                </g>
            </g>
        </g>
    </g>
</svg>