<?xml version="1.0" encoding="UTF-8"?>
<svg width="41px" height="36px" viewBox="0 0 41 36" version="1.1" xmlns="http://www.w3.org/2000/svg" xmlns:xlink="http://www.w3.org/1999/xlink">
    <!-- Generator: Sketch 50.2 (55047) - http://www.bohemiancoding.com/sketch -->
    <title>Group 6</title>
    <desc>Created with Sketch.</desc>
    <defs></defs>
    <g id="Componentes" stroke="none" stroke-width="1" fill="none" fill-rule="evenodd">
        <g id="Iconos-horario" transform="translate(-515.000000, -145.000000)" fill-rule="nonzero">
            <g id="Group-6" transform="translate(515.000000, 145.000000)">
                <path d="M36.8186275,0 L3.68186275,0 C1.65131544,0 0,1.61244748 0,3.59520063 L0,32.3568057 C0,34.3395588 1.65131544,35.9520063 3.68186275,35.9520063 L36.8186275,35.9520063 C38.8491748,35.9520063 40.5004902,34.3395588 40.5004902,32.3568057 L40.5004902,3.59520063 C40.5004902,1.61244748 38.8491748,0 36.8186275,0 Z M36.8186275,7.19040126 L22.0911765,7.19040126 L22.0911765,3.59520063 L36.8186275,3.59520063 L36.8186275,7.19040126 Z M12.8865196,7.19040126 L12.8865196,3.59520063 L18.4093137,3.59520063 L18.4093137,7.19040126 L12.8865196,7.19040126 Z M9.20465686,3.59520063 L9.20465686,7.19040126 L3.68186275,7.19040126 L3.68186275,3.59520063 L9.20465686,3.59520063 Z M3.68186275,32.3568057 L3.68186275,10.7856019 L36.8167865,10.7856019 L36.8131047,32.3568057 L3.68186275,32.3568057 Z" id="Shape" fill="#8D8D8D"></path>
                <rect id="Rectangle-path" fill="#9AD4C8" x="22.0911765" y="23.3688041" width="9.20465686" height="3.59520063"></rect>
                <polygon id="Shape" fill="#AD76BD" points="9.74404975 17.4511039 13.9653054 21.5712038 9.74404975 25.6948989 12.3471267 28.2367057 19.1714593 21.5712038 12.3471267 14.909297"></polygon>
            </g>
        </g>
    </g>
</svg>