<?xml version="1.0" encoding="UTF-8"?>
<svg width="42px" height="42px" viewBox="0 0 42 42" version="1.1" xmlns="http://www.w3.org/2000/svg" xmlns:xlink="http://www.w3.org/1999/xlink">
    <!-- Generator: Sketch 50.2 (55047) - http://www.bohemiancoding.com/sketch -->
    <title>twitter</title>
    <desc>Created with Sketch.</desc>
    <defs></defs>
    <g id="00-Home" stroke="none" stroke-width="1" fill="none" fill-rule="evenodd" opacity="0.846986607">
        <g id="00-E-Home-1920" transform="translate(-1747.000000, -6970.000000)" fill="#FFFFFF" fill-rule="nonzero">
            <g id="Footer" transform="translate(-679.000000, 6373.000000)">
                <g id="Group-32">
                    <g id="Group-27" transform="translate(725.000000, 389.000000)">
                        <g id="Group-37" transform="translate(0.000000, 208.000000)">
                            <g id="Group-28" transform="translate(1701.000000, 0.000000)">
                                <path d="M21,41.5 C9.67816263,41.5 0.5,32.3218374 0.5,21 C0.5,9.67816263 9.67816263,0.5 21,0.5 C32.3218374,0.5 41.5,9.67816263 41.5,21 C41.5,32.3218374 32.3218374,41.5 21,41.5 Z M21,40.5 C31.7695526,40.5 40.5,31.7695526 40.5,21 C40.5,10.2304474 31.7695526,1.5 21,1.5 C10.2304474,1.5 1.5,10.2304474 1.5,21 C1.5,31.7695526 10.2304474,40.5 21,40.5 Z M32.91842,15.01238 C32.34312,15.87302 31.61552,16.62886 30.77692,17.23395 C30.78522,17.41805 30.78942,17.60314 30.78942,17.78918 C30.78942,23.4605 26.47262,30 18.57873,30 C16.15514,30 13.89926,29.2894 12,28.0717 C12.33574,28.1114 12.67735,28.1318 13.02376,28.1318 C15.0345,28.1318 16.88499,27.4457 18.35377,26.2945 C16.47576,26.26 14.89084,25.0191 14.34469,23.3142 C14.60678,23.3642 14.87563,23.3912 15.15217,23.3912 C15.54357,23.3912 15.92272,23.3387 16.28282,23.2406 C14.31956,22.8463 12.84021,21.1118 12.84021,19.0324 C12.84021,19.0143 12.84021,18.99639 12.84062,18.97846 C13.41919,19.2999 14.08102,19.4929 14.78446,19.5153 C13.63287,18.74563 12.87524,17.43204 12.87524,15.94309 C12.87524,15.15656 13.08688,14.41935 13.45632,13.78551 C15.57298,16.38203 18.73532,18.0906 22.30212,18.2696 C22.22892,17.95546 22.19092,17.6279 22.19092,17.29155 C22.19092,14.92147 24.11262,13 26.48272,13 C27.71712,13 28.83242,13.52112 29.61522,14.3552 C30.59282,14.16278 31.51122,13.80564 32.34052,13.31378 C32.02012,14.31598 31.33952,15.15701 30.45362,15.68815 C31.32162,15.58442 32.14882,15.35373 32.91842,15.01238 Z" id="twitter"></path>
                            </g>
                        </g>
                    </g>
                </g>
            </g>
        </g>
    </g>
</svg>