<?xml version="1.0" encoding="UTF-8"?>
<svg width="25px" height="25px" viewBox="0 0 25 25" version="1.1" xmlns="http://www.w3.org/2000/svg" xmlns:xlink="http://www.w3.org/1999/xlink">
    <!-- Generator: Sketch 50.2 (55047) - http://www.bohemiancoding.com/sketch -->
    <title>typescript</title>
    <desc>Created with Sketch.</desc>
    <defs></defs>
    <g id="Componentes" stroke="none" stroke-width="1" fill="none" fill-rule="evenodd">
        <g id="Logos-de-cursos" transform="translate(-1846.000000, -1579.000000)" fill="#323232" fill-rule="nonzero">
            <g id="Group-36" transform="translate(1846.000000, 1577.000000)">
                <path d="M0,14.5 L0,2 L25,2 L25,27 L0,27 L0,14.5 Z M5.55555556,14.5275299 L5.55555556,15.5286969 L8.77747361,15.5286969 L8.77747361,24.6190476 L11.0637962,24.6190476 L11.0637962,15.5286969 L14.2857143,15.5286969 L14.2857143,14.5459563 C14.2857143,13.9931647 14.2857143,13.5447893 14.2609303,13.532505 C14.2609303,13.5140786 12.2967995,13.5079365 9.91134093,13.5079365 L5.57414354,13.5263629 L5.57414354,14.533672 L5.55555556,14.5275299 Z M19.801396,13.6306519 L19.8136838,13.6182157 C19.3897554,13.5062891 18.3760136,13.4689803 17.9459413,13.5560342 C16.6188611,13.8047599 15.6911337,14.6752998 15.4269465,15.9189281 C15.340932,16.2733622 15.3716514,17.1563384 15.4638098,17.5169906 C15.5866876,17.9336061 15.8508748,18.4372756 16.1396377,18.760619 C16.6434366,19.2953792 17.1840989,19.6435951 18.4558841,20.1907916 C19.5617843,20.6882429 19.9549932,20.912096 20.1515977,21.1856943 C20.2929072,21.4033292 20.3359144,21.5339102 20.3359144,21.8199447 C20.3359144,22.1308518 20.2376122,22.3547049 20.0102882,22.5661218 C19.4819137,23.0511368 18.4128769,23.1071001 17.6141712,22.6904846 C17.349984,22.5412492 16.8953361,22.1059793 16.6925877,21.7826359 L16.5328466,21.5650009 L15.8385871,21.9753983 L14.9170036,22.5163766 L14.6835358,22.665612 C14.6589602,22.709139 15.0951764,23.3744802 15.3225003,23.6232059 C15.900026,24.2636745 16.8400411,24.7611258 17.8230635,24.9476701 C18.2838552,25.0285059 19.2668776,25.0409422 19.6969499,24.9663245 C21.0670373,24.7362533 22.0254841,24.0336032 22.418693,22.9951735 C22.7688947,22.0437978 22.6521608,20.7752969 22.1299302,19.9669385 C21.6691385,19.245634 20.9072961,18.7419645 19.1501437,17.9771331 C18.1978407,17.5542994 17.8906463,17.3491008 17.7247612,17.007103 C17.6510346,16.8454313 17.6141712,16.7335047 17.6141712,16.5345242 C17.6141712,15.8816193 18.1056824,15.4898763 18.8429492,15.5396215 C19.352892,15.5769303 19.6785182,15.7759109 19.9980005,16.2360534 C20.0963027,16.3977251 20.1946049,16.5034335 20.2191805,16.484779 C20.8642889,16.0805998 21.9271818,15.3530772 21.9271818,15.3157684 C21.9026063,15.2038418 21.5646924,14.7685719 21.3373684,14.5198462 C20.9072961,14.0659219 20.4280727,13.7798873 19.801396,13.6306519 Z" id="typescript"></path>
            </g>
        </g>
    </g>
</svg>