<?xml version="1.0" encoding="UTF-8"?>
<svg width="44px" height="44px" viewBox="0 0 44 44" version="1.1" xmlns="http://www.w3.org/2000/svg" xmlns:xlink="http://www.w3.org/1999/xlink">
    <!-- Generator: Sketch 50.2 (55047) - http://www.bohemiancoding.com/sketch -->
    <title>user-change</title>
    <desc>Created with Sketch.</desc>
    <defs></defs>
    <g id="01-Ficha-bootcamp" stroke="none" stroke-width="1" fill="none" fill-rule="evenodd">
        <g id="01-E-Ficha-Bootcamp" transform="translate(-548.000000, -2816.000000)" fill="#757575" fill-rule="nonzero">
            <g id="Line_Icons" transform="translate(547.000000, 2816.000000)">
                <g id="Group">
                    <g transform="translate(0.600000, 0.000000)" id="user-change">
                        <path d="M32.8036,18.0126 C36.7744,18.0126 40.0036,14.7816 40.0036,10.8126 L43.6036,10.8126 C43.6036,16.7688 38.7598,21.6126 32.8036,21.6126 C29.893,21.6126 27.1894,20.466 25.1752,18.441 L22.0036,21.6126 L22.0036,12.6126 L31.0036,12.6126 L27.7438,15.8724 C29.0884,17.2206 30.865,18.0126 32.8036,18.0126 Z M40.4374,3.1824 L43.6054,0.0126 L43.6054,9.0126 L34.6054,9.0126 L37.8652,5.751 C36.5206,4.4046 34.7458,3.6126 32.8054,3.6126 C28.8364,3.6126 25.6054,6.8436 25.6054,10.8126 L22.0054,10.8126 C22.0054,4.8564 26.8492,0.0126 32.8054,0.0126 C35.7178,0.0126 38.4232,1.1574 40.4374,3.1824 Z M29.2036,43.2126 L0.4036,43.2126 L0.4036,41.4126 C0.4036,35.0532 6.3238,30.6126 14.8036,30.6126 C23.2834,30.6126 29.2036,35.0532 29.2036,41.4126 L29.2036,43.2126 Z M4.2898,39.6126 L25.321,39.6126 C24.2428,36.3582 20.2198,34.2126 14.8054,34.2126 C9.391,34.2126 5.3662,36.3582 4.2898,39.6126 Z M17.9032,23.4126 L17.9032,23.4108 L21.7462,23.4108 C20.9416,26.5086 18.148,28.8108 14.8036,28.8108 C10.8346,28.8108 7.6036,25.5798 7.6036,21.6108 C7.6036,17.6418 10.8346,14.4108 14.8036,14.4108 C15.43,14.4108 16.0258,14.517 16.6036,14.6682 L16.6036,18.513 C16.0726,18.2016 15.4606,18.0126 14.8036,18.0126 C12.8164,18.0126 11.2036,19.6254 11.2036,21.6126 C11.2036,23.598 12.8164,25.2126 14.8036,25.2126 C16.132,25.2126 17.2786,24.4836 17.9032,23.4126 Z"></path>
                    </g>
                </g>
            </g>
        </g>
    </g>
</svg>