<?xml version="1.0" encoding="UTF-8"?>
<svg width="39px" height="42px" viewBox="0 0 39 42" version="1.1" xmlns="http://www.w3.org/2000/svg" xmlns:xlink="http://www.w3.org/1999/xlink">
    <!-- Generator: Sketch 50.2 (55047) - http://www.bohemiancoding.com/sketch -->
    <title>Group 2</title>
    <desc>Created with Sketch.</desc>
    <defs></defs>
    <g id="Componentes" stroke="none" stroke-width="1" fill="none" fill-rule="evenodd">
        <g id="Iconos-horario" transform="translate(-161.000000, -142.000000)" fill-rule="nonzero">
            <g id="Group-2" transform="translate(161.000000, 142.000000)">
                <path d="M33.3346944,15.4200293 L29.8402944,15.4200293 L29.8402944,10.2834439 L31.5874944,10.2834439 C33.5164032,10.2834439 35.0818944,8.74760488 35.0818944,6.85905366 C35.0818944,4.96879024 33.5164032,3.43466341 31.5874944,3.43466341 C29.6585856,3.43466341 28.0930944,4.96879024 28.0930944,6.85905366 L24.5986944,6.85905366 C24.5986944,3.08366341 27.7349184,0.0102731707 31.5874944,0.0102731707 C35.4400704,0.0102731707 38.5762944,3.08366341 38.5762944,6.85905366 C38.5762944,10.0437366 36.34512,12.7284585 33.3346944,13.4920976 L33.3346944,15.4200293 Z" id="Shape" fill="#AD76BD"></path>
                <ellipse id="Oval" fill="#AD76BD" cx="31.5874944" cy="18.8444195" rx="1.7472" ry="1.71219512"></ellipse>
                <path d="M13.9810944,27.4053951 C10.1285184,27.4053951 6.9922944,24.3320049 6.9922944,20.5566146 C6.9922944,16.7812244 10.1285184,13.7078341 13.9810944,13.7078341 C17.8336704,13.7078341 20.9698944,16.7812244 20.9698944,20.5566146 C20.9698944,24.3320049 17.8354176,27.4053951 13.9810944,27.4053951 Z M13.9810944,17.1322244 C12.0521856,17.1322244 10.4866944,18.6663512 10.4866944,20.5566146 C10.4866944,22.4451659 12.0521856,23.9810049 13.9810944,23.9810049 C15.9100032,23.9810049 17.4754944,22.4451659 17.4754944,20.5566146 C17.4754944,18.6663512 15.9100032,17.1322244 13.9810944,17.1322244 Z" id="Shape" fill="#8D8D8D"></path>
                <path d="M27.9586944,41.1029561 L0.0034944,41.1029561 L0.0034944,39.390761 C0.0034944,33.3415756 5.7500352,29.1175902 13.9810944,29.1175902 C22.2121536,29.1175902 27.9586944,33.3415756 27.9586944,39.390761 L27.9586944,41.1029561 Z M3.7756992,37.6785659 L24.189984,37.6785659 C23.1434112,34.5829171 19.2384192,32.5419805 13.9828416,32.5419805 C8.727264,32.5419805 4.8205248,34.5829171 3.7756992,37.6785659 Z" id="Shape" fill="#8D8D8D"></path>
            </g>
        </g>
    </g>
</svg>