<?xml version="1.0" encoding="UTF-8"?>
<svg width="28px" height="30px" viewBox="0 0 28 30" version="1.1" xmlns="http://www.w3.org/2000/svg" xmlns:xlink="http://www.w3.org/1999/xlink">
    <!-- Generator: Sketch 51.3 (57544) - http://www.bohemiancoding.com/sketch -->
    <title>Shape</title>
    <desc>Created with Sketch.</desc>
    <defs></defs>
    <g id="01-Ficha-bootcamp" stroke="none" stroke-width="1" fill="none" fill-rule="evenodd">
        <g id="01-E-Ficha-Bootcamp" transform="translate(-267.000000, -7360.000000)" fill="#FFFFFF" fill-rule="nonzero">
            <g id="Módulo-8" transform="translate(0.000000, 6912.000000)">
                <g id="Group-45" transform="translate(0.000000, 32.000000)">
                    <g id="Group-39" transform="translate(0.000000, 278.000000)">
                        <g id="Group-38">
                            <g id="user-question-mark" transform="translate(267.000000, 137.000000)">
                                <g id="Line_Icons">
                                    <g id="Group">
                                        <g transform="translate(0.000000, 0.852632)" id="Shape">
                                            <path d="M19.970496,29.7126526 L0.002496,29.7126526 L0.002496,28.4810737 C0.002496,24.1299053 4.107168,21.0916 9.986496,21.0916 C15.865824,21.0916 19.970496,24.1299053 19.970496,28.4810737 L19.970496,29.7126526 Z M2.696928,27.2494947 L17.27856,27.2494947 C16.531008,25.0228 13.741728,23.5547579 9.987744,23.5547579 C6.23376,23.5547579 3.443232,25.0228 2.696928,27.2494947 Z M9.986496,19.8600211 C7.234656,19.8600211 4.994496,17.6493368 4.994496,14.9337053 C4.994496,12.2180737 7.234656,10.0073895 9.986496,10.0073895 C12.738336,10.0073895 14.978496,12.2180737 14.978496,14.9337053 C14.978496,17.6493368 12.739584,19.8600211 9.986496,19.8600211 Z M9.986496,12.4705474 C8.608704,12.4705474 7.490496,13.5740421 7.490496,14.9337053 C7.490496,16.2921368 8.608704,17.3968632 9.986496,17.3968632 C11.364288,17.3968632 12.482496,16.2921368 12.482496,14.9337053 C12.482496,13.5740421 11.364288,12.4705474 9.986496,12.4705474 Z M23.810496,11.2389684 L21.314496,11.2389684 L21.314496,7.54423158 L22.562496,7.54423158 C23.940288,7.54423158 25.058496,6.43950526 25.058496,5.08107368 C25.058496,3.72141053 23.940288,2.61791579 22.562496,2.61791579 C21.184704,2.61791579 20.066496,3.72141053 20.066496,5.08107368 L17.570496,5.08107368 C17.570496,2.36544211 19.810656,0.154757895 22.562496,0.154757895 C25.314336,0.154757895 27.554496,2.36544211 27.554496,5.08107368 C27.554496,7.37181053 25.9608,9.30292632 23.810496,9.85221053 L23.810496,11.2389684 Z M22.562496,14.9337053 C21.8732446,14.9337053 21.314496,14.3823086 21.314496,13.7021263 C21.314496,13.021944 21.8732446,12.4705474 22.562496,12.4705474 C23.2517474,12.4705474 23.810496,13.021944 23.810496,13.7021263 C23.810496,14.3823086 23.2517474,14.9337053 22.562496,14.9337053 Z"></path>
                                        </g>
                                    </g>
                                </g>
                            </g>
                        </g>
                    </g>
                </g>
            </g>
        </g>
    </g>
</svg>