<?xml version="1.0" encoding="UTF-8"?>
<svg width="29px" height="33px" viewBox="0 0 29 33" version="1.1" xmlns="http://www.w3.org/2000/svg" xmlns:xlink="http://www.w3.org/1999/xlink">
    <!-- Generator: Sketch 51.3 (57544) - http://www.bohemiancoding.com/sketch -->
    <title>Combined Shape</title>
    <desc>Created with Sketch.</desc>
    <defs></defs>
    <g id="01-Ficha-bootcamp" stroke="none" stroke-width="1" fill="none" fill-rule="evenodd">
        <g id="01-E-Ficha-Bootcamp" transform="translate(-543.000000, -8836.000000)" fill="#585858" fill-rule="nonzero">
            <g id="Módulo-10" transform="translate(-275.000000, 8591.000000)">
                <g id="Group-49" transform="translate(365.000000, 239.000000)">
                    <g id="user-clipboard" transform="translate(453.000000, 6.000000)">
                        <g id="Line_Icons">
                            <g id="Group">
                                <path d="M7.89631579,26.7142857 C7.89631579,23.0984286 10.1842105,20.8214286 13.8173684,20.8214286 C17.4505263,20.8214286 19.7384211,23.0984286 19.7384211,26.7142857 L7.89631579,26.7142857 Z M13.8173684,18.8571429 C11.637297,18.8571429 9.87,17.0982615 9.87,14.9285714 C9.87,12.7588813 11.637297,11 13.8173684,11 C15.9974398,11 17.7647368,12.7588813 17.7647368,14.9285714 C17.7647368,17.0982615 15.9974398,18.8571429 13.8173684,18.8571429 Z M25.2647368,4.71428571 C27.0063158,4.71428571 28.4226316,6.12228571 28.4226316,7.85714286 L28.4226316,29.8571429 C28.4226316,31.5904286 27.0063158,33 25.2647368,33 L3.15947368,33 C1.41789474,33 0.00157894737,31.5904286 0.00157894737,29.8571429 L0.00157894737,7.85714286 C0.00157894737,6.12228571 1.41789474,4.71428571 3.15947368,4.71428571 L4.73842105,4.71428571 L4.73842105,7.85714286 L3.15947368,7.85714286 L3.15947368,29.8571429 L25.2663158,29.8571429 L25.2647368,7.85714286 L23.6857895,7.85714286 L23.6857895,4.71428571 L25.2647368,4.71428571 Z M17.37,3.14285714 L20.5278947,3.14285714 L20.5278947,7.85714286 L7.89631579,7.85714286 L7.89631579,3.14285714 L11.0542105,3.14285714 C11.0542105,1.408 12.4689474,-7.81597009e-13 14.2121053,-7.81597009e-13 C15.9552632,-7.81597009e-13 17.37,1.408 17.37,3.14285714 Z" id="Combined-Shape"></path>
                            </g>
                        </g>
                    </g>
                </g>
            </g>
        </g>
    </g>
</svg>