<?xml version="1.0" encoding="UTF-8"?>
<svg width="34px" height="34px" viewBox="0 0 34 34" version="1.1" xmlns="http://www.w3.org/2000/svg" xmlns:xlink="http://www.w3.org/1999/xlink">
    <!-- Generator: Sketch 51.3 (57544) - http://www.bohemiancoding.com/sketch -->
    <title>Combined Shape</title>
    <desc>Created with Sketch.</desc>
    <defs></defs>
    <g id="01-Ficha-bootcamp" stroke="none" stroke-width="1" fill="none" fill-rule="evenodd">
        <g id="01-E-Ficha-Bootcamp" transform="translate(-1185.000000, -8833.000000)" fill="#585858" fill-rule="nonzero">
            <g id="Módulo-10" transform="translate(-275.000000, 8591.000000)">
                <g id="Group-49" transform="translate(365.000000, 239.000000)">
                    <g id="network-people" transform="translate(1095.000000, 3.000000)">
                        <g id="Line_Icons">
                            <g id="Group">
                                <path d="M2.83333333,5.66666667 C1.26791667,5.66666667 0,4.39733333 0,2.83333333 C0,1.26933333 1.26791667,0 2.83333333,0 C4.39875,0 5.66666667,1.26933333 5.66666667,2.83333333 C5.66666667,3.0855 5.62275,3.32633333 5.56183333,3.55866667 L10.2099167,8.20675 L8.20675,10.2099167 L3.55866667,5.56183333 C3.32633333,5.62275 3.0855,5.66666667 2.83333333,5.66666667 Z M2.83333333,19.8333333 C1.26791667,19.8333333 0,18.564 0,17 C0,15.436 1.26791667,14.1666667 2.83333333,14.1666667 C3.87883333,14.1666667 4.78266667,14.7404167 5.27425,15.5833333 L8.5,15.5833333 L8.5,18.4166667 L5.27425,18.4166667 C4.78408333,19.2595833 3.87883333,19.8333333 2.83333333,19.8333333 Z M8.20675,23.7900833 L10.2099167,25.7918333 L5.56183333,30.4413333 C5.62275,30.6736667 5.66666667,30.9159167 5.66666667,31.1666667 C5.66666667,32.7306667 4.39875,34 2.83333333,34 C1.26791667,34 0,32.7306667 0,31.1666667 C0,29.6026667 1.26791667,28.3333333 2.83333333,28.3333333 C3.0855,28.3333333 3.32633333,28.37725 3.55866667,28.4395833 L8.20675,23.7900833 Z M31.1666667,14.1666667 C32.7320833,14.1666667 34,15.436 34,17 C34,18.564 32.7320833,19.8333333 31.1666667,19.8333333 C30.11975,19.8333333 29.2159167,19.2595833 28.72575,18.4166667 L25.5,18.4166667 L25.5,15.5833333 L28.72575,15.5833333 C29.2173333,14.7404167 30.1211667,14.1666667 31.1666667,14.1666667 Z M25.79325,10.2099167 L23.7900833,8.20675 L28.4381667,3.55866667 C28.37725,3.32633333 28.3333333,3.0855 28.3333333,2.83333333 C28.3333333,1.26933333 29.60125,0 31.1666667,0 C32.7320833,0 34,1.26933333 34,2.83333333 C34,4.39733333 32.7320833,5.66666667 31.1666667,5.66666667 C30.9145,5.66666667 30.6736667,5.62275 30.4413333,5.56183333 L25.79325,10.2099167 Z M31.1666667,28.3333333 C32.7320833,28.3333333 34,29.6026667 34,31.1666667 C34,32.7306667 32.7320833,34 31.1666667,34 C29.60125,34 28.3333333,32.7306667 28.3333333,31.1666667 C28.3333333,30.9159167 28.37725,30.6736667 28.4381667,30.44275 L23.7900833,25.79325 L25.79325,23.7900833 L30.4413333,28.4395833 C30.6736667,28.37725 30.9145,28.3333333 31.1666667,28.3333333 Z M21.25,7.08333333 C21.25,4.74016667 19.3431667,2.83333333 17,2.83333333 C14.6568333,2.83333333 12.75,4.74016667 12.75,7.08333333 C12.75,9.4265 14.6568333,11.3333333 17,11.3333333 C19.3431667,11.3333333 21.25,9.4265 21.25,7.08333333 Z M17,8.5 C16.2194167,8.5 15.5833333,7.86533333 15.5833333,7.08333333 C15.5833333,6.30133333 16.2194167,5.66666667 17,5.66666667 C17.7805833,5.66666667 18.4166667,6.30133333 18.4166667,7.08333333 C18.4166667,7.86533333 17.7805833,8.5 17,8.5 Z M24.0833333,18.4166667 C24.0833333,14.5109167 20.90575,11.3333333 17,11.3333333 C13.09425,11.3333333 9.91666667,14.5109167 9.91666667,18.4166667 L9.91666667,22.6666667 C9.91666667,23.4486667 10.5499167,24.0833333 11.3333333,24.0833333 L12.75,24.0833333 L12.75,29.75 C12.75,30.532 13.38325,31.1666667 14.1666667,31.1666667 L19.8333333,31.1666667 C20.61675,31.1666667 21.25,30.532 21.25,29.75 L21.25,24.0833333 L22.6666667,24.0833333 C23.4500833,24.0833333 24.0833333,23.4486667 24.0833333,22.6666667 L24.0833333,18.4166667 Z M21.25,21.25 L19.8333333,21.25 C19.0499167,21.25 18.4166667,21.8846667 18.4166667,22.6666667 L18.4166667,28.3333333 L15.5833333,28.3333333 L15.5833333,22.6666667 C15.5833333,21.8846667 14.9500833,21.25 14.1666667,21.25 L12.75,21.25 L12.75,18.4166667 C12.75,16.0735 14.6568333,14.1666667 17,14.1666667 C19.3431667,14.1666667 21.25,16.0735 21.25,18.4166667 L21.25,21.25 Z" id="Combined-Shape"></path>
                            </g>
                        </g>
                    </g>
                </g>
            </g>
        </g>
    </g>
</svg>