<?xml version="1.0" encoding="UTF-8"?>
<svg width="92px" height="84px" viewBox="0 0 92 84" version="1.1" xmlns="http://www.w3.org/2000/svg" xmlns:xlink="http://www.w3.org/1999/xlink">
    <!-- Generator: Sketch 51.3 (57544) - http://www.bohemiancoding.com/sketch -->
    <title>Group 53</title>
    <desc>Created with Sketch.</desc>
    <defs></defs>
    <g id="01-Ficha-bootcamp" stroke="none" stroke-width="1" fill="none" fill-rule="evenodd" opacity="0.665122768">
        <g id="01-E-Ficha-Bootcamp" transform="translate(-687.000000, -2682.000000)">
            <g id="Módulo-4" transform="translate(-6.000000, 2660.000000)">
                <g id="Group-50">
                    <g id="Group-8" transform="translate(677.000000, 7.000000)">
                        <g id="Group-4" transform="translate(63.717260, 52.327125) rotate(-23.000000) translate(-63.717260, -52.327125) translate(8.717260, 18.827125)">
                            <g id="Group-53" opacity="0.594084821">
                                <path d="M19.8662051,9.28869965 L70.0345914,9.42122362 C79.5931451,9.44465929 84.3724219,12.0302256 84.3724219,17.1779226 C84.3724219,22.3256196 79.5931451,24.855534 70.0345914,24.767666 L19.8662051,24.635142 C11.2664218,24.4801544 6.96653021,21.922414 6.96653021,16.9619208 C6.96653021,12.0014276 11.2664218,9.44368725 19.8662051,9.28869965 Z" id="Rectangle-9-Copy-2" fill="#105580" transform="translate(45.669476, 17.029289) rotate(-13.500000) translate(-45.669476, -17.029289) "></path>
                                <path d="M43.8620315,19.3514656 L94.0304179,19.4839895 C103.588971,19.5074252 108.368248,22.0929915 108.368248,27.2406885 C108.368248,32.3883855 103.588971,34.9182999 94.0304179,34.8304319 L43.8620315,34.6979079 C35.2622483,34.5429203 30.9623566,31.9851799 30.9623566,27.0246867 C30.9623566,22.0641936 35.2622483,19.5064532 43.8620315,19.3514656 Z" id="Rectangle-9-Copy-2" fill="#8C40A3" transform="translate(69.665302, 27.092055) rotate(-13.500000) translate(-69.665302, -27.092055) "></path>
                                <path d="M17.2856427,39.4770048 L81.5011772,39.6095287 C93.7361259,39.6329644 99.8536002,42.2185307 99.8536002,47.3662277 C99.8536002,52.5139247 93.7361259,55.0438391 81.5011772,54.9559711 L17.2856427,54.8234471 C6.27792013,54.6684595 0.774058852,52.1107191 0.774058852,47.1502259 C0.774058852,42.1897327 6.27792013,39.6319923 17.2856427,39.4770048 Z" id="Rectangle-9-Copy-2" fill="#9DE7AC" transform="translate(50.313830, 47.217594) rotate(-13.500000) translate(-50.313830, -47.217594) "></path>
                            </g>
                        </g>
                    </g>
                </g>
            </g>
        </g>
    </g>
</svg>